<?xml version="1.0" encoding="utf-8"?>
<!-- Generator: Adobe Illustrator 24.2.3, SVG Export Plug-In . SVG Version: 6.00 Build 0)  -->
<svg version="1.1" id="Layer_1" focusable="false" xmlns="http://www.w3.org/2000/svg" xmlns:xlink="http://www.w3.org/1999/xlink"
	 x="0px" y="0px" viewBox="0 0 448 512" style="enable-background:new 0 0 448 512;" xml:space="preserve">
<style type="text/css">
	.st0{fill:#EB423F;}
	.st1{fill:#333333;}
</style>
<g>
	<path class="st0" d="M384,32H64C28.7,32,0,60.7,0,96v320c0,35.3,28.7,64,64,64h320c35.3,0,64-28.7,64-64V96
		C448,60.7,419.3,32,384,32z M128,384c-17.7,0-32-14.3-32-32s14.3-32,32-32s32,14.3,32,32S145.7,384,128,384z M128,192
		c-17.7,0-32-14.3-32-32s14.3-32,32-32s32,14.3,32,32S145.7,192,128,192z M224,288c-17.7,0-32-14.3-32-32s14.3-32,32-32
		s32,14.3,32,32S241.7,288,224,288z M320,384c-17.7,0-32-14.3-32-32s14.3-32,32-32s32,14.3,32,32S337.7,384,320,384z M320,192
		c-17.7,0-32-14.3-32-32s14.3-32,32-32s32,14.3,32,32S337.7,192,320,192z"/>
	<path class="st1" d="M320,192c17.7,0,32-14.3,32-32s-14.3-32-32-32s-32,14.3-32,32S302.3,192,320,192z M320,320
		c-17.7,0-32,14.3-32,32s14.3,32,32,32s32-14.3,32-32S337.7,320,320,320z M224,224c-17.7,0-32,14.3-32,32s14.3,32,32,32
		s32-14.3,32-32S241.7,224,224,224z M128,128c-17.7,0-32,14.3-32,32s14.3,32,32,32s32-14.3,32-32S145.7,128,128,128z M128,320
		c-17.7,0-32,14.3-32,32s14.3,32,32,32s32-14.3,32-32S145.7,320,128,320z"/>
</g>
</svg>
