<?xml version="1.0" encoding="utf-8"?>
<!-- Generator: Adobe Illustrator 24.2.3, SVG Export Plug-In . SVG Version: 6.00 Build 0)  -->
<svg version="1.1" id="Layer_1" xmlns="http://www.w3.org/2000/svg" xmlns:xlink="http://www.w3.org/1999/xlink" x="0px" y="0px"
	 viewBox="0 0 512 512" style="enable-background:new 0 0 512 512;" xml:space="preserve">
<style type="text/css">
	.st0{fill:#F4731C;}
	.st1{fill:#371A45;}
	.st2{fill:#FFA726;}
	.st3{opacity:0.35;}
	.st4{fill:#293856;}
	.st5{opacity:0.4;}
	.st6{fill:#FFFFFF;}
	.st7{fill:#111A28;}
	.st8{opacity:0.7;}
	.st9{fill:none;stroke:#371A45;stroke-width:32;stroke-miterlimit:10;}
	.st10{fill:#FCFCFC;}
	.st11{fill:#22A7F0;}
	.st12{fill:#EE346A;}
	.st13{fill:#DB2C2C;}
	.st14{fill:#1F9EE5;}
</style>
<g>
	<g>
		<g>
			<g>
				<g>
					<g>
						<circle class="st0" cx="243.4" cy="322.2" r="129.3"/>
					</g>
				</g>
			</g>
			<g>
				<g>
					<g>
						<path class="st1" d="M243.6,451.8c-12,0-24-1.7-35.8-5c-33.3-9.5-60.9-31.4-77.7-61.7c-16.8-30.3-20.8-65.3-11.3-98.5
							c9.5-33.3,31.4-60.9,61.7-77.7c30.3-16.8,65.3-20.8,98.5-11.3c33.3,9.5,60.9,31.4,77.7,61.7c16.8,30.3,20.8,65.3,11.3,98.5
							c-9.5,33.3-31.4,60.9-61.7,77.7C286.9,446.3,265.4,451.8,243.6,451.8z M243.3,193.1c-21.6,0-43,5.5-62.5,16.3
							c-30.1,16.7-51.9,44.2-61.4,77.3c-9.5,33.1-5.5,68,11.3,98.1s44.2,51.9,77.3,61.4c33.1,9.5,68,5.5,98.1-11.3
							c30.1-16.7,51.9-44.2,61.4-77.3c9.5-33.1,5.5-68-11.3-98.1c-16.7-30.1-44.2-51.9-77.3-61.4
							C267.1,194.8,255.1,193.1,243.3,193.1z"/>
					</g>
				</g>
			</g>
		</g>
		<g>
			<g>
				<g>
					<g>
						<path class="st2" d="M305.6,435.4c-62.4,34.7-141.1,12.2-175.8-50.2c-6-10.8-10.3-22.1-13-33.6c-1.2-5-2-10-2.6-15.1
							c-5.5-50.2,18.9-101.1,65.7-127.1c22-12.2,46.1-17.4,69.5-16.1c43,2.3,83.9,25.9,106.3,66.3c7.1,12.7,11.8,26.1,14.2,39.7
							C379.6,352.2,355.3,407.8,305.6,435.4z"/>
					</g>
				</g>
			</g>
		</g>
		<g class="st3">
			<g>
				<g>
					<g>
						<path class="st1" d="M304.3,429.2c-62.5,34.7-141.4,12.2-176.1-50.3c-4.9-8.9-8.7-18-11.4-27.4c-1.6-5.5-2.8-11-3.6-16.6
							c0.3,0.5,0.7,1,1,1.5c23.8,35.4,62,56.5,102.3,59.8c-1.6-11.6,5.9-22.9,17.5-25.8c12.6-3.2,25.3,4.5,28.5,17
							c0.4,1.5,0.6,2.9,0.7,4.4c10.4-2.8,20.6-6.9,30.4-12.4c17.9-10,32.7-23.4,44-38.9c1-1.4-1-3.1-2.2-1.7
							c-0.5,0.6-0.9,1.2-1.4,1.9c-5.6,8.5-29.2,8.3-45.4-10.5c-16.2-18.9,20.6-31.9,25.4-45.5c4.8-13.6,1.5-17.2-3.6-18.9
							c-5-1.8-49,9.5-56.2-23.3c-4.9-22.1,23.8-23,39.2-22.8c6,0.8,10.1,0.6,10.1,0.6s-4.2-0.5-10.1-0.6c-12.4-1.6-33-7.2-44-26.6
							c43,2.3,83.9,25.9,106.3,66.3c7.1,12.7,11.8,26.1,14.2,39.7l-0.2,0.3C376.4,350.5,352,402.7,304.3,429.2z"/>
					</g>
				</g>
			</g>
		</g>
		<g class="st3">
			<g>
				<g>
					<g>
						<path class="st4" d="M303.6,220.4c0,0-4.1,0.2-10.1-0.6C299.4,219.9,303.6,220.4,303.6,220.4z"/>
					</g>
				</g>
			</g>
			<g>
				<g>
					<g>
						<path class="st1" d="M302.4,220.7c-1.7,0-4.9-0.1-9-0.6l0-0.6c5.9,0.1,10.1,0.6,10.2,0.6l0,0.6
							C303.6,220.7,303.2,220.7,302.4,220.7z"/>
					</g>
				</g>
			</g>
		</g>
		<g class="st5">
			<g>
				<g>
					<g>
						<path class="st6" d="M373.3,299.5c-2.6-8.1-6-16.1-10.3-23.8c-25.4-45.6-73.8-70.3-122.6-67.6l0,0c1.9,7.5-6,15.9-17.6,18.8
							c-11.6,2.9-22.5-0.8-24.4-8.2c-0.1-0.3-0.2-0.7-0.2-1.1c-4.9,2-9.7,4.3-14.4,6.9c-50.7,28.2-75.6,84.9-65.6,138.9
							c-18.9-58.6,5.6-124.3,61.5-155.4c63.6-35.3,143.8-12.4,179.2,51.2C366.1,272.2,370.8,285.8,373.3,299.5z"/>
					</g>
				</g>
			</g>
		</g>
		<g>
			<g>
				<g>
					<g>
						<path class="st1" d="M243.6,454c-12.1,0-24.4-1.7-36.4-5.1c-33.8-9.7-61.9-31.9-79-62.7c-17.1-30.8-21.2-66.3-11.5-100.2
							c9.7-33.8,31.9-61.9,62.7-79s66.3-21.2,100.2-11.5c33.8,9.7,61.9,31.9,79,62.7c17.1,30.8,21.2,66.3,11.5,100.2
							c-9.7,33.8-31.9,61.9-62.7,79C287.6,448.4,265.7,454,243.6,454z M243.3,195.3c-21.3,0-42.3,5.4-61.4,16
							c-29.6,16.5-51.1,43.5-60.4,76s-5.4,66.8,11.1,96.5c16.5,29.6,43.5,51.1,76,60.4c32.6,9.3,66.8,5.4,96.5-11.1
							c29.6-16.5,51.1-43.5,60.4-76c9.3-32.6,5.4-66.8-11.1-96.5c-16.5-29.6-43.5-51.1-76-60.4C266.7,196.9,255,195.3,243.3,195.3z"
							/>
					</g>
				</g>
			</g>
		</g>
		<g>
			<g>
				<g>
					<g>
						<path class="st1" d="M261.4,399.4c-0.3,1.3-0.7,2.6-1.2,3.9c-0.5,1.3-1.2,2.5-1.9,3.7c-0.7,1.2-1.6,2.3-2.6,3.3
							c-1,1-1.9,1.9-3,2.8c-2.1,1.8-4.4,3.3-7,4.5c-2.6,1.2-5.5,1.8-8.5,1.9c-3,0-6-0.7-8.6-1.9c-2.7-1.2-5-2.9-7.2-4.7
							c-1.1-0.9-2-1.9-3-2.9c-1-1.1-1.9-2.2-2.7-3.4c-1.6-2.4-2.8-5.2-3.5-8c-1.3-5.7-0.8-11.8,1.6-17c2.4-5.3,6.7-9.6,11.8-12.2
							c5.1-2.6,11.1-3.3,16.5-2.1c5.5,1.2,10.4,4.3,13.7,8.5c0.3,0.4,0.2,1-0.2,1.3c-0.4,0.3-0.9,0.2-1.2,0l0,0
							c-3.7-3.4-8.3-5.5-13-6c-4.7-0.6-9.5,0.5-13.5,2.8c-4,2.3-7.2,5.9-8.9,10.1c-0.9,2.1-1.4,4.3-1.6,6.6c-0.2,2.2,0,4.5,0.6,6.7
							c0.6,2.2,1.4,4.3,2.6,6.2c0.6,0.9,1.3,1.8,2,2.7c0.8,0.9,1.6,1.7,2.5,2.5c1.7,1.6,3.6,3,5.6,4c2,1,4.1,1.6,6.3,1.7
							c2.2,0.1,4.4-0.3,6.6-1c2.2-0.8,4.3-1.9,6.3-3.3c1-0.7,2-1.5,2.9-2.2c0.9-0.8,1.7-1.6,2.5-2.6c1.5-1.8,2.8-3.9,3.8-6.2l0,0
							c0.2-0.6,0.9-0.9,1.5-0.6C261.2,398.3,261.5,398.9,261.4,399.4z"/>
					</g>
				</g>
			</g>
		</g>
		<g class="st5">
			<g>
				<g>
					<g>
						<path class="st6" d="M261.1,315.2c-6.2,3.1-13.2,2.6-18.8-0.7c3.1,1,6.6,1.2,10,0.4c9.7-2.4,15.5-12.2,13.1-21.9
							c-2.4-9.6-12.2-15.5-21.9-13.1c-0.6,0.1-1.1,0.3-1.7,0.5c0.5-0.3,1.1-0.6,1.6-0.9c9.8-4.8,21.8-0.8,26.6,9
							C275,298.5,271,310.4,261.1,315.2z"/>
					</g>
				</g>
			</g>
		</g>
		<g class="st3">
			<g>
				<g>
					<g>
						
							<ellipse transform="matrix(0.9992 -3.918971e-02 3.918971e-02 0.9992 -12.3094 6.6808)" class="st4" cx="164.3" cy="317.3" rx="27.2" ry="27.2"/>
					</g>
				</g>
			</g>
			<g>
				<g>
					<g>
						<path class="st1" d="M164.2,344.8c-4.9,0-9.7-1.3-14.1-3.9c-6.3-3.8-10.8-9.8-12.5-16.9c-1.8-7.1-0.7-14.5,3.1-20.8
							c3.8-6.3,9.8-10.8,16.9-12.5c7.1-1.8,14.5-0.7,20.8,3.1c6.3,3.8,10.8,9.8,12.5,16.9c1.8,7.1,0.7,14.5-3.1,20.8
							c-3.8,6.3-9.8,10.8-16.9,12.5C168.7,344.5,166.5,344.8,164.2,344.8z M164.3,290.4c-2.2,0-4.4,0.3-6.6,0.8
							c-7,1.7-12.8,6.1-16.5,12.3c-3.7,6.2-4.8,13.4-3,20.4c1.7,7,6.1,12.8,12.3,16.5c6.2,3.7,13.4,4.8,20.4,3
							c7-1.7,12.8-6.1,16.5-12.3c3.7-6.2,4.8-13.4,3-20.4l0,0c-1.7-7-6.1-12.8-12.3-16.5C173.8,291.7,169.1,290.4,164.3,290.4z"/>
					</g>
				</g>
			</g>
		</g>
		<g class="st5">
			<g>
				<g>
					<g>
						<path class="st6" d="M202,306.5c6,17.3-3.2,36.3-20.5,42.3c-17.4,6-36.3-3.2-42.3-20.5c-0.1-0.3-0.2-0.7-0.3-1
							c5.7,12.7,20.3,19.2,33.7,14.5c14.2-4.9,21.7-20.4,16.8-34.6c-4.9-14.2-20.4-21.7-34.6-16.8c-3.9,1.3-7.2,3.5-10,6.1
							c3.8-4.7,8.9-8.4,15-10.5C177.1,280,196,289.2,202,306.5z"/>
					</g>
				</g>
			</g>
		</g>
		<g>
			<g>
				<g>
					<g>
						<path class="st1" d="M143.6,296.2c4.3-4.9,10.4-8.2,17-9.2c6.6-1.1,13.6,0.2,19.5,3.5c3,1.7,5.6,3.9,7.9,6.4l0.8,1l0.4,0.5
							l0.4,0.5c0.5,0.7,1,1.4,1.5,2.1l1.3,2.2c0.4,0.8,0.7,1.6,1.1,2.3c1.2,3.2,2.1,6.6,2.3,10c0.2,3.4-0.2,6.9-1.1,10.2
							c-0.9,3.3-2.4,6.4-4.4,9.2c-2,2.8-4.4,5.3-7.1,7.3c-2.8,2-5.9,3.5-9.1,4.5c-0.8,0.2-1.6,0.5-2.5,0.7l-2.5,0.4
							c-1.7,0.2-3.4,0.3-5.1,0.2c-3.4-0.1-6.7-0.8-9.8-2c-3.1-1.3-6-3-8.5-5.1c-5.1-4.3-8.5-10.3-9.7-16.6c-0.1-0.5,0.2-1,0.7-1.1
							c0.4-0.1,0.9,0.2,1,0.6l0,0c2,5.7,5.5,10.7,10.2,14.1c2.4,1.7,4.9,3,7.7,3.9c2.7,0.8,5.6,1.3,8.4,1.2c1.4,0,2.8-0.2,4.2-0.4
							l2.1-0.5c0.7-0.1,1.3-0.4,2-0.6c2.6-0.9,5.2-2.2,7.4-3.9c4.3-3.5,7.7-8.2,9.1-13.6c0.7-2.7,1.1-5.4,0.9-8.2
							c-0.1-2.8-0.8-5.5-1.8-8.1c-1.9-5.2-5.8-9.6-10.5-12.7c-2.4-1.5-5-2.6-7.8-3.3c-2.7-0.7-5.6-1-8.5-0.7
							c-5.8,0.4-11.4,2.7-16,6.6c-0.5,0.4-1.2,0.3-1.6-0.1C143.2,297.2,143.2,296.6,143.6,296.2z"/>
					</g>
				</g>
			</g>
		</g>
		<g>
			<g>
				<g>
					<g>
						<path class="st1" d="M335.1,350.6c4.4,0.7,8.6,3.1,11.7,6.6c3.1,3.5,4.9,8.2,5,12.9c0.1,4.8-1.3,9.6-4.3,13.5
							c-1.5,1.9-3.2,3.6-5.2,5c-2,1.3-4.3,2.4-6.6,3c-4.7,1.3-9.8,0.8-14.2-1c-2.2-1-4.2-2.3-6-3.9c-1.8-1.6-3.2-3.5-4.4-5.6
							c-1.1-2.1-1.9-4.3-2.2-6.7c-0.3-2.3-0.3-4.7,0.1-6.9c0.8-4.5,3.3-8.6,6.7-11.5c0.4-0.3,1-0.3,1.3,0.1c0.3,0.3,0.3,0.8,0,1.1
							l0,0c-2.5,3.2-4,6.9-4.2,10.7c-0.1,1.9,0,3.8,0.5,5.6c0.5,1.8,1.2,3.5,2.2,5c0.5,0.8,1.1,1.5,1.6,2.2l0.9,1
							c0.3,0.3,0.7,0.6,1,0.9c1.4,1.1,2.9,2.1,4.6,2.7c3.3,1.2,7,1.5,10.4,0.5c1.7-0.5,3.3-1.2,4.8-2.2c1.5-1,2.8-2.2,3.9-3.6
							c0.3-0.4,0.6-0.7,0.8-1.1l0.7-1.1c0.4-0.8,0.8-1.6,1.1-2.4c0.6-1.7,1-3.4,1-5.2c0.1-1.8-0.2-3.6-0.7-5.4
							c-0.5-1.8-1.2-3.5-2.3-5c-2-3.1-5.2-5.6-8.9-7l0,0c-0.6-0.2-0.9-0.9-0.6-1.5C334.1,350.8,334.6,350.6,335.1,350.6z"/>
					</g>
				</g>
			</g>
		</g>
		<g class="st3">
			<g>
				<g>
					<g>
						
							<ellipse transform="matrix(0.5135 -0.8581 0.8581 0.5135 -134.5825 357.4992)" class="st4" cx="248" cy="297.4" rx="18" ry="18"/>
					</g>
				</g>
			</g>
			<g>
				<g>
					<g>
						<path class="st1" d="M248,315.8c-8.2,0-15.7-5.6-17.8-13.9c-2.5-9.8,3.5-19.8,13.3-22.2c9.8-2.5,19.8,3.5,22.2,13.3
							c1.2,4.7,0.5,9.7-2,13.9c-2.5,4.2-6.5,7.2-11.3,8.4C251,315.6,249.5,315.8,248,315.8z M248,279.7c-1.4,0-2.9,0.2-4.3,0.5
							c-9.5,2.4-15.2,12-12.9,21.5c2.4,9.5,12,15.2,21.5,12.9c4.6-1.2,8.5-4,10.9-8.1c2.4-4.1,3.1-8.8,2-13.4
							c-1.2-4.6-4-8.5-8.1-10.9C254.3,280.6,251.2,279.7,248,279.7z"/>
					</g>
				</g>
			</g>
		</g>
		<g>
			<g>
				<g>
					<g>
						<path class="st1" d="M232.6,308.6c-2.6-3.2-4.1-7.4-4-11.7c0.1-4.3,1.7-8.6,4.5-12c2.9-3.4,6.9-5.8,11.3-6.7
							c2.2-0.4,4.5-0.5,6.7-0.2c2.2,0.3,4.4,1,6.4,2c4,2,7.2,5.5,9.1,9.5c0.9,2,1.5,4.2,1.7,6.4c0.2,2.2,0,4.4-0.5,6.6
							c-0.5,2.1-1.4,4.2-2.6,6c-1.2,1.8-2.7,3.4-4.4,4.7c-3.4,2.6-7.6,3.8-11.7,3.6c-0.5,0-0.9-0.5-0.9-1c0-0.4,0.3-0.8,0.7-0.9l0,0
							c3.6-0.7,6.9-2.2,9.3-4.7c1.2-1.2,2.2-2.6,3-4.1c0.8-1.5,1.3-3.1,1.5-4.7c0.2-0.8,0.2-1.6,0.2-2.4l-0.1-1.2
							c0-0.4-0.1-0.8-0.1-1.2c-0.3-1.6-0.7-3.1-1.5-4.6c-1.5-2.8-3.8-5.2-6.7-6.6c-1.4-0.7-2.9-1.2-4.5-1.4
							c-1.6-0.2-3.2-0.2-4.7,0.1c-0.4,0.1-0.8,0.1-1.2,0.2l-1.1,0.3c-0.7,0.3-1.5,0.6-2.2,1c-1.4,0.7-2.7,1.7-3.9,2.9
							c-1.1,1.2-2.1,2.5-2.8,4c-0.7,1.5-1.3,3.1-1.5,4.8c-0.6,3.4,0,6.9,1.6,10.2l0,0c0.3,0.6,0,1.2-0.5,1.5
							C233.5,309.2,233,309,232.6,308.6z"/>
					</g>
				</g>
			</g>
		</g>
		<g class="st5">
			<g>
				<g>
					<g>
						<path class="st6" d="M261,247.1c-4.8,2.3-10.2,2-14.4-0.5c2.4,0.8,5.1,0.9,7.7,0.3c7.4-1.9,11.9-9.4,10.1-16.8
							c-1.9-7.4-9.4-11.9-16.8-10.1c-0.4,0.1-0.9,0.2-1.3,0.4c0.4-0.3,0.8-0.5,1.3-0.7c7.6-3.7,16.7-0.6,20.5,7
							C271.7,234.2,268.6,243.3,261,247.1z"/>
					</g>
				</g>
			</g>
		</g>
		<g class="st3">
			<g>
				<g>
					<g>
						
							<ellipse transform="matrix(0.3532 -0.9355 0.9355 0.3532 -56.0741 385.6566)" class="st4" cx="250.9" cy="233.4" rx="13.9" ry="13.9"/>
					</g>
				</g>
			</g>
			<g>
				<g>
					<g>
						<path class="st1" d="M250.9,247.5c-6.3,0-12.1-4.3-13.7-10.7c-1.9-7.6,2.7-15.3,10.3-17.2c7.6-1.9,15.3,2.7,17.2,10.3l0,0
							c0.9,3.7,0.4,7.5-1.6,10.7c-1.9,3.2-5,5.5-8.7,6.5C253.2,247.4,252,247.5,250.9,247.5z M250.9,219.8c-1.1,0-2.2,0.1-3.3,0.4
							c-3.5,0.9-6.5,3.1-8.3,6.2c-1.9,3.1-2.4,6.8-1.5,10.3c1.8,7.2,9.2,11.7,16.4,9.8c3.5-0.9,6.5-3.1,8.3-6.2
							c1.9-3.1,2.4-6.8,1.5-10.3l0,0c-0.9-3.5-3.1-6.5-6.2-8.3C255.7,220.5,253.3,219.8,250.9,219.8z"/>
					</g>
				</g>
			</g>
		</g>
		<g>
			<g>
				<g>
					<g>
						<path class="st1" d="M238.9,242.1c-2.1-2.4-3.3-5.8-3.3-9.2c0-3.4,1.3-6.9,3.5-9.6c2.3-2.7,5.5-4.7,9-5.4
							c1.8-0.3,3.6-0.4,5.4-0.2c1.8,0.3,3.5,0.8,5.1,1.6c3.2,1.6,5.8,4.4,7.3,7.7c0.7,1.6,1.2,3.4,1.3,5.2c0.2,1.8,0,3.5-0.4,5.2
							c-0.5,1.7-1.2,3.3-2.1,4.7c-1,1.4-2.2,2.7-3.5,3.6c-2.7,2-6.1,2.9-9.2,2.7c-0.5,0-0.9-0.5-0.8-1c0-0.4,0.3-0.7,0.7-0.8l0,0
							c5.5-1.1,9.5-5.5,10.1-10.3c0.4-2.4-0.1-4.8-1.1-6.9c-1.1-2-2.8-3.7-4.8-4.7c-1-0.5-2.1-0.9-3.2-1c-1.1-0.2-2.3-0.1-3.4,0
							c-2.3,0.3-4.4,1.5-6.1,3.1c-0.8,0.8-1.5,1.8-2.1,2.9c-0.6,1.1-1,2.2-1.2,3.5c-0.5,2.5-0.1,5.1,1,7.6l0,0
							c0.3,0.6,0,1.2-0.6,1.5C239.7,242.6,239.2,242.5,238.9,242.1z"/>
					</g>
				</g>
			</g>
		</g>
		<g>
			<g>
				<g>
					<g>
						<path class="st6" d="M382.7,193.8c-1.1,1-2.2,2-3.3,3c-3.1,2.7-6.4,5.1-10,7.3c-6.3,3.9-13.3,7-20.9,9c-1.3,0.4-2.7,0.7-4,1
							c-2.7,0.6-5.5,1-8.2,1.3c-13.5,1.4-26.7-0.8-38.6-6c-21-9.1-37.8-27.4-44.1-51.2c-4.4-16.6-3.1-33.3,2.6-48.2
							c0.6-1.7,1.3-3.3,2.1-4.9c2.4-5,5.3-9.8,8.6-14.2c3.4-4.4,7.2-8.5,11.5-12.1c1.9-1.6,3.8-3.1,5.8-4.5c0.8-0.5,1.5-1,2.3-1.5
							c6.6-4.2,14-7.5,21.9-9.7c41.4-11.1,84,13.5,95.1,55C411.1,146.2,402.2,174.9,382.7,193.8z"/>
					</g>
				</g>
			</g>
		</g>
		<g class="st3">
			<g>
				<g>
					<g>
						<path class="st1" d="M382.7,193.8c-1.1,1-2.2,2-3.3,3c-3.1,2.7-6.4,5.1-10,7.3c-6.3,3.9-13.3,7-20.9,9c-1.3,0.4-2.7,0.7-4,1
							c-2.7,0.6-5.5,1-8.2,1.3c-13.5,1.4-26.7-0.8-38.6-6c-21-9.1-37.8-27.4-44.1-51.2c-3-11.2-3.4-22.4-1.5-33.1
							c8.4,14,21,24.8,35.6,31.1c11.9,5.2,25.2,7.4,38.6,6c2.7-0.3,5.5-0.7,8.2-1.3c1.3-0.3,2.7-0.6,4-1c7.6-2,14.5-5.1,20.9-9
							c3.5-2.2,6.9-4.6,10-7.3c1.1-1,2.2-2,3.3-3c11.7-11.4,19.6-26.4,22.4-42.6c3.7,6.1,6.6,12.8,8.5,20.1
							C411.1,146.2,402.2,174.9,382.7,193.8z"/>
					</g>
				</g>
			</g>
		</g>
		<g>
			<g>
				<g>
					<g>
						<path class="st1" d="M328.5,218.2c-10.9,0-21.8-2.2-31.8-6.6c-22.6-9.8-39.2-29.1-45.5-52.8c-4.4-16.6-3.5-33.7,2.7-49.7
							c0.7-1.7,1.4-3.4,2.2-5c2.4-5.2,5.4-10.1,8.9-14.7c3.5-4.6,7.5-8.8,11.9-12.5c1.9-1.6,3.9-3.2,6-4.6c0.8-0.6,1.6-1.1,2.4-1.6
							c6.9-4.5,14.5-7.8,22.6-10c20.7-5.5,42.2-2.7,60.8,8c18.5,10.7,31.8,28,37.3,48.7c7.5,28-0.8,57.9-21.5,78.1l0,0
							c-1.1,1.1-2.3,2.1-3.4,3.1c-3.2,2.8-6.7,5.3-10.3,7.6c-6.7,4.1-13.9,7.2-21.5,9.3c-1.5,0.4-2.9,0.7-4.2,1
							c-2.7,0.6-5.6,1-8.5,1.3C333.9,218.1,331.2,218.2,328.5,218.2z M328.7,62.9c-6.5,0-13.1,0.9-19.5,2.6
							c-7.6,2-14.7,5.2-21.2,9.4c-0.7,0.4-1.4,0.9-2.2,1.5c-1.9,1.4-3.8,2.8-5.6,4.3c-4.1,3.5-7.9,7.4-11.2,11.8
							c-3.3,4.3-6.1,8.9-8.4,13.8c-0.7,1.6-1.4,3.2-2,4.7c-5.8,15-6.7,31.1-2.6,46.6c6,22.3,21.5,40.4,42.8,49.6
							c11.8,5.1,24.7,7.1,37.4,5.8c2.7-0.3,5.4-0.7,8-1.2c1.2-0.3,2.5-0.6,3.9-0.9c7.2-1.9,14-4.8,20.2-8.7c3.4-2.1,6.6-4.5,9.6-7.1
							c1-0.9,2.1-1.9,3.2-2.9l0,0c19.5-19,27.2-47.1,20.2-73.4c-5.2-19.4-17.6-35.6-35-45.7C354.6,66.3,341.7,62.9,328.7,62.9z"/>
					</g>
				</g>
			</g>
		</g>
		<g>
			<g>
				<g>
					<g>
						<path class="st4" d="M367.5,205.3C367.5,205.3,367.5,205.3,367.5,205.3c-5.8,3.4-12.1,6-18.9,7.8c-1.3,0.4-2.7,0.7-4,1
							c-2.7,0.6-5.5,1-8.2,1.3c-13.5,1.4-26.7-0.8-38.6-6c-21-9.1-37.8-27.4-44.1-51.2c-3.5-13.2-3.4-26.6-0.3-39
							c2.4-2.8,5-5.4,7.9-7.8c1.7-1.5,3.5-2.8,5.4-4.1c0.7-0.5,1.4-1,2.1-1.4c6.1-3.9,12.9-7,20.3-8.9
							c38.3-10.2,77.6,12.5,87.8,50.8C382.1,168.2,378.2,188.9,367.5,205.3z"/>
					</g>
				</g>
			</g>
			<g>
				<g>
					<g>
						<path class="st1" d="M328.5,216.1c-10.6,0-21.2-2.2-31-6.4c-22-9.5-38.1-28.3-44.3-51.4c-3.4-12.8-3.5-26.4-0.3-39.2l0.1-0.1
							c2.4-2.8,5.1-5.4,7.9-7.8c1.7-1.4,3.5-2.8,5.4-4.1c0.8-0.6,1.5-1,2.1-1.4c6.2-4,13.1-7,20.3-9c18.6-5,38-2.4,54.7,7.2
							c16.7,9.6,28.6,25.2,33.5,43.8c5.2,19.7,1.9,40.7-9.2,57.8v0.2l-0.2,0c-5.9,3.4-12.3,6-18.9,7.8c-1.5,0.4-2.8,0.7-4,1
							c-2.7,0.6-5.5,1-8.3,1.3C333.7,216,331.1,216.1,328.5,216.1z M253.5,119.3c-3.2,12.7-3.1,26.1,0.3,38.8
							c6.1,22.9,22.2,41.5,44,51c12.1,5.3,25.4,7.3,38.5,6c2.8-0.3,5.6-0.7,8.2-1.3c1.3-0.3,2.6-0.6,4-1c6.6-1.8,12.9-4.4,18.8-7.8
							c11-16.9,14.3-37.8,9.1-57.3c-4.9-18.4-16.7-33.8-33.2-43.4c-16.5-9.6-35.8-12.1-54.2-7.2c-7.2,1.9-14,4.9-20.2,8.9
							c-0.6,0.4-1.3,0.8-2.1,1.4c-1.9,1.3-3.7,2.7-5.4,4.1C258.5,114,255.9,116.6,253.5,119.3z"/>
					</g>
				</g>
			</g>
		</g>
		<g>
			<g>
				<g>
					<g>
						<path class="st4" d="M367.5,205.3C367.5,205.3,367.5,205.3,367.5,205.3c-5.8,3.4-12.1,6-18.9,7.8c-1.3,0.4-2.7,0.7-4,1
							c-2.7,0.6-5.5,1-8.2,1.3c-13.5,1.4-26.7-0.8-38.6-6c-21-9.1-37.8-27.4-44.1-51.2c-3.5-13.2-3.4-26.6-0.3-39
							c2.4-2.8,5-5.4,7.9-7.8c1.7-1.5,3.5-2.8,5.4-4.1c0.7-0.5,1.4-1,2.1-1.4c6.1-3.9,12.9-7,20.3-8.9
							c38.3-10.2,77.6,12.5,87.8,50.8C382.1,168.2,378.2,188.9,367.5,205.3z"/>
					</g>
				</g>
			</g>
			<g>
				<g>
					<g>
						<path class="st1" d="M328.5,216.1c-10.6,0-21.2-2.2-31-6.4c-22-9.5-38.1-28.3-44.3-51.4c-3.4-12.8-3.5-26.4-0.3-39.2l0.1-0.1
							c2.4-2.8,5.1-5.4,7.9-7.8c1.7-1.4,3.5-2.8,5.4-4.1c0.8-0.6,1.5-1,2.1-1.4c6.2-4,13.1-7,20.3-9c18.6-5,38-2.4,54.7,7.2
							c16.7,9.6,28.6,25.2,33.5,43.8c5.2,19.7,1.9,40.7-9.2,57.8v0.2l-0.2,0c-5.9,3.4-12.3,6-18.9,7.8c-1.5,0.4-2.8,0.7-4,1
							c-2.7,0.6-5.5,1-8.3,1.3C333.7,216,331.1,216.1,328.5,216.1z M253.5,119.3c-3.2,12.7-3.1,26.1,0.3,38.8
							c6.1,22.9,22.2,41.5,44,51c12.1,5.3,25.4,7.3,38.5,6c2.8-0.3,5.6-0.7,8.2-1.3c1.3-0.3,2.6-0.6,4-1c6.6-1.8,12.9-4.4,18.8-7.8
							c11-16.9,14.3-37.8,9.1-57.3c-4.9-18.4-16.7-33.8-33.2-43.4c-16.5-9.6-35.8-12.1-54.2-7.2c-7.2,1.9-14,4.9-20.2,8.9
							c-0.6,0.4-1.3,0.8-2.1,1.4c-1.9,1.3-3.7,2.7-5.4,4.1C258.5,114,255.9,116.6,253.5,119.3z"/>
					</g>
				</g>
			</g>
		</g>
		<g class="st3">
			<g>
				<g>
					<g>
						<path class="st7" d="M367.5,205.3C367.5,205.3,367.5,205.3,367.5,205.3c-5.8,3.4-12.1,6-18.9,7.8c-1.3,0.4-2.7,0.7-4,1
							c-2.7,0.6-5.5,1-8.2,1.3c-13.5,1.4-26.7-0.8-38.6-6c-11.4-4.9-21.5-12.6-29.4-22.3c23.1,10.8,48.8,10.5,70.9,1.1
							c13.4-5.7,25.4-14.8,34.6-26.8c1.6-2,3.1-4.2,4.5-6.4C381.1,173.1,376.9,190.9,367.5,205.3z"/>
					</g>
				</g>
			</g>
		</g>
		<g class="st8">
			<g>
				<g>
					<g>
						<path class="st6" d="M275.2,109.5c0.1-0.8-1.4,0.9-2.1,1.3c-0.6,0.4-1.2,0.8-1.8,1.2c-1.6,1.1-3,2.2-4.5,3.4
							c-2.4,2-4.5,4.2-6.5,6.5c-2.6,10.3-2.7,21.4,0.2,32.5c5.3,19.8,16.3,31,32.8,38.5c0,0-6.9-8.2-13.6-28.2
							C275.9,153.4,272.2,139.3,275.2,109.5z"/>
					</g>
				</g>
			</g>
		</g>
		<g>
			<g>
				<g>
					<g>
						<path class="st9" d="M367.1,148.9"/>
					</g>
				</g>
			</g>
		</g>
		<g>
			<g>
				<g>
					<g>
						<path class="st1" d="M328.5,218.2c-10.9,0-21.8-2.2-31.8-6.6c-22.6-9.8-39.2-29.1-45.5-52.8c-3.5-13.2-3.6-27.1-0.3-40.2
							l0.1-0.6l0.4-0.4c2.5-2.9,5.2-5.6,8.1-8c1.8-1.5,3.6-2.9,5.6-4.3c0.9-0.6,1.6-1.1,2.2-1.5c6.4-4.1,13.5-7.2,20.9-9.2
							c19.1-5.1,39.1-2.5,56.3,7.4c17.1,9.9,29.4,25.9,34.5,45.1c5.3,20,2,41.5-9.1,59v1.7l-1.8,0c-5.9,3.4-12.3,6-18.9,7.7
							c-1.5,0.4-2.9,0.7-4.2,1c-2.7,0.6-5.6,1-8.5,1.3C333.9,218.1,331.2,218.2,328.5,218.2z M255.5,120.3c-3,12.2-2.8,25,0.4,37.2
							c6,22.3,21.5,40.4,42.8,49.6c11.8,5.1,24.7,7.1,37.4,5.8c2.7-0.3,5.4-0.7,8-1.2c1.2-0.3,2.5-0.6,3.9-0.9
							c6.3-1.7,12.2-4.1,17.8-7.3c10.4-16.4,13.5-36.4,8.5-55.2c-4.8-17.9-16.2-32.8-32.3-42.1c-16-9.3-34.7-11.7-52.6-7
							c-7,1.9-13.6,4.8-19.6,8.6c-0.6,0.4-1.3,0.8-2,1.4c-1.8,1.3-3.6,2.6-5.2,4C260.1,115.4,257.7,117.8,255.5,120.3z"/>
					</g>
				</g>
			</g>
		</g>
		<g>
			<g>
				<g>
					<g>
						<path class="st10" d="M379.4,196.9c-3.1,2.7-6.4,5.1-10,7.3c-0.6,0.4-1.3,0.8-1.9,1.2c10.7-16.4,14.6-37.2,9.2-57.6
							c-10.2-38.3-49.5-61-87.8-50.8c-7.4,2-14.2,5-20.3,8.9c-0.7,0.4-1.4,0.9-2.1,1.4c-1.9,1.3-3.7,2.7-5.4,4.1
							c-1.8,1.6-3.6,3.2-5.3,4.9c-0.7,0.7-1.8,0-1.5-0.9c0.6-1.8,1.2-3.6,1.9-5.4c0.6-1.7,1.3-3.3,2.1-4.9c0.2-0.2,0.5-0.4,0.7-0.6
							c1.9-1.6,3.8-3.1,5.8-4.5c0.8-0.5,1.5-1,2.3-1.5c6.6-4.2,14-7.5,21.9-9.7c41.4-11.1,84,13.5,95.1,55
							C389,162.2,386.9,180.9,379.4,196.9z"/>
					</g>
				</g>
			</g>
			<g>
				<g>
					<g>
						<path class="st1" d="M360.9,211.6l4.8-7.4c10.7-16.5,14-36.9,8.9-55.9c-4.8-18-16.3-33-32.4-42.3c-16.1-9.3-34.8-11.8-52.8-7
							c-7,1.9-13.6,4.8-19.7,8.7c-0.6,0.4-1.3,0.8-2.1,1.4c-1.8,1.3-3.6,2.6-5.2,4c-1.8,1.5-3.5,3.1-5.1,4.8c-1,1-2.5,1.2-3.7,0.5
							c-1.2-0.7-1.8-2.2-1.4-3.5c0.6-1.9,1.2-3.7,1.9-5.5c0.7-1.7,1.4-3.4,2.2-5l0.2-0.4l0.3-0.3c0.3-0.2,0.5-0.5,0.8-0.7
							c2-1.6,4-3.2,6-4.6c0.8-0.5,1.6-1.1,2.4-1.6c6.9-4.4,14.5-7.8,22.5-9.9c20.6-5.5,42.1-2.7,60.5,8
							c18.4,10.7,31.6,27.9,37.1,48.5c4.8,18.2,3.1,37.5-4.8,54.5l-0.2,0.4l-0.3,0.3c-3.2,2.8-6.6,5.3-10.2,7.5
							c-0.7,0.4-1.3,0.8-2,1.2L360.9,211.6z M307.5,92.3c12.8,0,25.5,3.4,36.8,10c17.1,9.9,29.3,25.8,34.4,44.9
							c4.6,17.3,2.8,35.6-5,51.5c1.4-1,2.7-2.1,4-3.2c7.4-16,8.9-34.1,4.4-51.2c-5.2-19.5-17.7-35.8-35.2-45.9
							c-17.5-10.1-37.8-12.8-57.3-7.6c-7.6,2-14.8,5.2-21.3,9.4c-0.8,0.5-1.5,1-2.2,1.5c-1.9,1.3-3.8,2.8-5.7,4.3
							c-0.1,0.1-0.3,0.2-0.4,0.3c-0.7,1.4-1.3,2.9-1.8,4.3c-0.1,0.2-0.1,0.3-0.2,0.5c0.6-0.5,1.2-1,1.8-1.5c1.7-1.5,3.6-2.9,5.5-4.2
							c0.9-0.6,1.6-1.1,2.2-1.5c6.4-4.1,13.4-7.2,20.8-9.2C294.7,93.2,301.1,92.3,307.5,92.3z"/>
					</g>
				</g>
			</g>
		</g>
		<g>
			<g>
				<g>
					<g>
						<circle class="st6" cx="382" cy="132.7" r="22.7"/>
					</g>
				</g>
			</g>
			<g>
				<g>
					<g>
						<path class="st1" d="M382,157.8c-11.1,0-21.3-7.4-24.3-18.7c-1.7-6.5-0.8-13.3,2.5-19.1c3.4-5.8,8.8-10,15.3-11.7
							c13.4-3.6,27.2,4.4,30.8,17.8l0,0c3.6,13.4-4.4,27.2-17.8,30.8C386.4,157.6,384.2,157.8,382,157.8z M382,112.4
							c-1.7,0-3.5,0.2-5.2,0.7c-10.8,2.9-17.2,14-14.3,24.8c2.9,10.8,14,17.2,24.8,14.3c10.8-2.9,17.2-14,14.3-24.8
							C399.2,118.4,391,112.4,382,112.4z"/>
					</g>
				</g>
			</g>
		</g>
		<g>
			<g>
				<g>
					<g>
						<circle class="st6" cx="386.5" cy="132.7" r="18.3"/>
					</g>
				</g>
			</g>
		</g>
		<g class="st3">
			<g>
				<g>
					<g>
						<path class="st1" d="M391.2,150.3c-3.8,1-7.7,0.8-11.1-0.5c8.7-3.2,13.7-12.6,11.2-21.8c-1.6-5.9-5.9-10.4-11.2-12.4
							c0.5-0.2,1.1-0.4,1.7-0.5c9.7-2.6,19.7,3.2,22.4,12.9C406.7,137.7,400.9,147.7,391.2,150.3z"/>
					</g>
				</g>
			</g>
		</g>
		<g>
			<g>
				<g>
					<g>
						<path class="st1" d="M386.5,153.1c-9,0-17.3-6-19.7-15.1c-1.4-5.3-0.7-10.8,2-15.5c2.7-4.7,7.1-8.1,12.4-9.5
							c10.9-2.9,22.1,3.6,25,14.4l0,0c2.9,10.9-3.6,22.1-14.4,25C390,152.9,388.2,153.1,386.5,153.1z M386.5,116.6
							c-1.4,0-2.8,0.2-4.2,0.6c-4.2,1.1-7.6,3.8-9.8,7.5c-2.2,3.7-2.7,8.1-1.6,12.2c2.3,8.6,11.2,13.7,19.7,11.4
							c8.6-2.3,13.7-11.1,11.4-19.7c-1.1-4.2-3.8-7.6-7.5-9.8C392.1,117.3,389.3,116.6,386.5,116.6z"/>
					</g>
				</g>
			</g>
		</g>
		<g>
			<g>
				<g>
					<g>
						<path class="st6" d="M434.1,256c-1.1,2.1-2.5,5-4,9.3c-3.6,10.7-17.3,19.6-33.1,24.4c-0.7,0.2-1.5,0.5-2.2,0.7
							c-15.7,5.2-37.7,16.4-47.1,22.1c-9.8,6-15,25.2-36.3,26.7c-15.1,1-24.2-11.5-26.3-23c-0.9-4.7-0.6-9.2,0.9-12.5
							c5.2-11.4,19.7-7,19.7-7c1.4-4.3,5.8-6.9,11.4-14.2c1.2-1.6,2.5-3.4,3.9-5.5c7.5-11.7-4.6-21.2-4.6-21.2c0,0-0.1,0-0.1,0
							c-1.7,0.3-3.4,0.6-5,0.9c0,0,0,0-0.1,0c-9,1.3-19.5,1.3-30.6,0.6c-10.6-0.6-18-5.4-21.6-11.2c-1.7-2.7-2.5-5.6-2.4-8.5
							c0.1-1.6,0.4-3.1,0.9-4.4c0-0.1,0.1-0.2,0.1-0.3c1.2-2.6,3.3-5,6.5-6.7c0.1-0.1,0.3-0.1,0.4-0.2c2.4-1.2,5.2-1.9,7.8-2.4
							c0,0,0,0,0,0c3.7-0.7,7.3-0.9,9.7-1.2c7.5-0.9,55-11,65-14.8c10-3.8,31.9-10.4,31.9-10.4s42,37.8,53.6,49.3
							c1.7,1.7,2.7,2.8,2.9,3.1C436.5,251.6,435.7,253,434.1,256z"/>
					</g>
				</g>
			</g>
			<g>
				<g>
					<g>
						<path class="st1" d="M309.7,339.6c-14.1,0-22.7-11.8-24.9-23.3c-0.9-4.9-0.6-9.4,0.9-12.7c4.9-10.6,17.7-7.8,19.8-7.3
							c0.9-2.5,2.7-4.4,5.3-7c1.8-1.9,3.8-4,6.1-6.9c1.4-1.8,2.6-3.5,3.9-5.5c6.9-10.8-3.2-19.7-4.4-20.7c-1.5,0.3-3.1,0.6-5,0.9
							l-0.1,0c-8.2,1.2-18.2,1.4-30.7,0.6c-9.6-0.6-17.8-4.8-21.9-11.4c-1.7-2.7-2.6-5.7-2.5-8.6c0.1-1.6,0.4-3.1,0.9-4.5l0-0.1
							c0-0.1,0.1-0.2,0.1-0.3c1.2-2.8,3.5-5.2,6.7-6.9c0.1-0.1,0.3-0.2,0.4-0.2c2.2-1.1,4.8-1.9,7.9-2.5c2.7-0.5,5.3-0.7,7.3-0.9
							c0.9-0.1,1.7-0.2,2.4-0.3c7.9-1,55.2-11.1,64.9-14.8c9.9-3.7,31.7-10.3,31.9-10.4l0.2,0l0.1,0.1c0.4,0.4,42.1,38,53.7,49.4
							c2.4,2.4,2.8,3,3,3.2c1,1.8,0.2,3.2-1.2,6l-0.3,0.5c-1.2,2.4-2.6,5.1-4,9.2c-3.4,10.1-15.8,19.3-33.3,24.6
							c-0.7,0.2-1.5,0.5-2.2,0.7c-15.4,5.1-37.2,16.1-47,22.1c-3.3,2-6.1,5.5-9,9.2c-6.2,7.7-13.1,16.5-27.4,17.5
							C310.8,339.6,310.3,339.6,309.7,339.6z M299.5,296.2c-4.5,0-10.4,1.4-13.3,7.7c-1.5,3.2-1.8,7.6-0.9,12.3
							c2.2,11.7,11.3,23.8,26,22.7c14-1,20.9-9.6,26.9-17.3c3-3.8,5.8-7.4,9.2-9.4c9.9-6,31.7-17,47.2-22.1c0.8-0.3,1.5-0.5,2.2-0.7
							c17-5.2,29.6-14.5,32.9-24.2c1.4-4.1,2.8-6.9,4-9.3l0.3-0.5c1.4-2.7,2-3.9,1.2-5.4c-0.1-0.2-0.6-0.8-2.9-3.1
							c-11.2-11.1-50.9-46.9-53.5-49.2c-2,0.6-22.3,6.8-31.7,10.3c-9.7,3.7-57.1,13.8-65,14.8c-0.7,0.1-1.5,0.2-2.4,0.3
							c-2.1,0.2-4.6,0.4-7.2,0.9l-0.1,0c-3,0.6-5.6,1.4-7.7,2.4c-0.1,0.1-0.3,0.1-0.4,0.2c-3,1.6-5.2,3.9-6.4,6.6
							c0,0.1-0.1,0.2-0.1,0.2l0,0.1c-0.5,1.3-0.8,2.8-0.9,4.3c-0.1,2.8,0.7,5.6,2.4,8.3c3.9,6.4,11.9,10.5,21.4,11.1
							c12.4,0.7,22.4,0.5,30.6-0.6l0.1,0c1.9-0.3,3.5-0.6,5-0.9l0.1,0l0.2,0.1c0.1,0.1,12.3,9.8,4.7,21.6c-1.2,1.9-2.5,3.7-3.9,5.5
							c-2.3,3-4.5,5.2-6.2,7c-2.5,2.7-4.4,4.6-5.2,7.1l-0.1,0.3l-0.3-0.1C305.6,297,302.9,296.2,299.5,296.2z"/>
					</g>
				</g>
			</g>
		</g>
		<g class="st3">
			<g>
				<g>
					<g>
						<path class="st1" d="M434.1,256c-1.1,2.1-2.5,5-4,9.3c-3.6,10.7-17.3,19.6-33.1,24.4c-0.7,0.2-1.5,0.5-2.2,0.7
							c-15.7,5.2-37.7,16.4-47.1,22.1c-9.8,6-15,25.2-36.3,26.7c-15.1,1-24.2-11.5-26.3-23c2.4,4.4,7.6,11.8,15.7,12.7
							c11.6,1.2,16.2-4,26.4-17.4c10.2-13.4,27.7-32.5,54.1-32.7c3.6,0,7.1-0.3,10.6-0.8c7.4-1.2,5.2-6.6,0.8-6.6
							c-20.6-0.3-23.8-3.1-29.8-13.6c-4.9-8.5-13.6-52.6-13.6-52.6c15.9-2.1,72.3,42.8,83.3,41.3c1.7,1.7,2.7,2.8,2.9,3.1
							C436.5,251.6,435.7,253,434.1,256z"/>
					</g>
				</g>
			</g>
		</g>
		<g class="st3">
			<g>
				<g>
					<g>
						<path class="st1" d="M318.4,284.8c1.2-1.6,1.3-5.6,2.6-7.7c7.5-11.7-4.6-21.2-4.6-21.2c0,0-0.1,0-0.1,0
							c-1.7,0.3-3.4,0.6-5,0.9c0,0,0,0-0.1,0c-9,1.3-19.5,1.3-30.6,0.6c-10.6-0.6-18-5.4-21.6-11.2c2.8,2.2,9.1,5.4,21.4,5.7
							c18.6,0.5,36.5-10.1,42.6-8.4C329.2,245.3,336.8,267.9,318.4,284.8z"/>
					</g>
				</g>
			</g>
		</g>
		<g>
			<g>
				<g>
					<g>
						<path class="st6" d="M264.1,226.3c-3.2,1.7-5.4,4.1-6.5,6.7C258.9,229.9,261.3,227.8,264.1,226.3z"/>
					</g>
				</g>
			</g>
			<g>
				<g>
					<g>
						<path class="st1" d="M257.9,233.1l-0.6-0.2c1.2-2.9,3.5-5.2,6.7-6.9l0.3,0.5C261.3,228.2,259.1,230.5,257.9,233.1z"/>
					</g>
				</g>
			</g>
		</g>
		<g>
			<g>
				<g>
					<g>
						<path class="st6" d="M311.2,256.8c-32.7,5.3-53.9-1-54.7-16.8c0-0.8,0-1.6,0-2.3c-0.3,8.9,8.6,18.8,24.1,19.7
							C291.7,258.1,302.2,258.1,311.2,256.8z"/>
					</g>
				</g>
			</g>
			<g>
				<g>
					<g>
						<path class="st1" d="M290.3,259c-12.5,0-22.1-2.4-28-7.1c-3.8-3.1-5.9-7.1-6.1-11.8c0-0.8,0-1.6,0-2.3l0.6,0
							c-0.3,8.8,8.5,18.5,23.8,19.4c12.4,0.7,22.4,0.5,30.6-0.6l0.1,0.6C303.7,258.4,296.6,259,290.3,259z M279.9,257.7
							c4.9,0.7,10.5,0.8,16.7,0.5c-4.8,0.1-10.1-0.1-16-0.4C280.3,257.7,280.1,257.7,279.9,257.7z M257.8,244.7c1,2.6,2.6,4.8,5,6.7
							c1.4,1.1,3.1,2.1,4.9,3C263,252,259.6,248.5,257.8,244.7z"/>
					</g>
				</g>
			</g>
		</g>
		<g>
			<g>
				<g>
					<g>
						<path class="st1" d="M302.4,313c-0.7-3.8-0.5-7.8,0.4-11.6c0.9-3.8,2.5-7.5,4.7-10.8c2.1-3.3,4.5-6.2,7-9.1
							c2.5-2.8,5.1-5.5,7.9-8.2l-0.8,1.5c0.2-1.6,0.4-3.2,0.3-4.7c0-1.6-0.3-3.2-0.7-4.7c-0.4-1.5-0.9-3.1-1.6-4.5
							c-0.3-0.7-0.7-1.4-1.2-2.1c-0.2-0.3-0.4-0.7-0.6-1c-0.2-0.3-0.5-0.7-0.6-0.9l-0.1-0.2c-0.8-1.1-0.6-2.6,0.4-3.4
							c1-0.8,2.4-0.6,3.3,0.3c0.4,0.5,0.7,0.8,1,1.2c0.3,0.4,0.6,0.8,0.9,1.2c0.5,0.8,1,1.7,1.5,2.5c0.9,1.7,1.6,3.5,2.2,5.4
							c0.5,1.9,0.9,3.8,1,5.8c0.1,2,0,3.9-0.3,5.9l-0.1,0.9l-0.7,0.7c-2.6,2.4-5.2,5.1-7.6,7.7c-2.4,2.7-4.8,5.4-6.8,8.3
							c-1,1.5-1.8,2.9-2.6,4.5c-0.8,1.6-1.4,3.1-2,4.8c-1.1,3.3-1.8,6.7-2.2,10.3l0,0c-0.1,0.7-0.7,1.2-1.4,1.1
							C302.9,314,302.5,313.5,302.4,313z"/>
					</g>
				</g>
			</g>
		</g>
		<g>
			<g>
				<g>
					<g>
						<path class="st6" d="M355.4,205.3c0,0-52.8,15.4-80.8,18.1"/>
					</g>
				</g>
			</g>
			<g>
				<g>
					<g>
						<path class="st1" d="M274.6,223.7l-0.1-0.6c27.7-2.6,80.2-17.9,80.7-18l0.2,0.6C354.9,205.8,302.3,221.1,274.6,223.7z"/>
					</g>
				</g>
			</g>
		</g>
		<g>
			<g>
				<g>
					<g>
						<path class="st6" d="M257.5,233.3c-0.5,1.3-0.8,2.7-0.9,4.4C256.6,236.2,256.9,234.7,257.5,233.3z"/>
					</g>
				</g>
			</g>
			<g>
				<g>
					<g>
						<path class="st1" d="M256.9,237.8l-0.6,0c0-1.6,0.4-3.1,0.9-4.5l0.6,0.2C257.3,234.8,257,236.2,256.9,237.8z"/>
					</g>
				</g>
			</g>
		</g>
		<g>
			<g>
				<g>
					<g>
						<path class="st6" d="M272.4,223.7c-2.7,0.5-5.4,1.2-7.8,2.4C266.7,225,269.3,224.1,272.4,223.7z"/>
					</g>
				</g>
			</g>
			<g>
				<g>
					<g>
						<path class="st1" d="M264.7,226.4l-0.3-0.5c2.3-1.2,4.9-2,7.9-2.5l0.1,0.6C269.4,224.5,266.8,225.3,264.7,226.4z"/>
					</g>
				</g>
			</g>
		</g>
		<g>
			<g>
				<g>
					<g>
						<path class="st6" d="M316.4,255.9c-1.6,0.3-3.3,0.6-5,0.9C313,256.5,314.6,256.2,316.4,255.9z"/>
					</g>
				</g>
			</g>
			<g>
				<g>
					<g>
						<path class="st1" d="M311.4,257.1l-0.1-0.6c1.9-0.3,3.5-0.6,5-0.9l0.1,0.6C314.8,256.6,313.1,256.9,311.4,257.1z"/>
					</g>
				</g>
			</g>
		</g>
		<g>
			<g>
				<g>
					<g>
						<path class="st1" d="M294,260.3c-4.2,0-8.7-0.1-13.5-0.4c-16.9-1-26.2-11.8-26.4-21.5c-0.1-7.1,5.1-16,20.3-17.4
							c27.5-2.6,79.8-17.8,80.3-18c1.3-0.4,2.6,0.4,3,1.7c0.4,1.3-0.4,2.6-1.7,3c-2.2,0.6-53.3,15.5-81.2,18.1
							c-9.9,0.9-16,5.7-15.8,12.5c0.1,7.5,7.8,15.9,21.8,16.7c23.9,1.4,39.7-0.8,48.4-6.7c1.1-0.8,2.6-0.5,3.4,0.6
							c0.8,1.1,0.5,2.6-0.6,3.4C324,257.7,311.8,260.3,294,260.3z"/>
					</g>
				</g>
			</g>
		</g>
		<g>
			<g>
				<g>
					<g>
						<path class="st1" d="M314.2,341.9c-4.5,0-9.7-1.1-15.6-4.1c-9.7-4.9-17.1-15.8-17.2-25.3c-0.1-6.5,3.1-12.8,8.3-16.3
							c5.1-3.5,11.5-3.9,17.9-1.3c1.2,0.5,1.8,1.9,1.3,3.2c-0.5,1.2-1.9,1.8-3.2,1.3c-4.8-2-9.6-1.7-13.3,0.8
							c-3.8,2.6-6.2,7.3-6.1,12.2c0.1,7.7,6.4,16.9,14.5,21c19.8,10,29.5-3.7,31.3-6.6v-0.1l0.4-0.6c13.9-21.9,36.8-29.6,55.2-35.8
							c4.3-1.5,8.4-2.8,12.2-4.3c19.1-7.5,37.5-27.1,34.2-48.8c-0.2-1.3,0.7-2.6,2-2.8c1.3-0.2,2.6,0.7,2.8,2
							c3.7,24.2-16.4,46-37.3,54.1c-3.9,1.5-8,2.9-12.4,4.4c-18.6,6.3-39.6,13.4-52.6,33.8l0,0c-1.2,2.4-4.7,6.6-9.2,9.4
							C324.2,340.1,319.8,341.9,314.2,341.9z M334.5,327.5L334.5,327.5L334.5,327.5z"/>
					</g>
				</g>
			</g>
		</g>
		<g>
			<g>
				<g>
					<g>
						<path class="st1" d="M340.1,322.1c-0.1,0-0.1,0-0.2,0c-29-3-34.7-24.4-34.9-25.3c-0.3-1.1,0.4-2.3,1.5-2.6
							c1.1-0.3,2.3,0.4,2.6,1.5c0.2,0.8,5.3,19.4,31.2,22.1c1.2,0.1,2,1.2,1.9,2.3C342.1,321.3,341.2,322.1,340.1,322.1z"/>
					</g>
				</g>
			</g>
		</g>
		<g>
			<g>
				<g>
					<g>
						<path class="st11" d="M325,241.6l-11.3,2.9c-3.9,1-7.9-1.3-8.9-5.2l-1-3.9c-1-3.9,1.3-7.9,5.2-8.9l11.3-2.9
							c3.9-1,7.9,1.3,8.9,5.2l1,3.9C331.3,236.6,328.9,240.6,325,241.6z"/>
					</g>
				</g>
			</g>
		</g>
		<g>
			<g>
				<g>
					<g>
						<path class="st1" d="M311.9,247c-1.7,0-3.3-0.4-4.8-1.3c-2.2-1.3-3.7-3.3-4.4-5.8l-1-3.9c-1.3-5,1.7-10.2,6.8-11.5l11.3-2.9
							c2.4-0.6,5-0.3,7.2,1c2.2,1.3,3.7,3.3,4.4,5.8l1,3.9c1.3,5-1.7,10.2-6.8,11.5l-11.3,2.9C313.5,246.9,312.7,247,311.9,247z
							 M322.2,225.5c-0.4,0-0.9,0.1-1.3,0.2l-11.3,2.9c-2.8,0.7-4.4,3.6-3.7,6.3l1,3.9c0.7,2.8,3.6,4.4,6.3,3.7l11.3-2.9
							c2.8-0.7,4.4-3.6,3.7-6.3l-1-3.9c-0.3-1.3-1.2-2.5-2.4-3.2C324,225.8,323.1,225.5,322.2,225.5z M325,241.6L325,241.6
							L325,241.6z"/>
					</g>
				</g>
			</g>
		</g>
		<g>
			<g>
				<g>
					<g>
						<path class="st1" d="M291.1,260c-0.3,0-0.6-0.1-0.9-0.2c-1.1-0.5-1.5-1.8-1-2.8c5.1-10.8-2.7-34.6-2.8-34.8
							c-0.4-1.1,0.2-2.3,1.3-2.7c1.1-0.4,2.3,0.2,2.7,1.3c0.3,1,8.4,25.6,2.6,38C292.6,259.5,291.9,260,291.1,260z"/>
					</g>
				</g>
			</g>
		</g>
		<g>
			<g>
				<g>
					<g>
						<path class="st6" d="M324.1,275.3c30.1-18.6,49.3-20,49.3-20"/>
					</g>
				</g>
			</g>
			<g>
				<g>
					<g>
						<path class="st1" d="M325.3,277.1l-2.2-3.6c30.2-18.6,49.4-20.2,50.2-20.3l0.3,4.3C373.4,257.5,354.4,259.1,325.3,277.1z"/>
					</g>
				</g>
			</g>
		</g>
		<g>
			<g>
				<g>
					<g>
						<path class="st6" d="M368.9,245.8c0,0-22.9,2.3-45.3,19.2"/>
					</g>
				</g>
			</g>
			<g>
				<g>
					<g>
						<path class="st1" d="M325,266.7l-2.6-3.4c22.6-17.1,45.4-19.5,46.3-19.6l0.4,4.2C368.9,247.9,346.5,250.4,325,266.7z"/>
					</g>
				</g>
			</g>
		</g>
		<g>
			<g>
				<g>
					<g>
						<path class="st6" d="M432.9,250.9c-9.2,2.7-24.5,9.1-32.4,12.6c9.6-5.8,14.7-18.4,11.6-30.8l-10.7-42.4
							c-3.3-12.9-14.4-21.2-25.9-20.2c-1.4,0.1-2.7,0.4-4.1,0.8c0.8-0.3,25-11.2,37.7-14.9c1.4-0.4,2.8-0.7,4.1-0.8
							c11.5-1.1,22.6,7.3,25.9,20.2l10.7,42.4C453.4,232.3,445.8,247.2,432.9,250.9z"/>
					</g>
				</g>
			</g>
			<g>
				<g>
					<g>
						<path class="st1" d="M400.6,263.8l-0.3-0.5c9.6-5.8,14.4-18.6,11.4-30.4l-10.7-42.4c-3.2-12.6-13.9-21-25.6-19.9
							c-1.3,0.1-2.7,0.4-4.1,0.8l-0.2-0.6c2.6-1.2,25.5-11.3,37.7-14.9c1.4-0.4,2.8-0.7,4.2-0.8c11.9-1.1,23,7.5,26.2,20.4
							l10.7,42.4c3.7,14.6-3.9,29.6-17,33.4C423.9,253.9,408.8,260.2,400.6,263.8z M377.5,169.8c11.1,0,21.1,8.3,24.2,20.5
							l10.7,42.4c2.8,11.2-0.9,22.8-9.2,29.4c8.5-3.6,21.5-9,29.7-11.4l0,0c12.8-3.7,20.2-18.4,16.6-32.7l-10.7-42.4
							c-3.2-12.6-13.9-21-25.6-19.9c-1.4,0.1-2.8,0.4-4.1,0.8c-10.2,3-27.9,10.6-34.9,13.6c0.4-0.1,0.8-0.1,1.2-0.1
							C376.1,169.8,376.8,169.8,377.5,169.8z"/>
					</g>
				</g>
			</g>
		</g>
		<g class="st3">
			<g>
				<g>
					<g>
						<path class="st4" d="M432.9,250.9c-9.2,2.7-24.5,9.1-32.4,12.6c1.5-0.9,2.9-2,4.1-3.2h0c6.3-2.5,12.9-5,17.8-6.5
							c12.9-3.8,20.4-18.6,16.8-33.1l-7.8-30.7c-2.9-0.9-5.5-3.4-6.9-6.7c-1.8-4.3-1.1-8.9,1.4-11.6c0.7-0.8,1.6-1.4,2.6-1.8
							c3.1-1.3,6.7-0.3,9.4,2.2c1.2,1.2,2.3,2.6,3,4.4c1.2,2.9,1.3,6,0.5,8.5l8.3,32.9C453.4,232.3,445.8,247.2,432.9,250.9z"/>
					</g>
				</g>
			</g>
			<g>
				<g>
					<g>
						<path class="st1" d="M400.6,263.8l-0.3-0.5c1.5-0.9,2.8-1.9,4.1-3.1l0.1-0.1h0.1c7.5-3,13.5-5.2,17.8-6.4
							c12.8-3.7,20.2-18.4,16.6-32.7l-7.7-30.6c-3-1-5.6-3.6-6.9-6.9c-1.8-4.3-1.2-9.1,1.4-12c0.8-0.8,1.7-1.5,2.7-1.9
							c3.1-1.3,6.9-0.4,9.7,2.3c1.3,1.2,2.4,2.8,3.1,4.5c1.2,2.8,1.4,6,0.5,8.6l8.3,32.8c3.7,14.6-3.9,29.6-17,33.4l0,0
							C423.9,253.9,408.8,260.2,400.6,263.8z M404.8,260.6c-0.5,0.5-1.1,1-1.6,1.4c5.4-2.3,12.7-5.4,19.4-7.9c0,0,0,0,0,0
							C418.3,255.4,412.3,257.6,404.8,260.6z M431.4,169.6c-1,0-1.9,0.2-2.8,0.6c-1,0.4-1.8,1-2.5,1.8c-2.5,2.7-3,7.3-1.3,11.3
							c1.3,3.2,3.9,5.6,6.7,6.6l0.2,0.1l0,0.2l7.8,30.7c3.4,13.5-2.8,27.3-14.1,32.4c2.7-1,5.2-1.8,7.4-2.5l0,0
							c12.8-3.7,20.2-18.4,16.6-32.7l-8.3-33l0-0.1c0.9-2.5,0.7-5.5-0.4-8.3c-0.7-1.6-1.7-3.1-2.9-4.3
							C435.9,170.5,433.6,169.6,431.4,169.6z"/>
					</g>
				</g>
			</g>
		</g>
		<g class="st3">
			<g>
				<g>
					<g>
						<path class="st4" d="M438,172.1c-2.7-2.5-6.3-3.5-9.4-2.2c-1,0.4-1.9,1.1-2.6,1.8c-4.8-8.9-13.9-14.3-23.3-13.4
							c-0.1,0-0.2,0-0.3,0c2.4-0.9,4.7-1.6,6.7-2.2c1.4-0.4,2.8-0.7,4.1-0.8C423.6,154.4,433.8,161.2,438,172.1z"/>
					</g>
				</g>
			</g>
			<g>
				<g>
					<g>
						<path class="st1" d="M438.7,173.2l-1-0.9c-2.7-2.6-6.2-3.4-9.1-2.2c-1,0.4-1.8,1-2.5,1.8l-0.3,0.3l-0.2-0.4
							c-4.8-8.9-13.8-14.1-23-13.3c-0.1,0-0.2,0-0.3,0l-2.8,0.3l2.6-0.9c2.6-0.9,4.8-1.7,6.7-2.2c1.4-0.4,2.8-0.7,4.2-0.8
							c10.6-1,20.9,6,25.1,17L438.7,173.2z M404.6,157.9c8.6,0,16.8,5.1,21.4,13.3c0.7-0.7,1.5-1.2,2.4-1.6c2.8-1.2,6.1-0.6,8.8,1.5
							c-4.4-10-14.1-16.3-24-15.4c-1.4,0.1-2.8,0.4-4.1,0.8c-1.3,0.4-2.9,0.9-4.6,1.5C404.5,157.9,404.6,157.9,404.6,157.9z"/>
					</g>
				</g>
			</g>
		</g>
		<g class="st3">
			<g>
				<g>
					<g>
						<path class="st1" d="M432.9,250.9c-9.2,2.7-24.5,9.1-32.4,12.6c9.6-5.8,14.7-18.4,11.6-30.8l-1.1-4.2c1.7-0.7,4.2-1.7,6.7-2.6
							c6-2.3,9.2-8.7,7.5-14.8c-0.3-1-0.6-2-1-3.1c-4.3-12.1,12.1,0.7,12.1,0.7l2.6,8.4c3.5-2.9,6.3-6.8,7.9-11.2l3,12.1
							C453.4,232.3,445.8,247.2,432.9,250.9z"/>
					</g>
				</g>
			</g>
		</g>
		<g>
			<g>
				<g>
					<g>
						<path class="st6" d="M412.1,232.7c3.1,12.3-2,25-11.6,30.8c-3,1.3-5,2.2-5.2,2.3c0,0,0,0,0,0c-12.9,3.8-26.4-4.9-30-19.4
							L354.5,204c-3.6-14.4,3.9-29.3,16.8-33.1c0,0,0,0,0,0c1.4-0.4,2.7-0.7,4.1-0.8c11.5-1.1,22.7,7.3,25.9,20.2L412.1,232.7z"/>
					</g>
				</g>
			</g>
			<g>
				<g>
					<g>
						<path class="st1" d="M389.2,267c-3.9,0-7.8-1-11.4-3.1c-6.3-3.6-10.9-9.9-12.8-17.4l-10.7-42.4c-3.7-14.6,3.9-29.5,16.9-33.4
							l0,0l0.1,0c1.4-0.4,2.8-0.7,4.2-0.8c11.9-1.1,23,7.5,26.2,20.4l10.7,42.4c3.1,12.3-1.7,25.1-11.7,31.1
							c-2.9,1.3-4.8,2.1-5.2,2.3l0,0.1l-0.2,0C393.3,266.7,391.2,267,389.2,267z M371.5,171.2L371.5,171.2l-0.2,0
							c-12.7,3.7-20.1,18.4-16.5,32.7l10.7,42.4c1.8,7.3,6.4,13.5,12.5,17c5.3,3.1,11.4,3.8,17.1,2.2c0.2-0.1,2.1-0.9,5.2-2.3
							c9.6-5.8,14.4-18.6,11.4-30.4l-10.7-42.4c-3.2-12.6-13.9-21-25.6-19.9C374.2,170.6,372.9,170.9,371.5,171.2z"/>
					</g>
				</g>
			</g>
		</g>
		<g class="st3">
			<g>
				<g>
					<g>
						<path class="st1" d="M400.5,263.5c-3,1.3-5,2.2-5.2,2.3c0,0,0,0,0,0c-12.9,3.8-26.4-4.9-30-19.4l-1.6-6.3
							c5.6,10.1,16.7,15.6,27.3,12.5c0,0,0,0,0,0c0.2-0.1,2.2-1,5.2-2.3c9.6-5.8,14.7-18.4,11.6-30.8l-9.1-36.1
							c1.2,2.1,2.1,4.4,2.7,6.9l10.7,42.4C415.2,245.1,410.1,257.7,400.5,263.5z"/>
					</g>
				</g>
			</g>
		</g>
		<g>
			<g>
				<g>
					<g>
						<path class="st1" d="M389.2,269.1c-4.3,0-8.6-1.1-12.5-3.4c-6.8-3.9-11.8-10.7-13.8-18.7l-10.7-42.4
							c-3.9-15.4,4-31.3,17.7-35.8l0,0l0.8-0.2c1.5-0.4,3.1-0.7,4.6-0.9c13-1.2,25,8.1,28.5,22l10.7,42.4c3.3,13.2-1.9,27-12.7,33.5
							l-0.3,0.1c-2.1,0.9-3.8,1.6-4.6,2l-0.3,0.4l-0.9,0.1C393.5,268.8,391.4,269.1,389.2,269.1z M371.8,173.4
							c-11.6,3.5-18.2,16.9-14.9,30.1l10.7,42.4c1.7,6.7,5.9,12.4,11.5,15.7c4.8,2.7,10.2,3.4,15.3,2c0.5-0.2,2.3-1,5-2.2
							c8.7-5.3,13.1-17.1,10.3-28L399,190.9c-2.9-11.6-12.7-19.3-23.3-18.3c-0.9,0.1-1.9,0.3-2.9,0.5l-0.1,0.2L371.8,173.4z"/>
					</g>
				</g>
			</g>
		</g>
		<g>
			<g>
				<g>
					<g>
						<path class="st1" d="M413.3,232.5c1.6,5.9,1.4,12.4-0.6,18.3c-1,3-2.5,5.8-4.5,8.3c-1.9,2.5-4.3,4.7-7.1,6.4l-2.1-4.1
							c7.7-3.4,15.4-6.5,23.3-9.4c2-0.7,4-1.4,6-2.1c1-0.3,2-0.6,3.1-0.9c0.5-0.2,0.9-0.3,1.4-0.5c0.4-0.2,0.9-0.3,1.3-0.5
							c3.4-1.5,6.4-3.8,8.7-6.8c2.2-3,3.8-6.5,4.6-10.3c0.7-3.7,0.7-7.6-0.1-11.3l-0.1-0.7l-0.2-0.8l-0.4-1.5l-0.7-3l-1.5-6.1
							l-3-12.1l-3-12.1l-1.5-6.1l-0.2-0.8l-0.2-0.7l-0.4-1.4c-0.2-0.4-0.3-0.9-0.5-1.3c-0.2-0.4-0.3-0.9-0.5-1.3l-0.6-1.3
							c-0.2-0.4-0.5-0.8-0.7-1.2c-0.4-0.8-1-1.6-1.5-2.4c-0.3-0.4-0.6-0.7-0.9-1.1l-0.4-0.5l-0.5-0.5l-1-1l-1.1-0.9
							c-1.4-1.2-3-2.2-4.7-3l-0.6-0.3l-0.6-0.2c-0.4-0.2-0.9-0.3-1.3-0.5c-0.9-0.2-1.8-0.5-2.7-0.6c-0.9-0.2-1.8-0.2-2.7-0.3
							c-0.9,0-1.8,0-2.7,0.1c-0.9,0.1-1.8,0.3-2.7,0.5c-1,0.3-1.9,0.6-2.9,0.9c-3.9,1.2-7.8,2.6-11.6,4.1c-7.7,2.9-15.4,6.1-23,9.3
							l-1.7-4.8c1.9-0.5,3.8-0.8,5.7-0.8c0.5,0,1,0,1.5,0l1.5,0.1l0.7,0.1l0.7,0.1l1.4,0.2c3.8,0.8,7.3,2.5,10.4,4.8
							c3.1,2.3,5.6,5.3,7.5,8.5l0.7,1.2l0.6,1.3c0.4,0.8,0.8,1.7,1.1,2.6c0.4,0.9,0.6,1.8,0.8,2.7l0.2,0.7l0.2,0.6l0.3,1.3l2.4,10.2
							c0.8,3.4,1.5,6.8,2.3,10.2c1.5,6.8,2.9,13.6,4.1,20.5L413.3,232.5z M410.5,233.1c-2-6.7-3.9-13.4-5.7-20.1
							c-0.9-3.4-1.8-6.7-2.6-10.1l-2.5-10.1l-0.3-1.3l-0.2-0.6l-0.2-0.6c-0.2-0.8-0.4-1.5-0.7-2.3c-0.3-0.7-0.6-1.5-0.9-2.2
							l-0.5-1.1l-0.6-1c-1.6-2.7-3.7-5.2-6.2-7c-2.5-1.9-5.4-3.2-8.4-3.9l-1.1-0.2l-0.6-0.1l-0.6,0l-1.2-0.1c-0.4,0-0.8,0-1.2,0
							c-1.5,0-3.1,0.3-4.6,0.7l-1.7-4.8c7.7-3.3,15.4-6.5,23.2-9.5c3.9-1.5,7.9-2.9,11.9-4.2c1-0.3,2-0.6,3.1-0.9
							c1.1-0.3,2.3-0.6,3.4-0.7c1.2-0.2,2.3-0.2,3.5-0.2c1.2,0.1,2.3,0.1,3.5,0.3c1.2,0.1,2.3,0.5,3.4,0.8c0.6,0.2,1.1,0.4,1.6,0.6
							l0.8,0.3l0.8,0.4c2.1,0.9,4.1,2.2,5.8,3.7l1.3,1.1c0.4,0.4,0.8,0.8,1.2,1.2l0.6,0.6l0.6,0.7c0.4,0.4,0.7,0.9,1.1,1.3
							c0.6,0.9,1.4,1.8,1.9,2.9c0.3,0.5,0.6,1,0.8,1.5l0.7,1.5c0.3,0.5,0.5,1,0.7,1.6c0.2,0.5,0.4,1.1,0.6,1.6l0.5,1.6l0.2,0.8
							l0.2,0.8l1.5,6.1l2.9,12.1l2.9,12.1l1.5,6.1l0.7,3l0.4,1.5l0.2,0.8l0.2,0.8c0.9,4.4,0.9,9,0,13.5c-0.9,4.4-2.9,8.6-5.6,12.3
							c-2.8,3.6-6.5,6.6-10.8,8.4c-0.5,0.2-1.1,0.4-1.6,0.6c-0.5,0.2-1.1,0.4-1.6,0.5c-1,0.3-1.9,0.6-2.9,0.9
							c-1.9,0.6-3.9,1.3-5.8,2c-7.8,2.8-15.5,5.9-23.2,9l-2.1-4.1c2.3-1.3,4.3-3,6.1-5.1c1.7-2.1,3.1-4.4,4.1-7c1-2.5,1.7-5.2,1.9-8
							c0.2-2.7,0.1-5.5-0.5-8.3L410.5,233.1z"/>
					</g>
				</g>
			</g>
		</g>
		<g>
			<g>
				<g>
					<g>
						<path class="st1" d="M400.9,265.7l-5.2,2.2l1-0.7c-0.2,0.2-0.5,0.6-1,0.8c-0.5,0.2-0.8,0.2-0.8,0.2l0.5-0.1
							c-2.8,0.8-5.7,1.1-8.6,0.8c-2.9-0.2-5.7-1-8.3-2.2c-5.2-2.4-9.6-6.4-12.5-11.3c-1.5-2.4-2.6-5.1-3.3-7.8l-0.3-1l-0.2-0.9
							l-0.5-1.9l-0.9-3.8l-3.7-15.1l-3.6-15.1l-0.9-3.8l-0.5-1.9c-0.1-0.7-0.3-1.4-0.4-2.1c-0.5-2.8-0.6-5.6-0.3-8.4
							c0.5-5.6,2.5-11.1,5.9-15.7c3.4-4.6,8.2-8.1,13.8-9.7l0.5-0.1c0,0-0.1,0-0.2,0c-0.1,0-0.3,0.1-0.5,0.2c-0.4,0.2-0.8,0.5-1,0.8
							l1.3-0.9c0.4-0.1,0.8-0.2,1.1-0.2c0.4,0,0.8-0.1,1.2-0.1c0.4,0,0.8,0,1.2,0c0.4,0.1,0.8,0.1,1.2,0.2l0.3,3.4
							c-0.3,0.2-0.6,0.3-0.9,0.4c-0.3,0.1-0.6,0.2-0.9,0.3c-0.3,0.1-0.6,0.2-0.9,0.3l-0.9,0.3l1.3-0.9c-0.2,0.2-0.5,0.6-1,0.8
							c-0.4,0.2-0.8,0.2-0.8,0.2l0.5-0.1c-4.5,1.3-8.4,4.2-11.1,7.9c-2.8,3.8-4.5,8.4-4.9,13.1c-0.2,2.4-0.1,4.8,0.3,7.1
							c0.1,0.6,0.2,1.2,0.4,1.7l0.5,1.9l0.9,3.8l3.7,15.1l3.6,15.1l0.9,3.8l0.5,1.9l0.2,0.9l0.2,0.9c0.6,2.3,1.6,4.5,2.8,6.5
							c2.4,4,6,7.4,10.2,9.3c4.2,2,9,2.4,13.5,1.2l0.5-0.1c0,0-0.1,0-0.2,0c-0.1,0-0.3,0.1-0.6,0.2c-0.4,0.2-0.8,0.5-1,0.8l1-0.7
							l5.3-2.2L400.9,265.7z"/>
					</g>
				</g>
			</g>
		</g>
		<g>
			<g>
				<g>
					<g>
						<line class="st6" x1="364.5" y1="196.7" x2="385.4" y2="191.1"/>
					</g>
				</g>
			</g>
			<g>
				<g>
					<g>
						<path class="st1" d="M364.5,198.3c-0.7,0-1.3-0.4-1.5-1.1c-0.2-0.8,0.3-1.6,1.1-1.9l20.8-5.7c0.8-0.2,1.6,0.3,1.9,1.1
							c0.2,0.8-0.3,1.6-1.1,1.9l-20.8,5.7C364.8,198.2,364.7,198.3,364.5,198.3z"/>
					</g>
				</g>
			</g>
		</g>
		<g>
			<g>
				<g>
					<g>
						<line class="st6" x1="366.5" y1="203" x2="387.3" y2="197.3"/>
					</g>
				</g>
			</g>
			<g>
				<g>
					<g>
						<path class="st1" d="M366.5,204.5c-0.7,0-1.3-0.4-1.5-1.1c-0.2-0.8,0.3-1.6,1.1-1.9l20.8-5.7c0.8-0.2,1.6,0.3,1.9,1.1
							c0.2,0.8-0.3,1.6-1.1,1.9l-20.8,5.7C366.8,204.5,366.6,204.5,366.5,204.5z"/>
					</g>
				</g>
			</g>
		</g>
		<g>
			<g>
				<g>
					<g>
						<line class="st6" x1="368.6" y1="208.8" x2="389.4" y2="203.2"/>
					</g>
				</g>
			</g>
			<g>
				<g>
					<g>
						<path class="st1" d="M368.6,210.3c-0.7,0-1.3-0.4-1.5-1.1c-0.2-0.8,0.3-1.6,1.1-1.9l20.8-5.7c0.8-0.2,1.6,0.3,1.9,1.1
							c0.2,0.8-0.3,1.6-1.1,1.9l-20.8,5.7C368.9,210.3,368.7,210.3,368.6,210.3z"/>
					</g>
				</g>
			</g>
		</g>
		<g>
			<g>
				<g>
					<g>
						
							<ellipse transform="matrix(0.9219 -0.3875 0.3875 0.9219 -38.6301 175.5215)" class="st6" cx="416" cy="183.6" rx="5.9" ry="7.5"/>
					</g>
				</g>
			</g>
			<g>
				<g>
					<g>
						<path class="st1" d="M417.1,191.1c-2.7,0-5.4-2-6.7-5.2c-1.7-4-0.5-8.2,2.7-9.6c1.5-0.6,3.3-0.5,4.9,0.4
							c1.6,0.9,3,2.5,3.8,4.4c0.8,1.9,1,3.9,0.5,5.7c-0.5,1.8-1.6,3.2-3.1,3.8C418.4,191,417.7,191.1,417.1,191.1z M414.9,176.6
							c-0.6,0-1.2,0.1-1.7,0.3c-2.8,1.2-3.9,5.1-2.3,8.8c1.5,3.6,5.1,5.6,7.9,4.5c1.4-0.6,2.3-1.8,2.8-3.4c0.5-1.7,0.3-3.6-0.5-5.3
							l0,0c-0.7-1.8-2-3.2-3.5-4.1C416.7,176.9,415.8,176.6,414.9,176.6z"/>
					</g>
				</g>
			</g>
		</g>
		<g class="st3">
			<g>
				<g>
					<g>
						
							<ellipse transform="matrix(0.9219 -0.3875 0.3875 0.9219 -39.9917 175.0071)" class="st4" cx="414" cy="186.7" rx="8.9" ry="10.9"/>
					</g>
				</g>
			</g>
			<g>
				<g>
					<g>
						<path class="st1" d="M415.4,197.6c-3.9,0-7.9-2.8-9.8-7.3c-1.2-2.7-1.4-5.7-0.6-8.3c0.8-2.6,2.5-4.6,4.7-5.6
							c2.3-1,4.9-0.8,7.3,0.5c2.4,1.3,4.4,3.5,5.5,6.2l0,0c1.2,2.7,1.4,5.7,0.6,8.3c-0.8,2.6-2.5,4.6-4.7,5.6
							C417.4,197.4,416.4,197.6,415.4,197.6z M412.7,176.4c-1,0-1.9,0.2-2.8,0.6c-2.1,0.9-3.7,2.7-4.4,5.2c-0.7,2.5-0.5,5.3,0.6,7.9
							c2.3,5.4,7.7,8.3,12,6.4c2.1-0.9,3.7-2.7,4.4-5.2c0.7-2.5,0.5-5.3-0.6-7.9l0,0c-1.1-2.6-3-4.7-5.2-5.9
							C415.4,176.7,414,176.4,412.7,176.4z"/>
					</g>
				</g>
			</g>
		</g>
		<g>
			<g>
				<g>
					<g>
						<path class="st1" d="M387.8,257.6l-0.4-0.2c-0.4-0.2-10.2-5.3-11.7-11l-2.8-11.2c-0.7-2.9,1-5.8,3.9-6.5l16.2-4.1
							c1.4-0.4,2.8-0.1,4.1,0.6c1.2,0.7,2.1,1.9,2.5,3.3l2.8,11.2c1.9,7.3-2.6,14.8-10,16.7l0,0c-1.4,0.4-4.1,1.1-4.1,1.1
							L387.8,257.6z M394.3,226.9c-0.2,0-0.5,0-0.7,0.1l-16.2,4.1c-1.6,0.4-2.5,2-2.1,3.6l2.8,11.2c0.9,3.7,7.2,7.7,10,9.2
							c0.8-0.2,2.6-0.7,3.7-1l0,0c6-1.5,9.7-7.7,8.2-13.7l-2.8-11.2c-0.2-0.8-0.7-1.4-1.3-1.8C395.3,227,394.8,226.9,394.3,226.9z"
							/>
					</g>
				</g>
			</g>
		</g>
		<g>
			<g>
				<g>
					<g>
						<path class="st11" d="M392,255.2L392,255.2c-1.4,0.4-4.2,1.1-4.2,1.1s-9.7-4.9-11-10.2l-2.8-11.2c-0.6-2.2,0.8-4.5,3-5.1
							l16.2-4.1c2.2-0.6,4.5,0.8,5.1,3l2.8,11.2C402.8,246.7,398.7,253.5,392,255.2z"/>
					</g>
				</g>
			</g>
		</g>
		<g>
			<g>
				<g>
					<g>
						<path class="st1" d="M389,257.7l-0.5-0.3c-1.1-0.5-10.4-5.5-11.9-11.3l-2.9-11.3c-0.8-3.1,1.1-6.2,4.1-7l16.2-4.1
							c3-0.8,6.1,1.1,6.9,4.2l2.9,11.3c1.9,7.6-2.6,15.3-10.1,17.2h0c-1.4,0.4-4.1,1.1-4.1,1.1L389,257.7z M395.5,226.6
							c-0.2,0-0.4,0-0.6,0.1l-16.2,4.1c-1.4,0.4-2.3,1.8-1.9,3.3l2.9,11.3c0.9,3.6,6.9,7.5,9.8,9.1c0.9-0.2,2.6-0.7,3.6-1l0,0
							c5.9-1.5,9.4-7.5,7.9-13.5l-2.9-11.3C397.7,227.4,396.7,226.6,395.5,226.6z"/>
					</g>
				</g>
			</g>
		</g>
		<g>
			<g>
				<g>
					<g>
						<path class="st11" d="M388.1,256.7L388.1,256.7c-6.9,1.7-14-2.5-15.7-9.4l-2.9-11.6c-0.6-2.3,0.8-4.7,3.1-5.2l16.7-4.2
							c2.3-0.6,4.7,0.8,5.2,3.1l2.9,11.6C399.3,248,395.1,255,388.1,256.7z"/>
					</g>
				</g>
			</g>
		</g>
		<g>
			<g>
				<g>
					<g>
						<path class="st1" d="M385,258.4c-6.3,0-12.1-4.3-13.7-10.7l-2.9-11.6c-0.4-1.4-0.1-2.9,0.6-4.2c0.8-1.3,2-2.2,3.4-2.5
							l16.7-4.2c3-0.7,6,1.1,6.7,4l2.9,11.6c1.9,7.6-2.7,15.3-10.3,17.2l0,0C387.3,258.2,386.1,258.4,385,258.4z M387.8,255.6
							l0.3,1.2L387.8,255.6c6.3-1.6,10.1-8,8.5-14.2l-2.9-11.6c-0.2-0.8-0.7-1.5-1.4-1.9c-0.7-0.4-1.5-0.5-2.3-0.3l-16.7,4.2
							c-0.8,0.2-1.5,0.7-1.9,1.4c-0.4,0.7-0.5,1.5-0.3,2.3l2.9,11.6C375.2,253.3,381.6,257.1,387.8,255.6z"/>
					</g>
				</g>
			</g>
		</g>
		<g class="st3">
			<g>
				<g>
					<g>
						<path class="st1" d="M387.9,255.8c-6.5,1.6-13.1-2.3-14.7-8.8l-0.6-2.5c2.9,2.9,7.2,4.2,11.5,3.1c6.5-1.6,10.4-8.2,8.8-14.7
							l-1.4-5.5c1.2,0.4,2.2,1.5,2.5,2.8l2.7,10.8C398.3,247.6,394.4,254.2,387.9,255.8z"/>
					</g>
				</g>
			</g>
		</g>
		<g>
			<g>
				<g>
					<g>
						<path class="st1" d="M384.9,257.4c-2.4,0-4.7-0.6-6.8-1.9c-3.1-1.8-5.2-4.7-6.1-8.2l-2.7-10.8c-0.3-1.4-0.1-2.8,0.6-4
							c0.7-1.2,1.9-2.1,3.2-2.4l15.7-4c1.4-0.3,2.8-0.1,4,0.6c1.2,0.7,2.1,1.9,2.4,3.2l2.7,10.8c0.9,3.5,0.3,7-1.5,10.1
							c-1.8,3.1-4.7,5.2-8.2,6.1C387.1,257.3,386,257.4,384.9,257.4z M390.1,228.5c-0.2,0-0.5,0-0.7,0.1l-15.7,4
							c-0.7,0.2-1.3,0.6-1.7,1.3c-0.4,0.6-0.5,1.4-0.3,2.1l2.7,10.8c0.7,2.8,2.5,5.2,5,6.7c2.5,1.5,5.4,1.9,8.3,1.2l0,0
							c2.8-0.7,5.2-2.5,6.7-5c1.5-2.5,1.9-5.4,1.2-8.3l-2.7-10.8c-0.2-0.7-0.6-1.3-1.3-1.7C391.1,228.6,390.6,228.5,390.1,228.5z"/>
					</g>
				</g>
			</g>
		</g>
		<g>
			<g>
				<g>
					<g>
						<g>
							<path class="st6" d="M436.2,245.8L436.2,245.8c-4.6-1.3-6.4-5.3-5.4-9c2.1-10.3,0.6-19-4.8-28c-2.1-3.2-1.8-7.6,2.1-10.3l0,0
								c5-2.8,11.3-0.4,13.5,3.2c7.1,11.6,9.1,23.3,6.2,36.6C446.6,242.4,442.1,246.8,436.2,245.8z"/>
						</g>
					</g>
				</g>
				<g>
					<g>
						<g>
							<path class="st1" d="M437.8,246.3c-0.5,0-1.1,0-1.7-0.1l0,0c-4.9-1.4-6.6-5.8-5.6-9.4c2.1-10.2,0.6-18.8-4.7-27.8
								c-2.1-3.1-2-7.8,2.2-10.7c5.1-2.8,11.6-0.5,13.9,3.3c7.2,11.7,9.2,23.4,6.3,36.8C446.9,242.5,442.8,246.3,437.8,246.3z
								 M436.2,245.5c5.9,1,10.2-3.7,11.3-7.3c2.9-13.2,0.9-24.8-6.2-36.3c-2.2-3.6-8.4-5.8-13.1-3.1c-4,2.8-3.9,7.1-2,9.9
								c5.5,9.1,7,17.8,4.8,28.2C430.2,240.1,431.5,244.2,436.2,245.5z"/>
						</g>
					</g>
				</g>
			</g>
		</g>
		<g class="st3">
			<g>
				<g>
					<g>
						<g>
							<path class="st4" d="M447.8,238.3c-1.3,4.1-5.8,8.5-11.7,7.5c-4.6-1.3-6.4-5.3-5.4-9c0.6-3.1,1-6.2,0.9-9.1
								c1,1.3,2.6,2.3,4.6,2.7c5.8,0.5,9.9-4.1,10.8-8.2c0.3-2.4,0.5-4.6,0.5-6.9C449.5,222.6,449.6,230.1,447.8,238.3z"/>
						</g>
					</g>
				</g>
				<g>
					<g>
						<g>
							<path class="st1" d="M437.8,246.3c-0.5,0-1.1,0-1.7-0.1c-5-1.4-6.6-5.8-5.7-9.4c0.6-3.2,0.9-6.1,0.9-9l0-0.9l0.6,0.7
								c1,1.3,2.6,2.2,4.4,2.6c5.8,0.5,9.6-4.4,10.4-8c0.3-2.3,0.5-4.6,0.5-6.8l0-2.2l0.6,2.2c2,7.3,2.1,14.9,0.3,23.2l0,0
								C446.9,242.5,442.8,246.3,437.8,246.3z M432,228.5c0,2.7-0.3,5.4-0.9,8.3c-0.9,3.4,0.6,7.4,5.2,8.7c5.9,1,10.2-3.7,11.3-7.3
								c1.6-7.4,1.7-14.1,0.3-20.7c-0.1,1.5-0.2,3.1-0.4,4.7c-1,4.6-5.5,9-11.1,8.5C434.5,230.4,433.1,229.6,432,228.5z"/>
						</g>
					</g>
				</g>
			</g>
		</g>
		<g>
			<g>
				<g>
					<g>
						<g>
							<path class="st6" d="M431.7,227.7c-1.3-1.6-1.7-3.7-1.4-5.7c0.1-0.9,0.2-1.8,0.2-2.6C431.3,222.1,431.6,224.9,431.7,227.7z"
								/>
						</g>
					</g>
				</g>
				<g>
					<g>
						<g>
							<path class="st1" d="M432,228.6l-0.6-0.7c-1.3-1.6-1.8-3.8-1.4-6c0.1-0.9,0.2-1.8,0.2-2.6l0.1-1.9l0.5,1.8
								c0.7,2.8,1.1,5.5,1.1,8.4L432,228.6z M430.7,221.3c0,0.2-0.1,0.5-0.1,0.8c-0.3,1.6,0,3.3,0.7,4.6
								C431.3,224.9,431.1,223.1,430.7,221.3z"/>
						</g>
					</g>
				</g>
			</g>
		</g>
		<g>
			<g>
				<g>
					<g>
						<g>
							<path class="st1" d="M437.9,247.5c-0.6,0-1.3-0.1-1.9-0.2l-0.2,0c-5.7-1.6-7.6-6.6-6.5-10.8c2-9.9,0.6-18.2-4.6-26.9
								c-2.4-3.6-2.3-9,2.5-12.4l0.1-0.1c5.6-3.1,13-0.5,15.5,3.8c7.4,12,9.4,23.9,6.4,37.7l0,0.1
								C447.9,243.2,443.6,247.5,437.9,247.5z M436.5,244.3c5.1,0.8,8.8-3.2,9.9-6.4c2.8-12.9,0.9-24.1-6.1-35.4
								c-1.8-3.1-7.3-4.9-11.4-2.7c-3.3,2.4-3.2,5.9-1.7,8.2l0,0.1c5.6,9.4,7.2,18.4,5,29.1l0,0.1
								C431.5,239.9,432.6,243.2,436.5,244.3z"/>
						</g>
					</g>
				</g>
			</g>
		</g>
		<g>
			<g>
				<g>
					<g>
						<path class="st1" d="M427.2,210.6c-0.2,0-0.5-0.1-0.7-0.2c-0.6-0.4-0.7-1.1-0.4-1.7c0.1-0.1,6.3-9.5,17.1-5.9
							c0.6,0.2,1,0.9,0.8,1.5s-0.9,1-1.5,0.8c-9-3-14.1,4.6-14.3,4.9C428,210.4,427.6,210.6,427.2,210.6z"/>
					</g>
				</g>
			</g>
		</g>
		<g>
			<g>
				<g>
					<g>
						<path class="st1" d="M429.2,216.6c-0.4,0-0.8-0.2-1.1-0.6c-0.3-0.6-0.1-1.3,0.5-1.7c1.3-0.7,12.4-6.8,17.6-5.2
							c0.6,0.2,1,0.9,0.8,1.5c-0.2,0.6-0.9,1-1.5,0.8c-3.6-1.1-12.6,3.2-15.7,5C429.6,216.5,429.4,216.6,429.2,216.6z"/>
					</g>
				</g>
			</g>
		</g>
		<g>
			<g>
				<g>
					<g>
						<path class="st1" d="M431.3,222.5l-0.6-2.4c0,0,15.7-4.1,17-4.4c0.7-0.2,1.3,0.2,1.5,0.9c0.2,0.7-0.2,1.3-0.9,1.5
							C447,218.4,431.3,222.5,431.3,222.5z"/>
					</g>
				</g>
			</g>
		</g>
		<g>
			<g>
				<g>
					<g>
						<path class="st1" d="M433.4,229.2c-1.1,0-1.8,0-1.9-0.1c-0.7-0.1-1.2-0.6-1.1-1.3c0.1-0.7,0.6-1.2,1.3-1.1
							c0.1,0,7.1,0.5,17-2.2c0.6-0.2,1.3,0.2,1.5,0.8c0.2,0.6-0.2,1.3-0.8,1.5C442,228.9,436.2,229.2,433.4,229.2z"/>
					</g>
				</g>
			</g>
		</g>
		<g>
			<g>
				<g>
					<g>
						<path class="st1" d="M439,237.3c-5.5,0-8.3-1.6-8.5-1.7c-0.6-0.3-0.8-1.1-0.4-1.7c0.3-0.6,1.1-0.8,1.7-0.4
							c0.1,0,5.4,3,16.2,0.1c0.6-0.2,1.3,0.2,1.5,0.9c0.2,0.6-0.2,1.3-0.9,1.5C444.8,237,441.6,237.3,439,237.3z"/>
					</g>
				</g>
			</g>
		</g>
		<g>
			<g>
				<g>
					<g>
						<path class="st6" d="M417.1,183.1c0.3,0.8,1.8,7.3,1.8,7.3s-1.9,0.8-4.3,1.8c-3,1.3-6.7-0.8-8.3-4.6c-1.6-3.8-0.5-7.9,2.5-9.2
							c2-0.8,4.3-1.8,4.3-1.8S416.5,181.9,417.1,183.1z"/>
					</g>
				</g>
			</g>
		</g>
		<g>
			<g>
				<g>
					<g>
						<path class="st1" d="M412.8,194.2c-3.1,0-6.4-2.3-7.9-5.9c-1.9-4.6-0.4-9.6,3.3-11.2l5.5-2.3l0.7,1.1c0.6,0.9,3.6,5.4,4.1,6.7
							v0c0.3,0.8,1.4,5.6,1.9,7.6l0.3,1.2l-5.5,2.3C414.4,194,413.6,194.2,412.8,194.2z M412.5,178.6l-3.2,1.3
							c-2.2,0.9-3,4.1-1.7,7.2c1.3,3,4.1,4.7,6.3,3.8l3.1-1.3c-0.6-2.7-1.3-5.4-1.5-5.8C415.4,183,413.8,180.5,412.5,178.6z"/>
					</g>
				</g>
			</g>
		</g>
		<g>
			<g>
				<g>
					<g>
						
							<ellipse transform="matrix(0.9219 -0.3875 0.3875 0.9219 -38.6301 175.5215)" class="st12" cx="416" cy="183.6" rx="5.9" ry="7.5"/>
					</g>
				</g>
			</g>
		</g>
		<g>
			<g>
				<g>
					<g>
						<path class="st1" d="M417.1,192.3c-3.1,0-6.4-2.3-7.9-5.9c-1.9-4.6-0.4-9.6,3.3-11.2c1.9-0.8,4-0.6,6,0.5
							c1.9,1,3.4,2.8,4.3,4.9c0.9,2.2,1.1,4.5,0.5,6.5c-0.6,2.2-2,3.8-3.8,4.6C418.7,192.2,417.9,192.3,417.1,192.3z M414.9,177.8
							c-0.4,0-0.9,0.1-1.2,0.2c-2.2,0.9-3,4.1-1.7,7.2c1.3,3,4.1,4.7,6.3,3.8c1-0.4,1.7-1.4,2.1-2.6c0.4-1.4,0.2-3-0.4-4.5l0,0
							c-0.6-1.5-1.7-2.8-3-3.5C416.3,178,415.6,177.8,414.9,177.8z"/>
					</g>
				</g>
			</g>
		</g>
		<g>
			<g>
				<g>
					<g>
						<path class="st6" d="M437.2,176c0.3,0.8,1.8,7.3,1.8,7.3s-1.9,0.8-4.3,1.8c-3,1.3-6.7-0.8-8.3-4.6c-1.6-3.8-0.5-7.9,2.5-9.2
							c2-0.8,4.3-1.8,4.3-1.8S436.7,174.8,437.2,176z"/>
					</g>
				</g>
			</g>
		</g>
		<g>
			<g>
				<g>
					<g>
						<path class="st1" d="M432.9,187.1c-3.1,0-6.4-2.3-7.9-5.9c-0.9-2.2-1.1-4.5-0.5-6.5c0.6-2.2,2-3.8,3.8-4.6l5.5-2.3l0.7,1.1
							c0.6,0.9,3.6,5.4,4.1,6.7l0,0c0.3,0.8,1.4,5.6,1.9,7.6l0.3,1.2l-5.5,2.3C434.5,186.9,433.7,187.1,432.9,187.1z M432.7,171.5
							l-3.2,1.3c-1,0.4-1.7,1.4-2.1,2.6c-0.4,1.4-0.2,3,0.4,4.5c1.3,3,4.1,4.7,6.3,3.8l3.1-1.3c-0.6-2.7-1.3-5.4-1.5-5.8
							C435.5,175.9,433.9,173.4,432.7,171.5z"/>
					</g>
				</g>
			</g>
		</g>
		<g>
			<g>
				<g>
					<g>
						
							<ellipse transform="matrix(0.9219 -0.3875 0.3875 0.9219 -34.3104 182.7764)" class="st12" cx="436.2" cy="176.5" rx="5.9" ry="7.5"/>
					</g>
				</g>
			</g>
		</g>
		<g>
			<g>
				<g>
					<g>
						<path class="st1" d="M437.2,185.3c-1.2,0-2.4-0.3-3.6-1c-1.9-1-3.4-2.8-4.3-4.9c-0.9-2.2-1.1-4.5-0.5-6.5
							c0.6-2.2,2-3.8,3.8-4.6c3.8-1.6,8.4,0.9,10.3,5.4c0.9,2.2,1.1,4.5,0.5,6.5c-0.6,2.2-2,3.8-3.8,4.6
							C438.9,185.1,438,185.3,437.2,185.3z M435.1,170.7c-0.4,0-0.9,0.1-1.3,0.3c-1,0.4-1.7,1.4-2.1,2.6c-0.4,1.4-0.2,3,0.4,4.5
							c0.6,1.5,1.7,2.8,3,3.5c1.1,0.6,2.3,0.8,3.3,0.3c1-0.4,1.7-1.4,2.1-2.6c0.4-1.4,0.2-3-0.4-4.5
							C439.1,172.3,437,170.7,435.1,170.7z"/>
					</g>
				</g>
			</g>
		</g>
		<g class="st8">
			<g>
				<g>
					<g>
						<ellipse class="st6" cx="334.8" cy="127.8" rx="11.6" ry="13.5"/>
					</g>
				</g>
			</g>
		</g>
		<g class="st8">
			<g>
				<g>
					<g>
						<ellipse class="st6" cx="345.3" cy="151" rx="5.1" ry="5.9"/>
					</g>
				</g>
			</g>
		</g>
		<g>
			<g>
				<g>
					<g>
						<path class="st6" d="M192.3,230.3l-0.5,0.5l-8.5,2.1l-22.9-92.5l-14.9-60.1l0,0l-0.9-3.7c-0.7-2.9,0.8-5.8,3.5-6.8
							c0.2-0.1,0.5-0.2,0.8-0.2c0.6-0.1,1.2-0.2,1.7-0.2c2.5,0.1,3.6,1.7,4.2,4.2L192.3,230.3z"/>
					</g>
				</g>
			</g>
			<g>
				<g>
					<g>
						<path class="st1" d="M183.1,233.3L145.1,80.4l0,0l-0.9-3.6c-0.7-3,0.9-6.1,3.7-7.2c0.2-0.1,0.5-0.2,0.8-0.3
							c0.6-0.1,1.2-0.2,1.8-0.2c2.4,0.1,3.8,1.5,4.5,4.5l37.5,156.8l-0.7,0.7L183.1,233.3z M145.8,80.3l37.7,152.2l8.1-2l0.4-0.4
							L154.5,73.7c-0.7-2.7-1.8-3.9-4-4c-0.5,0-1.1,0-1.6,0.2c-0.3,0.1-0.5,0.1-0.7,0.2c-2.6,1-4,3.8-3.3,6.5L145.8,80.3L145.8,80.3
							z"/>
					</g>
				</g>
			</g>
		</g>
		<g>
			<g>
				<g>
					<g>
						<path class="st1" d="M181.5,235.9l-38-153.2l-0.6,0l0.1-2.1l-1.2-4.8c-0.9-3.6,1.3-7.3,5-8.2c0.4-0.1,0.7-0.1,1.1-0.2
							c0.3,0,0.6,0,0.9,0c3,0.2,5.5,2.2,6.2,5.2l39.7,160.1L181.5,235.9z M162.3,138.1l0.4,1.7l22.3,90.1l3.7-0.9L150.3,73.7
							c-0.2-0.8-0.9-1.4-1.8-1.5c-0.1,0-0.2,0-0.3,0c-0.1,0-0.2,0-0.3,0.1c-1,0.2-1.6,1.3-1.4,2.3l1.3,5.1L162.3,138.1z"/>
					</g>
				</g>
			</g>
		</g>
		<g>
			<g>
				<g>
					<g>
						<path class="st6" d="M160.4,140.4c-0.6-0.2-29.3-10-45.6,11c-10.4,13.5-20,19.2-26.2,21.7c-3.7,1.5-7.8-0.4-9.2-4.1
							l-17.6-47.7c-1.2-3.3,0.2-6.9,3.2-8.6c19.8-10.9,22.4-18.4,31.8-27.6c24.4-23.9,48.1-5.1,48.6-4.8l0,0L160.4,140.4z"/>
					</g>
				</g>
			</g>
			<g>
				<g>
					<g>
						<path class="st1" d="M86,174c-1,0-2-0.2-3-0.6c-1.8-0.8-3.2-2.3-3.9-4.2l-17.6-47.7c-1.2-3.4,0.2-7.2,3.4-9
							c14.4-7.9,19.6-13.9,25.1-20.3c2-2.3,4.1-4.7,6.7-7.3c24.3-23.8,48-5.6,49-4.8l0.1,0.1l0,0.1l15,60.6l-0.5-0.2
							c-0.3-0.1-29.1-10-45.3,10.9c-10.4,13.5-20.1,19.3-26.3,21.8C87.8,173.8,86.9,174,86,174z M123.6,73.3
							c-7.9,0-17.2,2.8-26.5,12c-2.5,2.5-4.6,4.9-6.6,7.2C84.9,99,79.7,105,65.2,113c-2.9,1.6-4.2,5.1-3.1,8.2l17.6,47.7
							c0.6,1.7,1.9,3.1,3.6,3.8c1.7,0.7,3.5,0.8,5.2,0.1c6.2-2.5,15.8-8.2,26.1-21.6c15.2-19.6,41.4-12.6,45.4-11.3l-14.7-59.5
							C144.1,79.7,135.4,73.3,123.6,73.3z"/>
					</g>
				</g>
			</g>
		</g>
		<g>
			<g>
				<g>
					<g>
						<path class="st1" d="M86,176.1c-1.3,0-2.6-0.3-3.8-0.8c-2.4-1.1-4.2-3-5-5.4l-17.6-47.7c-1.6-4.4,0.3-9.3,4.3-11.6
							c14-7.7,19.1-13.6,24.5-19.8c2-2.4,4.2-4.8,6.8-7.4c25.6-25.1,51.6-5.1,51.8-4.9l0.7,0.5l16.2,65.3l-4.3-1.5
							c-0.3-0.1-27.7-9.4-42.9,10.2C106,166.8,96,172.8,89.5,175.4C88.3,175.9,87.2,176.1,86,176.1z M123.6,75.5
							c-7.4,0-16.2,2.7-25.1,11.4c-2.5,2.4-4.5,4.8-6.5,7.1c-5.4,6.3-11,12.8-25.9,20.9c-2,1.1-2.9,3.5-2.1,5.6l17.6,47.7
							c0.4,1.2,1.3,2.1,2.5,2.6c1.1,0.5,2.4,0.5,3.5,0.1c6-2.4,15.2-7.9,25.2-20.9c13.5-17.5,35.1-15,44.2-13l-13.7-55.3
							C141.1,80.2,133.5,75.5,123.6,75.5z"/>
					</g>
				</g>
			</g>
		</g>
		<g>
			<g>
				<g>
					<g>
						<polygon class="st1" points="160.2,142.9 160.2,142.9 160.5,138 						"/>
					</g>
				</g>
			</g>
		</g>
		<g>
			<g>
				<g>
					<g>
						<polygon class="st1" points="145.3,82.8 145.3,82.8 145.6,77.9 						"/>
					</g>
				</g>
			</g>
		</g>
		<g class="st3">
			<g>
				<g>
					<g>
						<path class="st1" d="M139.1,76.5c0,0,11.2,41.8,7.3,46.8c-3.9,5-22.7-2.8-34.7,15.7c-14,21.6-34.9,23.2-34.9,23.2l2.8,6.2
							c1.6,3.7,6,5.2,9.6,3.4c8.1-4.1,21.2-11.9,26.3-21c7.6-13.5,41.8-13.7,44-11.6c0,0-8.7-41.6-15.7-57.6
							C142.1,78.1,140.3,77,139.1,76.5z"/>
					</g>
				</g>
			</g>
		</g>
		<g>
			<g>
				<g>
					<g>
						<g>
							<path class="st1" d="M132.5,97.4c0-1.5,0.1-3.1-0.4-4.5c-0.2-0.2-0.3-0.3-0.4-0.5c-0.5-0.1-0.9-0.3-1.4-0.3
								c-3.3-0.5-6.5-0.5-9.8,0.1c-4.2,0.8-8,2.5-11.1,5.5c-1.1,1.1-2.1,2.3-3.2,3.5c-0.3,0.3-0.5,0.5-0.9,0.3
								c-1-0.4-2.2-0.5-3.3-0.4c-3,0.2-5.5,1.4-7.8,3.2c-2.5,1.9-4.4,4.4-6.2,7c-0.8,1.1-0.3,2.2,1,2.5c0.8,0.2,1.7,0.4,2.5,0.6
								c2,0.4,4,0.9,5.9,1.3c0,0.1,0,0.1,0,0.1c0,0,0,0.1,0,0.1c-0.7,1.1-0.4,2,0.5,2.9c0.1,0.1,0.2,0.2,0.3,0.3
								c0.5,0.5,1,1.1,1.5,1.6c-0.6,0.6-1.2,1-1.7,1.6c-0.3,0.3-0.5,0.7-0.5,1.1c-0.1,0.6,0.2,1.2,0.8,1.4c0.6,0.3,1.2,0.2,1.6-0.2
								c0.6-0.5,1.2-1.1,1.8-1.7c0.7,0.8,1.4,1.5,2.1,2.2c0.8,0.8,1.3,0.9,2.3,0.5c0.2-0.1,0.4-0.1,0.6-0.2c0,0.2,0.1,0.4,0.1,0.6
								c0.4,2.8,0.8,5.5,1.2,8.3c0.2,1.3,1.3,1.8,2.4,1.1c1-0.6,2-1.2,3-1.9c2.3-1.5,4.3-3.4,5.9-5.7c1.9-2.9,2.9-6,1.9-9.5
								c0-0.1,0.1-0.4,0.2-0.5c1-0.8,2.1-1.6,3.1-2.4c2.3-1.8,4-4.1,5.3-6.7C131.6,105.2,132.4,101.4,132.5,97.4z M98.8,112.8
								c-2.3-0.5-4.7-1-7.1-1.6c1.8-2.3,3.7-4.4,6.1-5.8c0.4-0.2,0.8-0.4,1.2-0.6l0,0c0.2-0.1,0.4-0.2,0.6-0.3
								c0.5-0.2,1.1-0.3,1.7-0.4c1-0.2,1.9-0.1,2.6,0.1c-0.4,0.7-0.8,1.4-1.3,2.1C101.3,108.5,100.1,110.6,98.8,112.8z M118.5,122.4
								c-0.1,0.3-0.2,0.7-0.3,1c-0.1,0.2-0.2,0.4-0.2,0.6c0,0,0,0,0,0c-0.3,0.7-0.7,1.4-1.2,2.1c-0.3,0.4-0.5,0.7-0.8,1.1
								c-1.3,1.5-2.8,2.8-4.5,3.9c-0.2,0.2-0.5,0.3-0.7,0.5l0,0c-0.2-1.3-0.4-2.5-0.6-3.8c-0.2-1.2-0.4-2.5-0.5-3.7
								c3-1.5,6-3,8.9-4.5l0,0c0,0.1,0.1,0.2,0.1,0.3C118.7,120.8,118.7,121.6,118.5,122.4z M128.4,104.2c-0.8,2.5-1.9,4.8-3.6,6.7
								c-1.3,1.5-2.9,2.8-4.5,3.9c-4.5,3.1-9.3,5.4-14.3,7.5c-0.2,0.1-0.4,0.1-0.6-0.1c-0.4-0.5-0.9-0.9-1.3-1.4c0,0,0-0.1-0.1-0.2
								c0.1-0.1,0.3-0.2,0.4-0.4c2.7-2.5,5.5-5.1,8.2-7.6c0.8-0.7,0.7-1.8-0.1-2.4c-0.6-0.4-1.3-0.3-1.9,0.2
								c-1.6,1.5-3.3,3.1-4.9,4.6c-1.2,1.1-2.4,2.3-3.7,3.5c-0.5-0.6-1-1.1-1.5-1.6c-0.1-0.1,0-0.4,0-0.5c1.3-2.5,2.7-5,4.1-7.5
								c1.4-2.4,3-4.7,4.9-6.9c1.7-2,3.6-3.8,6-5c1.5-0.8,3.1-1.4,4.8-1.7c0.2,0,0.4,0.1,0.5,0.2c1.9,2.1,3.9,4.1,5.8,6.2
								c0.6,0.6,1.2,1.3,1.7,1.9C128.5,103.8,128.5,104,128.4,104.2z M129.1,101c-1.9-2.1-3.8-4.1-5.7-6.1c0,0,0-0.1,0-0.2
								c2,0,3.9,0.1,5.9,0.1c0,0.3,0,0.6,0.1,0.8C129.5,97.5,129.4,99.2,129.1,101z"/>
						</g>
					</g>
				</g>
			</g>
			<g>
				<g>
					<g>
						<g>
							<path class="st6" d="M128.3,103.6c-0.6-0.6-1.2-1.2-1.7-1.9c-1.9-2.1-3.8-4.1-5.8-6.2c-0.1-0.1-0.4-0.3-0.5-0.2
								c-1.7,0.3-3.3,0.9-4.8,1.7c-2.4,1.2-4.3,3-6,5c-1.8,2.1-3.5,4.4-4.9,6.9c-1.4,2.5-2.7,5-4.1,7.5c-0.1,0.1-0.1,0.4,0,0.5
								c0.5,0.5,1,1.1,1.5,1.6c1.3-1.2,2.5-2.3,3.7-3.5c1.6-1.5,3.3-3.1,4.9-4.6c0.6-0.5,1.3-0.6,1.9-0.2c0.8,0.6,0.9,1.7,0.1,2.4
								c-2.7,2.6-5.5,5.1-8.2,7.6c-0.1,0.1-0.3,0.2-0.4,0.4c0,0.1,0.1,0.1,0.1,0.2c0.4,0.5,0.9,0.9,1.3,1.4c0.2,0.2,0.3,0.2,0.6,0.1
								c5-2.1,9.9-4.4,14.3-7.5c1.6-1.2,3.2-2.4,4.5-3.9c1.7-2,2.8-4.3,3.6-6.7C128.5,104,128.5,103.8,128.3,103.6z M123.4,107.5
								c-2.1,1.9-5.3,1.8-7.2-0.2c-1.9-2.1-1.8-5.3,0.3-7.2c2-1.9,5.3-1.8,7.2,0.3C125.6,102.4,125.5,105.6,123.4,107.5z"/>
						</g>
					</g>
				</g>
			</g>
			<g>
				<g>
					<g>
						<g>
							<path class="st13" d="M129.1,101c-1.9-2.1-3.8-4.1-5.7-6.1c0-0.1,0-0.1,0-0.2c2,0,3.9,0.1,5.9,0.1
								C129.6,97,129.4,98.9,129.1,101z"/>
						</g>
					</g>
				</g>
			</g>
			<g>
				<g>
					<g>
						<g>
							<path class="st13" d="M103.9,104.2c-1.7,2.8-3.4,5.7-5.1,8.6c-2.3-0.5-4.7-1-7.1-1.6c2.2-2.8,4.5-5.3,7.9-6.6
								C101.1,104,102.8,103.9,103.9,104.2z"/>
						</g>
					</g>
				</g>
			</g>
			<g>
				<g>
					<g>
						<g>
							<path class="st13" d="M116,127.2c-1.5,1.8-3.3,3.1-5.3,4.4c-0.4-2.5-0.7-5-1.1-7.4c3-1.5,6-3,8.9-4.5c0.2,0.8,0.1,1.8,0,2.7
								C118.1,124.2,117.2,125.8,116,127.2z"/>
						</g>
					</g>
				</g>
			</g>
			<g>
				<g>
					<g>
						<g>
							<path class="st1" d="M123.7,100.3c-1.9-2.1-5.2-2.2-7.2-0.3c-2.1,1.9-2.2,5.2-0.3,7.2c1.9,2.1,5.1,2.2,7.2,0.2
								C125.5,105.6,125.6,102.4,123.7,100.3z M121.7,105.8c-1.1,1-2.8,0.9-3.8-0.1c-1-1.1-0.9-2.8,0.2-3.9c0.1-0.1,0.1-0.1,0.2-0.2
								c0.2-0.2,0.4-0.3,0.7-0.4c0.7-0.2,1.6-0.2,2.3,0.2c0.2,0.1,0.4,0.3,0.6,0.5C122.9,103.1,122.9,104.8,121.7,105.8z"/>
						</g>
					</g>
				</g>
			</g>
			<g>
				<g>
					<g>
						<g>
							<path class="st14" d="M121.7,105.8c-1.1,1-2.8,0.9-3.8-0.1c-1-1.1-0.9-2.8,0.2-3.9c0.1-0.1,0.1-0.1,0.2-0.2
								c0.2-0.2,0.4-0.3,0.7-0.4c0.7-0.2,1.6-0.2,2.3,0.2c0.2,0.1,0.4,0.3,0.6,0.5C122.9,103.1,122.9,104.8,121.7,105.8z"/>
						</g>
					</g>
				</g>
			</g>
		</g>
		<g>
			<g>
				<g>
					<g>
						<g>
							<path class="st2" d="M174.7,239.5c-0.4-3.6,4.5-9.6,11.7-11.9c7.3-2.3,13.4,0,14.5,3.5"/>
						</g>
					</g>
				</g>
			</g>
			<g>
				<g>
					<g>
						<g>
							<path class="st1" d="M173.8,239.6c-0.3-0.9-0.2-1.8-0.1-2.6c0.1-0.8,0.4-1.6,0.8-2.4c0.7-1.5,1.6-2.8,2.7-3.9
								c2.2-2.3,4.9-4.1,7.8-5.1c3-1.1,6.2-1.5,9.5-0.9c1.6,0.3,3.2,0.9,4.6,1.9c0.7,0.5,1.4,1.1,1.9,1.8c0.3,0.4,0.5,0.8,0.7,1.2
								c0.2,0.4,0.3,0.9,0.4,1.3c0.1,0.6-0.3,1.1-0.9,1.2c-0.4,0.1-0.8-0.1-1-0.4l-0.1-0.1c-0.6-0.9-1.6-1.5-2.6-1.8
								c-1.1-0.4-2.3-0.6-3.5-0.6c-2.4-0.1-4.9,0.4-7.3,1.2c-2.4,0.8-4.6,2-6.6,3.6c-1,0.8-1.9,1.6-2.7,2.6c-0.8,0.9-1.4,2-1.6,3.1
								l0,0.1c-0.1,0.5-0.6,0.9-1.1,0.8C174.2,240.2,173.9,240,173.8,239.6z"/>
						</g>
					</g>
				</g>
			</g>
		</g>
		<g class="st3">
			<g>
				<g>
					<g>
						
							<ellipse transform="matrix(0.9304 -0.3665 0.3665 0.9304 -73.2564 85.2176)" class="st1" cx="187.8" cy="235.6" rx="15" ry="7.3"/>
					</g>
				</g>
			</g>
		</g>
	</g>
</g>
</svg>
