<svg xmlns="http://www.w3.org/2000/svg" viewBox="0 0 101.47 101.27"><defs><style>.cls-1{fill:#f5f5f5;}.cls-2{fill:#cfd8dc;}.cls-3{fill:#ff9801;}.cls-4{fill:#f57c00;}.cls-5{fill:#607d8b;}.cls-6{fill:#333;}</style></defs><g id="Layer_2" data-name="Layer 2"><g id="Board_Game"><g id="_014---Astronaut" data-name="014---Astronaut"><g id="Icons"><path id="Shape" class="cls-1" d="M48.69,32a10.16,10.16,0,0,1-6.15,9.24l-.27.1H42l-7.08,2.48a6.48,6.48,0,0,0-5.07-1.69,6.59,6.59,0,0,0-5.69,5.19A16.39,16.39,0,0,1,5.57,36.15L3,28.28A18.58,18.58,0,0,1,14.31,4.75l6.21-2.17a17.85,17.85,0,0,1,21.56,8.55l-15.2,5.31a3.37,3.37,0,0,0-2.08,4.27l2.58,7.93A9.81,9.81,0,0,0,39.87,35l8.8-3Z"/><path id="Shape-2" data-name="Shape" class="cls-2" d="M37,11.13l-15.2,5.31a3.37,3.37,0,0,0-2.08,4.27l2.58,7.93a9.82,9.82,0,0,0,11.83,6.55,10,10,0,0,1-6.76-6.55l-2.63-8a3.38,3.38,0,0,1,2.07-4.27L42,11.07A17.93,17.93,0,0,0,23.75,1.79,18,18,0,0,1,37,11.13Z"/><path id="Shape-3" data-name="Shape" class="cls-2" d="M48.67,32,43.4,33.84a10.17,10.17,0,0,1-5.93,7.42l-.27.1h-.27l-3.84,1.33a6.94,6.94,0,0,1,1.83,1.14L42,41.36h.27l.27-.1A10.16,10.16,0,0,0,48.69,32Z"/><path id="Shape-4" data-name="Shape" class="cls-3" d="M48.69,32l-8.81,3a9.79,9.79,0,0,1-12.5-6.43l-2.63-8a3.38,3.38,0,0,1,2.07-4.27L42,11.07a17.74,17.74,0,0,1,1.35,3.1l4.78,14.47A10,10,0,0,1,48.69,32Z"/><path id="Shape-5" data-name="Shape" class="cls-4" d="M48.16,28.64l-4.73-14.4a17.51,17.51,0,0,0-1.35-3.11l-4.32,1.51a13.19,13.19,0,0,1,.6,1.69L43.1,28.64A10.21,10.21,0,0,1,43.62,32l-8.8,3-.63.19a9.6,9.6,0,0,0,5.69-.19l8.79-3a10.2,10.2,0,0,0-.51-3.38Z"/><path id="Shape-6" data-name="Shape" class="cls-5" d="M24.14,47.64a13.63,13.63,0,0,0-7.52,16.9c4.7,14.33,5.32,16.89,6.66,19l-.36.18-6.23,2.13a6.54,6.54,0,0,1-8.33-4.24L2.06,62.43a6.75,6.75,0,0,1,4.12-8.55Z"/><path id="Shape-7" data-name="Shape" class="cls-1" d="M85.27,83.46,69.69,88.85l-2.1-6.39a3.27,3.27,0,0,0-4.17-2.12L38.52,89a13,13,0,0,1-14.63-4.58,9,9,0,0,1-.63-.89c-1.28-2-2-4.67-6.66-19a13.62,13.62,0,0,1,7.52-16.9,6.91,6.91,0,0,0-.1,2L25.71,65.1a6.78,6.78,0,0,0,4.07,5.54l10.34,4.29,3.72,1.54a6.4,6.4,0,0,0,4.54.13,6.86,6.86,0,0,0,3.38-10.13h.17l12.45-4.33A11,11,0,0,1,66,61.7L68,68a6.53,6.53,0,0,0,8.33,4.23L81,70.54l.12.37,4,12.28Z"/><path id="Shape-8" data-name="Shape" class="cls-2" d="M85.22,83.31,81.18,71l-.12-.37L76.5,72.23l3.65,11.08,0,.15-11,3.82.53,1.57,15.58-5.39Z"/><path id="Shape-9" data-name="Shape" class="cls-5" d="M93.61,93,74.93,99.6a1.69,1.69,0,0,1-2.08-1.07l-3.16-9.59,15.58-5.39a6.5,6.5,0,0,1,8.31,4.22L94.64,91a1.67,1.67,0,0,1-1,2Z"/><path id="Shape-10" data-name="Shape" class="cls-1" d="M81.11,70.66l-4.68,1.68a6.51,6.51,0,0,1-8.33-4.22L66,61.75A13.09,13.09,0,0,1,81.11,70.66Z"/><path id="Shape-11" data-name="Shape" class="cls-1" d="M87.33,63.49,81.11,71v-.37A13.09,13.09,0,0,0,66,61.75a12.48,12.48,0,0,0-1.59.44L52,66.52l-.42-1.25,7.23-8.81a12.92,12.92,0,0,1,18.58-1.69Z"/><path id="Shape-12" data-name="Shape" class="cls-5" d="M99.31,67.23,86.62,82.7a1.68,1.68,0,0,1-1.4.59L81.11,71l6.15-7.54a6.47,6.47,0,0,1,9.27-.83l2.52,2.18A1.65,1.65,0,0,1,99.67,66a1.7,1.7,0,0,1-.36,1.25Z"/><path id="Shape-13" data-name="Shape" class="cls-1" d="M48.33,76.67a6.4,6.4,0,0,1-4.54-.14L40.07,75l5.85-12.12L48.7,64a6.5,6.5,0,0,1,3.08,2.59,6.88,6.88,0,0,1-3.45,10Z"/><path id="Shape-14" data-name="Shape" class="cls-1" d="M45.92,62.85,40.07,75,29.73,70.71a6.76,6.76,0,0,1-4.07-5.55L24,49.7a6.85,6.85,0,0,1,.1-2,.61.61,0,0,1,0-.19,6.61,6.61,0,0,1,5.69-5.19A6.49,6.49,0,0,1,34.83,44a6.76,6.76,0,0,1,2.35,4.26l1.15,11.2v.26Z"/><path id="Shape-15" data-name="Shape" class="cls-2" d="M38.3,59.71v-.26l-1.12-11.2a6.79,6.79,0,0,0-2.26-4.41,6.48,6.48,0,0,0-5.07-1.69,6.05,6.05,0,0,0-1.86.51,7,7,0,0,1,1.84,1.13,6.73,6.73,0,0,1,2.28,4.46l1.15,11.2v.26l7.62,3.14L35.81,73.22,40,74.91,45.88,62.8Z"/><path id="Shape-16" data-name="Shape" class="cls-1" d="M52,66.52h-.17a6.5,6.5,0,0,0-3.08-2.59l-2.78-1.15L38.3,59.64v-.25L37.18,48.25a6.79,6.79,0,0,0-2.26-4.41L42,41.38h.27l.27-.11,1-.33,3.16,9.66,4.84,14.73Z"/><path id="Shape-17" data-name="Shape" class="cls-5" d="M70.14,51.72a12.86,12.86,0,0,0-11.38,4.73l-7.23,8.8L46.69,50.6c1.69-.59,2.52-.34,7.51.14a1.69,1.69,0,0,0,1.68-2.07l-.6-2.7,12.8-3Z"/><path id="Shape-18" data-name="Shape" class="cls-1" d="M68.15,42.86l-12.81,3-.54-2.45a6.77,6.77,0,0,1,4.94-8,6.55,6.55,0,0,1,7.85,5.07Z"/></g><g id="Stroke"><path id="Shape-19" data-name="Shape" class="cls-6" d="M23.28,31.91a1.69,1.69,0,0,0-2.15-1l-1.55.54a1.62,1.62,0,0,1-1.24-.11,1.59,1.59,0,0,1-.77-1l-1.05-3.2a1.69,1.69,0,0,1,1-2.16l1.56-.54A1.69,1.69,0,0,0,18,21.25l-1.55.63a5.06,5.06,0,0,0-3.11,6.4l1,3.21a5.07,5.07,0,0,0,4.71,3.38,8.68,8.68,0,0,0,3.16-.81A1.69,1.69,0,0,0,23.28,31.91Z"/><path id="Shape-20" data-name="Shape" class="cls-6" d="M97.7,61.4a8.11,8.11,0,0,0-10.44-.19l-8.87-7.69a14.83,14.83,0,0,0-6.86-3.38L69.27,40a8.48,8.48,0,0,0-3.75-5.33,8.32,8.32,0,0,0-12.37,9.16c1.47,6.27-1.56-6.62,1.21,5.17-5.06-.47-5.37-.57-6.55-.42l-2.3-7.05a12,12,0,0,0,4.26-13.39c-5.07-15.63-5-15.38-6.07-17.52A19.49,19.49,0,0,0,20.05,1.05l-6.3,2.09A20.42,20.42,0,0,0,1.35,28.81L4,36.8A18.36,18.36,0,0,0,16.06,48.62L5.62,52.29A8.46,8.46,0,0,0,.45,63L6.77,82.14a8.21,8.21,0,0,0,10.49,5.31l5.43-1.88a14.8,14.8,0,0,0,11.65,5.8c3.23,0,2.3,0,29.64-9.43a1.55,1.55,0,0,1,1.23.1A1.57,1.57,0,0,1,66,83l5.25,16a3.38,3.38,0,0,0,4.24,2.13l18.59-6.47a3.36,3.36,0,0,0,2-1.66,3.41,3.41,0,0,0,.23-2.6c-1.2-3.65-1.93-7.26-6.66-8.63l11-13.52a3.38,3.38,0,0,0-.38-4.75ZM85,63.69,81.6,67.78a14.69,14.69,0,0,0-16.12-7.65C63,60.81,67,59.47,55,63.66l5.07-6.15a11.23,11.23,0,0,1,16.1-1.44Zm-6.17,6-3,1a4.86,4.86,0,0,1-6.19-3.19l-1.41-4.35A11.39,11.39,0,0,1,78.81,69.66ZM30.05,43.94a4.94,4.94,0,0,1,5.44,4.5l1.07,10.13L32.94,61A1.69,1.69,0,0,0,34.8,63.8l3.5-2.34,5.39,2.23-4.38,9.09-8.89-3.59A5.07,5.07,0,0,1,27.37,65L25.68,49.55A5.07,5.07,0,0,1,30.05,43.94Zm18.7,18.27-8.87-3.69c-1.16-11.06-1-11.67-2.17-13.78l4.76-1.69c3.24,9.92,1.88,5.86,6.28,19.16Zm-2,2.82,1.31.54a5.07,5.07,0,0,1,2.65,6.61A4.82,4.82,0,0,1,44.36,75l-2.06-.84ZM60.13,37a4.86,4.86,0,0,1,5.77,3.8l.19.82-9.46,2.24-.19-.79A5.07,5.07,0,0,1,60.13,37ZM54.08,52.29a3.38,3.38,0,0,0,3.58-4.11l-.31-1L66.88,45,68,50a14.45,14.45,0,0,0-10.57,5.35L52.18,61.8l-3.27-9.93c.57,0-.8-.1,5.17.42ZM46.56,29.16a9,9,0,0,1,.37,1.69l-7.6,2.64A8.12,8.12,0,0,1,29,28.2l-2.64-8a1.68,1.68,0,0,1,1-2.16l13.87-4.8c.52,1.2.37.88,5.32,15.93ZM7.19,35.75l-2.62-8A17,17,0,0,1,14.86,6.33l6.22-2.14a16.1,16.1,0,0,1,18.48,6.05L26.27,14.83a5.08,5.08,0,0,0-3.13,6.41l2.64,8a11.59,11.59,0,0,0,10.95,8.05c2.41,0,3.29-.48,9.81-2.74a8.28,8.28,0,0,1-5.07,5.3L35.2,42a8.1,8.1,0,0,0-12.28,3.92A14.78,14.78,0,0,1,7.19,35.75Zm8.94,48.51A4.82,4.82,0,0,1,10,81.1L3.66,61.9a5.07,5.07,0,0,1,3.11-6.42l9.82-3.38a15.56,15.56,0,0,0-1.54,13C20.4,81.5,20.29,81.33,20.88,82.7Zm46.73-5.51L38,87.38a11.28,11.28,0,0,1-12.72-4c-1.69-2.16-1.61-2.88-7-19.41A12,12,0,0,1,22.43,50.6L24,65.38A8.43,8.43,0,0,0,29,72.31c15.37,6.37,15,6.44,17.15,6.44a8.45,8.45,0,0,0,7.89-11.17l10.86-3.77,1.56,4.77a8.14,8.14,0,0,0,4.13,4.85,8.22,8.22,0,0,0,6.36.45l3.06-1.06,3.14,9.59L70.8,86.69l-1.52-4.77a5,5,0,0,0-6.42-3.17ZM92,88.23,93,91.42,74.45,97.91l-2.63-8,14-4.85A4.82,4.82,0,0,1,92,88.23Zm-5.79-7.57-3-9.28,5.57-6.76A4.76,4.76,0,0,1,95.57,64L98,66.14Z"/><path id="Shape-21" data-name="Shape" class="cls-6" d="M34.33,19.7a1.69,1.69,0,0,0-2.27.78l-1,2.14a1.69,1.69,0,0,0,3,1.47l1-2.21A1.69,1.69,0,0,0,34.33,19.7Z"/><path id="Shape-22" data-name="Shape" class="cls-6" d="M40,21.27a1.7,1.7,0,0,0-2.25.79L34.7,28.48A1.69,1.69,0,0,0,36.34,31a1.67,1.67,0,0,0,1.4-1.06l3.09-6.37a1.7,1.7,0,0,0-.79-2.3Z"/></g></g></g></g></svg>