<svg xmlns="http://www.w3.org/2000/svg" viewBox="0 0 100.77 100.77"><defs><style>.cls-1{fill:#d5ea79;}.cls-2{fill:#ff7b79;}.cls-3{fill:#333;}</style></defs><g id="Layer_2" data-name="Layer 2"><g id="Board_Game"><path class="cls-1" d="M94.51,42a4,4,0,0,0-3.58,4,.4.4,0,0,1-.4.4H86.7a3.16,3.16,0,0,1-3.09-2.56,33.69,33.69,0,0,0-5.13-12.4,3.15,3.15,0,0,1,.37-4l2.64-2.64a.5.5,0,0,1,.7,0,3.94,3.94,0,1,0,5.56-5.57L81.49,13a3.94,3.94,0,0,0-5.57,5.56.48.48,0,0,1,0,.7l-2.64,2.64a3.14,3.14,0,0,1-4,.37,33.69,33.69,0,0,0-12.4-5.13,3.16,3.16,0,0,1-2.56-3.09V10.33a.49.49,0,0,1,.49-.49,3.94,3.94,0,1,0,0-7.87H46a3.94,3.94,0,1,0,0,7.87.49.49,0,0,1,.49.49v3.74a3.16,3.16,0,0,1-2.56,3.09,33.69,33.69,0,0,0-12.4,5.13,3.14,3.14,0,0,1-4-.37l-2.64-2.64a.5.5,0,0,1,0-.7A3.94,3.94,0,0,0,19.28,13L13,19.28a3.94,3.94,0,0,0,5.56,5.57.5.5,0,0,1,.7,0l2.64,2.64a3.14,3.14,0,0,1,.37,4,33.69,33.69,0,0,0-5.13,12.4,3.16,3.16,0,0,1-3.09,2.56H10.23a.4.4,0,0,1-.39-.39A4,4,0,0,0,6,42,3.94,3.94,0,0,0,2,46v8.76a4,4,0,0,0,3.79,4,3.94,3.94,0,0,0,4.08-3.94.49.49,0,0,1,.49-.49h3.74a3.16,3.16,0,0,1,3.09,2.56,33.69,33.69,0,0,0,5.13,12.4,3.14,3.14,0,0,1-.37,4L19.22,76a.42.42,0,0,1-.57,0l-.07-.07A3.94,3.94,0,0,0,13,81.49l6.26,6.26a3.94,3.94,0,0,0,5.81-.26,4,4,0,0,0-.31-5.37.42.42,0,0,1,0-.57l2.71-2.7a3.15,3.15,0,0,1,4-.37,33.69,33.69,0,0,0,12.4,5.13,3.16,3.16,0,0,1,2.56,3.09v3.74a.49.49,0,0,1-.49.49,3.94,3.94,0,1,0,0,7.87h8.85a3.94,3.94,0,1,0,0-7.87.49.49,0,0,1-.49-.49V86.7a3.16,3.16,0,0,1,2.56-3.09,33.69,33.69,0,0,0,12.4-5.13,3.15,3.15,0,0,1,4,.37L76,81.55a.42.42,0,0,1,0,.57,4,4,0,0,0-.31,5.37,3.94,3.94,0,0,0,5.81.26l6.26-6.26a3.94,3.94,0,0,0-5.56-5.57l-.07.07a.42.42,0,0,1-.57,0l-2.7-2.71a3.15,3.15,0,0,1-.37-4,33.69,33.69,0,0,0,5.13-12.4,3.16,3.16,0,0,1,3.09-2.56h3.83a.4.4,0,0,1,.4.4,4,4,0,0,0,3.58,4,3.93,3.93,0,0,0,4.29-3.92V46A3.93,3.93,0,0,0,94.51,42Z"/><circle class="cls-2" cx="42.78" cy="33.83" r="6.3"/><circle class="cls-2" cx="37.2" cy="62.88" r="5.18"/><circle class="cls-2" cx="64.12" cy="55.92" r="10.19"/><path class="cls-3" d="M54.81,100.77H46a5.9,5.9,0,0,1-1.48-11.62V86.7a1.2,1.2,0,0,0-1-1.16,35.36,35.36,0,0,1-13.12-5.43,1.19,1.19,0,0,0-1.51.13L27.14,82a5.89,5.89,0,0,1-9.25,7.16l-6.26-6.26A5.91,5.91,0,0,1,15.8,72.8a5.9,5.9,0,0,1,3,.82l1.73-1.73a1.19,1.19,0,0,0,.13-1.51,35.36,35.36,0,0,1-5.43-13.12,1.2,1.2,0,0,0-1.16-1H11.62A5.76,5.76,0,0,1,10,59.06a5.8,5.8,0,0,1-4.31,1.65,5.92,5.92,0,0,1-5.69-6V46a5.89,5.89,0,0,1,6.11-5.9,6,6,0,0,1,5.49,4.42h2.47a1.2,1.2,0,0,0,1.16-1,35.36,35.36,0,0,1,5.43-13.12,1.19,1.19,0,0,0-.13-1.51L18.8,27.15a5.9,5.9,0,0,1-7.17-9.26l6.26-6.26a5.9,5.9,0,0,1,9.26,7.17l1.73,1.73a1.19,1.19,0,0,0,1.51.13,35.36,35.36,0,0,1,13.12-5.43,1.2,1.2,0,0,0,1-1.16V11.62A5.9,5.9,0,0,1,46,0h8.85a5.9,5.9,0,0,1,1.48,11.62v2.45a1.2,1.2,0,0,0,1,1.16,35.36,35.36,0,0,1,13.12,5.43,1.19,1.19,0,0,0,1.51-.13l1.73-1.73a5.9,5.9,0,0,1,9.26-7.17l6.26,6.26A5.9,5.9,0,0,1,82,27.15l-1.73,1.73a1.19,1.19,0,0,0-.13,1.51,35.36,35.36,0,0,1,5.43,13.12,1.2,1.2,0,0,0,1.16,1h2.47a6,6,0,0,1,5.17-4.4h0A5.9,5.9,0,0,1,100.77,46v8.85a5.89,5.89,0,0,1-11.6,1.48H86.7a1.2,1.2,0,0,0-1.16,1,35.36,35.36,0,0,1-5.43,13.12,1.19,1.19,0,0,0,.13,1.51L82,73.62a5.9,5.9,0,0,1,8.9,5.09,5.84,5.84,0,0,1-1.73,4.17l-6.26,6.26a5.9,5.9,0,0,1-8.71-.39A6,6,0,0,1,73.63,82l-1.74-1.74a1.19,1.19,0,0,0-1.51-.13,35.36,35.36,0,0,1-13.12,5.43,1.2,1.2,0,0,0-1,1.16v2.45a5.9,5.9,0,0,1-1.48,11.62ZM29.71,76a5.06,5.06,0,0,1,2.88.88,31.51,31.51,0,0,0,11.67,4.83,5.14,5.14,0,0,1,4.16,5v3.74A2.47,2.47,0,0,1,46,92.9a2,2,0,1,0,0,3.93h8.85a2,2,0,1,0,0-3.93,2.47,2.47,0,0,1-2.46-2.46V86.7a5.14,5.14,0,0,1,4.16-5,31.51,31.51,0,0,0,11.67-4.83,5.13,5.13,0,0,1,6.49.6l2.71,2.71a2.38,2.38,0,0,1,0,3.35,2,2,0,0,0-.19,2.72,2,2,0,0,0,1.43.71,2,2,0,0,0,1.48-.58l6.26-6.26a2,2,0,0,0-2.78-2.78l-.07.06a2.38,2.38,0,0,1-3.35,0l-2.71-2.71a5.13,5.13,0,0,1-.6-6.49,31.51,31.51,0,0,0,4.83-11.67,5.14,5.14,0,0,1,5-4.16h3.83a2.38,2.38,0,0,1,2.37,2.37,2,2,0,0,0,1.78,2.05,2,2,0,0,0,1.51-.5,1.94,1.94,0,0,0,.64-1.46V46a1.94,1.94,0,0,0-.64-1.46,2,2,0,0,0-1.51-.5,2,2,0,0,0-1.78,2,2.38,2.38,0,0,1-2.37,2.37H86.7a5.14,5.14,0,0,1-5-4.16,31.51,31.51,0,0,0-4.83-11.67,5.13,5.13,0,0,1,.6-6.49l2.65-2.64a2.46,2.46,0,0,1,3.48,0,2,2,0,0,0,2.78-2.79L80.1,14.41a2,2,0,0,0-2.78,2.78,2.48,2.48,0,0,1,0,3.48l-2.65,2.65a5.14,5.14,0,0,1-6.49.61,31.53,31.53,0,0,0-11.67-4.84,5.14,5.14,0,0,1-4.16-5V10.33a2.47,2.47,0,0,1,2.46-2.46,2,2,0,1,0,0-3.93H46a2,2,0,1,0,0,3.93,2.47,2.47,0,0,1,2.46,2.46v3.74a5.14,5.14,0,0,1-4.16,5,31.68,31.68,0,0,0-11.67,4.83,5.13,5.13,0,0,1-6.49-.6l-2.64-2.65a2.46,2.46,0,0,1,0-3.48,2,2,0,0,0-2.79-2.78l-6.26,6.26A2,2,0,0,0,15.8,24a1.94,1.94,0,0,0,1.39-.57,2.46,2.46,0,0,1,3.48,0l2.65,2.64a5.13,5.13,0,0,1,.6,6.49,31.51,31.51,0,0,0-4.83,11.67,5.14,5.14,0,0,1-5,4.16H10.23a2.36,2.36,0,0,1-2.36-2.36A2,2,0,0,0,6,44a2,2,0,0,0-2,2v8.76a2,2,0,0,0,1.89,2.06,2,2,0,0,0,1.44-.55,1.94,1.94,0,0,0,.6-1.42,2.47,2.47,0,0,1,2.46-2.46h3.74a5.14,5.14,0,0,1,5,4.16,31.68,31.68,0,0,0,4.83,11.67,5.13,5.13,0,0,1-.6,6.49l-2.71,2.71a2.38,2.38,0,0,1-3.35,0l-.07-.06a2,2,0,0,0-2.78,0,2,2,0,0,0,0,2.78l6.26,6.26a2,2,0,0,0,2.91-.14,2,2,0,0,0-.19-2.71,2.38,2.38,0,0,1,0-3.35l2.71-2.71A5.09,5.09,0,0,1,29.71,76Z"/><path class="cls-3" d="M42.78,42.09a8.27,8.27,0,1,1,8.27-8.26A8.26,8.26,0,0,1,42.78,42.09Zm0-12.59a4.33,4.33,0,1,0,4.33,4.33A4.34,4.34,0,0,0,42.78,29.5Z"/><path class="cls-3" d="M37.2,70a7.15,7.15,0,1,1,7.15-7.15A7.16,7.16,0,0,1,37.2,70Zm0-10.37a3.22,3.22,0,1,0,3.21,3.22A3.23,3.23,0,0,0,37.2,59.66Z"/><path class="cls-3" d="M64.13,68.07A12.14,12.14,0,0,1,52.06,57.34,2,2,0,1,1,56,56.88,8.22,8.22,0,1,0,65,47.75a2,2,0,1,1,.44-3.92,12.16,12.16,0,0,1-1.35,24.24Z"/><path class="cls-3" d="M61.6,35.8a2,2,0,1,1,1.4-.58A2,2,0,0,1,61.6,35.8Z"/><path d="M50.39,75.77a1.95,1.95,0,0,1-2-2,2,2,0,1,1,3.93,0,1.95,1.95,0,0,1-2,2Z"/><path class="cls-3" d="M28.28,52.38a2,2,0,0,1,0-3.94,2,2,0,0,1,0,3.94Z"/><path class="cls-3" d="M56.9,50.7a1.95,1.95,0,1,1,1.4-.57A2,2,0,0,1,56.9,50.7Z"/></g></g></svg>