<?xml version="1.0" encoding="utf-8"?>
<!-- Generator: Adobe Illustrator 24.2.3, SVG Export Plug-In . SVG Version: 6.00 Build 0)  -->
<svg version="1.1" id="Layer_1" xmlns="http://www.w3.org/2000/svg" xmlns:xlink="http://www.w3.org/1999/xlink" x="0px" y="0px"
	 viewBox="0 0 512 512" style="enable-background:new 0 0 512 512;" xml:space="preserve">
<style type="text/css">
	.st0{fill:#E8F8FC;}
	.st1{fill:#D6F4FC;}
	.st2{fill:#42434D;}
	.st3{fill:#F1FAFC;}
	.st4{fill:#75F6FC;}
	.st5{fill:#BBFBFF;}
	.st6{fill:#4D4E59;}
	.st7{fill:#333333;}
</style>
<g>
	<path class="st0" d="M405.7,275.8V372l-51.8-68.7l-6.2,19c-1.5,4.7-5.9,7.7-10.7,7.7H175.2c-4.8,0-9.2-3.2-10.7-7.7l-6.2-19
		L106.4,372v-96.3l52.9-21c0.7-2.6,22.2-80.9,39.9-145.9c1.3-4.9,5.8-8.3,10.9-8.3H302c5.1,0,9.5,3.4,10.9,8.3
		c4.3,15.7,17.3,63.3,39.9,145.9L405.7,275.8z"/>
	<path class="st1" d="M405.7,275.8V372l-51.8-68.7l6.6-20.1l-7.7-28.4L405.7,275.8z"/>
	<path class="st1" d="M159.3,254.8l-7.7,28.4l6.6,20.1L106.4,372v-96.3L159.3,254.8z"/>
	<path class="st2" d="M151.6,283.2c8,24.3,5,15.4,13,39.1c1.5,4.7,5.9,7.7,10.7,7.7h161.7c4.8,0,9.2-3.2,10.7-7.7
		c7.9-24,4.9-14.9,13-39.1C351.4,283.2,160.7,283.2,151.6,283.2z"/>
	<path class="st3" d="M312.8,109c1.5,5.5-2.6,11-8.4,11h-64.3c-5.1,0-9.5,3.4-10.9,8.3c-3.9,14.2-40,146-42.4,155h-35.2
		c8.2-30.1,34.3-125.4,47.7-174.3c1.3-4.9,5.8-8.3,10.9-8.3H302C307,100.7,311.5,104.1,312.8,109L312.8,109z"/>
	<circle class="st4" cx="256" cy="195.2" r="26.1"/>
	<path class="st5" d="M266.3,185.9c-9.6,2.2-17.3,10-19.7,19.6c-1.6,6.7-10.6,7.8-13.8,1.7c-11.6-22.5,12.7-46.8,35.2-35.1
		C274.2,175.2,273,184.3,266.3,185.9z"/>
	<path class="st6" d="M194.2,330.3h-19.1c-4.8,0-9.2-3.2-10.7-7.7c-7.8-23.6-5-15.2-13-39.1h35c8,24.2,5.1,15.4,13,39.1
		C201,326.7,198,330.3,194.2,330.3L194.2,330.3z"/>
	<path class="st7" d="M256,232.7c20.6,0,37.4-16.8,37.4-37.4s-16.8-37.4-37.4-37.4s-37.4,16.8-37.4,37.4S235.4,232.7,256,232.7z
		 M256,180.4c8.2,0,14.8,6.6,14.8,14.8S264.2,210,256,210s-14.8-6.6-14.8-14.8C241.2,187.1,247.8,180.4,256,180.4z M419.8,400H417
		V275.8c0-4.7-2.8-8.8-7.2-10.5l-47.7-18.8c-1.9-6.7-39.1-143.2-40.7-148.7c-1.3-4.9-5.8-8.3-10.9-8.3H201.4
		c-5.1,0-9.5,3.4-10.9,8.3c-1.5,5.4-38.9,142-40.7,148.7l-47.5,18.8c-4.3,1.7-7.2,5.9-7.2,10.5V400h-2.8C86,400,81,405,81,411.3
		s5,11.3,11.3,11.3h50.8c6.2,0,11.3-5,11.3-11.3s-5-11.3-11.3-11.3h-25.4v-24.2l36.5-48.5l2.1,6.3c1.5,4.7,5.9,7.7,10.7,7.7h77.7
		V400H232c-6.2,0-11.3,5-11.3,11.3s5,11.3,11.3,11.3h48c6.2,0,11.3-5,11.3-11.3s-5-11.3-11.3-11.3h-12.7v-58.6h77.7
		c4.8,0,9.2-3.2,10.7-7.7l2.1-6.3l36.5,48.5V400h-25.4c-6.2,0-11.3,5-11.3,11.3s5,11.3,11.3,11.3h50.8c6.2,0,11.3-5,11.3-11.3
		C431.2,405.1,426.1,400,419.8,400L419.8,400z M210.1,112h91.8l10.7,39.1h-1.5c-6.2,0-11.3,5-11.3,11.3s5,11.3,11.3,11.3h7.7
		l11.9,43.5h-15.4c-6.2,0-11.3,5-11.3,11.3c0,6.2,5,11.3,11.3,11.3h21.5l8.9,32.2h-78.4v-17.3c0-6.2-5-11.3-11.3-11.3
		c-6.2,0-11.3,5-11.3,11.3v17.3h-78.4l8.9-32.2h21.5c6.2,0,11.3-5,11.3-11.3c0-6.2-5-11.3-11.3-11.3h-15.4l11.9-43.5h7.7
		c6.2,0,11.3-5,11.3-11.3s-5-11.3-11.3-11.3h-1.5L210.1,112z M117.6,338.3v-54.9l24.8-9.8c-3.3,12-3.4,7.7,3.2,27.7L117.6,338.3z
		 M175.2,318.8c-3-8.9-6.6-20.1-8-24.3h77.5v24.3H175.2z M267.3,318.8v-24.3h77.5c-1.4,4.1-5,15.4-8,24.3H267.3z M366.5,301.3
		c6.5-19.8,6.5-15.5,3.2-27.7l24.8,9.8v54.9L366.5,301.3z"/>
</g>
</svg>
