<?xml version="1.0" encoding="utf-8"?>
<!-- Generator: Adobe Illustrator 24.2.3, SVG Export Plug-In . SVG Version: 6.00 Build 0)  -->
<svg version="1.1" id="Layer_1" xmlns="http://www.w3.org/2000/svg" xmlns:xlink="http://www.w3.org/1999/xlink" x="0px" y="0px"
	 viewBox="0 0 500 500" style="enable-background:new 0 0 500 500;" xml:space="preserve">
<style type="text/css">
	.st0{fill:#AAAAAA;}
	.st1{fill:#C1C1C1;}
	.st2{fill:#D6D6D6;}
	.st3{opacity:0.54;}
	.st4{fill:#FFFFFF;}
	.st5{fill:#C9C9C9;}
	.st6{fill:#EAEAEA;}
	.st7{fill:#E2E2E2;}
	.st8{fill:#DDDDDD;}
	.st9{opacity:0.66;}
	.st10{fill:#747D79;}
	.st11{fill:#8B8C8B;}
	.st12{fill:#B6C2BA;}
	.st13{fill:#545C59;}
	.st14{fill:#BBBDBF;}
	.st15{fill:#E2E3E4;}
</style>
<g>
	<rect x="246.7" y="119.4" class="st0" width="8.9" height="106.4"/>
	<rect x="234.7" y="149.5" class="st1" width="33.5" height="3.6"/>
	<rect x="234.7" y="164.4" class="st1" width="33.5" height="3.6"/>
	<path class="st1" d="M231,145.6c-2.9,0-5.1,1.5-5.1,3.4h-0.1v20.2h0.1c0,1.9,2.3,3.4,5.1,3.4s5.1-1.5,5.1-3.4V149
		C236.1,147.1,233.8,145.6,231,145.6z"/>
	<path class="st2" d="M238.2,145.6c-3.4,0-6.2,1.5-6.2,3.4h-0.1v20.2h0.1c0,1.9,2.8,3.4,6.2,3.4s6.2-1.5,6.2-3.4V149
		C244.4,147.1,241.7,145.6,238.2,145.6z"/>
	<path class="st1" d="M272.2,146c2.9,0,5.1,1.5,5.1,3.4h0.1v20.2h-0.1c0,1.9-2.3,3.4-5.1,3.4s-5.1-1.5-5.1-3.4v-20.1
		C267.1,147.6,269.4,146,272.2,146z"/>
	<path class="st2" d="M265,146c3.4,0,6.2,1.5,6.2,3.4h0.1v20.2h-0.1c0,1.9-2.8,3.4-6.2,3.4s-6.2-1.5-6.2-3.4v-20.1
		C258.8,147.6,261.6,146,265,146z"/>
	<g class="st3">
		<path class="st4" d="M233.7,151.1c0.3,5.2,0.3,10.4,0.1,15.6c0,0.9,0.1,2,1.2,2.3c0.8,0.2,1.6-0.2,2.1-0.8c0.3-0.6,0.5-1.3,0.4-2
			c0-4.2,0-8.5,0-12.7c0-1.2,0.7-4.2-1.2-4.9C234.1,147.8,233.6,150,233.7,151.1z"/>
	</g>
	<g class="st3">
		<path class="st4" d="M261,164.1c0,1.3,0,2.6,0.1,3.8c0,0.3,0.2,0.7,0.5,0.9c0.4,0.2,0.9,0,1.2-0.3c0.2-0.3,0.3-0.6,0.3-1
			c0.3-4.8,0.6-9.6,0.9-14.3c0.1-1.1,0.6-3.7-1.3-4.1c-2.3-0.4-1.7,2.5-1.7,3.5C261,156.4,261,160.2,261,164.1z"/>
	</g>
	<g class="st3">
		<path class="st4" d="M227,149.4c-0.1,0.4-0.1,0.9,0.1,1.3c0.8,2.4,1.1,5,1,7.6c-0.1,3.2-0.9,6.4-0.7,9.6c0,0.3,0.2,0.7,0.6,0.8
			c0.3,0,0.6-0.2,0.7-0.5c0.6-1.3,1-2.8,1-4.2c0.3-4.6,0.2-9.3-0.4-13.9C229.2,148.9,227.5,148,227,149.4z"/>
	</g>
	<rect x="218.1" y="223.6" class="st1" width="65.7" height="5.2"/>
	<rect x="218.1" y="209.7" class="st1" width="65.7" height="1.5"/>
	<rect x="218.1" y="214.4" class="st1" width="65.7" height="0.7"/>
	<rect x="218.1" y="209.7" class="st1" width="1.2" height="19.1"/>
	<rect x="228.2" y="209.7" class="st1" width="1.2" height="19.1"/>
	<rect x="240.5" y="209.7" class="st1" width="1.2" height="19.1"/>
	<rect x="250.3" y="209.7" class="st1" width="1.2" height="19.1"/>
	<rect x="260.7" y="209.7" class="st1" width="1.2" height="19.1"/>
	<rect x="271.2" y="209.7" class="st1" width="1.2" height="19.1"/>
	<rect x="282.6" y="209.7" class="st1" width="1.2" height="19.1"/>
	<rect x="249.3" y="226.6" class="st1" width="4.7" height="178.9"/>
	<path class="st1" d="M180.7,406.6h-0.3c-0.8-0.1-1.3-0.7-1.2-1.4c0.1-0.5,10.7-44.6,21.3-88.2c6.2-25.6,11.1-46.1,14.7-60.7
		c2.1-8.7,3.8-15.5,4.9-20.1c2-8,2-8,2.4-8.3c0.6-0.5,1.5-0.5,2.1,0c0.4,0.3,0.5,0.8,0.4,1.2c-1,3.3-28.4,116.8-42.8,176.5
		C181.9,406.3,181.3,406.7,180.7,406.6z M224.6,229.6L224.6,229.6z"/>
	<path class="st1" d="M199.1,406.6c-0.7,0.1-1.4-0.4-1.5-1.2c0-0.9,26.1-135.6,34-176.9c0.2-0.7,1-1.1,1.7-1
		c0.8,0.1,1.4,0.7,1.2,1.3c-0.3,1.7-33.6,173.6-34,176.6C200.4,406.2,199.8,406.7,199.1,406.6z M200.6,405.5L200.6,405.5z"/>
	<path class="st1" d="M200,401.6c-0.2,0-0.4-0.1-0.6-0.2l-14-17.5c-0.1-0.1-0.1-0.3-0.1-0.4c0.1-0.2,0.2-0.3,0.3-0.3l18.5-8.5
		L192.5,354c-0.1-0.2,0-0.5,0.2-0.6c0,0,0,0,0.1,0l17-7.8l-10.2-20.8c-0.1-0.2,0-0.5,0.2-0.6c0,0,0,0,0,0l15.4-7.2l-9.1-19.6
		c-0.1-0.2,0-0.5,0.3-0.6c0,0,0,0,0,0l14-6.9l-9.1-13.7c-0.1-0.2-0.1-0.5,0.1-0.6c0,0,0,0,0,0l13.7-9.5l-7.5-16
		c-0.1-0.1,0-0.3,0.1-0.4c0.1-0.1,0.3-0.2,0.5-0.3l10.4-1.7l-6.8-14.2c-0.1-0.3,0-0.5,0.3-0.6c0,0,0.1,0,0.1,0l12.5-4.4
		c0.3-0.1,0.7,0,0.9,0.3c0.1,0.2,0,0.5-0.2,0.7c0,0-0.1,0-0.1,0l-11.9,4.2l6.9,14.3c0.1,0.1,0.1,0.3,0,0.4c-0.1,0.1-0.3,0.2-0.5,0.3
		l-10.4,1.7l7.4,15.7c0.1,0.2,0,0.5-0.2,0.6l-13.6,9.5l9.1,13.8c0.1,0.2,0.1,0.5-0.2,0.7c0,0-0.1,0-0.1,0l-14.1,7l9.1,19.6
		c0.1,0.2,0,0.5-0.3,0.6c0,0,0,0,0,0l-15.5,7.1l10.2,20.8c0.1,0.2,0,0.5-0.3,0.6c0,0,0,0,0,0L194,354l11.6,20.6
		c0.1,0.2,0,0.5-0.2,0.6c0,0-0.1,0-0.1,0l-18.4,8.5l13.6,17c0.2,0.2,0.1,0.5-0.1,0.7c0,0-0.1,0.1-0.1,0.1
		C200.2,401.5,200.1,401.6,200,401.6z"/>
	<path class="st1" d="M321.7,406.6c-0.6,0.1-1.3-0.3-1.5-1c-14.4-59.8-41.7-173.2-42.8-176.5c-0.2-0.4,0-0.9,0.4-1.2
		c0.6-0.5,1.5-0.5,2.1,0c0.4,0.3,0.4,0.3,2.4,8.3c1.1,4.6,2.8,11.4,4.9,20.1c3.6,14.7,8.5,35.1,14.7,60.7
		c10.5,43.6,21.1,87.8,21.3,88.2c0.1,0.6-0.4,1.2-1.2,1.4L321.7,406.6z M277.7,229.6L277.7,229.6z M277.7,229.6L277.7,229.6z"/>
	<path class="st1" d="M303.2,406.6c-0.7,0.1-1.3-0.4-1.5-1.1c-0.4-3-33.7-174.9-34-176.6c-0.1-0.6,0.4-1.2,1.3-1.3
		c0.7-0.1,1.5,0.3,1.7,1c8,41.3,34,176,34,176.9C304.5,406.2,303.9,406.7,303.2,406.6z M301.7,405.5
		C301.7,405.5,301.7,405.5,301.7,405.5C301.7,405.5,301.7,405.5,301.7,405.5z"/>
	<path class="st1" d="M302.4,401.6c-0.1,0-0.3,0-0.4-0.1c-0.2-0.1-0.4-0.4-0.3-0.6c0,0,0-0.1,0.1-0.1l13.6-17l-18.4-8.5
		c-0.3-0.1-0.4-0.4-0.3-0.6c0,0,0-0.1,0-0.1l11.6-20.6l-16.9-7.8c-0.3-0.1-0.4-0.4-0.3-0.6c0,0,0,0,0,0l10.2-20.8l-15.4-7.2
		c-0.3-0.1-0.4-0.3-0.3-0.6c0,0,0,0,0,0l9.1-19.6l-14.1-7c-0.2-0.1-0.4-0.4-0.3-0.6c0,0,0-0.1,0-0.1l9.1-13.8l-13.6-9.5
		c-0.2-0.1-0.3-0.4-0.2-0.6l7.4-15.7l-10.4-1.7c-0.2,0-0.4-0.1-0.5-0.3c-0.1-0.1-0.1-0.3,0-0.4l6.9-14.3l-11.9-4.2
		c-0.3-0.1-0.4-0.3-0.4-0.6c0,0,0-0.1,0-0.1c0.2-0.3,0.6-0.4,0.9-0.3l12.5,4.4c0.3,0.1,0.4,0.3,0.4,0.6c0,0,0,0.1,0,0.1l-6.8,14.2
		l10.4,1.7c0.2,0,0.4,0.1,0.5,0.3c0.1,0.1,0.1,0.3,0,0.4l-7.5,16l13.7,9.5c0.2,0.1,0.3,0.4,0.2,0.6c0,0,0,0,0,0l-9.1,13.7l14,6.9
		c0.2,0.1,0.4,0.4,0.3,0.6c0,0,0,0,0,0l-9.1,19.6l15.4,7.2c0.3,0.1,0.4,0.4,0.3,0.6c0,0,0,0,0,0l-10.2,20.8l17,7.8
		c0.3,0.1,0.4,0.4,0.3,0.6c0,0,0,0,0,0.1l-11.6,20.6l18.5,8.5c0.1,0.1,0.3,0.2,0.3,0.3c0.1,0.1,0,0.3-0.1,0.4l-14,17.5
		C302.8,401.5,302.6,401.6,302.4,401.6z"/>
	<rect x="238.7" y="123.1" class="st1" width="26.2" height="3.4"/>
	<path class="st5" d="M282.5,140.5c0,0-5.7,0.6-9.8-1.5s-9.1-6.5-10.4-12.1s-1.5-8.8,1.2-13.7c3.8-6.8,9.7-6.8,9.7-6.8L282.5,140.5z
		"/>
	<path class="st6" d="M266.6,125.5c2.8,9.4,10.3,16,16.7,14.9s9.3-9.7,6.5-19.1s-10.3-16-16.7-14.9S263.9,116.1,266.6,125.5z"/>
	<path class="st7" d="M268.8,125.3c2.6,8.6,9.1,14.8,14.5,13.9s7.7-8.8,5.1-17.4s-9.1-14.8-14.5-13.9S266.2,116.6,268.8,125.3z"/>
	<path class="st8" d="M269,125.2c-1.8-5.9-1.2-11.4,1-14.6c3.8,2.2,7.3,6.9,9,12.7c1.7,5.8,1.2,11.4-1,14.6
		C274.2,135.7,270.7,131,269,125.2z"/>
	<g class="st9">
		<path class="st4" d="M279.5,111.5c-0.4,0.9-1.1,1.6-1.9,2.2c-1.7,1.5-3,3.4-3.6,5.6c-0.2,0.6-0.4,1.4-1.2,1.6
			c-0.8,0.1-1.5-0.3-1.8-1c-0.3-0.9-0.3-1.9,0-2.9c0.6-2.4,1.3-5,3.6-6.7C276.3,108.9,280.3,109.1,279.5,111.5z"/>
	</g>
	<path class="st5" d="M220.3,142.8c0,0,5.7,0.6,9.8-1.5s9.1-6.5,10.4-12.1s1.5-8.8-1.2-13.7c-3.8-6.8-9.7-6.8-9.7-6.8L220.3,142.8z"
		/>
	<path class="st6" d="M236.1,127.8c-2.8,9.4-10.3,16-16.7,14.9s-9.3-9.7-6.5-19.1s10.3-16,16.7-14.9S239,118.4,236.1,127.8z"/>
	<path class="st7" d="M234,127.5c-2.6,8.6-9.1,14.8-14.5,13.8s-7.7-8.8-5.1-17.4s9.1-14.8,14.5-13.9S236.6,118.9,234,127.5z"/>
	<path class="st8" d="M233.8,127.4c1.8-5.9,1.2-11.4-1-14.6c-3.8,2.2-7.3,6.9-9,12.7c-1.7,5.8-1.2,11.4,1,14.6
		C228.6,137.9,232.1,133.2,233.8,127.4z"/>
	<g class="st9">
		<path class="st4" d="M223.3,113.8c0.4,0.9,1.1,1.6,1.9,2.1c1.7,1.5,3,3.4,3.6,5.6c0.2,0.6,0.4,1.4,1.2,1.6c0.8,0.1,1.5-0.3,1.8-1
			c0.3-0.9,0.3-1.9,0-2.9c-0.6-2.4-1.3-5-3.6-6.7C226.5,111.1,222.5,111.3,223.3,113.8z"/>
	</g>
	<path class="st1" d="M250.3,398.8c-0.4,0-1,0-1.7-0.1c-1.3-0.1-3.2-0.3-5.6-0.6c-4.1-0.5-9.7-1.3-16.8-2.3
		c-12-1.7-24.1-3.6-24.3-3.6c-0.4-0.1-0.6-0.3-0.5-0.6c0.1-0.3,0.5-0.5,0.8-0.4c17.6,2.7,44.1,6.6,48,6.6h0.1
		c0.3-1.9,0.5-3.8,0.6-5.6l-47.5-9.4c-0.4-0.1-0.6-0.3-0.5-0.6l3.2-16.5c0-0.1,0.1-0.3,0.3-0.4c0.2-0.1,0.3-0.1,0.5-0.1l43.4,5v-7.3
		l-41.8-6.3c-0.3,0-0.6-0.3-0.6-0.6c0,0,0,0,0,0l3.8-19.5c0-0.2,0.1-0.3,0.3-0.4c0.2-0.1,0.3-0.1,0.5-0.1l37.8,4.4V333l-36.4-4.1
		c-0.2,0-0.3-0.1-0.4-0.2c-0.1-0.1-0.2-0.3-0.1-0.4l2.6-13.5c0.1-0.3,0.4-0.5,0.7-0.5l34.4,2.2v-5.9l-33-3.3c-0.2,0-0.3-0.1-0.5-0.2
		c-0.1-0.1-0.2-0.3-0.1-0.4l3.3-16.9c0.1-0.3,0.4-0.5,0.7-0.5l29.5,1.4l-0.6-6.7l-27.4-2.2c-0.2,0-0.3-0.1-0.5-0.2
		c-0.1-0.1-0.2-0.3-0.1-0.4l2.6-13.7c0.1-0.3,0.4-0.5,0.7-0.5l24.5,1.5l-0.1-7.6l-22.8-1.6c-0.2,0-0.3-0.1-0.5-0.2
		c-0.1-0.1-0.2-0.2-0.1-0.4l1.8-13.8c0.1-0.3,0.4-0.5,0.7-0.5l21,1.4l0.6-6.4l-19.5-1.2c-0.4,0-0.7-0.3-0.6-0.6
		c0.1-0.3,0.4-0.5,0.7-0.5l20.2,1.3c0.4,0,0.7,0.3,0.6,0.6l-0.7,7.5c0,0.2-0.1,0.3-0.2,0.4c-0.2,0.1-0.3,0.1-0.5,0.1l-21-1.4
		l-1.7,12.7l22.8,1.6c0.3,0,0.6,0.2,0.6,0.5l0.1,8.6c0,0.2-0.1,0.3-0.2,0.4c-0.2,0.1-0.3,0.2-0.5,0.1l-24.6-1.5l-2.4,12.7L251,283
		c0.3,0,0.6,0.2,0.6,0.5l0.7,7.8c0,0.2-0.1,0.3-0.2,0.4c-0.2,0.1-0.3,0.2-0.5,0.1l-29.6-1.4l-3.1,15.9l32.9,3.3
		c0.3,0,0.6,0.2,0.6,0.5v6.9c0,0.2-0.1,0.3-0.2,0.4c-0.2,0.1-0.3,0.2-0.5,0.1l-34.5-2.2l-2.4,12.5l36.3,4.1c0.3,0,0.6,0.2,0.6,0.5
		l-0.1,8.5c0,0.2-0.1,0.3-0.2,0.4c-0.2,0.1-0.4,0.1-0.6,0.1l-37.9-4.4l-3.6,18.5L251,362c0.3,0,0.5,0.2,0.6,0.5v8.3
		c0,0.2-0.1,0.3-0.2,0.4c-0.2,0.1-0.4,0.2-0.6,0.1l-43.5-5.1l-3,15.5l47.5,9.4c0.3,0,0.5,0.3,0.5,0.5c0,0.6-0.3,5.6-0.7,6.6
		C251.4,398.7,251.1,398.8,250.3,398.8z"/>
	<path class="st1" d="M252.9,398.8c-0.8,0-1.1-0.1-1.3-0.5c-0.5-1-0.7-6.1-0.7-6.6c0-0.3,0.2-0.5,0.5-0.5l47.5-9.4l-3-15.5l-43.5,5
		c-0.2,0-0.4,0-0.6-0.1c-0.1-0.1-0.2-0.2-0.2-0.4v-8.3c0-0.3,0.3-0.5,0.6-0.5l41.7-6.3l-3.6-18.5l-37.9,4.4c-0.2,0-0.4,0-0.6-0.1
		c-0.1-0.1-0.2-0.2-0.2-0.4v-8.5c0-0.3,0.3-0.5,0.6-0.5l36.3-4.1l-2.4-12.5l-34.5,2.2c-0.2,0-0.4,0-0.5-0.1
		c-0.1-0.1-0.2-0.2-0.2-0.4v-6.9c0-0.3,0.3-0.5,0.6-0.5l32.9-3.3l-3.1-15.9l-29.6,1.4c-0.2,0-0.4,0-0.5-0.1
		c-0.1-0.1-0.2-0.3-0.2-0.4l0.7-7.8c0.1-0.3,0.3-0.5,0.6-0.5l27.2-2.2l-2.5-12.7l-24.6,1.5c-0.2,0-0.4,0-0.5-0.1
		c-0.1-0.1-0.2-0.2-0.2-0.4l0.1-8.6c0-0.3,0.3-0.5,0.6-0.5l22.7-1.6l-1.7-12.7l-21,1.4c-0.2,0-0.4,0-0.5-0.1
		c-0.1-0.1-0.2-0.2-0.2-0.4l-0.7-7.5c0-0.3,0.3-0.6,0.6-0.6l20.2-1.3c0.3-0.1,0.7,0.2,0.7,0.5c0,0.3-0.2,0.6-0.6,0.6l-19.5,1.2
		l0.7,6.4l21-1.4c0.3-0.1,0.7,0.2,0.7,0.5l1.8,13.8c0,0.1,0,0.3-0.1,0.4c-0.1,0.1-0.3,0.2-0.5,0.2l-22.9,1.5l-0.1,7.6l24.5-1.5
		c0.3,0,0.6,0.1,0.7,0.5l2.6,13.7c0,0.1,0,0.3-0.1,0.4c-0.1,0.1-0.3,0.2-0.5,0.2L253,284l-0.6,6.7l29.5-1.4c0.3,0,0.6,0.2,0.7,0.5
		l3.3,16.9c0,0.1,0,0.3-0.1,0.4c-0.1,0.1-0.3,0.2-0.5,0.2l-32.9,3.3v5.9l34.4-2.2c0.3,0,0.6,0.1,0.7,0.5l2.6,13.5
		c0,0.1,0,0.3-0.1,0.4c-0.1,0.1-0.3,0.2-0.5,0.2l-36.5,4.2v7.4l37.8-4.4c0.2,0,0.4,0,0.5,0.1c0.1,0.1,0.2,0.2,0.3,0.4l3.8,19.5
		c0,0.3-0.2,0.5-0.6,0.6l-41.8,6.3v7.3l43.4-5c0.2,0,0.4,0,0.5,0.1c0.1,0.1,0.2,0.2,0.3,0.4l3.2,16.5c0,0.3-0.2,0.5-0.5,0.6
		l-47.5,9.4c0.1,1.9,0.3,3.8,0.6,5.6h0.1c3.9,0,30.4-3.9,48-6.6c0.3-0.1,0.7,0.1,0.8,0.4c0.1,0.3-0.2,0.6-0.5,0.6
		c-0.1,0-12.2,1.9-24.3,3.6c-7.1,1-12.7,1.8-16.8,2.3c-2.4,0.3-4.3,0.5-5.6,0.6C253.9,398.8,253.4,398.8,252.9,398.8z"/>
	<path class="st1" d="M223.5,406.6h-0.1c-0.8,0-1.4-0.6-1.4-1.2l18.2-176.7c0.2-0.7,0.9-1.2,1.6-1.1c0.8,0.1,1.4,0.6,1.4,1.2
		L225,405.6C224.8,406.3,224.2,406.7,223.5,406.6z"/>
	<rect x="235.7" y="198" class="st1" width="29.5" height="2.3"/>
	<rect x="236.4" y="187.6" class="st1" width="29.5" height="2.3"/>
	<rect x="236.2" y="177.2" class="st1" width="29.5" height="2.3"/>
	<rect x="244.4" y="206.9" class="st1" width="13.4" height="16.6"/>
	<rect x="249.5" y="81.9" class="st0" width="2.8" height="38.6"/>
	<path class="st1" d="M255.2,81.9c0,1.8-1.8,3.2-4.1,3.2s-4.1-1.4-4.1-3.2s1.9-3.2,4.1-3.2S255.2,80.1,255.2,81.9z"/>
	<rect x="218.1" y="223.1" class="st0" width="65.7" height="6.9"/>
	<path class="st1" d="M283.8,406.6c-0.7,0.1-1.3-0.4-1.5-1l-24.5-176.7c-0.1-0.6,0.5-1.2,1.3-1.3c0.7-0.1,1.4,0.3,1.6,1l24.5,176.7
		c0.1,0.6-0.5,1.2-1.3,1.3L283.8,406.6z"/>
	<rect x="174.1" y="402" class="st0" width="154.1" height="9.7"/>
	<g id="Layer_1-2">
		<polygon class="st1" points="382.1,203.1 383.5,203.1 369.1,412 367.7,412 		"/>
		<polygon class="st1" points="410.8,207 425,412 423.5,412 409.4,206.9 		"/>
		<rect x="395.7" y="203.1" class="st1" width="1.6" height="208.8"/>
		<path class="st1" d="M396.5,404.5c0.1,0,0.2-0.1,0.3-0.2c9.2-10.5,23.2-26.3,24.4-27.4c0.2-0.1,0.3-0.3,0.3-0.4
			c0.2-0.6,0.3-1.2,0.2-1.8c0-0.5-0.1-1-0.4-1.4c-0.1-0.1-0.1-0.2-0.2-0.2c-1.1-0.9-13.9-12.7-23.1-21.2l19.5-38.9
			c0.2-0.6,0.3-1.2,0.3-1.8c0-0.6-0.2-1.1-0.5-1.5l-19.3-19l15.3-32.6c0.2-0.6,0.3-1.2,0.3-1.8c0-0.5-0.1-1.1-0.4-1.5l-15.3-18.7
			l12-27.8c0.3-0.7,0-0.8-0.3-1.6s-1.3,0-1.3,0L396,235c-0.2,0.5-0.3,1.1-0.2,1.7c0,0.5,0.1,1,0.4,1.5l15.2,18.7l-15.3,32.7
			c-0.2,0.6-0.3,1.2-0.3,1.8c0,0.5,0.2,1.1,0.5,1.5l19.3,18.9l-19.5,39c-0.2,0.6-0.3,1.2-0.3,1.8c0,0.6,0.2,1.1,0.5,1.5l12.2,11.4
			c3.5,3.3,6.4,5.9,8.4,7.8l2,1.8l-2.1,2.2c-2,2.3-4.9,5.5-8.4,9.5c-6,6.9-12.1,13.8-12.2,13.9c-0.4,0.8-0.6,1.7-0.4,2.6
			C395.9,404,396.2,404.5,396.5,404.5z"/>
		<path class="st1" d="M396.5,404.5c0.3,0,0.6-0.5,0.7-1.2c0.2-0.9,0.1-1.8-0.4-2.6c-0.1-0.1-6.2-7-12.2-13.9
			c-3.5-4-6.4-7.2-8.4-9.5l-2-2.3l2-1.8c2-1.9,4.9-4.5,8.4-7.8l12.2-11.4c0.3-0.4,0.5-1,0.5-1.5c0.1-0.6,0-1.3-0.3-1.8l-19.5-39
			l19.3-18.9c0.3-0.4,0.5-1,0.5-1.5c0.1-0.6,0-1.2-0.3-1.8l-15.4-32.8l15.2-18.6c0.3-0.4,0.4-1,0.4-1.5c0-0.6,0-1.2-0.2-1.7
			l-12.9-29.7c-0.3-0.7-0.8-0.6-1,0.2c-0.3,0.9-0.2,1.9,0.1,2.8l12,27.8l-15.3,18.7c-0.3,0.5-0.4,1-0.4,1.5c0,0.6,0,1.2,0.3,1.7
			l15.3,32.6l-19.4,19c-0.3,0.4-0.5,1-0.5,1.5c-0.1,0.6,0,1.3,0.3,1.8l19.5,38.9c-9.2,8.6-21.9,20.4-23.1,21.2
			c-0.1,0-0.2,0.1-0.2,0.2c-0.2,0.4-0.4,0.9-0.4,1.4c-0.1,0.6,0,1.2,0.3,1.8c0.1,0.2,0.2,0.3,0.3,0.4c1.2,1.2,15.1,17,24.4,27.4
			C396.2,404.4,396.4,404.5,396.5,404.5z"/>
		<polygon class="st1" points="380.8,206 413,213.8 413.8,207.6 380.8,196.9 		"/>
		<polygon class="st1" points="332.8,190.9 331.4,190.9 345.8,411.3 347.2,411.3 		"/>
		<polygon class="st1" points="304.4,190.9 289.9,411.3 291.4,411.3 305.8,190.9 		"/>
		<rect x="317.6" y="190.9" class="st1" width="1.6" height="220.4"/>
		<path class="st1" d="M318.4,403.3c-0.1,0-0.2-0.1-0.3-0.2c-9.2-11.1-23.2-27.8-24.4-29c-0.2-0.1-0.3-0.3-0.3-0.5
			c-0.2-0.6-0.3-1.3-0.2-1.9c0-0.5,0.1-1,0.4-1.5c0.1-0.1,0.1-0.2,0.2-0.2c1.1-1,13.9-13.4,23.1-22.4l-19.4-41.1
			c-0.2-0.6-0.3-1.3-0.3-1.9c0-0.6,0.1-1.1,0.5-1.6l19.4-20l-15.3-34.4c-0.2-0.6-0.3-1.2-0.3-1.8c0-0.6,0.1-1.1,0.4-1.6l15.3-19.7
			l-12-29.3c-0.3-0.9-0.3-1.9-0.1-2.9c0.3-0.9,0.7-0.9,1-0.2l12.9,31.3c0.2,0.6,0.3,1.2,0.2,1.8c0,0.6-0.1,1.1-0.4,1.6l-15.2,19.7
			l15.3,34.6c0.2,0.6,0.3,1.3,0.3,1.9c0,0.6-0.2,1.1-0.5,1.6l-19.3,20l19.5,41.1c0.2,0.6,0.3,1.3,0.3,2c0,0.6-0.2,1.1-0.5,1.6
			c-0.1,0-6.2,6.1-12.2,12c-3.5,3.5-6.4,6.2-8.4,8.2l-2,1.9l2,2.4c2,2.4,4.9,5.8,8.4,10l12.2,14.6c0.4,0.8,0.6,1.8,0.4,2.7
			C319,402.9,318.7,403.3,318.4,403.3z"/>
		<path class="st1" d="M318.4,403.3c-0.3,0-0.6-0.5-0.7-1.2c-0.2-0.9-0.1-1.9,0.4-2.7l12.2-14.6l8.4-10l2-2.4l-2-1.9
			c-2-2-4.9-4.7-8.4-8.2c-6-5.9-12.2-11.9-12.2-12c-0.3-0.5-0.5-1-0.5-1.6c-0.1-0.7,0-1.4,0.3-2l19.5-41.1l-19.3-20
			c-0.3-0.5-0.5-1-0.5-1.6c0-0.7,0-1.3,0.3-1.9l15.4-34.6l-15.2-19.7c-0.3-0.5-0.4-1-0.4-1.6c0-0.6,0-1.2,0.2-1.8l12.9-31.3
			c0.3-0.8,0.8-0.7,1,0.2c0.3,0.9,0.3,2-0.1,2.9l-12,29.3l15.3,19.7c0.3,0.5,0.4,1,0.4,1.6c0,0.6,0,1.3-0.3,1.8l-15.2,34.5l19.4,20
			c0.3,0.5,0.5,1,0.5,1.6c0.1,0.7,0,1.3-0.3,1.9L320,347.7c9.2,9,21.9,21.5,23.1,22.4c0.1,0,0.2,0.1,0.2,0.2
			c0.2,0.4,0.4,0.9,0.4,1.5c0.1,0.7,0,1.3-0.2,1.9c-0.1,0.2-0.2,0.3-0.3,0.5c-1.2,1.2-15.1,17.9-24.4,29
			C318.7,403.3,318.5,403.4,318.4,403.3z"/>
		<polygon class="st1" points="334.7,194.7 302.1,194.7 302.1,186 334.7,188.4 		"/>
		<polygon class="st1" points="205.3,191.1 203.9,191.1 218.3,411.4 219.8,411.4 		"/>
		<polygon class="st1" points="176.9,191.1 162.4,411.4 163.9,411.4 178.3,191.1 		"/>
		<rect x="190.1" y="191.1" class="st1" width="1.6" height="220.4"/>
		<path class="st1" d="M190.9,403.5c-0.1,0-0.2-0.1-0.3-0.2c-9.2-11.1-23.2-27.8-24.4-29c-0.2-0.1-0.3-0.3-0.3-0.4
			c-0.2-0.6-0.3-1.3-0.2-1.9c0-0.5,0.1-1,0.4-1.5c0.1-0.1,0.1-0.2,0.2-0.2c1.1-1,13.9-13.4,23.1-22.4l-19.5-41.1
			c-0.2-0.6-0.3-1.3-0.3-1.9c0-0.6,0.2-1.1,0.5-1.6l19.4-20l-15.3-34.4c-0.2-0.6-0.3-1.2-0.3-1.8c0-0.6,0.1-1.1,0.4-1.6l15.3-19.7
			l-12-29.3c-0.3-0.9-0.3-2-0.1-2.9c0.3-0.9,0.7-0.9,1.1-0.2l12.9,31.3c0.2,0.6,0.3,1.2,0.2,1.8c0,0.6-0.1,1.1-0.4,1.6L176,247.7
			l15.4,34.6c0.2,0.6,0.3,1.3,0.3,1.9c0,0.6-0.2,1.1-0.5,1.6l-19.3,20l19.5,41.1c0.2,0.6,0.3,1.3,0.3,1.9c0,0.6-0.2,1.1-0.5,1.6
			c-0.1,0.1-6.2,6.1-12.2,12l-8.4,8.2l-2,1.9l2,2.4c2,2.4,4.9,5.8,8.4,10c6,7.3,12.1,14.6,12.2,14.6c0.4,0.8,0.6,1.8,0.4,2.7
			C191.5,403.1,191.2,403.5,190.9,403.5z"/>
		<path class="st1" d="M190.9,403.5c-0.3,0-0.6-0.5-0.7-1.2c-0.2-0.9,0-1.9,0.4-2.7c0.1-0.1,6.2-7.4,12.2-14.6
			c3.6-4.2,6.4-7.6,8.4-10l2-2.4l-1.9-1.9c-2-2-4.9-4.7-8.4-8.2c-6-5.9-12.2-11.9-12.2-12c-0.3-0.5-0.5-1-0.5-1.6
			c-0.1-0.7,0-1.3,0.3-1.9l19.5-41.1l-19.3-20c-0.3-0.5-0.5-1-0.5-1.6c-0.1-0.7,0-1.3,0.3-1.9l15.4-34.6L190.6,228
			c-0.3-0.5-0.4-1-0.4-1.6c0-0.6,0-1.2,0.2-1.8l12.9-31.3c0.3-0.8,0.8-0.7,1.1,0.2c0.3,1,0.2,2-0.1,2.9l-12,29.3l15.3,19.7
			c0.3,0.5,0.4,1,0.4,1.6c0,0.6,0,1.3-0.3,1.8l-15.3,34.4l19.3,20c0.3,0.5,0.5,1,0.5,1.6c0.1,0.7,0,1.3-0.3,1.9l-19.5,41.1
			c9.2,9,21.9,21.5,23.1,22.4c0.1,0.1,0.2,0.1,0.2,0.2c0.2,0.4,0.4,0.9,0.4,1.4c0.1,0.7,0,1.4-0.3,2c-0.1,0.2-0.2,0.3-0.3,0.4
			c-1.2,1.2-15.1,17.9-24.3,29C191.2,403.5,191,403.6,190.9,403.5z"/>
		<polygon class="st1" points="207.2,194.9 174.6,194.9 174.6,187.4 207.2,185.2 		"/>
		<path class="st10" d="M326.2,294.3c0,21.5-14.4,38.9-32,38.9s-32-17.4-32-38.9s14.4-38.9,32-38.9S326.2,272.8,326.2,294.3z"/>
		<path class="st11" d="M318.6,294.3c0,21.5-14.4,38.9-32,38.9s-32-17.4-32-38.9s14.4-38.9,32-38.9S318.6,272.8,318.6,294.3z"/>
		<rect x="211.7" y="288.5" class="st12" width="76.6" height="56.2"/>
		<polygon class="st10" points="295.5,322.3 286.3,322.3 334.8,407.2 344.1,407.2 		"/>
		<polygon class="st11" points="199.6,322.3 151.8,407.2 335.3,407.2 287.5,322.3 		"/>
		<polygon class="st10" points="212.1,322.3 202.8,322.3 236.9,407.2 246.2,407.2 		"/>
		<rect x="141.2" y="407" class="st10" width="213.4" height="5.8"/>
		<rect x="236.5" y="288.5" class="st13" width="26.9" height="19.8"/>
		<rect x="239" y="296.9" class="st12" width="21.9" height="2.9"/>
		<rect x="239" y="302.6" class="st12" width="21.9" height="2.9"/>
		<rect x="239" y="291.2" class="st12" width="21.9" height="2.9"/>
		<polygon class="st14" points="207.5,322 287.5,322 314.2,273.8 200,286.4 		"/>
		<path class="st10" d="M225.3,288.4H195v-24.5h-14.7V259c-11,6.2-18.6,19.7-18.6,35.3c0,21.5,14.4,38.9,32,38.9s32-17.4,32-38.9
			C225.7,292.3,225.6,290.3,225.3,288.4z"/>
		<path class="st11" d="M217.8,288.4H195v-24.5h-14.7V256c-14.9,3.3-26.1,19.2-26.1,38.2c0,21.5,14.4,38.9,32,38.9s32-17.4,32-38.9
			C218.2,292.3,218.1,290.3,217.8,288.4z"/>
		<path class="st14" d="M163,267.5c-10.9,13.2-11.8,36-2.1,50.7c0.8,1.2,1.6,2.3,2.5,3.4l34.7-33L163,267.5z"/>
		<polygon class="st11" points="291.1,288.4 415,210.3 413.1,194.1 241.9,173.2 91.2,194.1 82.3,210.3 192.9,288.4 		"/>
		<path class="st10" d="M81.1,196.9c0,1.1,0.4,12.3,1.2,13.4C92,196.6,162.8,186,248.6,186s156.6,10.6,166.4,24.4
			c0.8-1.1,1.2-12.3,1.2-13.4c0-15.2-75-27.5-167.5-27.5S81.1,181.7,81.1,196.9z"/>
		<path class="st15" d="M150.6,194.1l23.4-5.2c-49.5,4.1-85,12-91.8,21.4l110.7,78.1h21L145,210.3L150.6,194.1z"/>
		<path class="st15" d="M325.4,189.1l25.7,5l1.2,16.3L275,288.4h16l124-78.1C408.4,201,373.7,193.2,325.4,189.1z"/>
		<polygon class="st1" points="332.8,192.4 331.4,192.4 345.8,412.7 347.3,412.7 		"/>
		<polygon class="st1" points="304.4,192.4 289.9,412.7 291.4,412.7 305.8,192.4 		"/>
		<rect x="317.6" y="192.4" class="st1" width="1.6" height="220.4"/>
		<path class="st1" d="M318.4,404.8c-0.1,0-0.2-0.1-0.3-0.2c-9.2-11.1-23.2-27.8-24.4-29c-0.2-0.1-0.3-0.3-0.3-0.4
			c-0.2-0.6-0.3-1.3-0.2-2c0-0.5,0.1-1,0.4-1.4c0.1-0.1,0.1-0.2,0.2-0.2c1.1-1,13.9-13.4,23.1-22.4l-19.5-41
			c-0.2-0.6-0.3-1.3-0.3-1.9c0-0.6,0.1-1.1,0.5-1.6l19.4-20l-15.3-34.4c-0.2-0.6-0.3-1.2-0.3-1.8c0-0.6,0.1-1.1,0.4-1.6l15.3-19.7
			l-12-29.3c-0.3-0.9-0.3-2,0-2.9c0.3-0.9,0.7-0.9,1-0.2l12.9,31.3c0.2,0.6,0.3,1.2,0.2,1.8c0,0.6-0.2,1.1-0.4,1.6L303.5,249
			l15.4,34.6c0.2,0.6,0.3,1.3,0.3,1.9c0,0.6-0.2,1.1-0.5,1.6l-19.4,20l19.5,41.1c0.2,0.6,0.3,1.3,0.3,2c0,0.6-0.2,1.1-0.5,1.6
			l-12.2,12c-3.5,3.5-6.4,6.2-8.4,8.2l-2,1.9l2,2.4c2,2.4,4.9,5.8,8.4,10c6,7.2,12.1,14.5,12.2,14.6c0.4,0.8,0.6,1.8,0.4,2.7
			C319,404.3,318.7,404.8,318.4,404.8z"/>
		<path class="st1" d="M318.4,404.8c-0.3,0-0.6-0.5-0.7-1.2c-0.2-0.9,0-1.9,0.4-2.7c0.1-0.1,6.2-7.4,12.2-14.6
			c3.5-4.2,6.4-7.6,8.4-10l2-2.4l-2-1.9c-2-2-4.9-4.7-8.4-8.2l-12.2-12c-0.3-0.5-0.5-1-0.5-1.6c-0.1-0.7,0-1.3,0.3-2l19.5-41.1
			l-19.3-20c-0.3-0.5-0.5-1-0.5-1.6c-0.1-0.7,0-1.3,0.3-1.9l15.4-34.6l-15.2-19.7c-0.3-0.5-0.4-1-0.4-1.6c0-0.6,0-1.2,0.2-1.8
			l12.9-31.3c0.3-0.8,0.8-0.7,1,0.2c0.3,1,0.2,2-0.1,2.9l-12,29.3l15.3,19.7c0.3,0.5,0.4,1,0.4,1.6c0,0.6,0,1.3-0.3,1.8l-15.3,34.4
			l19.4,20c0.3,0.5,0.5,1,0.5,1.6c0.1,0.7,0,1.3-0.3,1.9l-19.5,41c9.2,9,21.9,21.5,23.1,22.4c0.1,0.1,0.2,0.1,0.2,0.2
			c0.2,0.4,0.4,0.9,0.4,1.4c0.1,0.7,0,1.3-0.2,2c-0.1,0.2-0.2,0.3-0.3,0.4c-1.2,1.2-15.1,17.9-24.4,29
			C318.7,404.7,318.6,404.8,318.4,404.8z"/>
		<polygon class="st1" points="334.7,196.1 302.1,196.1 302.1,187.4 334.7,189.9 		"/>
		<polygon class="st1" points="205.3,192.6 203.9,192.6 218.3,412.9 219.8,412.9 		"/>
		<polygon class="st1" points="176.9,192.6 162.4,412.9 163.9,412.9 178.3,192.6 		"/>
		<rect x="190.2" y="192.6" class="st1" width="1.6" height="220.4"/>
		<path class="st1" d="M190.9,405c-0.1,0-0.2-0.1-0.3-0.2c-9.2-11.1-23.2-27.8-24.4-29c-0.2-0.1-0.3-0.3-0.3-0.5
			c-0.2-0.6-0.3-1.3-0.2-1.9c0-0.5,0.1-1,0.4-1.5c0.1-0.1,0.1-0.2,0.2-0.2c1.1-0.9,13.9-13.4,23.1-22.4l-19.5-41.1
			c-0.2-0.6-0.3-1.3-0.3-1.9c0-0.6,0.2-1.2,0.5-1.6l19.4-20l-15.3-34.4c-0.2-0.6-0.3-1.2-0.3-1.9c0-0.6,0.1-1.1,0.4-1.6l15.3-19.7
			l-12-29.3c-0.3-0.9-0.3-1.9-0.1-2.9c0.3-0.8,0.8-0.9,1.1-0.2l12.9,31.3c0.2,0.6,0.3,1.2,0.2,1.8c0,0.6-0.2,1.1-0.4,1.6L176,249.2
			l15.4,34.6c0.2,0.6,0.3,1.3,0.3,1.9c0,0.6-0.2,1.2-0.5,1.7l-19.3,20l19.5,41.1c0.2,0.6,0.3,1.3,0.3,1.9c0,0.6-0.1,1.1-0.5,1.6
			c-0.1,0.1-6.2,6.1-12.2,12c-3.6,3.5-6.4,6.2-8.4,8.2l-1.9,1.8l2,2.4c2,2.4,4.9,5.8,8.4,10c6,7.2,12.1,14.5,12.2,14.6
			c0.4,0.8,0.6,1.8,0.4,2.7C191.5,404.5,191.2,405,190.9,405z"/>
		<path class="st1" d="M190.9,405c-0.3,0-0.6-0.5-0.7-1.2c-0.2-0.9,0-1.9,0.4-2.7c0.1-0.1,6.2-7.4,12.2-14.6c3.6-4.2,6.4-7.6,8.4-10
			l2-2.4l-2-1.9l-8.4-8.2c-6-5.9-12.2-11.9-12.2-12c-0.3-0.5-0.5-1-0.5-1.6c-0.1-0.7,0-1.3,0.3-1.9l19.6-41.2l-19.3-20
			c-0.3-0.5-0.5-1-0.5-1.6c-0.1-0.7,0-1.3,0.3-1.9l15.4-34.6l-15.2-19.7c-0.3-0.5-0.4-1-0.4-1.6c0-0.6,0-1.2,0.2-1.8l12.9-31.3
			c0.3-0.8,0.8-0.7,1.1,0.2c0.3,1,0.2,2-0.1,2.9l-12,29.3l15.3,19.8c0.3,0.5,0.4,1,0.4,1.6c0,0.6,0,1.3-0.3,1.9l-15.3,34.3l19.4,20
			c0.3,0.5,0.5,1.1,0.5,1.6c0.1,0.7,0,1.3-0.3,1.9l-19.5,41.1c9.2,9,21.9,21.5,23.1,22.4c0.1,0.1,0.2,0.1,0.2,0.2
			c0.2,0.4,0.4,0.9,0.4,1.5c0.1,0.7,0,1.3-0.2,1.9c-0.1,0.2-0.2,0.3-0.3,0.5c-1.2,1.2-15.1,17.9-24.4,29
			C191.2,405,191,405,190.9,405z"/>
		<polygon class="st1" points="207.2,196.3 174.6,196.3 174.6,188.8 207.2,186.7 		"/>
		<polygon class="st1" points="117.9,201 116.4,201 130.9,421.3 132.3,421.3 		"/>
		<polygon class="st1" points="89.2,205.1 75,421.3 76.4,421.3 90.6,205 		"/>
		<rect x="102.7" y="201" class="st1" width="1.6" height="220.3"/>
		<path class="st1" d="M103.5,413.4c-0.1,0-0.2-0.1-0.3-0.2c-9.2-11.1-23.2-27.8-24.4-29c-0.2-0.1-0.3-0.3-0.3-0.5
			c-0.2-0.6-0.3-1.3-0.3-1.9c0-0.5,0.2-1,0.4-1.4c0.1-0.1,0.1-0.2,0.2-0.2c1.1-0.9,13.9-13.4,23.1-22.4l-19.5-41.1
			c-0.2-0.6-0.3-1.3-0.3-1.9c0-0.6,0.2-1.1,0.5-1.6l19.4-20l-15.3-34.4c-0.2-0.6-0.3-1.2-0.3-1.9c0-0.6,0.1-1.1,0.4-1.6l15.3-19.7
			l-12-29.3c-0.3-0.8,0-0.8,0.3-1.7s1.3,0,1.3,0l12.3,30c0.2,0.6,0.3,1.2,0.2,1.8c0,0.6-0.1,1.1-0.4,1.6l-15.2,19.7l15.4,34.6
			c0.2,0.6,0.3,1.3,0.3,1.9c0,0.6-0.2,1.1-0.5,1.6l-19.3,20l19.5,41.1c0.2,0.6,0.3,1.3,0.3,2c0,0.6-0.2,1.1-0.5,1.6l-12.2,12
			c-3.6,3.5-6.4,6.2-8.4,8.2l-2,1.9l2,2.4c2,2.4,4.9,5.8,8.4,10c6,7.2,12.2,14.5,12.2,14.6c0.4,0.8,0.6,1.8,0.4,2.7
			C104.1,413,103.8,413.4,103.5,413.4z"/>
		<path class="st1" d="M103.5,413.4c-0.3,0-0.6-0.5-0.7-1.2c-0.2-0.9-0.1-1.9,0.4-2.7c0.1-0.1,6.2-7.4,12.2-14.6
			c3.6-4.2,6.4-7.6,8.4-10l2-2.4l-2-1.9c-2-2-4.9-4.7-8.4-8.2c-6-5.9-12.2-11.9-12.2-12c-0.3-0.5-0.5-1-0.5-1.6
			c-0.1-0.7,0-1.3,0.3-2l19.5-41.1l-19.3-20c-0.3-0.5-0.5-1-0.5-1.6c0-0.7,0-1.3,0.3-1.9l15.4-34.6L103.2,238
			c-0.3-0.5-0.4-1-0.4-1.6c0-0.6,0-1.2,0.2-1.8l12.9-31.3c0.3-0.8,0.8-0.7,1,0.2c0.3,0.9,0.3,2,0,2.9l-12,29.2l15.3,19.7
			c0.3,0.5,0.4,1,0.4,1.6c0,0.6,0,1.3-0.3,1.9L105,293.1l19.3,20c0.3,0.5,0.5,1,0.5,1.6c0.1,0.7,0,1.3-0.3,1.9L105,357.8
			c9.2,9,21.9,21.5,23.1,22.4c0.1,0.1,0.2,0.1,0.2,0.2c0.2,0.4,0.4,0.9,0.4,1.4c0.1,0.7,0,1.3-0.2,1.9c-0.1,0.2-0.2,0.3-0.3,0.5
			c-1.2,1.2-15.1,17.9-24.4,29C103.7,413.3,103.6,413.4,103.5,413.4z"/>
		<polygon class="st1" points="119.2,204 86.9,212.2 86.2,205.6 119.2,194.4 		"/>
		<polygon class="st1" points="382.1,204.6 383.6,204.6 369.1,413.4 367.7,413.4 		"/>
		<polygon class="st1" points="410.8,208.5 425,413.4 423.5,413.4 409.4,208.4 		"/>
		<rect x="395.7" y="204.6" class="st1" width="1.6" height="208.8"/>
		<path class="st1" d="M396.5,405.9c0.1,0,0.2-0.1,0.3-0.2c9.2-10.5,23.2-26.3,24.4-27.4c0.2-0.1,0.3-0.3,0.3-0.4
			c0.2-0.6,0.3-1.2,0.2-1.8c0-0.5-0.1-0.9-0.4-1.4c-0.1-0.1-0.1-0.2-0.2-0.2c-1.1-0.9-13.9-12.7-23.1-21.2l19.5-38.9
			c0.2-0.6,0.3-1.2,0.3-1.8c0-0.6-0.2-1.1-0.5-1.5L398,292l15.3-32.6c0.2-0.6,0.3-1.2,0.3-1.8c0-0.5-0.1-1.1-0.4-1.5l-15.3-18.7
			l12-27.8c0.3-0.7,0-0.8-0.3-1.6s-1.3,0-1.3,0L396,236.4c-0.2,0.6-0.3,1.1-0.2,1.7c0,0.5,0.1,1,0.4,1.5l15.2,18.6l-15.3,32.8
			c-0.2,0.6-0.3,1.2-0.3,1.8c0,0.5,0.2,1.1,0.5,1.5l19.3,18.9l-19.5,39c-0.2,0.6-0.3,1.2-0.3,1.9c0,0.5,0.2,1.1,0.5,1.5
			c0.1,0.1,6.2,5.8,12.2,11.4c3.5,3.3,6.4,5.9,8.4,7.8l2,1.8l-2,2.3l-8.4,9.5c-6.1,6.8-12.2,13.8-12.2,13.8
			c-0.4,0.8-0.6,1.7-0.4,2.6C395.9,405.5,396.2,405.9,396.5,405.9z"/>
		<path class="st1" d="M396.5,405.9c0.3,0,0.6-0.4,0.7-1.2c0.2-0.9,0.1-1.8-0.4-2.6c-0.1-0.1-6.2-7-12.2-13.9l-8.4-9.5l-2-2.3l2-1.8
			c2-1.9,4.9-4.5,8.4-7.8c6-5.6,12.2-11.3,12.2-11.4c0.3-0.4,0.5-1,0.5-1.5c0.1-0.6,0-1.3-0.3-1.9l-19.5-39l19.3-18.9
			c0.3-0.4,0.5-1,0.5-1.5c0-0.6-0.1-1.2-0.3-1.8l-15.4-32.8l15.2-18.6c0.3-0.4,0.4-1,0.4-1.5c0-0.6,0-1.1-0.2-1.7l-12.9-29.7
			c-0.3-0.7-0.8-0.6-1,0.2c-0.3,0.9-0.3,1.9,0.1,2.8l12,27.8l-15.3,18.7c-0.3,0.5-0.4,1-0.4,1.5c0,0.6,0,1.2,0.3,1.8L395,292
			l-19.4,19c-0.3,0.4-0.5,1-0.5,1.5c-0.1,0.6,0,1.3,0.3,1.8l19.5,38.9c-9.2,8.6-21.9,20.4-23.1,21.2c-0.1,0.1-0.2,0.1-0.2,0.2
			c-0.2,0.4-0.4,0.9-0.4,1.4c-0.1,0.6,0,1.3,0.2,1.8c0.1,0.2,0.2,0.3,0.3,0.4c1.2,1.2,15.1,17,24.4,27.4
			C396.3,405.9,396.4,405.9,396.5,405.9z"/>
		<polygon class="st1" points="380.8,207.4 413.1,215.3 413.8,209 380.8,198.3 		"/>
	</g>
</g>
</svg>
