<?xml version="1.0" encoding="utf-8"?>
<!-- Generator: Adobe Illustrator 24.2.3, SVG Export Plug-In . SVG Version: 6.00 Build 0)  -->
<svg version="1.1" id="Capa_1" xmlns="http://www.w3.org/2000/svg" xmlns:xlink="http://www.w3.org/1999/xlink" x="0px" y="0px"
	 viewBox="0 0 512 512" style="enable-background:new 0 0 512 512;" xml:space="preserve">
<style type="text/css">
	.st0{fill:#313133;}
	.st1{fill:#3C3B40;}
	.st2{fill:#C8C6CB;}
	.st3{fill:#FFFFFF;}
	.st4{fill:#383838;}
	.st5{fill:#2B2B2B;}
	.st6{fill:#AEADB2;}
	.st7{fill:#99989B;}
	.st8{fill:#0076FF;}
	.st9{fill:#0092FF;}
	.st10{fill:#00B9FF;}
	.st11{fill:#FF3D3B;}
	.st12{fill:#EA005C;}
	.st13{fill:#BF005E;}
	.st14{fill:#FDD425;}
	.st15{fill:#FF9A01;}
</style>
<g>
	<g>
		<g>
			<g>
				<g>
					<path class="st0" d="M232.8,372.1l46.1,46.1l43.9-48.4l-41.6-41.6L232.8,372.1z"/>
					<path class="st1" d="M232.8,372.1l23.1,23.1L302,349l-20.8-20.8L232.8,372.1z"/>
					<path class="st2" d="M228.2,364.1c-4.6,4.6-4.6,12,0,16.5l43.7,43.7c2.3,2.3,5.3,3.4,8.3,3.4c3,0,6-1.1,8.3-3.4
						c4.6-4.6,4.6-12,0-16.5l-43.7-43.7c-2.3-2.3-5.3-3.4-8.3-3.4C233.4,360.7,230.4,361.8,228.2,364.1z"/>
					<path class="st3" d="M228.2,364.1c-4.6,4.6-4.6,12,0,16.5l21.1,21.1l16.5-16.5l-21.1-21.1c-2.3-2.3-5.3-3.4-8.3-3.4
						C233.4,360.7,230.4,361.8,228.2,364.1L228.2,364.1z"/>
				</g>
				<g>
					<path class="st0" d="M93.2,232.5l46.1,46.1l43.9-48.4l-41.6-41.6L93.2,232.5z"/>
					<path class="st1" d="M93.2,232.5l23.1,23.1l46.1-46.1l-20.8-20.8L93.2,232.5z"/>
					<path class="st2" d="M88.6,224.5c-4.6,4.6-4.6,12,0,16.5l43.7,43.7c2.3,2.3,5.3,3.4,8.3,3.4c3,0,6-1.1,8.3-3.4
						c4.6-4.6,4.6-12,0-16.5l-43.7-43.7c-2.3-2.3-5.3-3.4-8.3-3.4C93.9,221.1,90.9,222.2,88.6,224.5z"/>
					<path class="st3" d="M88.6,224.5c-4.6,4.6-4.6,12,0,16.5l21.1,21.1l16.5-16.5l-21.1-21.1c-2.3-2.3-5.3-3.4-8.3-3.4
						C93.9,221.1,90.9,222.2,88.6,224.5z"/>
				</g>
			</g>
			<g>
				<path class="st0" d="M163,302.3l46.1,46.1L253,300l-41.6-41.6L163,302.3z"/>
				<path class="st1" d="M163,302.3l23.1,23.1l46.1-46.1l-20.8-20.8L163,302.3z"/>
				<path class="st2" d="M158.4,294.3c-4.6,4.6-4.6,12,0,16.5l43.7,43.7c2.3,2.3,5.3,3.4,8.3,3.4c3,0,6-1.1,8.3-3.4
					c4.6-4.6,4.6-12,0-16.5l-43.7-43.7c-2.3-2.3-5.3-3.4-8.3-3.4C163.7,290.9,160.7,292,158.4,294.3L158.4,294.3z"/>
				<path class="st3" d="M158.4,294.3c-4.6,4.6-4.6,12,0,16.5l21.1,21.1l16.5-16.5l-21.1-21.1c-2.3-2.3-5.3-3.4-8.3-3.4
					C163.7,290.9,160.7,292,158.4,294.3z"/>
			</g>
		</g>
		<g>
			<path class="st4" d="M412.6,25.1l75.3,75.3l4.2-25.1c2.7-16-2.9-31-13.2-41.2c-10.3-10.3-25.2-15.9-41.2-13.2L412.6,25.1z"/>
			<path class="st0" d="M412.6,25.1l37.6,37.6l28.7-28.7c-10.3-10.3-25.2-15.9-41.2-13.2L412.6,25.1z"/>
			<path class="st5" d="M412.6,25.1l20.8,20.8l19.3-10c12.3-6.4,21.6-6.4,26.2-1.8c-10.3-10.3-25.2-15.9-41.2-13.2L412.6,25.1z"/>
			<g>
				<path class="st6" d="M243.9,84.7L212.5,83L430,300.5l30.6-30.6c8.4-8.4,14-19.2,15.9-30.9l1.1-6.4l13.2-78.3l7.4-44
					c1.6-9.7-1.5-19.5-8.5-26.5l-60.7-60.7c-6.9-6.9-16,22.2-25.7,23.9l-44,7.4l-78.3,13.2l-6.4,1.1C263,70.7,252.3,76.3,243.9,84.7
					L243.9,84.7z"/>
				<path class="st2" d="M243.1,52.4L212.5,83l108.8,108.8L459.5,53.5l-30.3-30.3c-6.9-6.9-16.8-10.1-26.5-8.5l-44,17.4l-78.3,13.2
					l-6.4-8.9C262.2,38.4,251.4,44,243.1,52.4z"/>
				<path class="st3" d="M243.1,52.4L212.5,83l54.4,54.4l30.6-30.6c8.4-8.4,17.9-15.3,27.1-19.7l5.1-2.4l62-29.5l34.9-16.6
					c7.7-3.6,14.3-3.7,17.8-0.3l-15.2-15.2c-6.9-6.9-16.8-10.1-26.5-8.5l-44,7.4l-22.4,21.2l-55.8-8l-6.4,1.1
					C262.2,38.4,251.4,44,243.1,52.4z"/>
				<path class="st7" d="M232.5,62.9L116.4,179.1c-6.6,6.6-6.6,17.3,0,23.9L310,396.6c6.6,6.6,17.3,6.6,23.9,0l10.2-10.2l21.6-59.3
					l63.2-25.5l21.1-21.1L232.5,62.9z"/>
				<path class="st6" d="M232.5,62.9L127.1,189.8c-6.6,6.6-17.3,6.6-10.7,13.2l96.8,96.8l128.1-128.1L232.5,62.9z"/>
				<path class="st2" d="M232.5,62.9l-29.6,29.6l-18.6,53.3L132,163.4l-15.7,15.7c-6.6,6.6-6.6,17.3,0,23.9l42.4,42.4l128.1-128.1
					L232.5,62.9z"/>
				<g>
					<path class="st6" d="M286.2,156.7l-92.6,83.5L342,388.5l17.6-17.6l3.7-13.2l13.7-4.2l18.2-18.2l2.3-14.4l14.5-2.5l18-18
						L286.2,156.7z"/>
					<path class="st2" d="M153.6,200.2l88-88l79.6,79.6l-88,88L153.6,200.2z"/>
					<path class="st3" d="M212.5,83l-18,18l-3.5,15.1l-13.5,1.9l-18.1,18.1l1.2,15.5l-18.4,1.7L124.4,171l54.4,54.4l88-88L212.5,83z
						"/>
				</g>
				<g>
					<g>
						<path class="st0" d="M352.5,293.5l17.6-17.6l42.2,42.2l-17.6,17.6L352.5,293.5z"/>
						<path class="st0" d="M317.3,328.7l17.6-17.6l42.2,42.2l-17.6,17.6L317.3,328.7z"/>
					</g>
					<g>
						<path class="st1" d="M177.2,118.2l17.6-17.6l42.2,42.2l-17.6,17.6L177.2,118.2z"/>
						<path class="st1" d="M142,153.4l17.6-17.6l42.2,42.2l-17.6,17.6L142,153.4z"/>
					</g>
				</g>
			</g>
			<path class="st8" d="M280.4,35.3l197.3,197.3l13.2-78.3L358.6,22.1l-23.9,27.1L280.4,35.3z"/>
			<path class="st9" d="M280.4,35.3L379,134l45.7-45.7l-66.1-66.1l-17.3,23.4L280.4,35.3z"/>
			<path class="st10" d="M280.4,35.3l49.3,49.3l62-29.5l-33.1-33.1L280.4,35.3z"/>
		</g>
	</g>
	<g>
		<g>
			<path class="st11" d="M78.2,339.9c-13.6,3.4-27.2,6.8-40.5,11.1l-8.4,2.7c-3.4,1.1-6.7,0-8.9-2.2c-2.2-2.2-3.2-5.5-2.2-8.9
				l2.7-8.4c4.2-13.4,7.7-26.9,11.1-40.5c4.4-17.4,20.6-30,39.7-28.7c9.4,0.6,17.9,4.8,24.2,11.1s10.4,14.8,11.1,24.2
				C108.2,319.3,95.6,335.6,78.2,339.9L78.2,339.9z"/>
			<path class="st12" d="M78.2,339.9c-13.6,3.4-27.2,6.8-40.5,11.1l-8.4,2.7c-3.4,1.1-6.7,0-8.9-2.2l75.4-75.4
				c6.3,6.3,10.4,14.8,11.1,24.2C108.2,319.3,95.6,335.6,78.2,339.9z"/>
			<path class="st12" d="M79.4,323.5c-9.1,2.3-18.2,4.6-27.1,7.4l-5.6,1.8c-2.3,0.7-4.5,0-6-1.5c-1.5-1.5-2.2-3.7-1.5-6l1.8-5.6
				c2.8-8.9,5.1-18,7.4-27.1c2.9-11.6,13.8-20.1,26.5-19.2c6.3,0.4,12,3.2,16.2,7.4c4.2,4.2,7,9.9,7.4,16.2
				C99.5,309.6,91,320.5,79.4,323.5L79.4,323.5z"/>
			<path class="st13" d="M79.4,323.5c-9.1,2.3-18.2,4.6-27.1,7.4l-5.6,1.8c-2.3,0.7-4.5,0-6-1.5l50.5-50.5c4.2,4.2,7,9.9,7.4,16.2
				C99.5,309.6,91,320.5,79.4,323.5z"/>
			<path class="st14" d="M78.2,308.3c-4.3,1.1-8.5,2.1-12.7,3.5l-2.6,0.9c-1.1,0.3-2.1,0-2.8-0.7c-0.7-0.7-1-1.7-0.7-2.8l0.9-2.6
				c1.3-4.2,2.4-8.5,3.5-12.7c1.4-5.5,6.5-9.4,12.5-9c3,0.2,5.6,1.5,7.6,3.5c2,2,3.3,4.6,3.5,7.6C87.6,301.8,83.6,306.9,78.2,308.3
				L78.2,308.3z"/>
			<path class="st15" d="M78.2,308.3c-4.3,1.1-8.5,2.1-12.7,3.5l-2.6,0.9c-1.1,0.3-2.1,0-2.8-0.7l23.7-23.7c2,2,3.3,4.6,3.5,7.6
				C87.6,301.8,83.6,306.9,78.2,308.3L78.2,308.3z"/>
		</g>
	</g>
	<g>
		<g>
			<path class="st11" d="M148.8,410.5c-13.6,3.4-27.2,6.8-40.5,11.1l-8.4,2.7c-3.4,1.1-6.7,0-8.9-2.2c-2.2-2.2-3.2-5.5-2.2-8.9
				l2.7-8.4c4.2-13.4,7.7-26.9,11.1-40.5c4.4-17.4,20.6-30,39.7-28.7c9.4,0.6,17.9,4.8,24.2,11.1s10.4,14.8,11.1,24.2
				C178.8,389.8,166.2,406.1,148.8,410.5L148.8,410.5z"/>
			<path class="st12" d="M148.8,410.5c-13.6,3.4-27.2,6.8-40.5,11.1l-8.4,2.7c-3.4,1.1-6.7,0-8.9-2.2l75.4-75.4
				c6.3,6.3,10.4,14.8,11.1,24.2C178.8,389.8,166.2,406.1,148.8,410.5L148.8,410.5z"/>
			<path class="st12" d="M150,394c-9.1,2.3-18.2,4.6-27.1,7.4l-5.6,1.8c-2.3,0.7-4.5,0-6-1.5c-1.5-1.5-2.2-3.7-1.5-6l1.8-5.6
				c2.8-8.9,5.1-18,7.4-27.1c2.9-11.6,13.8-20.1,26.5-19.2c6.3,0.4,12,3.2,16.2,7.4c4.2,4.2,7,9.9,7.4,16.2
				C170,380.2,161.6,391.1,150,394z"/>
			<path class="st13" d="M150,394c-9.1,2.3-18.2,4.6-27.1,7.4l-5.6,1.8c-2.3,0.7-4.5,0-6-1.5l50.5-50.5c4.2,4.2,7,9.9,7.4,16.2
				C170,380.2,161.6,391.1,150,394z"/>
			<path class="st14" d="M148.7,378.8c-4.3,1.1-8.5,2.1-12.7,3.5l-2.6,0.9c-1.1,0.3-2.1,0-2.8-0.7c-0.7-0.7-1-1.7-0.7-2.8l0.9-2.6
				c1.3-4.2,2.4-8.5,3.5-12.7c1.4-5.5,6.5-9.4,12.5-9c3,0.2,5.6,1.5,7.6,3.5c2,2,3.3,4.6,3.5,7.6
				C158.2,372.3,154.2,377.4,148.7,378.8L148.7,378.8z"/>
			<path class="st15" d="M148.7,378.8c-4.3,1.1-8.5,2.1-12.7,3.5l-2.6,0.9c-1.1,0.3-2.1,0-2.8-0.7l23.7-23.7c2,2,3.3,4.6,3.5,7.6
				C158.2,372.3,154.2,377.4,148.7,378.8L148.7,378.8z"/>
		</g>
	</g>
	<g>
		<g>
			<path class="st11" d="M218.6,480.3c-13.6,3.4-27.2,6.8-40.5,11.1l-8.4,2.7c-3.4,1.1-6.7,0-8.9-2.2c-2.2-2.2-3.2-5.5-2.2-8.9
				l2.7-8.4c4.2-13.4,7.7-26.9,11.1-40.5c4.4-17.4,20.6-30,39.7-28.7c9.4,0.6,17.9,4.8,24.2,11.1c6.3,6.3,10.4,14.8,11.1,24.2
				C248.6,459.6,236,475.9,218.6,480.3z"/>
			<path class="st12" d="M218.6,480.3c-13.6,3.4-27.2,6.8-40.5,11.1l-8.4,2.7c-3.4,1.1-6.7,0-8.9-2.2l75.4-75.4
				c6.3,6.3,10.4,14.8,11.1,24.2C248.6,459.6,236,475.9,218.6,480.3L218.6,480.3z"/>
			<path class="st12" d="M219.7,463.8c-9.1,2.3-18.2,4.6-27.1,7.4L187,473c-2.3,0.7-4.5,0-6-1.5c-1.5-1.5-2.2-3.7-1.5-6l1.8-5.6
				c2.8-8.9,5.1-18,7.4-27.1c2.9-11.6,13.8-20.1,26.5-19.2c6.3,0.4,12,3.2,16.2,7.4c4.2,4.2,7,9.9,7.4,16.2
				C239.8,450,231.4,460.9,219.7,463.8z"/>
			<path class="st13" d="M219.7,463.8c-9.1,2.3-18.2,4.6-27.1,7.4L187,473c-2.3,0.7-4.5,0-6-1.5l50.5-50.5c4.2,4.2,7,9.9,7.4,16.2
				C239.8,450,231.4,460.9,219.7,463.8z"/>
			<path class="st14" d="M218.5,448.6c-4.3,1.1-8.5,2.1-12.7,3.5l-2.6,0.9c-1.1,0.3-2.1,0-2.8-0.7c-0.7-0.7-1-1.7-0.7-2.8l0.9-2.6
				c1.3-4.2,2.4-8.5,3.5-12.7c1.4-5.5,6.5-9.4,12.5-9c3,0.2,5.6,1.5,7.6,3.5c2,2,3.3,4.6,3.5,7.6C227.9,442.1,224,447.2,218.5,448.6
				L218.5,448.6z"/>
			<path class="st15" d="M218.5,448.6c-4.3,1.1-8.5,2.1-12.7,3.5l-2.6,0.9c-1.1,0.3-2.1,0-2.8-0.7l23.7-23.7c2,2,3.3,4.6,3.5,7.6
				C227.9,442.1,224,447.2,218.5,448.6L218.5,448.6z"/>
		</g>
	</g>
</g>
</svg>
