<svg id="Layer_1" data-name="Layer 1" xmlns="http://www.w3.org/2000/svg" viewBox="0 0 350 342.68"><defs><style>.cls-1{fill:#aaa;}.cls-2{fill:#c1c1c1;}.cls-3{fill:#d6d6d6;}.cls-4{opacity:0.54;}.cls-5{fill:#fff;}.cls-6{fill:#c9c9c9;}.cls-7{fill:#eaeaea;}.cls-8{fill:#e2e2e2;}.cls-9{fill:#ddd;}.cls-10{opacity:0.66;}.cls-11{fill:#747d79;}.cls-12{fill:#8b8c8b;}.cls-13{fill:#b6c2ba;}.cls-14{fill:#545c59;}.cls-15{fill:#bbbdbf;}.cls-16{fill:#e2e3e4;}</style></defs><rect class="cls-1" x="171.68" y="40.73" width="8.86" height="106.42"/><rect class="cls-2" x="159.66" y="70.83" width="33.47" height="3.57"/><rect class="cls-2" x="159.66" y="85.77" width="33.47" height="3.57"/><path class="cls-2" d="M231,145.58c-2.85,0-5.15,1.53-5.15,3.41h-.08v20.16h.08c0,1.88,2.3,3.4,5.15,3.4s5.14-1.52,5.14-3.4V149C236.14,147.11,233.84,145.58,231,145.58Z" transform="translate(-75 -78.66)"/><path class="cls-3" d="M238.22,145.58c-3.43,0-6.22,1.53-6.22,3.41h-.1v20.16h.1c0,1.88,2.79,3.4,6.22,3.4s6.22-1.52,6.22-3.4V149C244.44,147.11,241.66,145.58,238.22,145.58Z" transform="translate(-75 -78.66)"/><path class="cls-2" d="M272.24,146c2.85,0,5.15,1.52,5.15,3.4h.08v20.16h-.08c0,1.88-2.3,3.4-5.15,3.4s-5.14-1.52-5.14-3.4V149.43C267.1,147.55,269.4,146,272.24,146Z" transform="translate(-75 -78.66)"/><path class="cls-3" d="M265,146c3.43,0,6.22,1.52,6.22,3.4h.09v20.16h-.09c0,1.88-2.79,3.4-6.22,3.4s-6.22-1.52-6.22-3.4V149.43C258.8,147.55,261.58,146,265,146Z" transform="translate(-75 -78.66)"/><g class="cls-4"><path class="cls-5" d="M233.66,151.05q.38,7.78.07,15.58c0,.88.11,2,1.19,2.3a2.07,2.07,0,0,0,2.11-.82,3.34,3.34,0,0,0,.39-2q0-6.36,0-12.72c0-1.24.7-4.22-1.18-4.87C234.13,147.84,233.61,150,233.66,151.05Z" transform="translate(-75 -78.66)"/></g><g class="cls-4"><path class="cls-5" d="M261,164.08c0,1.28,0,2.56.14,3.83a.94.94,0,0,0,.45.85,1.08,1.08,0,0,0,1.19-.3,1.68,1.68,0,0,0,.3-1q.47-7.17.92-14.32c.07-1.07.65-3.71-1.3-4.07-2.26-.42-1.74,2.52-1.74,3.48C261,156.37,261,160.23,261,164.08Z" transform="translate(-75 -78.66)"/></g><g class="cls-4"><path class="cls-5" d="M227,149.39a2,2,0,0,0,.13,1.28,22.59,22.59,0,0,1,1,7.55c-.11,3.2-.91,6.39-.68,9.58,0,.33.17.74.59.76a.81.81,0,0,0,.68-.49,10,10,0,0,0,1-4.24,76.77,76.77,0,0,0-.36-13.89C229.21,148.93,227.46,148,227,149.39Z" transform="translate(-75 -78.66)"/></g><rect class="cls-2" x="143.07" y="144.97" width="65.72" height="5.16"/><rect class="cls-2" x="143.07" y="131.08" width="65.72" height="1.46"/><rect class="cls-2" x="143.07" y="135.71" width="65.72" height="0.73"/><rect class="cls-2" x="143.07" y="131.08" width="1.17" height="19.05"/><rect class="cls-2" x="153.18" y="131.08" width="1.17" height="19.05"/><rect class="cls-2" x="165.54" y="131.08" width="1.17" height="19.05"/><rect class="cls-2" x="175.34" y="131.08" width="1.16" height="19.05"/><rect class="cls-2" x="185.66" y="131.08" width="1.16" height="19.05"/><rect class="cls-2" x="196.22" y="131.08" width="1.16" height="19.05"/><rect class="cls-2" x="207.62" y="131.08" width="1.16" height="19.05"/><rect class="cls-2" x="174.29" y="147.89" width="4.67" height="178.93"/><path class="cls-2" d="M180.66,406.64l-.28,0c-.81-.12-1.34-.72-1.19-1.35.1-.45,10.72-44.6,21.26-88.22,6.19-25.63,11.13-46.06,14.7-60.73,2.12-8.71,3.78-15.46,4.91-20.06,2-8,2-8,2.36-8.28a1.82,1.82,0,0,1,2.12,0,1,1,0,0,1,.37,1.21c-1,3.28-28.4,116.75-42.78,176.52A1.44,1.44,0,0,1,180.66,406.64Zm43.91-177Zm0,0h0Zm0,0Z" transform="translate(-75 -78.66)"/><path class="cls-2" d="M199.14,406.64a1.36,1.36,0,0,1-1.5-1.16c0-.89,26.05-135.6,34-176.86a1.48,1.48,0,0,1,1.7-1c.81.1,1.38.69,1.25,1.32-.33,1.74-33.57,173.57-34,176.6A1.39,1.39,0,0,1,199.14,406.64Zm1.49-1.16v0Z" transform="translate(-75 -78.66)"/><path class="cls-2" d="M200,401.59a.74.74,0,0,1-.59-.25l-14-17.5a.44.44,0,0,1-.09-.41.57.57,0,0,1,.32-.33l18.51-8.51L192.47,354a.48.48,0,0,1,.28-.67l17-7.81-10.19-20.8a.48.48,0,0,1,.29-.65l15.43-7.18-9.11-19.59a.48.48,0,0,1,.28-.63l14-6.94-9.1-13.69a.46.46,0,0,1,.16-.65l13.66-9.53-7.52-16a.44.44,0,0,1,.05-.44.7.7,0,0,1,.46-.27l10.38-1.66-6.81-14.21a.5.5,0,0,1,.37-.67l12.47-4.37a.78.78,0,0,1,.91.27.49.49,0,0,1-.34.71l-11.89,4.16,6.87,14.32a.43.43,0,0,1,0,.45.69.69,0,0,1-.46.27l-10.38,1.66,7.39,15.7a.45.45,0,0,1-.18.58l-13.61,9.5L222,289.68a.48.48,0,0,1-.24.7l-14.09,7,9.11,19.6a.48.48,0,0,1-.29.64L201,324.77l10.2,20.8a.49.49,0,0,1-.29.65L194,354l11.62,20.57a.48.48,0,0,1-.28.68l-18.43,8.47,13.65,17a.47.47,0,0,1-.22.73A.8.8,0,0,1,200,401.59Z" transform="translate(-75 -78.66)"/><path class="cls-2" d="M321.66,406.64a1.44,1.44,0,0,1-1.47-.95c-14.38-59.77-41.74-173.24-42.79-176.52a1,1,0,0,1,.38-1.21,1.82,1.82,0,0,1,2.12,0c.38.31.38.31,2.35,8.28,1.14,4.6,2.79,11.35,4.91,20.06,3.57,14.67,8.52,35.1,14.71,60.73,10.53,43.62,21.15,87.77,21.26,88.22.15.63-.38,1.23-1.2,1.35Zm-43.92-177h0Zm0,0h0Zm0,0Z" transform="translate(-75 -78.66)"/><path class="cls-2" d="M303.18,406.64a1.39,1.39,0,0,1-1.49-1.08c-.43-3-33.67-174.86-34-176.6-.12-.63.44-1.22,1.26-1.32a1.48,1.48,0,0,1,1.7,1c8,41.26,34,176,34,176.86A1.36,1.36,0,0,1,303.18,406.64Zm-1.5-1.16a.26.26,0,0,0,0,.07A.2.2,0,0,1,301.68,405.48Z" transform="translate(-75 -78.66)"/><path class="cls-2" d="M302.37,401.59a.77.77,0,0,1-.37-.08.47.47,0,0,1-.22-.73l13.64-17L297,375.27a.48.48,0,0,1-.28-.68L308.33,354l-16.93-7.8a.48.48,0,0,1-.29-.65l10.19-20.8-15.42-7.18a.48.48,0,0,1-.3-.64l9.11-19.6-14.08-7a.47.47,0,0,1-.24-.7l9.14-13.76-13.61-9.5a.47.47,0,0,1-.19-.58l7.4-15.7-10.38-1.66a.74.74,0,0,1-.47-.27.43.43,0,0,1,0-.45l6.86-14.32-11.88-4.16a.5.5,0,0,1-.35-.71.79.79,0,0,1,.92-.27l12.47,4.37a.49.49,0,0,1,.36.67l-6.8,14.21,10.37,1.66a.7.7,0,0,1,.47.27.43.43,0,0,1,0,.44l-7.51,16,13.66,9.53a.46.46,0,0,1,.15.65l-9.1,13.69,14,6.94a.47.47,0,0,1,.28.63l-9.1,19.59,15.43,7.18a.48.48,0,0,1,.29.65l-10.19,20.8,16.95,7.81a.48.48,0,0,1,.28.67l-11.62,20.58,18.51,8.51a.55.55,0,0,1,.32.33.41.41,0,0,1-.08.41l-14,17.5A.72.72,0,0,1,302.37,401.59Z" transform="translate(-75 -78.66)"/><rect class="cls-2" x="163.74" y="44.39" width="26.17" height="3.39"/><path class="cls-6" d="M282.48,140.48s-5.67.65-9.84-1.51-9.11-6.5-10.42-12.06-1.49-8.8,1.22-13.72c3.76-6.85,9.72-6.77,9.72-6.77Z" transform="translate(-75 -78.66)"/><path class="cls-7" d="M266.65,125.49c2.81,9.38,10.28,16,16.68,14.89s9.31-9.7,6.51-19.08-10.28-16-16.68-14.88S263.85,116.11,266.65,125.49Z" transform="translate(-75 -78.66)"/><path class="cls-8" d="M268.79,125.26c2.59,8.63,9.07,14.84,14.48,13.86s7.71-8.76,5.12-17.39-9.07-14.84-14.48-13.86S266.21,116.63,268.79,125.26Z" transform="translate(-75 -78.66)"/><path class="cls-9" d="M269,125.15c-1.77-5.92-1.25-11.44,1-14.64,3.76,2.16,7.26,6.86,9,12.68s1.25,11.44-1,14.64C274.22,135.67,270.71,131,269,125.15Z" transform="translate(-75 -78.66)"/><g class="cls-10"><path class="cls-5" d="M279.51,111.48a5.7,5.7,0,0,1-1.89,2.15,11.45,11.45,0,0,0-3.59,5.56c-.17.63-.42,1.39-1.22,1.56a1.73,1.73,0,0,1-1.8-1,4.55,4.55,0,0,1,0-2.87c.56-2.44,1.34-5,3.64-6.74C276.29,108.87,280.27,109.08,279.51,111.48Z" transform="translate(-75 -78.66)"/></g><path class="cls-6" d="M220.32,142.76s5.67.65,9.84-1.52,9.11-6.49,10.42-12.05,1.48-8.81-1.22-13.73c-3.76-6.85-9.72-6.77-9.72-6.77Z" transform="translate(-75 -78.66)"/><path class="cls-7" d="M236.15,127.76c-2.81,9.38-10.28,16-16.68,14.89S210.15,133,213,123.58s10.28-16,16.68-14.89S239,118.38,236.15,127.76Z" transform="translate(-75 -78.66)"/><path class="cls-8" d="M234,127.54c-2.59,8.63-9.07,14.83-14.48,13.85s-7.71-8.76-5.12-17.39,9.07-14.84,14.48-13.86S236.59,118.91,234,127.54Z" transform="translate(-75 -78.66)"/><path class="cls-9" d="M233.83,127.42c1.77-5.92,1.25-11.44-1-14.64-3.76,2.16-7.26,6.87-9,12.68s-1.25,11.44,1,14.64C228.58,137.94,232.09,133.24,233.83,127.42Z" transform="translate(-75 -78.66)"/><g class="cls-10"><path class="cls-5" d="M223.29,113.76a5.6,5.6,0,0,0,1.89,2.14,11.45,11.45,0,0,1,3.59,5.56c.17.63.42,1.4,1.22,1.56a1.7,1.7,0,0,0,1.79-1,4.51,4.51,0,0,0,0-2.88c-.56-2.44-1.34-5-3.64-6.74C226.51,111.14,222.53,111.35,223.29,113.76Z" transform="translate(-75 -78.66)"/></g><path class="cls-2" d="M250.3,398.83c-.42,0-1,0-1.67-.09-1.31-.11-3.2-.31-5.63-.61-4.08-.5-9.72-1.26-16.79-2.28-12-1.72-24.15-3.59-24.27-3.61-.37-.06-.61-.34-.54-.63a.7.7,0,0,1,.81-.42c17.6,2.71,44.1,6.58,48,6.58h.11a46.18,46.18,0,0,0,.55-5.65l-47.53-9.37c-.35-.07-.57-.33-.52-.6L206,365.61a.57.57,0,0,1,.27-.35.9.9,0,0,1,.52-.1l43.41,5v-7.27l-41.8-6.33a.57.57,0,0,1-.55-.6l3.77-19.54a.52.52,0,0,1,.27-.35.89.89,0,0,1,.51-.1l37.75,4.42,0-7.36-36.42-4.13a.73.73,0,0,1-.45-.21.45.45,0,0,1-.13-.4l2.6-13.47a.67.67,0,0,1,.74-.46l34.36,2.16v-5.89l-33-3.27a.71.71,0,0,1-.46-.21.45.45,0,0,1-.14-.4l3.27-16.93a.68.68,0,0,1,.73-.46l29.5,1.39-.6-6.74-27.35-2.18a.79.79,0,0,1-.48-.21.46.46,0,0,1-.13-.41l2.64-13.7a.69.69,0,0,1,.74-.46l24.54,1.47-.05-7.57-22.81-1.57a.84.84,0,0,1-.47-.2.44.44,0,0,1-.15-.39l1.81-13.76a.65.65,0,0,1,.74-.48l21,1.37.59-6.4-19.52-1.24c-.38,0-.66-.28-.63-.58a.66.66,0,0,1,.74-.49l20.21,1.28c.37,0,.66.28.63.58l-.69,7.47a.55.55,0,0,1-.24.37.81.81,0,0,1-.51.12l-21-1.37-1.67,12.7L250.94,260a.61.61,0,0,1,.63.53l.06,8.64a.48.48,0,0,1-.22.39.84.84,0,0,1-.53.14l-24.64-1.47-2.45,12.66L251,283a.64.64,0,0,1,.62.5l.69,7.79a.49.49,0,0,1-.2.42.79.79,0,0,1-.53.15l-29.65-1.39-3.08,15.91,32.86,3.26a.6.6,0,0,1,.6.53v6.94a.5.5,0,0,1-.22.4.84.84,0,0,1-.53.14L217.1,315.5,214.7,328,251,332.07a.6.6,0,0,1,.59.53l-.05,8.45a.5.5,0,0,1-.24.4.83.83,0,0,1-.56.12l-37.85-4.43-3.56,18.5,41.7,6.31a.6.6,0,0,1,.56.53v8.34a.5.5,0,0,1-.24.4.88.88,0,0,1-.56.13L207.3,366.3l-3,15.53,47.47,9.36a.58.58,0,0,1,.52.54c0,.57-.27,5.63-.73,6.65C251.43,398.71,251.09,398.83,250.3,398.83Z" transform="translate(-75 -78.66)"/><path class="cls-2" d="M252.94,398.83c-.79,0-1.13-.12-1.28-.45-.46-1-.7-6.08-.73-6.65a.57.57,0,0,1,.52-.54l47.47-9.36-3-15.53-43.52,5.05a.87.87,0,0,1-.55-.13.5.5,0,0,1-.24-.4v-8.34a.6.6,0,0,1,.56-.53l41.7-6.31-3.56-18.5-37.85,4.43a.83.83,0,0,1-.56-.12.5.5,0,0,1-.24-.4l0-8.45a.6.6,0,0,1,.59-.53L288.54,328l-2.4-12.45-34.46,2.17a.84.84,0,0,1-.53-.14.5.5,0,0,1-.22-.4v-6.94a.6.6,0,0,1,.6-.53l32.85-3.26-3.07-15.91-29.65,1.39a.79.79,0,0,1-.53-.15.49.49,0,0,1-.2-.42l.69-7.79a.64.64,0,0,1,.62-.5l27.21-2.17L277,268.19l-24.65,1.47a.83.83,0,0,1-.52-.14.48.48,0,0,1-.22-.39l.06-8.64a.61.61,0,0,1,.63-.53L275,258.39l-1.67-12.7-21,1.37a.81.81,0,0,1-.51-.12.55.55,0,0,1-.24-.37l-.69-7.47c0-.3.26-.55.63-.58l20.21-1.28a.66.66,0,0,1,.74.49c0,.3-.25.55-.63.58l-19.52,1.24L253,246l21-1.37a.66.66,0,0,1,.74.48l1.81,13.76a.44.44,0,0,1-.15.39.84.84,0,0,1-.47.2L253.05,261l-.05,7.57,24.54-1.47a.67.67,0,0,1,.73.46l2.65,13.7a.46.46,0,0,1-.13.41.79.79,0,0,1-.48.21L253,284l-.6,6.74,29.5-1.39a.68.68,0,0,1,.73.46l3.27,16.93a.45.45,0,0,1-.14.4.73.73,0,0,1-.46.21l-32.95,3.27v5.89l34.36-2.16a.68.68,0,0,1,.74.46l2.6,13.47a.45.45,0,0,1-.13.4.76.76,0,0,1-.45.21L253,333.06l0,7.36L290.79,336a.9.9,0,0,1,.52.1.52.52,0,0,1,.27.35L295.35,356c0,.28-.19.55-.56.6L253,362.92v7.27l43.41-5a.92.92,0,0,1,.52.1.57.57,0,0,1,.27.35l3.18,16.54c.05.27-.17.53-.52.6l-47.53,9.37a46.18,46.18,0,0,0,.55,5.65H253c3.94,0,30.44-3.87,48-6.58a.71.71,0,0,1,.81.42c.07.29-.17.57-.54.63-.12,0-12.25,1.89-24.27,3.61-7.07,1-12.72,1.78-16.79,2.28-2.43.3-4.32.5-5.63.61C253.9,398.8,253.36,398.83,252.94,398.83Z" transform="translate(-75 -78.66)"/><path class="cls-2" d="M223.5,406.64h-.12c-.83-.05-1.44-.61-1.38-1.25L240.25,228.7a1.44,1.44,0,0,1,1.61-1.07c.83.05,1.44.61,1.38,1.25L225,405.57A1.4,1.4,0,0,1,223.5,406.64Z" transform="translate(-75 -78.66)"/><rect class="cls-2" x="160.68" y="119.31" width="29.5" height="2.27"/><rect class="cls-2" x="161.37" y="108.92" width="29.5" height="2.27"/><rect class="cls-2" x="161.18" y="98.52" width="29.5" height="2.27"/><rect class="cls-2" x="169.44" y="128.21" width="13.42" height="16.65"/><rect class="cls-1" x="174.46" y="3.2" width="2.82" height="38.62"/><path class="cls-2" d="M255.23,81.86c0,1.77-1.84,3.2-4.12,3.2S247,83.63,247,81.86s1.85-3.2,4.12-3.2S255.23,80.09,255.23,81.86Z" transform="translate(-75 -78.66)"/><rect class="cls-1" x="143.07" y="144.44" width="65.72" height="6.88"/><path class="cls-2" d="M283.79,406.64a1.41,1.41,0,0,1-1.49-1L257.83,228.91c-.09-.63.5-1.21,1.33-1.27a1.43,1.43,0,0,1,1.64,1l24.48,176.68c.08.64-.51,1.22-1.33,1.28Z" transform="translate(-75 -78.66)"/><rect class="cls-1" x="99.09" y="323.32" width="154.11" height="9.74"/><g id="Layer_1-2" data-name="Layer 1"><polygon class="cls-2" points="307.12 124.47 308.55 124.47 294.11 333.31 292.67 333.31 307.12 124.47"/><polygon class="cls-2" points="335.81 128.34 349.99 333.31 348.55 333.31 334.37 128.23 335.81 128.34"/><rect class="cls-2" x="320.69" y="124.47" width="1.58" height="208.84"/><path class="cls-2" d="M396.48,404.46a.44.44,0,0,0,.3-.17c9.24-10.52,23.16-26.3,24.35-27.4a.82.82,0,0,0,.34-.43,4.31,4.31,0,0,0,.25-1.83,2.88,2.88,0,0,0-.39-1.38.51.51,0,0,0-.25-.21c-1.13-.9-13.86-12.69-23.06-21.25l19.48-38.93a3.86,3.86,0,0,0,.29-1.83,2.57,2.57,0,0,0-.48-1.54l-19.34-19,15.32-32.61a3.8,3.8,0,0,0,.27-1.75,2.78,2.78,0,0,0-.42-1.51l-15.27-18.71,12-27.76c.31-.72,0-.79-.28-1.59s-1.28,0-1.28,0L396,235a4.13,4.13,0,0,0-.24,1.72,2.74,2.74,0,0,0,.42,1.49l15.18,18.66L396.06,289.6a3.94,3.94,0,0,0-.27,1.81,2.64,2.64,0,0,0,.48,1.52l19.31,18.91-19.52,39a3.92,3.92,0,0,0-.29,1.84,2.55,2.55,0,0,0,.49,1.54l12.24,11.42c3.55,3.28,6.38,5.89,8.42,7.76l2,1.79-2.08,2.19c-2,2.28-4.87,5.48-8.42,9.49-6,6.85-12.15,13.79-12.21,13.87a3.65,3.65,0,0,0-.38,2.61C395.92,404,396.19,404.46,396.48,404.46Z" transform="translate(-75 -78.66)"/><path class="cls-2" d="M396.48,404.46c.29,0,.56-.45.69-1.18a3.7,3.7,0,0,0-.39-2.61c-.06-.07-6.17-7-12.21-13.86-3.54-4-6.38-7.22-8.42-9.5l-2-2.27,2-1.79c2-1.86,4.87-4.47,8.42-7.76l12.22-11.35a2.55,2.55,0,0,0,.49-1.54,4.05,4.05,0,0,0-.28-1.84l-19.5-39,19.31-18.92a2.51,2.51,0,0,0,.47-1.51,4.05,4.05,0,0,0-.26-1.81l-15.39-32.77,15.22-18.65a2.6,2.6,0,0,0,.43-1.48,4.16,4.16,0,0,0-.24-1.73l-12.87-29.73c-.31-.72-.78-.64-1.05.16a4.45,4.45,0,0,0,.06,2.75l12,27.81-15.32,18.71a2.84,2.84,0,0,0-.42,1.52,3.91,3.91,0,0,0,.27,1.74L395,290.5l-19.36,19a2.6,2.6,0,0,0-.47,1.53,3.74,3.74,0,0,0,.28,1.83l19.48,38.93c-9.2,8.56-21.93,20.35-23.06,21.25a.51.51,0,0,0-.25.21,2.88,2.88,0,0,0-.39,1.38,4.14,4.14,0,0,0,.26,1.83.86.86,0,0,0,.33.43c1.19,1.16,15.12,17,24.35,27.4A.42.42,0,0,0,396.48,404.46Z" transform="translate(-75 -78.66)"/><polygon class="cls-2" points="305.75 127.31 338.05 135.14 338.8 128.89 305.75 118.19 305.75 127.31"/><polygon class="cls-2" points="257.79 112.26 256.36 112.26 270.8 332.61 272.25 332.61 257.79 112.26"/><polygon class="cls-2" points="229.37 112.26 214.92 332.61 216.37 332.61 230.81 112.26 229.37 112.26"/><rect class="cls-2" x="242.64" y="112.26" width="1.58" height="220.35"/><path class="cls-2" d="M318.42,403.33a.39.39,0,0,1-.3-.16c-9.24-11.11-23.16-27.75-24.35-29a1,1,0,0,1-.34-.46,4.59,4.59,0,0,1-.25-1.93,3.07,3.07,0,0,1,.39-1.45.55.55,0,0,1,.25-.23c1.13-.95,13.86-13.39,23.06-22.43l-19.44-41.07a4.28,4.28,0,0,1-.27-1.93,2.71,2.71,0,0,1,.47-1.61l19.35-20-15.31-34.37a4.38,4.38,0,0,1-.27-1.84,3.07,3.07,0,0,1,.42-1.61l15.32-19.72-12-29.3a4.94,4.94,0,0,1-.06-2.9c.27-.85.74-.93,1-.18L319,224.45a4.64,4.64,0,0,1,.24,1.82,3,3,0,0,1-.42,1.57l-15.23,19.67,15.34,34.6a4.28,4.28,0,0,1,.27,1.92,2.81,2.81,0,0,1-.47,1.59l-19.33,20,19.5,41.11a4.43,4.43,0,0,1,.28,2,2.73,2.73,0,0,1-.49,1.62c-.06,0-6.17,6.06-12.22,12-3.55,3.47-6.38,6.24-8.42,8.19l-2,1.91,2,2.38c2,2.42,4.86,5.78,8.41,10l12.21,14.63a4,4,0,0,1,.39,2.71C319,402.88,318.71,403.33,318.42,403.33Z" transform="translate(-75 -78.66)"/><path class="cls-2" d="M318.42,403.33c-.29,0-.56-.45-.68-1.22a4,4,0,0,1,.38-2.71l12.21-14.63,8.42-10,2-2.39-2-1.9c-2-2-4.87-4.72-8.42-8.19-6-5.9-12.16-11.91-12.22-12a2.79,2.79,0,0,1-.49-1.61,4.44,4.44,0,0,1,.29-2l19.5-41.14-19.31-20a2.85,2.85,0,0,1-.48-1.59,4.57,4.57,0,0,1,.27-1.92l15.38-34.57-15.22-19.67a3.12,3.12,0,0,1-.43-1.57,4.62,4.62,0,0,1,.24-1.82l12.87-31.31c.31-.75.78-.67,1,.18a4.75,4.75,0,0,1-.06,2.89l-12,29.31,15.32,19.72a3.16,3.16,0,0,1,.42,1.61,4.38,4.38,0,0,1-.27,1.84L319.91,283.1l19.36,20a2.78,2.78,0,0,1,.48,1.61,4.45,4.45,0,0,1-.28,1.93L320,347.73c9.2,9,21.94,21.48,23.07,22.43a.53.53,0,0,1,.24.23,3.07,3.07,0,0,1,.39,1.45,4.61,4.61,0,0,1-.25,1.93.9.9,0,0,1-.34.46c-1.18,1.23-15.1,17.87-24.35,29A.35.35,0,0,1,318.42,403.33Z" transform="translate(-75 -78.66)"/><polygon class="cls-2" points="259.72 116.03 227.11 116.03 227.11 107.31 259.72 109.73 259.72 116.03"/><polygon class="cls-2" points="130.3 112.43 128.86 112.43 143.31 332.77 144.75 332.77 130.3 112.43"/><polygon class="cls-2" points="101.88 112.43 87.42 332.77 88.87 332.77 103.31 112.43 101.88 112.43"/><rect class="cls-2" x="115.15" y="112.44" width="1.58" height="220.35"/><path class="cls-2" d="M190.93,403.52a.44.44,0,0,1-.3-.17c-9.24-11.1-23.16-27.76-24.35-29a.85.85,0,0,1-.34-.44,4.63,4.63,0,0,1-.24-1.93,3.15,3.15,0,0,1,.38-1.47.56.56,0,0,1,.24-.22c1.14-.95,13.87-13.4,23.06-22.42l-19.47-41.07a4.33,4.33,0,0,1-.29-1.93,2.72,2.72,0,0,1,.48-1.62l19.35-20-15.32-34.38a4.34,4.34,0,0,1-.27-1.84,3.13,3.13,0,0,1,.42-1.6l15.32-19.74-12-29.29a5,5,0,0,1-.06-2.91c.27-.85.74-.93,1.05-.17l12.86,31.31a4.38,4.38,0,0,1,.25,1.84,3.17,3.17,0,0,1-.42,1.57L176,247.7l15.38,34.57a4.44,4.44,0,0,1,.27,1.93,2.9,2.9,0,0,1-.48,1.59l-19.31,20,19.5,41.11a4.35,4.35,0,0,1,.29,1.94,2.73,2.73,0,0,1-.49,1.62c-.07.07-6.17,6.07-12.22,12l-8.42,8.19-2,1.89,2,2.4c2,2.42,4.87,5.78,8.42,10,6,7.27,12.15,14.63,12.21,14.63a4.12,4.12,0,0,1,.38,2.7C191.49,403.06,191.22,403.52,190.93,403.52Z" transform="translate(-75 -78.66)"/><path class="cls-2" d="M190.93,403.52c-.28,0-.56-.46-.69-1.24a4.07,4.07,0,0,1,.39-2.7c.06-.08,6.17-7.41,12.21-14.63,3.55-4.24,6.38-7.6,8.42-10l2-2.4-1.92-1.89c-2-2-4.87-4.72-8.42-8.19-6-5.91-12.16-11.91-12.23-12a2.79,2.79,0,0,1-.48-1.62,4.21,4.21,0,0,1,.28-1.94L210,305.8l-19.31-20a2.81,2.81,0,0,1-.47-1.59,4.64,4.64,0,0,1,.26-1.93l15.39-34.57-15.24-19.66a3.28,3.28,0,0,1-.42-1.57,4.72,4.72,0,0,1,.25-1.84l12.86-31.31c.32-.75.79-.68,1.06.17a5,5,0,0,1-.06,2.91l-12,29.29,15.27,19.74a3,3,0,0,1,.43,1.6,4.36,4.36,0,0,1-.27,1.84L192.44,283.3l19.34,20a2.66,2.66,0,0,1,.48,1.62,4.17,4.17,0,0,1-.28,1.93L192.5,347.93c9.2,9,21.93,21.47,23.07,22.42a.77.77,0,0,1,.25.23,3.28,3.28,0,0,1,.38,1.44,4.4,4.4,0,0,1-.26,2,.78.78,0,0,1-.34.44c-1.18,1.23-15.1,17.89-24.34,29A.37.37,0,0,1,190.93,403.52Z" transform="translate(-75 -78.66)"/><polygon class="cls-2" points="132.22 116.2 99.61 116.2 99.61 108.71 132.22 106.58 132.22 116.2"/><path class="cls-11" d="M326.17,294.3c0,21.48-14.36,38.9-32,38.9s-32-17.42-32-38.9,14.37-38.91,32-38.91S326.17,272.81,326.17,294.3Z" transform="translate(-75 -78.66)"/><path class="cls-12" d="M318.58,294.3c0,21.48-14.36,38.9-32,38.9s-32-17.42-32-38.9,14.36-38.91,32-38.91S318.58,272.81,318.58,294.3Z" transform="translate(-75 -78.66)"/><rect class="cls-13" x="136.72" y="209.79" width="76.56" height="56.22"/><polygon class="cls-11" points="220.52 243.6 211.27 243.6 259.82 328.5 269.07 328.5 220.52 243.6"/><polygon class="cls-12" points="124.61 243.6 76.78 328.5 260.34 328.5 212.52 243.6 124.61 243.6"/><polygon class="cls-11" points="137.06 243.6 127.81 243.6 161.93 328.5 171.18 328.5 137.06 243.6"/><rect class="cls-11" x="66.25" y="328.29" width="213.36" height="5.84"/><rect class="cls-14" x="161.51" y="209.79" width="26.95" height="19.79"/><rect class="cls-13" x="164.03" y="218.22" width="21.92" height="2.92"/><rect class="cls-13" x="164.03" y="223.96" width="21.92" height="2.92"/><rect class="cls-13" x="164.03" y="212.49" width="21.92" height="2.92"/><polygon class="cls-15" points="132.51 243.29 212.52 243.29 239.2 195.18 124.99 207.77 132.51 243.29"/><path class="cls-11" d="M225.34,288.37H195V263.85H180.32V259c-11,6.16-18.62,19.66-18.62,35.33,0,21.49,14.36,38.9,32,38.9s32-17.41,32-38.9A49.75,49.75,0,0,0,225.34,288.37Z" transform="translate(-75 -78.66)"/><path class="cls-12" d="M217.82,288.37H195V263.85H180.32V256c-14.87,3.34-26.14,19.19-26.14,38.24,0,21.48,14.36,38.9,32,38.9s32-17.42,32-38.9A48.25,48.25,0,0,0,217.82,288.37Z" transform="translate(-75 -78.66)"/><path class="cls-15" d="M163,267.54c-10.85,13.23-11.78,35.95-2.06,50.73a30.66,30.66,0,0,0,2.52,3.36l34.68-33Z" transform="translate(-75 -78.66)"/><polygon class="cls-12" points="216.06 209.76 339.98 131.63 338.15 115.44 166.85 94.53 16.25 115.44 7.27 131.63 117.92 209.76 216.06 209.76"/><path class="cls-11" d="M81.07,196.93c0,1.1.43,12.29,1.19,13.36C92,196.62,162.76,186,248.62,186S405.21,196.62,415,210.36c.76-1.07,1.19-12.27,1.19-13.36,0-15.2-75-27.52-167.54-27.52S81.07,181.73,81.07,196.93Z" transform="translate(-75 -78.66)"/><path class="cls-16" d="M150.61,194.1,174,188.88c-49.48,4.06-85,12-91.76,21.43l110.66,78.13h21L145,210.31Z" transform="translate(-75 -78.66)"/><path class="cls-16" d="M325.38,189.05l25.68,5,1.16,16.26-77.17,78.13h16L415,210.36C408.35,201,373.73,193.16,325.38,189.05Z" transform="translate(-75 -78.66)"/><polygon class="cls-2" points="257.8 113.72 256.37 113.72 270.81 334.07 272.26 334.07 257.8 113.72"/><polygon class="cls-2" points="229.38 113.72 214.93 334.07 216.37 334.07 230.82 113.72 229.38 113.72"/><rect class="cls-2" x="242.65" y="113.72" width="1.58" height="220.35"/><path class="cls-2" d="M318.43,404.81a.42.42,0,0,1-.3-.18c-9.24-11.09-23.17-27.75-24.35-29a.85.85,0,0,1-.34-.44,4.71,4.71,0,0,1-.25-1.95,3.12,3.12,0,0,1,.39-1.44.5.5,0,0,1,.25-.23c1.13-.95,13.86-13.39,23.06-22.42L297.44,308.1a4.45,4.45,0,0,1-.28-1.93,2.66,2.66,0,0,1,.48-1.62l19.35-20-15.31-34.38a4.19,4.19,0,0,1-.27-1.84,3.13,3.13,0,0,1,.42-1.62L317.1,227l-12-29.3a4.86,4.86,0,0,1-.05-2.9c.26-.85.74-.93,1.05-.17L319,225.92a4.67,4.67,0,0,1,.24,1.83,3.32,3.32,0,0,1-.42,1.58L303.55,249l15.39,34.57a4.57,4.57,0,0,1,.27,1.92,2.9,2.9,0,0,1-.48,1.59l-19.37,20,19.5,41.11a4.39,4.39,0,0,1,.29,1.95,2.7,2.7,0,0,1-.49,1.61l-12.22,12c-3.55,3.47-6.38,6.22-8.42,8.19l-2,1.89,2,2.41c2,2.4,4.87,5.77,8.42,10,6,7.22,12.15,14.55,12.21,14.63a4,4,0,0,1,.38,2.7C319,404.34,318.72,404.81,318.43,404.81Z" transform="translate(-75 -78.66)"/><path class="cls-2" d="M318.43,404.81c-.29,0-.56-.47-.69-1.24a4.07,4.07,0,0,1,.39-2.7c.06-.08,6.17-7.41,12.21-14.63,3.55-4.24,6.38-7.61,8.42-10l2-2.41-2-1.89c-2-2-4.87-4.72-8.42-8.19l-12.22-12a2.7,2.7,0,0,1-.49-1.61,4.54,4.54,0,0,1,.28-1.95l19.5-41.11-19.31-20a2.79,2.79,0,0,1-.47-1.59,4.42,4.42,0,0,1,.27-1.92L333.34,249l-15.23-19.66a3.05,3.05,0,0,1-.42-1.58,4.67,4.67,0,0,1,.24-1.83l12.87-31.31c.31-.75.78-.68,1.05.17a4.94,4.94,0,0,1-.06,2.9l-12,29.3,15.32,19.73a3.16,3.16,0,0,1,.42,1.61,4.34,4.34,0,0,1-.27,1.84l-15.32,34.38,19.36,20a2.76,2.76,0,0,1,.47,1.62,4.17,4.17,0,0,1-.28,1.93l-19.5,41c9.2,9,21.94,21.47,23.07,22.42a.6.6,0,0,1,.25.23,3.24,3.24,0,0,1,.38,1.44,4.71,4.71,0,0,1-.25,1.95.9.9,0,0,1-.34.44c-1.18,1.23-15.11,17.89-24.35,29A.46.46,0,0,1,318.43,404.81Z" transform="translate(-75 -78.66)"/><polygon class="cls-2" points="259.72 117.49 227.12 117.49 227.12 108.77 259.72 111.19 259.72 117.49"/><polygon class="cls-2" points="130.31 113.9 128.87 113.9 143.31 334.25 144.76 334.25 130.31 113.9"/><polygon class="cls-2" points="101.88 113.9 87.43 334.25 88.88 334.25 103.32 113.9 101.88 113.9"/><rect class="cls-2" x="115.16" y="113.9" width="1.58" height="220.35"/><path class="cls-2" d="M190.93,405a.42.42,0,0,1-.29-.17c-9.24-11.1-23.16-27.75-24.35-29a.84.84,0,0,1-.34-.45,4.48,4.48,0,0,1-.25-1.93,3.15,3.15,0,0,1,.38-1.45.64.64,0,0,1,.25-.24c1.13-.94,13.86-13.38,23.06-22.41l-19.47-41.07a4.31,4.31,0,0,1-.29-1.93,2.75,2.75,0,0,1,.48-1.63l19.35-20-15.32-34.38a4.75,4.75,0,0,1-.27-1.85,3.13,3.13,0,0,1,.43-1.6l15.27-19.73-12-29.3a4.94,4.94,0,0,1-.07-2.9c.28-.84.75-.92,1.06-.17l12.86,31.31a4.67,4.67,0,0,1,.25,1.83,3.28,3.28,0,0,1-.42,1.57L176,249.17l15.38,34.57a4.57,4.57,0,0,1,.26,1.92,2.73,2.73,0,0,1-.5,1.67l-19.31,20,19.5,41.12a4.21,4.21,0,0,1,.28,1.94,2.66,2.66,0,0,1-.48,1.62c-.06.07-6.17,6.07-12.22,12-3.56,3.47-6.39,6.22-8.43,8.19L168.6,374l2,2.39c2,2.41,4.87,5.79,8.41,10,6,7.22,12.15,14.55,12.22,14.63a4.13,4.13,0,0,1,.38,2.7C191.5,404.52,191.22,405,190.93,405Z" transform="translate(-75 -78.66)"/><path class="cls-2" d="M190.93,405c-.28,0-.55-.46-.68-1.23a4.07,4.07,0,0,1,.39-2.7c.06-.08,6.16-7.41,12.2-14.62,3.55-4.24,6.39-7.62,8.43-10l2-2.38-2-1.88-8.42-8.19c-6-5.91-12.16-11.92-12.23-12a2.72,2.72,0,0,1-.48-1.62,4.21,4.21,0,0,1,.28-1.94L210,307.28l-19.32-19.95a2.81,2.81,0,0,1-.47-1.59,4.42,4.42,0,0,1,.26-1.92l15.39-34.57-15.23-19.68a3,3,0,0,1-.42-1.56,4.49,4.49,0,0,1,.24-1.83l12.86-31.31c.32-.75.79-.68,1.06.17a4.94,4.94,0,0,1-.06,2.9l-12,29.3L207.6,247a3.19,3.19,0,0,1,.42,1.61,4.25,4.25,0,0,1-.27,1.85l-15.33,34.3,19.35,20a2.75,2.75,0,0,1,.47,1.63,4.17,4.17,0,0,1-.28,1.93l-19.48,41.07c9.19,9,21.93,21.47,23.07,22.41a.69.69,0,0,1,.24.24,3.28,3.28,0,0,1,.38,1.45,4.48,4.48,0,0,1-.25,1.93.87.87,0,0,1-.33.45c-1.19,1.23-15.11,17.88-24.35,29A.44.44,0,0,1,190.93,405Z" transform="translate(-75 -78.66)"/><polygon class="cls-2" points="132.23 117.67 99.62 117.67 99.62 110.17 132.23 108.06 132.23 117.67"/><polygon class="cls-2" points="42.88 122.33 41.44 122.33 55.88 342.68 57.33 342.68 42.88 122.33"/><polygon class="cls-2" points="14.18 126.41 0 342.68 1.45 342.68 15.63 126.3 14.18 126.41"/><rect class="cls-2" x="27.72" y="122.33" width="1.58" height="220.35"/><path class="cls-2" d="M103.5,413.42a.39.39,0,0,1-.29-.18C94,402.13,80,385.49,78.85,384.26a.86.86,0,0,1-.33-.45,4.66,4.66,0,0,1-.26-1.94,3.28,3.28,0,0,1,.39-1.44.58.58,0,0,1,.25-.24c1.13-.94,13.86-13.38,23.06-22.41L82.48,316.71a4.3,4.3,0,0,1-.28-1.93,2.92,2.92,0,0,1,.47-1.63l19.36-20L86.71,258.77a4.41,4.41,0,0,1-.27-1.85,3.19,3.19,0,0,1,.42-1.61l15.32-19.72-12-29.3c-.31-.75,0-.82.27-1.67s1.28,0,1.28,0l12.3,30a4.49,4.49,0,0,1,.24,1.83,3,3,0,0,1-.42,1.57L88.6,257.69,104,292.26a4.57,4.57,0,0,1,.26,1.92,2.81,2.81,0,0,1-.47,1.59l-19.31,20L104,356.85a4.39,4.39,0,0,1,.28,1.95,2.7,2.7,0,0,1-.49,1.61l-12.22,12c-3.55,3.47-6.38,6.22-8.42,8.19l-2,1.89,2,2.4c2,2.41,4.87,5.78,8.41,10,6,7.22,12.15,14.55,12.21,14.63a4,4,0,0,1,.39,2.7C104.05,413,103.79,413.42,103.5,413.42Z" transform="translate(-75 -78.66)"/><path class="cls-2" d="M103.5,413.42c-.29,0-.56-.47-.68-1.24a4,4,0,0,1,.39-2.7c.05-.08,6.16-7.41,12.2-14.62,3.55-4.24,6.39-7.62,8.43-10l2-2.4-2-1.9c-2-2-4.87-4.72-8.41-8.19-6-5.91-12.17-11.91-12.23-12a2.79,2.79,0,0,1-.49-1.61,4.39,4.39,0,0,1,.29-1.95l19.5-41.12-19.31-20a2.9,2.9,0,0,1-.48-1.59,4.57,4.57,0,0,1,.27-1.92l15.38-34.57L103.19,238a3.15,3.15,0,0,1-.43-1.57,4.67,4.67,0,0,1,.24-1.83l12.87-31.31c.31-.75.79-.67,1,.17a4.86,4.86,0,0,1,0,2.9l-12,29.25,15.32,19.72a3.19,3.19,0,0,1,.42,1.61,4.25,4.25,0,0,1-.27,1.85L105,293.15l19.35,20a2.75,2.75,0,0,1,.48,1.63,4.45,4.45,0,0,1-.28,1.93L105,357.78c9.2,9,21.93,21.47,23.06,22.41a.64.64,0,0,1,.25.24,3.28,3.28,0,0,1,.38,1.44,4.5,4.5,0,0,1-.25,1.94.87.87,0,0,1-.33.45c-1.19,1.23-15.11,17.87-24.36,29A.42.42,0,0,1,103.5,413.42Z" transform="translate(-75 -78.66)"/><polygon class="cls-2" points="44.24 125.32 11.94 133.59 11.2 126.99 44.24 115.7 44.24 125.32"/><polygon class="cls-2" points="307.13 125.94 308.56 125.94 294.12 334.77 292.67 334.77 307.13 125.94"/><polygon class="cls-2" points="335.82 129.81 350 334.77 348.55 334.77 334.38 129.7 335.82 129.81"/><rect class="cls-2" x="320.7" y="125.94" width="1.58" height="208.84"/><path class="cls-2" d="M396.49,405.92a.45.45,0,0,0,.3-.16c9.24-10.53,23.16-26.3,24.35-27.4a.83.83,0,0,0,.34-.43,4.33,4.33,0,0,0,.25-1.84,2.77,2.77,0,0,0-.39-1.36.68.68,0,0,0-.25-.23c-1.13-.88-13.86-12.68-23.06-21.25l19.48-38.92a3.84,3.84,0,0,0,.29-1.82,2.63,2.63,0,0,0-.48-1.54l-19.35-19,15.32-32.61a3.93,3.93,0,0,0,.27-1.75,2.84,2.84,0,0,0-.42-1.52l-15.32-18.7,12-27.76c.32-.72,0-.8-.26-1.59s-1.29,0-1.29,0L396,236.45a4.2,4.2,0,0,0-.24,1.73,2.92,2.92,0,0,0,.42,1.49l15.21,18.63-15.32,32.76a4,4,0,0,0-.27,1.83,2.42,2.42,0,0,0,.48,1.5l19.3,18.93-19.51,38.95a4,4,0,0,0-.29,1.86,2.41,2.41,0,0,0,.49,1.52c.06.07,6.17,5.75,12.22,11.35,3.55,3.29,6.38,5.9,8.42,7.76l2,1.8-2,2.27-8.41,9.5c-6.06,6.84-12.17,13.8-12.23,13.8a3.65,3.65,0,0,0-.38,2.61C395.92,405.49,396.2,405.92,396.49,405.92Z" transform="translate(-75 -78.66)"/><path class="cls-2" d="M396.49,405.92c.29,0,.56-.43.68-1.16a3.64,3.64,0,0,0-.38-2.61c-.06-.07-6.17-7-12.21-13.86l-8.42-9.49-2-2.27,2-1.81c2-1.86,4.87-4.47,8.42-7.76,6-5.59,12.16-11.28,12.22-11.35a2.47,2.47,0,0,0,.49-1.52,4,4,0,0,0-.29-1.86l-19.49-39,19.3-18.93a2.49,2.49,0,0,0,.48-1.5A4.16,4.16,0,0,0,397,291l-15.38-32.76,15.22-18.64a2.83,2.83,0,0,0,.43-1.49,4.12,4.12,0,0,0-.22-1.68L384.12,206.7c-.31-.7-.78-.63-1.05.17a4.34,4.34,0,0,0,.06,2.76l12,27.76-15.32,18.69a2.9,2.9,0,0,0-.42,1.53,3.93,3.93,0,0,0,.27,1.75L395,292l-19.35,19a2.57,2.57,0,0,0-.48,1.54,4,4,0,0,0,.28,1.83l19.49,38.92c-9.2,8.57-21.94,20.36-23.07,21.25a.74.74,0,0,0-.25.22,3,3,0,0,0-.38,1.37,4.22,4.22,0,0,0,.25,1.84.82.82,0,0,0,.34.43c1.18,1.16,15.1,17,24.35,27.4A.46.46,0,0,0,396.49,405.92Z" transform="translate(-75 -78.66)"/><polygon class="cls-2" points="305.76 128.77 338.06 136.62 338.81 130.35 305.76 119.66 305.76 128.77"/></g></svg>