<?xml version="1.0" encoding="utf-8"?>
<!-- Generator: Adobe Illustrator 24.2.3, SVG Export Plug-In . SVG Version: 6.00 Build 0)  -->
<svg version="1.1" id="Layer_1" xmlns="http://www.w3.org/2000/svg" xmlns:xlink="http://www.w3.org/1999/xlink" x="0px" y="0px"
	 viewBox="0 0 512 512" style="enable-background:new 0 0 512 512;" xml:space="preserve">
<style type="text/css">
	.st0{fill:#E8F8FC;}
	.st1{fill:#D6F4FC;}
	.st2{fill:#42434D;}
	.st3{fill:#F1FAFC;}
	.st4{fill:#75F6FC;}
	.st5{fill:#BBFBFF;}
	.st6{fill:#4D4E59;}
</style>
<g>
	<path class="st0" d="M416.6,277.2v103.3L361,306.8l-6.7,20.4c-1.6,5-6.3,8.3-11.5,8.3H169.3c-5.2,0-9.9-3.4-11.5-8.3l-6.7-20.4
		l-55.6,73.7V277.2l56.8-22.5c0.8-2.8,23.8-86.8,42.8-156.5c1.4-5.3,6.2-8.9,11.7-8.9h98.5c5.5,0,10.2,3.7,11.7,8.9
		c4.6,16.8,18.6,67.9,42.8,156.5L416.6,277.2z"/>
	<path class="st1" d="M416.6,277.2v103.3L361,306.8l7.1-21.6l-8.3-30.5L416.6,277.2z"/>
	<path class="st1" d="M152.2,254.7l-8.3,30.5l7.1,21.6l-55.6,73.7V277.2L152.2,254.7z"/>
	<path class="st2" d="M143.9,285.2c8.6,26.1,5.4,16.5,13.9,42c1.6,5,6.3,8.3,11.5,8.3h173.5c5.2,0,9.9-3.4,11.5-8.3
		c8.5-25.7,5.3-16,13.9-42C358.3,285.2,153.7,285.2,143.9,285.2z"/>
	<path class="st3" d="M316.9,98.3c1.6,5.9-2.8,11.8-9,11.8h-69c-5.5,0-10.2,3.7-11.7,8.9c-4.2,15.2-42.9,156.6-45.5,166.3h-37.8
		c8.8-32.3,36.8-134.5,51.2-187c1.4-5.3,6.2-8.9,11.7-8.9h98.5C310.7,89.4,315.5,93,316.9,98.3L316.9,98.3z"/>
	<circle class="st4" cx="256" cy="190.8" r="28"/>
	<path class="st5" d="M267,180.8c-10.3,2.4-18.6,10.7-21.1,21c-1.7,7.2-11.4,8.4-14.8,1.8c-12.4-24.1,13.6-50.2,37.8-37.7
		C275.5,169.3,274.2,179.1,267,180.8z"/>
	<path class="st6" d="M189.7,335.7h-20.5c-5.2,0-9.9-3.4-11.5-8.3c-8.4-25.3-5.4-16.3-13.9-42h37.6c8.6,26,5.5,16.5,13.9,42
		C196.9,331.9,193.7,335.7,189.7,335.7L189.7,335.7z"/>
	<path d="M256,231c22.1,0,40.1-18,40.1-40.1s-18-40.1-40.1-40.1s-40.1,18-40.1,40.1S233.9,231,256,231z M256,174.9
		c8.8,0,15.9,7.1,15.9,15.9c0,8.8-7.1,15.9-15.9,15.9s-15.9-7.1-15.9-15.9C240.1,182.1,247.2,174.9,256,174.9z M431.7,410.5h-3
		V277.2c0-5-3-9.4-7.7-11.3l-51.2-20.2c-2-7.2-42-153.6-43.7-159.5c-1.4-5.3-6.2-8.9-11.7-8.9h-117c-5.5,0-10.2,3.7-11.7,8.9
		c-1.6,5.8-41.7,152.4-43.7,159.5L91,265.9c-4.6,1.8-7.7,6.3-7.7,11.3v133.3h-3c-6.7,0-12.1,5.4-12.1,12.1c0,6.7,5.4,12.1,12.1,12.1
		h54.5c6.7,0,12.1-5.4,12.1-12.1c0-6.7-5.4-12.1-12.1-12.1h-27.3v-26l39.2-52l2.2,6.8c1.6,5,6.3,8.3,11.5,8.3h83.4v62.9h-13.6
		c-6.7,0-12.1,5.4-12.1,12.1c0,6.7,5.4,12.1,12.1,12.1h51.5c6.7,0,12.1-5.4,12.1-12.1c0-6.7-5.4-12.1-12.1-12.1h-13.6v-62.9h83.4
		c5.2,0,9.9-3.4,11.5-8.3l2.2-6.8l39.2,52v26h-27.3c-6.7,0-12.1,5.4-12.1,12.1c0,6.7,5.4,12.1,12.1,12.1h54.5
		c6.7,0,12.1-5.4,12.1-12.1C443.9,416,438.4,410.5,431.7,410.5L431.7,410.5z M206.7,101.5h98.5l11.5,41.9h-1.6
		c-6.7,0-12.1,5.4-12.1,12.1s5.4,12.1,12.1,12.1h8.3l12.8,46.7h-16.5c-6.7,0-12.1,5.4-12.1,12.1c0,6.7,5.4,12.1,12.1,12.1h23.1
		l9.5,34.5h-84.1v-18.6c0-6.7-5.4-12.1-12.1-12.1c-6.7,0-12.1,5.4-12.1,12.1v18.6h-84.1l9.5-34.5h23.1c6.7,0,12.1-5.4,12.1-12.1
		s-5.4-12.1-12.1-12.1h-16.5l12.8-46.7h8.3c6.7,0,12.1-5.4,12.1-12.1s-5.4-12.1-12.1-12.1h-1.6L206.7,101.5z M107.5,344.3v-58.9
		l26.6-10.5c-3.5,12.9-3.7,8.3,3.4,29.7L107.5,344.3z M169.3,323.4c-3.2-9.6-7.1-21.6-8.6-26.1h83.2v26.1H169.3z M268.1,323.4v-26.1
		h83.2c-1.5,4.4-5.4,16.5-8.6,26.1H268.1z M374.5,304.6c7-21.2,7-16.6,3.4-29.7l26.6,10.5v58.9L374.5,304.6z"/>
</g>
</svg>
