<?xml version="1.0" encoding="utf-8"?>
<!-- Generator: Adobe Illustrator 24.3.0, SVG Export Plug-In . SVG Version: 6.00 Build 0)  -->
<svg version="1.1" id="Layer_1" xmlns="http://www.w3.org/2000/svg" xmlns:xlink="http://www.w3.org/1999/xlink" x="0px" y="0px"
	 viewBox="0 0 500 500" style="enable-background:new 0 0 500 500;" xml:space="preserve">
<style type="text/css">
	.st0{fill:#706F6F;}
	.st1{fill:#575756;}
	.st2{fill:#3C3C3B;}
	.st3{fill:#DADADA;}
	.st4{fill:#EDEDED;}
	.st5{opacity:0.05;fill:#1D1D1B;}
	.st6{opacity:0.2;fill:none;stroke:#B2B2B2;stroke-width:1.5;stroke-miterlimit:10;}
	.st7{fill:#C6C6C6;}
</style>
<g>
	<path class="st0" d="M296.26,296.63l-17.68-9.7l46.08-83.99l0.28,0.15c14.68,8.05,19,27.13,9.24,40.72L296.26,296.63z"/>
	<g>
		<rect x="281.35" y="277.49" class="st1" width="26.9" height="53.13"/>
		<polygon class="st1" points="323.95,403 265.64,403 281.35,330.62 308.25,330.62 		"/>
	</g>
	<g>
		<g>
			<path class="st0" d="M358.45,403h-63.82V275.97h37.08L358.45,403z M300.31,397.32h51.14L327.1,281.65h-26.79V397.32z"/>
			<rect x="297.47" y="336.65" class="st0" width="44.26" height="5.68"/>
			
				<rect x="316.76" y="271.6" transform="matrix(0.8079 -0.5893 0.5893 0.8079 -120.7919 247.72)" class="st0" width="5.67" height="75.1"/>
			
				<rect x="279.15" y="306.31" transform="matrix(0.4659 -0.8849 0.8849 0.4659 -106.1365 442.4737)" class="st0" width="68.57" height="5.68"/>
			
				<rect x="323.37" y="328.04" transform="matrix(0.726 -0.6877 0.6877 0.726 -164.9481 325.6987)" class="st0" width="5.67" height="83.58"/>
			
				<rect x="282.05" y="366.99" transform="matrix(0.5892 -0.808 0.808 0.5892 -167.522 410.1689)" class="st0" width="75.1" height="5.67"/>
		</g>
		<g>
			<path class="st2" d="M294.96,403h-63.82l26.74-127.03h37.08V403z M238.14,397.32h51.14V281.65h-26.79L238.14,397.32z"/>
			<rect x="247.87" y="336.65" class="st2" width="44.25" height="5.68"/>
			
				<rect x="232.45" y="306.31" transform="matrix(0.5891 -0.808 0.808 0.5891 -138.8735 345.1828)" class="st2" width="75.1" height="5.67"/>
			
				<rect x="273.32" y="274.87" transform="matrix(0.8849 -0.4657 0.4657 0.8849 -112.2055 164.1949)" class="st2" width="5.68" height="68.57"/>
			
				<rect x="221.59" y="366.99" transform="matrix(0.6878 -0.7259 0.7259 0.6878 -186.2312 306.6619)" class="st2" width="83.58" height="5.67"/>
			
				<rect x="267.16" y="332.28" transform="matrix(0.8079 -0.5893 0.5893 0.8079 -166.0704 230.1283)" class="st2" width="5.67" height="75.1"/>
		</g>
	</g>
	<g>
		<path class="st3" d="M310.51,258.08c-46.51,64.34-120.02,90.84-165.09,59.89c-0.48-0.3-0.97-0.66-1.43-0.99
			c-0.46-0.33-0.95-0.69-1.39-1.05c-28.28-22.9-14.27-92.07,32-156.09S282.19,60.8,312.8,80.47c0.48,0.3,0.97,0.66,1.43,0.99
			c0.46,0.33,0.95,0.69,1.39,1.05C359.15,115.59,357.02,193.74,310.51,258.08z"/>
		<path class="st3" d="M283.61,238.63c-46.28,64.02-107.57,99.01-138.18,79.34c-0.48-0.3-0.97-0.66-1.43-0.99
			c-0.46-0.33-0.95-0.69-1.39-1.05c-28.28-22.9-14.27-92.07,32-156.09S282.19,60.8,312.8,80.47c0.48,0.3,0.97,0.66,1.43,0.99
			c0.46,0.33,0.95,0.69,1.39,1.05C343.91,105.41,329.88,174.61,283.61,238.63z"/>
		<path class="st4" d="M145.91,313.97c-0.36-0.26-0.73-0.52-1.06-0.8c-26.69-21.61-12.04-89.46,32.63-151.26
			c44.68-61.81,104.52-97.01,133.4-78.46c0.38,0.24,0.76,0.51,1.12,0.77c0.05,0.04,0.26,0.19,0.31,0.23
			c0.36,0.26,0.73,0.53,1.06,0.8c26.68,21.61,12.03,89.47-32.65,151.28c-44.67,61.8-104.5,96.98-133.38,78.43
			c-0.39-0.24-0.76-0.51-1.12-0.77C146.18,314.16,145.97,314.01,145.91,313.97z"/>
		<path class="st5" d="M190.46,171.3c35.34-48.89,78.2-83.4,110.21-91.93c-31.22-6.65-83.25,27.3-123.19,82.55
			c-39.92,55.22-55.83,115.25-39.73,142.83C135.81,271.67,155.13,220.17,190.46,171.3z"/>
		<path class="st6" d="M251.89,141.41l14.92,79.94L251.89,141.41z"/>
		<path class="st6" d="M305.12,168.36l-36.48,50.47L305.12,168.36z"/>
		<path class="st6" d="M183.36,238.6l74.72-5.17L183.36,238.6z"/>
		<path class="st6" d="M223.73,280.95l34.35-47.52L223.73,280.95z"/>
		<path class="st0" d="M250.61,243.71c-0.06-0.04-0.12-0.09-0.18-0.13c-4.42-3.58-1.99-14.81,5.4-25.04
			c7.4-10.23,17.3-16.06,22.08-12.99c0.06,0.04,0.13,0.09,0.19,0.13c0.01,0.01,0.04,0.03,0.05,0.04c0.06,0.04,0.12,0.09,0.18,0.13
			c4.42,3.58,1.99,14.81-5.4,25.04c-7.39,10.23-17.3,16.05-22.08,12.98c-0.06-0.04-0.13-0.09-0.19-0.13
			C250.65,243.74,250.62,243.71,250.61,243.71z"/>
		<path class="st7" d="M222.52,283.37c-0.34-0.24-0.62-0.57-0.82-0.97c-16.33-32.89-20.88-56.46-15.7-81.38
			c0.3-1.44,1.71-2.37,3.16-2.07c1.44,0.29,2.37,1.71,2.07,3.16c-4.92,23.63-0.5,46.21,15.25,77.91c0.66,1.32,0.12,2.92-1.2,3.58
			C224.36,284.06,223.3,283.93,222.52,283.37z"/>
		<path class="st7" d="M223.3,181.25c-0.3-0.21-0.55-0.49-0.74-0.83c-0.74-1.28-0.3-2.91,0.97-3.65
			c22.03-12.73,45.85-15.81,82.2-10.61c1.47,0.22,2.47,1.56,2.26,3.02c-0.21,1.46-1.56,2.47-3.02,2.26
			c-35.05-5.01-57.87-2.13-78.77,9.95C225.26,181.94,224.12,181.85,223.3,181.25z"/>
		<path class="st7" d="M213.46,174.14c-1-0.72-1.39-2.07-0.87-3.24c4.48-10.13,26.51-26.67,39.3-29.49
			c1.43-0.32,2.86,0.59,3.18,2.03c0.32,1.44-0.59,2.86-2.03,3.18c-11.68,2.58-32.11,18.61-35.57,26.43
			c-0.6,1.35-2.17,1.96-3.52,1.36C213.77,174.34,213.61,174.25,213.46,174.14z"/>
		<path class="st7" d="M182.69,240.54c-0.6-0.43-1.01-1.1-1.09-1.89c-1.33-13.03,7.46-39.14,15.68-46.57
			c1.1-0.99,2.79-0.9,3.77,0.19c0.99,1.09,0.9,2.78-0.19,3.77c-6.34,5.73-15.16,30.16-13.94,42.06c0.15,1.47-0.92,2.78-2.38,2.93
			C183.85,241.1,183.21,240.91,182.69,240.54z"/>
		
			<rect x="195.65" y="180.36" transform="matrix(0.5858 -0.8104 0.8104 0.5858 -63.9509 251.3136)" class="st7" width="36.53" height="15.74"/>
		
			<rect x="189.27" y="175.75" transform="matrix(0.5858 -0.8104 0.8104 0.5858 -62.856 244.2354)" class="st3" width="36.53" height="15.74"/>
	</g>
	<rect x="215.23" y="403" class="st2" width="96.09" height="22"/>
	<rect x="310.41" y="403" class="st0" width="61.58" height="22"/>
</g>
</svg>
