<?xml version="1.0" encoding="utf-8"?>
<!-- Generator: Adobe Illustrator 24.2.3, SVG Export Plug-In . SVG Version: 6.00 Build 0)  -->
<svg version="1.1" id="Layer_1" xmlns="http://www.w3.org/2000/svg" xmlns:xlink="http://www.w3.org/1999/xlink" x="0px" y="0px"
	 viewBox="0 0 500 500" style="enable-background:new 0 0 500 500;" xml:space="preserve">
<style type="text/css">
	.st0{fill:#AAAAAA;}
	.st1{fill:#C1C1C1;}
	.st2{fill:#D6D6D6;}
	.st3{opacity:0.54;}
	.st4{fill:#FFFFFF;}
	.st5{fill:#C9C9C9;}
	.st6{fill:#EAEAEA;}
	.st7{fill:#E2E2E2;}
	.st8{fill:#DDDDDD;}
	.st9{opacity:0.66;}
	.st10{fill:#747D79;}
	.st11{fill:#8B8C8B;}
	.st12{fill:#B6C2BA;}
	.st13{fill:#545C59;}
	.st14{fill:#BBBDBF;}
	.st15{fill:#E2E3E4;}
</style>
<g>
	<rect x="247.2" y="138.1" class="st0" width="7.6" height="91.2"/>
	<rect x="236.9" y="163.9" class="st1" width="28.7" height="3.1"/>
	<rect x="236.9" y="176.6" class="st1" width="28.7" height="3.1"/>
	<path class="st1" d="M233.7,160.5c-2.5,0-4.4,1.3-4.4,2.9h-0.1v17.3h0.1c0,1.6,2,2.9,4.4,2.9c2.4,0,4.4-1.3,4.4-2.9v-17.3
		C238.1,161.8,236.1,160.5,233.7,160.5z"/>
	<path class="st2" d="M239.9,160.5c-2.9,0-5.3,1.3-5.3,2.9h-0.1v17.3h0.1c0,1.6,2.4,2.9,5.3,2.9s5.3-1.3,5.3-2.9v-17.3
		C245.2,161.8,242.9,160.5,239.9,160.5z"/>
	<path class="st1" d="M269,160.9c2.5,0,4.4,1.3,4.4,2.9h0.1v17.3h-0.1c0,1.6-2,2.9-4.4,2.9c-2.4,0-4.4-1.3-4.4-2.9v-17.2
		C264.7,162.2,266.6,160.9,269,160.9z"/>
	<path class="st2" d="M262.9,160.9c2.9,0,5.3,1.3,5.3,2.9h0.1v17.3h-0.1c0,1.6-2.4,2.9-5.3,2.9s-5.3-1.3-5.3-2.9v-17.2
		C257.5,162.2,259.9,160.9,262.9,160.9z"/>
	<g class="st3">
		<path class="st4" d="M236,165.2c0.3,4.5,0.3,8.9,0.1,13.4c0,0.8,0.1,1.7,1,2c0.7,0.2,1.4-0.2,1.8-0.7c0.3-0.5,0.4-1.1,0.3-1.7
			c0-3.6,0-7.3,0-10.9c0-1,0.6-3.6-1-4.2C236.4,162.4,235.9,164.3,236,165.2z"/>
	</g>
	<g class="st3">
		<path class="st4" d="M259.4,176.4c0,1.1,0,2.2,0.1,3.3c0,0.3,0.2,0.6,0.4,0.8c0.3,0.2,0.8,0,1-0.3c0.2-0.3,0.3-0.5,0.3-0.9
			c0.3-4.1,0.5-8.2,0.8-12.3c0.1-0.9,0.5-3.2-1.1-3.5c-2-0.3-1.5,2.1-1.5,3C259.4,169.8,259.4,173,259.4,176.4z"/>
	</g>
	<g class="st3">
		<path class="st4" d="M230.3,163.8c-0.1,0.3-0.1,0.8,0.1,1.1c0.7,2.1,0.9,4.3,0.9,6.5c-0.1,2.7-0.8,5.5-0.6,8.2
			c0,0.3,0.2,0.6,0.5,0.7c0.3,0,0.5-0.2,0.6-0.4c0.5-1.1,0.9-2.4,0.9-3.6c0.3-3.9,0.2-8-0.3-11.9
			C232.2,163.3,230.7,162.6,230.3,163.8z"/>
	</g>
	<rect x="222.7" y="227.4" class="st1" width="56.3" height="4.5"/>
	<rect x="222.7" y="215.5" class="st1" width="56.3" height="1.3"/>
	<rect x="222.7" y="219.5" class="st1" width="56.3" height="0.6"/>
	<rect x="222.7" y="215.5" class="st1" width="1" height="16.4"/>
	<rect x="231.3" y="215.5" class="st1" width="1" height="16.4"/>
	<rect x="241.9" y="215.5" class="st1" width="1" height="16.4"/>
	<rect x="250.3" y="215.5" class="st1" width="1" height="16.4"/>
	<rect x="259.2" y="215.5" class="st1" width="1" height="16.4"/>
	<rect x="268.2" y="215.5" class="st1" width="1" height="16.4"/>
	<rect x="277.9" y="215.5" class="st1" width="1" height="16.4"/>
	<rect x="249.4" y="229.9" class="st1" width="4" height="153.3"/>
	<path class="st1" d="M190.6,384.2h-0.3c-0.7-0.1-1.1-0.6-1-1.2c0.1-0.4,9.2-38.2,18.3-75.6c5.3-21.9,9.5-39.5,12.6-52
		c1.8-7.5,3.3-13.3,4.2-17.2c1.7-6.9,1.7-6.9,2.1-7.1c0.5-0.4,1.3-0.4,1.8,0c0.3,0.3,0.4,0.7,0.3,1c-0.9,2.8-24.3,100.1-36.7,151.3
		C191.6,384,191.1,384.3,190.6,384.2z M228.2,232.5L228.2,232.5z"/>
	<path class="st1" d="M206.4,384.2c-0.6,0.1-1.2-0.3-1.3-1c0-0.8,22.4-116.2,29.1-151.6c0.2-0.6,0.9-0.9,1.5-0.9
		c0.7,0.1,1.2,0.6,1,1.1c-0.3,1.5-28.8,148.8-29.1,151.4C207.5,383.9,207,384.3,206.4,384.2z M207.7,383.3L207.7,383.3z"/>
	<path class="st1" d="M207.1,379.9c-0.2,0-0.3-0.1-0.5-0.2l-12-15c-0.1-0.1-0.1-0.3-0.1-0.3c0.1-0.2,0.2-0.3,0.3-0.3l15.9-7.3
		l-9.9-17.7c-0.1-0.2,0-0.4,0.2-0.5c0,0,0,0,0.1,0l14.6-6.7l-8.7-17.8c-0.1-0.2,0-0.4,0.2-0.5l0,0l13.2-6.2l-7.8-16.8
		c-0.1-0.2,0-0.4,0.3-0.5l0,0l12-5.9l-7.8-11.7c-0.1-0.2-0.1-0.4,0.1-0.5l0,0l11.7-8.1l-6.4-13.7c-0.1-0.1,0-0.3,0.1-0.3
		c0.1-0.1,0.3-0.2,0.4-0.3l8.9-1.5l-5.8-12.2c-0.1-0.3,0-0.4,0.3-0.5h0.1l10.7-3.8c0.3-0.1,0.6,0,0.8,0.3c0.1,0.2,0,0.4-0.2,0.6
		h-0.1l-10.2,3.6l5.9,12.3c0.1,0.1,0.1,0.3,0,0.3c-0.1,0.1-0.3,0.2-0.4,0.3l-8.9,1.5l6.3,13.5c0.1,0.2,0,0.4-0.2,0.5l-11.7,8.1
		l7.8,11.8c0.1,0.2,0.1,0.4-0.2,0.6h-0.1l-12.1,6l7.8,16.8c0.1,0.2,0,0.4-0.3,0.5l0,0l-13.3,6.1l8.7,17.8c0.1,0.2,0,0.4-0.3,0.5l0,0
		l-14.5,6.5l9.9,17.7c0.1,0.2,0,0.4-0.2,0.5h-0.1l-15.8,7.3l11.7,14.6c0.2,0.2,0.1,0.4-0.1,0.6l-0.1,0.1
		C207.3,379.9,207.2,379.9,207.1,379.9z"/>
	<path class="st1" d="M311.5,384.2c-0.5,0.1-1.1-0.3-1.3-0.9c-12.3-51.3-35.7-148.5-36.7-151.3c-0.2-0.3,0-0.8,0.3-1
		c0.5-0.4,1.3-0.4,1.8,0c0.3,0.3,0.3,0.3,2.1,7.1c0.9,3.9,2.4,9.8,4.2,17.2c3.1,12.6,7.3,30.1,12.6,52c9,37.4,18.1,75.3,18.3,75.6
		c0.1,0.5-0.3,1-1,1.2H311.5z M273.7,232.5L273.7,232.5z M273.7,232.5L273.7,232.5z"/>
	<path class="st1" d="M295.6,384.2c-0.6,0.1-1.1-0.3-1.3-0.9c-0.3-2.6-28.9-149.9-29.1-151.4c-0.1-0.5,0.3-1,1.1-1.1
		c0.6-0.1,1.3,0.3,1.5,0.9c6.9,35.4,29.1,150.9,29.1,151.6C296.7,383.9,296.2,384.3,295.6,384.2z M294.3,383.3L294.3,383.3
		L294.3,383.3z"/>
	<path class="st1" d="M294.9,379.9c-0.1,0-0.3,0-0.3-0.1c-0.2-0.1-0.3-0.3-0.3-0.5c0,0,0-0.1,0.1-0.1l11.7-14.6l-15.8-7.3
		c-0.3-0.1-0.3-0.3-0.3-0.5v-0.1l9.9-17.7l-14.5-6.7c-0.3-0.1-0.3-0.3-0.3-0.5l0,0l8.7-17.8l-13.2-6.2c-0.3-0.1-0.3-0.3-0.3-0.5l0,0
		l7.8-16.8l-12.1-6c-0.2-0.1-0.3-0.3-0.3-0.5V284l7.8-11.8l-11.7-8.1c-0.2-0.1-0.3-0.3-0.2-0.5l6.3-13.5l-8.9-1.5
		c-0.2,0-0.3-0.1-0.4-0.3c-0.1-0.1-0.1-0.3,0-0.3l5.9-12.3l-10.2-3.6c-0.3-0.1-0.3-0.3-0.3-0.5v-0.1c0.2-0.3,0.5-0.3,0.8-0.3
		l10.7,3.8c0.3,0.1,0.3,0.3,0.3,0.5v0.1l-5.8,12.2l8.9,1.5c0.2,0,0.3,0.1,0.4,0.3c0.1,0.1,0.1,0.3,0,0.3l-6.4,13.7l11.7,8.1
		c0.2,0.1,0.3,0.3,0.2,0.5l0,0l-7.8,11.7l12,5.9c0.2,0.1,0.3,0.3,0.3,0.5l0,0l-7.8,16.8l13.2,6.2c0.3,0.1,0.3,0.3,0.3,0.5l0,0
		l-8.7,17.8l14.6,6.7c0.3,0.1,0.3,0.3,0.3,0.5c0,0,0,0,0,0.1l-9.9,17.7l15.9,7.3c0.1,0.1,0.3,0.2,0.3,0.3c0.1,0.1,0,0.3-0.1,0.3
		l-12,15C295.3,379.9,295.1,379.9,294.9,379.9z"/>
	<rect x="240.3" y="141.2" class="st1" width="22.5" height="2.9"/>
	<path class="st5" d="M277.9,156.1c0,0-4.9,0.5-8.4-1.3s-7.8-5.6-8.9-10.4c-1.1-4.8-1.3-7.5,1-11.7c3.3-5.8,8.3-5.8,8.3-5.8
		L277.9,156.1z"/>
	<path class="st6" d="M264.2,143.3c2.4,8.1,8.8,13.7,14.3,12.8c5.5-0.9,8-8.3,5.6-16.4c-2.4-8.1-8.8-13.7-14.3-12.8
		C264.3,127.9,261.9,135.2,264.2,143.3z"/>
	<path class="st7" d="M266.1,143.1c2.2,7.4,7.8,12.7,12.4,11.9s6.6-7.5,4.4-14.9c-2.2-7.4-7.8-12.7-12.4-11.9
		C265.9,129,263.9,135.7,266.1,143.1z"/>
	<path class="st8" d="M266.3,143c-1.5-5.1-1-9.8,0.9-12.5c3.3,1.9,6.3,5.9,7.7,10.9s1,9.8-0.9,12.5C270.7,152,267.7,148,266.3,143z"
		/>
	<g class="st9">
		<path class="st4" d="M275.3,131.3c-0.3,0.8-0.9,1.4-1.6,1.9c-1.5,1.3-2.6,2.9-3.1,4.8c-0.2,0.5-0.3,1.2-1,1.4
			c-0.7,0.1-1.3-0.3-1.5-0.9c-0.3-0.8-0.3-1.6,0-2.5c0.5-2.1,1.1-4.3,3.1-5.7C272.5,129.1,276,129.2,275.3,131.3z"/>
	</g>
	<path class="st5" d="M224.5,158.1c0,0,4.9,0.5,8.4-1.3c3.5-1.8,7.8-5.6,8.9-10.4s1.3-7.5-1-11.7c-3.3-5.8-8.3-5.8-8.3-5.8
		L224.5,158.1z"/>
	<path class="st6" d="M238.1,145.3c-2.4,8.1-8.8,13.7-14.3,12.8c-5.5-0.9-8-8.3-5.6-16.4c2.4-8.1,8.8-13.7,14.3-12.8
		C238,129.8,240.6,137.2,238.1,145.3z"/>
	<path class="st7" d="M236.3,145c-2.2,7.4-7.8,12.7-12.4,11.8c-4.6-0.9-6.6-7.5-4.4-14.9c2.2-7.4,7.8-12.7,12.4-11.9
		C236.5,130.8,238.5,137.6,236.3,145z"/>
	<path class="st8" d="M236.1,144.9c1.5-5.1,1-9.8-0.9-12.5c-3.3,1.9-6.3,5.9-7.7,10.9c-1.5,5-1,9.8,0.9,12.5
		C231.7,153.9,234.7,149.9,236.1,144.9z"/>
	<g class="st9">
		<path class="st4" d="M227.1,133.3c0.3,0.8,0.9,1.4,1.6,1.8c1.5,1.3,2.6,2.9,3.1,4.8c0.2,0.5,0.3,1.2,1,1.4
			c0.7,0.1,1.3-0.3,1.5-0.9c0.3-0.8,0.3-1.6,0-2.5c-0.5-2.1-1.1-4.3-3.1-5.7C229.9,130.9,226.4,131.1,227.1,133.3z"/>
	</g>
	<path class="st1" d="M250.3,377.5c-0.3,0-0.9,0-1.5-0.1c-1.1-0.1-2.7-0.3-4.8-0.5c-3.5-0.4-8.3-1.1-14.4-2
		c-10.3-1.5-20.7-3.1-20.8-3.1c-0.3-0.1-0.5-0.3-0.4-0.5c0.1-0.3,0.4-0.4,0.7-0.3c15.1,2.3,37.8,5.7,41.1,5.7h0.1
		c0.3-1.6,0.4-3.3,0.5-4.8l-40.7-8.1c-0.3-0.1-0.5-0.3-0.4-0.5l2.7-14.1c0-0.1,0.1-0.3,0.3-0.3c0.2-0.1,0.3-0.1,0.4-0.1l37.2,4.3
		v-6.3l-35.8-5.4c-0.3,0-0.5-0.3-0.5-0.5l0,0l3.3-16.7c0-0.2,0.1-0.3,0.3-0.3c0.2-0.1,0.3-0.1,0.4-0.1l32.4,3.8v-6.3l-31.2-3.5
		c-0.2,0-0.3-0.1-0.3-0.2c-0.1-0.1-0.2-0.3-0.1-0.3l2.2-11.6c0.1-0.3,0.3-0.4,0.6-0.4l29.5,1.9v-5.1l-28.3-2.8
		c-0.2,0-0.3-0.1-0.4-0.2c-0.1-0.1-0.2-0.3-0.1-0.3l2.8-14.5c0.1-0.3,0.3-0.4,0.6-0.4l25.3,1.2l-0.5-5.7l-23.5-1.9
		c-0.2,0-0.3-0.1-0.4-0.2c-0.1-0.1-0.2-0.3-0.1-0.3l2.2-11.7c0.1-0.3,0.3-0.4,0.6-0.4l21,1.3l-0.1-6.5l-19.5-1.4
		c-0.2,0-0.3-0.1-0.4-0.2c-0.1-0.1-0.2-0.2-0.1-0.3l1.5-11.8c0.1-0.3,0.3-0.4,0.6-0.4l18,1.2l0.5-5.5l-16.7-1
		c-0.3,0-0.6-0.3-0.5-0.5c0.1-0.3,0.3-0.4,0.6-0.4l17.3,1.1c0.3,0,0.6,0.3,0.5,0.5l-0.6,6.4c0,0.2-0.1,0.3-0.2,0.3
		c-0.2,0.1-0.3,0.1-0.4,0.1l-18-1.2l-1.5,10.9l19.5,1.4c0.3,0,0.5,0.2,0.5,0.4l0.1,7.4c0,0.2-0.1,0.3-0.2,0.3
		c-0.2,0.1-0.3,0.2-0.4,0.1l-21.1-1.3l-2.1,10.9l23.2,2c0.3,0,0.5,0.2,0.5,0.4l0.6,6.7c0,0.2-0.1,0.3-0.2,0.3
		c-0.2,0.1-0.3,0.2-0.4,0.1l-25.4-1.2l-2.7,13.6l28.2,2.8c0.3,0,0.5,0.2,0.5,0.4v5.9c0,0.2-0.1,0.3-0.2,0.3
		c-0.2,0.1-0.3,0.2-0.4,0.1l-29.6-1.9l-2.1,10.7l31.1,3.5c0.3,0,0.5,0.2,0.5,0.4l-0.1,7.3c0,0.2-0.1,0.3-0.2,0.3
		c-0.2,0.1-0.3,0.1-0.5,0.1l-32.5-3.8l-3.1,15.9l35.7,5.6c0.3,0,0.4,0.2,0.5,0.4v7.1c0,0.2-0.1,0.3-0.2,0.3
		c-0.2,0.1-0.3,0.2-0.5,0.1l-37.3-4.4l-2.6,13.3l40.7,8.1c0.3,0,0.4,0.3,0.4,0.4c0,0.5-0.3,4.8-0.6,5.7
		C251.2,377.5,250.9,377.5,250.3,377.5z"/>
	<path class="st1" d="M252.5,377.5c-0.7,0-0.9-0.1-1.1-0.4c-0.4-0.9-0.6-5.2-0.6-5.7c0-0.3,0.2-0.4,0.4-0.4l40.7-8.1l-2.6-13.3
		l-37.3,4.3c-0.2,0-0.3,0-0.5-0.1c-0.1-0.1-0.2-0.2-0.2-0.3v-7.1c0-0.3,0.3-0.4,0.5-0.4l35.7-5.4l-3.1-15.9l-32.5,3.8
		c-0.2,0-0.3,0-0.5-0.1c-0.1-0.1-0.2-0.2-0.2-0.3v-7.3c0-0.3,0.3-0.4,0.5-0.4l31.1-3.5l-2.1-10.7l-29.6,1.9c-0.2,0-0.3,0-0.4-0.1
		c-0.1-0.1-0.2-0.2-0.2-0.3v-5.9c0-0.3,0.3-0.4,0.5-0.4l28.2-2.8l-2.7-13.6l-25.4,1.2c-0.2,0-0.3,0-0.4-0.1s-0.2-0.3-0.2-0.3
		l0.6-6.7c0.1-0.3,0.3-0.4,0.5-0.4l23.3-1.9l-2.1-10.9l-21.1,1.3c-0.2,0-0.3,0-0.4-0.1c-0.1-0.1-0.2-0.2-0.2-0.3l0.1-7.4
		c0-0.3,0.3-0.4,0.5-0.4l19.5-1.4l-1.5-10.9l-18,1.2c-0.2,0-0.3,0-0.4-0.1c-0.1-0.1-0.2-0.2-0.2-0.3l-0.6-6.4c0-0.3,0.3-0.5,0.5-0.5
		l17.3-1.1c0.3-0.1,0.6,0.2,0.6,0.4c0,0.3-0.2,0.5-0.5,0.5l-16.7,1l0.6,5.5l18-1.2c0.3-0.1,0.6,0.2,0.6,0.4l1.5,11.8
		c0,0.1,0,0.3-0.1,0.3c-0.1,0.1-0.3,0.2-0.4,0.2l-19.6,1.3l-0.1,6.5l21-1.3c0.3,0,0.5,0.1,0.6,0.4l2.2,11.7c0,0.1,0,0.3-0.1,0.3
		c-0.1,0.1-0.3,0.2-0.4,0.2l-23.3,1.7l-0.5,5.7l25.3-1.2c0.3,0,0.5,0.2,0.6,0.4l2.8,14.5c0,0.1,0,0.3-0.1,0.3s-0.3,0.2-0.4,0.2
		l-28.2,2.8v5.1l29.5-1.9c0.3,0,0.5,0.1,0.6,0.4l2.2,11.6c0,0.1,0,0.3-0.1,0.3s-0.3,0.2-0.4,0.2l-31.3,3.6v6.3l32.4-3.8
		c0.2,0,0.3,0,0.4,0.1c0.1,0.1,0.2,0.2,0.3,0.3l3.3,16.7c0,0.3-0.2,0.4-0.5,0.5l-35.8,5.4v6.3l37.2-4.3c0.2,0,0.3,0,0.4,0.1
		c0.1,0.1,0.2,0.2,0.3,0.3l2.7,14.1c0,0.3-0.2,0.4-0.4,0.5l-40.7,8.1c0.1,1.6,0.3,3.3,0.5,4.8h0.1c3.3,0,26.1-3.3,41.1-5.7
		c0.3-0.1,0.6,0.1,0.7,0.3c0.1,0.3-0.2,0.5-0.4,0.5c-0.1,0-10.5,1.6-20.8,3.1c-6.1,0.9-10.9,1.5-14.4,2c-2.1,0.3-3.7,0.4-4.8,0.5
		C253.3,377.5,252.9,377.5,252.5,377.5z"/>
	<path class="st1" d="M227.3,384.2L227.3,384.2c-0.8,0-1.3-0.5-1.3-1l15.6-151.5c0.2-0.6,0.8-1,1.4-0.9c0.7,0.1,1.2,0.5,1.2,1
		l-15.6,151.5C228.4,384,227.9,384.3,227.3,384.2z"/>
	<rect x="237.7" y="205.4" class="st1" width="25.3" height="2"/>
	<rect x="238.3" y="196.5" class="st1" width="25.3" height="2"/>
	<rect x="238.2" y="187.6" class="st1" width="25.3" height="2"/>
	<rect x="245.2" y="213.1" class="st1" width="11.5" height="14.2"/>
	<rect x="249.6" y="105.9" class="st0" width="2.4" height="33.1"/>
	<path class="st1" d="M254.5,105.9c0,1.5-1.5,2.7-3.5,2.7c-2,0-3.5-1.2-3.5-2.7s1.6-2.7,3.5-2.7
		C252.8,103.2,254.5,104.4,254.5,105.9z"/>
	<rect x="222.7" y="226.9" class="st0" width="56.3" height="5.9"/>
	<path class="st1" d="M279,384.2c-0.6,0.1-1.1-0.3-1.3-0.9l-21-151.5c-0.1-0.5,0.4-1,1.1-1.1c0.6-0.1,1.2,0.3,1.4,0.9l21,151.5
		C280.3,383.6,279.7,384.1,279,384.2L279,384.2z"/>
	<rect x="184.9" y="380.3" class="st0" width="132.1" height="8.3"/>
	<g id="Layer_1-2">
		<polygon class="st1" points="363.2,209.8 364.4,209.8 352.1,388.9 350.9,388.9 		"/>
		<polygon class="st1" points="387.8,213.1 400,388.9 398.7,388.9 386.6,213.1 		"/>
		<rect x="374.9" y="209.8" class="st1" width="1.4" height="179"/>
		<path class="st1" d="M375.6,382.4c0.1,0,0.2-0.1,0.3-0.2c7.9-9,19.9-22.5,20.9-23.5c0.2-0.1,0.3-0.3,0.3-0.3
			c0.2-0.5,0.3-1,0.2-1.5c0-0.4-0.1-0.9-0.3-1.2c-0.1-0.1-0.1-0.2-0.2-0.2c-0.9-0.8-11.9-10.9-19.8-18.2l16.7-33.3
			c0.2-0.5,0.3-1,0.3-1.5c0-0.5-0.2-0.9-0.4-1.3l-16.5-16.3l13.1-27.9c0.2-0.5,0.3-1,0.3-1.5c0-0.4-0.1-0.9-0.3-1.3l-13.1-16
			l10.3-23.8c0.3-0.6,0-0.7-0.3-1.4c-0.3-0.7-1.1,0-1.1,0l-10.5,24.3c-0.2,0.4-0.3,0.9-0.2,1.5c0,0.4,0.1,0.9,0.3,1.3l13,16
			l-13.1,28c-0.2,0.5-0.3,1-0.3,1.5c0,0.4,0.2,0.9,0.4,1.3l16.5,16.2l-16.7,33.4c-0.2,0.5-0.3,1-0.3,1.5s0.2,0.9,0.4,1.3l10.5,9.8
			c3,2.8,5.5,5.1,7.2,6.7l1.7,1.5l-1.8,1.9c-1.7,2-4.2,4.7-7.2,8.1c-5.1,5.9-10.4,11.8-10.5,11.9c-0.3,0.7-0.5,1.5-0.3,2.2
			C375.1,382,375.3,382.4,375.6,382.4z"/>
		<path class="st1" d="M375.6,382.4c0.3,0,0.5-0.4,0.6-1c0.2-0.8,0.1-1.5-0.3-2.2c-0.1-0.1-5.3-6-10.5-11.9c-3-3.4-5.5-6.2-7.2-8.1
			l-1.7-2l1.7-1.5c1.7-1.6,4.2-3.9,7.2-6.7l10.5-9.8c0.3-0.3,0.4-0.9,0.4-1.3c0.1-0.5,0-1.1-0.3-1.5l-16.7-33.4l16.5-16.2
			c0.3-0.3,0.4-0.9,0.4-1.3c0.1-0.5,0-1-0.3-1.5l-13.2-28.1l13-15.9c0.3-0.3,0.3-0.9,0.3-1.3c0-0.5,0-1-0.2-1.5l-11.1-25.5
			c-0.3-0.6-0.7-0.5-0.9,0.2c-0.3,0.8-0.2,1.6,0.1,2.4l10.3,23.8l-13.1,16c-0.3,0.4-0.3,0.9-0.3,1.3c0,0.5,0,1,0.3,1.5l13.1,27.9
			L357.7,301c-0.3,0.3-0.4,0.9-0.4,1.3c-0.1,0.5,0,1.1,0.3,1.5l16.7,33.3c-7.9,7.4-18.8,17.5-19.8,18.2c-0.1,0-0.2,0.1-0.2,0.2
			c-0.2,0.3-0.3,0.8-0.3,1.2c-0.1,0.5,0,1,0.3,1.5c0.1,0.2,0.2,0.3,0.3,0.3c1,1,12.9,14.6,20.9,23.5
			C375.3,382.3,375.5,382.4,375.6,382.4z"/>
		<polygon class="st1" points="362.1,212.3 389.7,219 390.4,213.7 362.1,204.5 		"/>
		<polygon class="st1" points="321,199.3 319.8,199.3 332.1,388.3 333.3,388.3 		"/>
		<polygon class="st1" points="296.6,199.3 284.2,388.3 285.5,388.3 297.8,199.3 		"/>
		<rect x="307.9" y="199.3" class="st1" width="1.4" height="188.9"/>
		<path class="st1" d="M308.6,381.4c-0.1,0-0.2-0.1-0.3-0.2c-7.9-9.5-19.9-23.8-20.9-24.9c-0.2-0.1-0.3-0.3-0.3-0.4
			c-0.2-0.5-0.3-1.1-0.2-1.6c0-0.4,0.1-0.9,0.3-1.3c0.1-0.1,0.1-0.2,0.2-0.2c0.9-0.9,11.9-11.5,19.8-19.2l-16.6-35.2
			c-0.2-0.5-0.3-1.1-0.3-1.6c0-0.5,0.1-0.9,0.4-1.4l16.6-17.1l-13.1-29.5c-0.2-0.5-0.3-1-0.3-1.5c0-0.5,0.1-0.9,0.3-1.4l13.1-16.9
			l-10.3-25.1c-0.3-0.8-0.3-1.6-0.1-2.5c0.3-0.8,0.6-0.8,0.9-0.2l11.1,26.8c0.2,0.5,0.3,1,0.2,1.5c0,0.5-0.1,0.9-0.3,1.4l-13,16.9
			l13.1,29.7c0.2,0.5,0.3,1.1,0.3,1.6c0,0.5-0.2,0.9-0.4,1.4l-16.5,17.1l16.7,35.2c0.2,0.5,0.3,1.1,0.3,1.7c0,0.5-0.2,0.9-0.4,1.4
			c-0.1,0-5.3,5.2-10.5,10.3c-3,3-5.5,5.3-7.2,7l-1.7,1.6l1.7,2.1c1.7,2.1,4.2,5,7.2,8.6l10.5,12.5c0.3,0.7,0.5,1.5,0.3,2.3
			C309.1,381.1,308.9,381.4,308.6,381.4z"/>
		<path class="st1" d="M308.6,381.4c-0.3,0-0.5-0.4-0.6-1c-0.2-0.8-0.1-1.6,0.3-2.3l10.5-12.5l7.2-8.6l1.7-2.1l-1.7-1.6
			c-1.7-1.7-4.2-4-7.2-7c-5.1-5.1-10.5-10.2-10.5-10.3c-0.3-0.4-0.4-0.9-0.4-1.4c-0.1-0.6,0-1.2,0.3-1.7l16.7-35.2l-16.5-17.1
			c-0.3-0.4-0.4-0.9-0.4-1.4c0-0.6,0-1.1,0.3-1.6l13.2-29.7l-13-16.9c-0.3-0.4-0.3-0.9-0.3-1.4s0-1,0.2-1.5l11.1-26.8
			c0.3-0.7,0.7-0.6,0.9,0.2c0.3,0.8,0.3,1.7-0.1,2.5L309.7,229l13.1,16.9c0.3,0.4,0.3,0.9,0.3,1.4s0,1.1-0.3,1.5l-13,29.6l16.6,17.1
			c0.3,0.4,0.4,0.9,0.4,1.4c0.1,0.6,0,1.1-0.3,1.6L310,333.7c7.9,7.7,18.8,18.4,19.8,19.2c0.1,0,0.2,0.1,0.2,0.2
			c0.2,0.3,0.3,0.8,0.3,1.3c0.1,0.6,0,1.1-0.2,1.6c-0.1,0.2-0.2,0.3-0.3,0.4c-1,1-12.9,15.3-20.9,24.9
			C308.9,381.4,308.7,381.5,308.6,381.4z"/>
		<polygon class="st1" points="322.6,202.6 294.7,202.6 294.7,195.1 322.6,197.2 		"/>
		<polygon class="st1" points="211.7,199.5 210.5,199.5 222.8,388.3 224.1,388.3 		"/>
		<polygon class="st1" points="187.3,199.5 174.9,388.3 176.2,388.3 188.5,199.5 		"/>
		<rect x="198.7" y="199.5" class="st1" width="1.4" height="188.9"/>
		<path class="st1" d="M199.3,381.6c-0.1,0-0.2-0.1-0.3-0.2c-7.9-9.5-19.9-23.8-20.9-24.9c-0.2-0.1-0.3-0.3-0.3-0.3
			c-0.2-0.5-0.3-1.1-0.2-1.6c0-0.4,0.1-0.9,0.3-1.3c0.1-0.1,0.1-0.2,0.2-0.2c0.9-0.9,11.9-11.5,19.8-19.2l-16.7-35.2
			c-0.2-0.5-0.3-1.1-0.3-1.6c0-0.5,0.2-0.9,0.4-1.4l16.6-17.1L185,249.1c-0.2-0.5-0.3-1-0.3-1.5c0-0.5,0.1-0.9,0.3-1.4l13.1-16.9
			l-10.3-25.1c-0.3-0.8-0.3-1.7-0.1-2.5c0.3-0.8,0.6-0.8,0.9-0.2l11.1,26.8c0.2,0.5,0.3,1,0.2,1.5c0,0.5-0.1,0.9-0.3,1.4L186.6,248
			l13.2,29.7c0.2,0.5,0.3,1.1,0.3,1.6s-0.2,0.9-0.4,1.4l-16.5,17.1l16.7,35.2c0.2,0.5,0.3,1.1,0.3,1.6s-0.2,0.9-0.4,1.4
			c-0.1,0.1-5.3,5.2-10.5,10.3l-7.2,7l-1.7,1.6l1.7,2.1c1.7,2.1,4.2,5,7.2,8.6c5.1,6.3,10.4,12.5,10.5,12.5c0.3,0.7,0.5,1.5,0.3,2.3
			C199.9,381.2,199.6,381.6,199.3,381.6z"/>
		<path class="st1" d="M199.3,381.6c-0.3,0-0.5-0.4-0.6-1c-0.2-0.8,0-1.6,0.3-2.3c0.1-0.1,5.3-6.3,10.5-12.5
			c3.1-3.6,5.5-6.5,7.2-8.6l1.7-2.1l-1.6-1.6c-1.7-1.7-4.2-4-7.2-7c-5.1-5.1-10.5-10.2-10.5-10.3c-0.3-0.4-0.4-0.9-0.4-1.4
			c-0.1-0.6,0-1.1,0.3-1.6l16.7-35.2l-16.5-17.1c-0.3-0.4-0.4-0.9-0.4-1.4c-0.1-0.6,0-1.1,0.3-1.6l13.2-29.7l-13.1-17
			c-0.3-0.4-0.3-0.9-0.3-1.4s0-1,0.2-1.5l11.1-26.8c0.3-0.7,0.7-0.6,0.9,0.2c0.3,0.9,0.2,1.7-0.1,2.5l-10.3,25.1l13.1,16.9
			c0.3,0.4,0.3,0.9,0.3,1.4s0,1.1-0.3,1.5l-13.1,29.5l16.5,17.1c0.3,0.4,0.4,0.9,0.4,1.4c0.1,0.6,0,1.1-0.3,1.6l-16.7,35.2
			c7.9,7.7,18.8,18.4,19.8,19.2c0.1,0.1,0.2,0.1,0.2,0.2c0.2,0.3,0.3,0.8,0.3,1.2c0.1,0.6,0,1.2-0.3,1.7c-0.1,0.2-0.2,0.3-0.3,0.3
			c-1,1-12.9,15.3-20.8,24.9C199.6,381.6,199.4,381.7,199.3,381.6z"/>
		<polygon class="st1" points="213.3,202.8 185.4,202.8 185.4,196.3 213.3,194.5 		"/>
		<path class="st10" d="M315.3,288c0,18.4-12.3,33.3-27.4,33.3c-15.1,0-27.4-14.9-27.4-33.3c0-18.4,12.3-33.3,27.4-33.3
			C303,254.6,315.3,269.5,315.3,288z"/>
		<path class="st11" d="M308.8,288c0,18.4-12.3,33.3-27.4,33.3s-27.4-14.9-27.4-33.3c0-18.4,12.3-33.3,27.4-33.3
			S308.8,269.5,308.8,288z"/>
		<rect x="217.2" y="283" class="st12" width="65.7" height="48.2"/>
		<polygon class="st10" points="289,312 281.1,312 322.7,384.7 330.7,384.7 		"/>
		<polygon class="st11" points="206.8,312 165.8,384.7 323.1,384.7 282.1,312 		"/>
		<polygon class="st10" points="217.5,312 209.5,312 238.8,384.7 246.7,384.7 		"/>
		<rect x="156.7" y="384.6" class="st10" width="182.9" height="5"/>
		<rect x="238.4" y="283" class="st13" width="23.1" height="17"/>
		<rect x="240.6" y="290.2" class="st12" width="18.8" height="2.5"/>
		<rect x="240.6" y="295.1" class="st12" width="18.8" height="2.5"/>
		<rect x="240.6" y="285.3" class="st12" width="18.8" height="2.5"/>
		<polygon class="st14" points="213.6,311.7 282.1,311.7 305,270.4 207.1,281.2 		"/>
		<path class="st10" d="M228.8,282.9h-26v-21h-12.6v-4.2c-9.4,5.3-15.9,16.9-15.9,30.3c0,18.4,12.3,33.3,27.4,33.3
			c15.1,0,27.4-14.9,27.4-33.3C229.2,286.3,229.1,284.5,228.8,282.9z"/>
		<path class="st11" d="M222.4,282.9h-19.5v-21h-12.6v-6.8c-12.8,2.8-22.4,16.5-22.4,32.7c0,18.4,12.3,33.3,27.4,33.3
			s27.4-14.9,27.4-33.3C222.7,286.3,222.7,284.5,222.4,282.9z"/>
		<path class="st14" d="M175.4,265c-9.3,11.3-10.1,30.9-1.8,43.5c0.7,1,1.4,2,2.1,2.9l29.7-28.3L175.4,265z"/>
		<polygon class="st11" points="285.2,282.9 391.4,216 389.8,202.1 243.1,184.2 113.9,202.1 106.3,216 201.1,282.9 		"/>
		<path class="st10" d="M105.2,204.5c0,0.9,0.3,10.5,1,11.5c8.3-11.7,69-20.8,142.5-20.8s134.2,9.1,142.6,20.9
			c0.7-0.9,1-10.5,1-11.5c0-13-64.3-23.6-143.6-23.6S105.2,191.5,105.2,204.5z"/>
		<path class="st15" d="M164.8,202.1l20.1-4.5c-42.4,3.5-72.9,10.3-78.7,18.3l94.9,66.9h18L160,216L164.8,202.1z"/>
		<path class="st15" d="M314.6,197.8l22,4.3l1,14l-66.3,66.9h13.7L391.4,216C385.8,208,356,201.3,314.6,197.8z"/>
		<polygon class="st1" points="321,200.6 319.8,200.6 332.1,389.5 333.4,389.5 		"/>
		<polygon class="st1" points="296.6,200.6 284.2,389.5 285.5,389.5 297.8,200.6 		"/>
		<rect x="307.9" y="200.6" class="st1" width="1.4" height="188.9"/>
		<path class="st1" d="M308.6,382.7c-0.1,0-0.2-0.1-0.3-0.2c-7.9-9.5-19.9-23.8-20.9-24.9c-0.2-0.1-0.3-0.3-0.3-0.3
			c-0.2-0.5-0.3-1.1-0.2-1.7c0-0.4,0.1-0.9,0.3-1.2c0.1-0.1,0.1-0.2,0.2-0.2c0.9-0.9,11.9-11.5,19.8-19.2l-16.7-35.1
			c-0.2-0.5-0.3-1.1-0.3-1.6c0-0.5,0.1-0.9,0.4-1.4l16.6-17.1l-13.1-29.5c-0.2-0.5-0.3-1-0.3-1.5c0-0.5,0.1-0.9,0.3-1.4l13.1-16.9
			l-10.3-25.1c-0.3-0.8-0.3-1.7,0-2.5s0.6-0.8,0.9-0.2l11.1,26.8c0.2,0.5,0.3,1,0.2,1.5c0,0.5-0.2,0.9-0.3,1.4l-13.1,16.7l13.2,29.7
			c0.2,0.5,0.3,1.1,0.3,1.6c0,0.5-0.2,0.9-0.4,1.4l-16.6,17.1l16.7,35.2c0.2,0.5,0.3,1.1,0.3,1.7c0,0.5-0.2,0.9-0.4,1.4l-10.5,10.3
			c-3,3-5.5,5.3-7.2,7l-1.7,1.6l1.7,2.1c1.7,2.1,4.2,5,7.2,8.6c5.1,6.2,10.4,12.4,10.5,12.5c0.3,0.7,0.5,1.5,0.3,2.3
			C309.1,382.3,308.9,382.7,308.6,382.7z"/>
		<path class="st1" d="M308.6,382.7c-0.3,0-0.5-0.4-0.6-1c-0.2-0.8,0-1.6,0.3-2.3c0.1-0.1,5.3-6.3,10.5-12.5c3-3.6,5.5-6.5,7.2-8.6
			l1.7-2.1l-1.7-1.6c-1.7-1.7-4.2-4-7.2-7l-10.5-10.3c-0.3-0.4-0.4-0.9-0.4-1.4c-0.1-0.6,0-1.1,0.3-1.7l16.7-35.2l-16.5-17.1
			c-0.3-0.4-0.4-0.9-0.4-1.4c-0.1-0.6,0-1.1,0.3-1.6l13.2-29.7l-13-16.9c-0.3-0.4-0.3-0.9-0.3-1.4c0-0.5,0-1,0.2-1.5l11.1-26.8
			c0.3-0.7,0.7-0.6,0.9,0.2c0.3,0.9,0.2,1.7-0.1,2.5l-10.3,25.1l13.1,16.9c0.3,0.4,0.3,0.9,0.3,1.4c0,0.5,0,1.1-0.3,1.5l-13.1,29.5
			l16.6,17.1c0.3,0.4,0.4,0.9,0.4,1.4c0.1,0.6,0,1.1-0.3,1.6l-16.7,35.1c7.9,7.7,18.8,18.4,19.8,19.2c0.1,0.1,0.2,0.1,0.2,0.2
			c0.2,0.3,0.3,0.8,0.3,1.2c0.1,0.6,0,1.1-0.2,1.7c-0.1,0.2-0.2,0.3-0.3,0.3c-1,1-12.9,15.3-20.9,24.9
			C308.9,382.6,308.8,382.7,308.6,382.7z"/>
		<polygon class="st1" points="322.6,203.8 294.7,203.8 294.7,196.3 322.6,198.5 		"/>
		<polygon class="st1" points="211.7,200.8 210.5,200.8 222.8,389.6 224.1,389.6 		"/>
		<polygon class="st1" points="187.3,200.8 174.9,389.6 176.2,389.6 188.5,200.8 		"/>
		<rect x="198.7" y="200.8" class="st1" width="1.4" height="188.9"/>
		<path class="st1" d="M199.3,382.9c-0.1,0-0.2-0.1-0.3-0.2c-7.9-9.5-19.9-23.8-20.9-24.9c-0.2-0.1-0.3-0.3-0.3-0.4
			c-0.2-0.5-0.3-1.1-0.2-1.6c0-0.4,0.1-0.9,0.3-1.3c0.1-0.1,0.1-0.2,0.2-0.2c0.9-0.8,11.9-11.5,19.8-19.2l-16.7-35.2
			c-0.2-0.5-0.3-1.1-0.3-1.6c0-0.5,0.2-1,0.4-1.4l16.6-17.1L185,250.3c-0.2-0.5-0.3-1-0.3-1.6c0-0.5,0.1-0.9,0.3-1.4l13.1-16.9
			l-10.3-25.1c-0.3-0.8-0.3-1.6-0.1-2.5c0.3-0.7,0.7-0.8,0.9-0.2l11.1,26.8c0.2,0.5,0.3,1,0.2,1.5c0,0.5-0.2,0.9-0.3,1.4l-13.1,17
			l13.2,29.7c0.2,0.5,0.3,1.1,0.3,1.6c0,0.5-0.2,1-0.4,1.5l-16.5,17.1l16.7,35.2c0.2,0.5,0.3,1.1,0.3,1.6c0,0.5-0.1,0.9-0.4,1.4
			c-0.1,0.1-5.3,5.2-10.5,10.3c-3.1,3-5.5,5.3-7.2,7l-1.6,1.5l1.7,2.1c1.7,2.1,4.2,5,7.2,8.6c5.1,6.2,10.4,12.4,10.5,12.5
			c0.3,0.7,0.5,1.5,0.3,2.3C199.9,382.4,199.6,382.9,199.3,382.9z"/>
		<path class="st1" d="M199.3,382.9c-0.3,0-0.5-0.4-0.6-1c-0.2-0.8,0-1.6,0.3-2.3c0.1-0.1,5.3-6.3,10.5-12.5
			c3.1-3.6,5.5-6.5,7.2-8.6l1.7-2.1l-1.7-1.6l-7.2-7c-5.1-5.1-10.5-10.2-10.5-10.3c-0.3-0.4-0.4-0.9-0.4-1.4c-0.1-0.6,0-1.1,0.3-1.6
			l16.8-35.3L199.2,282c-0.3-0.4-0.4-0.9-0.4-1.4c-0.1-0.6,0-1.1,0.3-1.6l13.2-29.7l-13-16.9c-0.3-0.4-0.3-0.9-0.3-1.4s0-1,0.2-1.5
			l11.1-26.8c0.3-0.7,0.7-0.6,0.9,0.2c0.3,0.9,0.2,1.7-0.1,2.5l-10.3,25.1l13.1,17c0.3,0.4,0.3,0.9,0.3,1.4c0,0.5,0,1.1-0.3,1.6
			l-13.1,29.4l16.6,17.1c0.3,0.4,0.4,0.9,0.4,1.4c0.1,0.6,0,1.1-0.3,1.6l-16.7,35.2c7.9,7.7,18.8,18.4,19.8,19.2
			c0.1,0.1,0.2,0.1,0.2,0.2c0.2,0.3,0.3,0.8,0.3,1.3c0.1,0.6,0,1.1-0.2,1.6c-0.1,0.2-0.2,0.3-0.3,0.4c-1,1-12.9,15.3-20.9,24.9
			C199.6,382.9,199.4,382.9,199.3,382.9z"/>
		<polygon class="st1" points="213.3,204 185.4,204 185.4,197.5 213.3,195.7 		"/>
		<polygon class="st1" points="136.8,208 135.5,208 147.9,396.8 149.1,396.8 		"/>
		<polygon class="st1" points="112.2,211.5 100,396.8 101.2,396.8 113.4,211.4 		"/>
		<rect x="123.7" y="208" class="st1" width="1.4" height="188.8"/>
		<path class="st1" d="M124.4,390.1c-0.1,0-0.2-0.1-0.3-0.2c-7.9-9.5-19.9-23.8-20.9-24.9c-0.2-0.1-0.3-0.3-0.3-0.4
			c-0.2-0.5-0.3-1.1-0.3-1.6c0-0.4,0.2-0.9,0.3-1.2c0.1-0.1,0.1-0.2,0.2-0.2c0.9-0.8,11.9-11.5,19.8-19.2l-16.7-35.2
			c-0.2-0.5-0.3-1.1-0.3-1.6s0.2-0.9,0.4-1.4l16.6-17.1L110,257.5c-0.2-0.5-0.3-1-0.3-1.6c0-0.5,0.1-0.9,0.3-1.4l13.1-16.9
			l-10.3-25.1c-0.3-0.7,0-0.7,0.3-1.5c0.3-0.8,1.1,0,1.1,0l10.5,25.7c0.2,0.5,0.3,1,0.2,1.5c0,0.5-0.1,0.9-0.3,1.4l-13,16.9
			l13.2,29.7c0.2,0.5,0.3,1.1,0.3,1.6c0,0.5-0.2,0.9-0.4,1.4l-16.5,17.1l16.7,35.2c0.2,0.5,0.3,1.1,0.3,1.7c0,0.5-0.2,0.9-0.4,1.4
			L114.2,355c-3.1,3-5.5,5.3-7.2,7l-1.7,1.6l1.7,2.1c1.7,2.1,4.2,5,7.2,8.6c5.1,6.2,10.5,12.4,10.5,12.5c0.3,0.7,0.5,1.5,0.3,2.3
			C124.9,389.7,124.7,390.1,124.4,390.1z"/>
		<path class="st1" d="M124.4,390.1c-0.3,0-0.5-0.4-0.6-1c-0.2-0.8-0.1-1.6,0.3-2.3c0.1-0.1,5.3-6.3,10.5-12.5
			c3.1-3.6,5.5-6.5,7.2-8.6l1.7-2.1l-1.7-1.6c-1.7-1.7-4.2-4-7.2-7c-5.1-5.1-10.5-10.2-10.5-10.3c-0.3-0.4-0.4-0.9-0.4-1.4
			c-0.1-0.6,0-1.1,0.3-1.7l16.7-35.2l-16.5-17.1c-0.3-0.4-0.4-0.9-0.4-1.4c0-0.6,0-1.1,0.3-1.6l13.2-29.7l-13-16.8
			c-0.3-0.4-0.3-0.9-0.3-1.4c0-0.5,0-1,0.2-1.5l11.1-26.8c0.3-0.7,0.7-0.6,0.9,0.2c0.3,0.8,0.3,1.7,0,2.5l-10.3,25l13.1,16.9
			c0.3,0.4,0.3,0.9,0.3,1.4c0,0.5,0,1.1-0.3,1.6l-13.1,29.4l16.5,17.1c0.3,0.4,0.4,0.9,0.4,1.4c0.1,0.6,0,1.1-0.3,1.6l-16.7,35.3
			c7.9,7.7,18.8,18.4,19.8,19.2c0.1,0.1,0.2,0.1,0.2,0.2c0.2,0.3,0.3,0.8,0.3,1.2c0.1,0.6,0,1.1-0.2,1.6c-0.1,0.2-0.2,0.3-0.3,0.4
			c-1,1-12.9,15.3-20.9,24.9C124.6,390,124.5,390.1,124.4,390.1z"/>
		<polygon class="st1" points="137.9,210.6 110.2,217.6 109.6,211.9 137.9,202.3 		"/>
		<polygon class="st1" points="363.2,211.1 364.5,211.1 352.1,390.1 350.9,390.1 		"/>
		<polygon class="st1" points="387.8,214.4 400,390.1 398.7,390.1 386.6,214.3 		"/>
		<rect x="374.9" y="211.1" class="st1" width="1.4" height="179"/>
		<path class="st1" d="M375.6,383.6c0.1,0,0.2-0.1,0.3-0.2c7.9-9,19.9-22.5,20.9-23.5c0.2-0.1,0.3-0.3,0.3-0.3
			c0.2-0.5,0.3-1,0.2-1.5c0-0.4-0.1-0.8-0.3-1.2c-0.1-0.1-0.1-0.2-0.2-0.2c-0.9-0.8-11.9-10.9-19.8-18.2l16.7-33.3
			c0.2-0.5,0.3-1,0.3-1.5s-0.2-0.9-0.4-1.3L376.9,286l13.1-27.9c0.2-0.5,0.3-1,0.3-1.5c0-0.4-0.1-0.9-0.3-1.3l-13.1-16l10.3-23.8
			c0.3-0.6,0-0.7-0.3-1.4c-0.3-0.7-1.1,0-1.1,0l-10.5,24.3c-0.2,0.5-0.3,0.9-0.2,1.5c0,0.4,0.1,0.9,0.3,1.3l13,15.9l-13.1,28.1
			c-0.2,0.5-0.3,1-0.3,1.5c0,0.4,0.2,0.9,0.4,1.3l16.5,16.2l-16.7,33.4c-0.2,0.5-0.3,1-0.3,1.6c0,0.4,0.2,0.9,0.4,1.3
			c0.1,0.1,5.3,5,10.5,9.8c3,2.8,5.5,5.1,7.2,6.7l1.7,1.5l-1.7,2l-7.2,8.1c-5.2,5.8-10.5,11.8-10.5,11.8c-0.3,0.7-0.5,1.5-0.3,2.2
			C375.1,383.3,375.3,383.6,375.6,383.6z"/>
		<path class="st1" d="M375.6,383.6c0.3,0,0.5-0.3,0.6-1c0.2-0.8,0.1-1.5-0.3-2.2c-0.1-0.1-5.3-6-10.5-11.9l-7.2-8.1l-1.7-2l1.7-1.5
			c1.7-1.6,4.2-3.9,7.2-6.7c5.1-4.8,10.5-9.7,10.5-9.8c0.3-0.3,0.4-0.9,0.4-1.3c0.1-0.5,0-1.1-0.3-1.6L359.3,304l16.5-16.2
			c0.3-0.3,0.4-0.9,0.4-1.3c0-0.5-0.1-1-0.3-1.5l-13.2-28.1l13-15.9c0.3-0.3,0.3-0.9,0.3-1.3c0-0.5,0-0.9-0.2-1.5l-11.1-25.5
			c-0.3-0.6-0.7-0.5-0.9,0.2c-0.3,0.8-0.3,1.6,0.1,2.4l10.3,23.8l-13.1,16c-0.3,0.4-0.3,0.9-0.3,1.3c0,0.5,0,1,0.3,1.5l13,28
			l-16.6,16.3c-0.3,0.3-0.4,0.9-0.4,1.3c-0.1,0.5,0,1.1,0.3,1.5l16.7,33.3c-7.9,7.4-18.8,17.5-19.8,18.2c-0.1,0.1-0.2,0.1-0.2,0.2
			c-0.2,0.3-0.3,0.8-0.3,1.2c-0.1,0.5,0,1.1,0.2,1.5c0.1,0.2,0.2,0.3,0.3,0.3c1,1,12.9,14.6,20.9,23.5
			C375.4,383.6,375.5,383.6,375.6,383.6z"/>
		<polygon class="st1" points="362.1,213.5 389.8,220.3 390.4,214.9 362.1,205.7 		"/>
	</g>
</g>
</svg>
