<svg id="Layer_1" enable-background="new 0 0 496 496" height="512" viewBox="0 0 496 496" width="512" xmlns="http://www.w3.org/2000/svg"><path d="m460 276v136.33l-73.41-97.24-8.9 26.93c-2.17 6.55-8.29 10.98-15.19 10.98h-229c-6.9 0-13.02-4.43-15.19-10.98l-8.9-26.93-73.41 97.24v-136.33l75.02-29.66c.998-3.646 31.371-114.638 56.53-206.56 1.9-6.96 8.22-11.78 15.43-11.78h130.04c7.21 0 13.53 4.82 15.43 11.78 6.084 22.227 24.532 89.633 56.53 206.56z" fill="#e8f8fc"/><path d="m460 276v136.33l-73.41-97.24 9.41-28.49-11.02-40.26z" fill="#d6f4fc"/><path d="m111.02 246.34-11.02 40.26 9.41 28.49-73.41 97.24v-136.33z" fill="#d6f4fc"/><path d="m100 286.6c11.394 34.496 7.181 21.745 18.311 55.421 2.166 6.553 8.29 10.979 15.192 10.979h228.994c6.902 0 13.026-4.426 15.192-10.979 11.196-33.873 7.003-21.184 18.311-55.421-12.999 0-283.025 0-296 0z" fill="#42434d"/><path d="m328.45 39.78c2.14 7.819-3.745 15.53-11.851 15.53h-91.139c-7.21 0-13.53 4.82-15.43 11.77-5.493 20.071-56.581 206.755-60.07 219.52h-49.96c11.672-42.64 48.582-177.518 67.55-246.82 1.9-6.96 8.22-11.78 15.43-11.78h130.04c7.21 0 13.53 4.82 15.43 11.78z" fill="#f1fafc"/><circle cx="248" cy="161.96" fill="#75f6fc" r="37"/><path d="m262.504 148.689c-13.611 3.2-24.617 14.111-27.809 27.789-2.223 9.525-15.111 11.122-19.596 2.43-16.396-31.774 17.979-66.324 49.865-49.835 8.718 4.508 7.094 17.37-2.46 19.616z" fill="#bbfbff"/><path d="m160.528 353.25h-27.028c-6.9 0-13.02-4.43-15.19-10.98-11.06-33.465-7.096-21.469-18.31-55.42h49.68c11.333 34.311 7.208 21.827 18.31 55.42 1.962 5.922-2.2 10.98-7.462 10.98z" fill="#4d4e59"/><path d="m248 214.96c29.225 0 53-23.776 53-53s-23.775-53-53-53-53 23.776-53 53 23.775 53 53 53zm0-74c11.579 0 21 9.42 21 21s-9.421 21-21 21-21-9.42-21-21 9.421-21 21-21zm232 311.04h-4v-176c0-6.566-4.011-12.465-10.117-14.879l-67.58-26.721c-2.587-9.454-55.508-202.833-57.64-210.623-1.903-6.955-8.223-11.777-15.433-11.777h-154.46c-7.21 0-13.529 4.822-15.433 11.777-2.1 7.673-55.074 201.249-57.64 210.623l-67.58 26.721c-6.106 2.414-10.117 8.313-10.117 14.879v176h-4c-8.837 0-16 7.164-16 16s7.163 16 16 16h72c8.837 0 16-7.164 16-16s-7.163-16-16-16h-36v-34.305l51.799-68.612 2.954 8.938c2.165 6.553 8.289 10.979 15.191 10.979h110.056v83h-18c-8.837 0-16 7.164-16 16s7.163 16 16 16h68c8.837 0 16-7.164 16-16s-7.163-16-16-16h-18v-83h110.056c6.902 0 13.026-4.426 15.191-10.979l2.954-8.938 51.799 68.612v34.305h-36c-8.837 0-16 7.164-16 16s7.163 16 16 16h72c8.837 0 16-7.164 16-16s-7.163-16-16-16zm-297.021-408h130.041l15.152 55.366h-2.172c-8.837 0-16 7.164-16 16s7.163 16 16 16h10.929l16.867 61.634h-21.796c-8.837 0-16 7.164-16 16s7.163 16 16 16h30.554l12.479 45.602h-111.033v-24.602c0-8.836-7.163-16-16-16s-16 7.164-16 16v24.602h-111.033l12.479-45.602h30.554c8.837 0 16-7.164 16-16s-7.163-16-16-16h-21.796l16.867-61.634h10.929c8.837 0 16-7.164 16-16s-7.163-16-16-16h-2.172zm-130.979 320.585v-77.706l35.138-13.893c-4.653 17.003-4.874 10.939 4.453 39.158zm81.508-27.585c-4.198-12.704-9.432-28.541-11.368-34.398h109.86v34.398zm130.492 0v-34.398h109.86c-1.94 5.869-7.178 21.718-11.368 34.398zm140.409-24.856c9.234-27.94 9.181-21.881 4.453-39.158l35.138 13.893v77.706z"/></svg>