<?xml version="1.0" encoding="utf-8"?>
<!-- Generator: Adobe Illustrator 24.3.0, SVG Export Plug-In . SVG Version: 6.00 Build 0)  -->
<svg version="1.1" id="Layer_1" xmlns="http://www.w3.org/2000/svg" xmlns:xlink="http://www.w3.org/1999/xlink" x="0px" y="0px"
	 viewBox="0 0 500 500" style="enable-background:new 0 0 500 500;" xml:space="preserve">
<style type="text/css">
	.st0{fill:#858585;}
	.st1{fill:#386639;}
	.st2{fill:#F3E7CA;}
	.st3{fill:#E6B041;}
	.st4{opacity:0.3;}
	.st5{fill:#FFFFFF;}
	.st6{opacity:0.5;fill:#585857;}
	.st7{fill:#C10E1A;}
	.st8{fill:#1A1A1A;}
	.st9{fill:#222221;}
	.st10{fill:#3E3E3D;}
	.st11{fill:#797877;}
	.st12{fill:#333333;}
	.st13{fill:#545452;}
	.st14{opacity:0.2;}
	.st15{fill:#585857;}
	.st16{opacity:0.5;fill:#EBEBEB;}
	.st17{fill:#ACACAC;}
	.st18{fill:#1B1C1A;}
	.st19{opacity:0.4;}
</style>
<g>
	<path class="st0" d="M368.45,243.66c0,0-12.51-0.21-22.06-2.1c-9.55-1.89-62.11-11.78-66.88-13.35c-3.23,4.52-3.23,6.29-3.23,6.29
		l0.84,5.8l75.75,14.28C352.87,254.58,370.74,250.39,368.45,243.66z"/>
	<g>
		<g>
			<path id="camisatras_4_" class="st1" d="M341.13,256.89l-2.38-8.61l-1.58-0.24l-0.48,1.78c0.2-0.05-3.28,7.49-3.09,7.44
				c0.21-0.05,5.48-0.01,5.7-0.07l0.71-0.12C340.37,256.98,340.76,256.99,341.13,256.89z"/>
			<g id="cara_4_">
				<path class="st2" d="M342.82,236.63l-0.77,4.36c0,0-1.3,6.11-4.7,8.67c-0.05,0.03-0.25,0.07-0.3,0.06
					c-1.58-0.45-3.85-1.6-3.85-1.6s-0.85-3.23-3.24-6.1c-4.16-5.01-7.06-14.79,1.3-17.9C339.6,221.01,342.58,225.62,342.82,236.63z"
					/>
				<path class="st3" d="M341.26,227.02c0,0-7.05,0.54-7.13,8.01c-0.03,3.38,0.98,5.21,1.04,5.49c0.06,0.28-1.43,0.95-1.67,0.82
					c-0.25-0.14-0.6-4.01-1.53-4.11c-0.93-0.1-2.8,1.42-3.04,3.42c-5.13-7.9-2.22-12.7-2.22-12.7S336.4,216.59,341.26,227.02z"/>
			</g>
			<g id="camisa_delante_4_">
				<path class="st1" d="M339.04,258.2l-2.16-10.44l-4.11-0.88l-5.4,11.64C329.38,258.25,336.78,258.77,339.04,258.2z"/>
				<polygon class="st4" points="336.82,247.83 336.15,249.93 331.51,249.57 332.37,247.74 				"/>
				<polygon class="st1" points="336.88,247.77 335.54,249.18 331.51,248.22 332.77,246.89 				"/>
			</g>
			<g id="gafa1_4_">
				<path d="M341.89,228.82c0.7,0.21,1.38,6.91,0.87,8.68c-0.51,1.77-3.18,1.85-4.33,1.52c-1.77-0.51-2.74-2.99-2.06-6.21
					C336.79,230.8,340.16,228.29,341.89,228.82z"/>
				<polygon points="337.09,235.76 327.45,237.99 327.84,238.79 337.68,237.33 				"/>
			</g>
			<g id="gorro_4_">
				<path class="st5" d="M342.07,227.97c0,0-7.28-0.1-6.83,8.93c0.16,3.3,0.33,6.24-2.08,7.63c-1.45,0.84-4.48-1.54-6.04-3.95
					c-1.51-2.33-3.47-7.86-1.09-13.4C329.03,220.2,339.31,218.74,342.07,227.97z"/>
			</g>
			<path class="st6" d="M339.14,228.1l0.88,11.06c0,0,1.11-0.05,1.64-0.41c-0.06-2.84-0.49-10-0.49-10L339.14,228.1z"/>
		</g>
		<path class="st4" d="M330.53,230.82c0,0,2.42,3.51,2.12,8.49c1.5,0.32,2.67,0.28,2.67,0.28s-0.65-9.66,6.88-10.08
			c-0.38-4.36-2.51-7.2-5.47-8.46C334.28,224.75,330.53,230.82,330.53,230.82z"/>
		<path d="M334.07,243.31c0,0,0.87,3.22,5.6,3.66c-0.08,0.81-0.72,1.25-0.72,1.25s-4.11-0.69-5.74-4.31
			C333.73,243.46,334.07,243.31,334.07,243.31z"/>
		<path class="st5" d="M331.17,230.86c0,0,2.41,3.4,2.09,8.24c1.5,0.31,2.67,0.26,2.67,0.26s-0.62-9.38,6.91-9.82
			c-0.37-4.23-2.49-6.98-5.45-8.19C334.94,224.95,331.17,230.86,331.17,230.86z"/>
		<path class="st7" d="M336.16,223.18c0,0,3.76,1.24,4.5,6.8c1.03-0.29,1.72-0.4,1.8-0.41c-0.37-2.23-1.31-6.03-5.3-7.87
			C336.63,222.49,336.16,223.18,336.16,223.18z"/>
		<path class="st8" d="M338.72,241.23c3.25-2.05,3.6-2.62,4.12-4.15c1.43,2.04,2.86,7.31,1.03,9.09c-0.94,0.91-5.59,2.28-6.28,0.36
			C337.19,245.49,337.04,242.3,338.72,241.23z"/>
		<path class="st9" d="M343.44,245.07c0,0,4.2,0.5,6.17,8.56c1.96,8.06-0.37,11.64-0.37,11.64l1.06,1.02c0,0,2.5-3.21,0.43-13
			c-2.07-9.79-7.12-9.31-7.12-9.31S343.08,244.34,343.44,245.07z"/>
		<path class="st10" d="M343.98,245.33c-0.04,0-0.07-0.03-0.08-0.07c0-0.01-0.21-0.84,0.31-1.3c0.04-0.03,0.09-0.02,0.12,0.03
			c0.03,0.05,0.02,0.11-0.02,0.15c-0.42,0.37-0.26,1.04-0.25,1.07c0.01,0.06-0.01,0.11-0.05,0.13
			C343.99,245.32,343.99,245.33,343.98,245.33z"/>
		<path class="st10" d="M344.8,245.66c-0.04,0-0.07-0.03-0.08-0.07c0-0.01-0.22-0.9,0.33-1.38c0.04-0.03,0.09-0.02,0.12,0.03
			c0.03,0.05,0.02,0.11-0.02,0.15c-0.45,0.4-0.27,1.14-0.27,1.15c0.01,0.06-0.01,0.11-0.05,0.13
			C344.82,245.65,344.81,245.66,344.8,245.66z"/>
		<path class="st10" d="M345.46,246.11c-0.05,0-0.08-0.05-0.08-0.1c0-0.01,0-1.04,0.71-1.32c0.04-0.02,0.09,0.01,0.11,0.07
			c0.01,0.06-0.01,0.11-0.05,0.13c-0.59,0.24-0.6,1.09-0.6,1.12C345.55,246.06,345.51,246.11,345.46,246.11L345.46,246.11z"/>
		<path class="st10" d="M346.18,246.81c-0.05,0-0.08-0.05-0.08-0.1c0-0.01,0-1.12,0.76-1.42c0.04-0.02,0.09,0.01,0.11,0.07
			c0.01,0.06-0.01,0.11-0.05,0.13c-0.64,0.26-0.65,1.18-0.65,1.22C346.26,246.76,346.22,246.81,346.18,246.81
			C346.18,246.81,346.18,246.81,346.18,246.81z"/>
		<path class="st10" d="M346.84,247.52c0,0-0.01,0-0.01,0c-0.05-0.01-0.08-0.06-0.07-0.12c0-0.01,0.13-1.1,0.92-1.27
			c0.04-0.01,0.09,0.03,0.1,0.09c0.01,0.06-0.02,0.11-0.07,0.12c-0.66,0.14-0.78,1.05-0.78,1.09
			C346.92,247.49,346.88,247.52,346.84,247.52z"/>
		<path class="st10" d="M347.48,248.39c-0.01,0-0.01,0-0.02,0c-0.04-0.01-0.07-0.07-0.06-0.13c0-0.01,0.22-1.08,1.02-1.14
			c0.05-0.01,0.09,0.04,0.09,0.1c0,0.06-0.03,0.11-0.08,0.11c-0.67,0.06-0.86,0.95-0.87,0.99
			C347.55,248.36,347.51,248.39,347.48,248.39z"/>
		<path class="st10" d="M348.05,249.41c-0.01,0-0.01,0-0.02,0c-0.04-0.01-0.07-0.07-0.06-0.13c0-0.01,0.22-1.08,1.02-1.14
			c0,0,0,0,0.01,0c0.04,0,0.08,0.04,0.08,0.1c0,0.06-0.03,0.11-0.08,0.11c-0.67,0.06-0.86,0.95-0.87,0.99
			C348.12,249.38,348.09,249.41,348.05,249.41z"/>
		<path class="st10" d="M348.52,250.52c-0.01,0-0.02,0-0.03-0.01c-0.04-0.02-0.06-0.09-0.04-0.14c0-0.01,0.37-1.01,1.16-0.9
			c0.05,0.01,0.08,0.06,0.07,0.12c0,0.06-0.05,0.1-0.09,0.09c-0.68-0.09-0.98,0.74-0.99,0.78
			C348.59,250.5,348.56,250.52,348.52,250.52z"/>
		<path class="st10" d="M348.96,251.56c-0.02,0-0.03-0.01-0.05-0.02c-0.04-0.03-0.05-0.1-0.03-0.14c0.02-0.04,0.48-0.92,1.21-0.7
			c0.04,0.01,0.07,0.07,0.06,0.13c-0.01,0.06-0.05,0.09-0.1,0.08c-0.61-0.17-1.01,0.58-1.03,0.61
			C349.01,251.54,348.99,251.56,348.96,251.56z"/>
		<path class="st10" d="M349.33,252.77c-0.02,0-0.03-0.01-0.04-0.02c-0.04-0.03-0.05-0.1-0.03-0.14c0.02-0.04,0.47-0.91,1.21-0.71
			c0.05,0.01,0.07,0.07,0.06,0.13c-0.01,0.06-0.05,0.09-0.1,0.08c-0.62-0.18-1.02,0.61-1.03,0.61
			C349.39,252.75,349.36,252.77,349.33,252.77z"/>
		<path class="st10" d="M349.67,254.07c-0.02,0-0.03-0.01-0.04-0.02c-0.04-0.03-0.05-0.1-0.03-0.14c0.02-0.04,0.48-0.92,1.21-0.7
			c0.04,0.01,0.07,0.07,0.06,0.13c-0.01,0.06-0.05,0.09-0.1,0.08c-0.61-0.18-1.01,0.58-1.03,0.61
			C349.72,254.05,349.7,254.07,349.67,254.07z"/>
		<path class="st10" d="M349.9,255.22c-0.02,0-0.04-0.01-0.06-0.03c-0.03-0.04-0.03-0.11,0-0.15c0.02-0.03,0.6-0.71,1.23-0.31
			c0.04,0.03,0.06,0.09,0.04,0.14c-0.02,0.05-0.07,0.07-0.11,0.05c-0.53-0.33-1.02,0.25-1.04,0.28
			C349.94,255.21,349.92,255.22,349.9,255.22z"/>
		<path class="st10" d="M350.15,256.52c-0.02,0-0.04-0.01-0.06-0.03c-0.03-0.04-0.03-0.11,0-0.15c0.02-0.03,0.57-0.68,1.18-0.3
			c0.04,0.03,0.06,0.09,0.04,0.14c-0.02,0.05-0.07,0.07-0.11,0.05c-0.5-0.31-0.98,0.26-0.99,0.26
			C350.19,256.51,350.17,256.52,350.15,256.52z"/>
		<path class="st10" d="M350.26,257.6c-0.02,0-0.04-0.01-0.06-0.03c-0.03-0.04-0.03-0.11,0-0.15c0.02-0.03,0.57-0.68,1.18-0.3
			c0.04,0.03,0.06,0.09,0.04,0.14c-0.02,0.05-0.07,0.07-0.11,0.05c-0.5-0.32-0.99,0.26-0.99,0.26
			C350.3,257.59,350.28,257.6,350.26,257.6z"/>
		<path class="st4" d="M328.71,239.45c0,0,0,1.5,1.58,1.02c1.58-0.49,1.49-1.91,1.45-2.36c0.37,0.37,0.5,1.97-0.95,2.67
			C329.09,241.57,328.53,240.33,328.71,239.45z"/>
		<path d="M330.23,237.93c0.01,0.11-0.05,0.22-0.14,0.23c-0.09,0.01-0.17-0.07-0.18-0.18c-0.01-0.11,0.05-0.22,0.14-0.23
			C330.14,237.74,330.22,237.82,330.23,237.93z"/>
		<path d="M330.64,239.5c0.01,0.11-0.05,0.22-0.14,0.23c-0.09,0.02-0.17-0.07-0.18-0.18c-0.01-0.11,0.05-0.22,0.14-0.23
			C330.55,239.3,330.63,239.38,330.64,239.5z"/>
		<path d="M329.75,239.03c0.01,0.11-0.05,0.22-0.14,0.23c-0.09,0.02-0.17-0.06-0.18-0.18c-0.01-0.11,0.05-0.22,0.14-0.23
			C329.66,238.83,329.74,238.91,329.75,239.03z"/>
		<path d="M331.14,238.41c0.01,0.11-0.05,0.22-0.14,0.23c-0.09,0.01-0.17-0.07-0.19-0.18c-0.01-0.11,0.05-0.22,0.14-0.23
			C331.04,238.21,331.12,238.29,331.14,238.41z"/>
		<path d="M330.44,238.73c0.01,0.11-0.05,0.22-0.14,0.23c-0.09,0.01-0.17-0.06-0.18-0.18c-0.01-0.11,0.05-0.22,0.14-0.23
			C330.35,238.54,330.43,238.61,330.44,238.73z"/>
	</g>
	<g>
		<g>
			<path id="camisatras_1_" class="st1" d="M311.56,251.28l-3.38-8.07l-1.59,0.06l-0.26,1.85c0.19-0.08-2.35,8.03-2.16,7.94
				c0.2-0.09,5.42-1.04,5.62-1.14l0.69-0.25C310.82,251.51,311.21,251.45,311.56,251.28z"/>
			<g id="cara_2_">
				<path class="st2" d="M310.8,230.93l-0.24,4.45c0,0-0.56,6.28-3.61,9.45c-0.04,0.04-0.24,0.12-0.29,0.11
					c-1.61-0.15-4-0.86-4-0.86s-1.23-3.03-3.93-5.42c-4.71-4.17-8.76-13.3-0.87-17.94C305.74,216.1,309.24,220.09,310.8,230.93z"/>
				<path class="st3" d="M308.1,221.72c0,0-6.91,1.86-6.08,9.26c0.37,3.35,1.59,4.97,1.68,5.23c0.09,0.27-1.3,1.21-1.56,1.12
					c-0.26-0.09-1.07-3.85-2-3.78c-0.93,0.08-2.6,1.93-2.6,3.95c-6.02-6.85-3.72-12.13-3.72-12.13S302.05,212.33,308.1,221.72z"/>
			</g>
			<g id="camisa_delante_1_">
				<path class="st1" d="M309.65,252.97l-3.38-9.91l-4.17-0.1l-3.94,12.52C300.11,254.83,307.49,253.95,309.65,252.97z"/>
				<polygon class="st4" points="306.21,243.13 305.8,245.33 301.17,245.85 301.8,243.88 				"/>
				<polygon class="st1" points="306.26,243.06 305.1,244.71 301.01,244.51 302.1,242.96 				"/>
			</g>
			<g id="gafa1_2_">
				<path d="M308.94,223.38c0.72,0.08,2.2,6.57,1.9,8.41c-0.29,1.85-2.92,2.43-4.1,2.32c-1.81-0.17-3.07-2.44-2.78-5.76
					C304.14,226.3,307.17,223.18,308.94,223.38z"/>
				<polygon points="305.03,231.15 295.76,235.17 296.24,235.88 305.81,232.59 				"/>
			</g>
			<g id="gorro_2_">
				<path class="st5" d="M309.02,222.51c0,0-7.21,1.27-5.68,10.11c0.56,3.23,1.08,6.1-1.14,7.94c-1.33,1.1-4.61-0.68-6.44-2.77
					c-1.77-2.02-4.37-7.12-2.68-13.04C295.19,217.28,305.19,213.9,309.02,222.51z"/>
			</g>
			<path class="st6" d="M306.14,223.19l2.19,10.77c0,0,1.09-0.25,1.57-0.71c-0.4-2.8-1.69-9.8-1.69-9.8L306.14,223.19z"/>
		</g>
		<path class="st4" d="M297.95,227.49c0,0,2.82,3.01,3.11,8c1.52,0.04,2.68-0.22,2.68-0.22s-1.81-9.43,5.6-11.25
			c-0.9-4.24-3.34-6.64-6.43-7.33C300.93,220.79,297.95,227.49,297.95,227.49z"/>
		<path d="M302.95,239.18c0,0,1.25,3.02,5.97,2.57c0.02,0.82-0.56,1.37-0.56,1.37s-4.15,0.09-6.19-3.19
			C302.63,239.39,302.95,239.18,302.95,239.18z"/>
		<path class="st5" d="M298.59,227.41c0,0,2.79,2.91,3.06,7.76c1.52,0.02,2.67-0.24,2.67-0.24s-1.74-9.16,5.65-11.01
			c-0.87-4.12-3.29-6.43-6.37-7.07C301.6,220.86,298.59,227.41,298.59,227.41z"/>
		<path class="st7" d="M302.6,218.89c0,0,3.87,0.52,5.26,5.87c0.98-0.48,1.65-0.72,1.73-0.74c-0.63-2.13-2.02-5.71-6.19-6.79
			C302.98,218.11,302.6,218.89,302.6,218.89z"/>
		<path class="st8" d="M307.3,236.25c2.96-2.64,3.24-3.27,3.58-4.87c1.66,1.75,3.7,6.69,2.1,8.79c-0.82,1.08-5.25,3.31-6.17,1.53
			C306.29,240.75,305.76,237.62,307.3,236.25z"/>
		<path class="st9" d="M312.42,239.16c0,0,4.21-0.3,7.12,7.31c2.91,7.6,1.03,11.58,1.03,11.58l1.18,0.81c0,0,2.08-3.64-1.13-12.93
			c-3.22-9.29-8.16-7.87-8.16-7.87S311.98,238.5,312.42,239.16z"/>
		<path class="st10" d="M312.97,239.31c-0.03,0-0.06-0.02-0.08-0.06c0-0.01-0.31-0.8,0.15-1.35c0.03-0.04,0.09-0.04,0.12,0
			c0.03,0.04,0.03,0.11,0,0.15c-0.37,0.44-0.13,1.08-0.12,1.1c0.02,0.05,0,0.11-0.04,0.14C313,239.31,312.99,239.31,312.97,239.31z"
			/>
		<path class="st10" d="M313.83,239.48c-0.03,0-0.06-0.02-0.08-0.06c0-0.01-0.33-0.85,0.16-1.43c0.03-0.04,0.09-0.04,0.12,0
			c0.03,0.04,0.03,0.11,0,0.15c-0.4,0.48-0.14,1.16-0.13,1.19c0.02,0.05,0,0.11-0.04,0.14
			C313.85,239.48,313.84,239.48,313.83,239.48z"/>
		<path class="st10" d="M314.54,239.8c-0.04,0-0.08-0.04-0.08-0.09c0-0.01-0.12-1.03,0.54-1.44c0.04-0.02,0.09,0,0.11,0.05
			c0.02,0.05,0,0.11-0.04,0.14c-0.56,0.35-0.46,1.19-0.45,1.22c0.01,0.06-0.02,0.11-0.07,0.12
			C314.54,239.8,314.54,239.8,314.54,239.8z"/>
		<path class="st10" d="M315.33,240.37c-0.04,0-0.08-0.04-0.08-0.09c0-0.01-0.13-1.1,0.58-1.55c0.04-0.02,0.09,0,0.11,0.05
			c0.02,0.05,0,0.11-0.04,0.14c-0.61,0.38-0.49,1.32-0.49,1.33c0.01,0.06-0.02,0.11-0.07,0.12
			C315.34,240.37,315.33,240.37,315.33,240.37z"/>
		<path class="st10" d="M316.07,240.95c-0.05,0-0.08-0.05-0.08-0.1c0-0.01,0-1.11,0.76-1.42c0.05-0.02,0.09,0.01,0.11,0.07
			c0.01,0.05-0.01,0.11-0.05,0.13c-0.64,0.26-0.64,1.22-0.64,1.22C316.15,240.9,316.11,240.95,316.07,240.95L316.07,240.95z"/>
		<path class="st10" d="M316.8,241.69C316.8,241.69,316.8,241.69,316.8,241.69c-0.05-0.01-0.09-0.06-0.08-0.11
			c0-0.01,0.09-1.11,0.87-1.32c0.04-0.01,0.09,0.02,0.1,0.08c0.01,0.06-0.02,0.11-0.06,0.12c-0.66,0.18-0.73,1.1-0.74,1.14
			C316.88,241.65,316.85,241.69,316.8,241.69z"/>
		<path class="st10" d="M317.49,242.59C317.49,242.59,317.49,242.59,317.49,242.59c-0.05-0.01-0.09-0.06-0.08-0.11
			c0-0.01,0.09-1.11,0.87-1.32c0.05-0.01,0.09,0.02,0.1,0.08c0.01,0.06-0.02,0.11-0.06,0.12c-0.66,0.18-0.73,1.1-0.74,1.14
			C317.57,242.55,317.54,242.59,317.49,242.59z"/>
		<path class="st10" d="M318.09,243.59c-0.01,0-0.01,0-0.02,0c-0.04-0.02-0.07-0.07-0.06-0.13c0-0.01,0.24-1.07,1.04-1.11
			c0,0,0,0,0,0c0.04,0,0.08,0.04,0.08,0.1c0,0.06-0.03,0.11-0.08,0.11c-0.68,0.03-0.89,0.95-0.89,0.96
			C318.16,243.56,318.13,243.59,318.09,243.59z"/>
		<path class="st10" d="M318.65,244.54c-0.01,0-0.02,0-0.03-0.01c-0.04-0.02-0.06-0.08-0.04-0.14c0.01-0.04,0.35-1,1.11-0.92
			c0.05,0,0.08,0.05,0.08,0.11c0,0.06-0.04,0.1-0.09,0.1c-0.63-0.06-0.93,0.76-0.94,0.8C318.71,244.52,318.68,244.54,318.65,244.54z
			"/>
		<path class="st10" d="M319.16,245.66c-0.01,0-0.02,0-0.03-0.01c-0.04-0.02-0.06-0.08-0.04-0.14c0.01-0.04,0.35-1,1.11-0.92
			c0.05,0,0.08,0.05,0.08,0.11c0,0.06-0.04,0.11-0.09,0.1c-0.62-0.06-0.93,0.76-0.94,0.8C319.23,245.64,319.19,245.66,319.16,245.66
			z"/>
		<path class="st10" d="M319.65,246.88c-0.01,0-0.02,0-0.03-0.01c-0.04-0.02-0.06-0.08-0.04-0.14c0.01-0.04,0.33-0.93,1.03-0.93
			c0.03,0,0.05,0,0.08,0c0.05,0,0.08,0.05,0.08,0.11c0,0.06-0.04,0.1-0.09,0.1c-0.63-0.06-0.94,0.79-0.94,0.8
			C319.71,246.86,319.68,246.88,319.65,246.88z"/>
		<path class="st10" d="M320.02,247.98c-0.02,0-0.04-0.01-0.05-0.02c-0.04-0.03-0.04-0.1-0.02-0.15c0.02-0.03,0.51-0.81,1.18-0.54
			c0.04,0.02,0.07,0.08,0.05,0.13c-0.01,0.05-0.06,0.08-0.11,0.07c-0.56-0.23-0.99,0.46-1,0.47
			C320.07,247.97,320.04,247.98,320.02,247.98z"/>
		<path class="st10" d="M320.42,249.23c-0.02,0-0.04-0.01-0.05-0.02c-0.04-0.03-0.04-0.1-0.02-0.15c0.02-0.03,0.48-0.78,1.13-0.52
			c0.04,0.02,0.07,0.08,0.05,0.13c-0.01,0.05-0.06,0.08-0.11,0.07c-0.54-0.22-0.94,0.44-0.95,0.44
			C320.47,249.21,320.44,249.23,320.42,249.23z"/>
		<path class="st10" d="M320.66,250.27c-0.02,0-0.04-0.01-0.05-0.02c-0.04-0.04-0.04-0.1-0.02-0.15c0.02-0.03,0.48-0.78,1.13-0.52
			c0.04,0.02,0.07,0.08,0.05,0.13c-0.01,0.06-0.06,0.09-0.11,0.07c-0.53-0.22-0.93,0.42-0.95,0.44
			C320.71,250.25,320.68,250.27,320.66,250.27z"/>
		<path class="st4" d="M297.18,236.37c0,0,0.18,1.48,1.68,0.71c1.5-0.78,1.25-2.17,1.15-2.61c0.41,0.3,0.73,1.86-0.62,2.82
			C297.82,238.4,297.11,237.28,297.18,236.37z"/>
		<path d="M298.51,234.58c0.02,0.11-0.03,0.22-0.11,0.26c-0.09,0.03-0.18-0.03-0.2-0.14c-0.03-0.11,0.02-0.22,0.11-0.26
			C298.39,234.41,298.48,234.47,298.51,234.58z"/>
		<path d="M299.1,236.05c0.03,0.11-0.02,0.22-0.11,0.26c-0.09,0.03-0.18-0.03-0.2-0.14c-0.03-0.11,0.02-0.22,0.11-0.26
			C298.99,235.88,299.08,235.94,299.1,236.05z"/>
		<path d="M298.17,235.75c0.03,0.11-0.03,0.22-0.11,0.25c-0.09,0.03-0.18-0.03-0.2-0.14c-0.03-0.11,0.02-0.22,0.11-0.26
			C298.05,235.58,298.14,235.64,298.17,235.75z"/>
		<path d="M299.46,234.88c0.03,0.11-0.03,0.22-0.11,0.26c-0.09,0.03-0.18-0.03-0.2-0.14c-0.03-0.11,0.03-0.22,0.11-0.25
			C299.34,234.71,299.44,234.77,299.46,234.88z"/>
		<path d="M298.81,235.33c0.02,0.11-0.02,0.22-0.11,0.26c-0.09,0.03-0.18-0.03-0.2-0.14c-0.03-0.11,0.02-0.22,0.11-0.26
			C298.7,235.16,298.79,235.22,298.81,235.33z"/>
	</g>
	<g>
		<polygon class="st11" points="195.21,253.44 150.31,173.64 130.08,176.17 133.87,253.44 		"/>
		<g>
			<polygon class="st12" points="150.31,173.64 153.23,178.84 130.37,182.14 130.08,176.17 			"/>
		</g>
		<path class="st13" d="M139.77,191.45c0,0-4.26-1.43-8.67-1.38c-3.03,0.03-4.49,1.79-4.7,2.36c0.38,0.49,1.7,1.15,5.07,1.33
			C134.85,193.94,139.77,191.45,139.77,191.45z"/>
		<g class="st14">
			<polygon points="135.5,240.53 185.57,236.3 190.06,244.29 135.5,248.57 			"/>
		</g>
		<path class="st13" d="M140.47,200.61c0,0-4.26-1.43-8.67-1.38c-3.03,0.04-4.49,1.79-4.7,2.36c0.38,0.49,1.7,1.15,5.07,1.33
			C135.55,203.11,140.47,200.61,140.47,200.61z"/>
	</g>
	<g>
		<path class="st11" d="M235.46,220.01c0,0-1.56-2.94-32.96-3.57c-3.17,3.99-5.14,6.61-7.75,10.08l16.7,0.03l-13.56,23.85
			l-19.55-0.54l84.52,0.54L235.46,220.01z"/>
		<path class="st13" d="M246.5,218.79c-0.01,0.91-5.26,0.84-11.84,0.75c-6.57-0.09-31.05,0.09-34.15-0.63
			c-1.09-0.59-0.21-2.15,1.1-2.73C207.59,216.26,246.53,215.59,246.5,218.79z"/>
		<polygon class="st15" points="206.94,238.59 206.8,238.48 213.94,225.23 195.99,224.96 195.99,224.75 214.26,225.02 
			214.17,225.18 		"/>
		<polygon class="st15" points="215.62,249.28 215.29,249.24 217.75,217.83 218.08,217.87 		"/>
		<path class="st7" d="M238.8,219.79c0,0-0.68-1.21-0.12-2.95c3.03,0.08,7.96,1.03,7.96,1.89
			C246.64,219.87,239.98,219.81,238.8,219.79z"/>
	</g>
	<polygon class="st13" points="211.35,226.73 193.22,258.53 173.97,257.66 193.69,226.73 	"/>
	<g>
		<path class="st12" d="M288.1,283.49c0,0-6.3,9.58-7.14,11.26c-0.84,1.68-10.48,6.72-18.73,7.15c-2.53-6.2-1.97-8.6-1.97-8.6
			l10.23-17.16C270.49,276.14,287.26,278.69,288.1,283.49z"/>
		<path class="st12" d="M282.14,286.22c0,0-3.35,7.95-7.51,9.04c-4.16,1.08-10.86,3.04-10.86,3.04l8.26-13.59
			C272.03,284.71,280.87,284.12,282.14,286.22z"/>
	</g>
	<polygon class="st13" points="139.2,256.59 116.16,244.29 104.15,245.87 109.08,258.8 	"/>
	<path class="st16" d="M368.45,243.66c0,0-21.46-25.81-50.79-29.8c-24.26-3.3-38.15,14.35-38.15,14.35l-2.39,8.1l1.83,8.83
		l78.39,8.3l9.85-7.25L368.45,243.66z"/>
	<g>
		<g>
			<path class="st12" d="M118.2,248.57l-15.64,4.1c0,0-6.36,8.2,0,17.66c9.87,4.2,13.66,6.73,23.64,7.15
				C126.08,264.68,118.2,248.57,118.2,248.57z"/>
			<g class="st14">
				<path class="st0" d="M101.22,255.01c0.1-0.22,0.21-0.43,0.31-0.63l13.02-1.88c-0.09,0.2-0.18,0.4-0.26,0.62L101.22,255.01z"/>
				<path class="st0" d="M100.26,257.68c0.05-0.2,0.11-0.4,0.17-0.6l13.11-1.37c-0.04,0.19-0.07,0.39-0.1,0.59L100.26,257.68z"/>
				<path class="st0" d="M99.78,260.48c0.01-0.2,0.03-0.39,0.05-0.58l13.31-0.85c-0.01,0.19-0.02,0.38-0.02,0.58L99.78,260.48z"/>
				<path class="st0" d="M113.2,262.86l-13.36,0.32c-0.02-0.19-0.04-0.39-0.06-0.58l13.38-0.32
					C113.17,262.47,113.19,262.67,113.2,262.86z"/>
				<path class="st0" d="M100.44,265.99c-0.06-0.2-0.12-0.39-0.17-0.58l13.21,0.22c0.03,0.19,0.06,0.39,0.1,0.58L100.44,265.99z"/>
				<path class="st0" d="M101.49,268.52c-0.1-0.2-0.2-0.4-0.29-0.6l12.8,0.76c0.03,0.2,0.07,0.39,0.11,0.58L101.49,268.52z"/>
			</g>
		</g>
		<path class="st17" d="M434.21,269.84c0,0-40.47-21.76-65.76-26.18c-10.12,5.68-28.01,4.7-42.23,2.63
			c-25.11-3.66-46.71-9.25-46.71-9.25v-8.83c0,0-8.22,3.15-12.86,5.68c-15.35,1.09-67.07,3.35-138.88,12.94
			c-5.67,0.76-13.08,2.51-13.08,2.51c-2.36,3.28-2.76,12.6,0.83,22.11c0.84,5.05,6.26,10.92,15.11,13.79
			c9.56,2.52,39.04,13.51,72.58,16.66c23.89,2.24,59.01,0,59.01,0l10.82-15.98C273.05,285.92,375.48,290.86,434.21,269.84z"/>
		<path class="st3" d="M335.71,247.41c0,0-5.43,14.1,1.55,38.09c-8.9,0.39-22.83,0.79-22.83,0.79c-1.62-7.14-6.01-19.83-1.85-42.21
			C323.68,246.09,333.48,247.23,335.71,247.41z"/>
		<path class="st18" d="M273.05,285.92c0,0-15.86-0.49-18.64-0.49c7.86,0.72,16.9,3.06,16.9,3.06L273.05,285.92z"/>
		<path class="st13" d="M143.67,244.78l126.44-10.43c0,0-20.84-0.63-38.71,0.41C195.95,236.83,143.67,244.78,143.67,244.78z"/>
		<g>
			<g>
				<path class="st13" d="M396.37,252.26c20.29,8.43,37.85,17.58,37.85,17.58c-13.56,5.26-36.4,9.27-38.8,9.66
					C390.34,261.06,396.36,252.26,396.37,252.26z"/>
			</g>
			<g>
				<path class="st10" d="M397.58,252.77c0.15,0.06,0.29,0.12,0.44,0.19c-1.03,2.51-2.77,7.75-2.4,13.93
					c0.38,6.26,1.27,10.41,1.75,12.27c-0.16,0.03-0.32,0.06-0.46,0.08c-0.49-1.95-1.37-6.11-1.74-12.31
					C394.78,260.67,396.51,255.37,397.58,252.77z"/>
			</g>
			<g>
				<path class="st15" d="M350.45,249.9c-17.16,0-50.64-5.37-72.46-11.81l-0.18-0.05v-9.16c0.17-0.07,0.32-0.13,0.46-0.18v8.89
					c23.47,6.9,60.24,12.55,75.79,11.65c10.23-0.6,14.47-3.54,16.1-5.25c0.2,0.04,0.41,0.08,0.61,0.12
					c-1.47,1.76-5.66,5.06-16.69,5.7C352.97,249.87,351.76,249.9,350.45,249.9z"/>
			</g>
			<path class="st10" d="M399.07,255.23c0,0.36-0.24,0.64-0.53,0.64c-0.29-0.01-0.51-0.3-0.51-0.66c0-0.36,0.24-0.64,0.53-0.64
				C398.84,254.58,399.07,254.88,399.07,255.23z"/>
			<path class="st15" d="M371.29,246.11c0,0.36-0.24,0.64-0.53,0.64c-0.29-0.01-0.51-0.3-0.51-0.66c0-0.36,0.24-0.64,0.53-0.64
				C371.06,245.46,371.29,245.75,371.29,246.11z"/>
			<path class="st15" d="M365.82,249.27c0,0.36-0.24,0.64-0.52,0.64c-0.29-0.01-0.51-0.3-0.51-0.66c0-0.36,0.24-0.64,0.53-0.64
				C365.6,248.62,365.83,248.91,365.82,249.27z"/>
			<path class="st15" d="M359.55,250.56c0,0.36-0.24,0.64-0.52,0.64c-0.29-0.01-0.51-0.3-0.51-0.66c0-0.36,0.24-0.64,0.53-0.64
				C359.33,249.91,359.56,250.2,359.55,250.56z"/>
			<path class="st15" d="M352.72,251.21c0,0.36-0.24,0.64-0.53,0.64c-0.29-0.01-0.51-0.3-0.51-0.66c0-0.36,0.24-0.64,0.53-0.64
				C352.5,250.55,352.73,250.85,352.72,251.21z"/>
			<path class="st15" d="M346.07,251.21c0,0.36-0.24,0.64-0.52,0.64c-0.29-0.01-0.51-0.3-0.51-0.66c0-0.36,0.24-0.64,0.53-0.64
				C345.85,250.55,346.08,250.85,346.07,251.21z"/>
			<path class="st15" d="M339.35,250.56c0,0.36-0.24,0.64-0.52,0.64c-0.29-0.01-0.51-0.3-0.51-0.66c0-0.36,0.24-0.64,0.53-0.64
				C339.12,249.91,339.35,250.2,339.35,250.56z"/>
			<path class="st15" d="M332.91,249.91c0,0.36-0.24,0.64-0.52,0.64c-0.29-0.01-0.51-0.3-0.51-0.66c0-0.36,0.24-0.64,0.53-0.64
				C332.68,249.26,332.91,249.56,332.91,249.91z"/>
			<path class="st15" d="M326.79,249.27c0,0.36-0.24,0.64-0.52,0.64c-0.29-0.01-0.51-0.3-0.51-0.66c0-0.36,0.24-0.64,0.53-0.64
				C326.57,248.62,326.8,248.91,326.79,249.27z"/>
			<path class="st15" d="M320.11,248.33c0,0.36-0.24,0.64-0.52,0.64c-0.29-0.01-0.51-0.3-0.51-0.66c0-0.36,0.24-0.64,0.53-0.64
				C319.89,247.68,320.11,247.97,320.11,248.33z"/>
			<path class="st15" d="M313.57,247.48c-0.02,0.36-0.27,0.62-0.55,0.6c-0.29-0.03-0.5-0.33-0.48-0.69c0.02-0.36,0.27-0.62,0.55-0.6
				C313.37,246.82,313.59,247.12,313.57,247.48z"/>
			<path class="st15" d="M307.16,246.39c-0.02,0.36-0.27,0.62-0.55,0.6c-0.29-0.02-0.5-0.33-0.48-0.69c0.02-0.36,0.27-0.63,0.55-0.6
				C306.97,245.73,307.18,246.04,307.16,246.39z"/>
			<path class="st15" d="M301.09,245.33c-0.02,0.36-0.27,0.63-0.55,0.6c-0.29-0.03-0.5-0.33-0.48-0.69c0.02-0.36,0.27-0.62,0.55-0.6
				C300.89,244.66,301.11,244.97,301.09,245.33z"/>
			<path class="st15" d="M294.45,243.94c-0.02,0.36-0.27,0.62-0.55,0.6c-0.29-0.03-0.5-0.34-0.48-0.69c0.02-0.36,0.27-0.63,0.55-0.6
				C294.26,243.27,294.47,243.58,294.45,243.94z"/>
			<path class="st15" d="M288.14,242.08c-0.02,0.36-0.27,0.62-0.55,0.6c-0.29-0.03-0.5-0.33-0.48-0.69c0.02-0.36,0.27-0.63,0.55-0.6
				C287.95,241.42,288.16,241.73,288.14,242.08z"/>
			<path class="st15" d="M281.75,240.79c-0.02,0.36-0.27,0.62-0.55,0.6c-0.29-0.03-0.5-0.34-0.48-0.69c0.02-0.36,0.27-0.63,0.55-0.6
				C281.56,240.12,281.77,240.43,281.75,240.79z"/>
			<path class="st15" d="M276.79,235.42c-0.02,0.36-0.27,0.62-0.55,0.6c-0.29-0.03-0.5-0.33-0.48-0.69c0.02-0.36,0.27-0.62,0.55-0.6
				C276.6,234.75,276.82,235.06,276.79,235.42z"/>
			<path class="st10" d="M398.03,259.93c0,0.36-0.24,0.64-0.52,0.64c-0.29-0.01-0.51-0.3-0.51-0.66c0-0.36,0.24-0.64,0.53-0.64
				C397.81,259.28,398.04,259.58,398.03,259.93z"/>
			<path class="st10" d="M397.52,265.22c0,0.36-0.24,0.64-0.53,0.64c-0.29-0.01-0.51-0.3-0.51-0.66c0-0.36,0.24-0.64,0.53-0.64
				C397.29,264.57,397.52,264.87,397.52,265.22z"/>
			<path class="st10" d="M397.98,270.49c0,0.36-0.24,0.64-0.53,0.64c-0.29-0.01-0.51-0.3-0.51-0.66c0-0.36,0.24-0.64,0.53-0.64
				C397.76,269.84,397.98,270.13,397.98,270.49z"/>
			<path class="st10" d="M398.44,276.21c0,0.36-0.24,0.64-0.52,0.64c-0.29-0.01-0.51-0.3-0.51-0.66c0-0.36,0.24-0.64,0.53-0.64
				C398.22,275.56,398.45,275.85,398.44,276.21z"/>
		</g>
	</g>
	<path class="st19" d="M99.86,259.72c-0.39,3.53,0.58,6.27,0.58,6.27s37.36,8.02,33.91-12.13c-8.03-0.45-21.37,1.16-21.37,1.16
		L99.86,259.72z"/>
	<g>
		<path class="st12" d="M111.89,256.59l-15.64,4.1c0,0-6.36,8.2,0,17.66c9.87,4.2,13.66,6.73,23.64,7.15
			C119.76,272.7,111.89,256.59,111.89,256.59z"/>
		<path class="st11" d="M165.2,273.44c1.3-6.27,2.5-12.6,4.05-18.78c0.32-1.29-0.01-2.57,0.34-3.85
			c-34.74,2.65-56.51,5.34-56.51,5.34s-7.93,0.83-5.98,17.15c0.84,5.05,1.69,10.09,2.81,10.93c5.86,1.55,27,6.65,50.21,11.1
			C161.98,288.11,163.67,280.84,165.2,273.44z"/>
		<g class="st14">
			<path class="st0" d="M94.9,263.03c0.1-0.22,0.21-0.43,0.31-0.63l13.02-1.88c-0.09,0.2-0.18,0.4-0.26,0.62L94.9,263.03z"/>
			<path class="st0" d="M93.94,265.69c0.05-0.2,0.11-0.4,0.17-0.6l13.11-1.37c-0.04,0.19-0.07,0.39-0.1,0.59L93.94,265.69z"/>
			<path class="st0" d="M93.47,268.5c0.01-0.2,0.03-0.39,0.05-0.58l13.31-0.85c-0.01,0.19-0.02,0.38-0.02,0.58L93.47,268.5z"/>
			<path class="st0" d="M106.88,270.88l-13.36,0.32c-0.02-0.19-0.04-0.39-0.06-0.58l13.38-0.32
				C106.86,270.49,106.87,270.69,106.88,270.88z"/>
			<path class="st0" d="M94.12,274c-0.06-0.2-0.11-0.39-0.17-0.58l13.21,0.22c0.03,0.19,0.06,0.39,0.1,0.58L94.12,274z"/>
			<path class="st0" d="M95.17,276.53c-0.1-0.2-0.2-0.4-0.29-0.6l12.8,0.76c0.03,0.2,0.07,0.39,0.11,0.58L95.17,276.53z"/>
		</g>
	</g>
	<g class="st14">
		<path d="M139.77,272.04l-8.12,8.74c14.72,2.98,31.58,3.22,31.58,3.22s69.33-7.27,96.98-20.01c2.7,5.94,2.08,8.31-2.39,11.21
			c6.37,0,38.36,2.89,81.5,2.89c43.14,0,94.9-8.25,94.9-8.25c-58.73,21.03-161.16,16.08-161.16,16.08l-10.82,15.98
			c0,0-15.08,11.9-38.97,9.66c-30.75-2.89-90.72-8.89-122.63-17.31c-0.33-0.24,8.65-10.86,8.37-11.71v-0.21L139.77,272.04z"/>
	</g>
	<polygon class="st13" points="139.77,272.04 85.39,302.9 65.79,302.9 100.99,273.94 	"/>
	<polygon class="st14" points="180.74,256.91 122.69,268.57 110.2,268.57 123.76,260.11 	"/>
	<g>
		<polygon class="st13" points="180.74,256.91 133.87,191.62 110.14,194.14 123.76,260.11 		"/>
		<g>
			<path class="st3" d="M140.19,227.11l-3.35-6.03l-1.79,7l-5.62,2.13l4.77,4.29l-0.13,7.34l4.73-4.35l5.55,2.42l-1.84-6.97
				l3.55-5.85L140.19,227.11z"/>
		</g>
		<g>
			<polygon class="st12" points="133.87,191.62 138,197.64 111.5,200.76 110.14,194.14 			"/>
		</g>
		<path class="st12" d="M123.15,209.49c0,0-4.92-0.84-9.84,0c-3.38,0.58-4.81,2.79-4.98,3.47c0.48,0.48,2.03,0.98,5.82,0.59
			C117.94,213.15,123.15,209.49,123.15,209.49z"/>
		<path class="st12" d="M124.97,219.6c0,0-4.92-0.84-9.84,0c-3.38,0.58-4.81,2.79-4.98,3.47c0.48,0.48,2.03,0.98,5.82,0.59
			C119.75,223.26,124.97,219.6,124.97,219.6z"/>
	</g>
	<g>
		<path class="st13" d="M260.21,263.99c1.08,3.16,1.54,3.45,0.04,7.78l-78.44,49.84l-2.33,1.04l-0.58-5.35l62.97-48.8L260.21,263.99
			z"/>
		<path class="st11" d="M166.75,268.19l-5.27,8.57l19.94,0.04l-19.94,32.44l-19.36-0.69l-9.59,15.08
			c21.08,2.81,48.13-2.07,48.13-2.07s44.98-35.7,79.55-57.57L166.75,268.19z"/>
		<path class="st13" d="M195.66,324.09c0,1.16-6.62,1.88-14.92,1.88c-8.3,0-45.62,0.87-49.55,0c-1.39-0.72-0.31-3.44,1.35-4.19
			C140.08,321.78,195.66,320.04,195.66,324.09z"/>
		<polygon class="st13" points="260.21,263.99 159.99,264.45 166.75,268.19 		"/>
		<polygon class="st15" points="162.37,311.56 162.32,311.56 140.78,310.78 140.78,310.57 162.28,311.35 183.83,275.63 
			162.22,275.67 162.22,275.46 184.17,275.42 		"/>
		<polygon class="st15" points="164.73,321.56 164.5,321.26 210.56,265.84 210.79,266.14 		"/>
		<path class="st7" d="M187.14,321.98c0,0-2.2,1.65-1.47,4.01c2.31,0.1,10.12-0.52,10.44-2
			C196.44,322.51,188.69,321.97,187.14,321.98z"/>
	</g>
</g>
</svg>
