<?xml version="1.0" encoding="utf-8"?>
<!-- Generator: Adobe Illustrator 24.2.3, SVG Export Plug-In . SVG Version: 6.00 Build 0)  -->
<svg version="1.1" id="Layer_1" xmlns="http://www.w3.org/2000/svg" xmlns:xlink="http://www.w3.org/1999/xlink" x="0px" y="0px"
	 viewBox="0 0 512 512" style="enable-background:new 0 0 512 512;" xml:space="preserve">
<style type="text/css">
	.st0{fill:#42434D;}
	.st1{fill:#4D4E59;}
	.st2{fill:#E8F8FC;}
	.st3{fill:#75F6FC;}
	.st4{fill:#D6F4FC;}
	.st5{fill:#F1FAFC;}
	.st6{fill:#BBFBFF;}
</style>
<path class="st0" d="M343.4,172.5c-4.2,0-7.6,3.4-7.6,7.6c0,1.6,0,161.6,0,160.3c0,4.2,3.4,7.6,7.6,7.6h45.4c4.2,0,7.6-3.4,7.6-7.6
	c0-1.6,0-161.6,0-160.3c0-4.2-3.4-7.6-7.6-7.6H343.4z"/>
<path class="st0" d="M123.2,172.5c-4.2,0-7.6,3.4-7.6,7.6c0,1.6,0,161.6,0,160.3c0,4.2,3.4,7.6,7.6,7.6h45.4c4.2,0,7.6-3.4,7.6-7.6
	c0-1.6,0-161.6,0-160.3c0-4.2-3.4-7.6-7.6-7.6H123.2z"/>
<path class="st1" d="M176.2,180.1c0,4.2-3.4,7.6-7.6,7.6h-29.5c-2.7,0-4.8,2.2-4.8,4.8v147.9c0,4.2-3.4,7.6-7.6,7.6h-3.4
	c-4.2,0-7.6-3.4-7.6-7.6V180.1c0-4.2,3.4-7.6,7.6-7.6h45.4C172.8,172.5,176.2,175.9,176.2,180.1z"/>
<path class="st1" d="M396.3,180.1c0,4.2-3.4,7.6-7.6,7.6h-29.5c-2.7,0-4.8,2.2-4.8,4.8v147.9c0,4.2-3.4,7.6-7.6,7.6h-3.4
	c-4.2,0-7.6-3.4-7.6-7.6V180.1c0-4.2,3.4-7.6,7.6-7.6h45.4C392.9,172.5,396.3,175.9,396.3,180.1L396.3,180.1z"/>
<path class="st2" d="M309.2,177.4v47.2c0,5.3-4.3,9.7-9.7,9.7v42.3c0,5.3-4.3,9.7-9.7,9.7v79.8c0,5.3-4.3,9.7-9.7,9.7h-48.4
	c-5.3,0-9.7-4.3-9.7-9.7v-79.8c-5.4,0-9.7-4.3-9.7-9.7v-42.3c-5.3,0-9.7-4.3-9.7-9.7v-47.2c0-2.7,2.2-4.8,4.8-4.8
	c6.3-21.4,26.1-36.3,48.4-36.3c22.3,0,42.1,14.8,48.4,36.3C307.1,172.5,309.2,174.7,309.2,177.4z"/>
<path class="st3" d="M304.4,172.5c-38.3,0-48.8,0-96.8,0c6.3-21.4,26.1-36.3,48.4-36.3C278.3,136.2,298.1,151.1,304.4,172.5z"/>
<path class="st4" d="M222.1,286.2h67.7v8.6h-67.7V286.2z"/>
<path class="st4" d="M212.5,234.2h87.1v10.1h-87.1V234.2z"/>
<path class="st5" d="M309.2,177.4v1.4c0,2.7-2.2,4.8-4.8,4.8h-85.1c-2.7,0-4.8,2.2-4.8,4.8v40c0,3.9-4.4,6.3-7.6,4
	c-2.5-1.8-4.1-4.6-4.1-7.9v-47.2c0-2.7,2.2-4.8,4.8-4.8h96.8C307.1,172.5,309.2,174.7,309.2,177.4z"/>
<path class="st6" d="M271.3,147.7c-18.7-1.5-37.5,7.6-47.6,24.9h-16.1c8.1-27.7,38.2-43.3,65.6-33.3
	C278,141,276.4,148.1,271.3,147.7L271.3,147.7z"/>
<path d="M246.3,341.3v-20.6c0-5.3,4.3-9.7,9.7-9.7s9.7,4.3,9.7,9.7v20.6c0,5.3-4.3,9.7-9.7,9.7S246.3,346.6,246.3,341.3z
	 M247.5,269.9h16.9c5.3,0,9.7-4.3,9.7-9.7c0-5.3-4.3-9.7-9.7-9.7h-16.9c-5.3,0-9.7,4.3-9.7,9.7C237.9,265.6,242.2,269.9,247.5,269.9
	z M406,172.5v175.4c0,5.3-4.3,9.7-9.7,9.7h-60.5c-5.3,0-9.7-4.3-9.7-9.7v-78h-16.9v16.3c0,5.3-4.3,9.7-9.7,9.7v79.8
	c0,5.3-4.3,9.7-9.7,9.7h-67.7c-5.3,0-9.7-4.3-9.7-9.7v-79.8c-5.3,0-9.7-4.3-9.7-9.7v-16.3h-16.9v78c0,5.3-4.3,9.7-9.7,9.7h-60.5
	c-5.3,0-9.7-4.3-9.7-9.7V172.5c0-5.3,4.3-9.7,9.7-9.7h60.5c5.3,0,9.7,4.3,9.7,9.7v78h16.9v-6.7c-5.3,0-9.7-4.3-9.7-9.7v-61.7
	c0-4.6,3.3-8.5,7.7-9.5c9.3-21.8,31.1-36.5,55.3-36.5s45.9,14.7,55.3,36.5c4.4,0.9,7.7,4.8,7.7,9.5v61.7c0,5.3-4.3,9.7-9.7,9.7v6.7
	h16.9v-78c0-5.3,4.3-9.7,9.7-9.7h60.5C401.7,162.9,406,167.2,406,172.5z M125.4,182.2v68.3h41.1v-68.3H125.4z M166.5,269.9h-41.1
	v68.3h41.1V269.9z M212.5,224.5h87.1v-42.3h-6.7v5.4c0,5.3-4.3,9.7-9.7,9.7s-9.7-4.3-9.7-9.7v-5.4h-7.9v5.4c0,5.3-4.3,9.7-9.7,9.7
	s-9.7-4.3-9.7-9.7v-5.4h-7.9v5.4c0,5.3-4.3,9.7-9.7,9.7c-5.3,0-9.7-4.3-9.7-9.7v-5.4h-6.7V224.5z M223,162.9h66
	C272.6,140.3,239.3,140.3,223,162.9z M222.1,243.9v32.7h67.7v-32.7H222.1z M280.2,295.9h-48.4v70.2h48.4V295.9z M345.5,250.6h41.1
	v-68.3h-41.1V250.6z M386.6,338.3v-68.3h-41.1v68.3H386.6z"/>
</svg>
