<?xml version="1.0" encoding="utf-8"?>
<!-- Generator: Adobe Illustrator 24.2.3, SVG Export Plug-In . SVG Version: 6.00 Build 0)  -->
<svg version="1.1" id="Capa_1" xmlns="http://www.w3.org/2000/svg" xmlns:xlink="http://www.w3.org/1999/xlink" x="0px" y="0px"
	 viewBox="0 0 512 512" style="enable-background:new 0 0 512 512;" xml:space="preserve">
<style type="text/css">
	.st0{fill:#313133;}
	.st1{fill:#3C3B40;}
	.st2{fill:#C8C6CB;}
	.st3{fill:#FFFFFF;}
	.st4{fill:#383838;}
	.st5{fill:#2B2B2B;}
	.st6{fill:#AEADB2;}
	.st7{fill:#99989B;}
	.st8{fill:#0076FF;}
	.st9{fill:#0092FF;}
	.st10{fill:#00B9FF;}
	.st11{fill:#FF3D3B;}
	.st12{fill:#EA005C;}
	.st13{fill:#BF005E;}
	.st14{fill:#FDD425;}
	.st15{fill:#FF9A01;}
</style>
<g>
	<g>
		<g>
			<g>
				<g>
					<path class="st0" d="M240.1,329.5l28.8,28.8l27.4-30.2l-26-26L240.1,329.5z"/>
					<path class="st1" d="M240.1,329.5l14.4,14.4l28.8-28.8l-13-13L240.1,329.5z"/>
					<path class="st2" d="M237.3,324.5c-2.9,2.9-2.9,7.5,0,10.3l27.3,27.3c1.4,1.4,3.3,2.1,5.2,2.1c1.9,0,3.7-0.7,5.2-2.1
						c2.9-2.9,2.9-7.5,0-10.3l-27.3-27.3c-1.4-1.4-3.3-2.1-5.2-2.1C240.5,322.3,238.6,323,237.3,324.5z"/>
					<path class="st3" d="M237.3,324.5c-2.9,2.9-2.9,7.5,0,10.3l13.2,13.2l10.3-10.3l-13.2-13.2c-1.4-1.4-3.3-2.1-5.2-2.1
						S238.6,323,237.3,324.5L237.3,324.5z"/>
				</g>
				<g>
					<path class="st0" d="M153,242.4l28.8,28.8l27.4-30.2l-26-26L153,242.4z"/>
					<path class="st1" d="M153,242.4l14.4,14.4l28.8-28.8l-13-13L153,242.4z"/>
					<path class="st2" d="M150.2,237.4c-2.9,2.9-2.9,7.5,0,10.3l27.3,27.3c1.4,1.4,3.3,2.1,5.2,2.1s3.7-0.7,5.2-2.1
						c2.9-2.9,2.9-7.5,0-10.3l-27.3-27.3c-1.4-1.4-3.3-2.1-5.2-2.1C153.5,235.2,151.6,235.9,150.2,237.4z"/>
					<path class="st3" d="M150.2,237.4c-2.9,2.9-2.9,7.5,0,10.3l13.2,13.2l10.3-10.3l-13.2-13.2c-1.4-1.4-3.3-2.1-5.2-2.1
						C153.5,235.2,151.6,235.9,150.2,237.4z"/>
				</g>
			</g>
			<g>
				<path class="st0" d="M196.6,285.9l28.8,28.8l27.4-30.2l-26-26L196.6,285.9z"/>
				<path class="st1" d="M196.6,285.9l14.4,14.4l28.8-28.8l-13-13L196.6,285.9z"/>
				<path class="st2" d="M193.7,280.9c-2.9,2.9-2.9,7.5,0,10.3l27.3,27.3c1.4,1.4,3.3,2.1,5.2,2.1s3.7-0.7,5.2-2.1
					c2.9-2.9,2.9-7.5,0-10.3l-27.3-27.3c-1.4-1.4-3.3-2.1-5.2-2.1C197,278.8,195.2,279.5,193.7,280.9L193.7,280.9z"/>
				<path class="st3" d="M193.7,280.9c-2.9,2.9-2.9,7.5,0,10.3l13.2,13.2l10.3-10.3L204,280.9c-1.4-1.4-3.3-2.1-5.2-2.1
					C197,278.8,195.2,279.5,193.7,280.9z"/>
			</g>
		</g>
		<g>
			<path class="st4" d="M352.3,112.9l47,47l2.6-15.7c1.7-10-1.8-19.3-8.2-25.7c-6.4-6.4-15.7-9.9-25.7-8.2L352.3,112.9z"/>
			<path class="st0" d="M352.3,112.9l23.5,23.5l17.9-17.9c-6.4-6.4-15.7-9.9-25.7-8.2L352.3,112.9z"/>
			<path class="st5" d="M352.3,112.9l13,13l12-6.2c7.7-4,13.5-4,16.3-1.1c-6.4-6.4-15.7-9.9-25.7-8.2L352.3,112.9z"/>
			<g>
				<path class="st6" d="M247.1,150.1l-19.6-1.1l135.7,135.7l19.1-19.1c5.2-5.2,8.7-12,9.9-19.3l0.7-4l8.2-48.9l4.6-27.5
					c1-6.1-0.9-12.2-5.3-16.5l-37.9-37.9c-4.3-4.3-10,13.9-16,14.9l-27.5,4.6l-48.9,8.2l-4,0.7C259,141.4,252.3,144.9,247.1,150.1
					L247.1,150.1z"/>
				<path class="st2" d="M246.6,130l-19.1,19.1l67.9,67.9l86.2-86.3l-18.9-18.9c-4.3-4.3-10.5-6.3-16.5-5.3l-27.5,10.9l-48.9,8.2
					l-4-5.6C258.5,121.2,251.7,124.7,246.6,130z"/>
				<path class="st3" d="M246.6,130l-19.1,19.1l33.9,33.9l19.1-19.1c5.2-5.2,11.2-9.5,16.9-12.3l3.2-1.5l38.7-18.4l21.8-10.4
					c4.8-2.2,8.9-2.3,11.1-0.2l-9.5-9.5c-4.3-4.3-10.5-6.3-16.5-5.3l-27.5,4.6l-14,13.2l-34.8-5l-4,0.7
					C258.5,121.2,251.7,124.7,246.6,130z"/>
				<path class="st7" d="M240,136.5L167.5,209c-4.1,4.1-4.1,10.8,0,14.9l120.8,120.8c4.1,4.1,10.8,4.1,14.9,0l6.4-6.4l13.5-37
					l39.4-15.9l13.2-13.2L240,136.5z"/>
				<path class="st6" d="M240,136.5l-65.8,79.2c-4.1,4.1-10.8,4.1-6.7,8.2l60.4,60.4l79.9-79.9L240,136.5z"/>
				<path class="st2" d="M240,136.5L221.5,155l-11.6,33.3l-32.6,11l-9.8,9.8c-4.1,4.1-4.1,10.8,0,14.9l26.5,26.5l79.9-79.9
					L240,136.5z"/>
				<g>
					<path class="st6" d="M273.5,195.1l-57.8,52.1l92.6,92.5l11-11l2.3-8.2l8.5-2.6l11.4-11.4l1.4-9l9-1.6l11.2-11.2L273.5,195.1z"
						/>
					<path class="st2" d="M190.7,222.2l54.9-54.9l49.7,49.7l-54.9,54.9L190.7,222.2z"/>
					<path class="st3" d="M227.5,149.1l-11.2,11.2l-2.2,9.4l-8.4,1.2l-11.3,11.3l0.7,9.7l-11.5,1.1l-11.1,11l33.9,33.9l54.9-54.9
						L227.5,149.1z"/>
				</g>
				<g>
					<g>
						<path class="st0" d="M314.8,280.4l11-11l26.3,26.3l-11,11L314.8,280.4z"/>
						<path class="st0" d="M292.9,302.4l11-11l26.3,26.3l-11,11L292.9,302.4z"/>
					</g>
					<g>
						<path class="st1" d="M205.5,171l11-11l26.3,26.3l-11,11L205.5,171z"/>
						<path class="st1" d="M183.5,193l11-11l26.3,26.3l-11,11L183.5,193z"/>
					</g>
				</g>
			</g>
			<path class="st8" d="M269.8,119.3L393,242.4l8.2-48.9l-82.5-82.5L303.7,128L269.8,119.3z"/>
			<path class="st9" d="M269.8,119.3l61.5,61.6l28.5-28.5l-41.2-41.2l-10.8,14.6L269.8,119.3z"/>
			<path class="st10" d="M269.8,119.3l30.8,30.8l38.7-18.4L318.6,111L269.8,119.3z"/>
		</g>
	</g>
	<g>
		<g>
			<path class="st11" d="M143.7,309.4c-8.5,2.1-17,4.2-25.3,6.9l-5.2,1.7c-2.1,0.7-4.2,0-5.6-1.4s-2-3.4-1.4-5.6l1.7-5.2
				c2.6-8.4,4.8-16.8,6.9-25.3c2.7-10.9,12.9-18.7,24.8-17.9c5.9,0.4,11.2,3,15.1,6.9c3.9,3.9,6.5,9.2,6.9,15.1
				C162.4,296.5,154.5,306.7,143.7,309.4L143.7,309.4z"/>
			<path class="st12" d="M143.7,309.4c-8.5,2.1-17,4.2-25.3,6.9l-5.2,1.7c-2.1,0.7-4.2,0-5.6-1.4l47-47c3.9,3.9,6.5,9.2,6.9,15.1
				C162.4,296.5,154.5,306.7,143.7,309.4z"/>
			<path class="st12" d="M144.4,299.1c-5.7,1.4-11.4,2.9-16.9,4.6l-3.5,1.1c-1.4,0.4-2.8,0-3.7-0.9c-0.9-0.9-1.4-2.3-0.9-3.7
				l1.1-3.5c1.7-5.6,3.2-11.2,4.6-16.9c1.8-7.2,8.6-12.5,16.5-12c3.9,0.2,7.5,2,10.1,4.6c2.6,2.6,4.4,6.2,4.6,10.1
				C157,290.5,151.7,297.3,144.4,299.1L144.4,299.1z"/>
			<path class="st13" d="M144.4,299.1c-5.7,1.4-11.4,2.9-16.9,4.6l-3.5,1.1c-1.4,0.4-2.8,0-3.7-0.9l31.5-31.5
				c2.6,2.6,4.4,6.2,4.6,10.1C157,290.5,151.7,297.3,144.4,299.1z"/>
			<path class="st14" d="M143.7,289.7c-2.7,0.7-5.3,1.3-7.9,2.2l-1.6,0.6c-0.7,0.2-1.3,0-1.7-0.4c-0.4-0.4-0.6-1.1-0.4-1.7l0.6-1.6
				c0.8-2.6,1.5-5.3,2.2-7.9c0.9-3.4,4.1-5.9,7.8-5.6c1.9,0.1,3.5,0.9,4.7,2.2c1.2,1.2,2.1,2.9,2.2,4.7
				C149.5,285.6,147,288.8,143.7,289.7L143.7,289.7z"/>
			<path class="st15" d="M143.7,289.7c-2.7,0.7-5.3,1.3-7.9,2.2l-1.6,0.6c-0.7,0.2-1.3,0-1.7-0.4l14.8-14.8c1.2,1.2,2.1,2.9,2.2,4.7
				C149.5,285.6,147,288.8,143.7,289.7L143.7,289.7z"/>
		</g>
	</g>
	<g>
		<g>
			<path class="st11" d="M187.7,353.4c-8.5,2.1-17,4.2-25.3,6.9l-5.2,1.7c-2.1,0.7-4.2,0-5.6-1.4s-2-3.4-1.4-5.6l1.7-5.2
				c2.6-8.4,4.8-16.8,6.9-25.3c2.7-10.9,12.9-18.7,24.8-17.9c5.9,0.4,11.2,3,15.1,6.9c3.9,3.9,6.5,9.2,6.9,15.1
				C206.5,340.5,198.6,350.7,187.7,353.4L187.7,353.4z"/>
			<path class="st12" d="M187.7,353.4c-8.5,2.1-17,4.2-25.3,6.9l-5.2,1.7c-2.1,0.7-4.2,0-5.6-1.4l47-47c3.9,3.9,6.5,9.2,6.9,15.1
				C206.5,340.5,198.6,350.7,187.7,353.4L187.7,353.4z"/>
			<path class="st12" d="M188.5,343.1c-5.7,1.4-11.4,2.9-16.9,4.6l-3.5,1.1c-1.4,0.4-2.8,0-3.7-0.9c-0.9-0.9-1.4-2.3-0.9-3.7
				l1.1-3.5c1.7-5.6,3.2-11.2,4.6-16.9c1.8-7.2,8.6-12.5,16.5-12c3.9,0.2,7.5,2,10.1,4.6c2.6,2.6,4.4,6.2,4.6,10.1
				C201,334.5,195.7,341.3,188.5,343.1z"/>
			<path class="st13" d="M188.5,343.1c-5.7,1.4-11.4,2.9-16.9,4.6l-3.5,1.1c-1.4,0.4-2.8,0-3.7-0.9l31.5-31.5
				c2.6,2.6,4.4,6.2,4.6,10.1C201,334.5,195.7,341.3,188.5,343.1z"/>
			<path class="st14" d="M187.7,333.6c-2.7,0.7-5.3,1.3-7.9,2.2l-1.6,0.6c-0.7,0.2-1.3,0-1.7-0.4c-0.4-0.4-0.6-1.1-0.4-1.7l0.6-1.6
				c0.8-2.6,1.5-5.3,2.2-7.9c0.9-3.4,4.1-5.9,7.8-5.6c1.9,0.1,3.5,0.9,4.7,2.2c1.2,1.2,2.1,2.9,2.2,4.7
				C193.6,329.6,191.1,332.8,187.7,333.6L187.7,333.6z"/>
			<path class="st15" d="M187.7,333.6c-2.7,0.7-5.3,1.3-7.9,2.2l-1.6,0.6c-0.7,0.2-1.3,0-1.7-0.4l14.8-14.8c1.2,1.2,2.1,2.9,2.2,4.7
				C193.6,329.6,191.1,332.8,187.7,333.6L187.7,333.6z"/>
		</g>
	</g>
	<g>
		<g>
			<path class="st11" d="M231.3,397c-8.5,2.1-17,4.2-25.3,6.9l-5.2,1.7c-2.1,0.7-4.2,0-5.6-1.4s-2-3.4-1.4-5.6l1.7-5.2
				c2.6-8.4,4.8-16.8,6.9-25.3c2.7-10.9,12.9-18.7,24.8-17.9c5.9,0.4,11.2,3,15.1,6.9c3.9,3.9,6.5,9.2,6.9,15.1
				C250,384.1,242.1,394.2,231.3,397z"/>
			<path class="st12" d="M231.3,397c-8.5,2.1-17,4.2-25.3,6.9l-5.2,1.7c-2.1,0.7-4.2,0-5.6-1.4l47-47c3.9,3.9,6.5,9.2,6.9,15.1
				C250,384.1,242.1,394.2,231.3,397L231.3,397z"/>
			<path class="st12" d="M232,386.7c-5.7,1.4-11.4,2.9-16.9,4.6l-3.5,1.1c-1.4,0.4-2.8,0-3.7-0.9c-0.9-0.9-1.4-2.3-0.9-3.7l1.1-3.5
				c1.7-5.6,3.2-11.2,4.6-16.9c1.8-7.2,8.6-12.5,16.5-12c3.9,0.2,7.5,2,10.1,4.6c2.6,2.6,4.4,6.2,4.6,10.1
				C244.5,378.1,239.3,384.9,232,386.7z"/>
			<path class="st13" d="M232,386.7c-5.7,1.4-11.4,2.9-16.9,4.6l-3.5,1.1c-1.4,0.4-2.8,0-3.7-0.9l31.5-31.5
				c2.6,2.6,4.4,6.2,4.6,10.1C244.5,378.1,239.3,384.9,232,386.7z"/>
			<path class="st14" d="M231.2,377.2c-2.7,0.7-5.3,1.3-7.9,2.2l-1.6,0.6c-0.7,0.2-1.3,0-1.7-0.4c-0.4-0.4-0.6-1.1-0.4-1.7l0.6-1.6
				c0.8-2.6,1.5-5.3,2.2-7.9c0.9-3.4,4.1-5.9,7.8-5.6c1.9,0.1,3.5,0.9,4.7,2.2c1.2,1.2,2.1,2.9,2.2,4.7
				C237.1,373.1,234.7,376.3,231.2,377.2L231.2,377.2z"/>
			<path class="st15" d="M231.2,377.2c-2.7,0.7-5.3,1.3-7.9,2.2l-1.6,0.6c-0.7,0.2-1.3,0-1.7-0.4l14.8-14.8c1.2,1.2,2.1,2.9,2.2,4.7
				C237.1,373.1,234.7,376.3,231.2,377.2L231.2,377.2z"/>
		</g>
	</g>
</g>
</svg>
