<svg xmlns="http://www.w3.org/2000/svg" xmlns:xlink="http://www.w3.org/1999/xlink" viewBox="0 0 319.31 350"><defs><style>.cls-1{mask:url(#mask);}.cls-11,.cls-17,.cls-2,.cls-26,.cls-4{mix-blend-mode:multiply;}.cls-2{fill:url(#Áåçûìÿííûé_ãðàäèåíò_44);}.cls-3{mask:url(#mask-2);}.cls-4{fill:url(#Áåçûìÿííûé_ãðàäèåíò_44-2);}.cls-5{isolation:isolate;}.cls-6{fill:#fff7cc;}.cls-7{fill:url(#Áåçûìÿííûé_ãðàäèåíò_6);}.cls-8{fill:#d97973;}.cls-9{fill:#131f49;}.cls-10{fill:url(#Áåçûìÿííûé_ãðàäèåíò_115);}.cls-11,.cls-24{fill:#146b87;}.cls-11{opacity:0.25;}.cls-12{fill:#e2f0d5;}.cls-13,.cls-17{fill:#004d5c;}.cls-14{fill:#22567d;}.cls-15{fill:url(#Áåçûìÿííûé_ãðàäèåíò_115-2);}.cls-16{fill:url(#Áåçûìÿííûé_ãðàäèåíò_11);}.cls-17{opacity:0.2;}.cls-18{fill:url(#Áåçûìÿííûé_ãðàäèåíò_39);}.cls-19{fill:url(#Áåçûìÿííûé_ãðàäèåíò_115-3);}.cls-20{mask:url(#mask-3);}.cls-21{opacity:0.85;fill:url(#Áåçûìÿííûé_ãðàäèåíò_9);}.cls-21,.cls-28{mix-blend-mode:screen;}.cls-22{fill:url(#Áåçûìÿííûé_ãðàäèåíò_20);}.cls-23{fill:#7cc;}.cls-25{fill:#4da9a3;}.cls-26{fill:#00b8c4;opacity:0.3;}.cls-27{mask:url(#mask-4);}.cls-28{fill:url(#Áåçûìÿííûé_ãðàäèåíò_9-2);}.cls-29{fill:url(#Áåçûìÿííûé_ãðàäèåíò_6-2);}.cls-30{filter:url(#luminosity-noclip-4);}.cls-31{filter:url(#luminosity-noclip-3);}.cls-32{filter:url(#luminosity-noclip-2);}.cls-33{filter:url(#luminosity-noclip);}</style><filter id="luminosity-noclip" x="304.45" y="-8442" width="72.23" height="32766" filterUnits="userSpaceOnUse" color-interpolation-filters="sRGB"><feFlood flood-color="#fff" result="bg"/><feBlend in="SourceGraphic" in2="bg"/></filter><mask id="mask" x="304.45" y="-8442" width="72.23" height="32766" maskUnits="userSpaceOnUse"><g class="cls-33"/></mask><linearGradient id="Áåçûìÿííûé_ãðàäèåíò_44" x1="314.72" y1="77.94" x2="289.53" y2="81.5" gradientTransform="translate(206.82 -55.07) rotate(50.25)" gradientUnits="userSpaceOnUse"><stop offset="0" stop-color="#fff"/><stop offset="0.21" stop-color="#b6b6b6"/><stop offset="0.43" stop-color="#757575"/><stop offset="0.62" stop-color="#434343"/><stop offset="0.78" stop-color="#1e1e1e"/><stop offset="0.91" stop-color="#080808"/><stop offset="1"/></linearGradient><filter id="luminosity-noclip-2" x="245.26" y="-8442" width="21.74" height="32766" filterUnits="userSpaceOnUse" color-interpolation-filters="sRGB"><feFlood flood-color="#fff" result="bg"/><feBlend in="SourceGraphic" in2="bg"/></filter><mask id="mask-2" x="245.26" y="-8442" width="21.74" height="32766" maskUnits="userSpaceOnUse"><g class="cls-32"/></mask><linearGradient id="Áåçûìÿííûé_ãðàäèåíò_44-2" x1="319.55" y1="179.22" x2="283.42" y2="195.83" xlink:href="#Áåçûìÿííûé_ãðàäèåíò_44"/><linearGradient id="Áåçûìÿííûé_ãðàäèåíò_6" x1="236.04" y1="83.07" x2="380.51" y2="232.95" gradientTransform="matrix(0.72, 0.79, -0.73, 0.66, 183.21, -63.17)" gradientUnits="userSpaceOnUse"><stop offset="0" stop-color="#131f49"/><stop offset="0.8" stop-color="#14466a"/><stop offset="1" stop-color="#006099"/></linearGradient><linearGradient id="Áåçûìÿííûé_ãðàäèåíò_115" x1="223.71" y1="232.64" x2="328.83" y2="232.64" gradientTransform="translate(206.82 -55.07) rotate(50.25)" gradientUnits="userSpaceOnUse"><stop offset="0" stop-color="#e2f0d5"/><stop offset="0" stop-color="#e1efd4"/><stop offset="0.04" stop-color="#bbd2c0"/><stop offset="0.07" stop-color="#9bb9af"/><stop offset="0.12" stop-color="#80a4a1"/><stop offset="0.16" stop-color="#6c9596"/><stop offset="0.21" stop-color="#5d8a8e"/><stop offset="0.27" stop-color="#558389"/><stop offset="0.37" stop-color="#528188"/><stop offset="1" stop-color="#dad1c0"/></linearGradient><linearGradient id="Áåçûìÿííûé_ãðàäèåíò_115-2" x1="240.5" y1="147.51" x2="312.1" y2="147.51" xlink:href="#Áåçûìÿííûé_ãðàäèåíò_115"/><linearGradient id="Áåçûìÿííûé_ãðàäèåíò_11" x1="203.63" y1="-54.49" x2="254.28" y2="5.18" gradientTransform="translate(206.82 -55.07) rotate(50.25)" gradientUnits="userSpaceOnUse"><stop offset="0" stop-color="#004d5c"/><stop offset="1" stop-color="#4da9a3"/></linearGradient><linearGradient id="Áåçûìÿííûé_ãðàäèåíò_39" x1="232.65" y1="18.14" x2="320.78" y2="18.14" gradientTransform="translate(206.82 -55.07) rotate(50.25)" gradientUnits="userSpaceOnUse"><stop offset="0" stop-color="#22567d"/><stop offset="0.09" stop-color="#205c81"/><stop offset="0.21" stop-color="#1a6c8d"/><stop offset="0.35" stop-color="#1186a0"/><stop offset="0.5" stop-color="#04abbb"/><stop offset="0.54" stop-color="#00b8c4"/><stop offset="0.63" stop-color="#15c2c4"/><stop offset="0.82" stop-color="#4cddc6"/><stop offset="1" stop-color="#83f7c7"/></linearGradient><linearGradient id="Áåçûìÿííûé_ãðàäèåíò_115-3" x1="231.07" y1="78.03" x2="321.52" y2="78.03" xlink:href="#Áåçûìÿííûé_ãðàäèåíò_115"/><filter id="luminosity-noclip-3" x="304.45" y="202.84" width="72.23" height="52.46" filterUnits="userSpaceOnUse" color-interpolation-filters="sRGB"><feFlood flood-color="#fff" result="bg"/><feBlend in="SourceGraphic" in2="bg"/></filter><mask id="mask-3" x="214.1" y="127.84" width="72.23" height="52.46" maskUnits="userSpaceOnUse"><g class="cls-31"><g transform="translate(-90.34 -75)"><g class="cls-1"><polygon class="cls-2" points="376.68 213.48 321.75 255.3 304.45 246.21 356.58 202.84 376.68 213.48"/></g></g></g></mask><linearGradient id="Áåçûìÿííûé_ãðàäèåíò_9" x1="314.72" y1="77.94" x2="289.53" y2="81.5" gradientTransform="translate(116.47 -130.07) rotate(50.25)" gradientUnits="userSpaceOnUse"><stop offset="0" stop-color="#fff7cc"/><stop offset="1" stop-color="#fff7cc"/></linearGradient><linearGradient id="Áåçûìÿííûé_ãðàäèåíò_20" x1="221.84" y1="28.43" x2="330.75" y2="28.43" gradientTransform="translate(206.82 -55.07) rotate(50.25)" gradientUnits="userSpaceOnUse"><stop offset="0" stop-color="#131f49"/><stop offset="0.62" stop-color="#22567d"/></linearGradient><filter id="luminosity-noclip-4" x="245.26" y="288.24" width="21.74" height="20.27" filterUnits="userSpaceOnUse" color-interpolation-filters="sRGB"><feFlood flood-color="#fff" result="bg"/><feBlend in="SourceGraphic" in2="bg"/></filter><mask id="mask-4" x="154.91" y="213.24" width="21.74" height="20.27" maskUnits="userSpaceOnUse"><g class="cls-30"><g transform="translate(-90.34 -75)"><g class="cls-3"><path class="cls-4" d="M266.06,297.33l.94,11.18a121.51,121.51,0,0,1-21.74-14.07l5.91-6.2A63.78,63.78,0,0,0,266.06,297.33Z"/></g></g></g></mask><linearGradient id="Áåçûìÿííûé_ãðàäèåíò_9-2" x1="319.55" y1="179.22" x2="283.42" y2="195.83" gradientTransform="translate(206.82 -55.07) rotate(50.25)" xlink:href="#Áåçûìÿííûé_ãðàäèåíò_9"/><linearGradient id="Áåçûìÿííûé_ãðàäèåíò_6-2" x1="98.89" y1="134.46" x2="253.95" y2="295.33" gradientTransform="translate(206.82 -55.07) rotate(50.25)" xlink:href="#Áåçûìÿííûé_ãðàäèåíò_6"/></defs><g class="cls-5"><g id="Layer_1" data-name="Layer 1"><polygon class="cls-6" points="244 138.72 225.18 349.56 154.63 316.81 191.79 105.74 244 138.72"/><path class="cls-7" d="M332.25,223.61c.25-2.9.38-4.34.64-7.21l-1.21-2-8.34-5.5-1.56.28c-.36,3-.53,4.46-.89,7.45.52.83.8,1.3,1.31,2.12,3.54,2.17,5.27,3.24,8.59,5.26ZM320,216.05c.36-3,.53-4.48.89-7.47l-1.29-2.17c-3.52-2.33-5.33-3.53-9-5.93l-1.68.29c-.44,3.11-.66,4.65-1.09,7.74.52.87.82,1.35,1.35,2.21l9.18,5.65Zm-28.2-16c-3.76-2.27-5.63-3.4-9.3-5.58-.5-.87-.78-1.36-1.27-2.24.59-3.31.88-5,1.48-8.34l1.72-.45c3.6,2.29,5.44,3.46,9.13,5.85.5.9.78,1.41,1.29,2.31-.52,3.25-.78,4.86-1.3,8.07ZM307,208c.44-3.1.66-4.65,1.11-7.76-.52-.89-.81-1.38-1.32-2.27-3.68-2.42-5.55-3.64-9.25-6l-1.73.35c-.52,3.24-.77,4.84-1.28,8l1.33,2.25,9.42,5.76Zm24.34,26.11c.27-2.95.4-4.42.66-7.33l-1.25-2c-3.33-2-5.06-3.08-8.6-5.25l-1.61.33c-.35,3-.52,4.5-.88,7.51.53.82.83,1.28,1.35,2.1,3.63,2.09,5.41,3.12,8.83,5.07Zm-12.56-7.26c.35-3,.53-4.53.89-7.53l-1.33-2.13-9.19-5.63-1.71.33c-.44,3.09-.65,4.63-1.09,7.72l1.39,2.17,9.38,5.43ZM290,211.53c-3.83-2.18-5.73-3.26-9.48-5.36L279.2,204c.57-3.25.86-4.88,1.44-8.17l1.74-.46c3.68,2.18,5.55,3.3,9.32,5.56.51.88.81,1.37,1.33,2.24-.51,3.2-.77,4.79-1.27,8ZM305.4,219c.44-3.09.65-4.64,1.09-7.74l-1.35-2.21c-3.76-2.29-5.66-3.45-9.44-5.73l-1.75.37c-.51,3.19-.76,4.78-1.26,7.95l1.36,2.2c3.84,2.2,5.78,3.32,9.6,5.53Zm25,25.75c.27-3,.41-4.54.67-7.52l-1.29-2c-3.43-2-5.21-3-8.85-5.06-.63.15-1,.24-1.64.38-.35,3-.53,4.56-.89,7.63l1.39,2.1c3.71,2,5.53,3,9.06,5Zm-12.9-7.08c.36-3.08.54-4.6.9-7.64L317,227.94l-9.39-5.42-1.74.37c-.43,3.1-.65,4.65-1.08,7.78l1.41,2.16,9.57,5.27Zm-29.31-14.77c-3.89-2.12-5.83-3.17-9.65-5.21l-1.33-2.16c.57-3.23.85-4.84,1.42-8.08l1.77-.47c3.75,2.09,5.66,3.17,9.49,5.35l1.36,2.19c-.5,3.18-.75,4.77-1.26,8Zm15.69,7.23c.43-3.13.65-4.69,1.09-7.79-.55-.85-.85-1.32-1.39-2.18l-9.61-5.51-1.78.4L290.9,223l1.39,2.17,9.77,5.37Zm25.54,25.65c.28-3.14.42-4.69.69-7.75l-1.33-2c-3.54-1.91-5.36-2.91-9.08-4.94l-1.68.43c-.36,3.09-.54,4.65-.9,7.8l1.41,2.12c3.8,2,5.67,3,9.3,4.89Zm-13.23-7c.37-3.16.55-4.72.92-7.81-.55-.83-.86-1.29-1.4-2.12l-9.59-5.27-1.77.41c-.43,3.14-.65,4.72-1.08,7.9l1.43,2.16,9.76,5.19Zm-29.83-14.45c-3.95-2.08-5.92-3.11-9.8-5.13l-1.36-2.15c.57-3.23.85-4.85,1.41-8.07l1.79-.49c3.82,2,5.76,3.09,9.66,5.21l1.39,2.17c-.5,3.19-.75,4.78-1.26,8Zm15.95,7c.44-3.19.66-4.76,1.09-7.9L302,231.35,292.17,226l-1.81.43c-.5,3.18-.75,4.78-1.25,8l1.42,2.17,9.93,5.27Zm26.1,25.81c.29-3.26.43-4.86.71-8l-1.37-2.07c-3.63-1.89-5.51-2.87-9.31-4.88l-1.72.48c-.36,3.18-.55,4.79-.92,8l1.44,2.16c3.88,2,5.8,3,9.52,4.88Zm-13.56-7c.38-3.25.57-4.86.94-8l-1.43-2.14-9.77-5.18-1.8.45c-.43,3.2-.66,4.82-1.1,8.08l1.46,2.2,9.94,5.14ZM284.48,246c-4-2.06-6-3.09-10-5.09l-1.38-2.17c.57-3.28.85-4.91,1.42-8.16l1.82-.51c3.88,2,5.85,3.05,9.81,5.13l1.42,2.17c-.51,3.23-.76,4.86-1.27,8.13Zm16.19,6.94c.45-3.27.68-4.88,1.12-8.09l-1.44-2.17c-4-2.11-6-3.17-9.94-5.26l-1.84.46c-.5,3.23-.75,4.85-1.26,8.13l1.45,2.2,10.08,5.21Zm26.64,26.2c.3-3.4.45-5.08.74-8.38l-1.4-2.12c-3.74-1.9-5.65-2.88-9.54-4.88l-1.75.53c-.38,3.29-.57,5-1,8.35.58.86.9,1.35,1.47,2.21,4,2,5.92,3,9.75,4.91Zm-13.87-7c.39-3.38.58-5.05,1-8.34L313,261.62,303,256.48l-1.83.49c-.45,3.3-.68,5-1.13,8.35l1.48,2.24,10.12,5.14ZM282.6,257.93l-10.11-5.11c-.55-.86-.86-1.34-1.4-2.2.58-3.37.87-5,1.44-8.33l1.85-.54c3.94,2,5.95,3,10,5.09l1.43,2.21-1.29,8.34ZM299,264.81c.47-3.38.7-5.05,1.15-8.34-.58-.86-.9-1.35-1.47-2.21l-10.09-5.21-1.86.5c-.52,3.3-.77,5-1.29,8.34l1.46,2.24,10.24,5.21Zm27.16,26.8c.31-3.57.47-5.33.78-8.78l-1.44-2.19c-3.83-1.92-5.79-2.91-9.76-4.92l-1.79.58c-.39,3.43-.59,5.17-1,8.71l1.49,2.29,10,5ZM312,284.52c.41-3.54.61-5.28,1-8.71l-1.48-2.24-10.12-5.14-1.87.54c-.46,3.42-.69,5.15-1.17,8.67l1.51,2.31,10.29,5.18Zm-31.35-14.26-10.26-5.15c-.56-.88-.87-1.38-1.42-2.26.6-3.48.89-5.2,1.48-8.59l1.88-.57c4,2,6,3,10.12,5.11l1.46,2.24c-.53,3.41-.79,5.13-1.34,8.64Zm16.7,6.87c.48-3.51.72-5.25,1.19-8.66l-1.49-2.26L286.81,261l-1.89.54c-.53,3.41-.79,5.14-1.33,8.64l1.48,2.3,10.39,5.24ZM325,304.71c.34-3.76.5-5.6.82-9.23l-1.47-2.28c-3.93-1.95-5.94-2.95-10-5l-1.83.63c-.4,3.59-.61,5.42-1,9.14l1.52,2.38,10.2,5.07Zm-14.51-7.22c.43-3.72.64-5.55,1.05-9.14L310.06,286l-10.3-5.18-1.9.6c-.48,3.57-.72,5.38-1.22,9.07l1.53,2.38,10.47,5.25Zm-31.86-14.37c-4.2-2.11-6.29-3.16-10.43-5.22-.56-.92-.88-1.43-1.43-2.34.62-3.63.93-5.42,1.53-8.94l1.92-.61c4.07,2,6.13,3.07,10.27,5.15l1.48,2.31c-.55,3.54-.83,5.34-1.39,9Zm17,6.89c.5-3.68.74-5.5,1.23-9.06l-1.51-2.32-10.41-5.25L283,274c-.54,3.54-.82,5.34-1.38,9l1.5,2.37,10.55,5.3Zm28.18,28.51c.36-4,.53-5.92.87-9.74l-1.51-2.37L313,301.33l-1.88.69c-.42,3.78-.64,5.7-1.08,9.63l1.55,2.47c4.22,2.11,6.31,3.15,10.43,5.19ZM309,311.14l1.1-9.62c-.6-.94-.93-1.47-1.53-2.4-4.17-2.08-6.27-3.14-10.49-5.26l-1.93.67c-.51,3.74-.76,5.65-1.28,9.54l1.54,2.48L307,311.88Zm-32.41-14.53L266,291.3c-.56-.95-.88-1.49-1.45-2.43.66-3.82,1-5.69,1.61-9.38l1.95-.66,10.44,5.23,1.49,2.38-1.45,9.46Zm17.24,6.94c.52-3.89.78-5.79,1.29-9.54l-1.53-2.4L283,286.31l-2,.65-1.45,9.46,1.51,2.47,10.72,5.37Zm28.72,29.56c.37-4.2.55-6.25.91-10.29l-1.54-2.49-10.45-5.19-1.92.76c-.45,4-.68,6-1.14,10.18.61,1,1,1.57,1.57,2.59L320.62,334Zm-15.19-7.55c.47-4.15.7-6.18,1.16-10.17l-1.56-2.5-10.68-5.34-2,.74-1.35,10.07,1.56,2.59,10.87,5.43Zm-33-14.71c-4.34-2.17-6.49-3.26-10.77-5.41l-1.46-2.54c.69-4,1-6,1.69-9.89l2-.72,10.6,5.31c.58,1,.91,1.51,1.5,2.48-.6,3.92-.9,5.91-1.53,10Zm17.52,7c.56-4.12.83-6.13,1.36-10.08l-1.54-2.5-10.74-5.38-2,.73c-.6,3.91-.91,5.91-1.53,10l1.53,2.57,10.9,5.46Zm29.27,30.73c.4-4.45.59-6.63,1-10.9-.62-1-1-1.6-1.58-2.61l-10.69-5.32-2,.84c-.47,4.23-.71,6.38-1.21,10.79.63,1.05,1,1.65,1.61,2.71l10.93,5.43Zm-15.55-7.73c.5-4.41.75-6.56,1.23-10.78l-1.58-2.61c-4.34-2.16-6.52-3.25-10.88-5.44l-2,.82c-.56,4.19-.84,6.32-1.42,10.69l1.58,2.7,11.08,5.52ZM272,326c-4.41-2.21-6.6-3.31-10.95-5.51-.58-1-.91-1.62-1.48-2.66.73-4.29,1.09-6.39,1.8-10.5.79-.32,1.24-.49,2-.8l10.77,5.42,1.52,2.58c-.63,4.15-1,6.27-1.62,10.6Zm17.84,7c.58-4.36.87-6.5,1.43-10.68l-1.56-2.61-10.91-5.47-2,.81c-.63,4.15-.95,6.27-1.61,10.6.6,1.05.94,1.63,1.54,2.69l11.09,5.55Zm29.85,32c.42-4.72.62-7,1-11.56l-1.61-2.74-11-5.44-2,.93c-.5,4.48-.76,6.77-1.28,11.46l1.63,2.84L317.68,366Zm-15.94-7.9c.53-4.68.79-7,1.3-11.45l-1.6-2.73-11.1-5.53-2.07.91c-.59,4.45-.89,6.72-1.51,11.37l1.61,2.83,11.3,5.61Zm-34.25-15c-4.49-2.24-6.73-3.36-11.16-5.6-.58-1.1-.91-1.71-1.49-2.8.79-4.59,1.17-6.82,1.92-11.2l2.09-.89c4.35,2.2,6.55,3.31,11,5.52l1.54,2.71c-.68,4.42-1,6.67-1.73,11.29Zm18.18,7c.62-4.64.92-6.92,1.52-11.36-.62-1.07-1-1.67-1.58-2.73l-11.1-5.55-2.09.89-1.71,11.29,1.55,2.82,11.29,5.63Zm30.46,33.29c.44-5,.66-7.47,1.09-12.28l-1.66-2.87-11.22-5.56-2.07,1c-.54,4.77-.81,7.2-1.37,12.19.65,1.16,1,1.81,1.67,3l11.5,5.65Zm-16.34-8c.56-5,.84-7.42,1.38-12.19l-1.64-2.86-11.32-5.62-2.12,1c-.63,4.73-.95,7.16-1.61,12.11.64,1.16,1,1.81,1.63,3l11.55,5.68Zm-35-15.09c-4.57-2.28-6.85-3.41-11.37-5.68l-1.5-3,2.05-12,2.14-1,11.17,5.61,1.55,2.84c-.72,4.71-1.09,7.12-1.85,12.05Zm18.55,7c.67-5,1-7.38,1.63-12.11l-1.6-2.86-11.3-5.63-2.14,1c-.72,4.71-1.09,7.12-1.84,12.05.62,1.16,1,1.81,1.57,3l11.52,5.69Zm31.12,34.64c.48-5.33.71-7.94,1.16-13.06l-1.69-3-11.52-5.66-2.13,1.14c-.57,5.08-.86,7.68-1.45,13l1.69,3.12,11.81,5.73Zm-16.78-8.16c.6-5.31.9-7.9,1.47-13l-1.66-3-11.57-5.68-2.17,1.13c-.67,5.06-1,7.64-1.72,12.94l1.65,3.12L297.52,394ZM264,377.63c-4.67-2.29-7-3.44-11.61-5.74-.6-1.21-.93-1.89-1.52-3.11l2.2-12.84,2.21-1.11c4.52,2.27,6.8,3.41,11.39,5.68.6,1.17.95,1.82,1.56,3-.77,5-1.17,7.61-2,12.9Zm18.95,6.93c.71-5.29,1.06-7.88,1.74-12.93-.63-1.18-1-1.83-1.62-3l-11.53-5.7-2.19,1.13c-.77,5-1.16,7.61-2,12.89l1.59,3.12,11.76,5.73Zm31.83,36c.51-5.68.76-8.45,1.24-13.89l-1.74-3.16-11.84-5.74L300.2,399c-.6,5.42-.91,8.18-1.54,13.84l1.73,3.28c4.86,2.3,7.29,3.46,12.15,5.78Zm-17.25-8.23c.64-5.67,1-8.43,1.57-13.84l-1.69-3.16c-4.74-2.29-7.11-3.43-11.84-5.73l-2.24,1.27c-.71,5.4-1.08,8.17-1.83,13.83.65,1.27,1,2,1.67,3.27l12.11,5.74Zm-36.6-15c-4.78-2.3-7.15-3.45-11.88-5.76l-1.54-3.28c1-5.66,1.45-8.42,2.37-13.8l2.28-1.25L263.74,379l1.58,3.14c-.83,5.39-1.25,8.16-2.13,13.82Zm19.4,6.79c.76-5.66,1.13-8.43,1.85-13.83l-1.64-3.14-11.77-5.73-2.26,1.26c-.82,5.39-1.24,8.15-2.11,13.82l1.61,3.27c4.79,2.3,7.2,3.44,12,5.74Z" transform="translate(-90.34 -75)"/><polygon class="cls-8" points="191.79 105.74 188.85 108.42 149.4 319.08 221.21 350 225.18 349.56 154.63 316.81 191.79 105.74"/><path class="cls-9" d="M211.62,300.29c-12.9-15.51-31-27.27-54-35l-2,1.85c45.57,15.92,71.44,47,77.26,92.84l2.1-1.62C232.37,335.28,224.53,315.8,211.62,300.29Z" transform="translate(-90.34 -75)"/><path class="cls-10" d="M210.78,240.81l-65.89,46.63c8.76,37.52,32.19,63.67,67.22,80.81L270,312Z" transform="translate(-90.34 -75)"/><path class="cls-11" d="M163,274.62l-2.19,1.55q6.23,28,22.27,47.33,16.65,20,43.78,30.39l1.89-1.84C194,338.17,172,312.19,163,274.62Z" transform="translate(-90.34 -75)"/><path class="cls-12" d="M163.51,330.4l29.48-28L182.6,288.11l-31,21.84-.45-.65L182.78,287l35.42-24.91.45.65-.32.22-35.08,24.68L194,302.54l-30,28.44ZM190.29,356,235.2,311.4,220.89,296,234,285.08l.51.61L222,296.09l14.26,15.33-.27.27-45.18,44.86Z" transform="translate(-90.34 -75)"/><path class="cls-13" d="M163.94,330.83l30-28.41-10.39-14.33-31.63,22.24-.46-.65,67.36-47.37.45.65-35.08,24.67L195,302.51,164.48,331.4Zm27,25.43,45.21-44.88L221.8,296l12.84-10.68.5.61L223,296.06l14.26,15.34-.27.27-45.49,45.16Z" transform="translate(-90.34 -75)"/><path class="cls-12" d="M270,312q-45.67-22.24-59.18-71.14l14.67,4.91,42.39,51Z" transform="translate(-90.34 -75)"/><path class="cls-14" d="M156.85,271.11l10,4.56.71,1.72L158,275.32Zm5.87,20.81,9-1.14-1.25-2.16-9.34-.59Zm6.8,16,8.77-2.83-1.35-2.44-9.82,1.1ZM214,351.56l1.12-9.3-1.9-1.62-2.76,8.68Zm-14.34-9.41,2.87-9.46-2.16-1.77L196,339Zm-13-24.78-8.17,5.2,3.47,4.17,6.6-7.09Zm41.91,40L226,346.74l-1.57-1,.3,9.78Z" transform="translate(-90.34 -75)"/><polygon class="cls-14" points="95.06 174.6 113.34 179.11 113.08 185.59 94.28 178.85 95.06 174.6"/><path class="cls-14" d="M180.07,326.54q-19.35-23.27-24.45-59.35l2-1.85c7.36,47.7,33.4,79,77.4,93.07l-2.1,1.62Q199.48,349.86,180.07,326.54Z" transform="translate(-90.34 -75)"/><path class="cls-15" d="M267.84,296.68c-22.26-9.87-36-27.19-42.39-51l51.32-46.14,45.79,55Z" transform="translate(-90.34 -75)"/><path class="cls-12" d="M261.58,219.53a58,58,0,0,1-.12-6.32h.37q.14,2.82.48,5.6L276,205.15l2.14,2.32L262.55,220.6q.42,2.82,1.11,5.57l13.65-13.34,2.11,2.35L264.1,227.81c.36,1.26.75,2.52,1.21,3.74.19.53.4,1,.61,1.55l13.81-13.18,2.09,2.38-15.26,12.28a46,46,0,0,0,2.6,5l14-13.12,2.06,2.4-15.29,12a46.46,46.46,0,0,0,3.38,4.63l14.37-13.1,2,2.43-15.4,11.82c.2.22.38.45.59.67a48.9,48.9,0,0,0,3.59,3.61l14.7-13.1,2,2.45-15.56,11.66c1.6,1.38,3.28,2.66,5,3.88l15-13.09,2,2.47L286,256.68c1.14.77,2.3,1.5,3.48,2.21.77.45,1.56.87,2.34,1.3l15.37-13.07,1.94,2.5L293.21,261c2.2,1.16,4.46,2.22,6.75,3.22l-.09-.12,15.66-13,1.91,2.52-16.1,11.22q2.54,1.08,5.13,2.07l-.11.31a86.89,86.89,0,0,1-17.54-7.2,59.07,59.07,0,0,1-15-11.62A47,47,0,0,1,264,232a51.14,51.14,0,0,1-2.45-12.46h0Zm1.53,60.22a70.06,70.06,0,0,1-13.34-11.41,54.54,54.54,0,0,1-9.52-14.65,61.15,61.15,0,0,1-4.6-17l-.37,0,.37,4.47.73,4.43,1.14,4.35c.5,1.41.95,2.85,1.5,4.25a52.17,52.17,0,0,0,9.58,15.17,65.52,65.52,0,0,0,13.82,11.42,88.66,88.66,0,0,0,16.06,7.83l.13-.3A116.81,116.81,0,0,1,263.11,279.75ZM275.4,270a72.26,72.26,0,0,1-13.54-11.66,56.55,56.55,0,0,1-9.74-14.89,62.88,62.88,0,0,1-4.81-17.27l-.37,0,.42,4.54.79,4.51,1.19,4.41c.52,1.44,1,2.9,1.55,4.31a54.22,54.22,0,0,0,9.79,15.41,68.41,68.41,0,0,0,14,11.67A90.74,90.74,0,0,0,291,279.09l.13-.29A120.89,120.89,0,0,1,275.4,270Z" transform="translate(-90.34 -75)"/><path class="cls-13" d="M261.86,219.3a55.22,55.22,0,0,1-.15-6.3h.37c.09,1.86.26,3.73.5,5.58L276.12,205l2.14,2.33-15.44,13q.44,2.82,1.13,5.56l13.53-13.24L279.6,215l-15.21,12.53c.36,1.26.76,2.51,1.22,3.73.19.52.41,1,.62,1.55l13.69-13.09,2.09,2.38-15.14,12.18a47.85,47.85,0,0,0,2.6,5l13.94-13,2.06,2.41-15.18,11.92a48.2,48.2,0,0,0,3.39,4.63l14.25-13,2,2.42-15.28,11.72c.19.23.38.46.58.68q1.71,1.89,3.59,3.6l14.59-13,2,2.45L280,251.66a62.58,62.58,0,0,0,5,3.88l14.91-13,2,2.47-15.6,11.4c1.14.77,2.29,1.51,3.47,2.21.76.46,1.55.88,2.33,1.31l15.24-13,1.95,2.5L293.5,260.73c2.19,1.17,4.45,2.23,6.73,3.24l-.1-.12,15.54-12.91,1.91,2.52-16,11.12q2.53,1.08,5.12,2.09l-.11.3a87.11,87.11,0,0,1-17.48-7.24,59.74,59.74,0,0,1-15-11.64,47.33,47.33,0,0,1-9.76-16.34,51.36,51.36,0,0,1-2.49-12.42v0Zm1.75,60a70.3,70.3,0,0,1-13.32-11.42,54.92,54.92,0,0,1-9.53-14.64,61.47,61.47,0,0,1-4.65-17l-.37,0,.39,4.46.75,4.42,1.14,4.34c.51,1.41,1,2.84,1.51,4.24a52.66,52.66,0,0,0,9.6,15.16,66.07,66.07,0,0,0,13.8,11.44,89.1,89.1,0,0,0,16,7.86l.12-.3A116.53,116.53,0,0,1,263.61,279.33Zm12.19-9.72a72.88,72.88,0,0,1-13.52-11.67,56.91,56.91,0,0,1-9.74-14.88,62.76,62.76,0,0,1-4.86-17.24l-.37,0,.44,4.52.79,4.5,1.21,4.4c.52,1.43,1,2.89,1.56,4.3a54.64,54.64,0,0,0,9.8,15.4,68.61,68.61,0,0,0,14,11.68,91.62,91.62,0,0,0,16.24,8.13l.13-.3A120.72,120.72,0,0,1,275.8,269.61Z" transform="translate(-90.34 -75)"/><path class="cls-16" d="M340.19,125.08s33.42-69.5,53-44.11c20.58,26.65-9.9,67.8-9.9,67.8Z" transform="translate(-90.34 -75)"/><path class="cls-17" d="M398.37,111.43c1.71-10.16.78-20.83-6.1-29.74-.15-.2-.3-.39-.46-.57-2.87-3.46-6.07-4.92-9.78-4.46-15.21,1.87-33.46,34.76-39,45.53C368.67,105.38,386.24,107.36,398.37,111.43Z" transform="translate(-90.34 -75)"/><path class="cls-13" d="M340.19,125.08s24.89-51.76,44.31-49.62c-19.65-6-46.23,49.22-46.23,49.22l43.12,23.7.34-.48Z" transform="translate(-90.34 -75)"/><path class="cls-9" d="M340,122.7c35,5.18,65.23,46.25,69.66,83.74l-16.9,11.44-67.09-80.64Z" transform="translate(-90.34 -75)"/><path class="cls-18" d="M342.14,135c27.29,8.25,50,38.17,56.8,67.39,0,0-16.35,1-37.83-25S342.14,135,342.14,135Z" transform="translate(-90.34 -75)"/><path class="cls-19" d="M325.64,259.18q-46.23-15.24-52.8-63.46l55.93-51.67,57.85,69.54Z" transform="translate(-90.34 -75)"/><path class="cls-12" d="M336.35,218.1l-.49-.62,14.94-11.71.25.2a98.11,98.11,0,0,0,15.55,10.15l10.06-7.93.49.62-10.47,8.25-.22-.12a99.38,99.38,0,0,1-15.67-10.16Z" transform="translate(-90.34 -75)"/><path class="cls-13" d="M336.06,217.75l-.49-.62,15.19-11.92.25.2a97.78,97.78,0,0,0,15.56,10.15l10.05-7.93.49.62-10.46,8.25-.23-.12a100,100,0,0,1-15.66-10.16Z" transform="translate(-90.34 -75)"/><g class="cls-20"><polygon class="cls-21" points="286.33 138.48 231.4 180.3 214.1 171.21 266.24 127.84 286.33 138.48"/></g><path class="cls-12" d="M302.08,215.64l-5.34-9.59.7-.38,4.89,8.79,27.13-20.65a168.09,168.09,0,0,1-15.07-29l-.1-.26L329,151.84l.51.59-14.26,12.32a166.91,166.91,0,0,0,15.1,28.94l.19.31Z" transform="translate(-90.34 -75)"/><path class="cls-13" d="M302.27,214.79l-5.15-9.26.69-.38,4.7,8.45,27-20.64a133.06,133.06,0,0,1-14.85-29l-.09-.25L328.89,151l.52.59L315.52,164a132.72,132.72,0,0,0,14.89,28.85l.21.31Z" transform="translate(-90.34 -75)"/><path class="cls-22" d="M392.76,217.88c-37.52-16.16-60.09-42.9-67.09-80.64L340,122.7c5.34,42.63,29,70.18,69.66,83.74Z" transform="translate(-90.34 -75)"/><path class="cls-23" d="M340,122.7c35,5.18,65.23,46.25,69.66,83.74C369,192.88,345.34,165.33,340,122.7Zm22.59,51.51c10.9,13.1,26.09,23.16,45.16,29.9-2.69-18.15-11.34-37.05-24-52.23-12.33-14.82-27.15-24.43-41.94-27.26,2.8,19.73,9.77,36.4,20.74,49.58Z" transform="translate(-90.34 -75)"/><polygon class="cls-24" points="243.1 143.33 240.73 138.32 218.93 158.51 221.42 163.04 243.1 143.33"/><polygon class="cls-23" points="253.51 153.68 243.1 143.33 240.73 138.32 250.6 147.09 253.51 153.68"/><polygon class="cls-12" points="190.2 124.11 194.59 134.4 212.28 119.68 206.49 109.58 190.2 124.11"/><polygon class="cls-25" points="212.28 119.68 216.92 123 198 137.18 194.59 134.4 212.28 119.68"/><polygon class="cls-23" points="206.49 109.58 212.28 119.68 216.92 123 211.55 113.03 206.49 109.58"/><path class="cls-26" d="M394,195.84a87.79,87.79,0,0,1-17.66-9.41,22.07,22.07,0,0,0,13.86-.59A26.28,26.28,0,0,1,394,195.84Z" transform="translate(-90.34 -75)"/><polygon class="cls-12" points="229.54 169.99 221.42 163.04 243.1 143.33 253.51 153.68 229.54 169.99"/><path class="cls-11" d="M225,249.46l-10.26-2.15c2.69,9.13,7.44,18.27,13.2,27.49l7.67-2.4C230.5,264.3,226.45,256.5,225,249.46Z" transform="translate(-90.34 -75)"/><g class="cls-27"><path class="cls-28" d="M266.06,297.33l.94,11.18a121.51,121.51,0,0,1-21.74-14.07l5.91-6.2A63.78,63.78,0,0,0,266.06,297.33Z" transform="translate(-90.34 -75)"/></g><polygon class="cls-6" points="117.38 68.11 76.98 287.62 5.74 253.94 65.5 34.08 117.38 68.11"/><path class="cls-29" d="M204.54,153.41c.55-3,.83-4.51,1.38-7.5l-1.08-2.11-8.26-5.69-1.68.3c-.66,3.11-1,4.66-1.66,7.76.46.87.72,1.35,1.18,2.2,3.52,2.25,5.24,3.34,8.54,5.43Zm-12.16-7.79c.67-3.12,1-4.67,1.68-7.78l-1.15-2.26-8.9-6.11-1.8.31c-.77,3.23-1.15,4.84-1.91,8.06.47.9.73,1.4,1.21,2.29l9.13,5.83Zm-28.19-16.45c-3.75-2.34-5.61-3.5-9.27-5.75-.44-.91-.69-1.42-1.12-2.33l2.37-8.68,1.86-.48c3.57,2.36,5.4,3.58,9.06,6,.44.94.69,1.47,1.14,2.4l-2.16,8.41Zm15.2,8.09c.77-3.22,1.16-4.84,1.93-8.08-.46-.92-.72-1.44-1.17-2.36-3.65-2.49-5.5-3.75-9.17-6.23l-1.86.37L167,129.34c.47.91.73,1.43,1.19,2.33,3.76,2.37,5.64,3.57,9.38,5.94Zm23.15,27c.56-3.08.84-4.6,1.4-7.64l-1.12-2.08-8.57-5.41-1.72.35c-.66,3.12-1,4.68-1.66,7.82l1.22,2.18c3.62,2.15,5.4,3.21,8.82,5.22ZM190,156.81c.68-3.15,1-4.71,1.68-7.84-.46-.86-.73-1.34-1.19-2.21L181.32,141l-1.84.35-1.9,8,1.25,2.25,9.37,5.6Zm-28.86-15.73c-3.82-2.25-5.73-3.36-9.48-5.52l-1.16-2.27c.92-3.38,1.38-5.08,2.32-8.5l1.88-.49c3.67,2.24,5.54,3.39,9.29,5.73l1.18,2.32c-.85,3.33-1.27,5-2.11,8.3Zm15.54,7.71c.76-3.22,1.14-4.83,1.91-8.06-.48-.89-.74-1.39-1.22-2.29-3.74-2.37-5.63-3.56-9.39-5.92l-1.89.4c-.85,3.32-1.27,5-2.11,8.28l1.23,2.28c3.84,2.27,5.77,3.42,9.59,5.7Zm23.83,26.65c.58-3.16.87-4.72,1.44-7.82-.46-.81-.71-1.27-1.17-2.09-3.43-2-5.21-3.06-8.84-5.21l-1.77.4c-.67,3.16-1,4.75-1.68,7.94.49.86.77,1.33,1.26,2.18,3.72,2.1,5.54,3.13,9.08,5.1Zm-12.93-7.29c.69-3.2,1-4.79,1.7-8L188,158l-9.39-5.59-1.87.4c-.76,3.22-1.14,4.84-1.9,8.09l1.28,2.24,9.59,5.44Zm-29.48-15.21c-3.9-2.18-5.84-3.26-9.67-5.37-.47-.87-.73-1.36-1.19-2.24.91-3.36,1.36-5,2.28-8.41l1.91-.5c3.75,2.16,5.66,3.27,9.49,5.51l1.23,2.28-2.1,8.27Zm15.85,7.43c.76-3.25,1.14-4.87,1.91-8.1L174.58,150c-3.82-2.27-5.76-3.42-9.6-5.68l-1.92.43c-.83,3.3-1.25,5-2.09,8.26l1.26,2.25L172,160.8Zm24.45,26.56c.6-3.27.9-4.88,1.48-8.07l-1.2-2.11c-3.55-2-5.38-3-9.1-5.09l-1.82.46L186,180.24c.5.86.78,1.35,1.29,2.2,3.81,2.07,5.68,3.09,9.33,5Zm-13.28-7.19c.7-3.29,1-4.91,1.73-8.14-.5-.85-.77-1.33-1.27-2.19L176,164l-1.91.44c-.76,3.26-1.14,4.91-1.91,8.22l1.3,2.24,9.79,5.34ZM155,164.87c-4-2.15-5.95-3.21-9.85-5.28L144,157.36c.91-3.37,1.37-5.05,2.27-8.41l1.94-.52c3.83,2.1,5.78,3.18,9.68,5.36l1.26,2.26L157,164.38Zm16.13,7.24c.78-3.31,1.16-5,1.93-8.23l-1.28-2.24-9.8-5.52-2,.46L158,164.9c.5.88.78,1.38,1.29,2.26l10,5.42Zm25,26.72c.62-3.39.93-5.07,1.53-8.37-.48-.84-.75-1.31-1.24-2.14-3.65-1.95-5.53-3-9.35-5l-1.85.5c-.7,3.31-1,5-1.76,8.38l1.31,2.24c3.9,2.06,5.82,3.07,9.57,5Zm-13.62-7.17c.71-3.39,1.07-5.06,1.77-8.37l-1.3-2.22-9.8-5.34-1.95.48c-.77,3.34-1.16,5-2,8.42l1.33,2.28,10,5.29ZM152,177c-4-2.12-6.05-3.18-10-5.24l-1.24-2.25c.92-3.42,1.37-5.12,2.28-8.5l2-.54c3.9,2.07,5.89,3.13,9.86,5.28L156.1,168c-.85,3.36-1.27,5-2.13,8.46Zm16.41,7.13c.79-3.4,1.19-5.08,2-8.42-.52-.88-.8-1.38-1.31-2.26-4-2.16-6-3.26-10-5.41l-2,.49c-.84,3.36-1.26,5.05-2.12,8.46l1.31,2.28,10.13,5.37Zm25.55,27.12,1.6-8.72c-.5-.86-.78-1.35-1.27-2.21-3.76-2-5.69-3-9.59-5l-1.9.56-1.82,8.69,1.34,2.3c4,2.07,5.95,3.08,9.8,5ZM180,204c.74-3.53,1.11-5.27,1.83-8.7-.52-.88-.81-1.37-1.32-2.25l-10-5.3-2,.53c-.79,3.43-1.19,5.16-2,8.68.53.91.83,1.42,1.35,2.33l10.17,5.3ZM148.82,189.4c-4.1-2.12-6.14-3.18-10.17-5.25l-1.27-2.29c.94-3.5,1.41-5.24,2.33-8.68l2-.57c4,2.07,6,3.12,10,5.25l1.3,2.28c-.86,3.44-1.3,5.18-2.18,8.69Zm16.68,7.07c.81-3.52,1.22-5.25,2-8.68-.52-.9-.82-1.4-1.34-2.29-4.05-2.15-6.08-3.23-10.14-5.37l-2,.53c-.86,3.44-1.3,5.18-2.17,8.69.51.91.8,1.41,1.32,2.32l10.3,5.37Zm26,27.74c.69-3.72,1-5.54,1.68-9.14-.51-.89-.79-1.39-1.3-2.27l-9.82-5.06-2,.61c-.74,3.57-1.12,5.38-1.89,9.07l1.36,2.37c4.07,2.09,6.08,3.12,10,5.13Zm-14.27-7.3c.77-3.69,1.15-5.5,1.9-9.07l-1.34-2.32c-4-2.09-6.08-3.16-10.18-5.3l-2,.58c-.82,3.56-1.24,5.37-2.08,9l1.36,2.39,10.36,5.34Zm-31.69-14.66c-4.16-2.14-6.23-3.21-10.32-5.3-.51-.92-.78-1.44-1.28-2.35,1-3.63,1.45-5.41,2.4-8.95l2-.6c4,2.07,6.08,3.13,10.18,5.26l1.32,2.32c-.89,3.55-1.34,5.35-2.25,9Zm17,7.06c.85-3.67,1.27-5.47,2.09-9l-1.35-2.34L153,192.58l-2.05.57c-.89,3.55-1.33,5.35-2.24,9,.52.93.81,1.45,1.34,2.38l10.45,5.4ZM189,237.85c.72-3.92,1.07-5.84,1.76-9.61l-1.33-2.36-10.05-5.13-2,.67c-.78,3.74-1.18,5.64-2,9.51.54,1,.84,1.5,1.37,2.47l10.27,5.22Zm-14.6-7.44c.81-3.87,1.21-5.77,2-9.51l-1.36-2.39-10.37-5.34-2.07.63-2.16,9.45c.53,1,.84,1.5,1.37,2.47l10.55,5.41ZM142.2,215.64l-10.49-5.38-1.28-2.42,2.49-9.32,2.08-.64,10.34,5.31,1.33,2.39c-.92,3.69-1.39,5.56-2.34,9.38Zm17.23,7.08c.88-3.84,1.32-5.73,2.18-9.44l-1.37-2.41-10.46-5.4-2.09.63c-.92,3.7-1.39,5.57-2.33,9.39.52.95.82,1.49,1.34,2.46l10.62,5.45Zm27,29.5,1.86-10.13-1.36-2.46-10.28-5.24-2,.74-2.09,10,1.4,2.57c4.24,2.16,6.35,3.24,10.5,5.34Zm-14.94-7.59c.85-4.09,1.27-6.09,2.1-10-.54-1-.85-1.52-1.38-2.49-4.2-2.14-6.32-3.23-10.56-5.41l-2.11.7c-.89,3.91-1.35,5.89-2.27,9.94l1.38,2.57,10.74,5.49Zm-32.78-14.94L128,224.22l-1.3-2.52c1.06-4,1.59-5.93,2.61-9.76l2.13-.7,10.5,5.38,1.34,2.47c-1,3.87-1.46,5.84-2.46,9.85Zm17.51,7.12,2.29-9.93-1.38-2.49-10.63-5.46-2.13.69c-1,3.87-1.45,5.84-2.44,9.86l1.35,2.55L154,237.57Zm27.42,30.61c.8-4.37,1.2-6.52,2-10.72-.54-1-.85-1.57-1.39-2.57l-10.52-5.35-2.1.8c-.86,4.16-1.3,6.27-2.19,10.6l1.41,2.68,10.75,5.47Zm-15.29-7.78c.91-4.32,1.35-6.44,2.21-10.59l-1.39-2.59c-4.28-2.18-6.44-3.28-10.75-5.5l-2.16.78-2.4,10.5c.55,1,.85,1.63,1.4,2.68l10.94,5.59Zm-33.37-15.12c-4.35-2.24-6.53-3.35-10.82-5.57l-1.3-2.63c1.12-4.21,1.67-6.27,2.75-10.31l2.17-.76,10.67,5.47,1.35,2.57c-1,4.08-1.54,6.16-2.59,10.41Zm17.82,7.17c1-4.28,1.46-6.38,2.41-10.49l-1.39-2.59L143,233.07l-2.18.76c-1,4.08-1.53,6.16-2.58,10.41l1.36,2.67,11,5.62Zm27.89,31.82c.85-4.63,1.26-6.9,2.08-11.35l-1.41-2.7L170.55,264l-2.15.89c-.92,4.4-1.38,6.64-2.33,11.23.56,1.09.87,1.71,1.43,2.81l11,5.6Zm-15.66-8c1-4.58,1.43-6.83,2.34-11.22l-1.41-2.71L155,256l-2.21.86c-1,4.35-1.5,6.58-2.54,11.13l1.4,2.8,11.16,5.69Zm-34-15.29-11-5.67-1.3-2.77c1.19-4.47,1.78-6.65,2.92-10.94l2.23-.84,10.84,5.58c.53,1,.82,1.63,1.35,2.68-1.07,4.33-1.62,6.53-2.74,11Zm18.14,7.2c1.05-4.54,1.56-6.77,2.56-11.12-.55-1.06-.85-1.65-1.39-2.71l-11-5.62-2.23.84c-1.07,4.33-1.62,6.53-2.74,11l1.37,2.8,11.15,5.71Zm28.38,33.12c.9-4.92,1.35-7.33,2.21-12l-1.44-2.84-11-5.61-2.22,1c-1,4.67-1.46,7.05-2.47,11.92.56,1.15.88,1.8,1.45,2.95l11.28,5.72Zm-16-8.13c1-4.88,1.51-7.26,2.49-11.93-.56-1.11-.88-1.73-1.43-2.83L151.36,272l-2.27.95c-1.05,4.64-1.59,7-2.7,11.84.55,1.15.86,1.79,1.42,2.94l11.38,5.78ZM126.79,277l-11.22-5.77c-.51-1.14-.8-1.78-1.3-2.91,1.27-4.77,1.9-7.1,3.11-11.66l2.29-.94c4.38,2.27,6.59,3.4,11,5.68l1.36,2.82c-1.15,4.59-1.73,6.94-2.93,11.75Zm18.5,7.21L148,272.4c-.55-1.11-.85-1.73-1.4-2.83l-11.17-5.72-2.29.94-2.91,11.76,1.37,2.93L143,285.27Zm28.89,34.48,2.35-12.79c-.57-1.17-.89-1.82-1.47-3l-11.3-5.73-2.28,1.09c-1,5-1.56,7.5-2.63,12.69l1.47,3.09,11.58,5.82Zm-16.46-8.29c1.09-5.18,1.61-7.72,2.65-12.68-.57-1.17-.88-1.82-1.45-3L147.52,289l-2.33,1.07c-1.12,4.93-1.7,7.46-2.88,12.62l1.43,3.08,11.63,5.85Zm-35.42-15.5c-4.61-2.35-6.9-3.52-11.45-5.86-.51-1.2-.79-1.87-1.3-3.06,1.37-5.11,2-7.6,3.33-12.47l2.36-1c4.47,2.31,6.72,3.46,11.24,5.78l1.35,2.95-3.12,12.55Zm18.89,7.18c1.18-5.16,1.76-7.68,2.89-12.61-.55-1.17-.86-1.82-1.41-3l-11.38-5.8-2.35,1.06c-1.22,4.9-1.84,7.41-3.11,12.55l1.37,3.08,11.59,5.85ZM170.65,338c1-5.55,1.51-8.27,2.49-13.59-.58-1.23-.91-1.91-1.49-3.13L160,315.42l-2.35,1.21c-1.1,5.29-1.66,8-2.8,13.52.58,1.26.9,2,1.49,3.24l11.9,5.9Zm-16.91-8.4,2.81-13.51-1.46-3.12-11.65-5.85L141,308.28,138,321.75l1.43,3.23,11.92,5.9Zm-36.26-15.5c-4.7-2.36-7-3.54-11.69-5.9-.51-1.27-.79-2-1.3-3.23,1.47-5.49,2.18-8.16,3.58-13.38l2.43-1.17c4.56,2.34,6.85,3.51,11.46,5.85l1.36,3.11c-1.3,5.24-2,7.92-3.34,13.42Zm19.33,7.11c1.26-5.52,1.88-8.21,3.09-13.47l-1.42-3.11-11.61-5.87-2.42,1.19c-1.3,5.24-2,7.93-3.33,13.43.54,1.26.84,2,1.37,3.23l11.85,5.9Zm30.07,37.28c1.09-5.91,1.62-8.8,2.66-14.46-.6-1.28-.94-2-1.53-3.28l-11.93-5.9-2.43,1.33c-1.17,5.64-1.76,8.52-3,14.41l1.51,3.4c4.9,2.37,7.35,3.56,12.25,6ZM149.48,350c1.23-5.9,1.83-8.78,3-14.41-.57-1.28-.9-2-1.47-3.27l-11.94-5.9-2.48,1.33c-1.28,5.63-1.94,8.5-3.28,14.4.56,1.32.88,2.06,1.44,3.39L147,351.44Zm-37.16-15.38c-4.81-2.37-7.21-3.56-12-5.93-.51-1.33-.79-2.08-1.3-3.4l3.85-14.38,2.52-1.32c4.65,2.37,7,3.55,11.71,5.91l1.36,3.27-3.59,14.39Zm19.81,6.95,3.3-14.39L134,323.9c-4.76-2.36-7.14-3.54-11.86-5.9l-2.51,1.33c-1.39,5.62-2.11,8.49-3.57,14.39.54,1.32.84,2.07,1.38,3.4l12.12,5.9Z" transform="translate(-90.34 -75)"/><polygon class="cls-8" points="65.5 34.08 62.13 36.88 0 256.32 72.75 288.1 76.98 287.62 5.74 253.94 65.5 34.08"/></g></g></svg>