<?xml version="1.0" encoding="utf-8"?>
<!-- Generator: Adobe Illustrator 24.2.3, SVG Export Plug-In . SVG Version: 6.00 Build 0)  -->
<svg version="1.1" id="Layer_1" xmlns="http://www.w3.org/2000/svg" xmlns:xlink="http://www.w3.org/1999/xlink" x="0px" y="0px"
	 viewBox="0 0 500 500" style="enable-background:new 0 0 500 500;" xml:space="preserve">
<style type="text/css">
	.st0{fill:#FFF7CC;}
	.st1{fill:url(#SVGID_1_);}
	.st2{fill:#D97973;}
	.st3{fill:#131F49;}
	.st4{fill:url(#SVGID_2_);}
	.st5{opacity:0.25;fill:#146B87;enable-background:new    ;}
	.st6{fill:#E2F0D5;}
	.st7{fill:#004D5C;}
	.st8{fill:#22567D;}
	.st9{fill:url(#SVGID_3_);}
	.st10{fill:url(#SVGID_4_);}
	.st11{opacity:0.2;fill:#004D5C;enable-background:new    ;}
	.st12{fill:url(#SVGID_5_);}
	.st13{fill:url(#SVGID_6_);}
	.st14{opacity:0.85;fill:url(#SVGID_7_);enable-background:new    ;}
	.st15{fill:url(#SVGID_8_);}
	.st16{fill:#77CCCC;}
	.st17{fill:#146B87;}
	.st18{fill:#4DA9A3;}
	.st19{opacity:0.3;fill:#00B8C4;enable-background:new    ;}
	.st20{fill:url(#SVGID_9_);}
	.st21{fill:url(#SVGID_10_);}
</style>
<g>
	<g id="Layer_1_1_">
		<polygon class="st0" points="332.3,223.4 313.5,434.3 242.9,401.5 280.1,190.4 		"/>
		
			<linearGradient id="SVGID_1_" gradientUnits="userSpaceOnUse" x1="282.1517" y1="794.2177" x2="426.6234" y2="644.3359" gradientTransform="matrix(0.72 0.79 0.73 -0.66 -491.64 489.21)">
			<stop  offset="0" style="stop-color:#131F49"/>
			<stop  offset="0.8" style="stop-color:#14466A"/>
			<stop  offset="1" style="stop-color:#006099"/>
		</linearGradient>
		<path class="st1" d="M330.2,233.3c0.2-2.9,0.4-4.3,0.6-7.2l-1.2-2l-8.3-5.5l-1.6,0.3c-0.4,3-0.5,4.5-0.9,7.5
			c0.5,0.8,0.8,1.3,1.3,2.1c3.5,2.2,5.3,3.2,8.6,5.3L330.2,233.3z M317.9,225.8c0.4-3,0.5-4.5,0.9-7.5l-1.3-2.2
			c-3.5-2.3-5.3-3.5-9-5.9l-1.7,0.3c-0.4,3.1-0.7,4.7-1.1,7.7c0.5,0.9,0.8,1.4,1.4,2.2l9.2,5.7L317.9,225.8z M289.7,209.8
			c-3.8-2.3-5.6-3.4-9.3-5.6c-0.5-0.9-0.8-1.4-1.3-2.2c0.6-3.3,0.9-5,1.5-8.3l1.7-0.4c3.6,2.3,5.4,3.5,9.1,5.9
			c0.5,0.9,0.8,1.4,1.3,2.3c-0.5,3.3-0.8,4.9-1.3,8.1L289.7,209.8z M304.9,217.7c0.4-3.1,0.7-4.7,1.1-7.8c-0.5-0.9-0.8-1.4-1.3-2.3
			c-3.7-2.4-5.6-3.6-9.3-6l-1.7,0.4c-0.5,3.2-0.8,4.8-1.3,8l1.3,2.3l9.4,5.8L304.9,217.7z M329.3,243.8c0.3-3,0.4-4.4,0.7-7.3
			l-1.3-2c-3.3-2-5.1-3.1-8.6-5.3l-1.6,0.3c-0.4,3-0.5,4.5-0.9,7.5c0.5,0.8,0.8,1.3,1.4,2.1c3.6,2.1,5.4,3.1,8.8,5.1L329.3,243.8z
			 M316.7,236.6c0.4-3,0.5-4.5,0.9-7.5l-1.3-2.1l-9.2-5.6l-1.7,0.3c-0.4,3.1-0.6,4.6-1.1,7.7l1.4,2.2l9.4,5.4L316.7,236.6z
			 M287.9,221.2c-3.8-2.2-5.7-3.3-9.5-5.4l-1.3-2.2c0.6-3.3,0.9-4.9,1.4-8.2l1.7-0.5c3.7,2.2,5.6,3.3,9.3,5.6
			c0.5,0.9,0.8,1.4,1.3,2.2c-0.5,3.2-0.8,4.8-1.3,8L287.9,221.2z M303.3,228.7c0.4-3.1,0.6-4.6,1.1-7.7l-1.4-2.2
			c-3.8-2.3-5.7-3.5-9.4-5.7l-1.8,0.4c-0.5,3.2-0.8,4.8-1.3,8l1.4,2.2c3.8,2.2,5.8,3.3,9.6,5.5L303.3,228.7z M328.3,254.5
			c0.3-3,0.4-4.5,0.7-7.5l-1.3-2c-3.4-2-5.2-3-8.9-5.1c-0.6,0.1-1,0.2-1.6,0.4c-0.4,3-0.5,4.6-0.9,7.6l1.4,2.1c3.7,2,5.5,3,9.1,5
			L328.3,254.5z M315.4,247.4c0.4-3.1,0.5-4.6,0.9-7.6l-1.4-2.1l-9.4-5.4l-1.7,0.4c-0.4,3.1-0.6,4.7-1.1,7.8l1.4,2.2l9.6,5.3
			L315.4,247.4z M286.1,232.6c-3.9-2.1-5.8-3.2-9.7-5.2l-1.3-2.2c0.6-3.2,0.9-4.8,1.4-8.1l1.8-0.5c3.8,2.1,5.7,3.2,9.5,5.4l1.4,2.2
			c-0.5,3.2-0.8,4.8-1.3,8L286.1,232.6z M301.8,239.8c0.4-3.1,0.7-4.7,1.1-7.8c-0.5-0.9-0.9-1.3-1.4-2.2l-9.6-5.5l-1.8,0.4l-1.3,8
			l1.4,2.2l9.8,5.4L301.8,239.8z M327.4,265.5c0.3-3.1,0.4-4.7,0.7-7.8l-1.3-2c-3.5-1.9-5.4-2.9-9.1-4.9l-1.7,0.4
			c-0.4,3.1-0.5,4.7-0.9,7.8l1.4,2.1c3.8,2,5.7,3,9.3,4.9L327.4,265.5z M314.1,258.5c0.4-3.2,0.6-4.7,0.9-7.8
			c-0.6-0.8-0.9-1.3-1.4-2.1l-9.6-5.3l-1.8,0.4c-0.4,3.1-0.7,4.7-1.1,7.9l1.4,2.2l9.8,5.2L314.1,258.5z M284.3,244
			c-4-2.1-5.9-3.1-9.8-5.1l-1.4-2.2c0.6-3.2,0.9-4.9,1.4-8.1l1.8-0.5c3.8,2,5.8,3.1,9.7,5.2l1.4,2.2c-0.5,3.2-0.8,4.8-1.3,8
			L284.3,244z M300.3,251c0.4-3.2,0.7-4.8,1.1-7.9l-1.4-2.1l-9.8-5.4l-1.8,0.4c-0.5,3.2-0.8,4.8-1.2,8l1.4,2.2l9.9,5.3L300.3,251z
			 M326.4,276.9c0.3-3.3,0.4-4.9,0.7-8l-1.4-2.1c-3.6-1.9-5.5-2.9-9.3-4.9l-1.7,0.5c-0.4,3.2-0.6,4.8-0.9,8l1.4,2.2
			c3.9,2,5.8,3,9.5,4.9L326.4,276.9z M312.8,269.9c0.4-3.3,0.6-4.9,0.9-8l-1.4-2.1l-9.8-5.2l-1.8,0.4c-0.4,3.2-0.7,4.8-1.1,8.1
			l1.5,2.2l9.9,5.1L312.8,269.9z M282.4,255.7c-4-2.1-6-3.1-10-5.1l-1.4-2.2c0.6-3.3,0.9-4.9,1.4-8.2l1.8-0.5c3.9,2,5.9,3.1,9.8,5.1
			l1.4,2.2c-0.5,3.2-0.8,4.9-1.3,8.1L282.4,255.7z M298.6,262.7c0.5-3.3,0.7-4.9,1.1-8.1l-1.4-2.2c-4-2.1-6-3.2-9.9-5.3l-1.8,0.5
			c-0.5,3.2-0.8,4.9-1.3,8.1l1.5,2.2l10.1,5.2L298.6,262.7z M325.3,288.9c0.3-3.4,0.5-5.1,0.7-8.4l-1.4-2.1
			c-3.7-1.9-5.7-2.9-9.5-4.9l-1.8,0.5c-0.4,3.3-0.6,5-1,8.4c0.6,0.9,0.9,1.4,1.5,2.2c4,2,5.9,3,9.8,4.9L325.3,288.9z M311.4,281.9
			c0.4-3.4,0.6-5.1,1-8.3l-1.4-2.2l-10-5.1l-1.8,0.5c-0.5,3.3-0.7,5-1.1,8.4l1.5,2.2l10.1,5.1L311.4,281.9z M280.5,267.6l-10.1-5.1
			c-0.5-0.9-0.9-1.3-1.4-2.2c0.6-3.4,0.9-5,1.4-8.3l1.9-0.5c3.9,2,6,3,10,5.1l1.4,2.2l-1.3,8.3L280.5,267.6z M296.9,274.5
			c0.5-3.4,0.7-5.1,1.1-8.3c-0.6-0.9-0.9-1.4-1.5-2.2l-10.1-5.2l-1.9,0.5c-0.5,3.3-0.8,5-1.3,8.3l1.5,2.2l10.2,5.2L296.9,274.5z
			 M324.1,301.3c0.3-3.6,0.5-5.3,0.8-8.8l-1.4-2.2c-3.8-1.9-5.8-2.9-9.8-4.9l-1.8,0.6c-0.4,3.4-0.6,5.2-1,8.7l1.5,2.3l10,5
			L324.1,301.3z M309.9,294.2c0.4-3.5,0.6-5.3,1-8.7l-1.5-2.2l-10.1-5.1l-1.9,0.5c-0.5,3.4-0.7,5.2-1.2,8.7l1.5,2.3l10.3,5.2
			L309.9,294.2z M278.6,280l-10.3-5.2c-0.6-0.9-0.9-1.4-1.4-2.3c0.6-3.5,0.9-5.2,1.5-8.6l1.9-0.6c4,2,6,3,10.1,5.1l1.5,2.2
			c-0.5,3.4-0.8,5.1-1.3,8.6L278.6,280z M295.3,286.8c0.5-3.5,0.7-5.3,1.2-8.7l-1.5-2.3l-10.2-5.2l-1.9,0.5
			c-0.5,3.4-0.8,5.1-1.3,8.6l1.5,2.3l10.4,5.2L295.3,286.8z M322.9,314.4c0.3-3.8,0.5-5.6,0.8-9.2l-1.5-2.3c-3.9-2-5.9-3-10-5
			l-1.8,0.6c-0.4,3.6-0.6,5.4-1,9.1l1.5,2.4l10.2,5.1L322.9,314.4z M308.4,307.2c0.4-3.7,0.6-5.6,1-9.1l-1.5-2.4l-10.3-5.2l-1.9,0.6
			c-0.5,3.6-0.7,5.4-1.2,9.1l1.5,2.4l10.5,5.3L308.4,307.2z M276.6,292.8c-4.2-2.1-6.3-3.2-10.4-5.2c-0.6-0.9-0.9-1.4-1.4-2.3
			c0.6-3.6,0.9-5.4,1.5-8.9l1.9-0.6c4.1,2,6.1,3.1,10.3,5.2l1.5,2.3c-0.5,3.5-0.8,5.3-1.4,9L276.6,292.8z M293.6,299.7
			c0.5-3.7,0.7-5.5,1.2-9.1l-1.5-2.3l-10.4-5.3l-1.9,0.6c-0.5,3.5-0.8,5.3-1.4,9l1.5,2.4l10.6,5.3L293.6,299.7z M321.8,328.2
			c0.4-4,0.5-5.9,0.9-9.7l-1.5-2.4l-10.2-5.1l-1.9,0.7c-0.4,3.8-0.6,5.7-1.1,9.6l1.5,2.5c4.2,2.1,6.3,3.2,10.4,5.2L321.8,328.2z
			 M306.9,320.9l1.1-9.6c-0.6-0.9-0.9-1.5-1.5-2.4c-4.2-2.1-6.3-3.1-10.5-5.3l-1.9,0.7c-0.5,3.7-0.8,5.7-1.3,9.5l1.5,2.5l10.6,5.3
			L306.9,320.9z M274.5,306.3l-10.6-5.3c-0.6-1-0.9-1.5-1.5-2.4c0.7-3.8,1-5.7,1.6-9.4l2-0.7l10.4,5.2l1.5,2.4l-1.5,9.5L274.5,306.3
			z M291.8,313.3c0.5-3.9,0.8-5.8,1.3-9.5l-1.5-2.4l-10.6-5.3l-2,0.7l-1.5,9.5l1.5,2.5l10.7,5.4L291.8,313.3z M320.5,342.8
			c0.4-4.2,0.5-6.3,0.9-10.3l-1.5-2.5l-10.5-5.2l-1.9,0.8c-0.5,4-0.7,6-1.1,10.2c0.6,1,1,1.6,1.6,2.6l10.6,5.3L320.5,342.8z
			 M305.3,335.3c0.5-4.2,0.7-6.2,1.2-10.2l-1.6-2.5l-10.7-5.3l-2,0.7l-1.4,10.1l1.6,2.6l10.9,5.4L305.3,335.3z M272.3,320.6
			c-4.3-2.2-6.5-3.3-10.8-5.4l-1.5-2.5c0.7-4,1-6,1.7-9.9l2-0.7l10.6,5.3c0.6,1,0.9,1.5,1.5,2.5c-0.6,3.9-0.9,5.9-1.5,10
			L272.3,320.6z M289.8,327.6c0.6-4.1,0.8-6.1,1.4-10.1l-1.5-2.5l-10.7-5.4l-2,0.7c-0.6,3.9-0.9,5.9-1.5,10l1.5,2.6l10.9,5.5
			L289.8,327.6z M319.1,358.3c0.4-4.5,0.6-6.6,1-10.9c-0.6-1-1-1.6-1.6-2.6l-10.7-5.3l-2,0.8c-0.5,4.2-0.7,6.4-1.2,10.8
			c0.6,1.1,1,1.7,1.6,2.7l10.9,5.4L319.1,358.3z M303.5,350.6c0.5-4.4,0.8-6.6,1.2-10.8l-1.6-2.6c-4.3-2.2-6.5-3.3-10.9-5.4l-2,0.8
			c-0.6,4.2-0.8,6.3-1.4,10.7l1.6,2.7l11.1,5.5L303.5,350.6z M269.9,335.7c-4.4-2.2-6.6-3.3-11-5.5c-0.6-1-0.9-1.6-1.5-2.7
			c0.7-4.3,1.1-6.4,1.8-10.5c0.8-0.3,1.2-0.5,2-0.8l10.8,5.4l1.5,2.6c-0.6,4.2-1,6.3-1.6,10.6L269.9,335.7z M287.8,342.7
			c0.6-4.4,0.9-6.5,1.4-10.7l-1.6-2.6l-10.9-5.5l-2,0.8c-0.6,4.2-1,6.3-1.6,10.6c0.6,1,0.9,1.6,1.5,2.7l11.1,5.6L287.8,342.7z
			 M317.6,374.7c0.4-4.7,0.6-7,1-11.6l-1.6-2.7l-11-5.4l-2,0.9c-0.5,4.5-0.8,6.8-1.3,11.5l1.6,2.8l11.3,5.5L317.6,374.7z
			 M301.7,366.8c0.5-4.7,0.8-7,1.3-11.5l-1.6-2.7l-11.1-5.5l-2.1,0.9c-0.6,4.5-0.9,6.7-1.5,11.4l1.6,2.8l11.3,5.6L301.7,366.8z
			 M267.4,351.8c-4.5-2.2-6.7-3.4-11.2-5.6c-0.6-1.1-0.9-1.7-1.5-2.8c0.8-4.6,1.2-6.8,1.9-11.2l2.1-0.9c4.4,2.2,6.6,3.3,11,5.5
			l1.5,2.7c-0.7,4.4-1,6.7-1.7,11.3L267.4,351.8z M285.6,358.8c0.6-4.6,0.9-6.9,1.5-11.4c-0.6-1.1-1-1.7-1.6-2.7l-11.1-5.6l-2.1,0.9
			l-1.7,11.3l1.6,2.8l11.3,5.6L285.6,358.8z M316.1,392.1c0.4-5,0.7-7.5,1.1-12.3l-1.7-2.9l-11.2-5.6l-2.1,1
			c-0.5,4.8-0.8,7.2-1.4,12.2c0.6,1.2,1,1.8,1.7,3l11.5,5.7L316.1,392.1z M299.7,384.1c0.6-5,0.8-7.4,1.4-12.2l-1.6-2.9l-11.3-5.6
			l-2.1,1c-0.6,4.7-1,7.2-1.6,12.1c0.6,1.2,1,1.8,1.6,3l11.6,5.7L299.7,384.1z M264.7,369c-4.6-2.3-6.9-3.4-11.4-5.7l-1.5-3l2.1-12
			l2.1-1l11.2,5.6l1.5,2.8c-0.7,4.7-1.1,7.1-1.9,12.1L264.7,369z M283.3,376c0.7-5,1-7.4,1.6-12.1l-1.6-2.9l-11.3-5.6l-2.1,1
			c-0.7,4.7-1.1,7.1-1.8,12.1c0.6,1.2,1,1.8,1.6,3l11.5,5.7L283.3,376z M314.4,410.7c0.5-5.3,0.7-7.9,1.2-13.1l-1.7-3l-11.5-5.7
			l-2.1,1.1c-0.6,5.1-0.9,7.7-1.5,13l1.7,3.1l11.8,5.7L314.4,410.7z M297.6,402.5c0.6-5.3,0.9-7.9,1.5-13l-1.7-3l-11.6-5.7l-2.2,1.1
			c-0.7,5.1-1,7.6-1.7,12.9l1.6,3.1l11.8,5.7L297.6,402.5z M261.9,387.3c-4.7-2.3-7-3.4-11.6-5.7c-0.6-1.2-0.9-1.9-1.5-3.1l2.2-12.8
			l2.2-1.1c4.5,2.3,6.8,3.4,11.4,5.7c0.6,1.2,1,1.8,1.6,3c-0.8,5-1.2,7.6-2,12.9L261.9,387.3z M280.9,394.3
			c0.7-5.3,1.1-7.9,1.7-12.9c-0.6-1.2-1-1.8-1.6-3l-11.5-5.7l-2.2,1.1c-0.8,5-1.2,7.6-2,12.9l1.6,3.1l11.8,5.7L280.9,394.3z
			 M312.7,430.3c0.5-5.7,0.8-8.5,1.2-13.9l-1.7-3.2l-11.8-5.7l-2.2,1.2c-0.6,5.4-0.9,8.2-1.5,13.8l1.7,3.3c4.9,2.3,7.3,3.5,12.2,5.8
			L312.7,430.3z M295.5,422c0.6-5.7,1-8.4,1.6-13.8l-1.7-3.2c-4.7-2.3-7.1-3.4-11.8-5.7l-2.2,1.3c-0.7,5.4-1.1,8.2-1.8,13.8
			c0.6,1.3,1,2,1.7,3.3l12.1,5.7L295.5,422z M258.9,407c-4.8-2.3-7.2-3.5-11.9-5.8l-1.5-3.3c1-5.7,1.5-8.4,2.4-13.8l2.3-1.2
			l11.6,5.8l1.6,3.1c-0.8,5.4-1.2,8.2-2.1,13.8L258.9,407z M278.3,413.8c0.8-5.7,1.1-8.4,1.9-13.8l-1.6-3.1l-11.8-5.7l-2.3,1.3
			c-0.8,5.4-1.2,8.2-2.1,13.8l1.6,3.3c4.8,2.3,7.2,3.4,12,5.7L278.3,413.8z"/>
		<polygon class="st2" points="280.1,190.4 277.1,193.1 237.7,403.8 309.5,434.7 313.5,434.3 242.9,401.5 		"/>
		<path class="st3" d="M209.6,310c-12.9-15.5-31-27.3-54-35l-2,1.9c45.6,15.9,71.4,47,77.3,92.8l2.1-1.6
			C230.3,345,222.5,325.5,209.6,310z"/>
		
			<linearGradient id="SVGID_2_" gradientUnits="userSpaceOnUse" x1="291.8103" y1="663.1869" x2="396.9247" y2="663.1869" gradientTransform="matrix(0.6394 0.7688 0.7688 -0.6394 -527.4969 475.1134)">
			<stop  offset="0" style="stop-color:#E2F0D5"/>
			<stop  offset="0" style="stop-color:#E1EFD4"/>
			<stop  offset="4.000000e-02" style="stop-color:#BBD2C0"/>
			<stop  offset="7.000000e-02" style="stop-color:#9BB9AF"/>
			<stop  offset="0.12" style="stop-color:#80A4A1"/>
			<stop  offset="0.16" style="stop-color:#6C9596"/>
			<stop  offset="0.21" style="stop-color:#5D8A8E"/>
			<stop  offset="0.27" style="stop-color:#558389"/>
			<stop  offset="0.37" style="stop-color:#528188"/>
			<stop  offset="1" style="stop-color:#DAD1C0"/>
		</linearGradient>
		<path class="st4" d="M208.7,250.5l-65.9,46.6c8.8,37.5,32.2,63.7,67.2,80.8l57.9-56.3L208.7,250.5z"/>
		<path class="st5" d="M160.9,284.3l-2.2,1.5c4.2,18.7,11.6,34.4,22.3,47.3c11.1,13.3,25.7,23.5,43.8,30.4l1.9-1.8
			C191.9,347.9,169.9,321.9,160.9,284.3z"/>
		<path class="st6" d="M161.5,340.1l29.5-28l-10.4-14.3l-31,21.8l-0.5-0.7l31.6-22.3l35.4-24.9l0.5,0.6l-0.3,0.2l-35.1,24.7
			l10.8,14.9l-30,28.4L161.5,340.1z M188.2,365.7l44.9-44.6l-14.3-15.4l13.1-10.9l0.5,0.6l-12.5,10.4l14.3,15.3l-0.3,0.3l-45.2,44.9
			L188.2,365.7z"/>
		<path class="st7" d="M161.9,340.5l30-28.4l-10.4-14.3L149.9,320l-0.5-0.6l67.4-47.4l0.4,0.6l-35.1,24.7l10.8,14.9l-30.5,28.9
			L161.9,340.5z M188.9,366l45.2-44.9l-14.4-15.4l12.8-10.7l0.5,0.6l-12.1,10.1l14.3,15.3l-0.3,0.3l-45.5,45.2L188.9,366z"/>
		<path class="st6" d="M267.9,321.7c-30.4-14.8-50.2-38.5-59.2-71.1l14.7,4.9l42.4,51L267.9,321.7z"/>
		<path class="st8" d="M154.8,280.8l10,4.6l0.7,1.7l-9.6-2.1L154.8,280.8z M160.7,301.6l9-1.1l-1.3-2.2l-9.3-0.6L160.7,301.6z
			 M167.5,317.6l8.8-2.8l-1.4-2.4l-9.8,1.1L167.5,317.6z M211.9,361.3l1.1-9.3l-1.9-1.6l-2.8,8.7L211.9,361.3z M197.6,351.9l2.9-9.5
			l-2.2-1.8l-4.4,8.1L197.6,351.9z M184.6,327.1l-8.2,5.2l3.5,4.2l6.6-7.1L184.6,327.1z M226.5,367.1l-2.6-10.6l-1.6-1l0.3,9.8
			L226.5,367.1z"/>
		<polygon class="st8" points="183.3,259.3 201.6,263.8 201.4,270.3 182.6,263.6 		"/>
		<path class="st8" d="M178,336.3c-12.9-15.5-21.1-35.3-24.5-59.4l2-1.9c7.4,47.7,33.4,79,77.4,93.1l-2.1,1.6
			C208.6,363,191,351.8,178,336.3z"/>
		
			<linearGradient id="SVGID_3_" gradientUnits="userSpaceOnUse" x1="308.5585" y1="748.3505" x2="380.1255" y2="748.3505" gradientTransform="matrix(0.6394 0.7688 0.7688 -0.6394 -527.4969 475.1134)">
			<stop  offset="0" style="stop-color:#E2F0D5"/>
			<stop  offset="0" style="stop-color:#E1EFD4"/>
			<stop  offset="4.000000e-02" style="stop-color:#BBD2C0"/>
			<stop  offset="7.000000e-02" style="stop-color:#9BB9AF"/>
			<stop  offset="0.12" style="stop-color:#80A4A1"/>
			<stop  offset="0.16" style="stop-color:#6C9596"/>
			<stop  offset="0.21" style="stop-color:#5D8A8E"/>
			<stop  offset="0.27" style="stop-color:#558389"/>
			<stop  offset="0.37" style="stop-color:#528188"/>
			<stop  offset="1" style="stop-color:#DAD1C0"/>
		</linearGradient>
		<path class="st9" d="M265.8,306.4c-22.3-9.9-36-27.2-42.4-51l51.3-46.1l45.8,55L265.8,306.4z"/>
		<path class="st6" d="M259.5,229.2c-0.2-2.1-0.2-4.2-0.1-6.3h0.4c0.1,1.9,0.3,3.7,0.5,5.6l13.7-13.7l2.1,2.3l-15.6,13.1
			c0.3,1.9,0.6,3.7,1.1,5.6l13.7-13.3l2.1,2.4L262,237.5c0.4,1.3,0.8,2.5,1.2,3.7c0.2,0.5,0.4,1,0.6,1.6l13.8-13.2l2.1,2.4
			l-15.3,12.3c0.8,1.7,1.6,3.4,2.6,5l14-13.1l2.1,2.4l-15.3,12c1,1.6,2.2,3.2,3.4,4.6l14.4-13.1l2,2.4l-15.4,11.8
			c0.2,0.2,0.4,0.4,0.6,0.7c1.1,1.3,2.3,2.5,3.6,3.6l14.7-13.1l2,2.5l-15.6,11.7c1.6,1.4,3.3,2.7,5,3.9l15-13.1l2,2.5l-15.6,11.5
			c1.1,0.8,2.3,1.5,3.5,2.2c0.8,0.5,1.6,0.9,2.3,1.3l15.4-13.1l1.9,2.5l-15.9,11.4c2.2,1.2,4.5,2.2,6.8,3.2l-0.1-0.1l15.7-13
			l1.9,2.5l-16.1,11.2c1.7,0.7,3.4,1.4,5.1,2.1l-0.1,0.3c-6.1-1.8-12-4.2-17.5-7.2c-5.6-3-10.7-7-15-11.6
			c-4.4-4.7-7.7-10.3-9.8-16.4C260.6,237.7,259.8,233.5,259.5,229.2L259.5,229.2L259.5,229.2z M261.1,289.5
			c-4.9-3.2-9.4-7.1-13.3-11.4c-3.9-4.3-7.2-9.3-9.5-14.7c-2.3-5.4-3.9-11.1-4.6-17h-0.4l0.4,4.5l0.7,4.4l1.1,4.4
			c0.5,1.4,0.9,2.9,1.5,4.3c2.3,5.6,5.5,10.7,9.6,15.2c4.1,4.4,8.7,8.3,13.8,11.4c5.1,3.1,10.5,5.8,16.1,7.8l0.1-0.3
			C271.2,295.6,266,292.7,261.1,289.5z M273.3,279.7c-5-3.3-9.5-7.2-13.5-11.7c-4-4.4-7.3-9.4-9.7-14.9c-2.4-5.5-4-11.3-4.8-17.3
			h-0.4l0.4,4.5l0.8,4.5l1.2,4.4c0.5,1.4,1,2.9,1.6,4.3c2.4,5.7,5.7,10.9,9.8,15.4c4.1,4.5,8.8,8.4,14,11.7
			c5.2,3.2,10.6,5.9,16.3,8.1l0.1-0.3C283.6,286,278.4,283,273.3,279.7z"/>
		<path class="st7" d="M259.8,229c-0.2-2.1-0.2-4.2-0.1-6.3h0.4c0.1,1.9,0.3,3.7,0.5,5.6l13.5-13.6l2.1,2.3l-15.4,13
			c0.3,1.9,0.7,3.7,1.1,5.6l13.5-13.2l2.1,2.4l-15.2,12.5c0.4,1.3,0.8,2.5,1.2,3.7c0.2,0.5,0.4,1,0.6,1.6l13.7-13.1l2.1,2.4
			L264.8,244c0.8,1.7,1.6,3.4,2.6,5l13.9-13l2.1,2.4l-15.2,11.9c1,1.6,2.2,3.2,3.4,4.6l14.3-13l2,2.4l-15.3,11.7
			c0.2,0.2,0.4,0.5,0.6,0.7c1.1,1.3,2.3,2.5,3.6,3.6l14.6-13l2,2.5l-15.4,11.6c1.6,1.4,3.3,2.7,5,3.9l14.9-13l2,2.5l-15.6,11.4
			c1.1,0.8,2.3,1.5,3.5,2.2c0.8,0.5,1.5,0.9,2.3,1.3l15.2-13l2,2.5l-15.8,11.3c2.2,1.2,4.5,2.2,6.7,3.2l-0.1-0.1l15.5-12.9l1.9,2.5
			l-16,11.1c1.7,0.7,3.4,1.4,5.1,2.1l-0.1,0.3c-6.1-1.8-11.9-4.2-17.5-7.2c-5.6-3.1-10.7-7-15-11.6c-4.3-4.7-7.6-10.3-9.8-16.3
			C261,237.4,260.1,233.3,259.8,229L259.8,229L259.8,229z M261.6,289c-4.9-3.2-9.4-7.1-13.3-11.4c-3.9-4.3-7.2-9.3-9.5-14.6
			c-2.4-5.4-3.9-11.1-4.7-17h-0.4l0.4,4.5l0.8,4.4l1.1,4.3c0.5,1.4,1,2.8,1.5,4.2c2.3,5.6,5.6,10.7,9.6,15.2
			c4.1,4.4,8.7,8.3,13.8,11.4c5.1,3.1,10.4,5.8,16,7.9l0.1-0.3C271.6,295.1,266.5,292.3,261.6,289L261.6,289z M273.7,279.3
			c-5-3.3-9.5-7.2-13.5-11.7c-4-4.4-7.3-9.4-9.7-14.9c-2.4-5.5-4.1-11.3-4.9-17.2h-0.4l0.4,4.5l0.8,4.5l1.2,4.4
			c0.5,1.4,1,2.9,1.6,4.3c2.4,5.6,5.7,10.9,9.8,15.4c4.1,4.5,8.8,8.4,14,11.7c5.1,3.2,10.6,6,16.2,8.1l0.1-0.3
			C284,285.6,278.7,282.6,273.7,279.3L273.7,279.3z"/>
		
			<linearGradient id="SVGID_4_" gradientUnits="userSpaceOnUse" x1="271.7101" y1="950.3019" x2="322.3607" y2="890.6312" gradientTransform="matrix(0.6394 0.7688 0.7688 -0.6394 -527.4969 475.1134)">
			<stop  offset="0" style="stop-color:#004D5C"/>
			<stop  offset="1" style="stop-color:#4DA9A3"/>
		</linearGradient>
		<path class="st10" d="M338.1,134.8c0,0,33.4-69.5,53-44.1c20.6,26.7-9.9,67.8-9.9,67.8L338.1,134.8z"/>
		<path class="st11" d="M396.3,121.1c1.7-10.2,0.8-20.8-6.1-29.7c-0.1-0.2-0.3-0.4-0.5-0.6c-2.9-3.5-6.1-4.9-9.8-4.5
			c-15.2,1.9-33.5,34.8-39,45.5C366.6,115.1,384.2,117.1,396.3,121.1z"/>
		<path class="st7" d="M338.1,134.8c0,0,24.9-51.8,44.3-49.6c-19.7-6-46.2,49.2-46.2,49.2l43.1,23.7l0.3-0.5L338.1,134.8z"/>
		<path class="st3" d="M337.9,132.4c35,5.2,65.2,46.3,69.7,83.7l-16.9,11.4l-67.1-80.6L337.9,132.4z"/>
		
			<linearGradient id="SVGID_5_" gradientUnits="userSpaceOnUse" x1="300.7375" y1="877.6615" x2="388.8709" y2="877.6615" gradientTransform="matrix(0.6394 0.7688 0.7688 -0.6394 -527.4969 475.1134)">
			<stop  offset="0" style="stop-color:#22567D"/>
			<stop  offset="9.000000e-02" style="stop-color:#205C81"/>
			<stop  offset="0.21" style="stop-color:#1A6C8D"/>
			<stop  offset="0.35" style="stop-color:#1186A0"/>
			<stop  offset="0.5" style="stop-color:#04ABBB"/>
			<stop  offset="0.54" style="stop-color:#00B8C4"/>
			<stop  offset="0.63" style="stop-color:#15C2C4"/>
			<stop  offset="0.82" style="stop-color:#4CDDC6"/>
			<stop  offset="1" style="stop-color:#83F7C7"/>
		</linearGradient>
		<path class="st12" d="M340.1,144.7c27.3,8.3,50,38.2,56.8,67.4c0,0-16.4,1-37.8-25C337.6,161.1,340.1,144.7,340.1,144.7z"/>
		
			<linearGradient id="SVGID_6_" gradientUnits="userSpaceOnUse" x1="299.1462" y1="817.782" x2="389.6041" y2="817.782" gradientTransform="matrix(0.6394 0.7688 0.7688 -0.6394 -527.4969 475.1134)">
			<stop  offset="0" style="stop-color:#E2F0D5"/>
			<stop  offset="0" style="stop-color:#E1EFD4"/>
			<stop  offset="4.000000e-02" style="stop-color:#BBD2C0"/>
			<stop  offset="7.000000e-02" style="stop-color:#9BB9AF"/>
			<stop  offset="0.12" style="stop-color:#80A4A1"/>
			<stop  offset="0.16" style="stop-color:#6C9596"/>
			<stop  offset="0.21" style="stop-color:#5D8A8E"/>
			<stop  offset="0.27" style="stop-color:#558389"/>
			<stop  offset="0.37" style="stop-color:#528188"/>
			<stop  offset="1" style="stop-color:#DAD1C0"/>
		</linearGradient>
		<path class="st13" d="M323.6,268.9c-30.8-10.2-48.4-31.3-52.8-63.5l55.9-51.7l57.9,69.5L323.6,268.9z"/>
		<path class="st6" d="M334.3,227.8l-0.5-0.6l14.9-11.7l0.2,0.2c4.9,3.9,10.1,7.3,15.6,10.2l10.1-7.9l0.5,0.6l-10.5,8.3l-0.2-0.1
			c-5.5-2.9-10.8-6.3-15.7-10.2L334.3,227.8z"/>
		<path class="st7" d="M334,227.5l-0.5-0.6l15.2-11.9l0.2,0.2c4.9,3.9,10.1,7.3,15.6,10.2l10.1-7.9l0.5,0.6l-10.5,8.3l-0.2-0.1
			c-5.5-2.9-10.8-6.3-15.7-10.2L334,227.5z"/>
		<g>
			
				<linearGradient id="SVGID_7_" gradientUnits="userSpaceOnUse" x1="382.7935" y1="817.8817" x2="357.6032" y2="814.3217" gradientTransform="matrix(0.6394 0.7688 0.7688 -0.6394 -527.5069 475.1134)">
				<stop  offset="0" style="stop-color:#FFF7CC"/>
				<stop  offset="1" style="stop-color:#FFF7CC"/>
			</linearGradient>
			<polygon class="st14" points="374.6,223.2 319.7,265 302.4,255.9 354.5,212.5 			"/>
		</g>
		<path class="st6" d="M300,225.3l-5.3-9.6l0.7-0.4l4.9,8.8l27.1-20.7c-6-9.2-11-18.9-15.1-29l-0.1-0.3l14.7-12.7l0.5,0.6
			l-14.3,12.3c4.1,10.1,9.1,19.8,15.1,28.9l0.2,0.3L300,225.3z"/>
		<path class="st7" d="M300.2,224.5l-5.2-9.3l0.7-0.4l4.7,8.5l27-20.6c-6.1-9-11.1-18.8-14.9-29l-0.1-0.2l14.3-12.7l0.5,0.6
			l-13.9,12.4c3.8,10.2,8.8,19.9,14.9,28.9l0.2,0.3L300.2,224.5z"/>
		
			<linearGradient id="SVGID_8_" gradientUnits="userSpaceOnUse" x1="289.9122" y1="867.3926" x2="398.8396" y2="867.3926" gradientTransform="matrix(0.6394 0.7688 0.7688 -0.6394 -527.4969 475.1134)">
			<stop  offset="0" style="stop-color:#131F49"/>
			<stop  offset="0.62" style="stop-color:#22567D"/>
		</linearGradient>
		<path class="st15" d="M390.7,227.6c-37.5-16.2-60.1-42.9-67.1-80.6l14.3-14.5c5.3,42.6,29,70.2,69.7,83.7L390.7,227.6z"/>
		<path class="st16" d="M337.9,132.4c35,5.2,65.2,46.3,69.7,83.7C366.9,202.6,343.3,175,337.9,132.4z M360.5,183.9
			c10.9,13.1,26.1,23.2,45.2,29.9c-2.7-18.2-11.3-37.1-24-52.2c-12.3-14.8-27.2-24.4-41.9-27.3C342.6,154.1,349.5,170.7,360.5,183.9
			L360.5,183.9z"/>
		<polygon class="st17" points="331.4,228 329,223 307.2,243.2 309.7,247.7 		"/>
		<polygon class="st16" points="341.8,238.4 331.4,228 329,223 338.9,231.8 		"/>
		<polygon class="st6" points="278.5,208.8 282.9,219.1 300.6,204.4 294.8,194.3 		"/>
		<polygon class="st18" points="300.6,204.4 305.2,207.7 286.3,221.9 282.9,219.1 		"/>
		<polygon class="st16" points="294.8,194.3 300.6,204.4 305.2,207.7 299.8,197.7 		"/>
		<path class="st19" d="M391.9,205.5c-6.2-2.5-12.2-5.6-17.7-9.4c4.6,1.3,9.4,1.1,13.9-0.6C390.1,198.6,391.4,202,391.9,205.5z"/>
		<polygon class="st6" points="317.8,254.7 309.7,247.7 331.4,228 341.8,238.4 		"/>
		<path class="st5" d="M222.9,259.2l-10.3-2.1c2.7,9.1,7.4,18.3,13.2,27.5l7.7-2.4C228.4,274,224.4,266.2,222.9,259.2z"/>
		<g>
			
				<linearGradient id="SVGID_9_" gradientUnits="userSpaceOnUse" x1="387.6217" y1="716.5933" x2="351.4913" y2="699.9831" gradientTransform="matrix(0.6394 0.7688 0.7688 -0.6394 -527.4969 475.1134)">
				<stop  offset="0" style="stop-color:#FFF7CC"/>
				<stop  offset="1" style="stop-color:#FFF7CC"/>
			</linearGradient>
			<path class="st20" d="M264,307l0.9,11.2c-7.7-3.9-15-8.6-21.7-14.1l5.9-6.2C253.6,301.6,258.6,304.7,264,307z"/>
		</g>
		<polygon class="st0" points="205.7,152.8 165.3,372.3 94,338.7 153.8,118.8 		"/>
		
			<linearGradient id="SVGID_10_" gradientUnits="userSpaceOnUse" x1="166.968" y1="761.3494" x2="322.0298" y2="600.4775" gradientTransform="matrix(0.6394 0.7688 0.7688 -0.6394 -527.4969 475.1134)">
			<stop  offset="0" style="stop-color:#131F49"/>
			<stop  offset="0.8" style="stop-color:#14466A"/>
			<stop  offset="1" style="stop-color:#006099"/>
		</linearGradient>
		<path class="st21" d="M202.5,163.1c0.6-3,0.8-4.5,1.4-7.5l-1.1-2.1l-8.3-5.7l-1.7,0.3c-0.7,3.1-1,4.7-1.7,7.8
			c0.5,0.9,0.7,1.4,1.2,2.2c3.5,2.3,5.2,3.3,8.5,5.4L202.5,163.1z M190.3,155.3c0.7-3.1,1-4.7,1.7-7.8l-1.2-2.3l-8.9-6.1l-1.8,0.3
			c-0.8,3.2-1.2,4.8-1.9,8.1c0.5,0.9,0.7,1.4,1.2,2.3l9.1,5.8L190.3,155.3z M162.1,138.9c-3.8-2.3-5.6-3.5-9.3-5.8
			c-0.4-0.9-0.7-1.4-1.1-2.3l2.4-8.7l1.9-0.5c3.6,2.4,5.4,3.6,9.1,6c0.4,0.9,0.7,1.5,1.1,2.4l-2.2,8.4L162.1,138.9z M177.3,147
			c0.8-3.2,1.2-4.8,1.9-8.1c-0.5-0.9-0.7-1.4-1.2-2.4c-3.7-2.5-5.5-3.8-9.2-6.2l-1.9,0.4l-2.1,8.4c0.5,0.9,0.7,1.4,1.2,2.3
			c3.8,2.4,5.6,3.6,9.4,5.9L177.3,147z M200.5,174c0.6-3.1,0.8-4.6,1.4-7.6l-1.1-2.1l-8.6-5.4l-1.7,0.4c-0.7,3.1-1,4.7-1.7,7.8
			l1.2,2.2c3.6,2.2,5.4,3.2,8.8,5.2L200.5,174z M187.9,166.5c0.7-3.2,1-4.7,1.7-7.8c-0.5-0.9-0.7-1.3-1.2-2.2l-9.2-5.8l-1.8,0.4
			l-1.9,8l1.3,2.3l9.4,5.6L187.9,166.5z M159.1,150.8c-3.8-2.3-5.7-3.4-9.5-5.5l-1.2-2.3c0.9-3.4,1.4-5.1,2.3-8.5l1.9-0.5
			c3.7,2.2,5.5,3.4,9.3,5.7l1.2,2.3c-0.9,3.3-1.3,5-2.1,8.3L159.1,150.8z M174.6,158.5c0.8-3.2,1.1-4.8,1.9-8.1
			c-0.5-0.9-0.7-1.4-1.2-2.3c-3.7-2.4-5.6-3.6-9.4-5.9l-1.9,0.4c-0.9,3.3-1.3,5-2.1,8.3l1.2,2.3c3.8,2.3,5.8,3.4,9.6,5.7
			L174.6,158.5z M198.5,185.1c0.6-3.2,0.9-4.7,1.4-7.8c-0.5-0.8-0.7-1.3-1.2-2.1c-3.4-2-5.2-3.1-8.8-5.2l-1.8,0.4
			c-0.7,3.2-1,4.8-1.7,7.9c0.5,0.9,0.8,1.3,1.3,2.2c3.7,2.1,5.5,3.1,9.1,5.1L198.5,185.1z M185.5,177.9c0.7-3.2,1-4.8,1.7-8
			l-1.3-2.2l-9.4-5.6l-1.9,0.4c-0.8,3.2-1.1,4.8-1.9,8.1l1.3,2.2l9.6,5.4L185.5,177.9z M156,162.6c-3.9-2.2-5.8-3.3-9.7-5.4
			c-0.5-0.9-0.7-1.4-1.2-2.2c0.9-3.4,1.4-5,2.3-8.4l1.9-0.5c3.8,2.2,5.7,3.3,9.5,5.5l1.2,2.3l-2.1,8.3L156,162.6z M171.9,170.1
			c0.8-3.3,1.1-4.9,1.9-8.1l-1.3-2.3c-3.8-2.3-5.8-3.4-9.6-5.7l-1.9,0.4c-0.8,3.3-1.3,5-2.1,8.3l1.3,2.3l9.8,5.5L171.9,170.1z
			 M196.3,196.6c0.6-3.3,0.9-4.9,1.5-8.1l-1.2-2.1c-3.6-2-5.4-3-9.1-5.1l-1.8,0.5l-1.8,8.1c0.5,0.9,0.8,1.4,1.3,2.2
			c3.8,2.1,5.7,3.1,9.3,5L196.3,196.6z M183.1,189.4c0.7-3.3,1-4.9,1.7-8.1c-0.5-0.9-0.8-1.3-1.3-2.2l-9.6-5.4l-1.9,0.4
			c-0.8,3.3-1.1,4.9-1.9,8.2l1.3,2.2l9.8,5.3L183.1,189.4z M152.9,174.6c-4-2.2-6-3.2-9.9-5.3l-1.2-2.2c0.9-3.4,1.4-5.1,2.3-8.4
			l1.9-0.5c3.8,2.1,5.8,3.2,9.7,5.4l1.3,2.3l-2.2,8.3L152.9,174.6z M169.1,181.8c0.8-3.3,1.2-5,1.9-8.2l-1.3-2.2l-9.8-5.5l-2,0.5
			l-2,8.3c0.5,0.9,0.8,1.4,1.3,2.3l10,5.4L169.1,181.8z M194.1,208.5c0.6-3.4,0.9-5.1,1.5-8.4c-0.5-0.8-0.8-1.3-1.2-2.1
			c-3.7-2-5.5-3-9.4-5l-1.9,0.5c-0.7,3.3-1,5-1.8,8.4l1.3,2.2c3.9,2.1,5.8,3.1,9.6,5L194.1,208.5z M180.5,201.4
			c0.7-3.4,1.1-5.1,1.8-8.4l-1.3-2.2l-9.8-5.3l-2,0.5c-0.8,3.3-1.2,5-2,8.4l1.3,2.3l10,5.3L180.5,201.4z M149.9,186.7
			c-4-2.1-6.1-3.2-10-5.2l-1.2-2.3c0.9-3.4,1.4-5.1,2.3-8.5l2-0.5c3.9,2.1,5.9,3.1,9.9,5.3l1.2,2.3c-0.9,3.4-1.3,5-2.1,8.5
			L149.9,186.7z M166.4,193.8c0.8-3.4,1.2-5.1,2-8.4c-0.5-0.9-0.8-1.4-1.3-2.3c-4-2.2-6-3.3-10-5.4l-2,0.5c-0.8,3.4-1.3,5.1-2.1,8.5
			l1.3,2.3l10.1,5.4L166.4,193.8z M191.9,221l1.6-8.7c-0.5-0.9-0.8-1.4-1.3-2.2c-3.8-2-5.7-3-9.6-5l-1.9,0.6l-1.8,8.7l1.3,2.3
			c4,2.1,6,3.1,9.8,5L191.9,221z M177.9,213.7c0.7-3.5,1.1-5.3,1.8-8.7c-0.5-0.9-0.8-1.4-1.3-2.3l-10-5.3l-2,0.5
			c-0.8,3.4-1.2,5.2-2,8.7c0.5,0.9,0.8,1.4,1.4,2.3l10.2,5.3L177.9,213.7z M146.8,199.1c-4.1-2.1-6.1-3.2-10.2-5.3l-1.3-2.3
			c0.9-3.5,1.4-5.2,2.3-8.7l2-0.6c4,2.1,6,3.1,10,5.3l1.3,2.3c-0.9,3.4-1.3,5.2-2.2,8.7L146.8,199.1z M163.4,206.2
			c0.8-3.5,1.2-5.3,2-8.7c-0.5-0.9-0.8-1.4-1.3-2.3c-4.1-2.2-6.1-3.2-10.1-5.4l-2,0.5c-0.9,3.4-1.3,5.2-2.2,8.7
			c0.5,0.9,0.8,1.4,1.3,2.3l10.3,5.4L163.4,206.2z M189.4,233.9c0.7-3.7,1-5.5,1.7-9.1c-0.5-0.9-0.8-1.4-1.3-2.3l-9.8-5.1l-2,0.6
			c-0.7,3.6-1.1,5.4-1.9,9.1l1.4,2.4c4.1,2.1,6.1,3.1,10,5.1L189.4,233.9z M175.2,226.6c0.8-3.7,1.2-5.5,1.9-9.1l-1.3-2.3
			c-4-2.1-6.1-3.2-10.2-5.3l-2,0.6c-0.8,3.6-1.2,5.4-2.1,9l1.4,2.4l10.4,5.3L175.2,226.6z M143.5,212c-4.2-2.1-6.2-3.2-10.3-5.3
			c-0.5-0.9-0.8-1.4-1.3-2.4c1-3.6,1.5-5.4,2.4-9l2-0.6c4,2.1,6.1,3.1,10.2,5.3l1.3,2.3c-0.9,3.6-1.3,5.4-2.3,9L143.5,212z
			 M160.5,219c0.9-3.7,1.3-5.5,2.1-9l-1.4-2.3l-10.3-5.4l-2.1,0.6c-0.9,3.6-1.3,5.4-2.2,9c0.5,0.9,0.8,1.5,1.3,2.4l10.5,5.4
			L160.5,219z M186.9,247.6c0.7-3.9,1.1-5.8,1.8-9.6l-1.3-2.4l-10.1-5.1l-2,0.7c-0.8,3.7-1.2,5.6-2,9.5c0.5,1,0.8,1.5,1.4,2.5
			l10.3,5.2L186.9,247.6z M172.3,240.1c0.8-3.9,1.2-5.8,2-9.5l-1.4-2.4l-10.4-5.3l-2.1,0.6l-2.2,9.5c0.5,1,0.8,1.5,1.4,2.5l10.6,5.4
			L172.3,240.1z M140.1,225.3l-10.5-5.4l-1.3-2.4l2.5-9.3l2.1-0.6l10.3,5.3l1.3,2.4c-0.9,3.7-1.4,5.6-2.3,9.4L140.1,225.3z
			 M157.4,232.4c0.9-3.8,1.3-5.7,2.2-9.4l-1.4-2.4l-10.5-5.4l-2.1,0.6c-0.9,3.7-1.4,5.6-2.3,9.4c0.5,1,0.8,1.5,1.3,2.5l10.6,5.5
			L157.4,232.4z M184.4,261.9l1.9-10.1l-1.4-2.5l-10.3-5.2l-2,0.7l-2.1,10l1.4,2.6c4.2,2.2,6.4,3.2,10.5,5.3L184.4,261.9z
			 M169.4,254.3c0.9-4.1,1.3-6.1,2.1-10c-0.5-1-0.9-1.5-1.4-2.5c-4.2-2.1-6.3-3.2-10.6-5.4l-2.1,0.7c-0.9,3.9-1.4,5.9-2.3,9.9
			l1.4,2.6l10.7,5.5L169.4,254.3z M136.7,239.4l-10.7-5.5l-1.3-2.5c1.1-4,1.6-5.9,2.6-9.8l2.1-0.7l10.5,5.4l1.3,2.5
			c-1,3.9-1.5,5.8-2.5,9.9L136.7,239.4z M154.2,246.5l2.3-9.9l-1.4-2.5l-10.6-5.5l-2.1,0.7c-1,3.9-1.5,5.8-2.4,9.9l1.4,2.6l10.7,5.5
			L154.2,246.5z M181.6,277.1c0.8-4.4,1.2-6.5,2-10.7c-0.5-1-0.9-1.6-1.4-2.6l-10.5-5.4l-2.1,0.8c-0.9,4.2-1.3,6.3-2.2,10.6l1.4,2.7
			l10.8,5.5L181.6,277.1z M166.3,269.4c0.9-4.3,1.4-6.4,2.2-10.6l-1.4-2.6c-4.3-2.2-6.4-3.3-10.8-5.5l-2.2,0.8l-2.4,10.5
			c0.6,1,0.9,1.6,1.4,2.7l10.9,5.6L166.3,269.4z M132.9,254.2c-4.4-2.2-6.5-3.4-10.8-5.6l-1.3-2.6c1.1-4.2,1.7-6.3,2.8-10.3l2.2-0.8
			l10.7,5.5l1.4,2.6c-1,4.1-1.5,6.2-2.6,10.4L132.9,254.2z M150.7,261.4c1-4.3,1.5-6.4,2.4-10.5l-1.4-2.6l-10.8-5.5l-2.2,0.8
			c-1,4.1-1.5,6.2-2.6,10.4l1.4,2.7l11,5.6L150.7,261.4z M178.6,293.2c0.9-4.6,1.3-6.9,2.1-11.4l-1.4-2.7l-10.8-5.5l-2.2,0.9
			c-0.9,4.4-1.4,6.6-2.3,11.2c0.6,1.1,0.9,1.7,1.4,2.8l11,5.6L178.6,293.2z M163,285.2c1-4.6,1.4-6.8,2.3-11.2l-1.4-2.7l-11-5.6
			l-2.2,0.9c-1,4.4-1.5,6.6-2.5,11.1l1.4,2.8l11.2,5.7L163,285.2z M129,269.9l-11-5.7l-1.3-2.8c1.2-4.5,1.8-6.7,2.9-10.9l2.2-0.8
			l10.8,5.6c0.5,1,0.8,1.6,1.4,2.7c-1.1,4.3-1.6,6.5-2.7,11L129,269.9z M147.1,277.1c1.1-4.5,1.6-6.8,2.6-11.1
			c-0.6-1.1-0.9-1.7-1.4-2.7l-11-5.6l-2.2,0.8c-1.1,4.3-1.6,6.5-2.7,11l1.4,2.8l11.2,5.7L147.1,277.1z M175.5,310.3
			c0.9-4.9,1.4-7.3,2.2-12l-1.4-2.8l-11-5.6l-2.2,1c-1,4.7-1.5,7.1-2.5,11.9c0.6,1.2,0.9,1.8,1.5,3l11.3,5.7L175.5,310.3z
			 M159.5,302.1c1-4.9,1.5-7.3,2.5-11.9c-0.6-1.1-0.9-1.7-1.4-2.8l-11.3-5.7l-2.3,1c-1.1,4.6-1.6,7-2.7,11.8
			c0.6,1.1,0.9,1.8,1.4,2.9l11.4,5.8L159.5,302.1z M124.7,286.7l-11.2-5.8c-0.5-1.1-0.8-1.8-1.3-2.9c1.3-4.8,1.9-7.1,3.1-11.7
			l2.3-0.9c4.4,2.3,6.6,3.4,11,5.7l1.4,2.8c-1.2,4.6-1.7,6.9-2.9,11.8L124.7,286.7z M143.2,293.9l2.7-11.8c-0.6-1.1-0.9-1.7-1.4-2.8
			l-11.2-5.7l-2.3,0.9l-2.9,11.8l1.4,2.9l11.4,5.8L143.2,293.9z M172.1,328.4l2.4-12.8c-0.6-1.2-0.9-1.8-1.5-3l-11.3-5.7l-2.3,1.1
			c-1,5-1.6,7.5-2.6,12.7l1.5,3.1l11.6,5.8L172.1,328.4z M155.7,320.1c1.1-5.2,1.6-7.7,2.7-12.7c-0.6-1.2-0.9-1.8-1.5-3l-11.4-5.7
			l-2.3,1.1c-1.1,4.9-1.7,7.5-2.9,12.6l1.4,3.1l11.6,5.9L155.7,320.1z M120.2,304.6c-4.6-2.4-6.9-3.5-11.5-5.9
			c-0.5-1.2-0.8-1.9-1.3-3.1c1.4-5.1,2-7.6,3.3-12.5l2.4-1c4.5,2.3,6.7,3.5,11.2,5.8l1.4,3l-3.1,12.6L120.2,304.6z M139.1,311.8
			c1.2-5.2,1.8-7.7,2.9-12.6c-0.6-1.2-0.9-1.8-1.4-3l-11.4-5.8l-2.4,1.1c-1.2,4.9-1.8,7.4-3.1,12.6l1.4,3.1l11.6,5.9L139.1,311.8z
			 M168.6,347.7c1-5.6,1.5-8.3,2.5-13.6c-0.6-1.2-0.9-1.9-1.5-3.1l-11.7-5.9l-2.4,1.2c-1.1,5.3-1.7,8-2.8,13.5
			c0.6,1.3,0.9,2,1.5,3.2l11.9,5.9L168.6,347.7z M151.7,339.3l2.8-13.5l-1.5-3.1l-11.7-5.9l-2.4,1.2l-3,13.5l1.4,3.2l11.9,5.9
			L151.7,339.3z M115.4,323.8c-4.7-2.4-7-3.5-11.7-5.9c-0.5-1.3-0.8-2-1.3-3.2c1.5-5.5,2.2-8.2,3.6-13.4l2.4-1.2
			c4.6,2.3,6.9,3.5,11.5,5.9l1.4,3.1c-1.3,5.2-2,7.9-3.3,13.4L115.4,323.8z M134.8,330.9c1.3-5.5,1.9-8.2,3.1-13.5l-1.4-3.1
			l-11.6-5.9l-2.4,1.2c-1.3,5.2-2,7.9-3.3,13.4c0.5,1.3,0.8,2,1.4,3.2l11.9,5.9L134.8,330.9z M164.8,368.2c1.1-5.9,1.6-8.8,2.7-14.5
			c-0.6-1.3-0.9-2-1.5-3.3l-11.9-5.9l-2.4,1.3c-1.2,5.6-1.8,8.5-3,14.4l1.5,3.4c4.9,2.4,7.4,3.6,12.3,6L164.8,368.2z M147.4,359.7
			c1.2-5.9,1.8-8.8,3-14.4c-0.6-1.3-0.9-2-1.5-3.3l-11.9-5.9l-2.5,1.3c-1.3,5.6-1.9,8.5-3.3,14.4c0.6,1.3,0.9,2.1,1.4,3.4l12.3,5.9
			L147.4,359.7z M110.3,344.3c-4.8-2.4-7.2-3.6-12-5.9c-0.5-1.3-0.8-2.1-1.3-3.4l3.9-14.4l2.5-1.3c4.7,2.4,7,3.6,11.7,5.9l1.4,3.3
			l-3.6,14.4L110.3,344.3z M130.1,351.3l3.3-14.4l-1.4-3.3c-4.8-2.4-7.1-3.5-11.9-5.9l-2.5,1.3c-1.4,5.6-2.1,8.5-3.6,14.4
			c0.5,1.3,0.8,2.1,1.4,3.4l12.1,5.9L130.1,351.3z"/>
		<polygon class="st2" points="153.8,118.8 150.4,121.6 88.3,341 161,372.8 165.3,372.3 94,338.7 		"/>
	</g>
</g>
</svg>
