<?xml version="1.0" encoding="utf-8"?>
<!-- Generator: Adobe Illustrator 24.3.0, SVG Export Plug-In . SVG Version: 6.00 Build 0)  -->
<svg version="1.1" id="Layer_1" xmlns="http://www.w3.org/2000/svg" xmlns:xlink="http://www.w3.org/1999/xlink" x="0px" y="0px"
	 viewBox="0 0 500 500" style="enable-background:new 0 0 500 500;" xml:space="preserve">
<style type="text/css">
	.st0{enable-background:new    ;}
	.st1{fill:#CDDCFB;}
	.st2{fill:#D8DFE9;}
	.st3{fill:#E8EEF4;}
	.st4{clip-path:url(#SVGID_2_);enable-background:new    ;}
	.st5{fill:#C1C8DC;}
	.st6{fill:#C0C7CE;}
	.st7{fill:#D5D5D5;}
	.st8{clip-path:url(#SVGID_4_);enable-background:new    ;}
	.st9{fill:#A4A9C2;}
	.st10{fill:#9A9FBA;}
	.st11{fill:#D0D8E4;}
	.st12{fill:#FFFFFF;}
	.st13{fill:#1A3E6E;}
	.st14{fill-rule:evenodd;clip-rule:evenodd;fill:#A4A9C2;}
	.st15{fill-rule:evenodd;clip-rule:evenodd;fill:#D8DFE9;}
	.st16{fill-rule:evenodd;clip-rule:evenodd;fill:#333333;}
	.st17{fill:#3F5F94;}
	.st18{fill:#F1F1F1;}
	.st19{fill:#C1C1C7;}
	.st20{fill:#E6E6E6;}
</style>
<g id="observatory">
	<g>
		<g class="st0">
			<g>
				<polygon class="st1" points="265.77,308.14 265.54,312.3 189.02,356.77 189.26,352.61 				"/>
			</g>
			<g>
				<polygon class="st2" points="189.26,352.61 189.02,356.77 89.81,299.49 90.05,295.33 				"/>
			</g>
			<g>
				<polygon class="st3" points="265.77,308.14 189.26,352.61 90.05,295.33 166.57,250.86 				"/>
			</g>
		</g>
	</g>
	<g>
		<g class="st0">
			<g class="st0">
				<defs>
					<path id="SVGID_1_" class="st0" d="M409.21,346.37l-0.4,11.2c-0.05,17.23-11.37,34.43-33.99,47.58
						c-45.53,26.46-119.6,26.46-165.43,0c-23.06-13.32-34.58-30.8-34.53-48.25l0.4-11.2c-0.05,17.45,11.47,34.93,34.53,48.25
						c45.83,26.46,119.9,26.46,165.43,0C397.83,380.81,409.16,363.6,409.21,346.37z"/>
				</defs>
				<use xlink:href="#SVGID_1_"  style="overflow:visible;fill:#C1C8DC;"/>
				<clipPath id="SVGID_2_">
					<use xlink:href="#SVGID_1_"  style="overflow:visible;"/>
				</clipPath>
				<g class="st4">
					<path class="st5" d="M409.21,346.37l-0.4,11.2c-0.01,2.58-0.27,5.17-0.78,7.74l0.4-11.2
						C408.94,351.54,409.2,348.96,409.21,346.37L409.21,346.37z"/>
					<path class="st5" d="M408.42,354.11l-0.4,11.2c-2.84,14.2-13.43,27.96-31.78,39l0.4-11.2
						C394.99,382.07,405.58,368.31,408.42,354.11L408.42,354.11z"/>
					<path class="st5" d="M376.64,393.11l-0.4,11.2c-0.47,0.28-0.95,0.56-1.43,0.84c-7.8,4.53-16.44,8.29-25.63,11.27l0.4-11.2
						c9.19-2.98,17.83-6.74,25.63-11.27C375.69,393.67,376.17,393.39,376.64,393.11L376.64,393.11z"/>
					<path class="st5" d="M349.58,405.22l-0.4,11.2c-22.59,7.32-48.52,9.96-73.54,7.9l0.4-11.2
						C301.06,415.18,326.99,412.55,349.58,405.22L349.58,405.22z"/>
					<path class="st5" d="M276.04,413.12l-0.4,11.2c-24.21-1.99-47.58-8.38-66.25-19.17c-23.06-13.32-34.58-30.8-34.53-48.25
						l0.4-11.2c-0.05,17.45,11.47,34.93,34.53,48.25C228.46,404.73,251.82,411.12,276.04,413.12L276.04,413.12z"/>
				</g>
			</g>
			<g>
				<path class="st3" d="M374.68,298.13c45.83,26.46,46.07,69.36,0.54,95.82c-45.53,26.46-119.6,26.46-165.43,0
					c-45.83-26.46-46.07-69.36-0.54-95.82C254.78,271.67,328.84,271.67,374.68,298.13z"/>
			</g>
		</g>
	</g>
	<g>
		<g class="st0">
			<g>
				<polygon class="st1" points="261.94,227.23 261.72,306.09 190.31,347.59 190.53,268.73 				"/>
			</g>
			<g>
				<polygon class="st6" points="190.53,268.73 190.31,347.59 97.73,294.14 97.95,215.28 				"/>
			</g>
			<g>
				<polygon class="st7" points="261.94,227.23 190.53,268.73 97.95,215.28 169.36,173.78 				"/>
			</g>
		</g>
	</g>
	<g>
		<g class="st0">
			<g>
				<polygon class="st1" points="247.56,197.95 247.37,221.13 188.47,255.35 188.66,232.18 				"/>
			</g>
			<g>
				<polygon class="st6" points="188.66,232.18 188.47,255.35 112.11,211.27 112.3,188.09 				"/>
			</g>
			<g>
				<polygon class="st7" points="247.56,197.95 188.66,232.18 112.3,188.09 171.19,153.87 				"/>
			</g>
		</g>
	</g>
	<g>
		<g class="st0">
			<g class="st0">
				<defs>
					<path id="SVGID_3_" class="st0" d="M401.52,212.36l-0.37,130.53c-0.05,16.1-10.63,32.17-31.76,44.46
						c-42.55,24.73-111.75,24.73-154.57,0c-21.55-12.44-32.31-28.77-32.27-45.08l0.37-130.53c-0.05,16.31,10.72,32.64,32.27,45.08
						c42.82,24.72,112.03,24.72,154.57,0C390.89,244.53,401.47,228.45,401.52,212.36z"/>
				</defs>
				<use xlink:href="#SVGID_3_"  style="overflow:visible;fill:#C1C8DC;"/>
				<clipPath id="SVGID_4_">
					<use xlink:href="#SVGID_3_"  style="overflow:visible;"/>
				</clipPath>
				<g class="st8">
					<path class="st5" d="M401.52,212.36l-0.37,130.53c-0.01,2.42-0.25,4.83-0.73,7.23l0.37-130.53
						C401.27,217.19,401.51,214.77,401.52,212.36L401.52,212.36z"/>
					<path class="st9" d="M400.79,219.59l-0.37,130.53c-2.66,13.27-12.55,26.13-29.7,36.44l0.37-130.53
						C388.23,245.71,398.13,232.85,400.79,219.59L400.79,219.59z"/>
					<path class="st9" d="M371.09,256.02l-0.37,130.53c-0.44,0.26-0.88,0.53-1.33,0.79c-7.29,4.24-15.36,7.75-23.95,10.53
						l0.37-130.53c8.59-2.78,16.66-6.3,23.95-10.53C370.2,256.55,370.65,256.29,371.09,256.02L371.09,256.02z"/>
					<path class="st9" d="M345.8,267.34l-0.37,130.53c-21.11,6.84-45.34,9.3-68.72,7.38l0.37-130.53
						C300.47,276.65,324.69,274.19,345.8,267.34L345.8,267.34z"/>
					<path class="st9" d="M277.09,274.72l-0.37,130.53c-22.62-1.86-44.45-7.83-61.9-17.91c-21.55-12.44-32.31-28.77-32.27-45.08
						l0.37-130.53c-0.05,16.31,10.72,32.64,32.27,45.08C232.63,266.89,254.46,272.86,277.09,274.72L277.09,274.72z"/>
				</g>
			</g>
			<g>
				<path class="st9" d="M369.25,167.28c42.82,24.72,43.05,64.81,0.5,89.54s-111.75,24.72-154.57,0
					c-42.83-24.73-43.05-64.81-0.51-89.54C257.22,142.55,326.43,142.55,369.25,167.28z"/>
			</g>
		</g>
	</g>
	<path class="st10" d="M369.75,256.31c-42.55,18.51-111.75,18.51-154.57,0c-21.55-9.31-32.31-21.54-32.27-33.75l-0.37,26.64
		c-0.05,12.21,10.72,24.43,32.27,33.75c22.11,9.56,51.25,17.73,80.13,17.42c27.05-0.29,53.87-8.47,74.44-17.42
		c21.14-9.19,31.72-21.23,31.76-33.28l0.37-26.64C401.47,235.09,390.89,247.12,369.75,256.31z"/>
	<g>
		<path class="st7" d="M410.11,194.09c0,0.72,0,1.57,0.01,2.52c0,0.94,0.01,2.19,0.01,3.12c0,1.12,0.01,2.31,0.01,3.53
			c0,1.22,0.01,2.48,0.01,3.74c0,1.26,0.01,2.52,0.01,3.75c0,1.23,0.01,2.43,0.01,3.57c0,1.14,0.01,2.21,0.01,3.19
			c0,0.78,0.01,1.83,0.01,2.61c0,0.55,0,1.29,0.01,1.84c0.05,19.1-12.25,37.33-36.75,51c-47.61,26.55-123.23,25.78-168.9-1.71
			c0-1.08-0.06-21.56-0.08-28.74c-0.15-53.78,38.32-118.9,85.92-145.44c-47.61,26.55-86.08,91.66-85.92,145.44
			c0.02,7.19,0.08,27.66,0.08,28.74c-22.17-13.34-33.21-30.53-33.26-47.72c0-1.34-0.01-1.96-0.01-2.71c0-0.75,0-1.63-0.01-2.61
			c0-0.98-0.01-2.05-0.01-3.19c0-1.14-0.01-2.34-0.01-3.57c0-1.23-0.01-2.49-0.01-3.75c0-1.26-0.01-2.52-0.01-3.74
			c0-1.22-0.01-2.41-0.01-3.53c0-1.12-0.01-2.17-0.01-3.12s-0.01-1.8-0.01-2.52c0.21-5.71,0.62-13.34,1.45-19
			c0.71-4.89,2.21-11.35,3.67-16.07c4.77-15.42,10.76-25.41,15.99-33.16c1.9-2.82,4.45-6.19,6.94-9.14
			c0.97-1.15,1.94-2.24,2.86-3.21c4.88-5.15,7.57-7.99,15.4-14.22c6.21-4.95,17.04-11.88,28.81-16.48
			c6.69-2.62,11.11-3.99,18.17-5.64c4.86-1.14,11.72-2.17,16.67-2.52c18.8-1.31,30.42,1.34,38.11,3.09
			c7.33,1.67,14.92,4.75,18.16,6.07c4.19,1.7,9.58,4.47,13.47,6.78c3.93,2.33,15.91,9.43,27.81,22.38
			c3.39,3.69,7.71,8.85,10.42,13.07c1.44,2.24,3.48,5.17,4.76,7.5c2.18,3.97,5.12,9.29,6.77,13.51c1,2.57,2.44,5.96,3.26,8.59
			c1.29,4.15,2.89,9.74,3.76,14C408.36,173.67,409.95,181.46,410.11,194.09L410.11,194.09z"/>
		<g>
			<g>
				<g>
					<path class="st11" d="M323.5,79.57l-4.88-1.28c-18.07-4.34-38.6-4.29-56.71,0.19l-3.12,0.82l-1.61,0.46
						C280.14,73.7,300.6,73.64,323.5,79.57L323.5,79.57z"/>
				</g>
				<g>
					<path class="st11" d="M277.39,105.4c-6.88-4.14-6.65-10.74,0.53-14.74c7.17-4,18.57-3.88,25.45,0.26
						c6.88,4.14,6.65,10.74-0.53,14.74C295.67,109.66,284.27,109.54,277.39,105.4c0.41-0.3,0.82-0.59,1.23-0.88
						c6.23,3.75,16.55,3.85,23.04,0.23c6.49-3.62,6.71-9.6,0.48-13.35c-6.23-3.75-16.55-3.85-23.04-0.23
						c-6.49,3.62-6.71,9.6-0.48,13.35C278.21,104.81,277.8,105.11,277.39,105.4L277.39,105.4z"/>
					<path class="st11" d="M249.05,132.05c-21.92-13.19-21.16-34.21,1.68-46.95c22.84-12.74,59.13-12.37,81.04,0.82
						c21.92,13.19,21.16,34.21-1.68,46.95C307.25,145.61,270.97,145.24,249.05,132.05c0.35-0.41,0.7-0.82,1.05-1.22
						c21.36,12.86,56.72,13.21,78.99,0.8c22.26-12.41,23-32.9,1.64-45.76c-21.36-12.86-56.72-13.21-78.99-0.8
						c-22.26,12.41-23,32.9-1.64,45.76C249.75,131.23,249.4,131.64,249.05,132.05L249.05,132.05z"/>
					<path class="st11" d="M262.66,117.68c-14.69-8.84-14.19-22.94,1.13-31.48c15.32-8.54,39.64-8.29,54.34,0.55
						s14.19,22.94-1.13,31.48C301.68,126.76,277.35,126.52,262.66,117.68c0.38-0.36,0.76-0.72,1.15-1.07
						c14.08,8.48,37.4,8.71,52.08,0.53s15.16-21.69,1.08-30.17c-14.08-8.48-37.4-8.71-52.08-0.53
						c-14.68,8.19-15.16,21.69-1.08,30.17C263.42,116.96,263.04,117.32,262.66,117.68L262.66,117.68z"/>
					<g>
						<path class="st11" d="M323.5,79.57c52.2,16.44,52.01,52.93,15.24,71.27c-29.99,14.96-73.81,13.79-101.94-2.73
							c0.31-0.45,0.62-0.9,0.93-1.34c27.93,16.81,74.16,17.28,103.27,1.04c29.11-16.23,30.07-43.01,2.14-59.82
							c-7.17-4.31-15.54-7.55-24.52-9.71L323.5,79.57L323.5,79.57z"/>
						<path class="st11" d="M236.8,148.11c-28.42-17.1-27.44-44.36,2.18-60.88c5.54-3.09,11.68-5.58,18.2-7.48l1.61-0.46l3.12-0.82
							c-7.95,1.97-15.44,4.79-22.04,8.47c-29.11,16.23-30.07,43.01-2.14,59.82C237.42,147.21,237.11,147.66,236.8,148.11
							L236.8,148.11z"/>
					</g>
					<g>
						<path class="st11" d="M358.78,96.31c45.1,33.69,10.91,75.66-48.49,83.59c-11.44,1.53-51.33,5-84.13-14.44
							c0.26-0.48,0.53-0.96,0.79-1.43c33.66,20.26,89.38,20.82,124.46,1.26c34.11-19.02,36.14-50.06,5.3-70.38L358.78,96.31
							L358.78,96.31z"/>
						<path class="st11" d="M226.16,165.46c-31.65-19.05-32.89-48.59-4.46-68.57l2.23-1.53c-29.5,19.74-28.74,49.56,3.02,68.67
							C226.68,164.5,226.42,164.98,226.16,165.46L226.16,165.46z"/>
					</g>
					<g>
						<path class="st11" d="M406.04,163.39c5.67,21.08-5.94,43.41-34.56,59.37c-46.56,25.96-120.53,25.22-165.2-1.67
							c0.08-0.5,0.17-1,0.26-1.5c44.53,26.8,118.27,27.55,164.68,1.67c28.85-16.09,40.36-38.68,34.24-59.91L406.04,163.39
							L406.04,163.39z"/>
						<path class="st11" d="M206.28,221.08c-26.14-15.73-36.46-36.93-31.19-57.01l0.55-2.03c-5.68,20.23,4.54,41.67,30.91,57.54
							C206.45,220.08,206.37,220.58,206.28,221.08L206.28,221.08z"/>
					</g>
					<g>
						<path class="st11" d="M381.04,116.28c19.54,22.39,12.57,50.48-20.36,68.84c-40.4,22.53-104.56,21.88-143.32-1.45
							c0.21-0.5,0.42-0.99,0.63-1.49c38.42,23.12,102.03,23.77,142.07,1.44c33.03-18.42,39.71-46.71,19.49-69.03L381.04,116.28
							L381.04,116.28z"/>
						<path class="st11" d="M217.36,183.67c-40.57-26.49-28.48-53.19-17.66-66.75l1.42-1.64c-19.09,21.53-13.64,48.54,16.87,66.9
							C217.78,182.68,217.57,183.18,217.36,183.67L217.36,183.67z"/>
					</g>
					<g>
						<path class="st11" d="M410.16,210.41c0.05,18.23-12.25,36.46-36.76,50.12c-47.61,26.55-123.23,25.78-168.9-1.71
							c0-0.59,0-1.18-0.01-1.78c45.67,27.49,121.29,28.25,168.9,1.71c24.5-13.66,36.81-31.89,36.76-50.12
							C410.15,209.23,410.16,209.82,410.16,210.41L410.16,210.41z"/>
						<path class="st11" d="M204.5,258.82c-22.17-13.34-33.21-30.53-33.26-47.72c0-0.59,0-1.18-0.01-1.78
							c0.05,17.19,11.09,34.38,33.26,47.72C204.5,257.64,204.5,258.24,204.5,258.82L204.5,258.82z"/>
					</g>
					<g>
						<path class="st11" d="M396.42,138.79c11.84,22.38,1.97,47.76-29.22,65.15c-44.12,24.6-114.21,23.89-156.54-1.58
							c0.15-0.5,0.3-1.01,0.46-1.51c42.09,25.33,111.77,26.04,155.64,1.57c31.35-17.48,41.04-43.09,28.64-65.52L396.42,138.79
							L396.42,138.79z"/>
						<path class="st11" d="M210.66,202.35c-28.69-17.27-37.27-41.48-26.09-62.95l0.99-1.86c-11.69,21.52-3.29,45.94,25.56,63.3
							C210.96,201.35,210.81,201.85,210.66,202.35L210.66,202.35z"/>
					</g>
					<g>
						<path class="st11" d="M410.18,219.8c0.05,18.23-12.25,36.46-36.76,50.12c-47.61,26.55-123.23,25.78-168.9-1.71
							c0-0.37,0-0.78,0-1.21c45.67,27.49,121.29,28.25,168.9,1.71c24.5-13.66,36.81-31.89,36.76-50.12
							C410.18,219.03,410.18,219.43,410.18,219.8L410.18,219.8z"/>
						<path class="st11" d="M204.53,268.22c-22.17-13.34-33.21-30.53-33.26-47.72c0-0.37,0-0.78,0-1.21
							c0.05,17.19,11.09,34.38,33.26,47.72C204.52,267.44,204.52,267.84,204.53,268.22L204.53,268.22z"/>
					</g>
					<g>
						<path class="st11" d="M410.01,189.54c0.76,18.72-11.53,37.59-36.71,51.62c-47.58,26.53-123.17,25.77-168.82-1.71
							c0.01-0.48,0.03-0.97,0.04-1.46c45.63,27.46,121.17,28.23,168.73,1.71c25.48-14.21,37.76-33.37,36.65-52.31L410.01,189.54
							L410.01,189.54z"/>
						<path class="st11" d="M204.48,239.45c-22.82-13.73-33.84-31.54-33.22-49.23l0.09-2.16c-0.96,17.92,10.04,36.02,33.17,49.94
							C204.51,238.48,204.5,238.97,204.48,239.45L204.48,239.45z"/>
					</g>
					<path class="st11" d="M285.1,100.18c-2.79-1.68-2.7-4.36,0.21-5.98c2.91-1.62,7.54-1.58,10.33,0.1
						c2.79,1.68,2.7,4.36-0.21,5.98C292.52,101.91,287.9,101.86,285.1,100.18c0.42-0.26,0.84-0.52,1.26-0.78
						c2.13,1.28,5.65,1.32,7.87,0.08c2.22-1.24,2.29-3.28,0.16-4.56c-2.13-1.28-5.65-1.32-7.87-0.08c-2.22,1.24-2.29,3.28-0.16,4.56
						C285.94,99.66,285.52,99.92,285.1,100.18L285.1,100.18z"/>
					<path class="st11" d="M255.7,124.63c-18.39-11.07-17.76-28.7,1.41-39.39c19.17-10.69,49.61-10.38,67.99,0.69
						c18.39,11.07,17.76,28.7-1.41,39.39C304.53,136,274.09,135.69,255.7,124.63c0.37-0.39,0.73-0.77,1.1-1.15
						c17.8,10.71,47.28,11.01,65.83,0.67C341.19,113.79,341.8,96.72,324,86c-17.8-10.71-47.28-11.01-65.83-0.67
						s-19.17,27.42-1.36,38.14C256.43,123.85,256.06,124.24,255.7,124.63L255.7,124.63z"/>
					<path class="st11" d="M242.74,139.9c-25.27-15.21-24.4-39.44,1.94-54.12c26.34-14.68,68.17-14.26,93.43,0.95
						s24.4,39.44-1.94,54.12C309.84,155.52,268.01,155.1,242.74,139.9c0.33-0.43,0.66-0.86,0.99-1.29
						c24.74,14.89,65.7,15.3,91.48,0.93c25.79-14.38,26.63-38.1,1.9-52.99c-24.74-14.89-65.7-15.3-91.48-0.93
						c-25.79,14.38-26.63,38.1-1.9,52.99C243.4,139.03,243.07,139.46,242.74,139.9L242.74,139.9z"/>
					<path class="st11" d="M269.9,111.25c-10.85-6.53-10.48-16.94,0.83-23.25c11.31-6.31,29.28-6.13,40.13,0.41
						c10.85,6.53,10.48,16.94-0.83,23.25C298.72,117.96,280.76,117.78,269.9,111.25c0.39-0.33,0.79-0.66,1.19-0.98
						c10.22,6.15,27.15,6.32,37.8,0.38s11.01-15.75,0.78-21.9c-10.22-6.15-27.15-6.32-37.8-0.38c-10.66,5.94-11.01,15.75-0.78,21.9
						C270.69,110.59,270.3,110.92,269.9,111.25L269.9,111.25z"/>
					<g>
						<path class="st11" d="M343.91,87.51c1.97,0.98,3.89,2.03,5.73,3.13c31.36,18.88,30.29,48.95-2.4,67.18
							c-32.69,18.23-84.61,17.7-115.97-1.17c0.29-0.47,0.57-0.93,0.86-1.39c30.9,18.6,82.07,19.12,114.28,1.16
							c32.21-17.96,33.27-47.6,2.37-66.2c-2.4-1.44-4.92-2.78-7.55-4.01L343.91,87.51L343.91,87.51z"/>
						<path class="st11" d="M231.26,156.65c-36.55-23.86-24.94-52.67,5.43-68.79l2.89-1.42c-41.14,21.08-36.1,51.54-7.45,68.81
							C231.84,155.72,231.55,156.19,231.26,156.65L231.26,156.65z"/>
					</g>
					<g>
						<path class="st11" d="M371.17,106.16c23.98,21.76,18.93,51.04-14.51,69.69c-38.09,21.24-98.6,20.63-135.15-1.37
							c0.24-0.49,0.48-0.98,0.72-1.47c36.17,21.77,96.04,22.37,133.74,1.35c33.58-18.73,38.23-48.3,13.27-69.92L371.17,106.16
							L371.17,106.16z"/>
						<path class="st11" d="M221.51,174.48c-31.12-18.73-34.83-46.92-11.74-67.99l1.76-1.59c-23.87,20.94-20.51,49.33,10.69,68.11
							C221.99,173.51,221.75,173.99,221.51,174.48L221.51,174.48z"/>
					</g>
					<g>
						<path class="st11" d="M401.95,150.91c8.55,21.86-2.33,45.74-32.31,62.46c-45.51,25.38-117.81,24.65-161.47-1.63
							c0.12-0.5,0.24-1,0.36-1.51c43.47,26.16,115.45,26.89,160.76,1.63c30.17-16.82,40.91-40.93,31.89-62.89L401.95,150.91
							L401.95,150.91z"/>
						<path class="st11" d="M208.16,211.74c-27.54-16.57-37.11-39.35-29.01-60.28l0.79-1.99c-8.59,21.04,0.84,44.07,28.59,60.77
							C208.4,210.73,208.28,211.23,208.16,211.74L208.16,211.74z"/>
					</g>
					<g>
						<path class="st11" d="M389.13,126.74l0.47,0.68c33.68,55.99-60.55,98.88-140.23,79.68c-16.57-3.99-28.53-9.88-35.64-14.12
							c0.18-0.5,0.36-1,0.55-1.5c79.89,44.34,193.27,2.87,180.98-50.82c-1.13-4.92-3.46-9.99-6.92-15.06L389.13,126.74
							L389.13,126.74z"/>
						<path class="st11" d="M213.73,192.98c-29.67-17.86-36.97-43.45-22.29-65.17l1.26-1.83c-15.29,21.73-8.24,47.55,21.58,65.5
							C214.1,191.98,213.91,192.48,213.73,192.98L213.73,192.98z"/>
					</g>
					<g>
						<path class="st11" d="M408.74,176.32c3.05,20.02-9.03,40.66-36.03,55.71c-47.26,26.35-122.33,25.59-167.67-1.7
							c0.05-0.49,0.1-0.99,0.15-1.48c45.26,27.24,120.19,28,167.36,1.69c27.26-15.2,39.29-36.12,35.85-56.32L408.74,176.32
							L408.74,176.32z"/>
						<path class="st11" d="M205.05,230.34c-24.6-14.8-35.39-34.38-32.58-53.39l0.33-2.1c-3.2,19.21,7.54,39.05,32.4,54.01
							C205.15,229.35,205.1,229.84,205.05,230.34L205.05,230.34z"/>
					</g>
					<g>
						<path class="st11" d="M410.13,199.57c-4.34,68.87-134.92,89.99-205.66,48.41c0-0.53,0-1.04,0-1.54
							c45.68,27.49,121.3,28.25,168.9,1.71c24.5-13.66,36.81-31.89,36.76-50.12C410.12,198.53,410.12,199.05,410.13,199.57
							L410.13,199.57z"/>
						<path class="st11" d="M204.47,247.99c-16.58-10.83-32.09-24.1-33.26-47.72c0-0.53,0-1.04,0-1.54
							c0.05,17.19,11.09,34.38,33.26,47.72C204.46,246.95,204.47,247.46,204.47,247.99L204.47,247.99z"/>
					</g>
				</g>
			</g>
			<g>
				<path class="st11" d="M370.53,274.53c-0.67,0.35-1.35,0.7-2.04,1.04c0-1.08-0.06-21.56-0.08-28.74
					c-0.15-53.78-35.09-120.83-78.03-149.76c44.07,28.36,79.92,94.94,80.07,148.72C370.47,252.97,370.53,273.45,370.53,274.53
					L370.53,274.53z"/>
				<path class="st11" d="M409.84,228.3c-0.07,0.49-0.14,0.98-0.22,1.47c0-1.08-0.06-21.56-0.08-28.74
					c-0.15-53.78-53.5-100.32-119.16-103.96l0,0c65.78,2.83,119.23,48.71,119.38,102.49C409.78,206.74,409.83,227.22,409.84,228.3
					L409.84,228.3z"/>
				<path class="st11" d="M398.28,253.14c-0.38,0.45-0.76,0.9-1.15,1.34c0-1.08-0.06-21.56-0.08-28.74
					c-0.15-53.78-47.91-111.39-106.67-128.68c59.4,16.55,107.67,73.56,107.82,127.33C398.22,231.58,398.28,252.06,398.28,253.14
					L398.28,253.14z"/>
				<path class="st11" d="M396.66,139.25l1.68,3.36c-26.83-49.42-79.16-49.75-107.96-45.54l0,0
					C338.44,88.52,379.65,106.47,396.66,139.25L396.66,139.25z"/>
				<path class="st11" d="M360.77,97.72l2.15,1.59c-7.58-5.14-30.65-20.77-72.54-2.25l0,0C302.17,92.05,333.48,78.75,360.77,97.72
					L360.77,97.72z"/>
				<path class="st11" d="M273.43,76.22l1.51-0.21c4.31-0.61,9.64,6.2,15.43,21.06C284.02,82.23,278.16,75.5,273.43,76.22
					L273.43,76.22z"/>
				<path class="st11" d="M326.79,80.56l1.76,0.57c-10.39-3.52-23.69,1.43-38.16,15.93C304.16,82.54,316.83,77.38,326.79,80.56
					L326.79,80.56z"/>
				<path class="st11" d="M208.82,107.38l2.14-1.96c18.22-16.37,47-20.54,79.41-8.35C255.49,85.93,230.34,89.11,208.82,107.38
					L208.82,107.38z"/>
				<path class="st11" d="M299.35,75.29l1.48,0.12c-2.96-0.27-6.57,6.75-10.45,21.66C293.71,82.13,296.81,75.08,299.35,75.29
					L299.35,75.29z"/>
				<path class="st11" d="M190.77,128.82l1.92-2.83c18.46-26.51,55.25-38.9,97.68-28.93C246.73,87.44,209.01,100.99,190.77,128.82
					L190.77,128.82z"/>
				<path class="st11" d="M244.51,84.25l1.8-0.74l0.09-0.03c11.78-4.71,27.15-0.61,43.98,13.59
					C272.78,82.91,256.73,79.09,244.51,84.25L244.51,84.25z"/>
				<path class="st11" d="M176.61,158.75l1.24-3.75C202,95.29,264.59,94.59,290.38,97.06l0,0
					C233.75,93.1,192.29,115.59,176.61,158.75L176.61,158.75z"/>
				<path class="st11" d="M171.28,223.81c0-0.09,0-0.19,0-0.28l0-0.87c0-0.46,0-1.09-0.01-1.84c0-0.75,0-1.63-0.01-2.61
					c0-0.98-0.01-2.05-0.01-3.19c0-1.14-0.01-2.34-0.01-3.57c0-1.23-0.01-2.49-0.01-3.75c0-1.26-0.01-2.52-0.01-3.74
					c0-1.22-0.01-2.41-0.01-3.53c0-1.12-0.01-2.17-0.01-3.12s-0.01-1.8-0.01-2.52l0.04-3.54c1.38-52.68,54.13-94.65,119.14-94.19
					c-65.98,0.35-119.33,44.23-119.18,98.01C171.22,202.26,171.28,222.73,171.28,223.81L171.28,223.81z"/>
				<path class="st11" d="M179.72,248.99c-0.32-0.46-0.63-0.92-0.93-1.39c0-1.08-0.06-21.56-0.08-28.74
					c-0.15-53.78,49.84-108.31,111.66-121.8l0,0c-61.31,14.26-110.89,69.41-110.74,123.19
					C179.66,227.44,179.72,247.92,179.72,248.99L179.72,248.99z"/>
				<path class="st11" d="M173.45,236.59c-0.16-0.48-0.31-0.97-0.46-1.45c0-1.08-0.06-21.56-0.08-28.74
					c-0.15-53.78,52.44-102.73,117.46-109.33c-64.78,7.4-117.16,57-117.01,110.78C173.39,215.03,173.45,235.51,173.45,236.59
					L173.45,236.59z"/>
				<path class="st11" d="M190.11,260.68c-0.48-0.43-0.94-0.86-1.4-1.29c0-1.08-0.06-21.56-0.08-28.74
					c-0.15-53.78,45.4-113.59,101.75-133.59l0,0c-13.95,5.74-50.99,21-81.1,70.13C189.93,198.77,189.99,219.46,190.11,260.68
					L190.11,260.68z"/>
				<path class="st11" d="M204.45,242.51c0.02,7.19,0.08,27.66,0.08,28.74c-0.61-0.36-1.2-0.73-1.79-1.1
					c0-1.08-0.06-21.56-0.08-28.74c-0.15-53.78,39.12-118.4,87.72-144.34C242.77,123.61,204.3,188.73,204.45,242.51L204.45,242.51z"
					/>
				<path class="st11" d="M244.34,287.05c-0.79-0.19-1.58-0.39-2.37-0.59c0-1.08-0.06-21.56-0.08-28.74
					c-0.15-53.78,21.55-125.71,48.49-160.66c-25.62,35.27-46.27,107.47-46.12,161.25C244.28,265.5,244.34,285.97,244.34,287.05
					L244.34,287.05z"/>
				<path class="st11" d="M224.38,280.86c-0.73-0.28-1.45-0.57-2.17-0.86c0-1.08-0.06-21.56-0.08-28.74
					c-0.15-53.78,30.4-122.82,68.25-154.2c-36.65,31.86-66.23,101.28-66.08,155.06C224.32,259.31,224.38,279.79,224.38,280.86
					L224.38,280.86z"/>
				<path class="st11" d="M265.62,290.89c-0.83-0.1-1.66-0.21-2.48-0.32c0-1.08-0.06-21.56-0.08-28.74
					c-0.15-53.78,12.08-127.54,27.32-164.76c-13.87,37.39-24.99,111.3-24.83,165.08C265.56,269.33,265.62,289.81,265.62,290.89
					L265.62,290.89z"/>
				<path class="st11" d="M287.63,292.36c-0.85-0.01-1.69-0.03-2.54-0.05c0-1.08-0.06-21.56-0.08-28.74
					c-0.15-53.78,2.25-128.33,5.37-166.51c-1.71,38.21-2.98,112.77-2.83,166.55C287.57,270.8,287.63,291.28,287.63,292.36
					L287.63,292.36z"/>
				<path class="st11" d="M351.8,282.56c-0.75,0.26-1.51,0.52-2.26,0.77c0-1.08-0.06-21.56-0.08-28.74
					c-0.15-53.78-26.6-124.3-59.07-157.52c33.72,32.79,61.18,102.97,61.34,156.75C351.73,261,351.79,281.48,351.8,282.56
					L351.8,282.56z"/>
				<path class="st11" d="M309.73,291.47c-0.84,0.08-1.68,0.15-2.52,0.22c0-1.08-0.06-21.56-0.08-28.74
					c-0.15-53.78-7.66-128.05-16.76-165.88c10.49,37.71,19.12,111.88,19.28,165.66C309.67,269.91,309.73,290.39,309.73,291.47
					L309.73,291.47z"/>
				<path class="st11" d="M406.09,240.97c-0.22,0.48-0.45,0.95-0.69,1.42c0-1.08-0.06-21.56-0.08-28.74
					c-0.15-53.78-51.61-105.98-114.95-116.59c63.71,9.83,115.48,61.39,115.64,115.17C406.03,219.42,406.09,239.9,406.09,240.97
					L406.09,240.97z"/>
				<path class="st11" d="M331.33,288.2c-0.81,0.17-1.61,0.33-2.42,0.49c0-1.08-0.06-21.56-0.08-28.74
					c-0.15-53.78-17.36-126.71-38.44-162.89c22.42,35.91,40.72,108.62,40.87,162.4C331.27,266.65,331.32,287.12,331.33,288.2
					L331.33,288.2z"/>
				<path class="st11" d="M408.08,172.37l0.71,4.25c-7.15-47.94-57.49-82.76-118.41-79.56C349.98,93.2,399.43,126,408.08,172.37
					L408.08,172.37z"/>
				<path class="st11" d="M386.42,264.45c-0.53,0.41-1.07,0.82-1.62,1.22c0-1.08-0.06-21.56-0.08-28.74
					c-0.15-53.78-42.39-116.4-94.34-139.87c52.85,22.79,95.81,84.86,95.96,138.64C386.36,242.89,386.41,263.37,386.42,264.45
					L386.42,264.45z"/>
				<path class="st11" d="M379.41,114.43l2.14,2.43c-18.93-22.27-52.7-30.96-91.17-19.8C327.66,85.65,360.49,93.37,379.41,114.43
					L379.41,114.43z"/>
				<path class="st11" d="M342.69,86.91l1.96,0.97c-14.15-7.26-33.26-4.78-54.27,9.18C310.57,83.02,328.96,80.19,342.69,86.91
					L342.69,86.91z"/>
				<path class="st11" d="M286.48,75.05l1.47-0.04c0.67-0.05,1.51,7.11,2.43,22.06C288.9,82.12,287.56,74.98,286.48,75.05
					L286.48,75.05z"/>
				<path class="st11" d="M312.58,77l1,0.19l0.56,0.11c-6.63-1.34-14.86,5-23.76,19.77C298.68,82.27,306.37,75.83,312.58,77
					L312.58,77z"/>
				<path class="st11" d="M259.69,79.05l1.61-0.42c8.01-2.06,18.1,3.8,29.08,18.43C278.78,82.48,268.13,76.77,259.69,79.05
					L259.69,79.05z"/>
				<path class="st11" d="M227.29,93.17l2.11-1.29c15.47-9.28,37.06-8.29,60.98,5.18l0,0C265.53,83.7,243.15,83.19,227.29,93.17
					L227.29,93.17z"/>
			</g>
		</g>
	</g>
	<g>
		<path class="st12" d="M384.21,366.6l1.4,1.38c0,0,6.01-9.52,8.32-13.39l1.51-38.12l-1.4-1.38c-2.47,4.15-5.71,8.18-9.71,12.01
			C384.28,340.57,384.2,367.2,384.21,366.6L384.21,366.6z"/>
		<path class="st12" d="M339.95,390.32l1.4,1.38c0,0,12.96-6.27,18.14-8.7l1.51-38.12l-1.4-0.84c0,0-12.69,5.32-19.54,7.32
			L339.95,390.32z"/>
		<path class="st12" d="M283.9,398.9c0,0,14.75-1.89,21.73-2.44l2.18-38.84l-2.07-0.66c0,0-14.97,0.72-22.46,0.41l0,1.37
			l-0.11,39.12L283.9,398.9z"/>
		<path class="st12" d="M229.46,386.54c0,0,11.96,3.43,18.83,5.11l1.51-38.12l-1.4-1.38c-7.03-1.72-13.82-3.88-20.23-6.49
			l-0.11,39.33L229.46,386.54z"/>
		<path class="st12" d="M190.03,358c2.99,4.07,6.75,7.99,11.27,11.7l1.51-38.45c-4.52-3.71-9.68-8.69-12.67-12.75L190.03,358z"/>
		<g>
			<path class="st12" d="M384.23,301.63l1.4,1.38c3.65-3.61,6.01-9.52,8.32-13.39l1.45-18.37l-1.4-1.38
				c-2.47,4.15-5.71,8.18-9.71,12.01L384.23,301.63z"/>
			<path class="st12" d="M339.98,325.35c0,0,1.06,1.48,1.4,1.38c6.48-1.94,12.31-5.96,18.14-8.7l1.45-18.37l-1.4-1.38
				c-6.14,2.88-12.69,5.32-19.54,7.32L339.98,325.35z"/>
			<path class="st12" d="M283.2,331.91l1.4,1.38c0,0,13.97-1.24,21.06-1.8l1.45-18.37l-1.4-1.38c-7.44,0.58-14.97,0.72-22.46,0.41
				L283.2,331.91z"/>
			<path class="st12" d="M228.09,320.59l1.4,1.38c0,0,12.14,3.47,18.83,5.11l1.45-18.37l-1.4-1.38c-7.03-1.72-13.82-3.88-20.23-6.49
				L228.09,320.59z"/>
			<path class="st12" d="M190.06,293.25c2.99,4.07,6.75,7.99,11.27,11.7l0.06-18.91c-4.52-3.71-8.28-9-11.27-13.07L190.06,293.25
				L190.06,293.25z"/>
		</g>
	</g>
	<g>
		<path class="st13" d="M385.6,367.98c4.01-3.83,7.24-7.86,9.71-12.01l0.11-39.51c-2.47,4.15-5.71,8.18-9.71,12.01L385.6,367.98z"/>
		<path class="st13" d="M386.71,328.9c2.97-2.87,5.55-5.89,7.7-9.02l-0.1,35.81c-2.06,3.41-4.64,6.72-7.7,9.88L386.71,328.9z"/>
		<path class="st13" d="M341.35,391.71c6.84-1.99,13.4-4.43,19.54-7.32l0.11-39.51c-6.14,2.88-12.69,5.32-19.54,7.32L341.35,391.71z
			"/>
		<path class="st13" d="M342.46,352.95c6.17-1.83,12.06-4.01,17.53-6.5l-0.11,37.3c-5.46,2.53-11.35,4.75-17.53,6.61L342.46,352.95z
			"/>
		<path class="st13" d="M284.57,398.43c7.49,0.31,15.01,0.17,22.46-0.41l0.11-39.51c-7.44,0.58-14.97,0.72-22.46,0.41L284.57,398.43
			z"/>
		<path class="st13" d="M292.33,399.09L292.33,399.09c-2.59,0-5.21-0.05-7.79-0.16l-0.64-0.03l0-0.64l0.11-39.51l0-0.69l0.69,0.03
			c2.56,0.1,5.16,0.16,7.73,0.16c4.88,0,9.81-0.19,14.64-0.57l0.72-0.06l0,0.72l-0.11,39.51l0,0.62l-0.61,0.05
			C302.21,398.9,297.25,399.09,292.33,399.09z M285.24,397.62c2.35,0.09,4.74,0.13,7.09,0.13h0c4.68,0,9.39-0.18,14.03-0.52
			l0.11-38.17c-4.63,0.34-9.35,0.52-14.03,0.52c-2.36,0-4.74-0.04-7.09-0.13L285.24,397.62z"/>
		<path class="st13" d="M229.46,386.94c6.41,2.61,13.2,4.77,20.23,6.49l0.11-39.51c-7.03-1.72-13.82-3.88-20.23-6.49L229.46,386.94z
			"/>
		<path class="st13" d="M248.52,391.92c-6.25-1.59-12.25-3.53-17.87-5.78l0.1-36.97c5.64,2.21,11.64,4.11,17.87,5.67L248.52,391.92z
			"/>
		<path class="st13" d="M191.43,359.79c2.99,4.07,6.75,7.99,11.27,11.7l0.11-39.51c-4.52-3.71-8.28-7.63-11.27-11.7L191.43,359.79z"
			/>
		<path class="st13" d="M201.53,368.95c-3.45-3.03-6.44-6.23-8.92-9.54l0.1-35.71c2.56,3.08,5.55,6.04,8.92,8.85L201.53,368.95z"/>
		<g>
			<path class="st13" d="M385.63,303.01c4.01-3.83,7.24-7.86,9.71-12.01l0.06-19.75c-2.47,4.15-5.71,8.18-9.71,12.01L385.63,303.01z
				"/>
			<path class="st13" d="M386.86,283.76c2.8-2.72,5.26-5.58,7.34-8.52l-0.04,15.44c-1.98,3.27-4.44,6.45-7.35,9.49L386.86,283.76z"
				/>
			<path class="st13" d="M341.38,326.74c6.84-1.99,13.4-4.43,19.54-7.32l0.06-19.75c-6.14,2.88-12.69,5.32-19.54,7.32L341.38,326.74
				z"/>
			<path class="st13" d="M342.61,307.86c6.04-1.8,11.8-3.93,17.18-6.36l-0.05,17.16c-5.35,2.47-11.12,4.65-17.18,6.49L342.61,307.86
				z"/>
			<path class="st13" d="M284.6,333.29c7.49,0.31,15.01,0.17,22.46-0.41l0.06-19.75c-7.44,0.58-14.97,0.72-22.46,0.41L284.6,333.29z
				"/>
			<path class="st13" d="M292.36,332.27c-2.18,0-4.39-0.04-6.58-0.11l0.05-17.39c2.19,0.08,4.4,0.11,6.59,0.11
				c4.5,0,9.04-0.16,13.51-0.48l-0.05,17.39C301.4,332.11,296.86,332.27,292.36,332.27L292.36,332.27z"/>
			<path class="st13" d="M229.49,321.97c6.41,2.61,13.2,4.77,20.23,6.49l0.06-19.75c-7.03-1.72-13.82-3.88-20.23-6.49L229.49,321.97
				z"/>
			<path class="st13" d="M248.54,326.95c-6.25-1.59-12.25-3.53-17.87-5.78l0.05-17.22c5.64,2.21,11.64,4.11,17.87,5.67
				L248.54,326.95z"/>
			<path class="st13" d="M191.46,294.63c2.99,4.07,6.75,7.99,11.27,11.7l0.06-19.75c-4.52-3.71-8.28-7.63-11.27-11.7L191.46,294.63z
				"/>
			<path class="st13" d="M201.55,303.79c-3.45-3.03-6.44-6.23-8.92-9.54l0.05-15.96c2.56,3.08,5.55,6.04,8.92,8.85L201.55,303.79z"
				/>
		</g>
	</g>
	<g>
		<path class="st14" d="M319.43,81.3c-0.36-0.26-0.72-0.52-1.09-0.77c-1.13,0.85-2.3,1.69-3.51,2.52c-0.31,0.21-0.62,0.42-0.93,0.63
			c-2.35,1.56-4.83,3.09-7.46,4.55c-8.26,4.61-17.38,8.38-27.03,11.34c-0.03,0.01-0.07,0.02-0.1,0.03
			c-0.96,0.29-1.92,0.58-2.89,0.85v8.84c28.52,34.18,51.18,98.18,58,148.86l8.04,2.43c14.17-4.87,33.88-20.05,43.54-27.62
			C374.26,171.87,360.83,110.99,319.43,81.3z"/>
		<path class="st15" d="M394.99,231.94c-15.4,16.18-35.41,23.07-52.53,28.64c-2.62-19.45-7.58-41.11-14.41-62.5
			c-4.5-14.11-9.82-28.1-15.81-41.25c-9.92-21.78-21.69-41.26-34.69-55.17c-0.38-0.41-0.76-0.81-1.14-1.2
			c13.93-5.5,29.55-11.82,43.87-21.41c0.37,0.23,0.74,0.48,1.1,0.72C361.92,106.83,384.4,176.85,394.99,231.94z"/>
		<g>
			<path class="st1" d="M346.77,250.75c18.88-5.66,35.74-15.52,43.45-22.84l-52.86-21.06C341.66,221.76,344.88,236.66,346.77,250.75
				z"/>
			<path class="st9" d="M321.85,87.89c-14.59,6.3-25.5,11.94-35.42,16.51c-0.03,0.01-0.07,0.02-0.1,0.03
				c0.34,0.4,0.69,0.81,1.03,1.22c21.05,25.03,39.04,63.17,50.01,101.2l52.86,21.06C379.96,180.95,358.95,118.27,321.85,87.89z"/>
		</g>
		<path class="st16" d="M383.44,225.21c-7.35,5.53-20.39,12.33-37.77,18.17c-2.43-15.16-6.43-31.57-11.74-47.99
			c-4.51-13.94-9.96-27.89-16.2-41.08c-8.97-18.96-19.56-36.36-31.31-49.91c10.8-5.7,15.09-8.48,30.05-14.15
			C316.82,90.54,356.5,114.6,383.44,225.21z"/>
	</g>
	<g>
		<g class="st0">
			<g>
				<path class="st2" d="M372.94,170.43c-0.94,9.93-8.27,13.34-16.38,7.61c-8.11-5.73-13.92-18.42-12.98-28.35
					c0.94-9.93,8.27-13.34,16.38-7.61C368.07,147.81,373.88,160.5,372.94,170.43z"/>
				<path class="st9" d="M370.29,170.18c-0.47,4.99-2.78,7.98-6.17,7.98c-1.81,0-3.89-0.79-6.01-2.29c-0.98-0.69-1.92-1.5-2.82-2.41
					c-5.8-5.86-9.77-15.79-9.04-23.5c0.47-4.99,2.78-7.98,6.17-7.98c1.47,0,3.13,0.53,4.84,1.53c0.39,0.23,0.78,0.48,1.17,0.76
					C365.7,149.4,371.13,161.27,370.29,170.18z"/>
				<path class="st17" d="M366.3,167.01c-0.47,4.99-2.78,7.97-6.17,7.97c-1.48,0-3.14-0.53-4.84-1.53
					c-5.8-5.86-9.77-15.79-9.04-23.5c0.47-4.99,2.78-7.98,6.17-7.98c1.47,0,3.13,0.53,4.84,1.53
					C363.05,149.37,367.03,159.3,366.3,167.01z"/>
			</g>
		</g>
		<path class="st1" d="M367.39,180.14l-33.45,15.25c-4.51-13.94-9.96-27.89-16.2-41.08l31.4-14.31c-2.99,1.36-5.08,4.7-5.55,9.7
			c-0.94,9.93,4.87,22.62,12.98,28.35C360.6,180.89,364.43,181.48,367.39,180.14z"/>
	</g>
	<g>
		<polygon class="st13" points="139.07,262.2 103.21,241.64 103.17,285.62 138.93,305.74 		"/>
		<g>
			<g class="st0">
				<g>
					<polygon class="st18" points="102.65,261.97 103.7,261.36 104.1,261.59 103.05,262.2 					"/>
				</g>
				<g>
					<polygon class="st19" points="103.05,262.2 104.1,261.59 104.05,284.33 103,284.94 					"/>
				</g>
				<g>
					<polygon class="st19" points="102.66,261.06 103.7,260.45 103.7,261.36 102.65,261.97 					"/>
				</g>
				<g>
					<polygon class="st18" points="102.66,261.06 103.7,260.45 104.1,260.68 103.05,261.29 					"/>
				</g>
				<g>
					<polygon class="st18" points="103,284.94 104.05,284.33 121.25,294.26 120.2,294.87 					"/>
				</g>
				<g>
					<polygon class="st19" points="120.2,294.87 121.25,294.26 121.25,294.72 120.2,295.33 					"/>
				</g>
				<g>
					<polygon class="st18" points="120.2,295.33 121.25,294.72 122.04,295.17 120.99,295.78 					"/>
				</g>
				<g>
					<polygon class="st19" points="120.99,295.33 122.04,294.72 122.04,295.17 120.99,295.78 					"/>
				</g>
				<g>
					<polygon class="st19" points="103.08,242.34 104.13,241.73 104.1,260.68 103.05,261.29 					"/>
				</g>
				<g>
					<polygon class="st19" points="121.04,272.59 122.09,271.98 122.04,294.72 120.99,295.33 					"/>
				</g>
				<g>
					<polygon class="st18" points="103.05,261.29 104.1,260.68 121.3,270.61 120.25,271.22 					"/>
				</g>
				<g>
					<polygon class="st19" points="120.25,271.22 121.3,270.61 121.3,271.52 120.25,272.13 					"/>
				</g>
				<g>
					<polygon class="st19" points="121.04,271.68 122.09,271.07 122.09,271.98 121.04,272.59 					"/>
				</g>
				<g>
					<polygon class="st18" points="120.99,295.33 122.04,294.72 139.24,304.65 138.19,305.26 					"/>
				</g>
				<g>
					<polygon class="st19" points="120.28,251.81 121.33,251.2 121.33,251.66 120.28,252.27 					"/>
				</g>
				<g>
					<polygon class="st19" points="121.07,252.73 122.12,252.12 122.09,271.07 121.04,271.68 					"/>
				</g>
				<g>
					<polygon class="st18" points="120.28,251.81 121.33,251.2 122.12,251.66 121.07,252.27 					"/>
				</g>
				<g>
					<polygon class="st19" points="121.07,252.27 122.12,251.66 122.12,252.12 121.07,252.73 					"/>
				</g>
				<g>
					<polygon class="st18" points="138.24,282.52 139.29,281.91 139.68,282.14 138.63,282.75 					"/>
				</g>
				<g>
					<polygon class="st18" points="121.04,271.68 122.09,271.07 139.29,281 138.24,281.61 					"/>
				</g>
				<g>
					<polygon class="st18" points="138.24,281.61 139.29,281 139.69,281.23 138.64,281.84 					"/>
				</g>
				<g>
					<polygon class="st19" points="138.64,281.84 139.69,281.23 139.68,282.14 138.63,282.75 					"/>
				</g>
				<path class="st20" d="M102.29,240.97l-0.09,44.42l36.77,21.23l0.09-44.42L102.29,240.97z M103.08,242.34l17.2,9.93l-0.03,18.95
					l-17.2-9.93L103.08,242.34z M103.05,262.2l17.2,9.93l-0.05,22.74l-17.2-9.93L103.05,262.2z M138.19,305.26l-17.2-9.93l0,0.46
					l-0.79-0.46l0,0l0.79,0.46l0-0.46l0.05-22.74l0-0.91l0.03-18.95l0-0.46l-0.46-0.26l0.46,0.26l0,0.46l17.2,9.93l-0.03,18.95
					l-17.2-9.93l0,0.91l17.2,9.93L138.19,305.26z"/>
				<g>
					<polygon class="st18" points="102.29,240.97 103.34,240.36 140.11,261.59 139.07,262.2 					"/>
				</g>
				<g>
					<polygon class="st19" points="139.07,262.2 140.11,261.59 140.03,306.02 138.98,306.63 					"/>
				</g>
			</g>
		</g>
	</g>
</g>
</svg>
