<?xml version="1.0" encoding="utf-8"?>
<!-- Generator: Adobe Illustrator 24.3.0, SVG Export Plug-In . SVG Version: 6.00 Build 0)  -->
<svg version="1.1" id="Layer_1" xmlns="http://www.w3.org/2000/svg" xmlns:xlink="http://www.w3.org/1999/xlink" x="0px" y="0px"
	 viewBox="0 0 500 500" style="enable-background:new 0 0 500 500;" xml:space="preserve">
<style type="text/css">
	.st0{enable-background:new    ;}
	.st1{clip-path:url(#SVGID_2_);enable-background:new    ;}
	.st2{fill:#A4A9C2;}
	.st3{fill:#C1C8DC;}
	.st4{clip-path:url(#SVGID_4_);enable-background:new    ;}
	.st5{fill:#D8DFE9;}
	.st6{fill:#E8EEF4;}
	.st7{fill:#66B2D8;}
	.st8{clip-path:url(#SVGID_6_);enable-background:new    ;}
	.st9{clip-path:url(#SVGID_8_);enable-background:new    ;}
	.st10{clip-path:url(#SVGID_10_);enable-background:new    ;}
	.st11{clip-path:url(#SVGID_12_);enable-background:new    ;}
	.st12{clip-path:url(#SVGID_14_);enable-background:new    ;}
	.st13{clip-path:url(#SVGID_16_);enable-background:new    ;}
	.st14{fill:#FFFFFF;}
	.st15{clip-path:url(#SVGID_18_);enable-background:new    ;}
	.st16{clip-path:url(#SVGID_20_);enable-background:new    ;}
	.st17{clip-path:url(#SVGID_22_);enable-background:new    ;}
	.st18{clip-path:url(#SVGID_24_);enable-background:new    ;}
	.st19{fill:#CED4DB;}
	.st20{clip-path:url(#SVGID_26_);enable-background:new    ;}
	.st21{clip-path:url(#SVGID_28_);enable-background:new    ;}
</style>
<g id="satellite_2_">
	<g>
		<g class="st0">
			<g class="st0">
				<defs>
					<path id="SVGID_1_" class="st0" d="M265.57,216.86l-41.91-24.71c-5.11-3.02-12.22-2.66-20.11,1.81l41.91,24.71
						C253.34,214.2,260.45,213.84,265.57,216.86z"/>
				</defs>
				<use xlink:href="#SVGID_1_"  style="overflow:visible;fill:#C1C8DC;"/>
				<clipPath id="SVGID_2_">
					<use xlink:href="#SVGID_1_"  style="overflow:visible;"/>
				</clipPath>
				<g class="st1">
					<path class="st2" d="M265.57,216.86l-41.91-24.71c-2.86-1.69-6.34-2.32-10.23-1.77l41.91,24.71
						C259.23,214.54,262.71,215.17,265.57,216.86L265.57,216.86z"/>
					<path class="st2" d="M255.34,215.09l-41.91-24.71c-2.29,0.32-4.71,1.06-7.24,2.22l41.91,24.71
						C250.62,216.15,253.05,215.42,255.34,215.09L255.34,215.09z"/>
					<path class="st3" d="M248.1,217.32l-41.91-24.71c-0.87,0.4-1.75,0.85-2.64,1.36l41.91,24.71
						C246.35,218.17,247.23,217.72,248.1,217.32L248.1,217.32z"/>
				</g>
			</g>
			<g class="st0">
				<defs>
					<path id="SVGID_3_" class="st0" d="M183.13,260.67l41.91,24.71c-5.05-2.98-8.14-9.27-8.1-18.17
						c0.09-17.92,12.85-39.65,28.51-48.53l-41.91-24.71c-15.66,8.88-28.43,30.61-28.51,48.53
						C174.99,251.4,178.09,257.69,183.13,260.67z"/>
				</defs>
				<use xlink:href="#SVGID_3_"  style="overflow:visible;fill:#A4A9C2;"/>
				<clipPath id="SVGID_4_">
					<use xlink:href="#SVGID_3_"  style="overflow:visible;"/>
				</clipPath>
				<g class="st4">
					<path class="st3" d="M245.46,218.67l-41.91-24.71c-1.68,0.95-3.32,2.05-4.92,3.27l41.91,24.71
						C242.14,220.72,243.78,219.62,245.46,218.67L245.46,218.67z"/>
					<path class="st5" d="M240.54,221.95l-41.91-24.71c-9.94,7.62-18.14,20.14-21.69,32.65l41.91,24.71
						C222.41,242.09,230.6,229.56,240.54,221.95L240.54,221.95z"/>
					<path class="st2" d="M218.85,254.6l-41.91-24.71c-0.89,3.12-1.49,6.24-1.75,9.28l41.91,24.71
						C217.37,260.84,217.96,257.72,218.85,254.6L218.85,254.6z"/>
					<path class="st2" d="M217.1,263.88l-41.91-24.71c-0.1,1.12-0.15,2.23-0.16,3.32c-0.01,1.82,0.11,3.54,0.36,5.14l41.91,24.71
						c-0.24-1.6-0.37-3.31-0.36-5.14C216.95,266.11,217,265,217.1,263.88L217.1,263.88z"/>
					<path class="st2" d="M217.3,272.34l-41.91-24.71c0.95,6.2,3.73,10.67,7.74,13.04l41.91,24.71
						C221.03,283.01,218.25,278.55,217.3,272.34L217.3,272.34z"/>
				</g>
			</g>
			<g>
				<path class="st3" d="M245.46,218.67c-15.66,8.88-28.43,30.61-28.51,48.53c-0.09,17.92,12.54,25.24,28.21,16.36
					c15.66-8.88,28.43-30.61,28.51-48.53C273.75,217.11,261.12,209.79,245.46,218.67z"/>
			</g>
		</g>
	</g>
	<g>
		<g>
			<g>
				<g class="st0">
					<g>
						<polygon class="st2" points="286.23,254.54 282.96,252.64 282.77,182.74 286.04,184.64 						"/>
					</g>
					<g>
						<polygon class="st5" points="286.04,184.64 282.77,182.74 404.79,112.29 408.06,114.19 						"/>
					</g>
					<g>
						<polygon class="st6" points="408.06,114.19 408.26,184.1 286.23,254.54 286.04,184.64 						"/>
					</g>
				</g>
			</g>
			<g>
				<polygon class="st7" points="405.5,183.09 288.8,250.47 288.8,185.64 405.5,118.26 				"/>
				<g>
					<g>
						
							<rect x="278.3" y="167.33" transform="matrix(0.8661 -0.4998 0.4998 0.8661 -37.4002 195.9804)" class="st6" width="137.69" height="0.95"/>
					</g>
					<g>
						
							<rect x="278.3" y="183.89" transform="matrix(0.8661 -0.4998 0.4998 0.8661 -45.6775 198.1976)" class="st6" width="137.69" height="0.95"/>
					</g>
					<g>
						
							<rect x="278.3" y="200.45" transform="matrix(0.8661 -0.4998 0.4998 0.8661 -53.9547 200.4147)" class="st6" width="137.69" height="0.95"/>
					</g>
					<g>
						<rect x="386.42" y="128.3" class="st6" width="0.95" height="66.24"/>
					</g>
					<g>
						<rect x="366.55" y="139.77" class="st6" width="0.95" height="66.24"/>
					</g>
					<g>
						<rect x="346.68" y="151.25" class="st6" width="0.95" height="66.24"/>
					</g>
					<g>
						<rect x="326.8" y="162.72" class="st6" width="0.95" height="66.24"/>
					</g>
					<g>
						<rect x="306.93" y="174.2" class="st6" width="0.95" height="66.24"/>
					</g>
				</g>
			</g>
		</g>
		<g>
			<g class="st0">
				<g class="st0">
					<defs>
						<path id="SVGID_5_" class="st0" d="M265.61,253.17l17.66-10.27c0.25-0.15,0.6-0.13,0.99,0.1l-17.66,10.27
							C266.22,253.05,265.87,253.03,265.61,253.17z"/>
					</defs>
					<use xlink:href="#SVGID_5_"  style="overflow:visible;fill:#C1C8DC;"/>
					<clipPath id="SVGID_6_">
						<use xlink:href="#SVGID_5_"  style="overflow:visible;"/>
					</clipPath>
					<g class="st8">
						<path class="st3" d="M265.61,253.17l17.66-10.27c0.14-0.08,0.31-0.11,0.5-0.08l-17.66,10.27
							C265.93,253.06,265.75,253.09,265.61,253.17L265.61,253.17z"/>
						<path class="st3" d="M266.12,253.09l17.66-10.27c0.11,0.02,0.23,0.05,0.35,0.11l-17.66,10.27
							C266.35,253.14,266.23,253.11,266.12,253.09L266.12,253.09z"/>
						<path class="st3" d="M266.47,253.2l17.66-10.27c0.04,0.02,0.09,0.04,0.13,0.07l-17.66,10.27
							C266.56,253.24,266.51,253.22,266.47,253.2L266.47,253.2z"/>
					</g>
				</g>
				<g class="st0">
					<defs>
						<path id="SVGID_7_" class="st0" d="M285.24,246.28l-17.66,10.27c0.25-0.14,0.4-0.45,0.4-0.89c0-0.88-0.62-1.95-1.38-2.39
							L284.26,243c0.77,0.44,1.38,1.51,1.38,2.39C285.64,245.83,285.49,246.14,285.24,246.28z"/>
					</defs>
					<use xlink:href="#SVGID_7_"  style="overflow:visible;fill:#C1C8DC;"/>
					<clipPath id="SVGID_8_">
						<use xlink:href="#SVGID_7_"  style="overflow:visible;"/>
					</clipPath>
					<g class="st9">
						<path class="st3" d="M266.6,253.27L284.26,243c0.08,0.05,0.16,0.1,0.24,0.16l-17.66,10.27
							C266.76,253.37,266.68,253.32,266.6,253.27L266.6,253.27z"/>
						<path class="st3" d="M266.84,253.43l17.66-10.27c0.49,0.38,0.88,1,1.05,1.61l-17.66,10.27
							C267.72,254.43,267.33,253.81,266.84,253.43L266.84,253.43z"/>
						<path class="st3" d="M267.89,255.04l17.66-10.27c0.04,0.15,0.07,0.31,0.08,0.46l-17.66,10.27
							C267.96,255.35,267.94,255.2,267.89,255.04L267.89,255.04z"/>
						<path class="st3" d="M267.98,255.5l17.66-10.27c0,0.05,0.01,0.11,0.01,0.16c0,0.09-0.01,0.17-0.02,0.25l-17.66,10.27
							c0.01-0.08,0.02-0.16,0.02-0.25C267.98,255.61,267.98,255.55,267.98,255.5L267.98,255.5z"/>
						<path class="st3" d="M267.96,255.92l17.66-10.27c-0.05,0.3-0.19,0.52-0.38,0.64l-17.66,10.27
							C267.78,256.44,267.91,256.22,267.96,255.92L267.96,255.92z"/>
					</g>
				</g>
				<g>
					<path class="st3" d="M266.6,253.27c0.77,0.44,1.38,1.51,1.38,2.39c0,0.88-0.63,1.23-1.39,0.79c-0.77-0.44-1.38-1.51-1.38-2.39
						C265.21,253.18,265.83,252.83,266.6,253.27z"/>
				</g>
			</g>
		</g>
		<g>
			<g class="st0">
				<g class="st0">
					<defs>
						<path id="SVGID_9_" class="st0" d="M265.61,215.4l17.66-10.27c0.25-0.15,0.6-0.13,0.99,0.1L266.6,215.5
							C266.22,215.28,265.87,215.26,265.61,215.4z"/>
					</defs>
					<use xlink:href="#SVGID_9_"  style="overflow:visible;fill:#C1C8DC;"/>
					<clipPath id="SVGID_10_">
						<use xlink:href="#SVGID_9_"  style="overflow:visible;"/>
					</clipPath>
					<g class="st10">
						<path class="st3" d="M265.61,215.4l17.66-10.27c0.14-0.08,0.31-0.11,0.5-0.08l-17.66,10.27
							C265.93,215.29,265.75,215.32,265.61,215.4L265.61,215.4z"/>
						<path class="st3" d="M266.12,215.32l17.66-10.27c0.11,0.02,0.23,0.05,0.35,0.11l-17.66,10.27
							C266.35,215.37,266.23,215.34,266.12,215.32L266.12,215.32z"/>
						<path class="st3" d="M266.47,215.43l17.66-10.27c0.04,0.02,0.09,0.04,0.13,0.07L266.6,215.5
							C266.56,215.48,266.51,215.45,266.47,215.43L266.47,215.43z"/>
					</g>
				</g>
				<g class="st0">
					<defs>
						<path id="SVGID_11_" class="st0" d="M285.24,208.51l-17.66,10.27c0.25-0.14,0.4-0.45,0.4-0.89c0-0.88-0.62-1.95-1.38-2.39
							l17.66-10.27c0.77,0.44,1.38,1.51,1.38,2.39C285.64,208.06,285.49,208.37,285.24,208.51z"/>
					</defs>
					<use xlink:href="#SVGID_11_"  style="overflow:visible;fill:#C1C8DC;"/>
					<clipPath id="SVGID_12_">
						<use xlink:href="#SVGID_11_"  style="overflow:visible;"/>
					</clipPath>
					<g class="st11">
						<path class="st3" d="M266.6,215.5l17.66-10.27c0.08,0.05,0.16,0.1,0.24,0.16l-17.66,10.27
							C266.76,215.6,266.68,215.55,266.6,215.5L266.6,215.5z"/>
						<path class="st3" d="M266.84,215.66l17.66-10.27c0.49,0.38,0.88,1,1.05,1.61l-17.66,10.27
							C267.72,216.66,267.33,216.04,266.84,215.66L266.84,215.66z"/>
						<path class="st3" d="M267.89,217.27L285.55,207c0.04,0.15,0.07,0.31,0.08,0.46l-17.66,10.27
							C267.96,217.58,267.94,217.43,267.89,217.27L267.89,217.27z"/>
						<path class="st3" d="M267.98,217.73l17.66-10.27c0,0.05,0.01,0.11,0.01,0.16c0,0.09-0.01,0.17-0.02,0.25l-17.66,10.27
							c0.01-0.08,0.02-0.16,0.02-0.25C267.98,217.84,267.98,217.79,267.98,217.73L267.98,217.73z"/>
						<path class="st3" d="M267.96,218.15l17.66-10.27c-0.05,0.3-0.19,0.52-0.38,0.64l-17.66,10.27
							C267.78,218.67,267.91,218.45,267.96,218.15L267.96,218.15z"/>
					</g>
				</g>
				<g>
					<path class="st3" d="M266.6,215.5c0.77,0.44,1.38,1.51,1.38,2.39c0,0.88-0.63,1.23-1.39,0.79c-0.77-0.44-1.38-1.51-1.38-2.39
						C265.21,215.41,265.83,215.06,266.6,215.5z"/>
				</g>
			</g>
		</g>
	</g>
	<g>
		<g class="st0">
			<g class="st0">
				<defs>
					<path id="SVGID_13_" class="st0" d="M295.43,231.27l-46.62-27.48c-5.69-3.36-13.6-2.95-22.37,2.02l46.62,27.48
						C281.83,228.31,289.74,227.91,295.43,231.27z"/>
				</defs>
				<clipPath id="SVGID_14_">
					<use xlink:href="#SVGID_13_"  style="overflow:visible;"/>
				</clipPath>
				<g class="st12">
					<path class="st3" d="M295.43,231.27l-46.62-27.48c-3.18-1.88-7.05-2.58-11.38-1.97l46.62,27.48
						C288.38,228.69,292.25,229.39,295.43,231.27L295.43,231.27z"/>
					<path class="st5" d="M284.05,229.3l-46.62-27.48c-2.54,0.36-5.24,1.18-8.05,2.47L276,231.78
						C278.81,230.48,281.51,229.66,284.05,229.3L284.05,229.3z"/>
					<path class="st6" d="M276,231.78l-46.62-27.48c-0.97,0.45-1.95,0.95-2.94,1.51l46.62,27.48
						C274.05,232.72,275.03,232.22,276,231.78L276,231.78z"/>
				</g>
			</g>
			<g class="st0">
				<defs>
					<path id="SVGID_15_" class="st0" d="M203.73,280.01l46.62,27.48c-5.61-3.32-9.06-10.31-9.01-20.22
						c0.1-19.93,14.3-44.1,31.72-53.99l-46.62-27.48c-17.42,9.88-31.62,34.05-31.72,53.99
						C194.68,269.69,198.12,276.69,203.73,280.01z"/>
				</defs>
				<clipPath id="SVGID_16_">
					<use xlink:href="#SVGID_15_"  style="overflow:visible;"/>
				</clipPath>
				<g class="st13">
					<path class="st6" d="M273.06,233.29l-46.62-27.48c-1.86,1.06-3.69,2.28-5.47,3.64l46.62,27.48
						C269.37,235.56,271.2,234.34,273.06,233.29L273.06,233.29z"/>
					<path class="st14" d="M267.6,236.93l-46.62-27.48c-11.06,8.47-20.17,22.41-24.13,36.32l46.62,27.48
						C247.42,259.33,256.54,245.4,267.6,236.93L267.6,236.93z"/>
					<path class="st6" d="M243.47,273.25l-46.62-27.48c-0.99,3.47-1.65,6.94-1.95,10.32l46.62,27.48
						C241.82,280.19,242.48,276.72,243.47,273.25L243.47,273.25z"/>
					<path class="st5" d="M241.52,283.57l-46.62-27.48c-0.11,1.25-0.17,2.48-0.17,3.7c-0.01,2.03,0.13,3.93,0.4,5.71l46.62,27.48
						c-0.27-1.78-0.41-3.68-0.4-5.71C241.35,286.05,241.41,284.82,241.52,283.57L241.52,283.57z"/>
					<path class="st3" d="M241.75,292.98l-46.62-27.48c1.06,6.9,4.15,11.86,8.61,14.5l46.62,27.48
						C245.89,304.85,242.8,299.89,241.75,292.98L241.75,292.98z"/>
				</g>
			</g>
			<g>
				<path class="st2" d="M273.06,233.29c-17.42,9.88-31.62,34.05-31.72,53.99c-0.09,19.94,13.95,28.08,31.37,18.2
					c17.42-9.88,31.62-34.05,31.72-53.99C304.53,231.55,290.49,223.4,273.06,233.29z"/>
			</g>
		</g>
	</g>
	<g>
		<g>
			
				<ellipse transform="matrix(0.5057 -0.8627 0.8627 0.5057 -97.8105 408.1886)" class="st5" cx="307.33" cy="289.45" rx="30.99" ry="17.95"/>
		</g>
		<path class="st5" d="M309.32,263.17c5.34-2.51,10.13-2.53,13.68-0.45l-25.07-30.16c-5.05-2.96-11.85-2.95-19.43,0.58l0,0
			c-0.04,0.02-0.08,0.04-0.12,0.06c-0.43,0.2-0.85,0.41-1.28,0.63c-0.05,0.03-0.11,0.06-0.16,0.08c-0.45,0.24-0.91,0.48-1.37,0.75
			c-17.38,9.95-31.49,34.17-31.51,54.11c-0.01,9.9,3.46,16.88,9.08,20.18l38.51,7.24c-3.94-2.31-6.37-7.19-6.36-14.13
			c0.01-13.95,9.89-30.91,22.06-37.87c0.32-0.18,0.64-0.36,0.96-0.52c0.04-0.02,0.07-0.04,0.11-0.06
			C308.72,263.45,309.02,263.31,309.32,263.17z"/>
	</g>
	<g>
		<g class="st0">
			<g>
				<path class="st2" d="M398.12,275.32c-0.47,38.18-27.55,84.01-60.49,102.37c-18.25,10.17-34.46,9.77-45.22,0.9
					c-1.05-0.88-2.38-2.14-3.32-3.14c-0.63-0.67-1.34-1.58-1.99-2.4c-0.24-0.3-0.47-0.59-0.69-0.85c-0.98-1.2-2.05-2.98-2.78-4.36
					c-1.08-2.05-2.57-4.86-3.99-9.51c-1.52-4.96-2.05-9.08-2.31-11.06c-0.21-1.6-0.39-3.75-0.47-5.37c-0.09-2-0.13-4.68-0.09-6.68
					c0.04-1.7,0.17-3.97,0.31-5.66c0.17-1.93,0.44-4.49,0.75-6.4c0.27-1.68,0.64-3.91,0.99-5.58c0.37-1.78,0.88-4.14,1.37-5.88
					c0.46-1.62,1.01-3.8,1.55-5.39c0.54-1.58,1.22-3.7,1.8-5.26c0.59-1.59,1.43-3.7,2.08-5.27c1.58-3.82,3.98-8.58,4.72-9.9
					c0.8-1.43,1.82-3.38,2.68-4.77c1.73-2.78,4.11-6.46,5.97-9.15c0.97-1.4,2.35-3.19,3.41-4.53c1.03-1.3,2.47-2.98,3.53-4.26
					c1.15-1.39,2.84-3.11,4.07-4.44c1.31-1.41,3.18-3.18,4.59-4.5c1.24-1.15,2.96-2.6,4.23-3.71c1.54-1.33,3.72-2.97,5.36-4.18
					c1.37-1.01,3.24-2.26,4.66-3.19c2.66-1.73,6.36-3.78,9.21-5.18c1.44-0.71,3.41-1.58,4.91-2.16c1.74-0.67,4.09-1.49,5.87-2.03
					c2.77-0.84,6.58-1.62,9.46-1.93c1.58-0.17,3.7-0.28,5.29-0.28c1.3-0.01,3.05,0.11,4.35,0.25c1.41,0.16,3.28,0.51,4.66,0.83
					c0.56,0.13,1.21,0.33,1.85,0.55c0.71,0.22,1.44,0.47,2.05,0.67C389.93,238.97,398.38,253.55,398.12,275.32z"/>
				<path class="st3" d="M382.84,264.46c-0.47,38.18-27.55,84.01-60.48,102.36c-13.27,7.39-25.46,9.21-35.26,6.24
					c-0.24-0.3-0.47-0.59-0.69-0.85c-0.98-1.2-2.05-2.98-2.78-4.36c-1.08-2.05-2.57-4.86-3.99-9.51c-1.52-4.96-2.05-9.08-2.31-11.06
					c-0.21-1.6-0.39-3.75-0.47-5.37c-0.09-2-0.13-4.68-0.09-6.68c0.04-1.7,0.17-3.97,0.31-5.66c0.17-1.93,0.44-4.49,0.75-6.4
					c0.27-1.68,0.64-3.91,0.99-5.58c0.37-1.78,0.88-4.14,1.37-5.88c0.46-1.62,1.01-3.8,1.55-5.39c0.54-1.58,1.22-3.7,1.8-5.26
					c0.59-1.59,1.43-3.7,2.08-5.27c1.58-3.82,3.98-8.58,4.72-9.9c0.8-1.43,1.82-3.38,2.68-4.77c1.73-2.78,4.11-6.46,5.97-9.15
					c0.97-1.4,2.35-3.19,3.41-4.53c1.03-1.3,2.47-2.98,3.53-4.26c1.15-1.39,2.84-3.11,4.07-4.44c1.31-1.41,3.18-3.18,4.59-4.5
					c1.24-1.15,2.96-2.6,4.23-3.71c1.54-1.33,3.72-2.97,5.36-4.18c1.37-1.01,3.24-2.26,4.66-3.19c2.66-1.73,6.36-3.78,9.21-5.18
					c1.44-0.71,3.41-1.58,4.91-2.16c1.74-0.67,4.09-1.49,5.87-2.03c2.77-0.84,6.58-1.62,9.46-1.93c1.58-0.17,3.7-0.28,5.29-0.28
					c1.3-0.01,3.05,0.11,4.35,0.25c1.41,0.16,3.28,0.51,4.66,0.83c0.56,0.13,1.21,0.33,1.85,0.55
					C379.93,240.6,383,251.2,382.84,264.46z"/>
				<path class="st6" d="M377.72,231.49c-1.23-0.39-2.84-1-4.1-1.31c-1.77-0.42-4.15-0.9-5.96-1.1c-1.36-0.15-3.18-0.3-4.55-0.29
					c-2.06,0.01-4.8,0.13-6.85,0.33c-1.47,0.14-3.41,0.44-4.86,0.74c-2.19,0.47-5.08,1.2-7.23,1.83c-3.09,0.91-7.07,2.58-10,3.92
					c-0.5,0.23-5.07,2.35-10.25,5.68c-1.42,0.92-3.3,2.18-4.67,3.18c-1.69,1.24-3.92,2.93-5.52,4.29c-1.56,1.33-5.71,4.88-8.66,8.06
					c-1.18,1.28-2.81,2.95-3.92,4.28c-2.07,2.48-4.79,5.82-6.68,8.43c-3.47,4.82-5.87,8.99-5.9,9.02c-1.56,2.78-3.56,6.54-5,9.39
					c-0.72,1.44-1.58,3.41-2.2,4.89c-0.63,1.52-1.45,3.56-2.02,5.1c-0.56,1.53-1.23,3.61-1.76,5.15c-0.53,1.56-1.07,3.69-1.52,5.28
					c-0.01,0.05-1.4,5.11-2.3,11.24c-0.67,4.52-1.03,9-1.08,13.29c-0.02,1.68,0,3.93,0.1,5.61c0.13,2.21,0.4,5.14,0.69,7.33
					c0.21,1.57,0.56,3.65,0.91,5.2c0.49,2.15,1.25,5,1.9,7.11c0.86,2.78,2.43,6.34,3.75,8.93c0.92,1.8,2.39,4.08,3.53,5.76
					c0.75,1.11,1.94,2.45,2.77,3.5c1.2,1.51,3.15,3.2,4.6,4.46c-8.94-7.37-14.22-20.4-14-37.96c0.48-39.39,28.42-86.67,62.4-105.61
					C353.95,229.11,367.29,227.53,377.72,231.49z"/>
				<path class="st5" d="M337.6,379.88c-33.98,18.94-61.14,2.36-60.66-37.03c0.48-39.39,28.42-86.67,62.4-105.61
					c33.98-18.94,61.14-2.36,60.66,37.03C399.52,313.66,371.58,360.94,337.6,379.88z M398.12,275.33
					c0.47-38.18-25.86-54.25-58.79-35.89s-60.02,64.19-60.49,102.36c-0.47,38.18,25.86,54.25,58.79,35.89
					C370.57,359.33,397.65,313.5,398.12,275.33L398.12,275.33z"/>
			</g>
		</g>
	</g>
	<g>
		<g class="st0">
			<g>
				<polygon class="st6" points="334.6,323.4 332.7,322.3 327.32,314.74 329.22,315.84 				"/>
			</g>
			<g>
				<polygon class="st6" points="329.22,315.84 327.32,314.74 332.64,301 334.54,302.1 				"/>
			</g>
			<g>
				<polygon class="st6" points="334.54,302.1 332.64,301 343.34,294.83 345.23,295.93 				"/>
			</g>
			<g>
				<polygon class="st14" points="345.23,295.93 350.61,303.49 345.3,317.22 334.6,323.4 329.22,315.84 334.54,302.1 				"/>
			</g>
		</g>
	</g>
	<g>
		<g>
			<g class="st0">
				<g class="st0">
					<defs>
						<path id="SVGID_17_" class="st0" d="M196.75,292.91l17.66-10.27c0.25-0.15,0.6-0.13,0.99,0.1l-17.66,10.27
							C197.36,292.79,197.01,292.77,196.75,292.91z"/>
					</defs>
					<use xlink:href="#SVGID_17_"  style="overflow:visible;fill:#C1C8DC;"/>
					<clipPath id="SVGID_18_">
						<use xlink:href="#SVGID_17_"  style="overflow:visible;"/>
					</clipPath>
					<g class="st15">
						<path class="st3" d="M196.75,292.91l17.66-10.27c0.14-0.08,0.31-0.11,0.5-0.08l-17.66,10.27
							C197.07,292.8,196.9,292.83,196.75,292.91L196.75,292.91z"/>
						<path class="st3" d="M197.26,292.83l17.66-10.27c0.11,0.02,0.23,0.05,0.35,0.11l-17.66,10.27
							C197.49,292.88,197.37,292.85,197.26,292.83L197.26,292.83z"/>
						<path class="st3" d="M197.61,292.94l17.66-10.27c0.04,0.02,0.09,0.04,0.13,0.07l-17.66,10.27
							C197.7,292.98,197.65,292.96,197.61,292.94L197.61,292.94z"/>
					</g>
				</g>
				<g class="st0">
					<defs>
						<path id="SVGID_19_" class="st0" d="M216.38,286.02l-17.66,10.27c0.25-0.14,0.4-0.45,0.4-0.89c0-0.88-0.62-1.95-1.38-2.39
							l17.66-10.27c0.77,0.44,1.38,1.51,1.38,2.39C216.78,285.57,216.63,285.87,216.38,286.02z"/>
					</defs>
					<use xlink:href="#SVGID_19_"  style="overflow:visible;fill:#C1C8DC;"/>
					<clipPath id="SVGID_20_">
						<use xlink:href="#SVGID_19_"  style="overflow:visible;"/>
					</clipPath>
					<g class="st16">
						<path class="st3" d="M197.74,293.01l17.66-10.27c0.08,0.05,0.16,0.1,0.24,0.16l-17.66,10.27
							C197.9,293.11,197.82,293.06,197.74,293.01L197.74,293.01z"/>
						<path class="st3" d="M197.98,293.17l17.66-10.27c0.49,0.38,0.88,1,1.05,1.61l-17.66,10.27
							C198.86,294.17,198.47,293.55,197.98,293.17L197.98,293.17z"/>
						<path class="st3" d="M199.03,294.78l17.66-10.27c0.04,0.15,0.07,0.31,0.08,0.46l-17.66,10.27
							C199.1,295.09,199.08,294.94,199.03,294.78L199.03,294.78z"/>
						<path class="st3" d="M199.12,295.24l17.66-10.27c0,0.05,0.01,0.11,0.01,0.16c0,0.09-0.01,0.17-0.02,0.25l-17.66,10.27
							c0.01-0.08,0.02-0.16,0.02-0.25C199.12,295.35,199.12,295.29,199.12,295.24L199.12,295.24z"/>
						<path class="st3" d="M199.1,295.65l17.66-10.27c-0.05,0.3-0.19,0.52-0.38,0.64l-17.66,10.27
							C198.92,296.18,199.05,295.96,199.1,295.65L199.1,295.65z"/>
					</g>
				</g>
				<g>
					<path class="st3" d="M197.74,293.01c0.77,0.44,1.38,1.51,1.38,2.39c0,0.88-0.62,1.23-1.39,0.79c-0.77-0.44-1.38-1.51-1.38-2.39
						C196.35,292.92,196.98,292.57,197.74,293.01z"/>
				</g>
			</g>
		</g>
		<g>
			<g class="st0">
				<g class="st0">
					<defs>
						<path id="SVGID_21_" class="st0" d="M191.81,258.08l17.66-10.27c0.25-0.15,0.6-0.13,0.99,0.1l-17.66,10.27
							C192.41,257.95,192.06,257.93,191.81,258.08z"/>
					</defs>
					<use xlink:href="#SVGID_21_"  style="overflow:visible;fill:#C1C8DC;"/>
					<clipPath id="SVGID_22_">
						<use xlink:href="#SVGID_21_"  style="overflow:visible;"/>
					</clipPath>
					<g class="st17">
						<path class="st3" d="M191.81,258.08l17.66-10.27c0.14-0.08,0.31-0.11,0.5-0.08L192.31,258
							C192.12,257.97,191.95,258,191.81,258.08L191.81,258.08z"/>
						<path class="st3" d="M192.31,258l17.66-10.27c0.11,0.02,0.23,0.05,0.35,0.11l-17.66,10.27
							C192.54,258.05,192.42,258.01,192.31,258L192.31,258z"/>
						<path class="st3" d="M192.66,258.11l17.66-10.27c0.04,0.02,0.09,0.04,0.13,0.07l-17.66,10.27
							C192.75,258.15,192.71,258.13,192.66,258.11L192.66,258.11z"/>
					</g>
				</g>
				<g class="st0">
					<defs>
						<path id="SVGID_23_" class="st0" d="M211.43,251.19l-17.66,10.27c0.25-0.14,0.4-0.45,0.4-0.89c0-0.88-0.62-1.95-1.38-2.39
							l17.66-10.27c0.77,0.44,1.38,1.51,1.38,2.39C211.84,250.73,211.68,251.04,211.43,251.19z"/>
					</defs>
					<use xlink:href="#SVGID_23_"  style="overflow:visible;fill:#C1C8DC;"/>
					<clipPath id="SVGID_24_">
						<use xlink:href="#SVGID_23_"  style="overflow:visible;"/>
					</clipPath>
					<g class="st18">
						<path class="st3" d="M192.79,258.18l17.66-10.27c0.08,0.05,0.16,0.1,0.24,0.16l-17.66,10.27
							C192.96,258.28,192.88,258.22,192.79,258.18L192.79,258.18z"/>
						<path class="st3" d="M193.03,258.34l17.66-10.27c0.48,0.38,0.88,1,1.05,1.61l-17.66,10.27
							C193.92,259.33,193.52,258.72,193.03,258.34L193.03,258.34z"/>
						<path class="st3" d="M194.09,259.95l17.66-10.27c0.04,0.15,0.07,0.31,0.08,0.46l-17.66,10.27
							C194.16,260.26,194.13,260.1,194.09,259.95L194.09,259.95z"/>
						<path class="st3" d="M194.17,260.41l17.66-10.27c0,0.05,0.01,0.11,0.01,0.16c0,0.09-0.01,0.17-0.02,0.25l-17.66,10.27
							c0.01-0.08,0.02-0.16,0.02-0.25C194.18,260.52,194.17,260.46,194.17,260.41L194.17,260.41z"/>
						<path class="st3" d="M194.16,260.82l17.66-10.27c-0.05,0.3-0.19,0.52-0.38,0.64l-17.66,10.27
							C193.97,261.34,194.11,261.13,194.16,260.82L194.16,260.82z"/>
					</g>
				</g>
				<g>
					<path class="st3" d="M192.79,258.18c0.77,0.44,1.38,1.51,1.38,2.39c0,0.88-0.62,1.23-1.39,0.79c-0.77-0.44-1.38-1.51-1.38-2.39
						C191.41,258.09,192.03,257.73,192.79,258.18z"/>
				</g>
			</g>
		</g>
		<g>
			<g>
				<g class="st0">
					<g>
						<polygon class="st5" points="78.47,376.2 75.19,374.3 75,304.39 78.28,306.3 						"/>
					</g>
					<g>
						<polygon class="st19" points="78.28,306.3 75,304.39 197.02,233.95 200.3,235.85 						"/>
					</g>
					<g>
						<polygon class="st6" points="200.3,235.85 200.49,305.75 78.47,376.2 78.28,306.3 						"/>
					</g>
				</g>
			</g>
			<g>
				<polygon class="st7" points="197.74,304.75 81.03,372.13 81.03,307.3 197.74,239.92 				"/>
				<g>
					<g>
						
							<rect x="70.54" y="288.99" transform="matrix(0.8661 -0.4998 0.4998 0.8661 -126.0234 108.4194)" class="st6" width="137.69" height="0.95"/>
					</g>
					<g>
						
							<rect x="70.54" y="305.55" transform="matrix(0.8661 -0.4998 0.4998 0.8661 -134.3007 110.6365)" class="st6" width="137.69" height="0.95"/>
					</g>
					<g>
						
							<rect x="70.54" y="322.11" transform="matrix(0.8661 -0.4998 0.4998 0.8661 -142.5779 112.8536)" class="st6" width="137.69" height="0.95"/>
					</g>
					<g>
						<rect x="178.66" y="249.96" class="st6" width="0.95" height="66.24"/>
					</g>
					<g>
						<rect x="158.78" y="261.43" class="st6" width="0.95" height="66.24"/>
					</g>
					<g>
						<rect x="138.91" y="272.91" class="st6" width="0.95" height="66.24"/>
					</g>
					<g>
						<rect x="119.03" y="284.38" class="st6" width="0.95" height="66.24"/>
					</g>
					<g>
						<rect x="99.16" y="295.85" class="st6" width="0.95" height="66.24"/>
					</g>
				</g>
			</g>
		</g>
	</g>
	<g>
		<g class="st0">
			<g>
				<polygon class="st5" points="352.65,326.27 337.34,317.38 334.38,313.23 349.69,322.13 				"/>
			</g>
			<g>
				<polygon class="st5" points="349.69,322.13 334.38,313.23 337.3,305.69 352.61,314.58 				"/>
			</g>
			<g>
				<polygon class="st6" points="352.61,314.58 337.3,305.69 343.18,302.3 358.49,311.19 				"/>
			</g>
			<g>
				<polygon class="st14" points="358.49,311.19 361.44,315.35 358.52,322.88 352.65,326.27 349.69,322.13 352.61,314.58 				"/>
			</g>
		</g>
	</g>
	<g>
		<g class="st0">
			<g>
				<polygon class="st5" points="382.17,338.74 354.61,322.72 353.14,320.67 380.7,336.68 				"/>
			</g>
			<g>
				<polygon class="st6" points="380.7,336.68 353.14,320.67 354.6,316.92 382.15,332.93 				"/>
			</g>
			<g>
				<polygon class="st6" points="382.15,332.93 354.6,316.92 357.51,315.24 385.07,331.25 				"/>
			</g>
			<g>
				<polygon class="st14" points="385.07,331.25 386.54,333.31 385.09,337.06 382.17,338.74 380.7,336.68 382.15,332.93 				"/>
			</g>
		</g>
	</g>
	<g>
		<g class="st0">
			<g class="st0">
				<defs>
					<path id="SVGID_25_" class="st0" d="M417.1,351.34l-31.97-18.3c-0.28-0.16-0.68-0.14-1.11,0.11l31.97,18.29
						C416.42,351.19,416.82,351.17,417.1,351.34z"/>
				</defs>
				<clipPath id="SVGID_26_">
					<use xlink:href="#SVGID_25_"  style="overflow:visible;"/>
				</clipPath>
				<g class="st20">
					<path class="st3" d="M417.1,351.34l-31.97-18.3c-0.16-0.09-0.35-0.13-0.57-0.09l31.97,18.3
						C416.75,351.21,416.94,351.24,417.1,351.34L417.1,351.34z"/>
					<path class="st6" d="M416.53,351.24l-31.97-18.3c-0.13,0.02-0.26,0.06-0.4,0.13l31.97,18.3
						C416.27,351.3,416.41,351.26,416.53,351.24L416.53,351.24z"/>
					<path class="st6" d="M416.13,351.37l-31.97-18.3c-0.05,0.02-0.1,0.05-0.15,0.08l31.97,18.29
						C416.04,351.42,416.09,351.39,416.13,351.37L416.13,351.37z"/>
				</g>
			</g>
			<g class="st0">
				<defs>
					<path id="SVGID_27_" class="st0" d="M382.92,336.84l31.97,18.3c-0.28-0.16-0.45-0.51-0.46-1c0-0.99,0.69-2.2,1.56-2.69
						l-31.97-18.29c-0.86,0.5-1.56,1.7-1.56,2.69C382.47,336.33,382.64,336.68,382.92,336.84z"/>
				</defs>
				<clipPath id="SVGID_28_">
					<use xlink:href="#SVGID_27_"  style="overflow:visible;"/>
				</clipPath>
				<g class="st21">
					<path class="st6" d="M415.99,351.44l-31.97-18.29c-0.09,0.05-0.18,0.11-0.27,0.18l31.97,18.3
						C415.81,351.56,415.9,351.5,415.99,351.44L415.99,351.44z"/>
					<path class="st6" d="M415.72,351.63l-31.97-18.3c-0.55,0.43-0.99,1.12-1.18,1.81l31.97,18.3
						C414.73,352.75,415.17,352.05,415.72,351.63L415.72,351.63z"/>
					<path class="st6" d="M414.53,353.44l-31.97-18.3c-0.05,0.17-0.08,0.35-0.09,0.51l31.97,18.3
						C414.45,353.79,414.49,353.61,414.53,353.44L414.53,353.44z"/>
					<path class="st6" d="M414.44,353.95l-31.97-18.3c-0.01,0.06-0.01,0.12-0.01,0.18c0,0.1,0.01,0.2,0.02,0.28l31.97,18.3
						c-0.01-0.09-0.02-0.18-0.02-0.28C414.43,354.08,414.44,354.02,414.44,353.95L414.44,353.95z"/>
					<path class="st3" d="M414.46,354.42l-31.97-18.3c0.05,0.34,0.21,0.59,0.43,0.72l31.97,18.3
						C414.67,355.01,414.51,354.76,414.46,354.42L414.46,354.42z"/>
				</g>
			</g>
			<g>
				<path class="st2" d="M415.99,351.44c-0.86,0.5-1.56,1.7-1.56,2.69c0,0.99,0.7,1.39,1.57,0.89c0.86-0.5,1.56-1.7,1.56-2.69
					C417.55,351.35,416.85,350.95,415.99,351.44z"/>
			</g>
		</g>
	</g>
	<g>
		<g class="st0">
			<g>
				<polygon class="st2" points="412.61,364.28 411.15,363.43 406.99,357.59 408.45,358.44 				"/>
			</g>
			<g>
				<polygon class="st3" points="408.45,358.44 406.99,357.59 411.1,346.97 412.57,347.82 				"/>
			</g>
			<g>
				<polygon class="st5" points="412.57,347.82 411.1,346.97 419.38,342.19 420.84,343.04 				"/>
			</g>
			<g>
				<polygon class="st14" points="420.84,343.04 425,348.89 420.89,359.51 412.61,364.28 408.45,358.44 412.57,347.82 				"/>
			</g>
		</g>
	</g>
</g>
</svg>
