<?xml version="1.0" encoding="utf-8"?>
<!-- Generator: Adobe Illustrator 24.2.3, SVG Export Plug-In . SVG Version: 6.00 Build 0)  -->
<svg version="1.1" id="Layer_1" xmlns="http://www.w3.org/2000/svg" xmlns:xlink="http://www.w3.org/1999/xlink" x="0px" y="0px"
	 viewBox="0 0 89.5 89.5" style="enable-background:new 0 0 89.5 89.5;" xml:space="preserve">
<style type="text/css">
	.st0{fill:#AA8D5E;}
	.st1{fill:#8E6B39;}
	.st2{fill:#333333;}
</style>
<g id="Layer_2_1_">
	<g id="Board_Game">
		<path class="st0" d="M11.4,44.8c0-7.5,0.2-19.6,12.1-21.9s15.6-4.9,20-8S53,8.9,63,14.6c3.9,2.7,6.8,4.3,9.8,13.6s5.4,10.5,5.4,16
			s-2.7,12.7-7.2,15.8c-3.5,2.4-5.9,6-6.8,10.2c-0.7,3.1-2,7.4-5.7,8c-3.7,0.5-5.4-2.7-8.8-2.9c-3.4-0.3-7.6,4.9-17.1-0.3
			S21.9,62.7,18.4,59.5S11.4,50.6,11.4,44.8z"/>
		<path class="st1" d="M68.3,19.1c-2.8,2.3-7.1,3.2-11.6,2.2c-5-1.2-8.7-4.6-9.7-8.4c3.8-1.9,8.4-2.5,15.9,1.7
			C65,16,66.7,17.1,68.3,19.1z"/>
		<ellipse transform="matrix(0.236 -0.9718 0.9718 0.236 9.2762 78.787)" class="st1" cx="54.7" cy="33.5" rx="5.1" ry="6.6"/>
		<ellipse transform="matrix(0.7071 -0.7071 0.7071 0.7071 -19.4899 60.0964)" class="st1" cx="62.8" cy="53.6" rx="4.6" ry="3.6"/>
		<ellipse transform="matrix(0.9048 -0.4259 0.4259 0.9048 -23.26 18.8403)" class="st1" cx="30.5" cy="61.4" rx="2.9" ry="3.5"/>
		<ellipse transform="matrix(0.9048 -0.4259 0.4259 0.9048 -16.8846 23.2135)" class="st1" cx="43.5" cy="49.4" rx="3.7" ry="2.7"/>
		<path class="st2" d="M77,36.2c-1.3-2.7-2.4-5.5-3.3-8.4c-2.8-9-5.7-11-9.3-13.5l-0.8-0.6l-0.1-0.1c-7.6-4.3-12.5-3.8-16.7-1.8
			c-0.1,0-0.2,0.1-0.3,0.2c-1.2,0.6-2.4,1.3-3.5,2.1l-0.3,0.2c-4.3,2.9-8,5.5-19.3,7.6c-6.3,1.2-10.4,5.2-12,12
			c-0.1,0.5,0.2,1.1,0.8,1.2c0.5,0.1,1.1-0.2,1.2-0.8c1.4-6,4.8-9.5,10.4-10.5c11.8-2.2,15.8-5,20.1-7.9l0.3-0.2
			c0.8-0.5,1.5-1.1,2.4-1.5c1.5,3.7,5.4,6.8,10,7.9c1.3,0.3,2.6,0.5,3.9,0.5c2.7,0,5.4-0.7,7.7-2.2c1.6,2.4,2.8,5.1,3.6,7.9
			c0.9,3,2.1,5.8,3.4,8.6c1.2,2.6,2,4.2,2,7.1c0,5-2.5,12-6.7,14.9c-3.7,2.5-6.3,6.4-7.2,10.8c-1,4.5-2.6,6.8-4.9,7.2
			c-1.7,0.2-2.9-0.5-4.3-1.3c-1.3-0.9-2.8-1.5-4.3-1.7c-1.3,0-2.6,0.3-3.8,0.8c-3,1.1-6.6,2.4-12.9-1c-6.1-3.3-8.5-7.4-10.5-10.8
			c-0.9-1.6-2-3.1-3.3-4.5c-3.3-3-6.6-8.4-6.6-13.9c0-0.6-0.5-1-1-1c-0.6,0-1,0.5-1,1c0,6.1,3.7,12.2,7.3,15.4
			c1.2,1.2,2.2,2.6,3,4.1c2.1,3.5,4.8,7.9,11.3,11.4c7.1,3.8,11.4,2.2,14.6,1.1c0.9-0.4,1.9-0.7,2.9-0.7c1.2,0.2,2.4,0.6,3.5,1.4
			c1.4,1,3,1.5,4.6,1.6c0.3,0,0.6,0,0.9-0.1c4.8-0.7,6.1-6.7,6.6-8.7c0.8-3.9,3.1-7.3,6.4-9.6c4.9-3.4,7.6-11.1,7.6-16.6
			C79.1,40.8,78.2,38.9,77,36.2z M57,20.2c-4.2-1-7.5-3.7-8.7-6.9c3.3-1.4,7.5-1.7,14.1,2.1l0.8,0.5c1.3,0.9,2.6,1.8,3.7,2.9
			C63.9,20.7,60.3,21.1,57,20.2L57,20.2z"/>
		<path class="st2" d="M11.4,41.4L11.4,41.4c0.6,0,1-0.4,1.1-1c0-0.8,0.1-1.5,0.2-2.1c0-0.6-0.4-1-1-1c-0.5,0-0.9,0.3-1,0.8
			c-0.1,0.7-0.1,1.4-0.2,2.2C10.4,40.9,10.8,41.4,11.4,41.4C11.4,41.4,11.4,41.4,11.4,41.4z"/>
		<path class="st2" d="M55.7,29.5c0.5,0.1,1.1-0.2,1.2-0.7c0.1-0.5-0.2-1.1-0.7-1.2c-4.1-1-8,0.9-8.8,4.2s1.9,6.8,5.9,7.8
			c0.7,0.2,1.5,0.3,2.2,0.3c1.1,0,2.3-0.2,3.3-0.7c1.6-0.7,2.8-2.1,3.3-3.8c0.4-1.9-0.2-3.9-1.5-5.3c-0.4-0.4-1-0.5-1.4-0.1
			c-0.4,0.4-0.5,1-0.1,1.4l0,0l0,0c0.9,0.9,1.3,2.2,1.1,3.4c-0.3,1.1-1.1,2-2.1,2.4c-1.3,0.6-2.8,0.7-4.2,0.3c-3-0.7-5-3.1-4.4-5.3
			S52.7,28.8,55.7,29.5L55.7,29.5z"/>
		<path class="st2" d="M66.1,56.9c2.2-2.2,2.5-5.5,0.7-7.3c-1-0.9-2.3-1.4-3.6-1.1c-1.4,0.2-2.7,0.9-3.7,1.9
			c-2.2,2.2-2.5,5.5-0.7,7.3c0.8,0.8,1.9,1.2,3,1.2C63.4,58.7,65,58.1,66.1,56.9L66.1,56.9z M60.2,56.1c-1-1-0.7-3,0.7-4.4
			c0.7-0.7,1.5-1.1,2.5-1.3c0.1,0,0.3,0,0.4,0c0.6,0,1.1,0.2,1.5,0.6c1,1,0.7,3-0.7,4.4C63.2,56.8,61.2,57.2,60.2,56.1L60.2,56.1z"
			/>
		<path class="st2" d="M26.6,59.8c-0.3,1.1-0.2,2.3,0.3,3.3c0.7,1.6,2.2,2.6,4,2.7c0.5,0,1.1-0.1,1.5-0.3c2-0.9,2.7-3.5,1.7-5.7
			c-0.5-1-1.3-1.9-2.3-2.3c-1.8-0.9-4-0.2-4.9,1.6c0,0,0,0,0,0C26.8,59.3,26.7,59.5,26.6,59.8L26.6,59.8z M29.4,59.2
			c0.2-0.1,0.4-0.1,0.6-0.1c0.3,0,0.6,0.1,0.8,0.2c0.6,0.3,1.1,0.8,1.3,1.4c0.6,1.2,0.3,2.6-0.7,3.1c-1,0.5-2.2-0.2-2.8-1.4
			c-0.3-0.6-0.4-1.3-0.2-1.9C28.7,59.8,29,59.4,29.4,59.2L29.4,59.2z"/>
		<path class="st2" d="M41.9,46c-2.4,1.1-3.6,3.5-2.7,5.3c0.7,1.2,2,2,3.4,1.9c0.9,0,1.7-0.2,2.5-0.6c2.4-1.1,3.6-3.5,2.7-5.3
			S44.3,44.9,41.9,46z M44.2,50.8c-1.4,0.7-2.8,0.4-3.1-0.3c-0.3-0.7,0.3-2,1.7-2.6c0.5-0.2,1-0.4,1.5-0.4c0.6-0.1,1.2,0.2,1.5,0.7
			C46.2,48.9,45.6,50.1,44.2,50.8z"/>
		<path class="st2" d="M38.6,23.8c-1.3,1.5-6.3,2.4-7.9,2.3c-0.6,0-1,0.4-1.1,1c0,0.6,0.4,1,1,1.1h0.2c1.9,0,7.4-0.8,9.3-3.1
			c0.3-0.5,0.2-1.1-0.3-1.4C39.5,23.4,39,23.4,38.6,23.8L38.6,23.8z"/>
		<path class="st2" d="M17.7,41.4c-0.6-0.1-1.1,0.3-1.1,0.9c0,0,0,0,0,0l0,0c-0.1,1.4,0.1,5.7,2.1,7.3c0.5,0.3,1.1,0.2,1.4-0.3
			c0.3-0.4,0.2-1-0.1-1.3c-1.1-0.9-1.5-4.1-1.4-5.6C18.6,42,18.2,41.5,17.7,41.4C17.7,41.4,17.7,41.4,17.7,41.4L17.7,41.4z"/>
		<path class="st2" d="M71.3,46.7L71.3,46.7c0.6,0,1-0.4,1.1-1c0,0,0,0,0,0c0.1-2.8-0.3-5.5-1.2-8.2c-0.2-0.5-0.8-0.8-1.3-0.6
			c-0.5,0.2-0.8,0.8-0.6,1.3c0.8,2.4,1.2,4.9,1.1,7.4C70.3,46.2,70.8,46.7,71.3,46.7L71.3,46.7z"/>
		<path class="st2" d="M59,62.5c-2.4,2.4-2.8,7.6-2.9,7.8c0,0.6,0.4,1.1,0.9,1.1h0.1c0.5,0,1-0.4,1-0.9c0.1-1.3,0.8-5,2.3-6.6
			c0.4-0.4,0.4-1,0-1.4C60,62.1,59.4,62.1,59,62.5L59,62.5z"/>
		<path class="st2" d="M29.7,45.4c-0.2,0.5,0.1,1.1,0.6,1.3c0,0,0,0,0,0c0.1,0,0.2,0.1,0.3,0.1c0.4,0,0.8-0.3,1-0.7
			c0.8-2.3,4.2-4.3,5.3-4.1c0.6,0.1,1.1-0.3,1.2-0.8c0.1-0.6-0.3-1.1-0.8-1.2l0,0l0,0C35,39.6,30.7,42.3,29.7,45.4z"/>
	</g>
</g>
</svg>
