<?xml version="1.0" encoding="utf-8"?>
<!-- Generator: Adobe Illustrator 24.3.0, SVG Export Plug-In . SVG Version: 6.00 Build 0)  -->
<svg version="1.1" id="Layer_1" xmlns="http://www.w3.org/2000/svg" xmlns:xlink="http://www.w3.org/1999/xlink" x="0px" y="0px"
	 viewBox="0 0 500 500" style="enable-background:new 0 0 500 500;" xml:space="preserve">
<style type="text/css">
	.st0{enable-background:new    ;}
	.st1{clip-path:url(#SVGID_2_);enable-background:new    ;}
	.st2{fill:#D8DFE9;}
	.st3{fill:#E8EEF4;}
	.st4{fill:#A4A9C2;}
	.st5{clip-path:url(#SVGID_4_);enable-background:new    ;}
	.st6{fill:#C1C8DC;}
	.st7{fill:#FFD33A;}
	.st8{clip-path:url(#SVGID_6_);enable-background:new    ;}
	.st9{clip-path:url(#SVGID_8_);enable-background:new    ;}
	.st10{clip-path:url(#SVGID_10_);enable-background:new    ;}
	.st11{clip-path:url(#SVGID_12_);enable-background:new    ;}
	.st12{fill:#FFD438;}
	.st13{clip-path:url(#SVGID_14_);enable-background:new    ;}
	.st14{fill:#FFFFFF;}
</style>
<g id="yellow_rocket_2_">
	<g>
		<g class="st0">
			<g class="st0">
				<defs>
					<path id="SVGID_1_" class="st0" d="M270.21,278.56l-0.19,103.86c-0.01,2.96-1.96,5.92-5.84,8.18c-7.83,4.55-20.57,4.55-28.45,0
						c-3.97-2.29-5.95-5.3-5.94-8.3l0.19-103.86c-0.01,3,1.97,6.01,5.94,8.3c7.88,4.55,20.62,4.55,28.45,0
						C268.26,284.48,270.2,281.52,270.21,278.56z"/>
				</defs>
				<use xlink:href="#SVGID_1_"  style="overflow:visible;fill:#D8DFE9;"/>
				<clipPath id="SVGID_2_">
					<use xlink:href="#SVGID_1_"  style="overflow:visible;"/>
				</clipPath>
				<g class="st1">
					<path class="st2" d="M270.21,278.56l-0.19,103.86c-0.01,1.99-0.88,3.97-2.63,5.75l0.19-103.86
						C269.33,282.53,270.21,280.54,270.21,278.56L270.21,278.56z"/>
					<path class="st2" d="M267.58,284.3l-0.19,103.86c-0.86,0.87-1.93,1.69-3.21,2.43c-1.34,0.78-2.83,1.42-4.41,1.94l0.19-103.86
						c1.58-0.51,3.06-1.16,4.41-1.94C265.65,285.99,266.72,285.17,267.58,284.3L267.58,284.3z"/>
					<path class="st3" d="M259.96,288.67l-0.19,103.86c-3.43,1.11-7.31,1.6-11.14,1.45l0.19-103.86
						C252.65,290.27,256.53,289.79,259.96,288.67L259.96,288.67z"/>
					<path class="st2" d="M248.82,290.12l-0.19,103.86c-3.54-0.14-7.03-0.81-10.08-2.03l0.19-103.86
						C241.79,289.31,245.29,289.99,248.82,290.12L248.82,290.12z"/>
					<path class="st2" d="M238.75,288.1l-0.19,103.86c-0.99-0.4-1.94-0.85-2.83-1.36c-3.97-2.29-5.95-5.3-5.94-8.3l0.19-103.86
						c-0.01,3,1.97,6.01,5.94,8.3C236.81,287.25,237.75,287.7,238.75,288.1L238.75,288.1z"/>
				</g>
			</g>
			<g>
				<path class="st4" d="M264.27,270.26c7.88,4.55,7.92,11.93,0.09,16.48c-7.83,4.55-20.57,4.55-28.45,0
					c-7.88-4.55-7.92-11.93-0.09-16.48C243.66,265.71,256.39,265.71,264.27,270.26z"/>
			</g>
		</g>
	</g>
	<g>
		<g class="st0">
			<g class="st0">
				<defs>
					<path id="SVGID_3_" class="st0" d="M264.69,256.37l-0.06,20.54c-0.01,2.16-1.42,4.31-4.26,5.96c-5.71,3.32-14.99,3.32-20.73,0
						c-2.89-1.67-4.33-3.86-4.33-6.05l0.06-20.54c-0.01,2.19,1.44,4.38,4.33,6.05c5.74,3.32,15.02,3.32,20.73,0
						C263.27,260.68,264.68,258.53,264.69,256.37z"/>
				</defs>
				<use xlink:href="#SVGID_3_"  style="overflow:visible;fill:#C1C8DC;"/>
				<clipPath id="SVGID_4_">
					<use xlink:href="#SVGID_3_"  style="overflow:visible;"/>
				</clipPath>
				<g class="st5">
					<path class="st6" d="M264.69,256.37l-0.06,20.54c0,1.45-0.64,2.89-1.92,4.19l0.06-20.54
						C264.05,259.26,264.69,257.82,264.69,256.37L264.69,256.37z"/>
					<path class="st6" d="M262.77,260.56l-0.06,20.54c-0.63,0.63-1.41,1.23-2.34,1.77c-0.98,0.57-2.06,1.04-3.21,1.41l0.06-20.54
						c1.15-0.37,2.23-0.84,3.21-1.41C261.36,261.79,262.14,261.19,262.77,260.56L262.77,260.56z"/>
					<path class="st6" d="M257.22,263.74l-0.06,20.54c-2.5,0.81-5.33,1.16-8.12,1.06l0.06-20.54
						C251.89,264.9,254.72,264.55,257.22,263.74L257.22,263.74z"/>
					<path class="st6" d="M249.1,264.8l-0.06,20.54c-2.58-0.1-5.12-0.59-7.34-1.48l0.06-20.54
						C243.98,264.21,246.53,264.7,249.1,264.8L249.1,264.8z"/>
					<path class="st6" d="M241.76,263.32l-0.06,20.54c-0.72-0.29-1.41-0.62-2.06-0.99c-2.89-1.67-4.33-3.86-4.33-6.05l0.06-20.54
						c-0.01,2.19,1.44,4.38,4.33,6.05C240.35,262.7,241.04,263.03,241.76,263.32L241.76,263.32z"/>
				</g>
			</g>
			<g>
				<path class="st6" d="M260.36,250.32c5.74,3.32,5.77,8.69,0.07,12.01c-5.71,3.32-14.99,3.32-20.73,0s-5.77-8.69-0.07-12.01
					C245.34,247.01,254.62,247.01,260.36,250.32z"/>
			</g>
		</g>
	</g>
	<g>
		<path class="st3" d="M260.01,399.88c0.43-54.75,4.82-89.35,9.77-89.33c5.06,0.01,15.76,36.26,16.03,92.99c0,0.11,0.01,0.72,0,0.92
			c-0.12,1.99-1.49,3.96-4.12,5.48c-5.49,3.17-14.35,3.17-19.8,0C257.2,407.21,256.57,403.01,260.01,399.88z"/>
		<path class="st7" d="M257.83,404.47c0-0.02,0-0.05,0-0.07c0.02-3.89,0.08-7.68,0.17-11.37c0.44,1.63,1.73,3.2,3.9,4.45
			c5.45,3.17,14.32,3.17,19.8,0c2.2-1.27,3.52-2.85,3.96-4.5c0.09,3.7,0.15,7.5,0.17,11.4c0,0.03,0,0.06,0,0.09c0,0.1,0,0.19,0,0.29
			c-0.01,0.02-0.01,0.04-0.02,0.06c-0.17,1.95-1.54,3.86-4.11,5.35c-2.41,1.39-5.48,2.17-8.63,2.34c-0.41,0.02-0.82,0.03-1.24,0.03
			c-0.01,0-0.01,0-0.02,0c-3.59,0-7.18-0.79-9.91-2.38c-2.59-1.5-3.94-3.45-4.06-5.42c0-0.01-0.01-0.03-0.01-0.04
			C257.83,404.63,257.83,404.55,257.83,404.47z"/>
	</g>
	<g>
		<path class="st3" d="M239.99,399.88c-0.43-54.75-4.82-89.35-9.77-89.33c-5.06,0.01-15.76,36.26-16.03,92.99
			c0,0.11-0.01,0.72,0,0.92c0.12,1.99,1.49,3.96,4.12,5.48c5.49,3.17,14.35,3.17,19.8,0C242.8,407.21,243.43,403.01,239.99,399.88z"
			/>
		<path class="st7" d="M242.17,404.47c0-0.02,0-0.05,0-0.07c-0.02-3.89-0.08-7.68-0.17-11.37c-0.44,1.63-1.73,3.2-3.9,4.45
			c-5.45,3.17-14.32,3.17-19.8,0c-2.2-1.27-3.52-2.85-3.96-4.5c-0.09,3.7-0.15,7.5-0.17,11.4c0,0.03,0,0.06,0,0.09
			c0,0.1,0,0.19,0,0.29c0.01,0.02,0.01,0.04,0.02,0.06c0.17,1.95,1.54,3.86,4.11,5.35c2.41,1.39,5.48,2.17,8.63,2.34
			c0.41,0.02,0.82,0.03,1.24,0.03c0.01,0,0.01,0,0.02,0c3.59,0,7.18-0.79,9.91-2.38c2.59-1.5,3.94-3.45,4.06-5.42
			c0-0.01,0.01-0.03,0.01-0.04C242.17,404.63,242.17,404.55,242.17,404.47z"/>
	</g>
	<g>
		<g class="st0">
			<g class="st0">
				<defs>
					<path id="SVGID_5_" class="st0" d="M266.85,215.66l-0.16,56.09c-0.01,2.47-1.63,4.94-4.87,6.82c-6.53,3.79-17.14,3.79-23.71,0
						c-3.31-1.91-4.96-4.41-4.95-6.92l0.16-56.09c-0.01,2.5,1.64,5.01,4.95,6.92c6.57,3.79,17.19,3.79,23.71,0
						C265.22,220.59,266.84,218.13,266.85,215.66z"/>
				</defs>
				<use xlink:href="#SVGID_5_"  style="overflow:visible;fill:#D8DFE9;"/>
				<clipPath id="SVGID_6_">
					<use xlink:href="#SVGID_5_"  style="overflow:visible;"/>
				</clipPath>
				<g class="st8">
					<path class="st2" d="M266.85,215.66l-0.16,56.09c0,1.66-0.74,3.31-2.2,4.79l0.16-56.09
						C266.11,218.97,266.84,217.32,266.85,215.66L266.85,215.66z"/>
					<path class="st2" d="M264.19,220.92l-0.16,56.09c-0.72,0.73-1.61,1.41-2.68,2.03c-1.12,0.65-2.36,1.19-3.67,1.61l0.16-56.09
						c1.32-0.43,2.55-0.97,3.67-1.61C262.58,222.32,263.47,221.64,264.19,220.92L264.19,220.92z"/>
					<path class="st3" d="M257.84,224.56l-0.16,56.09c-2.86,0.93-6.1,1.33-9.29,1.21l0.16-56.09
						C251.74,225.89,254.98,225.49,257.84,224.56L257.84,224.56z"/>
					<path class="st2" d="M249.02,225.3l-0.16,56.09c-2.95-0.11-5.86-0.68-8.4-1.69l0.16-56.09
						C243.16,224.63,246.07,225.19,249.02,225.3L249.02,225.3z"/>
					<path class="st2" d="M240.62,223.61l-0.16,56.09c-0.83-0.33-1.62-0.71-2.36-1.13c-3.31-1.91-4.96-4.41-4.95-6.92l0.16-56.09
						c-0.01,2.5,1.64,5.01,4.95,6.92C239,222.9,239.79,223.28,240.62,223.61L240.62,223.61z"/>
				</g>
			</g>
			<g>
				<path class="st4" d="M261.9,208.74c6.57,3.79,6.6,9.94,0.08,13.73c-6.53,3.79-17.14,3.79-23.71,0
					c-6.57-3.79-6.6-9.94-0.08-13.74C244.71,204.95,255.33,204.95,261.9,208.74z"/>
			</g>
		</g>
		<path class="st7" d="M261.98,265.58c-6.53,3.79-17.14,3.79-23.71,0c-3.31-1.91-4.96-4.41-4.95-6.92l-0.16,12.99
			c-0.01,2.5,1.64,5.01,4.95,6.92c6.57,3.79,17.19,3.79,23.71,0c3.24-1.88,4.86-4.35,4.87-6.82l0.16-12.99
			C266.84,261.23,265.22,263.69,261.98,265.58z"/>
	</g>
	<g>
		<g class="st0">
			<g class="st0">
				<defs>
					<path id="SVGID_7_" class="st0" d="M263.37,196.59l-0.05,18.7c-0.01,1.97-1.3,3.93-3.88,5.43c-5.19,3.02-13.64,3.02-18.87,0
						c-2.63-1.52-3.94-3.51-3.94-5.5l0.05-18.7c-0.01,1.99,1.31,3.98,3.94,5.5c5.23,3.02,13.68,3.02,18.87,0
						C262.08,200.52,263.37,198.55,263.37,196.59z"/>
				</defs>
				<use xlink:href="#SVGID_7_"  style="overflow:visible;fill:#C1C8DC;"/>
				<clipPath id="SVGID_8_">
					<use xlink:href="#SVGID_7_"  style="overflow:visible;"/>
				</clipPath>
				<g class="st9">
					<path class="st6" d="M263.37,196.59l-0.05,18.7c0,1.32-0.59,2.63-1.75,3.81l0.05-18.7
						C262.79,199.22,263.37,197.91,263.37,196.59L263.37,196.59z"/>
					<path class="st6" d="M261.62,200.4l-0.05,18.7c-0.57,0.58-1.28,1.12-2.13,1.61c-0.89,0.52-1.87,0.95-2.92,1.29l0.05-18.7
						c1.05-0.34,2.03-0.77,2.92-1.29C260.35,201.52,261.05,200.98,261.62,200.4L261.62,200.4z"/>
					<path class="st6" d="M256.57,203.3l-0.05,18.7c-2.28,0.74-4.85,1.06-7.39,0.96l0.05-18.7
						C251.72,204.36,254.3,204.04,256.57,203.3L256.57,203.3z"/>
					<path class="st6" d="M249.18,204.26l-0.05,18.7c-2.35-0.09-4.66-0.54-6.68-1.34l0.05-18.7
						C244.52,203.72,246.84,204.17,249.18,204.26L249.18,204.26z"/>
					<path class="st6" d="M242.5,202.92l-0.05,18.7c-0.66-0.26-1.29-0.56-1.88-0.9c-2.63-1.52-3.94-3.51-3.94-5.5l0.05-18.7
						c-0.01,1.99,1.31,3.98,3.94,5.5C241.21,202.35,241.84,202.66,242.5,202.92L242.5,202.92z"/>
				</g>
			</g>
			<g>
				<path class="st6" d="M259.43,191.09c5.23,3.02,5.26,7.91,0.06,10.93c-5.19,3.02-13.64,3.02-18.87,0
					c-5.23-3.02-5.26-7.91-0.06-10.93C245.76,188.07,254.21,188.07,259.43,191.09z"/>
			</g>
		</g>
	</g>
	<g>
		<g class="st0">
			<g class="st0">
				<defs>
					<path id="SVGID_9_" class="st0" d="M266.85,152.69l-0.16,56.09c-0.01,2.47-1.63,4.94-4.87,6.82c-6.53,3.79-17.14,3.79-23.71,0
						c-3.31-1.91-4.96-4.41-4.95-6.92l0.16-56.09c-0.01,2.5,1.64,5.01,4.95,6.92c6.57,3.79,17.19,3.79,23.71,0
						C265.22,157.63,266.84,155.16,266.85,152.69z"/>
				</defs>
				<use xlink:href="#SVGID_9_"  style="overflow:visible;fill:#D8DFE9;"/>
				<clipPath id="SVGID_10_">
					<use xlink:href="#SVGID_9_"  style="overflow:visible;"/>
				</clipPath>
				<g class="st10">
					<path class="st2" d="M266.85,152.69l-0.16,56.09c0,1.66-0.74,3.31-2.2,4.79l0.16-56.09C266.11,156,266.84,154.35,266.85,152.69
						L266.85,152.69z"/>
					<path class="st2" d="M264.65,157.48l-0.16,56.09c-0.72,0.73-1.61,1.41-2.68,2.03c-1.12,0.65-2.36,1.19-3.67,1.61l0.16-56.09
						c1.32-0.43,2.55-0.97,3.67-1.61C263.04,158.89,263.94,158.21,264.65,157.48L264.65,157.48z"/>
					<path class="st3" d="M258.31,161.12l-0.16,56.09c-2.86,0.93-6.1,1.33-9.28,1.21l0.16-56.09
						C252.21,162.46,255.44,162.05,258.31,161.12L258.31,161.12z"/>
					<path class="st2" d="M249.02,162.33l-0.16,56.09c-2.95-0.11-5.86-0.68-8.4-1.69l0.16-56.09
						C243.16,161.66,246.07,162.22,249.02,162.33L249.02,162.33z"/>
					<path class="st2" d="M240.62,160.64l-0.16,56.09c-0.83-0.33-1.62-0.71-2.36-1.14c-3.31-1.91-4.96-4.41-4.95-6.92l0.16-56.09
						c-0.01,2.5,1.64,5.01,4.95,6.92C239,159.94,239.79,160.31,240.62,160.64L240.62,160.64z"/>
				</g>
			</g>
			<g>
				<path class="st4" d="M261.9,145.77c6.57,3.79,6.6,9.94,0.08,13.74c-6.53,3.79-17.14,3.79-23.71,0
					c-6.57-3.79-6.6-9.94-0.08-13.73C244.71,141.98,255.33,141.98,261.9,145.77z"/>
			</g>
		</g>
	</g>
	<g>
		<g class="st0">
			<g class="st0">
				<defs>
					<path id="SVGID_11_" class="st0" d="M255.19,115.34l11.58,36.28c-0.01,2.47-1.63,4.94-4.87,6.82c-6.53,3.79-17.14,3.79-23.71,0
						c-3.31-1.91-4.96-4.41-4.95-6.92l11.9-36.21c0,0.75,0.49,1.5,1.48,2.07c1.97,1.14,5.16,1.14,7.11,0
						C254.7,116.82,255.19,116.08,255.19,115.34z"/>
				</defs>
				<use xlink:href="#SVGID_11_"  style="overflow:visible;fill:#D8DFE9;"/>
				<clipPath id="SVGID_12_">
					<use xlink:href="#SVGID_11_"  style="overflow:visible;"/>
				</clipPath>
				<g class="st11">
					<path class="st2" d="M255.19,115.34l11.58,36.28c0,1.66-0.74,3.31-2.2,4.79l-10.04-39.64
						C254.97,116.33,255.19,115.84,255.19,115.34L255.19,115.34z"/>
					<path class="st2" d="M254.53,116.78l10.04,39.64c-0.72,0.73-1.61,1.41-2.68,2.03c-1.12,0.65-2.36,1.19-3.67,1.61l-5.6-42.19
						c0.39-0.13,0.77-0.29,1.1-0.48C254.05,117.2,254.32,117,254.53,116.78L254.53,116.78z"/>
					<path class="st3" d="M252.63,117.87l5.6,42.19c-2.86,0.93-6.1,1.33-9.28,1.21l0.9-43.03
						C250.8,118.27,251.77,118.15,252.63,117.87L252.63,117.87z"/>
					<path class="st2" d="M249.84,118.23l-0.9,43.03c-2.95-0.11-5.86-0.68-8.4-1.69l6.78-41.85
						C248.09,118.03,248.96,118.2,249.84,118.23L249.84,118.23z"/>
					<path class="st2" d="M247.32,117.73l-6.78,41.85c-0.83-0.33-1.62-0.71-2.36-1.14c-3.31-1.91-4.96-4.41-4.95-6.92l11.9-36.21
						c0,0.75,0.49,1.5,1.48,2.07C246.84,117.51,247.07,117.63,247.32,117.73L247.32,117.73z"/>
				</g>
			</g>
			<g>
				<path class="st12" d="M253.71,113.27c1.97,1.14,1.98,2.98,0.02,4.12c-1.96,1.14-5.14,1.14-7.11,0
					c-1.97-1.14-1.98-2.98-0.02-4.12C248.55,112.13,251.74,112.13,253.71,113.27z"/>
			</g>
		</g>
	</g>
	<g>
		<g class="st0">
			<g class="st0">
				<defs>
					<path id="SVGID_13_" class="st0" d="M250.94,77.15l-0.02,37.89c0,0.11-0.07,0.23-0.22,0.31c-0.3,0.17-0.78,0.17-1.08,0
						c-0.15-0.09-0.23-0.2-0.23-0.32l0.02-37.89c0,0.11,0.08,0.23,0.23,0.32c0.3,0.17,0.79,0.17,1.08,0
						C250.87,77.38,250.94,77.27,250.94,77.15z"/>
				</defs>
				<use xlink:href="#SVGID_13_"  style="overflow:visible;fill:#D8DFE9;"/>
				<clipPath id="SVGID_14_">
					<use xlink:href="#SVGID_13_"  style="overflow:visible;"/>
				</clipPath>
				<g class="st13">
					<path class="st2" d="M250.94,77.15l-0.02,37.89c0,0.08-0.03,0.15-0.1,0.22l0.02-37.89C250.91,77.3,250.94,77.23,250.94,77.15
						L250.94,77.15z"/>
					<path class="st2" d="M250.84,77.37l-0.02,37.89c-0.03,0.03-0.07,0.06-0.12,0.09c-0.05,0.03-0.11,0.05-0.17,0.07l0.02-37.89
						c0.06-0.02,0.12-0.04,0.17-0.07C250.77,77.44,250.81,77.4,250.84,77.37L250.84,77.37z"/>
					<path class="st2" d="M250.55,77.54l-0.02,37.89c-0.13,0.04-0.28,0.06-0.42,0.06l0.02-37.89
						C250.27,77.6,250.42,77.58,250.55,77.54L250.55,77.54z"/>
					<path class="st2" d="M250.12,77.59l-0.02,37.89c-0.13-0.01-0.27-0.03-0.38-0.08l0.02-37.89
						C249.86,77.56,249.99,77.59,250.12,77.59L250.12,77.59z"/>
					<path class="st2" d="M249.74,77.52l-0.02,37.89c-0.04-0.02-0.07-0.03-0.11-0.05c-0.15-0.09-0.23-0.2-0.23-0.32l0.02-37.89
						c0,0.11,0.08,0.23,0.23,0.32C249.67,77.48,249.7,77.5,249.74,77.52L249.74,77.52z"/>
				</g>
			</g>
			<g>
				<path class="st2" d="M250.71,76.84c0.3,0.17,0.3,0.45,0,0.63c-0.3,0.17-0.78,0.17-1.08,0c-0.3-0.17-0.3-0.45,0-0.63
					C249.93,76.66,250.41,76.66,250.71,76.84z"/>
			</g>
		</g>
	</g>
	<path class="st3" d="M252.31,77.15c0-1.19-0.96-2.15-2.15-2.15c-1.19,0-2.15,0.96-2.15,2.15s0.96,2.15,2.15,2.15
		C251.35,79.3,252.31,78.33,252.31,77.15z"/>
	<path class="st14" d="M264,417.17c0-0.08,0-0.16,0-0.24c0-0.02,0-0.05,0-0.07c-0.29-56.87-8.62-93.41-14-93.4
		c-5.39,0.01-13.72,36.68-14,93.38c0,0.03,0,0.06,0,0.09c0,0.1,0,0.19,0,0.29c0.01,0.02,0.01,0.04,0.02,0.06
		c0.17,1.95,1.54,3.86,4.12,5.35c2.41,1.39,5.48,2.17,8.63,2.34c0.41,0.02,0.82,0.03,1.24,0.03c0.01,0,0.01,0,0.02,0
		c3.59,0,7.18-0.79,9.91-2.38c2.59-1.5,3.94-3.45,4.06-5.42C264,417.19,264,417.18,264,417.17z"/>
	<path class="st7" d="M264,416.93c0-0.02,0-0.05,0-0.07c-0.02-3.89-0.08-7.68-0.17-11.37c-0.44,1.63-1.73,3.2-3.9,4.45
		c-5.45,3.17-14.32,3.17-19.8,0c-2.2-1.27-3.52-2.85-3.96-4.5c-0.09,3.7-0.15,7.5-0.17,11.4c0,0.03,0,0.06,0,0.09
		c0,0.1,0,0.19,0,0.29c0.01,0.02,0.01,0.04,0.02,0.06c0.17,1.95,1.54,3.86,4.12,5.35c2.41,1.39,5.48,2.17,8.63,2.34
		c0.41,0.02,0.82,0.03,1.24,0.03c0.01,0,0.01,0,0.02,0c3.59,0,7.18-0.79,9.91-2.38c2.59-1.5,3.94-3.45,4.06-5.42
		c0-0.01,0.01-0.03,0.01-0.04C264,417.09,264,417.01,264,416.93z"/>
	<path class="st7" d="M258.73,126.42c-0.2,0.22-0.42,0.44-0.65,0.66c-4.43,4.13-11.64,4.13-16.1,0c-0.19-0.17-0.37-0.35-0.54-0.53
		l3.69-11.23c0,0.75,0.5,1.5,1.49,2.07c1.97,1.14,5.16,1.14,7.11,0c0.97-0.56,1.46-1.3,1.46-2.05L258.73,126.42z"/>
</g>
</svg>
