<?xml version="1.0" encoding="utf-8"?>
<!-- Generator: Adobe Illustrator 24.3.0, SVG Export Plug-In . SVG Version: 6.00 Build 0)  -->
<svg version="1.1" id="Layer_1" xmlns="http://www.w3.org/2000/svg" xmlns:xlink="http://www.w3.org/1999/xlink" x="0px" y="0px"
	 viewBox="0 0 500 500" style="enable-background:new 0 0 500 500;" xml:space="preserve">
<style type="text/css">
	.st0{fill-rule:evenodd;clip-rule:evenodd;fill:#4A5E64;}
	.st1{fill-rule:evenodd;clip-rule:evenodd;fill:#677980;}
	.st2{fill-rule:evenodd;clip-rule:evenodd;fill:#7F97A1;}
	.st3{fill-rule:evenodd;clip-rule:evenodd;fill:#AFCAD7;}
	.st4{fill-rule:evenodd;clip-rule:evenodd;fill:#97B3C0;}
	.st5{fill:#677980;}
	.st6{fill:#4A5E64;}
	.st7{fill-rule:evenodd;clip-rule:evenodd;fill:#A3BECC;}
	.st8{fill-rule:evenodd;clip-rule:evenodd;fill:#7E9AA8;}
	.st9{fill-rule:evenodd;clip-rule:evenodd;fill:#CBE6F2;}
	.st10{fill-rule:evenodd;clip-rule:evenodd;fill:#8CA4AD;}
</style>
<g>
	<polygon class="st0" points="192.45,334.29 192.45,334.29 159.4,311.76 113.02,351.86 159.07,383.26 159.07,383.26 205.24,414.73 
		225.62,356.9 	"/>
	<path class="st1" d="M145.49,323.81l-32.47,28.05l46.05,31.39l0,0l46.17,31.48l14.25-40.48c-11.08-8.8-23.27-17.82-36.15-26.6
		C170.46,338.87,157.74,330.91,145.49,323.81L145.49,323.81z"/>
	<path class="st2" d="M144.05,183.65l8.14,5.55l-44.81,65.74c-0.17,0.24-0.25,0.36-0.41,0.61l-8.14-5.55
		c-1.82-1.24-2.29-3.69-1.04-5.52l40.75-59.78C139.77,182.87,142.23,182.4,144.05,183.65L144.05,183.65z"/>
	<path class="st3" d="M360.15,292.7L360.15,292.7l-65.11,95.51c-4.06,5.95-12.44,7.54-18.39,3.48L108.37,276.97
		c-5.95-4.06-7.54-12.44-3.48-18.39L170,163.07c36.33-18.31,72.74-36.73,109.15-55.16c56.82-27.48,97.81,0.11,92.34,62.95
		C367.76,211.57,363.92,252.2,360.15,292.7L360.15,292.7z"/>
	<path class="st4" d="M143.97,301.24l-35.6-24.27c-5.95-4.06-7.54-12.44-3.48-18.39L170,163.07
		c36.33-18.31,72.74-36.73,109.15-55.16c28.12-13.58,52.35-13.61,69-2.8c-9.69-5.89-26.87-1.05-49.44,16.13
		c-29.49,23.15-59.09,46.22-88.49,69.24c-21.7,31.84-43.41,63.67-65.11,95.51C141.05,291.95,140.45,298.83,143.97,301.24
		L143.97,301.24z"/>
	<g>
		<polygon class="st5" points="368.82,200.36 252.78,121.26 237.53,129.02 367.17,217.4 		"/>
		<path class="st5" d="M290.33,103.25l81.65,55.66C371.53,108.41,337.58,85.63,290.33,103.25z"/>
		<polygon class="st5" points="364.33,248.2 209.89,142.92 194.72,150.56 362.76,265.11 		"/>
	</g>
	<g>
		<polygon class="st6" points="237.53,129.02 264.87,147.65 277.33,137.99 252.78,121.26 		"/>
		<polygon class="st6" points="194.72,150.56 230.2,174.75 242.58,165.21 209.89,142.92 		"/>
		<path class="st6" d="M290.33,103.25l17.13,11.68c18.07-11.89,32.09-14.97,40.48-9.78C333.56,95.7,313.55,94.52,290.33,103.25z"/>
	</g>
	<path class="st4" d="M360.15,292.7L360.15,292.7L190.67,191.75l-65.77,96.48l-16.52-11.27c-5.95-4.06-7.54-12.44-3.48-18.39
		L170,163.07L360.15,292.7z"/>
	<path class="st7" d="M294.63,388.81c-4.26,5.46-12.14,6.85-17.98,2.87L108.37,276.97c-5.83-3.98-7.42-11.82-3.89-17.78
		L294.63,388.81z"/>
	<path class="st8" d="M137.65,296.93l-29.28-19.96c-5.83-3.98-7.42-11.82-3.89-17.78l40.22,27.42L137.65,296.93z"/>
	<path class="st7" d="M216.75,350.85l-48.6-33.13l44.4-65.13c1.49-2.19,4.56-2.77,6.74-1.28l40.58,27.67
		c2.31,1.57,2.77,4.56,1.28,6.74L216.75,350.85z"/>
	<path class="st9" d="M228.32,246.43l32.93,22.45c1.7,1.16,2.29,3.69,1.04,5.52l-52.68,77.28c-1.24,1.82-3.82,2.2-5.52,1.04
		l-32.93-22.45c-1.82-1.24-2.29-3.69-1.04-5.52l52.68-77.28C224.04,245.65,226.5,245.19,228.32,246.43L228.32,246.43z"/>
	<path class="st10" d="M350.48,324.37l-8.14-5.55l-44.81,65.74c-0.17,0.24-0.25,0.36-0.41,0.61l8.14,5.55
		c1.82,1.24,4.27,0.78,5.52-1.04l40.75-59.78C352.77,328.07,352.31,325.62,350.48,324.37L350.48,324.37z"/>
	<path class="st0" d="M111.2,350.62l95.87,65.35c3.04,2.07,3.85,6.36,1.78,9.4l0,0c-2.15,3.16-6.44,3.97-9.48,1.9l-95.87-65.35
		c-3.04-2.07-3.85-6.36-1.7-9.52l0,0C103.87,349.36,108.16,348.55,111.2,350.62L111.2,350.62z"/>
</g>
</svg>
