<?xml version="1.0" encoding="utf-8"?>
<!-- Generator: Adobe Illustrator 24.3.0, SVG Export Plug-In . SVG Version: 6.00 Build 0)  -->
<svg version="1.1" id="Layer_1" xmlns="http://www.w3.org/2000/svg" xmlns:xlink="http://www.w3.org/1999/xlink" x="0px" y="0px"
	 viewBox="0 0 500 500" style="enable-background:new 0 0 500 500;" xml:space="preserve">
<style type="text/css">
	.st0{enable-background:new    ;}
	.st1{clip-path:url(#SVGID_2_);enable-background:new    ;}
	.st2{fill:#A4A9C2;}
	.st3{fill-rule:evenodd;clip-rule:evenodd;fill:#A4A9C2;}
	.st4{clip-path:url(#SVGID_4_);enable-background:new    ;}
	.st5{clip-path:url(#SVGID_6_);enable-background:new    ;}
	.st6{fill:#D8DFE9;}
	.st7{fill:#E8EEF4;}
	.st8{clip-path:url(#SVGID_8_);enable-background:new    ;}
	.st9{fill:#37404A;}
	.st10{clip-path:url(#SVGID_10_);enable-background:new    ;}
	.st11{fill:#333333;}
	.st12{clip-path:url(#SVGID_12_);enable-background:new    ;}
	.st13{fill-rule:evenodd;clip-rule:evenodd;fill:#E8EEF4;}
	.st14{clip-path:url(#SVGID_14_);enable-background:new    ;}
	.st15{clip-path:url(#SVGID_16_);enable-background:new    ;}
	.st16{clip-path:url(#SVGID_18_);enable-background:new    ;}
	.st17{fill-rule:evenodd;clip-rule:evenodd;fill:#37404A;}
</style>
<g>
	<g>
		<g>
			<g class="st0">
				<g class="st0">
					<defs>
						<path id="SVGID_1_" class="st0" d="M284.94,328.68l-0.12,74.27c-0.01,1.88-1.24,3.75-3.71,5.19c-4.96,2.89-13.04,2.88-18.04,0
							c-2.51-1.45-3.77-3.36-3.77-5.26v-74.27c-0.01,1.9,1.25,3.81,3.77,5.26c5,2.89,13.07,2.89,18.04,0
							C283.58,332.43,284.93,330.56,284.94,328.68z"/>
					</defs>
					<use xlink:href="#SVGID_1_"  style="overflow:visible;fill:#A4A9C2;"/>
					<clipPath id="SVGID_2_">
						<use xlink:href="#SVGID_1_"  style="overflow:visible;"/>
					</clipPath>
					<g class="st1">
						<path class="st2" d="M284.94,328.68l-0.12,74.27c0,1.26-0.56,2.52-1.67,3.64v-74.27C284.26,331.2,284.94,329.94,284.94,328.68
							L284.94,328.68z"/>
						<path class="st2" d="M283.15,332.32v74.27c-0.55,0.55-1.22,1.07-2.04,1.54c-0.85,0.49-1.79,0.9-2.79,1.23V335.1
							c1-0.32,1.94-0.73,2.79-1.23C281.92,333.4,282.6,332.88,283.15,332.32L283.15,332.32z"/>
						<path class="st2" d="M278.32,335.1v74.27c-2.18,0.71-4.64,1.01-7.06,0.92v-74.27C273.68,336.11,276.14,335.8,278.32,335.1
							L278.32,335.1z"/>
						<path class="st2" d="M271.26,336.02v74.27c-2.24-0.09-4.46-0.51-6.39-1.28v-74.27C266.8,335.5,269.01,335.93,271.26,336.02
							L271.26,336.02z"/>
						<path class="st2" d="M264.87,334.73V409c-0.63-0.25-1.23-0.54-1.79-0.86c-2.51-1.45-3.77-3.36-3.77-5.26v-74.27
							c-0.01,1.9,1.25,3.81,3.77,5.26C263.64,334.19,264.24,334.48,264.87,334.73L264.87,334.73z"/>
					</g>
				</g>
				<g>
					<path class="st2" d="M281.05,323.42c5.16,2.98,5.18,7.47,0.06,10.45c-4.96,2.89-13.04,2.88-18.04,0
						c-5-2.89-5.02-7.56-0.06-10.45C267.98,320.53,276.06,320.53,281.05,323.42z"/>
				</g>
			</g>
		</g>
		<path class="st3" d="M284.94,329.55c-0.24-13.53-6.49-30.63-12.75-30.64c-6.31-0.01-12.64,17.17-12.88,30.64
			c1.13,3.75,6.44,6.6,12.82,6.6C278.5,336.14,283.81,333.3,284.94,329.55z"/>
	</g>
	<path class="st2" d="M240.69,328.68l-0.12,74.27c0,1.26-0.56,2.52-1.67,3.64v-74.27C240.01,331.2,240.69,329.94,240.69,328.68
		L240.69,328.68z"/>
	<path class="st2" d="M238.9,332.32v74.27c-0.55,0.55-1.22,1.07-2.04,1.54c-0.85,0.49-1.79,0.9-2.79,1.23V335.1
		c1-0.32,1.94-0.73,2.79-1.23C237.68,333.4,238.35,332.88,238.9,332.32L238.9,332.32z"/>
	<path class="st2" d="M234.07,335.1v74.27c-2.18,0.71-4.64,1.01-7.06,0.92v-74.27C229.43,336.11,231.89,335.8,234.07,335.1
		L234.07,335.1z"/>
	<path class="st2" d="M227.01,336.02v74.27c-2.24-0.09-4.46-0.51-6.39-1.28v-74.27C222.55,335.5,224.76,335.93,227.01,336.02
		L227.01,336.02z"/>
	<path class="st2" d="M215.06,328.61c-0.01,1.9,1.25,3.81,3.77,5.26c0.56,0.32,1.16,0.61,1.79,0.86l0,0V409
		c-0.63-0.25-1.23-0.54-1.79-0.86c-2.52-1.45-3.77-3.36-3.77-5.26"/>
	<path class="st2" d="M215.06,328.61c-0.01,1.9,1.25,3.81,3.77,5.26c5,2.89,13.07,2.89,18.04,0c2.47-1.43,3.82-3.31,3.83-5.19
		l-0.12,74.27c-0.01,1.88-1.24,3.75-3.71,5.19c-4.96,2.89-13.04,2.88-18.04,0c-2.52-1.45-3.77-3.36-3.77-5.26"/>
	<g>
		<path class="st2" d="M236.8,323.42c5.16,2.98,5.18,7.47,0.06,10.45c-4.96,2.89-13.04,2.88-18.04,0c-5-2.89-5.02-7.56-0.06-10.45
			S231.81,320.53,236.8,323.42z"/>
	</g>
	<path class="st3" d="M215.06,329.55c1.13,3.75,6.44,6.6,12.82,6.6c6.37,0,11.68-2.84,12.81-6.6c-0.24-13.53-6.49-30.63-12.75-30.64
		C221.62,298.89,215.29,316.07,215.06,329.55"/>
	<g>
		<g class="st0">
			<g class="st0">
				<defs>
					<path id="SVGID_3_" class="st0" d="M271.32,325.68l-0.2,69.41c-0.01,3.06-2.02,6.11-6.03,8.44c-8.08,4.69-21.21,4.69-29.34,0
						c-4.09-2.36-6.13-5.46-6.13-8.56l0.2-69.41c-0.01,3.1,2.03,6.2,6.13,8.56c8.13,4.69,21.26,4.69,29.34,0
						C269.3,331.79,271.31,328.74,271.32,325.68z"/>
				</defs>
				<use xlink:href="#SVGID_3_"  style="overflow:visible;fill:#A4A9C2;"/>
				<clipPath id="SVGID_4_">
					<use xlink:href="#SVGID_3_"  style="overflow:visible;"/>
				</clipPath>
				<g class="st4">
					<path class="st2" d="M271.32,325.68l-0.2,69.41c-0.01,2.05-0.91,4.1-2.72,5.93l0.2-69.41
						C270.41,329.78,271.32,327.73,271.32,325.68L271.32,325.68z"/>
					<path class="st2" d="M268.6,331.61l-0.2,69.41c-0.89,0.9-1.99,1.74-3.31,2.51c-1.38,0.8-2.91,1.47-4.54,2l0.2-69.41
						c1.63-0.53,3.16-1.19,4.54-2C266.61,333.35,267.72,332.51,268.6,331.61L268.6,331.61z"/>
					<path class="st2" d="M260.75,336.12l-0.2,69.41c-3.54,1.15-7.54,1.65-11.49,1.49l0.2-69.41
						C253.21,337.77,257.21,337.27,260.75,336.12L260.75,336.12z"/>
					<path class="st2" d="M249.26,337.61l-0.2,69.41c-3.65-0.14-7.25-0.84-10.39-2.09l0.2-69.41
						C242.01,336.78,245.61,337.47,249.26,337.61L249.26,337.61z"/>
					<path class="st2" d="M238.87,335.52l-0.2,69.41c-1.03-0.41-2-0.88-2.92-1.4c-4.09-2.36-6.13-5.46-6.13-8.56l0.2-69.41
						c-0.01,3.1,2.03,6.2,6.13,8.56C236.86,334.65,237.84,335.12,238.87,335.52L238.87,335.52z"/>
				</g>
			</g>
			<g>
				<path class="st2" d="M265.2,317.13c8.13,4.69,8.17,12.3,0.1,17s-21.21,4.69-29.34,0c-8.13-4.69-8.17-12.3-0.1-17
					C243.93,312.43,257.07,312.43,265.2,317.13z"/>
			</g>
		</g>
	</g>
	<g>
		<g class="st0">
			<g class="st0">
				<defs>
					<path id="SVGID_5_" class="st0" d="M273.29,301.96l-0.22,75.96c-0.01,3.34-2.21,6.68-6.6,9.24c-8.84,5.14-23.22,5.14-32.11,0
						c-4.48-2.58-6.71-5.98-6.7-9.37l0.22-75.96c-0.01,3.39,2.23,6.78,6.7,9.37c8.9,5.14,23.27,5.14,32.11,0
						C271.08,308.64,273.28,305.3,273.29,301.96z"/>
				</defs>
				<use xlink:href="#SVGID_5_"  style="overflow:visible;fill:#D8DFE9;"/>
				<clipPath id="SVGID_6_">
					<use xlink:href="#SVGID_5_"  style="overflow:visible;"/>
				</clipPath>
				<g class="st5">
					<path class="st6" d="M273.29,301.96l-0.22,75.96c-0.01,2.24-1,4.48-2.97,6.49l0.22-75.96
						C272.29,306.44,273.28,304.2,273.29,301.96L273.29,301.96z"/>
					<path class="st6" d="M270.31,308.44l-0.22,75.96c-0.97,0.98-2.18,1.91-3.62,2.75c-1.51,0.88-3.19,1.61-4.97,2.19l0.22-75.96
						c1.78-0.58,3.46-1.31,4.97-2.19C268.14,310.35,269.34,309.43,270.31,308.44L270.31,308.44z"/>
					<path class="st7" d="M261.72,294.99l-0.22,93.95c-3.87,1.55-8.25,2.23-12.57,2.02l0.22-93.95
						C253.46,297.22,257.84,296.55,261.72,294.99L261.72,294.99z"/>
					<path class="st6" d="M249.15,315.02l-0.22,75.96c-3.99-0.15-7.94-0.92-11.38-2.29l0.22-75.96
						C241.21,314.1,245.15,314.86,249.15,315.02L249.15,315.02z"/>
					<path class="st6" d="M237.77,312.73l-0.22,75.96c-1.12-0.45-2.19-0.96-3.19-1.54c-4.48-2.58-6.71-5.98-6.7-9.37l0.22-75.96
						c-0.01,3.39,2.23,6.78,6.7,9.37C235.58,311.77,236.65,312.28,237.77,312.73L237.77,312.73z"/>
				</g>
			</g>
			<g>
				<path class="st2" d="M266.59,292.59c8.9,5.14,8.94,13.46,0.1,18.6c-8.84,5.14-23.21,5.14-32.11,0
					c-8.9-5.14-8.94-13.46-0.11-18.6C243.31,287.46,257.69,287.46,266.59,292.59z"/>
			</g>
		</g>
	</g>
	<g>
		<g class="st0">
			<g class="st0">
				<defs>
					<path id="SVGID_7_" class="st0" d="M270.26,278.22l-0.05,22.31c-0.01,2.9-1.92,5.8-5.73,8.02c-7.67,4.46-20.15,4.46-27.87,0
						c-3.88-2.24-5.82-5.19-5.82-8.13l0.05-22.31c-0.01,2.94,1.93,5.88,5.82,8.13c7.72,4.46,20.2,4.46,27.87,0
						C268.34,284.02,270.25,281.12,270.26,278.22z"/>
				</defs>
				<use xlink:href="#SVGID_7_"  style="overflow:visible;fill:#37404A;"/>
				<clipPath id="SVGID_8_">
					<use xlink:href="#SVGID_7_"  style="overflow:visible;"/>
				</clipPath>
				<g class="st8">
					<path class="st9" d="M270.26,278.22l-0.05,22.31c0,0.44-0.05,0.87-0.13,1.3l0.05-22.31
						C270.21,279.09,270.26,278.65,270.26,278.22L270.26,278.22z"/>
					<path class="st9" d="M270.13,279.52l-0.05,22.31c-0.48,2.39-2.26,4.71-5.36,6.57l0.05-22.31
						C267.86,284.23,269.65,281.91,270.13,279.52L270.13,279.52z"/>
					<path class="st9" d="M260.21,288.13l-0.05,22.31c-3.8,1.23-8.17,1.68-12.39,1.33l0.05-22.31
						C252.04,289.81,256.41,289.36,260.21,288.13L260.21,288.13z"/>
					<path class="st9" d="M247.83,289.46l-0.05,22.31c-4.08-0.34-8.02-1.41-11.16-3.23c-3.88-2.24-5.82-5.19-5.82-8.13l0.05-22.31
						c-0.01,2.94,1.93,5.88,5.82,8.13C239.81,288.05,243.75,289.12,247.83,289.46L247.83,289.46z"/>
				</g>
			</g>
			<g>
				<path class="st9" d="M264.44,270.09c7.72,4.46,7.76,11.68,0.09,16.14c-7.67,4.46-20.14,4.46-27.87,0
					c-7.72-4.46-7.76-11.68-0.09-16.14C244.24,265.63,256.72,265.63,264.44,270.09z"/>
			</g>
		</g>
	</g>
	<g>
		<g class="st0">
			<g class="st0">
				<defs>
					<path id="SVGID_9_" class="st0" d="M251,77.18l-0.02,38.3c0,0.11-0.08,0.23-0.23,0.32c-0.3,0.18-0.79,0.18-1.1,0
						c-0.15-0.09-0.23-0.2-0.23-0.32l0.02-38.3c0,0.12,0.08,0.23,0.23,0.32c0.3,0.18,0.79,0.18,1.1,0
						C250.92,77.4,250.99,77.29,251,77.18z"/>
				</defs>
				<use xlink:href="#SVGID_9_"  style="overflow:visible;fill:#D8DFE9;"/>
				<clipPath id="SVGID_10_">
					<use xlink:href="#SVGID_9_"  style="overflow:visible;"/>
				</clipPath>
				<g class="st10">
					<path class="st6" d="M251,77.18l-0.02,38.3c0,0.08-0.03,0.15-0.1,0.22l0.02-38.3C250.96,77.33,251,77.25,251,77.18L251,77.18z"
						/>
					<path class="st6" d="M250.89,77.4l-0.02,38.3c-0.03,0.03-0.07,0.07-0.12,0.09c-0.05,0.03-0.11,0.05-0.17,0.07l0.02-38.3
						c0.06-0.02,0.12-0.04,0.17-0.07C250.82,77.46,250.86,77.43,250.89,77.4L250.89,77.4z"/>
					<path class="st6" d="M250.6,77.57l-0.02,38.3c-0.13,0.04-0.28,0.06-0.43,0.06l0.02-38.3C250.32,77.63,250.47,77.61,250.6,77.57
						L250.6,77.57z"/>
					<path class="st6" d="M250.17,77.62l-0.02,38.3c-0.14-0.01-0.27-0.03-0.39-0.08l0.02-38.3
						C249.9,77.59,250.04,77.62,250.17,77.62L250.17,77.62z"/>
					<path class="st6" d="M249.78,77.54l-0.02,38.3c-0.04-0.02-0.07-0.03-0.11-0.05c-0.15-0.09-0.23-0.2-0.23-0.32l0.02-38.3
						c0,0.12,0.08,0.23,0.23,0.32C249.71,77.51,249.74,77.53,249.78,77.54L249.78,77.54z"/>
				</g>
			</g>
			<g>
				<path class="st6" d="M250.77,76.86c0.3,0.18,0.31,0.46,0,0.63s-0.79,0.18-1.1,0c-0.3-0.18-0.31-0.46,0-0.63
					C249.97,76.68,250.46,76.68,250.77,76.86z"/>
			</g>
		</g>
	</g>
	<path class="st7" d="M252.38,77.17c0-1.2-0.97-2.17-2.17-2.17c-1.2,0-2.17,0.97-2.17,2.17c0,1.2,0.97,2.17,2.17,2.17
		C251.41,79.34,252.38,78.37,252.38,77.17z"/>
	<path class="st11" d="M270.95,354.11c-0.99,0.99-2.22,1.93-3.69,2.78c-9.15,5.32-24.04,5.32-33.25,0c-1.51-0.87-2.78-1.84-3.8-2.86
		c-1.13-1.14-1.96-2.35-2.48-3.59l-0.02,7.22l-0.02,6.3c0.97,2.4,3.08,4.68,6.31,6.55c9.21,5.32,24.1,5.32,33.25,0
		c2.83-1.64,4.78-3.61,5.85-5.69l0.02-7.76l0.02-5.94C272.63,352.16,271.9,353.16,270.95,354.11z"/>
	<g>
		<g>
			<g class="st0">
				<g class="st0">
					<defs>
						<path id="SVGID_11_" class="st0" d="M284.94,343.38l-0.12,74.27c-0.01,1.88-1.24,3.75-3.71,5.19
							c-4.96,2.89-13.04,2.88-18.04,0c-2.51-1.45-3.77-3.36-3.77-5.26v-74.27c-0.01,1.9,1.25,3.81,3.77,5.26
							c5,2.89,13.07,2.89,18.04,0C283.58,347.14,284.93,345.26,284.94,343.38z"/>
					</defs>
					<use xlink:href="#SVGID_11_"  style="overflow:visible;fill:#D8DFE9;"/>
					<clipPath id="SVGID_12_">
						<use xlink:href="#SVGID_11_"  style="overflow:visible;"/>
					</clipPath>
					<g class="st12">
						<path class="st6" d="M284.94,343.38l-0.12,74.27c0,1.26-0.56,2.52-1.67,3.64v-74.27C284.26,345.9,284.94,344.64,284.94,343.38
							L284.94,343.38z"/>
						<path class="st6" d="M283.15,347.03v74.27c-0.55,0.55-1.22,1.07-2.04,1.54c-0.85,0.49-1.79,0.9-2.79,1.23V349.8
							c1-0.32,1.94-0.73,2.79-1.23C281.92,348.1,282.6,347.58,283.15,347.03L283.15,347.03z"/>
						<path class="st6" d="M278.32,349.8v74.27c-2.18,0.71-4.64,1.01-7.06,0.92v-74.27C273.68,350.81,276.14,350.5,278.32,349.8
							L278.32,349.8z"/>
						<path class="st6" d="M271.26,350.72v74.27c-2.24-0.09-4.46-0.51-6.39-1.28v-74.27C266.8,350.2,269.01,350.63,271.26,350.72
							L271.26,350.72z"/>
						<path class="st6" d="M264.87,349.43v74.27c-0.63-0.25-1.23-0.54-1.79-0.86c-2.51-1.45-3.77-3.36-3.77-5.26v-74.27
							c-0.01,1.9,1.25,3.81,3.77,5.26C263.64,348.89,264.24,349.18,264.87,349.43L264.87,349.43z"/>
					</g>
				</g>
				<g>
					<path class="st6" d="M281.05,338.12c5.16,2.98,5.18,7.47,0.06,10.45c-4.96,2.89-13.04,2.88-18.04,0
						c-5-2.89-5.02-7.56-0.06-10.45C267.98,335.24,276.06,335.24,281.05,338.12z"/>
				</g>
			</g>
		</g>
		<path class="st13" d="M284.94,344.25c-0.24-13.53-6.49-30.63-12.75-30.64c-6.31-0.01-12.64,17.17-12.88,30.64
			c1.13,3.76,6.44,6.6,12.82,6.6C278.5,350.84,283.81,348,284.94,344.25z"/>
	</g>
	<path class="st6" d="M240.69,343.38l-0.12,74.27c0,1.26-0.56,2.52-1.67,3.64v-74.27C240.01,345.9,240.69,344.64,240.69,343.38
		L240.69,343.38z"/>
	<path class="st6" d="M238.9,347.03v74.27c-0.55,0.55-1.22,1.07-2.04,1.54c-0.85,0.49-1.79,0.9-2.79,1.23V349.8
		c1-0.32,1.94-0.73,2.79-1.23C237.68,348.1,238.35,347.58,238.9,347.03L238.9,347.03z"/>
	<path class="st6" d="M234.07,349.8v74.27c-2.18,0.71-4.64,1.01-7.06,0.92v-74.27C229.43,350.81,231.89,350.5,234.07,349.8
		L234.07,349.8z"/>
	<path class="st6" d="M227.01,350.72v74.27c-2.24-0.09-4.46-0.51-6.39-1.28v-74.27C222.55,350.2,224.76,350.63,227.01,350.72
		L227.01,350.72z"/>
	<path class="st6" d="M215.06,343.31c-0.01,1.9,1.25,3.81,3.77,5.26c0.56,0.32,1.16,0.61,1.79,0.86l0,0v74.27
		c-0.63-0.25-1.23-0.54-1.79-0.86c-2.52-1.45-3.77-3.36-3.77-5.26"/>
	<path class="st6" d="M215.06,343.31c-0.01,1.9,1.25,3.81,3.77,5.26c5,2.89,13.07,2.89,18.04,0c2.47-1.43,3.82-3.31,3.83-5.19
		l-0.12,74.27c-0.01,1.88-1.24,3.75-3.71,5.19c-4.96,2.89-13.04,2.88-18.04,0c-2.52-1.45-3.77-3.36-3.77-5.26"/>
	<g>
		<path class="st6" d="M236.8,338.12c5.16,2.98,5.18,7.47,0.06,10.45c-4.96,2.89-13.04,2.88-18.04,0c-5-2.89-5.02-7.56-0.06-10.45
			S231.81,335.24,236.8,338.12z"/>
	</g>
	<path class="st13" d="M215.06,344.25c1.13,3.76,6.44,6.6,12.82,6.6c6.37,0,11.68-2.84,12.81-6.6
		c-0.24-13.53-6.49-30.63-12.75-30.64C221.62,313.59,215.29,330.77,215.06,344.25"/>
	<g>
		<g class="st0">
			<g>
				<g class="st0">
					<g class="st0">
						<defs>
							<path id="SVGID_13_" class="st0" d="M272.36,216.08l-0.21,72.7c-0.01,3.2-2.11,6.4-6.32,8.84c-8.46,4.92-22.22,4.92-30.73,0
								c-4.29-2.47-6.43-5.72-6.42-8.96l0.21-72.7c-0.01,3.24,2.13,6.49,6.42,8.96c8.52,4.92,22.27,4.92,30.73,0
								C270.25,222.48,272.36,219.28,272.36,216.08z"/>
						</defs>
						<use xlink:href="#SVGID_13_"  style="overflow:visible;fill:#D8DFE9;"/>
						<clipPath id="SVGID_14_">
							<use xlink:href="#SVGID_13_"  style="overflow:visible;"/>
						</clipPath>
						<g class="st14">
							<path class="st6" d="M272.36,216.08l-0.21,72.7c-0.01,2.15-0.95,4.29-2.85,6.21l0.21-72.7
								C271.41,220.37,272.36,218.23,272.36,216.08L272.36,216.08z"/>
							<path class="st6" d="M269.52,222.29l-0.21,72.7c-0.93,0.94-2.08,1.83-3.47,2.63c-1.45,0.84-3.05,1.54-4.76,2.09l0.21-72.7
								c1.71-0.55,3.31-1.25,4.76-2.09C267.43,224.12,268.59,223.23,269.52,222.29L269.52,222.29z"/>
							<path class="st7" d="M261.29,227.01l-0.21,72.7c-3.71,1.2-7.9,1.72-12.03,1.57l0.21-72.7
								C253.39,228.74,257.58,228.22,261.29,227.01L261.29,227.01z"/>
							<path class="st6" d="M249.26,228.58l-0.21,72.7c-3.82-0.15-7.6-0.88-10.89-2.19l0.21-72.7
								C241.66,227.7,245.43,228.43,249.26,228.58L249.26,228.58z"/>
							<path class="st6" d="M238.37,226.39l-0.21,72.7c-1.07-0.43-2.1-0.92-3.05-1.47c-4.29-2.47-6.43-5.72-6.42-8.96l0.21-72.7
								c-0.01,3.24,2.13,6.49,6.42,8.96C236.27,225.47,237.3,225.96,238.37,226.39L238.37,226.39z"/>
						</g>
					</g>
					<g>
						<path class="st2" d="M265.95,207.12c8.52,4.92,8.56,12.89,0.1,17.8c-8.46,4.92-22.22,4.92-30.73,0
							c-8.51-4.92-8.56-12.89-0.1-17.8C243.67,202.2,257.43,202.2,265.95,207.12z"/>
					</g>
				</g>
				<g>
					<g class="st0">
						<g class="st0">
							<defs>
								<path id="SVGID_15_" class="st0" d="M268.96,198.57l-0.04,18.18c-0.01,2.36-1.79,4.73-5.35,6.53
									c-7.16,3.63-18.82,3.63-26.03,0c-3.63-1.83-5.44-4.23-5.43-6.62l0.04-18.18c-0.01,2.39,1.8,4.79,5.43,6.62
									c7.21,3.63,18.87,3.63,26.03,0C267.17,203.3,268.95,200.93,268.96,198.57z"/>
							</defs>
							<use xlink:href="#SVGID_15_"  style="overflow:visible;fill:#37404A;"/>
							<clipPath id="SVGID_16_">
								<use xlink:href="#SVGID_15_"  style="overflow:visible;"/>
							</clipPath>
							<g class="st15">
								<path class="st9" d="M268.96,198.57l-0.04,18.18c0,0.35-0.04,0.71-0.12,1.06l0.04-18.18
									C268.92,199.28,268.96,198.92,268.96,198.57L268.96,198.57z"/>
								<path class="st9" d="M268.84,199.63l-0.04,18.18c-0.45,1.95-2.11,3.84-5,5.35l0.04-18.18
									C266.72,203.47,268.39,201.58,268.84,199.63L268.84,199.63z"/>
								<path class="st9" d="M259.58,206.65l-0.04,18.18c-3.55,1.01-7.63,1.37-11.57,1.08l0.04-18.18
									C251.94,208.01,256.02,207.65,259.58,206.65L259.58,206.65z"/>
								<path class="st9" d="M248,207.73l-0.04,18.18c-3.81-0.27-7.49-1.15-10.43-2.63c-3.63-1.83-5.44-4.23-5.43-6.62l0.04-18.18
									c-0.01,2.39,1.8,4.79,5.43,6.62C240.52,206.58,244.19,207.46,248,207.73L248,207.73z"/>
							</g>
						</g>
						<g>
							<path class="st9" d="M263.52,191.95c7.21,3.63,7.25,9.52,0.08,13.15c-7.16,3.63-18.82,3.63-26.03,0
								c-7.21-3.63-7.25-9.52-0.08-13.15C244.66,188.32,256.31,188.32,263.52,191.95z"/>
						</g>
					</g>
				</g>
			</g>
			<g class="st0">
				<defs>
					<path id="SVGID_17_" class="st0" d="M268.96,152.11l-0.17,54.46c-0.01,2.4-1.78,4.79-5.33,6.62c-7.14,3.68-18.75,3.68-25.94,0
						c-3.62-1.85-5.42-4.29-5.42-6.71l0.17-54.46c-0.01,2.43,1.8,4.86,5.42,6.71c7.19,3.68,18.8,3.68,25.94,0
						C267.18,156.9,268.95,154.51,268.96,152.11z"/>
				</defs>
				<use xlink:href="#SVGID_17_"  style="overflow:visible;fill:#D8DFE9;"/>
				<clipPath id="SVGID_18_">
					<use xlink:href="#SVGID_17_"  style="overflow:visible;"/>
				</clipPath>
				<g class="st16">
					<path class="st6" d="M268.96,152.11l-0.17,54.46c-0.01,1.61-0.81,3.22-2.4,4.65l0.17-54.46
						C268.15,155.33,268.95,153.72,268.96,152.11L268.96,152.11z"/>
					<path class="st6" d="M266.56,156.76l-0.17,54.46c-0.78,0.7-1.76,1.37-2.93,1.97c-1.22,0.63-2.58,1.15-4.02,1.57l0.17-54.46
						c1.44-0.41,2.79-0.94,4.02-1.57C264.8,158.13,265.77,157.47,266.56,156.76L266.56,156.76z"/>
					<path class="st7" d="M259.61,160.3l-0.17,54.46c-3.13,0.9-6.67,1.29-10.16,1.17l0.17-54.46
						C252.94,161.59,256.48,161.2,259.61,160.3L259.61,160.3z"/>
					<path class="st6" d="M249.46,161.47l-0.17,54.46c-3.23-0.11-6.41-0.66-9.19-1.64l0.17-54.46
						C243.04,160.82,246.23,161.36,249.46,161.47L249.46,161.47z"/>
					<path class="st6" d="M240.27,159.83l-0.17,54.46c-0.91-0.32-1.77-0.69-2.58-1.1c-3.62-1.85-5.42-4.29-5.42-6.71l0.17-54.46
						c-0.01,2.43,1.8,4.86,5.42,6.71C238.5,159.15,239.36,159.51,240.27,159.83L240.27,159.83z"/>
				</g>
			</g>
			<g>
				<path class="st2" d="M263.54,145.4c7.19,3.68,7.22,9.65,0.08,13.34c-7.14,3.68-18.75,3.68-25.94,0
					c-7.19-3.68-7.23-9.65-0.09-13.34C244.74,141.71,256.36,141.71,263.54,145.4z"/>
			</g>
		</g>
	</g>
	<path class="st13" d="M268.96,153.03c-0.35-19.53-9.39-38.91-18.43-38.86c-9.05,0.05-17.92,19.72-18.26,39.04
		c1.63,5.4,9.09,9.71,18.26,9.71C259.7,162.92,267.33,158.43,268.96,153.03z"/>
	<circle class="st17" cx="255.89" cy="236.63" r="3.42"/>
	<circle class="st17" cx="255.89" cy="247.63" r="3.42"/>
	<path class="st17" d="M259.31,258.63c0,1.89-1.53,3.42-3.42,3.42s-3.42-1.53-3.42-3.42s1.53-3.42,3.42-3.42
		S259.31,256.75,259.31,258.63z"/>
</g>
<path class="st11" d="M282.03,347.98v74.19c-3.48,2.51-7.43,2.82-11.77,2.83l0.17-74.22c4.32,0.21,6.26-0.35,10.13-1.9
	L282.03,347.98z"/>
<path class="st11" d="M218.76,347.98v74.19c3.48,2.51,7.43,2.82,11.77,2.83l-0.17-74.22c-4.32,0.21-6.26-0.35-10.13-1.9
	L218.76,347.98z"/>
</svg>
