<?xml version="1.0" encoding="utf-8"?>
<!-- Generator: Adobe Illustrator 24.2.3, SVG Export Plug-In . SVG Version: 6.00 Build 0)  -->
<svg version="1.1" id="Layer_1" xmlns="http://www.w3.org/2000/svg" xmlns:xlink="http://www.w3.org/1999/xlink" x="0px" y="0px"
	 viewBox="0 0 89.9 89.9" style="enable-background:new 0 0 89.9 89.9;" xml:space="preserve">
<style type="text/css">
	.st0{fill:#FF99CC;}
	.st1{fill:#66CCCC;}
	.st2{fill:#DD62C6;}
	.st3{fill:#339999;}
	.st4{fill:#FFFFFF;}
	.st5{fill:#333333;}
</style>
<g id="Layer_2_1_">
	<g id="Board_Game">
		<path class="st0" d="M71.2,54.4c1.5,1.5,2.4,3.6,2.4,5.7c0,4.4-3.8,8.1-8.8,8.6c0.1,0.4,0.1,0.8,0.1,1.2c0,4.8-4.5,8.7-9.9,8.7
			c-4.1,0-7.6-2.1-9.2-5.2c-0.3-0.4-0.8-0.6-1.3-0.4c-0.1,0.1-0.3,0.2-0.4,0.4c-0.5,1-1.1,1.8-1.9,2.5c-2,1.8-4.6,2.7-7.2,2.7
			c-5.5,0-9.9-3.8-9.9-8.7c0-0.4,0-0.8,0.1-1.2c-4.9-0.5-8.8-4.2-8.8-8.6c0-2.2,0.9-4.2,2.4-5.7c-4.3-1-7.4-4.3-7.4-8.4
			c0-2.5,1.2-4.9,3.2-6.5c-1.2-1.1-1.9-2.7-1.9-4.3c0-3.5,3.2-6.4,7.2-6.5c-0.7-1-1-2.1-1-3.3c0-3.6,3.3-6.5,7.5-6.5
			c0.4,0,0.8,0,1.3,0.1c0-0.1,0-0.1,0-0.2c0.1-4,4-7.4,8.6-7.5c2.3-0.1,4.5,0.7,6.2,2.2c0.7,0.6,1.3,1.4,1.8,2.2
			c0.2,0.3,0.5,0.5,0.8,0.5c0.3,0,0.6-0.2,0.8-0.5c1.7-2.8,4.7-4.5,8-4.4c4.6,0.1,8.5,3.4,8.6,7.5c0,0.1,0,0.1,0,0.2
			c0.4-0.1,0.8-0.1,1.3-0.1c4.1,0,7.5,2.9,7.5,6.5c0,1.2-0.4,2.3-1,3.3c4,0.1,7.2,3,7.2,6.5c0,1.7-0.7,3.2-1.9,4.3
			c2,1.6,3.1,4,3.2,6.5C78.6,50,75.4,53.4,71.2,54.4L71.2,54.4z"/>
		<path class="st1" d="M71.2,54.4c1.5,1.5,2.4,3.6,2.4,5.7c0,4.4-3.8,8.1-8.8,8.6c0.1,0.4,0.1,0.8,0.1,1.2c0,4.8-4.5,8.7-9.9,8.7
			c-4.1,0-7.6-2.1-9.2-5.2c-0.2-0.3-0.4-0.5-0.8-0.5V16.2c0.3,0,0.6-0.2,0.8-0.5c1.7-2.8,4.7-4.5,8-4.4c4.6,0.1,8.5,3.4,8.6,7.5
			c0,0.1,0,0.1,0,0.2c0.4-0.1,0.8-0.1,1.3-0.1c4.1,0,7.5,2.9,7.5,6.5c0,1.2-0.4,2.3-1,3.3c4,0.1,7.2,3,7.2,6.5
			c0,1.7-0.7,3.2-1.9,4.3c2,1.6,3.1,4,3.2,6.5C78.6,50,75.4,53.4,71.2,54.4L71.2,54.4z"/>
		<path class="st2" d="M44.2,15.7c-0.5-0.8-1.1-1.6-1.8-2.2c-0.1,0.1-0.1,0.2-0.2,0.3c-1.1,2-0.3,4.4,1.7,5.5
			c0.3,0.2,0.7,0.3,1.1,0.4v-3.5C44.6,16.2,44.3,16,44.2,15.7z"/>
		<path class="st2" d="M40.9,72.8c0,1.1,0.5,2.2,1.3,3c0.8-0.7,1.4-1.6,1.9-2.5c0.2-0.3,0.5-0.5,0.8-0.5v-4
			C42.8,68.8,40.9,70.6,40.9,72.8C40.9,72.8,40.9,72.8,40.9,72.8z"/>
		<path class="st3" d="M71.2,54.4c1.5,1.5,2.4,3.6,2.4,5.7c0,4.4-3.8,8.1-8.8,8.6c0.1,0.4,0.1,0.8,0.1,1.2c0,4.8-4.5,8.7-9.9,8.7
			c-4.1,0-7.6-2.1-9.2-5.2c-0.2-0.3-0.4-0.5-0.8-0.5v-4.1c1.9,0,3.6,1,4.4,2.7c0.9,1.8,3.1,3,5.5,3c3.2,0,5.9-2.1,5.9-4.6
			c0-0.2,0-0.4-0.1-0.5c-0.3-2.2,1.2-4.3,3.5-4.6c0,0,0.1,0,0.1,0c2.9-0.3,5.2-2.3,5.2-4.6c0-1.1-0.5-2.1-1.2-2.9
			c-1.6-1.6-1.6-4.1,0-5.7c0.5-0.5,1.2-0.9,1.9-1.1c2.5-0.6,4.2-2.4,4.2-4.4c-0.1-1.3-0.7-2.6-1.8-3.4c-1.7-1.5-1.9-4-0.4-5.7
			c0.1-0.1,0.2-0.2,0.3-0.3c0.4-0.4,0.7-0.9,0.7-1.4c0-1.3-1.5-2.4-3.3-2.4c-2.2-0.1-4-1.9-3.9-4.2c0-0.8,0.3-1.5,0.7-2.1
			c0.2-0.3,0.3-0.6,0.3-1c0-1.3-1.5-2.4-3.4-2.4c-0.1,0-0.4,0-0.8,0.1c-1.2,0.2-2.4-0.2-3.3-1.1c-0.9-0.8-1.3-2-1.3-3.2
			c-0.1-1.9-2.5-3.3-4.6-3.3h-0.1c-1.7-0.1-3.4,0.8-4.3,2.2c-0.8,1.6-2.6,2.4-4.3,2.1v-3.5c0.3,0,0.6-0.2,0.8-0.5
			c1.7-2.8,4.7-4.5,8-4.4c4.6,0.1,8.5,3.4,8.6,7.5c0,0.1,0,0.1,0,0.2c0.4-0.1,0.8-0.1,1.3-0.1c4.1,0,7.5,2.9,7.5,6.5
			c0,1.2-0.4,2.3-1,3.3c4,0.1,7.2,3,7.2,6.5c0,1.7-0.7,3.2-1.9,4.3c2,1.6,3.1,4,3.2,6.5C78.6,50,75.4,53.4,71.2,54.4L71.2,54.4z"/>
		<circle class="st4" cx="54.3" cy="66.5" r="2"/>
		<circle class="st4" cx="54.3" cy="25.1" r="2"/>
		<circle class="st4" cx="63" cy="59.8" r="2"/>
		<circle class="st4" cx="63" cy="31.6" r="2"/>
		<path class="st5" d="M54.9,79.6c-4.3,0-8.2-2.2-9.9-5.6c-2,3.6-5.9,5.7-10,5.6c-6,0-11-4.3-11-9.7v-0.3c-2.8-0.5-5.4-2-7-4.3
			c-0.3-0.5-0.2-1.1,0.2-1.4c0.5-0.3,1.1-0.2,1.4,0.2c1.6,2.1,4,3.4,6.6,3.6c0.3,0,0.5,0.2,0.7,0.4c0.2,0.2,0.2,0.5,0.2,0.8
			c0,0.3-0.1,0.7-0.1,1c0,4.2,4,7.7,8.9,7.7c3.6,0,6.8-1.8,8.2-4.7c0.3-0.7,1-1.1,1.7-1c0.7,0,1.4,0.4,1.7,1
			c1.4,2.8,4.6,4.7,8.2,4.7c4.9,0,8.9-3.4,8.9-7.7c0-0.3,0-0.7-0.1-1c0-0.3,0-0.6,0.2-0.8c0.2-0.2,0.4-0.4,0.7-0.4
			c1.3-0.1,2.5-0.5,3.6-1.1c0.5-0.3,1.1-0.1,1.4,0.4c0.3,0.5,0.1,1.1-0.4,1.4c-1.1,0.5-2.2,0.9-3.3,1.1v0.3
			C65.9,75.3,61,79.6,54.9,79.6L54.9,79.6z"/>
		<path class="st5" d="M16.3,61.2c-0.6,0-1-0.5-1-1c0-1.9,0.6-3.7,1.7-5.2c-4-1.5-6.6-5-6.6-8.9c0-2.5,1-4.8,2.8-6.6
			c-1-1.2-1.5-2.7-1.5-4.3c0-3.6,2.8-6.6,6.7-7.3c-0.3-0.8-0.4-1.6-0.4-2.4c0-2.4,1.3-4.7,3.3-6c0.5-0.3,1.1-0.1,1.4,0.4
			c0.3,0.4,0.2,1-0.3,1.3c-1.5,0.9-2.4,2.5-2.4,4.3c0,1,0.3,1.9,0.8,2.7c0.2,0.3,0.2,0.7,0.1,1c-0.2,0.3-0.5,0.5-0.9,0.6
			c-3.5,0.1-6.2,2.5-6.2,5.5c0,1.4,0.6,2.7,1.6,3.6c0.2,0.2,0.3,0.5,0.3,0.8c0,0.3-0.1,0.6-0.3,0.8c-1.7,1.4-2.8,3.5-2.8,5.7
			c0,3.4,2.7,6.5,6.6,7.4c0.4,0.1,0.7,0.3,0.8,0.7c0.1,0.4,0,0.7-0.3,1c-1.3,1.3-2.1,3.1-2.1,5C17.4,60.7,16.9,61.1,16.3,61.2
			C16.4,61.2,16.4,61.2,16.3,61.2z"/>
		<path class="st5" d="M72.3,65.4c-0.2,0-0.4-0.1-0.5-0.2c-0.5-0.3-0.6-0.9-0.3-1.4c0.7-1.1,1.1-2.4,1.1-3.7c0-1.9-0.8-3.7-2.1-5
			c-0.3-0.3-0.4-0.6-0.3-1c0.1-0.4,0.4-0.6,0.8-0.7c3.8-0.9,6.6-3.9,6.6-7.4c0-2.2-1.1-4.3-2.8-5.7c-0.2-0.2-0.3-0.5-0.3-0.8
			c0-0.3,0.1-0.6,0.3-0.8c1-0.9,1.6-2.2,1.6-3.6c0-3-2.7-5.4-6.2-5.5c-0.4,0-0.7-0.2-0.9-0.5c-0.2-0.3-0.2-0.7,0.1-1
			c0.5-0.8,0.8-1.7,0.8-2.7c0-3-2.9-5.5-6.4-5.5c-0.4,0-0.8,0-1.1,0.1c-0.3,0-0.6-0.1-0.8-0.3c-0.2-0.2-0.3-0.5-0.3-0.8v-0.1
			c-0.1-3.4-3.5-6.4-7.6-6.5c-2.9-0.1-5.6,1.4-7.1,3.8c-0.5,0.9-1.7,1.3-2.7,0.7c-0.3-0.2-0.5-0.4-0.7-0.7c-1.5-2.5-4.2-4-7.1-3.8
			c-4,0.1-7.5,3-7.6,6.5v0.1c0,0.3-0.1,0.6-0.3,0.8c-0.2,0.2-0.5,0.3-0.8,0.3c-0.4-0.1-0.7-0.1-1.1-0.1c-0.6,0-1-0.5-1-1s0.5-1,1-1
			h0.3c0.3-2,1.3-3.8,2.9-5.1c1.9-1.6,4.2-2.4,6.6-2.4c3.6-0.1,7,1.7,8.9,4.8c1.8-3,5.1-4.8,8.7-4.8h0.1c2.4,0,4.8,0.9,6.7,2.5
			c1.5,1.3,2.6,3.1,2.9,5.1h0.3c4.7,0,8.5,3.4,8.5,7.5c0,0.8-0.1,1.6-0.4,2.4c3.8,0.8,6.7,3.7,6.7,7.3c0,1.6-0.6,3.1-1.5,4.3
			c1.7,1.7,2.7,4.1,2.8,6.6c0,3.9-2.7,7.4-6.7,8.9c1.1,1.5,1.7,3.3,1.7,5.2c0,1.7-0.5,3.3-1.4,4.8C73,65.2,72.6,65.4,72.3,65.4
			L72.3,65.4z"/>
		<path class="st5" d="M23.2,31c-0.3,0-0.5-0.1-0.7-0.3c-0.8-0.6-1.7-0.9-2.7-1c-0.6,0-1.1-0.4-1.1-0.9c0-0.6,0.4-1.1,0.9-1.1
			c0.1,0,0.1,0,0.2,0c1.5,0,2.9,0.6,4,1.5c0.4,0.4,0.5,1,0.1,1.4c0,0,0,0,0,0C23.8,30.9,23.5,31,23.2,31L23.2,31z"/>
		<path class="st5" d="M25.2,69.7H25c-0.6-0.1-0.9-0.6-0.9-1.1c0,0,0,0,0,0c0.2-1.5,0.9-2.9,2-4c0.4-0.4,1-0.5,1.4-0.1
			c0.4,0.4,0.5,1,0.1,1.4c0,0-0.1,0.1-0.1,0.1c-0.7,0.8-1.2,1.7-1.4,2.8C26.1,69.4,25.7,69.7,25.2,69.7L25.2,69.7z"/>
		<path class="st5" d="M72.3,42c-0.6,0-1-0.4-1.1-1c0-0.6,0.4-1,1-1.1c0.9-0.1,1.8-0.5,2.5-1.2c0.4-0.4,1.1-0.3,1.4,0.1
			c0.3,0.4,0.3,0.9,0,1.3C75.1,41.2,73.8,41.9,72.3,42C72.3,42,72.3,42,72.3,42z"/>
		<path class="st5" d="M61,23.8c-0.2,0-0.5-0.1-0.6-0.2c-0.4-0.4-0.5-1-0.1-1.4c0.7-1,1.1-2.2,1.1-3.4c0-0.6,0.4-1.1,0.9-1.1
			c0.6,0,1.1,0.4,1.1,0.9c0,0.1,0,0.1,0,0.2c0,1.7-0.6,3.3-1.6,4.6C61.6,23.7,61.3,23.8,61,23.8L61,23.8z"/>
		<path class="st5" d="M45,73.9c-0.6,0-1-0.5-1-1V27.9c0-0.6,0.5-1,1-1c0.6,0,1,0.5,1,1c0,0,0,0,0,0v44.9C46,73.4,45.6,73.9,45,73.9
			z"/>
		<path class="st5" d="M45,24.2c-0.6,0-1-0.5-1-1v-7c0-0.6,0.5-1,1-1c0.6,0,1,0.5,1,1c0,0,0,0,0,0v7C46,23.8,45.6,24.2,45,24.2z"/>
		<path class="st5" d="M54.3,69.5c-1.7,0-3.1-1.4-3.1-3.1c0-1.7,1.4-3.1,3.1-3.1s3.1,1.4,3.1,3.1C57.4,68.1,56,69.5,54.3,69.5z
			 M54.3,65.5c-0.6,0-1,0.5-0.9,1.1c0,0.5,0.4,0.9,0.9,0.9c0.6,0,1-0.5,1-1C55.3,65.9,54.9,65.5,54.3,65.5
			C54.3,65.5,54.3,65.5,54.3,65.5z"/>
		<path class="st5" d="M55.3,64.4h-2c0-1.8-0.4-3.2-1.3-4c-1.4-1.3-3.8-1.2-5.8-1.2c-0.4,0-0.8,0-1.2,0v-2h1.2
			c2.2-0.1,5.3-0.2,7.3,1.7C54.7,60.3,55.3,62.1,55.3,64.4L55.3,64.4z"/>
		<path class="st5" d="M54.3,28.2c-1.7,0-3-1.4-3-3.1s1.4-3,3.1-3c1.7,0,3,1.4,3,3C57.4,26.8,56,28.2,54.3,28.2z M54.3,24.1
			c-0.6,0-1,0.5-0.9,1.1c0,0.5,0.4,0.9,0.9,0.9c0.6,0,1-0.5,1-1C55.3,24.6,54.9,24.1,54.3,24.1C54.3,24.1,54.3,24.1,54.3,24.1z"/>
		<path class="st5" d="M47.7,34.4c-0.5,0-1,0-1.5,0c-0.5,0-0.8,0-1.2,0v-2.1c0.4,0,0.8,0,1.2,0c2,0.1,4.4,0.2,5.8-1.2
			c0.8-0.8,1.3-2.2,1.3-4h2c0,2.4-0.6,4.2-1.9,5.5C51.9,34.1,49.6,34.3,47.7,34.4L47.7,34.4z"/>
		<path class="st5" d="M63,62.8c-1.7,0-3.1-1.3-3.1-3c0-1.7,1.3-3.1,3-3.1s3.1,1.3,3.1,3c0,0,0,0,0,0C66.1,61.4,64.7,62.8,63,62.8z
			 M63,58.8c-0.6,0-1.1,0.4-1.1,0.9c0,0.6,0.4,1.1,0.9,1.1c0.1,0,0.1,0,0.2,0c0.6,0,1-0.5,0.9-1.1C63.9,59.2,63.5,58.8,63,58.8z"/>
		<path class="st5" d="M64.1,57.7h-2c0-6.6-5.5-6.8-17.1-6.8v-2.1c5.4,0,10,0,13.3,1C62.2,51.1,64.1,53.6,64.1,57.7z"/>
		<path class="st5" d="M63,34.7c-1.7,0-3-1.4-3-3s1.4-3,3-3c1.7,0,3,1.4,3,3l0,0C66.1,33.3,64.7,34.6,63,34.7z M63,30.6
			c-0.6,0-1,0.4-1,1c0,0.6,0.4,1,1,1c0.6,0,1-0.4,1-1c0,0,0,0,0,0C64.1,31.1,63.6,30.6,63,30.6z"/>
		<path class="st5" d="M45,42.5v-2c11.5,0,17.1-0.3,17.1-6.8h2c0,4.1-1.9,6.7-5.8,7.8C55,42.5,50.3,42.5,45,42.5z"/>
		<path class="st5" d="M66.3,46.8c-0.1,0-0.1,0-0.2,0c-0.1,0-0.1,0-0.2-0.1c-0.1,0-0.1-0.1-0.2-0.1l-0.1-0.1
			c-0.2-0.2-0.3-0.4-0.3-0.7c0-0.1,0-0.1,0-0.2c0-0.1,0-0.1,0.1-0.2c0-0.1,0.1-0.1,0.1-0.2c0-0.1,0.1-0.1,0.1-0.1
			c0,0,0.1-0.1,0.2-0.1c0.1,0,0.1-0.1,0.2-0.1c0.1,0,0.1,0,0.2-0.1c0.3-0.1,0.7,0,0.9,0.3c0,0.1,0.1,0.1,0.1,0.1
			c0,0.1,0.1,0.1,0.1,0.2c0,0.1,0,0.1,0.1,0.2c0,0,0,0.1,0.1,0.1c0,0.1,0,0.1,0,0.2c0,0.1,0,0.1-0.1,0.2c0,0.1-0.1,0.1-0.1,0.2
			c0,0.1-0.1,0.1-0.1,0.1C66.9,46.7,66.6,46.8,66.3,46.8L66.3,46.8z"/>
		<path class="st5" d="M59.4,46.8c-0.1,0-0.1,0-0.2,0c-0.1,0-0.1,0-0.2-0.1c-0.1,0-0.1-0.1-0.2-0.1c-0.1,0-0.1-0.1-0.2-0.1
			c0,0-0.1-0.1-0.1-0.1c0-0.1-0.1-0.1-0.1-0.2c0-0.1,0-0.1-0.1-0.2c0-0.1,0-0.3,0-0.4c0-0.1,0-0.1,0.1-0.2c0-0.1,0.1-0.1,0.1-0.2
			l0.1-0.1c0.1,0,0.1-0.1,0.2-0.1c0.1,0,0.1-0.1,0.2-0.1c0.1,0,0.1,0,0.2-0.1c0.1,0,0.3,0,0.4,0l0.2,0.1c0.1,0,0.1,0.1,0.2,0.1
			l0.2,0.1c0,0,0.1,0.1,0.1,0.1c0,0.1,0.1,0.1,0.1,0.2c0,0.1,0,0.1,0.1,0.2c0,0,0,0.1,0,0.1c0,0.3-0.1,0.5-0.3,0.7
			c0,0-0.1,0.1-0.2,0.1c-0.1,0-0.1,0.1-0.2,0.1c-0.1,0-0.1,0-0.2,0.1C59.5,46.8,59.5,46.8,59.4,46.8z"/>
		<path class="st5" d="M54.3,18.9c-0.1,0-0.1,0-0.2,0c-0.1,0-0.1,0-0.2-0.1c-0.1,0-0.1-0.1-0.2-0.1l-0.2-0.1c0-0.1-0.1-0.1-0.1-0.1
			c0-0.1-0.1-0.1-0.1-0.2c0-0.1,0-0.1-0.1-0.2c0-0.1,0-0.1,0-0.2c0-0.1,0-0.1,0-0.2c0-0.1,0-0.1,0.1-0.2c0-0.1,0.1-0.1,0.1-0.2
			l0.1-0.1c0,0,0.1-0.1,0.2-0.1c0.1,0,0.1-0.1,0.2-0.1c0.1,0,0.1,0,0.2-0.1c0.1,0,0.3,0,0.4,0c0.1,0,0.1,0,0.2,0.1
			c0.1,0,0.1,0.1,0.2,0.1l0.2,0.1c0,0,0.1,0.1,0.1,0.1c0,0.1,0.1,0.1,0.1,0.2c0,0.1,0,0.1,0.1,0.2c0,0.1,0,0.1,0,0.2
			c0,0.1,0,0.1,0,0.2c0,0.1,0,0.1-0.1,0.2c0,0.1-0.1,0.1-0.1,0.2c0,0.1-0.1,0.1-0.1,0.1c-0.1,0-0.1,0.1-0.2,0.1
			c-0.1,0-0.1,0.1-0.2,0.1c-0.1,0-0.1,0-0.2,0.1C54.4,18.9,54.4,18.9,54.3,18.9z"/>
		<path class="st5" d="M54.3,74.7c-0.1,0-0.1,0-0.2,0c-0.1,0-0.1,0-0.2-0.1c-0.1,0-0.1-0.1-0.2-0.1l-0.2-0.1c0-0.1-0.1-0.1-0.1-0.1
			c0-0.1-0.1-0.1-0.1-0.2c0-0.1,0-0.1-0.1-0.2c0-0.1,0-0.1,0-0.2c0-0.1,0-0.1,0-0.2c0-0.1,0-0.1,0.1-0.2c0-0.1,0.1-0.1,0.1-0.2
			l0.1-0.1c0,0,0.1-0.1,0.2-0.1c0.1,0,0.1-0.1,0.2-0.1c0.1,0,0.1,0,0.2-0.1c0.1,0,0.3,0,0.4,0c0.1,0,0.1,0,0.2,0.1
			c0.1,0,0.1,0.1,0.2,0.1L55,73c0,0,0.1,0.1,0.1,0.1c0,0.1,0.1,0.1,0.1,0.2c0,0.1,0,0.1,0.1,0.2c0,0.1,0,0.1,0,0.2
			c0,0.1,0,0.1,0,0.2c0,0.1,0,0.1-0.1,0.2c0,0.1-0.1,0.1-0.1,0.2c0,0.1-0.1,0.1-0.1,0.1c-0.1,0-0.1,0.1-0.2,0.1
			c-0.1,0-0.1,0.1-0.2,0.1c-0.1,0-0.1,0-0.2,0.1C54.4,74.7,54.4,74.7,54.3,74.7z"/>
		<path class="st5" d="M22.8,46.1L22.8,46.1c-0.6,0-1-0.5-1-1.1c0,0,0,0,0,0c0.1-1.2,0.5-2.4,1-3.5c1.2-2.4,3.4-4.1,6-4.7
			c0.6-0.1,1.1,0.2,1.2,0.8s-0.2,1.1-0.8,1.2l0,0c-3,0.7-5.2,3.3-5.5,6.4C23.8,45.7,23.4,46.1,22.8,46.1L22.8,46.1z"/>
		<path class="st5" d="M33,28.9c-0.6,0-1-0.5-1-1c0-0.4,0.3-0.8,0.7-1c0.1-0.1,3.4-1.3,3.7-4.4c0.1-0.6,0.5-1,1.1-0.9
			c0.6,0.1,1,0.5,0.9,1.1c-0.4,4.5-4.9,6.1-5.1,6.2C33.3,28.9,33.1,28.9,33,28.9L33,28.9z"/>
		<path class="st5" d="M37.1,66.9c-0.2,0-0.3,0-0.4-0.1c-5.2-2.5-4.7-8.2-4.7-8.5c0.1-0.6,0.6-0.9,1.2-0.8c0.5,0.1,0.8,0.5,0.8,1
			c0,0.2-0.4,4.6,3.6,6.5c0.5,0.2,0.7,0.8,0.5,1.4C37.9,66.6,37.5,66.9,37.1,66.9L37.1,66.9z"/>
		<path class="st5" d="M34.7,49.9c-0.6,0-1-0.4-1-1c0-0.4,0.2-0.8,0.6-0.9c1.2-0.7,1.9-2,1.8-3.3c0-0.6,0.4-1,1-1
			c0.5,0,0.9,0.4,1,0.8c0,0.1,0.3,3.8-3,5.3C35,49.8,34.9,49.9,34.7,49.9z"/>
	</g>
</g>
</svg>
