<?xml version="1.0" encoding="utf-8"?>
<!-- Generator: Adobe Illustrator 24.2.3, SVG Export Plug-In . SVG Version: 6.00 Build 0)  -->
<svg version="1.1" id="Layer_1" xmlns="http://www.w3.org/2000/svg" xmlns:xlink="http://www.w3.org/1999/xlink" x="0px" y="0px"
	 viewBox="0 0 101.5 101.3" style="enable-background:new 0 0 101.5 101.3;" xml:space="preserve">
<style type="text/css">
	.st0{fill:#F5F5F5;}
	.st1{fill:#CFD8DC;}
	.st2{fill:#FF9801;}
	.st3{fill:#F57C00;}
	.st4{fill:#607D8B;}
	.st5{fill:#333333;}
</style>
<g id="Layer_2_1_">
	<g id="Board_Game">
		<g id="_014---Astronaut">
			<g id="Icons">
				<path id="Shape" class="st0" d="M58.7,38.3c0,3-1.8,5.7-4.6,6.8l-0.2,0.1h-0.2l-5.2,1.8c-1-0.9-2.4-1.4-3.8-1.3
					c-2.1,0.2-3.8,1.8-4.2,3.8c-6,1.1-11.9-2.4-13.8-8.3l-1.9-5.8c-2.4-7.1,1.3-14.9,8.4-17.4l4.6-1.6c6.2-2.1,12.9,0.6,16,6.3
					l-11.3,3.9c-1.3,0.5-2,1.9-1.5,3.2l1.9,5.9c1.2,3.8,5.3,6,9.1,4.8c0,0,0.1,0,0.1,0L58.7,38.3L58.7,38.3z"/>
				<path id="Shape-2" class="st1" d="M50,22.8l-11.3,3.9c-1.3,0.5-2,1.9-1.5,3.2l1.9,5.9c1.2,3.7,5,5.8,8.8,4.9
					c-2.4-0.7-4.3-2.5-5-4.9l-1.9-5.9c-0.4-1.3,0.2-2.7,1.5-3.2l11.3-3.9c-2.6-4.9-8-7.6-13.5-6.9C44.4,16.5,48,19.1,50,22.8z"/>
				<path id="Shape-3" class="st1" d="M58.6,38.3l-3.9,1.4c-0.5,2.4-2.1,4.5-4.4,5.5l-0.2,0.1h-0.2l-2.8,1c0.5,0.2,1,0.5,1.4,0.8
					l5.2-1.8h0.2l0.2-0.1C56.8,44,58.6,41.3,58.6,38.3L58.6,38.3z"/>
				<path id="Shape-4" class="st2" d="M58.7,38.3l-6.5,2.2c-3.8,1.3-7.9-0.8-9.2-4.6c0-0.1,0-0.1-0.1-0.2l-1.9-5.9
					c-0.4-1.3,0.2-2.7,1.5-3.2l11.2-3.9c0.4,0.7,0.7,1.5,1,2.3l3.5,10.7C58.5,36.6,58.7,37.5,58.7,38.3z"/>
				<path id="Shape-5" class="st3" d="M58.3,35.8l-3.5-10.7c-0.3-0.8-0.6-1.6-1-2.3L50.6,24c0.2,0.4,0.3,0.8,0.4,1.3l3.5,10.6
					c0.3,0.8,0.4,1.6,0.4,2.5l-6.5,2.2l-0.5,0.1c1.4,0.4,2.9,0.3,4.2-0.1l6.5-2.2C58.7,37.5,58.5,36.6,58.3,35.8L58.3,35.8z"/>
				<path id="Shape-6" class="st4" d="M40.5,49.9c-4.8,2.1-7.3,7.5-5.6,12.5c3.5,10.6,3.9,12.5,4.9,14.1l-0.3,0.1l-4.6,1.6
					c-2.5,0.9-5.3-0.5-6.1-3c0,0,0-0.1,0-0.1l-4.7-14.2c-0.9-2.6,0.5-5.4,3.1-6.3L40.5,49.9z"/>
				<path id="Shape-7" class="st0" d="M85.8,76.4l-11.5,4l-1.6-4.7c-0.4-1.3-1.8-2-3-1.6c0,0,0,0-0.1,0l-18.5,6.4
					c-4,1.3-8.3,0-10.8-3.4c-0.2-0.2-0.3-0.4-0.5-0.7c-0.9-1.5-1.5-3.5-4.9-14.1c-1.7-5,0.7-10.4,5.6-12.5c-0.1,0.5-0.1,1-0.1,1.5
					l1.3,11.5c0.2,1.8,1.3,3.4,3,4.1l7.7,3.2l2.8,1.1c1.1,0.4,2.3,0.5,3.4,0.1c2.6-1,4-3.9,3-6.5c-0.1-0.3-0.3-0.7-0.5-1h0.1
					l9.2-3.2c0.4-0.1,0.8-0.2,1.2-0.3L73,65c0.8,2.6,3.5,4,6.1,3.2c0,0,0.1,0,0.1,0l3.5-1.3l0.1,0.3l3,9.1L85.8,76.4z"/>
				<path id="Shape-8" class="st1" d="M85.7,76.3l-3-9.1l-0.1-0.3l-3.4,1.2l2.7,8.2v0.1l-8.2,2.8l0.4,1.2l11.5-4L85.7,76.3z"/>
				<path id="Shape-9" class="st4" d="M91.9,83.5l-13.8,4.9c-0.6,0.2-1.3-0.2-1.5-0.8l-2.3-7.1l11.5-4c2.5-0.9,5.3,0.5,6.1,3
					c0,0,0,0.1,0,0.1l0.8,2.4C92.9,82.6,92.6,83.3,91.9,83.5L91.9,83.5z"/>
				<path id="Shape-10" class="st0" d="M82.7,67l-3.5,1.2c-2.5,0.9-5.3-0.5-6.1-3c0,0,0-0.1,0-0.1l-1.6-4.7
					C76.4,59.4,81.2,62.2,82.7,67z"/>
				<path id="Shape-11" class="st0" d="M87.3,61.6l-4.6,5.6v-0.3c-1.5-4.7-6.3-7.6-11.2-6.6c-0.4,0.1-0.8,0.2-1.2,0.3l-9.2,3.2
					L60.8,63l5.4-6.5c3.3-4.1,9.3-4.8,13.5-1.5c0.1,0.1,0.2,0.2,0.3,0.3L87.3,61.6z"/>
				<path id="Shape-12" class="st4" d="M96.2,64.4l-9.4,11.5c-0.3,0.3-0.6,0.5-1,0.4l-3-9.1l4.6-5.6c1.7-2.1,4.7-2.4,6.7-0.7
					c0,0,0.1,0.1,0.1,0.1l1.9,1.6c0.3,0.2,0.4,0.5,0.5,0.9C96.5,63.8,96.4,64.2,96.2,64.4L96.2,64.4z"/>
				<path id="Shape-13" class="st0" d="M58.4,71.4c-1.1,0.4-2.3,0.3-3.4-0.1l-2.8-1.1l4.3-9l2.1,0.8c0.9,0.4,1.7,1.1,2.3,1.9
					c1.5,2.4,0.7,5.5-1.7,7C59,71.1,58.7,71.2,58.4,71.4L58.4,71.4z"/>
				<path id="Shape-14" class="st0" d="M56.6,61.2l-4.3,9L44.6,67c-1.7-0.7-2.8-2.3-3-4.1l-1.2-11.5c0-0.5,0-1,0.1-1.5
					c0,0,0-0.1,0-0.1c0.4-2.1,2.1-3.6,4.2-3.8c1.4-0.1,2.7,0.3,3.7,1.2c1,0.8,1.6,1.9,1.7,3.2l0.9,8.3v0.2L56.6,61.2z"/>
				<path id="Shape-15" class="st1" d="M51,58.8v-0.2l-0.8-8.3c-0.1-1.3-0.7-2.4-1.7-3.3c-1-0.9-2.4-1.4-3.8-1.3
					c-0.5,0.1-0.9,0.2-1.4,0.4c0.5,0.2,1,0.5,1.4,0.8c1,0.8,1.6,2,1.7,3.3l0.9,8.3v0.2l5.6,2.3l-3.8,7.7l3.1,1.3l4.4-9L51,58.8z"/>
				<path id="Shape-16" class="st0" d="M61.1,63.9H61c-0.5-0.9-1.3-1.5-2.3-1.9l-2.1-0.9L51,58.8v-0.2l-0.8-8.3
					c-0.1-1.3-0.7-2.4-1.7-3.3l5.2-1.8h0.2l0.2-0.1l0.7-0.2l2.3,7.2L60.8,63L61.1,63.9z"/>
				<path id="Shape-17" class="st4" d="M74.6,52.9c-3.2-0.3-6.4,1-8.4,3.5l-5.4,6.5l-3.6-10.9c1.3-0.4,1.9-0.3,5.6,0.1
					c0.7,0,1.3-0.5,1.3-1.2c0-0.1,0-0.2,0-0.3l-0.4-2l9.5-2.2L74.6,52.9z"/>
				<path id="Shape-18" class="st0" d="M73.1,46.4l-9.5,2.2l-0.4-1.8c-0.6-2.6,1-5.3,3.7-5.9c2.6-0.6,5.2,1.1,5.8,3.7
					c0,0,0,0.1,0,0.1L73.1,46.4z"/>
			</g>
			<g id="Stroke">
				<path id="Shape-19" class="st5" d="M39.8,38.2c-0.2-0.6-0.9-1-1.6-0.7l-1.1,0.4c-0.3,0.1-0.6,0.1-0.9-0.1
					c-0.3-0.2-0.5-0.4-0.6-0.7l-0.8-2.4c-0.2-0.6,0.1-1.4,0.7-1.6l1.2-0.4c0.6-0.3,0.9-1,0.6-1.6c-0.2-0.6-0.9-0.9-1.4-0.7l-1.1,0.5
					c-1.9,0.7-3,2.8-2.3,4.7l0.7,2.4c0.5,1.5,1.9,2.5,3.5,2.5c0.8-0.1,1.6-0.3,2.3-0.6C39.7,39.6,40,38.9,39.8,38.2
					C39.8,38.2,39.8,38.2,39.8,38.2z"/>
				<path id="Shape-20" class="st5" d="M95,60.1c-2.2-1.9-5.5-2-7.7-0.1l-6.6-5.7c-1.4-1.3-3.2-2.1-5.1-2.5l-1.7-7.5
					c-0.4-1.6-1.4-3.1-2.8-3.9c-2.9-1.8-6.7-0.8-8.5,2.1c-0.9,1.4-1.1,3.1-0.7,4.7c1.1,4.6-1.2-4.9,0.9,3.8c-3.7-0.3-4-0.4-4.9-0.3
					l-1.7-5.2c3.1-2.3,4.4-6.3,3.2-9.9c-3.8-11.6-3.7-11.4-4.5-13c-3.3-6.4-10.7-9.4-17.5-7.1l-4.7,1.5c-7.7,2.8-11.8,11.2-9.2,19
					l2,5.9c1.4,4.2,4.7,7.5,8.9,8.8l-7.7,2.7c-3.2,1.2-4.9,4.7-3.8,7.9l4.7,14.2c1,3.2,4.4,5,7.6,4c0,0,0.1,0,0.1,0l4-1.4
					c2.1,2.7,5.2,4.3,8.6,4.3c2.4,0,1.7,0,22-7c0.3-0.1,0.6-0.1,0.9,0.1c0.3,0.1,0.5,0.4,0.6,0.7L75.4,88c0.4,1.3,1.8,2,3.1,1.6
					l13.8-4.8c0.6-0.2,1.2-0.6,1.5-1.2c0.3-0.6,0.4-1.3,0.2-1.9c-0.9-2.7-1.4-5.4-4.9-6.4l8.2-10c0.9-1.1,0.8-2.6-0.3-3.5L95,60.1z
					 M85.6,61.8l-2.5,3c-2.2-4.4-7.1-6.7-11.9-5.7c-1.8,0.5,1.1-0.5-7.8,2.6l3.8-4.6c2.9-3.6,8.1-4.1,11.7-1.3
					c0.1,0.1,0.2,0.1,0.2,0.2L85.6,61.8z M81,66.2L78.8,67c-1.9,0.6-3.9-0.4-4.6-2.3c0,0,0-0.1,0-0.1l-1-3.2
					C76.5,61.3,79.5,63.2,81,66.2L81,66.2z M44.8,47.2c2-0.2,3.8,1.2,4,3.3c0,0,0,0.1,0,0.1l0.8,7.5L47,59.8
					c-0.5,0.4-0.6,1.2-0.2,1.8c0.4,0.5,1,0.6,1.5,0.3l2.6-1.7l4,1.7l-3.2,6.7l-6.6-2.7c-1.3-0.5-2.1-1.7-2.3-3.1l-1.3-11.4
					C41.4,49.3,42.8,47.4,44.8,47.2z M58.7,60.7L52.1,58c-0.9-8.2-0.7-8.6-1.6-10.2l3.5-1.3C56.4,53.8,55.4,50.8,58.7,60.7z
					 M57.2,62.8l1,0.4c1.9,0.8,2.8,3,2,4.9c-0.7,1.9-2.7,2.8-4.6,2.1c0,0-0.1,0-0.1,0l-1.5-0.6L57.2,62.8z M67.1,42
					c1.9-0.4,3.9,0.8,4.3,2.8c0,0,0,0,0,0l0.1,0.6l-7,1.7l-0.1-0.6C63.9,44.5,65.1,42.5,67.1,42z M62.6,53.3
					c1.4,0.1,2.6-0.9,2.7-2.3c0-0.3,0-0.5-0.1-0.8l-0.2-0.7l7.1-1.6l0.8,3.7c-3.1,0.1-5.9,1.6-7.8,4l-3.9,4.8L58.8,53
					C59.2,53,58.2,53,62.6,53.3z M57.1,36.2c0.1,0.4,0.2,0.8,0.3,1.3l-5.6,2c-3.2,1.1-6.6-0.6-7.6-3.8c0,0,0-0.1,0-0.1l-2-5.9
					c-0.2-0.6,0.1-1.4,0.7-1.6c0,0,0,0,0,0l10.3-3.6C53.5,25.3,53.4,25.1,57.1,36.2L57.1,36.2z M27.9,41.1L26,35.2
					c-2.2-6.5,1.2-13.5,7.6-15.9l4.6-1.6c5.1-1.7,10.6,0.1,13.7,4.5L42,25.6c-1.9,0.7-3,2.8-2.3,4.7l2,5.9c1.1,3.5,4.4,5.9,8.1,6
					c1.8,0,2.4-0.4,7.3-2c-0.6,1.8-2,3.3-3.8,3.9l-4.6,1.6c-2.7-1.9-6.5-1.2-8.4,1.5c-0.3,0.4-0.6,0.9-0.7,1.4
					C34.4,49.2,29.5,46.1,27.9,41.1z M34.5,77c-1.9,0.6-3.9-0.4-4.5-2.3c0,0,0-0.1,0-0.1l-4.7-14.2c-0.7-1.9,0.4-4.1,2.3-4.8
					l7.3-2.5c-1.8,2.9-2.2,6.4-1.1,9.6c4,12.2,3.9,12,4.3,13L34.5,77z M69.2,72.9l-18.4,6.4c-3.5,1.2-7.3,0-9.4-3
					c-1.3-1.6-1.2-2.1-5.2-14.4c-1.2-3.6,0-7.6,3.1-9.9l1.2,11c0.2,2.3,1.6,4.2,3.7,5.1c11.4,4.7,11.1,4.8,12.7,4.8
					c3.5,0,6.2-2.9,6.2-6.3c0-0.7-0.1-1.3-0.3-1.9l8-2.8l1.2,3.5c0.5,1.6,1.6,2.9,3.1,3.6c1.5,0.7,3.2,0.9,4.7,0.3l2.3-0.8l2.3,7.1
					L75,78.8l-1.1-3.5C73.3,73.4,71.2,72.3,69.2,72.9C69.2,72.9,69.2,72.9,69.2,72.9L69.2,72.9z M90.7,80l0.7,2.4l-13.7,4.8
					l-1.9-5.9l10.4-3.6c1.9-0.6,3.9,0.4,4.5,2.2C90.7,79.9,90.7,79.9,90.7,80z M86.5,74.4l-2.2-6.9l4.1-5c1.2-1.5,3.4-1.7,5-0.5
					c0,0,0,0,0.1,0.1l1.8,1.6L86.5,74.4z"/>
				<path id="Shape-21" class="st5" d="M48,29.2c-0.6-0.3-1.4-0.1-1.7,0.6c0,0,0,0,0,0l-0.7,1.6c-0.2,0.7,0.2,1.4,0.8,1.6
					c0.5,0.2,1.1,0,1.4-0.5l0.7-1.6C48.8,30.2,48.6,29.5,48,29.2z"/>
				<path id="Shape-22" class="st5" d="M52.2,30.4c-0.6-0.3-1.4,0-1.7,0.6l-2.3,4.8c-0.3,0.6-0.1,1.4,0.5,1.7
					c0.2,0.1,0.5,0.2,0.7,0.2c0.5,0,0.9-0.3,1-0.8l2.3-4.7C53.1,31.4,52.9,30.7,52.2,30.4C52.3,30.4,52.3,30.4,52.2,30.4L52.2,30.4z
					"/>
			</g>
		</g>
	</g>
</g>
</svg>
