<?xml version="1.0" encoding="utf-8"?>
<!-- Generator: Adobe Illustrator 24.3.0, SVG Export Plug-In . SVG Version: 6.00 Build 0)  -->
<svg version="1.1" id="Layer_1" xmlns="http://www.w3.org/2000/svg" xmlns:xlink="http://www.w3.org/1999/xlink" x="0px" y="0px"
	 viewBox="0 0 500 500" style="enable-background:new 0 0 500 500;" xml:space="preserve">
<style type="text/css">
	.st0{fill:#2C4E59;}
	.st1{fill:#7198A6;}
	.st2{fill:#F5CE7D;}
	.st3{fill:#C6E4EC;}
	.st4{fill:#16353D;}
	.st5{fill:#87B6C7;}
	.st6{fill:#36606E;}
	.st7{fill:#406A78;}
</style>
<g>
	<g>
		<rect x="248.77" y="288.32" class="st0" width="2.46" height="94.99"/>
	</g>
	<g>
		<g>
			<path class="st0" d="M295.31,303.79l-0.17-4.91c27.42-0.94,42.2-2.47,49.12-3.7c-12.23-2.14-45.49-4.4-94.26-4.4
				c-48.85,0-82.15,2.27-94.33,4.41c6.73,1.21,20.95,2.68,47.29,3.63l-0.18,4.91c-56.33-2.02-56.33-5.78-56.33-8.53
				c0-2.53,0-5.14,31.9-7.31c19.15-1.3,44.59-2.02,71.64-2.02c27.05,0,52.49,0.72,71.64,2.02c31.9,2.17,31.9,4.78,31.9,7.31
				C353.54,297.83,353.54,301.81,295.31,303.79z"/>
		</g>
	</g>
	<g>
		<ellipse class="st1" cx="250" cy="391.91" rx="103.46" ry="9.92"/>
	</g>
	<g>
		<g>
			<rect x="327.21" y="300.11" class="st0" width="2.46" height="98.92"/>
		</g>
		<g>
			<rect x="170.33" y="300.11" class="st0" width="2.46" height="98.92"/>
		</g>
	</g>
	<path class="st2" d="M353.46,108.09c0,5.48-46.32,9.92-103.46,9.92c-57.14,0-103.46-4.44-103.46-9.92
		c0-5.48,46.32-9.92,103.46-9.92C307.14,98.16,353.46,102.61,353.46,108.09z"/>
	<path class="st3" d="M250,98.16c-57.14,0-103.46,4.44-103.46,9.92v283.83c0,5.48,46.32,9.92,103.46,9.92
		c57.14,0,103.46-4.44,103.46-9.92V108.09C353.46,102.61,307.14,98.16,250,98.16z"/>
	<path class="st4" d="M250,98.16c-57.14,0-103.46,4.44-103.46,9.92v70.23c83.88-57.87,166.2-51.63,206.93-43.13v-27.1
		C353.46,102.61,307.14,98.16,250,98.16z"/>
	<rect x="208.22" y="211.69" class="st5" width="83.55" height="12.4"/>
	<polygon class="st0" points="250,224.09 208.22,224.09 215.81,231.68 250,231.68 284.19,231.68 291.78,224.09 	"/>
	<path class="st6" d="M215.81,401.28v-169.6l-7.59-7.59v176.9C210.7,401.1,213.23,401.19,215.81,401.28z"/>
	<path class="st7" d="M284.19,401.28v-169.6l7.59-7.59v176.9C289.3,401.1,286.77,401.19,284.19,401.28z"/>
	<path class="st1" d="M353.46,108.09V84.92c0-5.48-46.32-9.92-103.46-9.92c-57.14,0-103.46,4.44-103.46,9.92v23.16
		c0-3.55,19.48-6.67,48.75-8.42v300.67c-29.27-1.75-48.75-4.87-48.75-8.42v23.16c0,5.48,46.32,9.92,103.46,9.92
		c57.14,0,103.46-4.44,103.46-9.92v-23.16c0,3.55-19.48,6.67-48.75,8.42V99.66C333.98,101.42,353.46,104.53,353.46,108.09z
		 M291.78,400.99c-12.78,0.54-26.9,0.85-41.78,0.85s-29-0.3-41.78-0.85V99.01c12.78-0.54,26.91-0.84,41.78-0.84s29,0.3,41.78,0.84
		V400.99z"/>
	<path class="st4" d="M304.72,329.55v70.78c29.27-1.75,48.75-4.87,48.75-8.42V256.34C339.7,280.93,323.37,306.45,304.72,329.55z"/>
	<path class="st4" d="M146.54,385.17v6.74c0,3.55,19.48,6.67,48.75,8.42v-80.12C195.29,320.22,187.83,367.69,146.54,385.17z"/>
	<path class="st3" d="M170.91,398.31c5.23,0.59,11.18,1.13,17.71,1.59V100.1c-6.54,0.46-12.48,1-17.71,1.59V398.31z"/>
	<path class="st3" d="M151.94,395.08c1.77,0.5,3.94,0.99,6.49,1.45V103.47c-2.55,0.46-4.72,0.95-6.49,1.45V395.08z"/>
	<path class="st3" d="M255.48,98.18v113.52h23.18V98.55C271.24,98.35,263.48,98.22,255.48,98.18z"/>
	<path class="st3" d="M234.45,98.27v113.42h9.7V98.18C240.88,98.2,237.64,98.23,234.45,98.27z"/>
	<path class="st3" d="M317.3,399.45c13.05-1.07,23.27-2.45,29.47-4.02V104.57c-6.2-1.57-16.43-2.95-29.47-4.02V399.45z"/>
	<polygon class="st3" points="215.81,363.7 248.29,331.22 248.29,299.92 215.81,332.41 	"/>
	<path class="st3" d="M248.29,352.4l-32.48,32.48v16.4c10.19,0.34,21.12,0.53,32.48,0.55V352.4z"/>
	<polygon class="st3" points="251.71,327.8 284.16,295.35 284.16,264.06 251.71,296.51 	"/>
	<path class="st3" d="M284.16,316.53l-32.45,32.45v52.84c3.3-0.01,6.54-0.03,9.76-0.06l22.7-22.7V316.53z"/>
	<path class="st4" d="M284.16,242.86c0,0-41.16-3.44-68.35,20.34v-31.53h68.38L284.16,242.86z"/>
	<g>
		<polygon class="st3" points="208.22,208.29 195.29,221.23 195.29,258.05 208.22,245.11 		"/>
		<polygon class="st3" points="304.72,111.8 291.78,124.73 291.78,161.55 304.72,148.62 		"/>
	</g>
	<g>
		<path class="st3" d="M164.54,397.5v0.81l0.71-0.71C165.01,397.56,164.77,397.53,164.54,397.5z"/>
		<polygon class="st3" points="304.72,173.02 291.78,185.96 291.78,271.07 304.72,258.13 		"/>
		<polygon class="st3" points="195.29,367.56 208.22,354.62 208.22,269.51 195.29,282.45 		"/>
	</g>
	<path class="st4" d="M291.78,394.35v6.64c-2.26,0.1-4.57,0.18-6.9,0.26l-23.69,23.69c51.88-0.54,92.28-4.75,92.28-9.86v-23.16
		c0,3.55-19.48,6.67-48.75,8.42v-18.92L291.78,394.35z"/>
	<g>
		<path class="st4" d="M244.63,98.18l23.03-23.03C261.92,75.05,256.03,75,250,75c-4.22,0-8.37,0.03-12.46,0.07l-23.72,23.72
			C223.5,98.44,233.84,98.23,244.63,98.18z"/>
		<polygon class="st4" points="208.22,134.58 208.22,104.39 195.29,117.33 195.29,147.52 		"/>
	</g>
</g>
</svg>
