<?xml version="1.0" encoding="utf-8"?>
<!-- Generator: Adobe Illustrator 24.2.3, SVG Export Plug-In . SVG Version: 6.00 Build 0)  -->
<svg version="1.1" id="Layer_1" xmlns="http://www.w3.org/2000/svg" xmlns:xlink="http://www.w3.org/1999/xlink" x="0px" y="0px"
	 viewBox="0 0 500 500" style="enable-background:new 0 0 500 500;" xml:space="preserve">
<style type="text/css">
	.st0{opacity:0.5;fill:#E6E2E0;}
	.st1{fill:#FFFFFF;}
	.st2{fill:#664A3B;}
	.st3{fill:#61AF61;}
	.st4{fill:#ADD250;}
	.st5{fill:#5F625E;}
</style>
<g>
	<path class="st0" d="M377.9,386.2V226.6h0C377.2,156.6,320.2,100,250,100c-70.2,0-127.2,56.6-127.8,126.6h0v159.5L377.9,386.2
		L377.9,386.2z"/>
	<path class="st1" d="M202.9,171.6c0,11.6-9.4,21-21,21s-21-9.4-21-21c0-11.6,9.4-21,21-21C193.5,150.6,202.9,160,202.9,171.6z"/>
	<g>
		<path class="st2" d="M192.7,375.2c6.3-7,17-16.7,24.5-22.4c7.4-5.8,16.2-10.2,25.5-11.3c10.2-1.1,20.5,1.9,29.7,6.6
			c13.5,6.8,24.9,17.1,36.1,27.2C292.4,386.2,192.7,375.2,192.7,375.2z"/>
		<path class="st3" d="M318.3,254.1c-2.2,5.9-6,11.5-11.3,14.8c-9,5.6-20.4,4.1-30.9,2.8c-10.5-1.3-22.2-2-30.4,4.6
			c2-13.4,4.4-27.5,13.2-37.7c8.6-10,21.9-14.6,34.8-17c13-2.4,26.3-3.1,38.8-7.2c-5.3,4.8-7.9,11.9-9.4,18.9
			C321.5,240.1,320.8,247.4,318.3,254.1z"/>
		<path class="st4" d="M277.2,257.3c-9.9,4.3-19.3,9.5-28.2,15.6c14.8-20.2,46.2-21.6,61.8-41.2c-2.1,7-7.6,12.5-13.8,16.3
			C290.8,251.9,283.9,254.4,277.2,257.3z"/>
		<path class="st4" d="M273.2,242.2c-5.8,8.2-11.7,16.4-17.5,24.7C264.3,261.3,269.5,251.8,273.2,242.2z"/>
		<path class="st4" d="M289.8,233.8c-3.1,7.7-7.6,14.7-13.3,20.8c2.2-1.6,2.7,0.2,4.7-1.7C282.4,251.8,289.8,244.2,289.8,233.8z"/>
		<path class="st4" d="M281.3,252.9c-0.4,0.1-0.9,0.2-1.1,0.5c-0.4,0.8,0.7,1.4,1.6,1.5c4.5,0.6,9.1,1.1,13.6,0.5
			c4.5-0.6,9-2.5,11.8-6.1C298.5,250.5,289.9,251.7,281.3,252.9z"/>
		<path class="st4" d="M298.8,261.7c-11,1-22.2,0.5-33-1.6c-0.1,2.2,2.3,3.6,4.4,4.3C279.5,267.1,289.5,264.4,298.8,261.7z"/>
		<path class="st3" d="M243.1,240.5c-6.6-12.5-19.8-20.5-33.6-23.4c-13.8-2.9-28.1-1.3-41.9,1.6c6.6,2.1,11.3,8.1,13.9,14.5
			s3.5,13.4,4.9,20.2c1.4,6.8,3.5,13.7,8.1,18.9c6.5,7.3,17,10,26.8,9.3c9.8-0.8,19-4.5,28.1-8.1
			C248.9,262.1,248.3,250.4,243.1,240.5z"/>
		<path class="st4" d="M215.6,248c-6-7.5-11-16.9-20.1-20c8.7,7.8,14,18.4,21.1,27.7s17.3,17.5,28.9,16.8
			C234.7,265.4,223.7,258.1,215.6,248z"/>
		<path class="st4" d="M225.6,237c-0.5,5.1-1.1,10.2-0.5,15.2c0.6,5.1,2.3,10.1,5.8,13.8c-0.2-3.5-0.9-6.9-1.5-10.4
			C228.1,249.4,226.8,243.2,225.6,237z"/>
		<path class="st4" d="M211.9,249.3c0.6,1.3,2.9,0.6,3.3-0.8c0.4-1.4-2.7-19.3-5.3-20.9C210.7,234.8,211.3,242,211.9,249.3z"/>
		<path class="st4" d="M213.7,251.9c0.8-0.1,1.6-0.3,2-1c0.4-0.8,0-1.8-0.8-2.2c-0.7-0.5-1.6-0.8-2.5-0.6
			c-7.1,1.2-10.7-0.3-17.6-1.3C200.1,250.8,207.1,252.7,213.7,251.9z"/>
		<path class="st4" d="M201.8,260.2c7.9,4.6,17.7,5.9,26.6,3.6c-0.3-0.8-0.6-1.7-0.8-2.5C219,260.9,210.4,260.5,201.8,260.2z"/>
		<path class="st3" d="M255.5,349.4c4.7-1.6,5.6-7.8,5.7-12.7c0.2-12.3,0.4-24.6-1.2-36.8c-1.6-12.2-5.1-24.3-11.9-34.6
			c-2.8,2.5-3.9,6.6-3.8,10.3c0.1,3.8,1.2,7.5,2,11.2c4.5,18.9,3.6,39.1-2.6,57.5C247.1,347.5,251.3,350.8,255.5,349.4z"/>
	</g>
	<rect x="99.1" y="371.5" class="st5" width="301.8" height="28.5"/>
</g>
</svg>
