<?xml version="1.0" encoding="utf-8"?>
<!-- Generator: Adobe Illustrator 24.3.0, SVG Export Plug-In . SVG Version: 6.00 Build 0)  -->
<svg version="1.1" id="Layer_1" xmlns="http://www.w3.org/2000/svg" xmlns:xlink="http://www.w3.org/1999/xlink" x="0px" y="0px"
	 viewBox="0 0 500 500" style="enable-background:new 0 0 500 500;" xml:space="preserve">
<style type="text/css">
	.st0{fill:#E6E2E0;}
	.st1{fill:#FFFFFF;}
	.st2{fill:#664A3B;}
	.st3{fill:#61AF61;}
	.st4{fill:#ADD250;}
	.st5{fill:#5F625E;}
</style>
<g>
	<path class="st0" d="M398.29,407.91V222.91h-0.03C397.49,141.66,331.43,76.03,250,76.03c-81.42,0-147.49,65.63-148.25,146.87h-0.04
		v185.01H398.29z"/>
	<path class="st1" d="M195.33,159.04c0,13.43-10.89,24.32-24.32,24.32c-13.43,0-24.32-10.89-24.32-24.32
		c0-13.43,10.89-24.32,24.32-24.32C184.43,134.72,195.33,145.61,195.33,159.04z"/>
	<g>
		<path class="st2" d="M183.49,395.21c7.26-8.17,19.76-19.32,28.38-26.02c8.63-6.71,18.75-11.88,29.61-13.07
			c11.84-1.3,23.78,2.22,34.39,7.62c15.61,7.94,28.83,19.79,41.85,31.51C299.13,408,183.49,395.21,183.49,395.21z"/>
		<path class="st3" d="M329.18,254.73c-2.56,6.89-6.91,13.32-13.16,17.18c-10.41,6.44-23.67,4.75-35.81,3.19
			c-12.14-1.55-25.74-2.35-35.29,5.3c2.34-15.49,5.07-31.85,15.26-43.75c9.93-11.61,25.35-16.95,40.38-19.74
			c15.02-2.79,30.51-3.57,45-8.4c-6.18,5.55-9.16,13.82-10.92,21.94C332.87,238.57,332.08,246.95,329.18,254.73z"/>
		<path class="st4" d="M281.55,258.44c-11.47,4.96-22.44,11.05-32.71,18.15c17.18-23.39,53.55-25.1,71.67-47.78
			c-2.47,8.08-8.85,14.46-16.01,18.94C297.33,252.22,289.3,255.09,281.55,258.44z"/>
		<path class="st4" d="M276.88,241c-6.78,9.54-13.56,19.07-20.34,28.61C266.53,263.14,272.62,252.11,276.88,241z"/>
		<path class="st4" d="M296.16,231.23c-3.59,8.88-8.83,17.09-15.39,24.07c2.58-1.87,3.16,0.23,5.48-1.94
			C287.59,252.11,296.16,243.27,296.16,231.23z"/>
		<path class="st4" d="M286.25,253.36c-0.48,0.06-1.02,0.18-1.25,0.6c-0.47,0.88,0.85,1.59,1.84,1.71
			c5.24,0.66,10.54,1.32,15.78,0.62c5.23-0.71,10.46-2.95,13.68-7.13C306.28,250.56,296.27,251.96,286.25,253.36z"/>
		<path class="st4" d="M306.6,263.59c-12.77,1.16-25.7,0.54-38.31-1.82c-0.11,2.57,2.67,4.22,5.14,4.95
			C284.25,269.88,295.79,266.73,306.6,263.59z"/>
		<path class="st3" d="M241.95,238.98c-7.63-14.44-22.95-23.72-38.92-27.11c-15.97-3.39-32.61-1.54-48.59,1.85
			c7.66,2.4,13.15,9.34,16.17,16.78c3.02,7.44,4.01,15.51,5.63,23.37c1.63,7.86,4.07,15.86,9.39,21.88
			c7.53,8.52,19.76,11.63,31.09,10.77c11.34-0.87,22.08-5.18,32.62-9.44C248.76,264.05,248.05,250.52,241.95,238.98z"/>
		<path class="st4" d="M210.1,247.7c-6.99-8.67-12.75-19.58-23.28-23.21c10.05,8.99,16.25,21.39,24.47,32.08
			c8.22,10.69,20.11,20.3,33.57,19.51C232.3,267.83,219.52,259.4,210.1,247.7z"/>
		<path class="st4" d="M221.67,234.89c-0.62,5.87-1.24,11.8-0.59,17.67c0.65,5.87,2.67,11.76,6.72,16.06
			c-0.2-4.05-1-8.05-1.79-12.03C224.56,249.36,223.12,242.13,221.67,234.89z"/>
		<path class="st4" d="M205.87,249.19c0.73,1.53,3.33,0.68,3.84-0.94c0.5-1.62-3.18-22.41-6.09-24.28
			C204.37,232.37,205.12,240.78,205.87,249.19z"/>
		<path class="st4" d="M207.88,252.17c0.88-0.11,1.87-0.34,2.3-1.11c0.48-0.87-0.05-2.03-0.88-2.57c-0.84-0.54-1.89-0.87-2.88-0.7
			c-8.22,1.39-12.36-0.3-20.38-1.48C192.18,250.98,200.21,253.14,207.88,252.17z"/>
		<path class="st4" d="M194.06,261.82c9.21,5.34,20.54,6.88,30.84,4.18c-0.32-0.98-0.64-1.96-0.96-2.94
			C213.99,262.65,204.02,262.23,194.06,261.82z"/>
		<path class="st3" d="M256.39,365.28c5.46-1.86,6.5-9,6.61-14.76c0.26-14.24,0.52-28.54-1.34-42.67
			c-1.87-14.12-5.95-28.16-13.75-40.08c-3.26,2.95-4.5,7.6-4.41,12c0.09,4.39,1.35,8.66,2.36,12.94
			c5.21,21.94,4.16,45.33-2.99,66.71C246.59,363.04,251.49,366.95,256.39,365.28z"/>
	</g>
	<rect x="75" y="390.96" class="st5" width="350" height="33"/>
</g>
</svg>
