<?xml version="1.0" encoding="utf-8"?>
<!-- Generator: Adobe Illustrator 24.3.0, SVG Export Plug-In . SVG Version: 6.00 Build 0)  -->
<svg version="1.1" id="Layer_1" xmlns="http://www.w3.org/2000/svg" xmlns:xlink="http://www.w3.org/1999/xlink" x="0px" y="0px"
	 viewBox="0 0 500 500" style="enable-background:new 0 0 500 500;" xml:space="preserve">
<style type="text/css">
	.st0{fill-rule:evenodd;clip-rule:evenodd;fill:#DB7BAF;}
	.st1{fill-rule:evenodd;clip-rule:evenodd;fill:#F2ADD6;}
	.st2{fill-rule:evenodd;clip-rule:evenodd;fill:#BF5694;}
	.st3{fill:#FF99CC;}
	.st4{fill-rule:evenodd;clip-rule:evenodd;fill:#F7CDE8;}
	.st5{fill-rule:evenodd;clip-rule:evenodd;fill:#939598;}
	.st6{fill-rule:evenodd;clip-rule:evenodd;fill:#E6E7E8;}
	.st7{fill-rule:evenodd;clip-rule:evenodd;fill:#D1D3D4;}
	.st8{fill-rule:evenodd;clip-rule:evenodd;fill:#D6D6D6;}
	.st9{fill-rule:evenodd;clip-rule:evenodd;fill:#414042;}
	.st10{fill-rule:evenodd;clip-rule:evenodd;fill:url(#SVGID_1_);}
	.st11{fill-rule:evenodd;clip-rule:evenodd;fill:url(#SVGID_2_);}
	.st12{fill-rule:evenodd;clip-rule:evenodd;fill:url(#SVGID_3_);}
	.st13{fill-rule:evenodd;clip-rule:evenodd;fill:url(#SVGID_4_);}
	.st14{fill-rule:evenodd;clip-rule:evenodd;fill:url(#SVGID_5_);}
	.st15{fill-rule:evenodd;clip-rule:evenodd;fill:url(#SVGID_6_);}
	.st16{fill-rule:evenodd;clip-rule:evenodd;fill:url(#SVGID_7_);}
	.st17{fill-rule:evenodd;clip-rule:evenodd;fill:url(#SVGID_8_);}
	.st18{fill-rule:evenodd;clip-rule:evenodd;fill:url(#SVGID_9_);}
	.st19{fill-rule:evenodd;clip-rule:evenodd;fill:url(#SVGID_10_);}
	.st20{fill-rule:evenodd;clip-rule:evenodd;fill:url(#SVGID_11_);}
	.st21{fill-rule:evenodd;clip-rule:evenodd;fill:url(#SVGID_12_);}
	.st22{fill-rule:evenodd;clip-rule:evenodd;fill:url(#SVGID_13_);}
	.st23{fill-rule:evenodd;clip-rule:evenodd;fill:url(#SVGID_14_);}
	.st24{fill-rule:evenodd;clip-rule:evenodd;fill:url(#SVGID_15_);}
	.st25{fill-rule:evenodd;clip-rule:evenodd;fill:url(#SVGID_16_);}
	.st26{fill-rule:evenodd;clip-rule:evenodd;fill:url(#SVGID_17_);}
	.st27{fill-rule:evenodd;clip-rule:evenodd;fill:url(#SVGID_18_);}
	.st28{fill-rule:evenodd;clip-rule:evenodd;fill:url(#SVGID_19_);}
	.st29{fill-rule:evenodd;clip-rule:evenodd;fill:url(#SVGID_20_);}
	.st30{fill-rule:evenodd;clip-rule:evenodd;fill:#75C5F0;}
	.st31{fill-rule:evenodd;clip-rule:evenodd;fill:#F99F3C;}
</style>
<g>
	<g>
		<path class="st0" d="M363.2,227c-25.33,73.9-110.97,120.87-182.47,141.64c-24.13,9.45-61.71,8.36-82.73-21.82
			c-16.72-4.92-18.49-16.03-17.46-22.54c-7.37-7.26-6.97-12.02-1.2-23.4c-3.76-20.46-4.48-43.03,19.82-76.53
			c-1.25-6.81-0.38-13.81,12.47-22.35c-2.9-4.07-2.05-8.94,11.52-16.58c0.6-10.97,2.97-21.44,27.4-30.21
			c7.92-16.54,25.1-28.58,51.4-35c5.48-7.29,11.39-10.16,27.18-10.6c13.67-8.66,21.28-13.23,42.49-7.17
			c18.31-4.76,44.54-0.5,54.75,15.67C349.89,155.38,376.64,187.79,363.2,227z"/>
		<path class="st0" d="M363.2,227c-25.33,73.9-110.97,120.89-182.47,141.64c-14.94,4.34-33.61,8.39-51.74,1.55
			c-0.13-0.34-1.68-7.67-1.81-8.01c-5.5-7.39-8.26-18.86-2.87-26.8c0.31-0.38-5.23-5.63,3.62-21.96
			c10.01-28.66,20.07-64.08,29.99-69.51c9.94-18.31,21.98-43.42,33.86-47.99c4.69-5.64,10.94-15.62,22.88-25.03
			c1.99-4.92,8.92-12.68,21.59-19.46c8.84-9.75,17.84-19.05,28.98-20.16c9.95-9.5,18.74-13.92,25.98-12.18
			c1.23-0.45,2.48-0.88,3.73-1.28c8.59-2.77,17.44-3.02,26.23-1.25C358.78,139.83,376.68,187.67,363.2,227z"/>
	</g>
	<g>
		<path class="st1" d="M363.21,227c-20.15,58.76-78.41,100.49-137.39,125.57c-10.41,3.96-20.76,7.4-30.82,10.33
			c-24.13,9.45-67.51,5.2-88.52-25c-18.27-10.46-8.9-30.63-7.87-37.14c0.08-1.64-5.76-7.2,0.02-18.58
			c-13.1-2.39-12.94-31.77,11.37-65.27c-1.26-6.79,3.04-12.1,15.91-20.62c-2.91-4.12-2.88-16.33,10.69-23.96
			c0.61-10.97,6.37-16.65,28.22-22.84c5.27-11.02,14.65-20.05,28.08-26.72c2.89-0.92,5.92-1.78,9.05-2.55
			c0.52-0.69,1.06-1.35,1.6-1.97c6.89-8.08,16.19-8.37,25.58-8.66c3.31-2.08,6.28-3.93,9.17-5.45c7.07-5.89,17.44-6.21,33.31-1.69
			c18.3-4.76,44.55-0.5,54.76,15.67C349.91,155.38,376.64,187.79,363.21,227z"/>
		<path class="st2" d="M363.21,227c-20.15,58.76-78.41,100.49-137.39,125.57c-10.41,3.96-20.76,7.4-30.82,10.33
			c-20.62,8.06-51.04,8.45-72.58-10.42c-1.65-5.84-1.46-12.15,1.9-17.09c0.32-0.38-5.24-5.63,3.62-21.96
			c10.01-28.66,20.07-64.08,29.98-69.51c9.95-18.31,21.99-43.42,33.87-47.99c4.68-5.64,10.94-15.62,22.88-25.03
			c1.99-4.93,8.92-12.68,21.59-19.46c8.84-9.75,17.84-19.05,28.98-20.16c9.94-9.5,18.74-13.92,25.99-12.18
			c1.22-0.45,2.47-0.88,3.72-1.28c8.59-2.77,17.44-3.02,26.23-1.25C358.78,139.83,376.68,187.67,363.21,227z"/>
	</g>
	<path class="st0" d="M420.42,263.1c0.52,9.42-2.86,25.19-16.81,31.87c-4.62,22.1-29.58,41.86-45.61,42.01
		c-1.16,5.4-6.18,9.8-10.79,6.82c-6.32,14.2-30.44,22.56-41.42,20.96c-2.31,4.74-5.27,5.96-8.84,3.74
		c-9.81,10.93-23.46,14.12-33.62,12.46c-3.71,5.18-9.5,6.76-14.52,4.76c-7.15,6.56-16,9.63-23.6,7.14
		c-12.8,8.58-26.84,10.33-38.46,3.91c-23.03,0.19-45.91-15.29-45.89-31.96c-6.07-9.22-8.56-20.51-2.24-33.14
		c1.7-6.29,3.03-12.77,3.96-19.36c-2.4-6.01,1.8-15.62,9.34-26.91c-1.23-7.56,1.82-15.26,10.82-22.99
		c10.68-31.06,28.35-54.28,49.49-71.78c1.24-8.77,6.05-11.18,11.24-12.19c-1.2-4.55,2.36-8.06,10.64-10.52
		c-0.33-4.65,1.35-9.17,16.26-14.21c0.48-4.51,2.45-8.58,14.31-10.75c6.14-12.05,19.25-15.11,31.47-17.78
		c4.15-1.8,8.31-3.37,12.45-4.73c11.87-3.82,27.74-5.31,37.89,2.21c8.41,0.19,21.78,6.53,26.82,16.67
		c8.29,0.84,12.61,6.67,14.31,13.6c4.34,1.71,8.56,6.26,8.99,11.96c6.59,3.18,9.66,8.42,9.17,14.28c5.56,3.52,10.05,10.25,8.51,17.3
		C426.9,206,427.6,253.21,420.42,263.1z"/>
	<path class="st1" d="M154.87,334.43c-10.81-4.32-10.11-24.75-5.68-28.75c-2.39-6.01-0.23-15.67,16.07-20.96
		c-1.21-7.55-4.51-16.55,4.52-24.28c10.68-31.04,21.31-52.31,42.46-69.83c1.24-8.75,6.06-11.19,11.23-12.19
		c-1.19-4.54,2.36-8.05,10.65-10.5c-0.31-4.65,1.35-9.16,16.26-14.21c0.48-4.52,2.45-8.58,14.31-10.75
		c6.15-12.05,19.25-15.09,31.49-17.78c4.14-1.8,8.3-3.37,12.45-4.71c11.85-3.84,27.74-5.32,37.87,2.19
		c8.41,0.19,21.78,6.51,26.83,16.65c8.28,0.86,12.6,6.68,14.3,13.62c4.34,1.71,8.56,6.26,8.99,11.96c6.59,3.18,9.67,8.42,9.17,14.28
		c5.56,3.51,10.05,10.25,8.51,17.3c0.85,0.64,1.64,1.46,2.36,2.41c-0.65,7.33-2.07,13.32-4.15,16.18
		c0.52,9.42-7.15,24.06-21.11,30.74c-4.61,22.1-10.23,32.67-41.32,43.16c-1.17,5.4-14.64,10.99-19.27,8
		c-6.31,14.21-6.5,18.64-17.5,17.06c-2.3,4.71-29.61,14.6-33.18,12.37c-9.81,10.93-10.68,5.31-20.83,3.66
		c-2.47,7.69-17.42,16.69-22.45,14.65c-7.15,6.57-12.81,8.66-24.65,3.15c0.68,12.55-20.29,11.58-31.89,5.15
		C150.37,349.72,155.5,343.48,154.87,334.43z"/>
	<g>
		<path class="st3" d="M185.06,396.23c-19.08-7.92-29.91-16.92-32.17-26.81c-1.39-6.12,0.47-12.44,5.52-18.8
			c-1.03-0.64-1.97-1.57-2.77-2.72c-2.05-2.94-3.15-7.47-2.9-11.46c-4.72,0.28-10.63-0.05-15.19-3.26
			c-0.82-0.58-1.03-1.72-0.44-2.54c0.58-0.81,1.72-1.02,2.54-0.44c3.96,2.8,9.57,2.87,13.84,2.52c1.14-2.69,3.66-4.7,6.11-6.64
			c3.41-2.69,6.64-5.24,6.68-9.45l0.02-1.6c0.09-7.83-0.09-12.33-5.46-14.12c-2.93-0.99-14.43,8.95-20.48,15.86
			c-0.67,0.77-1.82,0.83-2.57,0.17c-0.77-0.66-0.84-1.82-0.18-2.58c0.18-0.2,17.3-19.28,24.4-16.91c8.13,2.71,8.05,10.3,7.95,17.61
			l-0.02,1.58c-0.05,5.96-4.3,9.34-8.07,12.3c-2.43,1.93-4.73,3.74-5.22,5.84c-0.01,0.03-0.01,0.06-0.02,0.08
			c-0.74,3.44,0.13,8.25,2.02,10.96c0.88,1.28,1.91,2.02,3.05,2.19c0.02,0,0.05,0,0.05,0.02l0.82,0.13
			c16.07,2.3,34.28,4.91,47.04,15.68c1.84,1.57,2.54,3.98,1.99,6.78c-1.03,5.34-6.47,11.63-11.4,13.24
			c-4.31,1.41-7.52,0.05-11.23-1.53c-4.02-1.71-9.02-3.82-17.59-3.22c-1.03,0.06-1.89-0.67-1.95-1.69c-0.06-1,0.69-1.88,1.69-1.96
			c9.47-0.63,15.14,1.77,19.27,3.51c3.41,1.46,5.67,2.41,8.68,1.42c3.66-1.19,8.18-6.47,8.97-10.47c0.44-2.24-0.48-3.02-0.77-3.27
			c-11.93-10.08-29.53-12.63-45.06-14.87c-5.02,5.85-6.94,11.51-5.73,16.83c1.96,8.67,12.05,16.83,30,24.25
			c0.94,0.39,1.38,1.46,0.99,2.38c-0.29,0.69-0.97,1.13-1.69,1.13C185.53,396.35,185.3,396.3,185.06,396.23z M223.82,394.05
			c-0.67-0.75-0.58-1.91,0.18-2.57c6.57-5.68,11.58-14.56,11.64-20.66c0.02-2.03-0.53-3.58-1.63-4.57c-0.02,0-0.02-0.02-0.02-0.03
			c-9.65-8.64-17.18-14.09-24.43-17.7c-3.85-1.93-8.8-2.68-13.58-3.41c-6.91-1.05-14.06-2.14-17.7-6.98l-9.51,1.5
			c-1,0.17-1.93-0.52-2.08-1.5c-0.18-0.99,0.5-1.94,1.5-2.1l8.89-1.41c0.27-2.22,2.08-4.79,4.11-7.62c2.76-3.88,6.21-8.7,4.97-12.08
			c0-0.03-0.01-0.03-0.02-0.06c-1.04-2.85-2.88-4.82-4.83-6.92c-3.47-3.74-7.4-7.98-6.3-17.55c0.14-1.13-0.22-1.66-0.54-1.99
			c-2.5-2.58-11.86-1.83-18.02-1.33c-2.22,0.17-4.26,0.34-5.95,0.39c-1.01,0.06-1.85-0.77-1.88-1.78c-0.02-1,0.77-1.85,1.78-1.88
			c1.64-0.03,3.62-0.2,5.75-0.36c6.17-0.52,12.97-1.05,17.48,0.41c0.06-0.06,0.1-0.13,0.18-0.17c2.75-2.8,5.08-5.49,7.34-8.09
			c4.61-5.35,9.37-10.86,18.04-17.45c2.76-2.08,11.61-9.38,9.6-15.5c-0.02-0.02-0.02-0.03-0.04-0.06
			c-5.17-15.42,3.74-23.18,14.13-30.41c1.64-1.13,1.57-2.13,0.56-5.93c-0.9-3.33-2.07-7.78-0.66-13.59l-14.75-0.74
			c-1.01-0.03-1.78-0.91-1.74-1.91c0.05-1,0.91-1.75,1.92-1.72l17.02,0.83c0.1,0,0.2,0.02,0.3,0.02c0.2,0.06,0.41,0.13,0.59,0.23
			c0.24,0.13,0.43,0.33,0.58,0.55c0.15,0.23,0.25,0.49,0.29,0.75c0.03,0.19,0.03,0.41,0,0.61c-0.02,0.09-0.05,0.19-0.09,0.3
			c-2.01,5.9-0.86,10.24,0.07,13.73c0.48,1.77,0.96,3.58,0.82,5.29c3.15,0.19,6.32,0.66,9.41,1.11c7.43,1.11,14.46,2.14,20.76-0.41
			c0.03-0.02,0.05-0.02,0.09-0.03c5.79-2.38,9.42-10.3,9.99-16.94c0-0.02,0-0.03,0-0.05c0.61-7.47-1.78-16.01-7.11-25.4
			c-0.01-0.03-0.01-0.03-0.02-0.05c-1.46-2.55-5.56-3.51-8.63-3.54c-0.05,0-0.09,0-0.14,0c-5.37,0-26.22,3.94-29.99,7.42
			c-0.73,0.67-1.88,0.64-2.57-0.09c-0.69-0.74-0.65-1.91,0.1-2.57c5.11-4.76,27.73-8.41,32.53-8.41c0.03,0,0.08,0,0.11,0
			c1.85,0.02,7.65,0.39,10.82,4.05c9.52-3.8,22.1-2.41,39.35,4.29c0.93,0.38,1.4,1.44,1.03,2.36c-0.36,0.96-1.42,1.41-2.36,1.03
			c-6.8-2.63-12.79-4.41-18.09-5.35c0.52,1.77,0.82,3.63,1.11,5.46c0.65,3.99,1.25,7.75,3.92,9.55c4.05,2.74,9.31,2.75,14.88,2.79
			c1.6,0,3.22,0,4.84,0.08c-0.07-0.31-0.12-0.63-0.13-0.99c-0.28-4.56,3.8-10.57,7.51-14.28c-15.22-10.71-47.65-17.56-72.58-15.14
			c-1,0.13-1.89-0.63-2-1.63c-0.1-1,0.64-1.91,1.64-1.99c26.49-2.6,59.98,4.66,75.75,16.29c4.7-3.43,11.69-5.62,17.38-3.94
			c0.15-0.36,0.31-0.72,0.47-1.08c0.6-1.36,1.22-2.79,0.79-3.41c-0.01-0.02-0.01-0.03-0.02-0.03
			c-10.55-14.78-25.05-21.52-44.36-20.61c-0.94,0.03-1.85-0.74-1.91-1.74c-0.05-1.02,0.74-1.86,1.74-1.89
			c20-0.94,35.19,5.81,46.4,20.63c4.66-2.87,10.97-1.42,16,0.38c1.86-3.02,6.56-5.7,9.06-6.29l1.28-0.3
			c6.99-1.66,12.04-2.86,21.48,0.67c0.95,0.34,1.42,1.39,1.08,2.33c-0.37,0.95-1.4,1.42-2.36,1.08c-8.41-3.15-12.52-2.16-19.34-0.53
			l-1.32,0.31c-2.83,0.67-6.7,3.83-7.01,4.92c0,0.05,0,0.06,0,0.13c21.86,15.2,30.23,30.65,35.55,43.73
			c0.55,1.36,1.17,1.55,1.37,1.61c2.02,0.67,6.29-2.03,10.41-4.62c2.49-1.6,5.07-3.21,7.72-4.54c0.91-0.45,2-0.08,2.44,0.83
			c0.45,0.89,0.09,2-0.82,2.44c-2.49,1.24-4.99,2.82-7.4,4.34c-0.3,0.19-0.59,0.38-0.87,0.56c7.02,6.64,10.26,12.46,9.89,17.77
			c-0.26,3.4-2.02,6.46-5.26,9.11c9.27,8,10.41,14.49,9.65,18.6c-1.03,5.63-6.21,10.32-14.2,12.85c-2.59,0.81-6.14,0.06-9.27-1.97
			c-1.29-0.85-2.4-1.83-3.33-2.93c-0.56,1.77-1.39,3.54-2.57,5.32c-0.2,0.31-0.42,0.61-0.62,0.94c0.27,0.3,0.44,0.7,0.45,1.14
			c0.05,2.66-0.06,5.23-0.33,7.67c0.18,0.03,0.34,0.11,0.5,0.2c7.28,4.15,12.16,9.17,14.17,21.27c0.16,1-0.52,1.94-1.51,2.11
			c-1.01,0.19-1.93-0.52-2.11-1.5c-1.68-10.33-5.54-14.65-11.59-18.28c-2.61,14.95-10.7,26-17.98,35.96
			c-6.35,8.69-11.83,16.17-11.93,24.2c-0.03,1.02-0.74,1.72-1.87,1.8c-0.99,0-1.81-0.83-1.79-1.85c0.13-9.19,5.92-17.12,12.64-26.3
			c8.2-11.21,17.43-23.82,18.13-41.82c-10.93,14.98-23.69,26.83-36.65,37.13c1.78,11.08-1.45,19.86-8.74,23.64
			c-7.22,3.73-16.47,1.39-23.54-5.96c-0.35-0.36-0.52-0.84-0.52-1.3c-0.85-0.22-1.68-0.56-2.47-0.99c-0.28-0.16-0.53-0.33-0.78-0.53
			c-2.04,8-6.6,14.17-13.4,18.34c0.74,0.77,1.46,1.58,2.13,2.44c0.04,0.02,0.08,0.05,0.12,0.06c11.21,6.62,23.42,0.83,32.35-3.38
			c5.74-2.71,9.9-4.68,12.57-2.58c1.9,1.49,2.25,4.43,1.16,9.83c-0.2,0.99-1.17,1.64-2.16,1.42c-0.99-0.2-1.61-1.16-1.42-2.16
			c1.1-5.42,0.2-6.2,0.16-6.23c-0.88-0.69-5.61,1.53-8.75,3.02c-7.96,3.77-19.46,9.2-30.82,5.48c2.57,5.76,3.3,12.46,1.57,18.24
			c-0.27,0.97-1.28,1.52-2.26,1.22c-0.96-0.28-1.51-1.28-1.23-2.25c2.31-7.76-0.75-17.95-6.82-23.28c-4.12,1.96-8.9,3.3-14.3,4.02
			c2.67,3.22,4.2,6.1,4.63,8.69l10.23,14.09c0.6,0.81,0.42,1.96-0.4,2.55c-0.82,0.59-1.96,0.42-2.54-0.39l-8.08-11.14
			c-1.74,3.26-5.9,5.49-12.66,6.81c-5.19,2.6-7.87,7.8-8.22,15.92c-0.05,0.99-1,1.82-1.92,1.72c-0.99-0.05-1.78-0.88-1.74-1.89
			c0.42-9.52,3.95-16,10.48-19.13c0.15-0.09,0.31-0.13,0.45-0.14c6.18-1.19,9.86-3.15,10.67-5.68c0.17-0.55,0.21-1.14,0.16-1.78
			c0-0.03-0.01-0.05-0.01-0.08c-0.28-2.4-2.15-5.48-5.53-9.08c-2.78,0.17-5.68,0.22-8.73,0.13c-3.48,5.18-6.97,9.49-10.49,12.88
			c-8.98,14.26-10.28,24.75-8.98,28.02c0.38,0.92-0.09,2-1.02,2.36c-0.95,0.38-2-0.08-2.37-1.02c-1.59-3.99-0.5-12.6,4.89-23.53
			c-4.31,2.63-8.72,3.94-13.23,4.01c0.41,1.17,0.62,2.5,0.61,3.94c-0.06,7.15-5.49,16.98-12.89,23.39c-0.34,0.3-0.76,0.45-1.18,0.45
			C224.69,394.69,224.19,394.47,223.82,394.05z M256.73,354.54c3.55-3.4,7.1-7.81,10.64-13.24c0.35-0.55,0.97-0.88,1.61-0.83
			c3.25,0.16,6.64,0.16,10.03-0.11c0.1,0,0.22,0,0.3-0.02c6.06-0.49,12.06-1.77,17.23-4.37c0.16-0.11,0.34-0.2,0.52-0.27
			c7.42-3.9,13.02-10.58,14.38-21.6c-0.36-1.64-0.59-3.44-0.8-5.21c-0.29-2.39-0.71-5.96-1.86-6.64c-3.18,0.55-6.53,1.75-10.1,3.01
			c-7.36,2.61-15.54,5.51-24.75,3.68c2.38,3.87,4.35,8.16,5.63,13.26c0.22,0.83,0.34,1.61,0.39,2.33
			c4.89,0.25,10.75-1.64,18.28-5.92c0.87-0.48,1.99-0.19,2.48,0.69c0.51,0.88,0.19,1.99-0.69,2.49c-8.26,4.7-14.89,6.76-20.53,6.36
			c-0.44,1.19-1.12,2.07-1.78,2.69c-4.13,3.96-12.32,2.86-16.05,1.71c-0.24-0.06-0.45-0.17-0.61-0.33c-0.3,1.94-1.21,3.85-2.71,5.65
			c-3.34,3.99-8.97,6.79-14.02,8.08l1.32,6.92c0.19,0.99-0.47,1.96-1.46,2.14c-0.98,0.19-1.94-0.47-2.14-1.46l-1.31-6.92
			c-0.43,0.06-0.84,0.08-1.24,0.11c-4.76,0.28-8.46-2.61-12.07-5.38c-2.57-1.99-4.99-3.87-7.82-4.62
			c-5.96-1.6-11.11-2.97-17.84-0.33c-0.95,0.36-2-0.11-2.37-1.03c-0.36-0.95,0.11-2.02,1.04-2.36c7.87-3.07,13.81-1.49,20.27,0.25
			c3.37,0.91,6.21,3.08,8.95,5.2c3.21,2.47,6.24,4.88,9.63,4.65c4.99-0.28,12.62-3.26,16.26-7.61c1.48-1.74,2.12-3.51,1.91-5.24
			c-2.02-16.48-13.86-26.31-35.21-29.21c-1-0.13-1.7-1.05-1.57-2.05c0.14-1,1.07-1.67,2.05-1.55c23.03,3.12,35.92,13.87,38.29,31.95
			c0.45-0.39,1.09-0.52,1.71-0.34c4.3,1.31,10.14,1.36,12.46-0.85c0.62-0.58,0.98-1.33,1.1-2.24c0-0.03,0.01-0.05,0.01-0.06
			c0.09-0.81,0-1.74-0.27-2.82c-1.6-6.31-4.28-11.25-7.6-15.79c-0.04-0.03-0.08-0.05-0.13-0.06c-0.69-0.28-1.1-0.92-1.13-1.61
			c-2.3-2.96-4.87-5.78-7.56-8.77c-3.9-4.3-7.94-8.77-11.68-14.21c-0.24-0.33-0.33-0.7-0.33-1.1c-0.06,0.05-0.13,0.09-0.19,0.14
			c-5.96,3.63-11.73,2.3-17.32,1c-7.56-1.74-14.7-3.37-23.71,5.65c-0.2,0.19-0.36,0.41-0.51,0.61c-0.02,0.05-0.05,0.06-0.07,0.11
			c-1.11,1.8-0.57,4.26,0.38,7.86c0.79,2.97,1.67,6.29,0.83,9.36c14.71,3.4,26.51,10.75,33.39,20.85c0.57,0.83,0.35,1.96-0.48,2.52
			c-0.83,0.56-1.96,0.34-2.54-0.47c-6.5-9.55-17.89-16.45-32.14-19.55c-3.04,3.8-7.6,4.6-12.04,5.38c-1.05,0.16-2.12,0.36-3.18,0.58
			c0.45,4.65-3.02,9.5-5.87,13.52c-1.4,1.96-3.73,5.23-3.45,6.09c0.01,0,0.01,0.02,0.02,0.03c2.5,4.23,8.96,5.21,15.8,6.26
			c5.06,0.77,10.28,1.57,14.63,3.74c7.47,3.71,15.14,9.23,24.83,17.91c7.04,0.77,13.85-2.05,20.65-8.53
			C256.67,354.61,256.7,354.57,256.73,354.54z M337.28,314.35c-3.62,2.66-9.47,6.26-15.13,6.87c5.65,4.95,12.39,6.42,17.64,3.71
			c5.39-2.77,7.94-9.3,7.07-17.77C343.66,309.63,340.46,312.03,337.28,314.35z M361.9,258.17c-0.78,7.09-7.23,14.78-13.06,21.73
			c-2.58,3.1-5.02,6.01-6.61,8.48c-0.54,0.83-1.67,1.08-2.52,0.55c-0.85-0.55-1.1-1.69-0.55-2.54c1.69-2.66,4.21-5.67,6.87-8.83
			c6.36-7.61,14.28-17.03,11.83-23.48l-0.63-1.66c-2.47-6.65-5.87-15.76-12.51-17.27c-5.28-1.21-12.34,2.41-20.96,10.74
			c-7.57,7.31-23,12.41-35.61,12.02c5.17,6.84,7.97,13.77,8.32,20.68c0.02,0,0.05-0.02,0.06-0.03c6.37-3.04,12.94-6.17,20.85-4.34
			c0.84,0.2,1.61,0.53,2.3,0.95c6.46-10.42,14.6-21.37,28.04-25.23c0.96-0.28,1.98,0.28,2.26,1.24c0.27,0.97-0.29,1.99-1.25,2.27
			c-12.51,3.58-20.19,14.27-26.36,24.31c1.64,2.27,2.78,5.27,3.89,8.23c1.46,3.9,2.97,7.9,5.43,9.38c0,0,0.02,0,0.04,0.02
			c4.34,2.54,11.36-2.63,14.16-4.95c8.81-7.31,16.51-16.18,23.96-24.79c3.74-4.34,7.62-8.81,11.63-13.05
			c0.69-0.74,1.84-0.77,2.57-0.09c0.74,0.69,0.77,1.85,0.09,2.6c-3.95,4.18-7.81,8.62-11.54,12.95c-7.54,8.7-15.33,17.7-24.39,25.2
			c-3.8,3.16-10.69,7.81-16.5,6.09l-4.1,9.17c-0.42,0.91-1.49,1.33-2.41,0.91c-0.92-0.41-1.35-1.49-0.92-2.41l4.24-9.45
			c-2.72-2.38-4.23-6.39-5.68-10.27c-1.2-3.21-2.35-6.26-3.99-8.03c-0.04-0.06-0.06-0.09-0.09-0.13c-0.65-0.69-1.38-1.14-2.22-1.35
			c-6.66-1.53-12.39,1.21-18.45,4.09c-5.63,2.68-11.42,5.45-18.46,5.07c-4.18-0.19-5.74-4.24-7.13-7.81
			c-0.59-1.52-1.21-3.07-1.93-4.13c-0.56-0.83-0.35-1.97,0.48-2.54c0.83-0.58,1.97-0.36,2.53,0.47c0.98,1.42,1.66,3.18,2.32,4.88
			c1.27,3.26,2.24,5.42,3.94,5.49c4.73,0.25,8.86-1.17,13.02-3.02c0.05-7.53-3.23-15.21-9.78-22.87c-5.41-0.92-9.74-3.04-12.73-6.2
			c-7.1-1.3-12.01,0.22-14.96,4.65c0.78,2.77,0.98,6.06,0.53,9.63c-0.72,5.87-3.05,11.16-6.19,14.34c0.47,0.06,0.92,0.33,1.21,0.75
			c3.6,5.24,7.56,9.61,11.38,13.85c2.93,3.22,5.8,6.39,8.4,9.82c9.82,3.58,18.43,0.53,26.75-2.43c3.7-1.3,7.22-2.55,10.69-3.16
			c1.15-0.19,2.22,0.05,3.09,0.69c2.13,1.6,2.53,5.07,3.01,9.11c0.38,3.13,0.9,7.42,2.43,8.27c5.87,3.27,15.58-3.26,18.42-5.31
			c18.5-13.54,37.68-29.15,52.56-51.58c8.12-12.21-4.09-24.2-8.35-27.85C376.64,246.87,368.26,255.38,361.9,258.17z M202.94,306.58
			c1.42-2.29,0.6-5.42-0.29-8.7c-0.71-2.68-1.49-5.57-0.94-8.23l-8.34-0.64c-0.99-0.08-1.75-0.95-1.67-1.96
			c0.07-1,0.94-1.74,1.96-1.67l9.8,0.75c0.11-0.13,0.22-0.25,0.34-0.36c10.44-10.46,19.3-8.42,27.09-6.62
			c5.33,1.24,9.92,2.29,14.61-0.56c3.31-2,6.04-7.45,6.79-13.52c0.42-3.33,0.19-6.37-0.59-8.77c-0.04-0.06-0.05-0.13-0.07-0.17
			c-0.47-1.35-1.13-2.47-1.94-3.3c-7.62-7.76-17.32-8-27.6-8.25c-3.09-0.08-6.25-0.16-9.38-0.45c0.21,5.42-4.15,10.64-7.91,14.09
			c12.97-1.02,23.03,1.38,31.42,7.42c0.82,0.58,1.01,1.71,0.42,2.54c-0.58,0.83-1.72,0.99-2.54,0.42
			c-8.41-6.04-18.79-8.06-32.67-6.37c-0.44,0.05-0.86-0.06-1.2-0.27c-7.62,5.93-11.85,10.83-16.32,16.01
			c-2.15,2.49-4.37,5.06-6.99,7.73c0.05,0.06,0.11,0.11,0.16,0.17c1.24,1.27,1.78,3.01,1.55,4.96c-0.92,7.87,1.98,11,5.36,14.6
			c1.78,1.94,3.62,3.94,4.94,6.67c1.24-0.27,2.45-0.49,3.65-0.69c4.38-0.75,8.17-1.42,10.3-4.74
			C202.91,306.63,202.91,306.61,202.94,306.58z M406.84,232.22c-1.52,7.01-6.67,14.04-13.12,15.23c0.16,0.83,0.28,1.67,0.31,2.52
			c0.43,2.5,2.07,4.84,4.56,6.45c2.14,1.41,4.69,2.03,6.18,1.57c6.66-2.11,10.93-5.76,11.71-10.02c0.87-4.76-2.43-10.32-9.56-16.15
			C406.89,231.95,406.87,232.08,406.84,232.22z M345.55,231.61c8.55,1.93,12.36,12.12,15.11,19.55l0.62,1.63
			c0.18,0.47,0.33,0.95,0.43,1.41c9.01-4.87,21.14-22.46,11.06-55.08c-4.52-14.68-21.98-23.35-35.99-30.33l-0.99-0.5
			c-0.02,0-0.06-0.02-0.08-0.03c-4.83-2.36-12.15-0.03-16.44,3.6c-0.02,0.03-0.05,0.03-0.06,0.05c-3.43,2.94-8.08,9.2-7.85,12.8
			c0.05,0.83,0.34,1.39,0.98,1.8c0.03,0.02,0.04,0.05,0.05,0.05c9.39,6.15,16.16,10.61,17.31,20.47c0.36,3.04,2.84,4.09,8.89,6.31
			c5.99,2.22,14.1,5.2,23.85,12.68c9.02-7.2,2.92-21.02-3.94-31.52c-2.94-4.46-14.25-12.54-21.13-13.26
			c-1.6-0.14-2.72,0.11-3.38,0.77c-0.2,0.2-0.27,0.38-0.27,0.69c0.03,2.85,6.32,8.86,10.91,13.24c4.77,4.55,8.88,8.48,10.11,11.65
			c0.37,0.92-0.09,1.99-1.03,2.35c-0.93,0.38-1.99-0.08-2.36-1.03c-0.94-2.4-5.17-6.42-9.24-10.32c-6.17-5.9-12-11.47-12.04-15.86
			c-0.01-1.27,0.45-2.41,1.34-3.3c1.48-1.47,3.59-2.08,6.33-1.8c8.17,0.83,20.43,9.74,23.8,14.87c10.89,16.62,12.06,29.07,3.5,36.14
			c1.44,2.47,1.75,6.09,2.01,9.13c0.09,1.02,0.16,1.96,0.29,2.74c0.15,0.99-0.54,1.91-1.54,2.07c-0.97,0.14-1.93-0.53-2.08-1.53
			c-0.12-0.83-0.2-1.86-0.31-2.96c-0.23-2.83-0.6-7.07-2.11-8.31c-0.02-0.02-0.03-0.02-0.06-0.03
			c-9.75-7.73-17.94-10.75-23.89-12.96c-3-1.11-5.6-2.07-7.54-3.38c-11.02,17.81-22.67,27.05-34.62,27.47
			c-12.17,0.38-24.6-8.23-37.15-25.7c-6.86,2.3-14.21,1.21-21.35,0.16c-3.48-0.52-7.08-1.05-10.5-1.14
			c-0.33,0.34-0.73,0.67-1.19,0.99c-11.25,7.83-16.44,13.98-13.09,25.22c3.37,0.39,6.87,0.48,10.3,0.55
			c10.55,0.28,21.46,0.55,30.12,9.34c0.52,0.53,0.99,1.14,1.41,1.8c3.22-3.63,7.81-5.24,13.67-4.87c-0.76-1.25-1.46-2.5-2.15-3.73
			c-5-8.91-9.72-17.31-38.77-19.85c-1.01-0.09-1.75-0.97-1.66-1.97c0.08-1.02,0.92-1.72,1.96-1.66c30.99,2.69,36.4,12.35,41.64,21.7
			c1.03,1.83,2.1,3.71,3.34,5.53c0.28,0.39,0.57,0.77,0.89,1.13c0.01,0.02,0.02,0.03,0.03,0.05c3.51,3.98,9.03,5.34,13.23,5.74
			c11.84,1.19,28.03-3.8,35.33-10.85c8.33-8.05,15.36-11.99,21.4-11.99C343.64,231.28,344.6,231.39,345.55,231.61z M396.33,211.59
			c8.22,3.24,11.05,9.91,11.01,16.2c2.97-2.18,4.52-4.51,4.7-7.14c0.31-4.27-2.89-9.5-9.49-15.56c-3.54,2.07-6.68,3.38-9.35,2.5
			c-1.63-0.52-2.86-1.75-3.64-3.71c-5.1-12.62-13.18-27.47-34.26-42.14c-0.63-0.42-1.06-0.97-1.32-1.6
			c-6.34-2.35-10.82-2.65-13.61-0.91c0.4,1.85-0.44,3.76-1.14,5.37c-0.17,0.38-0.33,0.74-0.46,1.08
			c14.57,7.25,32.54,16.29,37.5,32.34c3.63,11.79,4.48,21.79,3.62,30.05c0.31,0.03,0.6,0.16,0.88,0.38
			c5.16,4.12,9.75,9.52,11.95,15.43c4.56-0.63,9.13-5.89,10.57-12.46c0.6-2.85,1.85-12.44-8.29-16.47c-0.93-0.38-1.4-1.44-1.02-2.36
			c0.27-0.72,0.97-1.16,1.7-1.16C395.88,211.45,396.12,211.49,396.33,211.59z M326.06,207.44c-0.89-7.73-5.89-11.43-15.36-17.64
			c-2.45-0.33-5.02-0.34-7.72-0.34c-5.87-0.03-11.93-0.05-16.91-3.41c-3.98-2.68-4.73-7.4-5.48-11.97
			c-0.34-2.11-0.67-4.13-1.29-5.85c-0.09-0.25-0.13-0.48-0.1-0.75c-5.44-0.55-10.1-0.11-14.1,1.36c4.7,8.78,6.94,16.91,6.68,24.25
			c3.22,0.85,6.83,1.25,10.32,1.67c8.32,1,16.91,2.02,22.24,8.22c4.48,0.72,8.35,1.39,11.79,2.08c0.98,0.2,1.62,1.16,1.42,2.13
			c-0.2,1-1.15,1.64-2.13,1.44c-2.85-0.55-5.96-1.11-9.5-1.71c-0.03,0.56-0.17,1.13-0.42,1.67c-2.27,5.15-13.47,8.69-18.6,9.08
			c-3.99,0.31-6.29-3.19-8.31-6.26c-0.9-1.35-1.74-2.65-2.66-3.51c-0.73-0.72-0.74-1.88-0.05-2.61c0.71-0.7,1.86-0.74,2.58-0.03
			c1.21,1.17,2.22,2.69,3.17,4.16c1.89,2.86,3.26,4.74,5.01,4.6c5.39-0.39,14.22-3.93,15.52-6.9c0.19-0.41,0.21-0.78-0.23-1.35
			c-4.36-5.49-12.08-6.42-20.25-7.39c-3.44-0.42-6.97-0.83-10.28-1.63c-1.05,6.34-4.4,13.46-9.99,16.87
			c11.65,16,22.98,23.9,33.63,23.56c10.82-0.36,21.62-9.27,32.1-26.47C326.59,209.79,326.23,208.72,326.06,207.44z M98.3,347.41
			c-0.62-0.8-0.49-1.96,0.3-2.57c0.88-0.7,1.58-1.82,2.37-3.13c2.96-4.74,6.99-11.25,26.41-6.48c0.98,0.25,1.58,1.25,1.34,2.22
			c-0.24,0.97-1.23,1.57-2.21,1.33c-16.84-4.13-19.82,0.64-22.44,4.87c-0.88,1.46-1.83,2.96-3.22,4.04
			c-0.33,0.28-0.73,0.41-1.13,0.41C99.2,348.09,98.67,347.84,98.3,347.41z M79.82,325.98c-0.92-0.41-1.37-1.46-0.97-2.38
			c0.38-0.95,1.46-1.38,2.39-1c10.07,4.21,16.79,0.78,24.56-3.19c7.07-3.6,15.1-7.69,26.41-5.63c0.99,0.19,1.65,1.13,1.47,2.11
			c-0.17,0.99-1.13,1.66-2.13,1.47c-10.1-1.83-17.21,1.8-24.1,5.32c-5.34,2.71-10.78,5.49-17.37,5.49
			C86.95,328.17,83.58,327.54,79.82,325.98z M77.87,303.34c-0.59-0.8-0.41-1.93,0.4-2.54c0.81-0.6,1.94-0.42,2.55,0.41
			c3.3,4.52,8.01,7.04,11.43,6.18c3.11-0.78,4.19-4.18,4.54-6.86c0.03-0.25,0.12-0.49,0.23-0.69c-0.46-1.05-0.83-2.25-1.1-3.6
			c-0.92-4.45-0.5-9.55,1.64-12.57c-2.47-1.27-4.55-3.33-6.1-6.09c-3.54-6.31-3.68-14.82-1.99-19.64
			c2.65-7.51,8.48-12.18,14.13-16.72c2.44-1.94,4.96-3.94,7.24-6.18c0.7-0.7,1.87-0.7,2.58,0.02c0.7,0.72,0.69,1.89-0.02,2.58
			c-2.4,2.36-5,4.45-7.51,6.45c-5.5,4.4-10.69,8.53-12.98,15.04c-1.44,4.12-1.18,11.49,1.74,16.67c1.6,2.83,3.78,4.63,6.48,5.35
			c3.25-1.02,11.61-3.71,12.65-15.26c0.88-10,5.13-19.28,11.65-26.36c-5.33-4.63-6.8-12.12-4.44-21.77
			c-10.25-0.52-17.67,2.46-20.68,8.37c-0.44,0.91-1.53,1.27-2.44,0.81c-0.91-0.45-1.26-1.55-0.81-2.44
			c3.76-7.45,12.78-11.18,24.93-10.35c1.42-4.37,3.53-9.13,6.35-14.23c0.2-0.44,0.44-0.89,0.69-1.35
			c-4.48-0.66-9.66,0.09-16.36,5.42c-0.79,0.63-1.95,0.49-2.57-0.3c-0.63-0.8-0.48-1.94,0.29-2.57c8.58-6.79,15.28-7.06,20.77-5.87
			c4.95-6.57,13.02-11.24,22.64-13.01c-1.03-3.6-1.07-6.75-0.13-9.36c-0.85-0.61-3.84-1.49-8.53-0.99
			c-4.44,0.5-15.34,2.91-20.5,14.78c-0.4,0.91-1.46,1.33-2.41,0.94c-0.92-0.41-1.33-1.49-0.94-2.41
			c5.2-11.93,16.42-16.62,25.19-17.06c3.16-0.17,6.79,0.22,8.99,1.57c3.66-4.38,10.27-5.31,13.97-5.81c0.48-0.06,1.03-0.14,1.4-0.2
			c3.19-5.62,6.74-9.55,12.63-11.46c-9.88-4.7-19.08-2.1-31.67,4.19c-0.89,0.44-1.99,0.08-2.45-0.83c-0.45-0.89-0.08-1.99,0.82-2.46
			c13.67-6.79,24.19-9.66,35.6-3.83c-0.26-1.13-0.54-2.32-0.81-3.49c-0.61-2.68-1.23-5.34-1.65-7.28c-0.09-0.39-0.06-0.77,0.09-1.11
			c2.56-5.98,5.8-9.67,9.95-11.29c6.29-2.49,12.96,0.5,18.85,3.12c1.17,0.52,2.29,1.02,3.37,1.47l3.4,1.38
			c9.81,4.05,15.48,6.21,17.89,3.08c0.35-0.47,0.79-0.96,1.24-1.47c1.24-1.38,2.75-3.1,2.39-4.16c-0.28-0.8-2.01-2.9-12.05-4.81
			c-0.99-0.19-1.63-1.13-1.45-2.13c0.18-0.99,1.14-1.64,2.14-1.47c9.13,1.75,13.7,3.96,14.82,7.23c1.03,3.07-1.36,5.78-3.12,7.76
			c-0.4,0.44-0.77,0.88-1.1,1.28c-4.23,5.46-11.76,2.36-22.17-1.94l-3.37-1.39c-1.12-0.45-2.28-0.97-3.49-1.5
			c-5.23-2.33-11.17-4.98-16.03-3.07c-3.06,1.21-5.58,4.1-7.69,8.81c0.42,1.85,0.96,4.24,1.53,6.65c0.49,2.13,0.99,4.26,1.39,6.03
			c6.69-0.52,15.7,0.61,28.35,3.62c0.98,0.23,1.58,1.22,1.35,2.19c-0.23,1-1.22,1.6-2.19,1.36c-29.04-6.89-36.96-3.71-43.14,6.86
			c5.17,5.65,13.34,8.67,25.59,9.47c0.8,0.06,1.47,0.61,1.66,1.39c0.19,0.77-0.15,1.58-0.84,1.99l-7.39,4.45
			c-0.87,0.52-2,0.22-2.5-0.63c-0.52-0.88-0.23-1.99,0.63-2.52l2.64-1.57c-10.37-1.41-17.7-4.74-22.66-10.32
			c-0.42,0.06-0.89,0.13-1.46,0.2c-3.45,0.47-9.86,1.35-12.28,5.38c-1.32,2.21-1.38,5.26-0.15,9.06c15.05,0.95,28.08,2.1,38.7,15.56
			c0.63,0.78,0.49,1.93-0.31,2.57c-0.78,0.61-1.94,0.49-2.56-0.31c-9.38-11.88-20.23-13.16-37.1-14.23
			c-9.25,1.27-17.02,5.42-21.8,11.43c0.12,0.33,0.12,0.69,0.02,1.05c-0.23,0.8-0.92,1.3-1.69,1.32c-0.44,0.75-0.86,1.49-1.21,2.25
			c-2.03,3.66-4.33,8.36-5.96,13.21c0.46,0.39,0.72,0.99,0.63,1.61c-0.09,0.86-0.77,1.5-1.59,1.6c-1.91,7.31-1.85,14.56,3.37,18.94
			c3.4-3.12,7.29-5.67,11.56-7.5c-2.1-13.48,4.36-20.76,11.1-26.16c5.32-3.88,9.89-5.46,13.95-4.79c3.29,0.53,6.09,2.49,8.54,5.95
			c0.35,0.49,0.44,1.1,0.24,1.66c-4.81,13.71-12.76,20.21-23.66,19.3c-1-0.08-1.75-0.97-1.67-1.99c0.09-0.99,0.97-1.74,1.97-1.66
			c8.88,0.75,15.33-4.48,19.59-15.95c-1.71-2.16-3.55-3.37-5.6-3.71c-3.03-0.49-6.79,0.89-11.14,4.08
			c-6.4,5.12-11.95,11.58-9.47,24.11l23.1,17.69c0.79,0.59,0.95,1.75,0.33,2.55c-0.6,0.8-1.75,0.96-2.55,0.34l-23.51-17.98
			c-12.76,5.59-22.1,18.86-23.41,33.31c-0.83,9.31-5.96,15.53-15.25,18.42l-0.37,0.11c-0.01,0.03-0.02,0.03-0.04,0.03
			c-2.18,0.74-3.23,5.84-2.25,10.74c0.7,3.44,2.16,5.81,3.76,5.63c8-0.7,13.7-9.22,18.74-16.73c1.09-1.61,2.14-3.19,3.19-4.65
			c4.32-6.04,7.22-13.18,10.03-20.08c1.43-3.52,2.92-7.17,4.57-10.66c0.44-0.92,1.53-1.3,2.44-0.86c0.91,0.42,1.29,1.52,0.86,2.44
			c-1.63,3.38-3.08,6.98-4.49,10.46c-2.88,7.09-5.87,14.43-10.44,20.8c-1.03,1.46-2.06,3.01-3.12,4.59
			c-5.49,8.2-11.72,17.48-21.46,18.33c-1.35,0.13-2.61-0.27-3.7-1.1c-1.47,5.12-4.72,6.73-6.71,7.23c-0.74,0.19-1.5,0.28-2.29,0.28
			C86.44,311.22,81.45,308.27,77.87,303.34z M158.64,263.24c-0.2-0.99,0.45-1.96,1.43-2.13c12.01-2.41,24.81-6.89,28.65-21.88
			c3.59-15.89,11.04-29.04,23.44-41.4c0.7-0.7,1.86-0.7,2.57,0c0.72,0.7,0.72,1.86,0,2.58c-11.88,11.85-19.02,24.45-22.47,39.68
			c-4.38,17.09-19.13,22.12-31.49,24.59c-0.12,0.03-0.23,0.03-0.35,0.03C159.57,264.71,158.8,264.12,158.64,263.24z M253.46,199.35
			l-3.87-5.09c-2.24,2.38-6.56,3.29-10.23,4.07c-1.14,0.23-2.24,0.48-3.13,0.74c-0.98,0.28-1.99-0.3-2.26-1.27
			c-0.27-0.97,0.28-1.97,1.25-2.25c0.97-0.27,2.14-0.52,3.39-0.78c3.64-0.78,8.61-1.83,8.84-4.15c0.4-4.2-1.97-6.98-4.02-8.58
			c-6.01-4.67-16.54-5.31-26.8-1.61c-0.95,0.31-2.01-0.17-2.33-1.11c-0.34-0.95,0.15-2,1.09-2.35c11.41-4.08,23.32-3.22,30.3,2.19
			c3.71,2.88,5.63,6.81,5.45,11.08l5.24,6.92c0.61,0.8,0.45,1.94-0.35,2.54c-0.33,0.25-0.72,0.38-1.11,0.38
			C254.36,200.07,253.82,199.81,253.46,199.35z M390.51,183.93c-9.84-9.3-10.36-12.76-9.73-14.7c2.08-6.34,6.85-5.92,11.47-5.53
			c1.32,0.13,2.74,0.23,4.26,0.23c1.01,0,1.82,0.83,1.82,1.83c0,1.02-0.81,1.83-1.82,1.83c-1.63,0-3.17-0.13-4.59-0.27
			c-4.94-0.42-6.55-0.41-7.67,2.99c0,0.03-0.23,2.46,8.74,10.96c1.71,1.64,2.19,1.39,4.75-0.48c1.49-1.1,3.36-2.46,5.93-3.29
			c0.96-0.33,2,0.2,2.29,1.14c0.32,0.97-0.2,2-1.15,2.32c-2.03,0.67-3.57,1.78-4.93,2.77c-1.44,1.05-3.1,2.27-5.03,2.27
			C393.54,186.01,392.09,185.46,390.51,183.93z M215.67,173.27c-7.82-6.68-14.56-8.84-25.03-10.61c-0.99-0.19-1.66-1.13-1.49-2.13
			c0.17-1,1.1-1.64,2.11-1.49c10.88,1.86,18.38,4.24,26.77,11.47c0.77,0.64,0.85,1.8,0.2,2.57c-0.36,0.42-0.88,0.64-1.39,0.64
			C216.43,173.72,216,173.58,215.67,173.27z M318.38,157.35c-14.8-8.84-46.98-15.61-63.79-13.37c-1,0.13-1.91-0.58-2.05-1.58
			c-0.13-0.99,0.57-1.89,1.58-2.05c17.73-2.33,50.51,4.52,66.13,13.87c0.85,0.52,1.14,1.64,0.63,2.52
			c-0.34,0.55-0.95,0.88-1.57,0.88C319,157.61,318.68,157.52,318.38,157.35z M235.6,152.39c-5.38-4.57-11.31-5.53-22.08-7.26
			c-2.23-0.36-4.65-0.75-7.29-1.21c-0.99-0.17-1.67-1.11-1.49-2.11c0.16-1,1.1-1.63,2.11-1.49c2.64,0.47,5.05,0.84,7.25,1.19
			c11.04,1.8,17.7,2.86,23.87,8.11c0.77,0.64,0.84,1.8,0.2,2.57c-0.37,0.41-0.88,0.64-1.4,0.64
			C236.37,152.82,235.95,152.68,235.6,152.39z M337.39,142.29c-3.39-0.89-6.58-2.63-10.28-4.63c-7.18-3.9-16.15-8.75-31.93-10.35
			c-0.99-0.09-1.73-0.99-1.63-1.99c0.09-0.99,1.01-1.72,1.99-1.64c16.52,1.67,26.23,6.92,33.32,10.77c3.49,1.88,6.5,3.54,9.46,4.3
			c0.87,0.22,1.73,0.36,2.62,0.44c-4.23-4.91-5.74-9.13-4.49-12.55c0.8-2.19,3.15-4.96,9.81-5.81c0.99-0.14,1.91,0.6,2.03,1.6
			c0.12,0.99-0.59,1.91-1.59,2.03c-3.77,0.47-6.2,1.69-6.83,3.43c-0.79,2.22,0.97,5.89,4.85,10.07c0.31,0.33,0.48,0.75,0.49,1.19
			c1.75-0.16,3.62-0.44,5.66-0.75c5.74-0.88,12.88-1.96,22.62-0.91c1.01,0.11,1.74,1,1.61,2c-0.11,1.02-0.99,1.74-2,1.63
			c-9.27-1-16.15,0.05-21.68,0.89c-3.12,0.47-5.99,0.91-8.77,0.91C340.88,142.92,339.15,142.73,337.39,142.29z M265.15,134.04
			c-5.15-9.47-13.39-14.04-27.54-15.29c-1.32-0.13-2.64-0.25-3.95-0.38c-9.51-0.97-18.49-1.86-29.91,3.16
			c-0.92,0.42-2-0.02-2.41-0.92c-0.41-0.92,0.02-2,0.93-2.41c12.3-5.43,21.75-4.48,31.77-3.46c1.29,0.13,2.59,0.25,3.9,0.38
			c15.31,1.33,24.7,6.64,30.43,17.19c0.48,0.88,0.15,2-0.74,2.47c-0.27,0.16-0.57,0.23-0.87,0.23
			C266.1,135.01,265.46,134.67,265.15,134.04z M291.83,123.08c-9.2-10.05-9.7-9.96-22.53-7.53l-3.15,0.58
			c-0.35,0.06-0.7,0.05-1.02-0.09c-1.53-0.61-2.94-1.21-4.3-1.78c-11.35-4.71-17.03-7.09-27.92-2.07c-0.92,0.42-2,0.02-2.4-0.91
			c-0.43-0.91-0.04-1.99,0.88-2.41c12.33-5.68,19.32-2.79,30.85,2.02c1.21,0.5,2.45,1.03,3.79,1.55l2.6-0.47
			c13.81-2.61,15.67-2.52,25.9,8.64c0.68,0.75,0.63,1.91-0.11,2.58c-0.35,0.33-0.78,0.48-1.22,0.48
			C292.67,123.68,292.19,123.48,291.83,123.08z M314.23,117.14c-14.54-5.95-34.46-14.12-39.87-11.04c-0.7,0.41-1.06,0.97-1.18,1.86
			c-0.14,0.99-1.05,1.72-2.07,1.55c-1-0.16-1.69-1.08-1.55-2.07c0.3-2,1.31-3.55,2.97-4.51c6.46-3.69,21.93,2.14,43.08,10.83
			c0.94,0.38,1.38,1.44,1,2.36c-0.3,0.72-0.98,1.14-1.69,1.14C314.7,117.28,314.46,117.25,314.23,117.14z"/>
	</g>
	<g>
		<path class="st4" d="M262.93,148.61c9.94,0.85,25.91,1.53,34.48,5.81c3.92,1.94,18.36,9.42,23.14,6.75
			c1.8-1-10.81-6.72-17.37-8.41c-5.53-1.41-23.07-6.67-28.93-6.67C272.62,146.09,243.66,147.05,262.93,148.61z"/>
		<path class="st4" d="M238.21,170.86c7.63-2.41,17.27-9.28,21.66,2c2.97,7.65,5.12,6.79,5.12,16.69c0,4.48-0.27,17.91-4.52,10.35
			c-6.19-10.97-3.34-20.1-15.35-28.33c-1.67-1.14-11.72-0.67-13.91-0.16C225.56,172.77,233.12,171.69,238.21,170.86z"/>
		<path class="st4" d="M236.91,182.31c3.29,3.02,10.08,2.8,5.11,7.78c-1.86,1.86-3.61,3.3-6.82,2.07c-8.24-3.19,5.48-8.11-9.52-8.72
			c-2.98-0.11-4.25,4.02-6.01,0.81C218.93,182.91,227.8,173.94,236.91,182.31z"/>
		<path class="st4" d="M245.37,199.89c-1.14,0-10.33,0.89-10.51,2.55c-0.52,4.57,15.27,4.88,19.29,4.88c4.88,0-2.41-5.02-3.32-5.68
			C248.91,200.24,247.63,198.97,245.37,199.89z"/>
		<path class="st4" d="M318.67,211.63c-9.54-6.61-9.31,1.96-15.65,5.85c-3.36,2.05-21.66,5.31-23.75-0.74
			c-1.2-3.43-5.91-10.53-8.41-5.49c-3.04,6.09-0.98,4.24,4.81,8.73c7.18,5.62,22.35,9.67,30.05,3.01
			C310.32,218.99,318.67,217.71,318.67,211.63z"/>
		<path class="st4" d="M277.48,170.07c-10.69-0.7-4.07,5.04-3.48,10.88c1.55,15,18.18,8.16,28.53,13.88
			c4.04,2.22,6.04,5.29,11.23,6.17c11.89,2.03,8.81,1.47,0.82-5.27c-9.41-7.97-22.88-3.41-32.25-8.67
			C275.43,183.16,278.63,168.98,277.48,170.07z"/>
		<path class="st4" d="M242.97,228.43c-5.08-2.08-9.46-2.49-15.61-2.49c-3.15,0-9.97-0.72-8,3.24c2.14,4.3,12.07,6.29,17.07,6.65
			c8.19,0.58,17.33,4.34,21.35,10.13C262.14,252.24,258.3,234.67,242.97,228.43z"/>
		<path class="st4" d="M248.45,259.86c0,8.62,0.44,11.47-6.25,14.71c-5.57,2.71-12.03,4.56-6.08-1.39
			c3.75-3.76,9.55-4.73,3.94-12.49c-5.84-8.14-32.77-5.73-22.63-12.1C224.9,243.94,248.45,247.01,248.45,259.86z"/>
		<path class="st4" d="M232.49,272.08c-4.23,4.73-20.18-2.83-28.62,1.25c-3.03,1.47-16.01,13.23-18.02,9.97
			c-1.32-2.1,13.77-15.98,19.39-18.11C209.85,263.44,237.49,266.48,232.49,272.08z"/>
		<path class="st4" d="M173.35,292.56c1.52,3.96-0.13,7.39,2.03,11.22c4.32,7.62,7.84,4.08,6.57,13.96
			c-0.31,2.38-3.67,13.7-6.86,10.52c-2-1.99,0.16-9.25,0.16-12.51c0-6.56-2.92-14.1-6.32-18.99
			C164.03,289.74,170.82,285.95,173.35,292.56z"/>
		<path class="st4" d="M215.07,203.68c-0.07,0.23,4.45-4.21,4.45-0.13c0,7.15-8.98,12.07-12.96,17.23
			c-3.49,4.55-6.17,10.05-6.17,16.62c0,12.88-12.32,28.33-22.76,33.54c-4.84,2.44-1.99-1.77-0.99-4.57
			c1.76-4.85,11.92-11.29,15.46-17.05c5.04-8.22,3.78-19.13,9.78-27.75C204.44,217.91,212.66,204.15,215.07,203.68z"/>
		<path class="st4" d="M230.23,323.97c11.47,10.94-3.67,2.27-9.3-0.3c-6.73-3.07-13.22-4.59-20.86-4.13
			c-3.44,0.22-5.78,2.02-9.5,1.6C187.5,320.8,214.08,308.59,230.23,323.97z"/>
		<path class="st4" d="M255.06,296.78c-2.92-2.96-8.07-13.18-12.39-10.22c-9.17,6.28-17.09-8.62-27.46,0.11
			c-3.26,2.72-7.9,5.49-4.35,10.14c1.43,1.88,4.96-4.84,9.45-5.9c13.39-3.21,27.95,6.23,36.31,15.7c1.67,1.88,9.32,8.31,9.32,2.05
			C265.95,305.24,254.21,298.1,255.06,296.78z"/>
		<path class="st4" d="M261.77,256.53c8.37-2.88,12.74-2.49,18.24,5.43c3.12,4.49,18.46,15.03,5.76,15.03
			c-4.37,0-7.98-12.82-14.71-12.82c-7.51,0-9.7,21.12-16.44,12.82C254.62,276.98,259.64,258.33,261.77,256.53z"/>
		<path class="st4" d="M355.57,227.57c-7.04-6.29-11.08-6.56-19.82-6.56c-4.42,0-14.16,10.6-19.33,14.2
			c-13.48,9.38-30.29,9.36-43.3,0.31c-2.97-2.07-7.09-8.52-9.49-11.52c-2.97-3.74-6.62-2.54-2.2,3.05
			c16.75,21.13,40.36,30.51,62.62,5.93c6.4-7.06,15.71-9.06,24.29-3.77c3.1,1.91,7.04,6.45,11.19,6.45
			C362.42,235.66,355.33,227.4,355.57,227.57z"/>
		<path class="st4" d="M348.67,242.5c-5.75-6.78-5.97-4.82-18.26,2.75c-8.35,5.15-14.85,13.15-25.47,13.96
			c-2.97,0.22-11.31-0.22-6.57,6.61c8.05,11.63,27.99-11.05,33.62-14.53c5.54-3.41,2.76-5.56,9.85-5.56c2.8,0,5.93,0.16,8.21,1.02
			C353.99,248.28,349.61,243.13,348.67,242.5z"/>
		<path class="st4" d="M354.36,258.07c-1.55-7.78-32.11,11.91-25.74,21.26c1.6,2.33-0.31,8.98,2.37,6.82
			c4.96-3.98,8.97-12.29,8.73-15.87C339.23,262.93,355.78,264.62,354.36,258.07z"/>
		<path class="st4" d="M319.46,286.16c-5.2-11.27-14.65-4.26-23.53,0.19c-5.92,2.96-18.25,8.64-25.6-2.77
			c-6.33-9.83-5.02,0.86-2.03,5.93c6.39,10.83,27.81,3.35,38.46,0.97c7.04-1.58,10.33,4.93,15.42,4.93
			C325.11,295.41,319.21,285.95,319.46,286.16z"/>
		<path class="st4" d="M351.62,177.93c-8.3-4.73-16.15-9.66-26-6.37c-3.9,1.3-8.18,4.19-8.98,8.62c-0.69,3.82-1.47,5.23,2.32,5.67
			c7.07,0.8,7.93-8.95,14.73-10.71c4.34-1.11,8.17,0.09,12.37,0.52C351.08,176.18,351.54,179.2,351.62,177.93z"/>
		<path class="st4" d="M198.15,293.76c1.82,5.81,2.52,13.65-6.62,11.27c-4.17-1.08-8.99-5.84-10.8-10.53
			c-0.67-1.75-0.57-10.88,2.05-7.25c2.32,3.22,3.19,7.54,5.61,11.07c1.03,1.53,2.67,2.71,4.77,1.52c3.52-1.99-5.66-6.53-2.18-6.98
			C192.75,292.64,198.21,292.24,198.15,293.76z"/>
		<path class="st4" d="M160.6,304.95c1.82,2.46,4.86,7.33,2.53,10.74c-0.6,0.88-0.8,2-2.05,2.46c-2.99,1.08-1.65-2.69-2.19-4.24
			c-0.52-1.52-1.31-2.6-3-2.6c-2.97,0-2.14-3.13-0.55-4.23C157.72,305.42,157.62,304.2,160.6,304.95z"/>
		<path class="st4" d="M294.32,130.46c-6.22,1.44-11.56,2.49-17.24,5.34c-2.82,1.41,1.52,2.16,2.4,2.41
			c4.7,1.3,8.73-4.34,14.06-4.82c4.56-0.44,7.87,0.05,12.33,0.41c1.1,0.11,2.32,0.58,3.4,0.58c5.13,0-5.6-3.04-6.66-3.27
			C299.66,130.46,296.25,129.67,294.32,130.46z"/>
		<path class="st4" d="M359.65,143.89c-7.16,1.19-15.88,3.83-22.85,1.97c-4.66-1.22,4.1,4.84,5.39,5.26c2.08,0.69,5.54,0.64,7.8,0.3
			c3.74-0.58,5.06-3.41,8.51-4.55C361.12,146.02,363.54,144.03,359.65,143.89z"/>
		<path class="st4" d="M326.84,191.97c4.9,4.1,5.7,12.02,10.28,16.64c3.43,3.41,8.76,3.94,13.18,6.01c7.33,3.4,1.94-0.97-0.89-3.08
			c-4.92-3.65-7.95-9.91-12.15-14.59C335.71,195.26,327.03,185.87,326.84,191.97z"/>
		<path class="st4" d="M339.69,186.46c4.92,4.92,11.51,8.92,15.09,15.11c1.46,2.52,2.55,4.4,3.58,7.17
			c0.71,1.86,1.65,11.18,3.07,4.23c1.42-6.92-3.11-15.79-8.18-20.11C351.43,191.32,339.69,181.64,339.69,186.46z"/>
		<path class="st4" d="M381.89,155.55c-1.99-0.78-16.11-0.47-16.11,2.24c0,3.41,5.26,6.61,6.78,9.34c0.83,1.52,4.21,5.81,4.21,1.28
			c0-6.5,1.39-8.34,8.32-9.34C389.6,158.41,383.59,155.35,381.89,155.55z"/>
		<path class="st4" d="M289.15,173.05c2.09,4.51,3.28,6.48,7.29,7.73c2.04,0.63,4.56-0.08,6.28-0.74c4.84-1.86-4.34-2.97-5.84-3.79
			C295.73,175.63,289.66,171.31,289.15,173.05z"/>
		<path class="st4" d="M347.84,161.36c-3.04,5.63,11.14,11.03,14.74,13.15c5.2,3.02,8.34,6.42,11.68,11.08
			c4.12,5.76-2.38-3.57-4.23-5.54C367.35,177.18,350.46,153.91,347.84,161.36z"/>
		<path class="st4" d="M380.47,193.49c3.18,8.5,4.81,16.01,10.99,22.21c1.67,1.64,11.16,7.95,7.94,12.01
			c-7.84,9.91-13.14-4.63-13.85-12.43c-0.37-4.15-3.68-8.64-4.06-12.41C381.45,202.48,379.82,190.56,380.47,193.49z"/>
		<path class="st4" d="M380.47,239.32c1.84,0.85,3.27,2.44,4.27,4.07c0.95,1.52-0.24,2.47-1.84,3.26c-3.18,1.6-6.1,5.57-8.55,8.56
			c-2.03,2.46-4.38,3.79-2.65-0.63c1.15-2.9,3.67-5.92,5.5-8.55C378.06,244.8,380.06,239.51,380.47,239.32z"/>
		<path class="st4" d="M397.77,170.67c-2.79-1.14-5.43-1.63-8.35-1.63c-1.09,0-0.99-0.06-1.42,0.63c-0.67,1.08,0.8,3.13,1.22,3.66
			c1.21,1.5,4.01,2.1,5.49,0.41c0.7-0.78,1.12-1.27,2.04-1.63C397.18,171.95,398.89,171.31,397.77,170.67z"/>
		<path class="st4" d="M333.02,120.77c-5.81-0.91-11.5-1.33-16.9,0.61c-0.6,0.23-3.72,0.99-4.09,1.46
			c-0.53,0.63,2.97,1.33,3.26,1.41c4.2,1.11,11.35,4.56,15.69,2.24C332.83,125.5,337.02,120.56,333.02,120.77z"/>
		<path class="st4" d="M406.53,185.13c-1.73,0-3.51,0.78-4.69,1.44c-1.1,0.61-3.08,1.39-4.07,1.63c-0.92,0.22-3.67-0.11-3.87,0.61
			c-0.48,1.85-0.22,4.68,2.03,4.68c0.67,0,1.4,0.08,2.05,0c0.43-0.05,2.23-1.82,2.84-2.24c0.95-0.66,1.54-1,2.46-1.63
			c1.03-0.74,2.53-0.88,3.45-1.63C407.99,187.01,407.11,185.35,406.53,185.13z"/>
		<path class="st4" d="M351.04,127.2c-3.27,1.19-3.93,0.91-4.99,3.96c-1.39,4.04,4.84,2.46,7.13,2.46c2.35,0,4.59,0.61,6.73,0.61
			c5.55,0-0.5-4.12-1.64-4.9C356.24,127.94,352.93,127.09,351.04,127.2z"/>
		<path class="st4" d="M288.43,202.55c1.75,0,8.25,1.74,6.22,3.77c-1.34,1.33-3.15,3.4-5.27,3.4c-2.58,0-3.03-1.21-4.71-2.27
			c-2.15-1.31-4.3-3.88-1.5-5.26C284.52,201.5,288.82,201.8,288.43,202.55z"/>
		<path class="st4" d="M212.45,135.94c-7.16-1.27-13.81-8-19.3-0.86c-2.47,3.22-1.92,10.38,1.32,12.46
			c3.73,2.38,8.18,1.69,12.8,1.69c5.69,0-2.8-3.13-4.13-3.6c-2.32-0.78-3.96-1.63-3.96-4.32c0-3.35,6.38-3.21,9.03-3.21
			C210.36,138.1,216.44,136.95,212.45,135.94z"/>
		<path class="st4" d="M181.66,162.59c2.22,4.13,5.96,6.5,11.31,6.79c1.39,0.08,4.7-0.03,5.83,0.56c0.62,0.33,3.29,1.32,4.34,1.32
			c2.61,0-4.1-2.58-4.52-2.82c-2.93-1.64-7.62-2.57-9.79-4.34c-1.15-0.92-2.6-2.18-3.77-2.83
			C183.97,160.67,181.66,161.17,181.66,162.59z"/>
		<path class="st4" d="M186.37,179.75c-3.37-0.72-7.13-0.92-9.61-2.46c-2.72-1.66-6.95-6.79-10.92-5.26
			c-3.46,1.33-5.79,3.99-1.69,5.84c3.8,1.71,10.82,1.78,15.24,3.02c1.93,0.52,5.39,2.07,6.98,2.07
			C189.84,182.96,185.89,179.84,186.37,179.75z"/>
		<path class="st4" d="M179.59,193.32c-11.05-7.89-23.09-2.22-34.28,0.95c-8.09,2.29-13.92,12.6-15.82,20.54
			c-0.43,1.82-1.03,6.51,0.57,8.11c2.93,2.94,7.29-12.62,9.6-15.47c5.22-6.45,17.51-17.42,27.11-13.18
			C172.88,196.95,183.8,206.3,179.59,193.32z"/>
		<path class="st4" d="M164.33,206.14c0,3.71-2.61,6.7-4.52,9.05c-1.02,1.25-5.28,3.4-7.53,3.4c-1.11,0-1.33-1.35-1.33-2.25
			c0-1.22,5.28-7.58,6.42-8.48c0.9-0.75,2.14-1.52,3.57-2.08C161.43,205.58,164.83,205.76,164.33,206.14z"/>
		<path class="st4" d="M115.57,242.14c-7.04,5.4-17.41,10.35-18.47,19.61c-0.72,6.34-0.39,11.02,5.28,13.2
			c3.04,1.17,7.35-3.49,7.35-6.61c0-4.27-1.71-5.12-4.52-2.44c-5.1,4.84-0.13-8.23,1.88-10.57
			C110.71,251.14,118.95,247.82,115.57,242.14z"/>
		<path class="st4" d="M115.57,222.92c1.85,2.96-1.42,4.96-3.21,6.61c-1.06,0.96-2.46,1.91-3.77,2.82
			c-0.64,0.45-1.71,1.58-2.63,1.69c-1.41,0.17,0.82-4.43,0.93-4.7c1.12-2.74,1.97-4.7,4.15-6.23
			C112.23,222.28,115.52,221.34,115.57,222.92z"/>
		<path class="st4" d="M148.52,176.16c-3.16-3.79-10.74,1.61-13.19,3.4c-1.23,0.89-4.43,7.68-1.51,6.21
			c1.58-0.77,2.62-2.47,4.9-2.82c1.75-0.27,3.16-0.94,5.09-0.94c2.67,0,4.29,0.08,6.03-1.33
			C151.19,179.58,150.2,175.8,148.52,176.16z"/>
		<path class="st4" d="M173.94,154.3c-3.69,2.65-4.76,5.62-8.66,8.11c-3.24,2.07-6.38,3.02-10.55,3.02c-2.08,0-5.59,0.67-4.71-2.46
			c0.96-3.46,11.89-6.62,15.07-7.73C167.14,154.53,173.94,151.02,173.94,154.3z"/>
		<path class="st4" d="M138.72,239.14c-9.81,3.02-17.33,17.81-17.33,27.52c0,1.39-9.81,19.53-2.25,12.82
			c8.31-7.37,9.44-30.02,19.57-33.94c3.9-1.49,10.75,4.93,10.75,0.94C149.47,243.25,138.8,236.43,138.72,239.14z"/>
		<path class="st4" d="M130.81,291.06c-0.18,5.42-2.42,13.84-7.15,16.12c-1.9,0.92-13.1,7.14-14.49,4.9
			c-1.71-2.74,6.58-7.14,8.09-8.48c3.86-3.46,5.98-8.95,8.66-12.8C128.6,286.92,131,284.17,130.81,291.06z"/>
		<path class="st4" d="M225.81,125.75c2.18,0.72,5.78,2.1,7.82,3.1c4.59,2.3-1.24,5.67-5.28,3.58c-3.36-1.72-6.36-2.61-9.79-4.51
			c-2.04-1.14-4.8-1.64-6.78-3.02c-4.13-2.88,3.73-2.85,6.78-2.46C220.02,122.63,225.95,124.82,225.81,125.75z"/>
		<path class="st4" d="M248.33,122.83c1.82,0.11,6.88,2.99,5.07,5.26c-0.81,1.05-1.49,1.83-2.26,2.46c-1.57,1.3-1.89-1.94-2.81-3.19
			c-1.07-1.46-1.96-2.18-3.21-3.02c-0.66-0.45-1.17-0.99-1.5-1.5C242.62,121.22,248.8,123.12,248.33,122.83z"/>
	</g>
	<g>
		<g>
			<g>
				<polygon class="st5" points="108.72,338.58 108.32,338.83 102.81,335.07 102.7,329.5 101.26,328.57 100.87,326.13 
					101.28,325.88 103,326.9 103.24,332.5 108.73,335.88 				"/>
				<g>
					<polygon class="st6" points="108.32,338.83 102.8,335.49 102.85,332.77 108.34,336.14 					"/>
					<polygon class="st7" points="102.61,327.15 102.85,332.77 102.8,335.49 102.59,329.84 					"/>
					<polygon class="st6" points="102.59,329.84 100.86,328.81 100.87,326.13 102.61,327.15 					"/>
				</g>
			</g>
			<g>
				<polygon class="st5" points="108.68,334.05 108.29,334.3 102.77,330.55 102.69,324.97 101.22,324.05 100.85,321.61 
					101.25,321.36 102.99,322.38 103.23,327.98 108.71,331.35 				"/>
				<g>
					<polygon class="st6" points="108.29,334.3 102.77,330.97 102.83,328.23 108.3,331.6 					"/>
					<polygon class="st7" points="102.59,322.61 102.83,328.23 102.77,330.97 102.56,325.32 					"/>
					<polygon class="st6" points="102.56,325.32 100.83,324.3 100.85,321.61 102.59,322.61 					"/>
				</g>
			</g>
			<g>
				<polygon class="st5" points="108.66,329.51 108.27,329.76 102.76,326.01 102.66,320.45 101.2,319.53 100.83,317.07 
					101.22,316.82 102.95,317.84 103.2,323.46 108.68,326.82 				"/>
				<g>
					<polygon class="st6" points="108.27,329.76 102.75,326.43 102.8,323.71 108.28,327.09 					"/>
					<polygon class="st7" points="102.55,318.09 102.8,323.71 102.75,326.43 102.54,320.78 					"/>
					<polygon class="st6" points="102.54,320.78 100.81,319.76 100.83,317.07 102.55,318.09 					"/>
				</g>
			</g>
			<g>
				<polygon class="st5" points="108.64,325.01 108.24,325.24 102.73,321.48 102.63,315.91 101.19,314.99 100.8,312.55 
					101.19,312.3 102.93,313.31 103.17,318.92 108.65,322.3 				"/>
				<g>
					<polygon class="st6" points="108.24,325.24 102.72,321.91 102.77,319.17 108.25,322.53 					"/>
					<polygon class="st7" points="102.52,313.56 102.77,319.17 102.72,321.91 102.52,316.26 					"/>
					<polygon class="st6" points="102.52,316.26 100.78,315.24 100.8,312.55 102.52,313.56 					"/>
				</g>
			</g>
			<g>
				<polygon class="st5" points="108.62,320.47 108.21,320.7 102.7,316.96 102.61,311.39 101.15,310.45 100.78,308.02 
					101.17,307.77 102.9,308.77 103.15,314.41 108.63,317.76 				"/>
				<g>
					<polygon class="st6" points="108.21,320.7 102.7,317.37 102.75,314.66 108.24,318.02 					"/>
					<polygon class="st7" points="102.5,309.02 102.75,314.66 102.7,317.37 102.48,311.73 					"/>
					<polygon class="st6" points="102.48,311.73 100.76,310.72 100.78,308.02 102.5,309.02 					"/>
				</g>
			</g>
			<g>
				<polygon class="st5" points="108.59,315.94 108.19,316.18 102.69,312.44 102.59,306.86 101.13,305.94 100.75,303.48 
					101.15,303.23 102.87,304.25 103.11,309.87 108.6,313.23 				"/>
				<g>
					<polygon class="st6" points="108.19,316.18 102.66,312.84 102.72,310.12 108.2,313.47 					"/>
					<polygon class="st7" points="102.47,304.5 102.72,310.12 102.67,312.84 102.46,307.21 					"/>
					<polygon class="st6" points="102.46,307.21 100.73,306.18 100.75,303.48 102.47,304.5 					"/>
				</g>
			</g>
			<g>
				<polygon class="st5" points="108.56,311.4 108.16,311.65 102.66,307.91 102.55,302.34 101.11,301.42 100.72,298.96 
					101.12,298.71 102.85,299.73 103.1,305.35 108.58,308.71 				"/>
				<g>
					<polygon class="st6" points="108.16,311.65 102.65,308.32 102.7,305.6 108.17,308.96 					"/>
					<polygon class="st7" points="102.45,299.98 102.7,305.6 102.65,308.32 102.44,302.67 					"/>
					<polygon class="st6" points="102.43,302.67 100.71,301.65 100.72,298.96 102.45,299.98 					"/>
				</g>
			</g>
			<g>
				<polygon class="st5" points="108.53,306.88 108.14,307.12 102.63,303.37 102.52,297.8 101.07,296.88 100.69,294.44 
					101.09,294.17 102.83,295.19 103.08,300.82 108.54,304.17 				"/>
				<g>
					<polygon class="st6" points="108.14,307.12 102.63,303.78 102.66,301.06 108.15,304.44 					"/>
					<polygon class="st7" points="102.42,295.44 102.66,301.06 102.63,303.78 102.41,298.15 					"/>
					<polygon class="st6" points="102.41,298.15 100.68,297.13 100.69,294.44 102.42,295.44 					"/>
				</g>
			</g>
			<g>
				<polygon class="st5" points="108.5,302.36 108.1,302.61 102.61,298.85 102.51,293.28 101.05,292.35 100.67,289.9 101.06,289.65 
					102.8,290.68 103.04,296.3 108.53,299.65 				"/>
				<g>
					<polygon class="st6" points="108.1,302.61 102.59,299.26 102.65,296.53 108.14,299.9 					"/>
					<polygon class="st7" points="102.41,290.91 102.65,296.53 102.59,299.26 102.39,293.61 					"/>
					<polygon class="st6" points="102.39,293.61 100.66,292.6 100.67,289.9 102.41,290.91 					"/>
				</g>
			</g>
			<g>
				<polygon class="st5" points="108.49,297.82 108.09,298.07 102.59,294.31 102.47,288.75 101.03,287.82 100.64,285.37 
					101.04,285.12 102.77,286.12 103.02,291.76 108.49,295.13 				"/>
				<g>
					<polygon class="st6" points="108.09,298.07 102.57,294.73 102.62,292.01 108.1,295.38 					"/>
					<polygon class="st7" points="102.37,286.39 102.62,292.01 102.57,294.73 102.35,289.08 					"/>
					<polygon class="st6" points="102.35,289.08 100.63,288.07 100.64,285.37 102.37,286.39 					"/>
				</g>
			</g>
		</g>
		<g>
			<g>
				<polygon class="st5" points="112.23,345.15 111.82,345.36 112.18,352.02 116.91,355 116.93,356.7 118.83,358.3 119.26,358.1 
					119.29,356.08 114.6,352.98 114.55,346.53 				"/>
				<g>
					<polygon class="st6" points="111.82,345.36 111.83,351.8 114.18,353.18 114.13,346.75 					"/>
					<polygon class="st7" points="118.87,356.31 114.18,353.18 111.83,351.8 116.55,354.92 					"/>
					<polygon class="st6" points="116.55,354.92 116.53,356.94 118.83,358.3 118.87,356.31 					"/>
				</g>
			</g>
			<g>
				<polygon class="st5" points="116.09,347.52 115.67,347.73 116.05,354.39 120.77,357.35 120.81,359.07 122.71,360.68 
					123.12,360.46 123.15,358.44 118.47,355.33 118.42,348.89 				"/>
				<g>
					<polygon class="st6" points="115.67,347.73 115.7,354.18 118.04,355.54 118,349.11 					"/>
					<polygon class="st7" points="122.73,358.66 118.04,355.54 115.7,354.18 120.41,357.28 					"/>
					<polygon class="st6" points="120.41,357.28 120.39,359.29 122.71,360.68 122.73,358.66 					"/>
				</g>
			</g>
			<g>
				<polygon class="st5" points="119.97,349.88 119.55,350.1 119.91,356.75 124.63,359.71 124.67,361.45 126.57,363.03 
					126.98,362.81 127.01,360.82 122.32,357.69 122.27,351.27 				"/>
				<g>
					<polygon class="st6" points="119.55,350.1 119.55,356.55 121.92,357.91 121.86,351.46 					"/>
					<polygon class="st7" points="126.59,361.02 121.92,357.91 119.55,356.55 124.28,359.65 					"/>
					<polygon class="st6" points="124.28,359.65 124.25,361.65 126.57,363.03 126.59,361.02 					"/>
				</g>
			</g>
			<g>
				<polygon class="st5" points="123.82,352.24 123.41,352.45 123.77,359.1 128.49,362.07 128.53,363.79 130.44,365.39 
					130.85,365.19 130.88,363.17 126.19,360.05 126.14,353.62 				"/>
				<g>
					<polygon class="st6" points="123.41,352.45 123.42,358.89 125.77,360.26 125.72,353.84 					"/>
					<polygon class="st7" points="130.46,363.39 125.77,360.26 123.42,358.89 128.14,361.99 					"/>
					<polygon class="st6" points="128.14,361.99 128.12,364.01 130.44,365.39 130.46,363.39 					"/>
				</g>
			</g>
			<g>
				<polygon class="st5" points="127.69,354.61 127.26,354.82 127.64,361.48 132.36,364.44 132.4,366.16 134.3,367.75 
					134.71,367.55 134.74,365.53 130.06,362.42 130.01,355.98 				"/>
				<g>
					<polygon class="st6" points="127.26,354.82 127.29,361.26 129.63,362.64 129.59,356.2 					"/>
					<polygon class="st7" points="134.33,365.75 129.63,362.64 127.29,361.26 132.01,364.37 					"/>
					<polygon class="st6" points="132.01,364.37 131.97,366.38 134.3,367.75 134.33,365.75 					"/>
				</g>
			</g>
			<g>
				<polygon class="st5" points="131.55,356.97 131.14,357.19 131.5,363.84 136.22,366.8 136.26,368.52 138.16,370.12 138.58,369.9 
					138.6,367.91 133.92,364.76 133.87,358.35 				"/>
				<g>
					<polygon class="st6" points="131.14,357.19 131.14,363.64 133.51,365 133.45,358.55 					"/>
					<polygon class="st7" points="138.19,368.1 133.51,365 131.14,363.64 135.86,366.74 					"/>
					<polygon class="st6" points="135.86,366.74 135.84,368.74 138.16,370.12 138.19,368.1 					"/>
				</g>
			</g>
			<g>
				<polygon class="st5" points="135.41,359.33 135,359.54 135.36,366.19 140.08,369.16 140.12,370.88 142.02,372.48 142.45,372.28 
					142.46,370.26 137.78,367.14 137.73,360.71 				"/>
				<g>
					<polygon class="st6" points="135,359.54 135.01,365.99 137.36,367.35 137.31,360.93 					"/>
					<polygon class="st7" points="142.05,370.48 137.36,367.35 135.01,365.99 139.73,369.08 					"/>
					<polygon class="st6" points="139.73,369.08 139.71,371.09 142.02,372.48 142.05,370.48 					"/>
				</g>
			</g>
			<g>
				<polygon class="st5" points="139.28,361.7 138.86,361.9 139.24,368.55 143.95,371.53 143.99,373.25 145.89,374.84 146.3,374.63 
					146.33,372.62 141.64,369.51 141.6,363.06 				"/>
				<g>
					<polygon class="st6" points="138.86,361.9 138.88,368.35 141.23,369.74 141.18,363.29 					"/>
					<polygon class="st7" points="145.91,372.84 141.23,369.71 138.88,368.35 143.6,371.46 					"/>
					<polygon class="st6" points="143.6,371.46 143.57,373.45 145.89,374.84 145.91,372.84 					"/>
				</g>
			</g>
			<g>
				<polygon class="st5" points="143.14,364.06 142.73,364.28 143.09,370.93 147.82,373.89 147.85,375.61 149.74,377.21 
					150.17,376.99 150.19,374.99 145.51,371.87 145.46,365.44 				"/>
				<g>
					<polygon class="st6" points="142.73,364.28 142.74,370.73 145.1,372.09 145.04,365.64 					"/>
					<polygon class="st7" points="149.77,375.19 145.1,372.09 142.74,370.73 147.45,373.81 					"/>
					<polygon class="st6" points="147.45,373.81 147.43,375.83 149.74,377.21 149.77,375.19 					"/>
				</g>
			</g>
			<g>
				<polygon class="st5" points="147,366.42 146.59,366.63 146.96,373.3 151.67,376.25 151.71,377.96 153.61,379.56 154.03,379.35 
					154.05,377.35 149.37,374.22 149.33,367.8 				"/>
				<g>
					<polygon class="st6" points="146.59,366.63 146.6,373.08 148.95,374.44 148.91,368.02 					"/>
					<polygon class="st7" points="153.64,377.57 148.95,374.44 146.6,373.08 151.32,376.19 					"/>
					<polygon class="st6" points="151.32,376.19 151.31,378.18 153.61,379.56 153.64,377.57 					"/>
				</g>
			</g>
		</g>
		<polygon class="st8" points="110.06,292.96 109.94,339.03 113.12,344.68 152.58,368.32 157.47,365.58 157.39,319.97 153.9,313.77 
			114.93,290.23 		"/>
		<polygon class="st9" points="107.39,294.47 107.27,340.53 110.45,346.18 149.91,369.85 154.8,367.1 154.72,321.47 151.23,315.29 
			112.26,291.73 		"/>
		<polygon class="st8" points="106.43,295.03 106.3,341.08 109.48,346.73 148.93,370.38 153.82,367.63 153.75,322.02 150.26,315.83 
			111.29,292.28 		"/>
		<polygon class="st5" points="147.79,307.57 147.81,314.02 149.82,315.6 150.16,315.4 150.12,309.21 154.27,301.89 154.32,299.6 
			152,298.22 151.66,298.41 151.98,300.23 147.81,307.57 		"/>
		<polygon class="st7" points="151.63,300.43 147.45,307.79 149.77,309.15 153.95,301.81 		"/>
		<polygon class="st6" points="151.66,298.41 151.63,300.43 153.95,301.81 153.98,299.81 		"/>
		<polygon class="st5" points="143.9,305.19 143.91,311.65 145.93,313.22 146.27,313 146.22,306.83 150.38,299.52 150.43,297.22 
			148.11,295.86 147.77,296.06 148.08,297.85 143.91,305.19 		"/>
		<polygon class="st7" points="147.74,298.05 143.56,305.41 145.87,306.79 150.06,299.44 		"/>
		<polygon class="st6" points="147.77,296.06 147.74,298.05 150.06,299.44 150.08,297.44 		"/>
		<polygon class="st5" points="140,302.84 140.02,309.29 142.04,310.86 142.37,310.65 142.34,304.48 146.48,297.14 146.52,294.87 
			144.21,293.48 143.88,293.68 144.19,295.5 140.02,302.84 		"/>
		<polygon class="st7" points="143.85,295.7 139.68,303.05 141.98,304.42 146.16,297.08 		"/>
		<polygon class="st6" points="143.88,293.68 143.85,295.7 146.16,297.08 146.19,295.08 		"/>
		<polygon class="st5" points="136.12,300.46 136.13,306.91 138.14,308.48 138.48,308.27 138.43,302.11 142.59,294.8 142.63,292.5 
			140.32,291.12 139.97,291.32 140.3,293.12 136.13,300.46 		"/>
		<polygon class="st7" points="139.96,293.33 135.79,300.7 138.09,302.06 142.27,294.7 		"/>
		<polygon class="st6" points="139.97,291.32 139.96,293.33 142.27,294.7 142.3,292.7 		"/>
		<polygon class="st5" points="132.23,298.1 132.24,304.55 134.24,306.11 134.58,305.91 134.54,299.74 138.7,292.42 138.74,290.13 
			136.43,288.75 136.08,288.96 136.41,290.77 132.24,298.1 		"/>
		<polygon class="st7" points="136.07,290.96 131.89,298.3 134.2,299.68 138.38,292.34 		"/>
		<polygon class="st6" points="136.08,288.96 136.07,290.96 138.38,292.34 138.4,290.33 		"/>
		<polygon class="st5" points="128.33,295.74 128.34,302.18 130.35,303.75 130.69,303.55 130.65,297.36 134.81,290.05 
			134.84,287.75 132.53,286.38 132.19,286.59 132.51,288.39 128.33,295.75 		"/>
		<polygon class="st7" points="132.16,288.6 127.99,295.95 130.31,297.32 134.48,289.98 		"/>
		<polygon class="st6" points="132.19,286.59 132.16,288.6 134.48,289.98 134.51,287.96 		"/>
		<polygon class="st5" points="124.44,293.37 124.44,299.82 126.46,301.39 126.79,301.17 126.76,295.02 130.91,287.67 
			130.96,285.39 128.64,284.03 128.29,284.23 128.62,286.02 124.44,293.37 		"/>
		<polygon class="st7" points="128.27,286.23 124.1,293.59 126.42,294.95 130.59,287.61 		"/>
		<polygon class="st6" points="128.29,284.23 128.27,286.23 130.59,287.61 130.62,285.59 		"/>
		<polygon class="st5" points="120.55,290.99 120.56,297.46 122.56,299.01 122.9,298.82 122.86,292.64 127.01,285.31 127.07,283.03 
			124.74,281.65 124.4,281.85 124.72,283.67 120.56,291.01 		"/>
		<polygon class="st7" points="124.38,283.85 120.2,291.21 122.51,292.57 126.69,285.23 		"/>
		<polygon class="st6" points="124.4,281.85 124.38,283.85 126.69,285.23 126.72,283.23 		"/>
		<polygon class="st5" points="116.64,288.63 116.65,295.08 118.67,296.64 119.01,296.44 118.97,290.27 123.12,282.95 
			123.17,280.66 120.84,279.3 120.52,279.49 120.83,281.29 116.65,288.63 		"/>
		<polygon class="st7" points="120.48,281.49 116.31,288.86 118.62,290.23 122.8,282.87 		"/>
		<polygon class="st6" points="120.52,279.49 120.48,281.49 122.8,282.87 122.83,280.87 		"/>
		<polygon class="st5" points="112.75,286.25 112.76,292.71 114.79,294.28 115.12,294.08 115.08,287.91 119.23,280.58 119.27,278.3 
			116.96,276.9 116.62,277.12 116.93,278.92 112.75,286.27 		"/>
		<g>
			
				<linearGradient id="SVGID_1_" gradientUnits="userSpaceOnUse" x1="2357.7388" y1="314.7738" x2="2354.2954" y2="308.5618" gradientTransform="matrix(-1 0 0 1 2504.6602 0)">
				<stop  offset="0" style="stop-color:#E6E7E8"/>
				<stop  offset="0.45" style="stop-color:#E6E7E8"/>
				<stop  offset="0.64" style="stop-color:#FFFFFF"/>
				<stop  offset="1" style="stop-color:#FFFFFF"/>
			</linearGradient>
			<polygon class="st10" points="147.45,307.77 147.45,314.22 149.82,315.6 149.77,309.15 			"/>
			
				<linearGradient id="SVGID_2_" gradientUnits="userSpaceOnUse" x1="2361.6223" y1="312.3903" x2="2358.1912" y2="306.2005" gradientTransform="matrix(-1 0 0 1 2504.6602 0)">
				<stop  offset="0" style="stop-color:#E6E7E8"/>
				<stop  offset="0.45" style="stop-color:#E6E7E8"/>
				<stop  offset="0.64" style="stop-color:#FFFFFF"/>
				<stop  offset="1" style="stop-color:#FFFFFF"/>
			</linearGradient>
			<polygon class="st11" points="143.56,305.41 143.57,311.86 145.93,313.22 145.87,306.79 			"/>
			
				<linearGradient id="SVGID_3_" gradientUnits="userSpaceOnUse" x1="2365.5095" y1="310.0298" x2="2362.0757" y2="303.8347" gradientTransform="matrix(-1 0 0 1 2504.6602 0)">
				<stop  offset="0" style="stop-color:#E6E7E8"/>
				<stop  offset="0.45" style="stop-color:#E6E7E8"/>
				<stop  offset="0.64" style="stop-color:#FFFFFF"/>
				<stop  offset="1" style="stop-color:#FFFFFF"/>
			</linearGradient>
			<polygon class="st12" points="139.68,303.05 139.68,309.49 142.04,310.86 141.98,304.42 			"/>
			
				<linearGradient id="SVGID_4_" gradientUnits="userSpaceOnUse" x1="2369.4136" y1="307.648" x2="2365.9814" y2="301.4561" gradientTransform="matrix(-1 0 0 1 2504.6602 0)">
				<stop  offset="0" style="stop-color:#E6E7E8"/>
				<stop  offset="0.45" style="stop-color:#E6E7E8"/>
				<stop  offset="0.64" style="stop-color:#FFFFFF"/>
				<stop  offset="1" style="stop-color:#FFFFFF"/>
			</linearGradient>
			<polygon class="st13" points="135.76,300.67 135.79,307.12 138.14,308.48 138.09,302.06 			"/>
			
				<linearGradient id="SVGID_5_" gradientUnits="userSpaceOnUse" x1="2373.3047" y1="305.2872" x2="2369.8706" y2="299.0916" gradientTransform="matrix(-1 0 0 1 2504.6602 0)">
				<stop  offset="0" style="stop-color:#E6E7E8"/>
				<stop  offset="0.45" style="stop-color:#E6E7E8"/>
				<stop  offset="0.64" style="stop-color:#FFFFFF"/>
				<stop  offset="1" style="stop-color:#FFFFFF"/>
			</linearGradient>
			<polygon class="st14" points="131.88,298.3 131.89,304.75 134.24,306.11 134.2,299.68 			"/>
			
				<linearGradient id="SVGID_6_" gradientUnits="userSpaceOnUse" x1="2377.1978" y1="302.9216" x2="2373.7563" y2="296.7133" gradientTransform="matrix(-1 0 0 1 2504.6602 0)">
				<stop  offset="0" style="stop-color:#E6E7E8"/>
				<stop  offset="0.45" style="stop-color:#E6E7E8"/>
				<stop  offset="0.64" style="stop-color:#FFFFFF"/>
				<stop  offset="1" style="stop-color:#FFFFFF"/>
			</linearGradient>
			<polygon class="st15" points="127.99,295.92 128,302.39 130.35,303.75 130.31,297.32 			"/>
			
				<linearGradient id="SVGID_7_" gradientUnits="userSpaceOnUse" x1="2381.093" y1="300.5611" x2="2377.6577" y2="294.3635" gradientTransform="matrix(-1 0 0 1 2504.6602 0)">
				<stop  offset="0" style="stop-color:#E6E7E8"/>
				<stop  offset="0.45" style="stop-color:#E6E7E8"/>
				<stop  offset="0.64" style="stop-color:#FFFFFF"/>
				<stop  offset="1" style="stop-color:#FFFFFF"/>
			</linearGradient>
			<polygon class="st16" points="124.09,293.58 124.1,300.01 126.46,301.39 126.42,294.95 			"/>
			
				<linearGradient id="SVGID_8_" gradientUnits="userSpaceOnUse" x1="2384.9897" y1="298.1809" x2="2381.5552" y2="291.9846" gradientTransform="matrix(-1 0 0 1 2504.6602 0)">
				<stop  offset="0" style="stop-color:#E6E7E8"/>
				<stop  offset="0.45" style="stop-color:#E6E7E8"/>
				<stop  offset="0.64" style="stop-color:#FFFFFF"/>
				<stop  offset="1" style="stop-color:#FFFFFF"/>
			</linearGradient>
			<polygon class="st17" points="120.2,291.2 120.21,297.66 122.56,299.01 122.51,292.57 			"/>
			
				<linearGradient id="SVGID_9_" gradientUnits="userSpaceOnUse" x1="2388.8826" y1="295.8146" x2="2385.4507" y2="289.6233" gradientTransform="matrix(-1 0 0 1 2504.6602 0)">
				<stop  offset="0" style="stop-color:#E6E7E8"/>
				<stop  offset="0.45" style="stop-color:#E6E7E8"/>
				<stop  offset="0.64" style="stop-color:#FFFFFF"/>
				<stop  offset="1" style="stop-color:#FFFFFF"/>
			</linearGradient>
			<polygon class="st18" points="116.3,288.83 116.31,295.28 118.67,296.64 118.62,290.23 			"/>
			
				<linearGradient id="SVGID_10_" gradientUnits="userSpaceOnUse" x1="2392.7666" y1="293.4491" x2="2389.3372" y2="287.2621" gradientTransform="matrix(-1 0 0 1 2504.6602 0)">
				<stop  offset="0" style="stop-color:#E6E7E8"/>
				<stop  offset="0.45" style="stop-color:#E6E7E8"/>
				<stop  offset="0.64" style="stop-color:#FFFFFF"/>
				<stop  offset="1" style="stop-color:#FFFFFF"/>
			</linearGradient>
			<polygon class="st19" points="112.41,286.47 112.42,292.92 114.79,294.28 114.73,287.85 			"/>
		</g>
		<polygon class="st7" points="116.59,279.13 112.42,286.48 114.73,287.85 118.91,280.51 		"/>
		<polygon class="st6" points="116.62,277.12 116.59,279.13 118.91,280.51 118.94,278.5 		"/>
		<g>
			<polygon class="st5" points="159.52,328.32 154,325.01 153.71,322.45 154.05,322.28 159.32,325.51 167.73,325.73 169.71,326.87 
				169.7,329.58 169.34,329.75 167.96,328.56 159.52,328.32 			"/>
			
				<linearGradient id="SVGID_11_" gradientUnits="userSpaceOnUse" x1="2351.8582" y1="325.3004" x2="2344.5776" y2="325.6819" gradientTransform="matrix(-1 0 0 1 2504.6602 0)">
				<stop  offset="0" style="stop-color:#E6E7E8"/>
				<stop  offset="0.45" style="stop-color:#E6E7E8"/>
				<stop  offset="0.64" style="stop-color:#FFFFFF"/>
				<stop  offset="1" style="stop-color:#FFFFFF"/>
			</linearGradient>
			<polygon class="st20" points="159.17,328.53 153.65,325.18 153.71,322.45 159.18,325.84 			"/>
			<polygon class="st7" points="167.62,328.75 159.15,328.53 159.18,325.84 167.63,326.04 			"/>
			<polygon class="st6" points="169.34,329.75 167.62,328.75 167.63,326.04 169.36,327.06 			"/>
			<polygon class="st5" points="159.52,332.9 154.03,329.55 153.72,327.01 154.06,326.84 159.33,330.06 167.73,330.3 169.72,331.44 
				169.71,334.13 169.36,334.3 167.98,333.1 159.52,332.88 			"/>
			
				<linearGradient id="SVGID_12_" gradientUnits="userSpaceOnUse" x1="2351.854" y1="329.8555" x2="2344.5688" y2="330.2373" gradientTransform="matrix(-1 0 0 1 2504.6602 0)">
				<stop  offset="0" style="stop-color:#E6E7E8"/>
				<stop  offset="0.45" style="stop-color:#E6E7E8"/>
				<stop  offset="0.64" style="stop-color:#FFFFFF"/>
				<stop  offset="1" style="stop-color:#FFFFFF"/>
			</linearGradient>
			<polygon class="st21" points="159.18,333.08 153.66,329.73 153.72,327.01 159.19,330.37 			"/>
			<polygon class="st7" points="167.62,333.3 159.17,333.07 159.19,330.37 167.64,330.61 			"/>
			<polygon class="st6" points="169.36,334.3 167.63,333.3 167.64,330.61 169.37,331.63 			"/>
			<polygon class="st5" points="159.55,337.45 154.03,334.1 153.72,331.58 154.08,331.38 159.34,334.62 167.76,334.85 
				169.73,335.99 169.72,338.69 169.37,338.87 168,337.67 159.55,337.45 			"/>
			
				<linearGradient id="SVGID_13_" gradientUnits="userSpaceOnUse" x1="2351.8464" y1="334.4182" x2="2344.5527" y2="334.8004" gradientTransform="matrix(-1 0 0 1 2504.6602 0)">
				<stop  offset="0" style="stop-color:#E6E7E8"/>
				<stop  offset="0.45" style="stop-color:#E6E7E8"/>
				<stop  offset="0.64" style="stop-color:#FFFFFF"/>
				<stop  offset="1" style="stop-color:#FFFFFF"/>
			</linearGradient>
			<polygon class="st22" points="159.19,337.64 153.68,334.3 153.72,331.58 159.22,334.93 			"/>
			<polygon class="st7" points="167.64,337.86 159.18,337.64 159.22,334.93 167.65,335.15 			"/>
			<polygon class="st6" points="169.37,338.87 167.64,337.86 167.65,335.15 169.38,336.17 			"/>
			<polygon class="st5" points="159.56,342.01 154.04,338.67 153.74,336.14 154.09,335.95 159.35,339.17 167.77,339.39 
				169.76,340.55 169.73,343.24 169.38,343.41 168.01,342.22 159.56,342.01 			"/>
			
				<linearGradient id="SVGID_14_" gradientUnits="userSpaceOnUse" x1="2351.8318" y1="338.9729" x2="2344.5291" y2="339.3556" gradientTransform="matrix(-1 0 0 1 2504.6602 0)">
				<stop  offset="0" style="stop-color:#E6E7E8"/>
				<stop  offset="0.45" style="stop-color:#E6E7E8"/>
				<stop  offset="0.64" style="stop-color:#FFFFFF"/>
				<stop  offset="1" style="stop-color:#FFFFFF"/>
			</linearGradient>
			<polygon class="st23" points="159.22,342.19 153.7,338.86 153.74,336.14 159.23,339.5 			"/>
			<polygon class="st7" points="167.65,342.4 159.19,342.19 159.23,339.5 167.67,339.72 			"/>
			<polygon class="st6" points="169.38,343.41 167.65,342.4 167.67,339.72 169.39,340.74 			"/>
			<polygon class="st5" points="159.57,346.58 154.05,343.23 153.76,340.69 154.1,340.5 159.37,343.73 167.8,343.95 169.77,345.1 
				169.76,347.8 169.39,347.98 168.02,346.78 159.57,346.56 			"/>
			
				<linearGradient id="SVGID_15_" gradientUnits="userSpaceOnUse" x1="2351.8169" y1="343.5279" x2="2344.5227" y2="343.9102" gradientTransform="matrix(-1 0 0 1 2504.6602 0)">
				<stop  offset="0" style="stop-color:#E6E7E8"/>
				<stop  offset="0.45" style="stop-color:#E6E7E8"/>
				<stop  offset="0.64" style="stop-color:#FFFFFF"/>
				<stop  offset="1" style="stop-color:#FFFFFF"/>
			</linearGradient>
			<polygon class="st24" points="159.23,346.75 153.71,343.41 153.76,340.69 159.23,344.06 			"/>
			<polygon class="st7" points="167.67,346.97 159.22,346.75 159.23,344.06 167.68,344.27 			"/>
			<polygon class="st6" points="169.39,347.98 167.67,346.97 167.68,344.27 169.42,345.29 			"/>
			<polygon class="st5" points="159.59,351.12 154.08,347.78 153.78,345.25 154.12,345.06 159.38,348.28 167.8,348.52 
				169.78,349.66 169.77,352.37 169.42,352.54 168.02,351.33 159.59,351.12 			"/>
			
				<linearGradient id="SVGID_16_" gradientUnits="userSpaceOnUse" x1="2351.7888" y1="348.0835" x2="2344.5166" y2="348.4646" gradientTransform="matrix(-1 0 0 1 2504.6602 0)">
				<stop  offset="0" style="stop-color:#E6E7E8"/>
				<stop  offset="0.45" style="stop-color:#E6E7E8"/>
				<stop  offset="0.64" style="stop-color:#FFFFFF"/>
				<stop  offset="1" style="stop-color:#FFFFFF"/>
			</linearGradient>
			<polygon class="st25" points="159.23,351.3 153.72,347.97 153.78,345.25 159.25,348.6 			"/>
			<polygon class="st7" points="167.68,351.52 159.23,351.3 159.25,348.6 167.71,348.83 			"/>
			<polygon class="st6" points="169.42,352.54 167.68,351.52 167.71,348.83 169.43,349.85 			"/>
			<polygon class="st5" points="159.6,355.67 154.08,352.34 153.78,349.8 154.13,349.61 159.39,352.85 167.82,353.07 169.8,354.21 
				169.78,356.91 169.43,357.09 168.05,355.89 159.6,355.67 			"/>
			
				<linearGradient id="SVGID_17_" gradientUnits="userSpaceOnUse" x1="2351.7925" y1="352.6458" x2="2344.4995" y2="353.028" gradientTransform="matrix(-1 0 0 1 2504.6602 0)">
				<stop  offset="0" style="stop-color:#E6E7E8"/>
				<stop  offset="0.45" style="stop-color:#E6E7E8"/>
				<stop  offset="0.64" style="stop-color:#FFFFFF"/>
				<stop  offset="1" style="stop-color:#FFFFFF"/>
			</linearGradient>
			<polygon class="st26" points="159.25,355.87 153.74,352.52 153.78,349.8 159.27,353.17 			"/>
			<polygon class="st7" points="167.69,356.08 159.24,355.86 159.27,353.17 167.72,353.38 			"/>
			<polygon class="st6" points="169.43,357.09 167.71,356.08 167.72,353.38 169.44,354.4 			"/>
			<polygon class="st5" points="159.62,360.24 154.1,356.89 153.79,354.37 154.14,354.17 159.4,357.39 167.83,357.63 169.81,358.77 
				169.78,361.46 169.44,361.65 168.06,360.46 159.62,360.22 			"/>
			
				<linearGradient id="SVGID_18_" gradientUnits="userSpaceOnUse" x1="2351.7732" y1="357.2089" x2="2344.4834" y2="357.5909" gradientTransform="matrix(-1 0 0 1 2504.6602 0)">
				<stop  offset="0" style="stop-color:#E6E7E8"/>
				<stop  offset="0.45" style="stop-color:#E6E7E8"/>
				<stop  offset="0.64" style="stop-color:#FFFFFF"/>
				<stop  offset="1" style="stop-color:#FFFFFF"/>
			</linearGradient>
			<polygon class="st27" points="159.27,360.43 153.75,357.08 153.79,354.37 159.28,357.72 			"/>
			<polygon class="st7" points="167.72,360.63 159.25,360.41 159.28,357.72 167.73,357.96 			"/>
			<polygon class="st6" points="169.44,361.65 167.72,360.63 167.73,357.96 169.46,358.96 			"/>
			<polygon class="st5" points="159.63,364.8 154.11,361.45 153.81,358.91 154.16,358.74 159.43,361.96 167.83,362.18 
				169.82,363.34 169.81,366.02 169.46,366.22 168.08,365 159.63,364.8 			"/>
			
				<linearGradient id="SVGID_19_" gradientUnits="userSpaceOnUse" x1="2351.762" y1="361.7561" x2="2344.4758" y2="362.138" gradientTransform="matrix(-1 0 0 1 2504.6602 0)">
				<stop  offset="0" style="stop-color:#E6E7E8"/>
				<stop  offset="0.45" style="stop-color:#E6E7E8"/>
				<stop  offset="0.64" style="stop-color:#FFFFFF"/>
				<stop  offset="1" style="stop-color:#FFFFFF"/>
			</linearGradient>
			<polygon class="st28" points="159.27,364.98 153.76,361.65 153.81,358.91 159.29,362.28 			"/>
			<polygon class="st7" points="167.73,365.2 159.27,364.97 159.29,362.28 167.73,362.49 			"/>
			<polygon class="st6" points="169.46,366.22 167.73,365.19 167.73,362.49 169.47,363.51 			"/>
			<polygon class="st5" points="159.63,369.35 154.12,366.02 153.83,363.46 154.18,363.29 159.44,366.5 167.86,366.75 
				169.83,367.88 169.82,370.59 169.47,370.77 168.09,369.57 159.63,369.35 			"/>
			
				<linearGradient id="SVGID_20_" gradientUnits="userSpaceOnUse" x1="2351.7317" y1="366.3038" x2="2344.4724" y2="366.6843" gradientTransform="matrix(-1 0 0 1 2504.6602 0)">
				<stop  offset="0" style="stop-color:#E6E7E8"/>
				<stop  offset="0.45" style="stop-color:#E6E7E8"/>
				<stop  offset="0.64" style="stop-color:#FFFFFF"/>
				<stop  offset="1" style="stop-color:#FFFFFF"/>
			</linearGradient>
			<polygon class="st29" points="159.28,369.52 153.78,366.19 153.83,363.46 159.3,366.85 			"/>
			<polygon class="st7" points="167.73,369.76 159.28,369.52 159.3,366.85 167.76,367.06 			"/>
			<polygon class="st6" points="169.47,370.77 167.73,369.76 167.76,367.06 169.48,368.07 			"/>
		</g>
		<polygon class="st30" points="112.2,309.59 112.11,339.14 114.15,342.76 139.47,357.92 142.59,356.14 142.54,326.9 140.31,322.92 
			115.31,307.8 		"/>
		<polygon class="st31" points="114.55,313.23 114.48,338.17 116.2,341.21 137.55,354.01 140.2,352.52 140.17,327.84 138.27,324.49 
			117.18,311.73 		"/>
	</g>
</g>
</svg>
