<?xml version="1.0" encoding="utf-8"?>
<!-- Generator: Adobe Illustrator 24.2.3, SVG Export Plug-In . SVG Version: 6.00 Build 0)  -->
<svg version="1.1" id="Layer_1" xmlns="http://www.w3.org/2000/svg" xmlns:xlink="http://www.w3.org/1999/xlink" x="0px" y="0px"
	 viewBox="0 0 500 500" style="enable-background:new 0 0 500 500;" xml:space="preserve">
<style type="text/css">
	.st0{fill-rule:evenodd;clip-rule:evenodd;fill:#DB7BAF;}
	.st1{fill-rule:evenodd;clip-rule:evenodd;fill:#F2ADD6;}
	.st2{fill-rule:evenodd;clip-rule:evenodd;fill:#BF5694;}
	.st3{fill:#FF99CC;}
	.st4{fill-rule:evenodd;clip-rule:evenodd;fill:#F7CDE8;}
	.st5{fill-rule:evenodd;clip-rule:evenodd;fill:#939598;}
	.st6{fill-rule:evenodd;clip-rule:evenodd;fill:#E6E7E8;}
	.st7{fill-rule:evenodd;clip-rule:evenodd;fill:#D1D3D4;}
	.st8{fill-rule:evenodd;clip-rule:evenodd;fill:#D6D6D6;}
	.st9{fill-rule:evenodd;clip-rule:evenodd;fill:#414042;}
	.st10{fill-rule:evenodd;clip-rule:evenodd;fill:url(#SVGID_1_);}
	.st11{fill-rule:evenodd;clip-rule:evenodd;fill:url(#SVGID_2_);}
	.st12{fill-rule:evenodd;clip-rule:evenodd;fill:url(#SVGID_3_);}
	.st13{fill-rule:evenodd;clip-rule:evenodd;fill:url(#SVGID_4_);}
	.st14{fill-rule:evenodd;clip-rule:evenodd;fill:url(#SVGID_5_);}
	.st15{fill-rule:evenodd;clip-rule:evenodd;fill:url(#SVGID_6_);}
	.st16{fill-rule:evenodd;clip-rule:evenodd;fill:url(#SVGID_7_);}
	.st17{fill-rule:evenodd;clip-rule:evenodd;fill:url(#SVGID_8_);}
	.st18{fill-rule:evenodd;clip-rule:evenodd;fill:url(#SVGID_9_);}
	.st19{fill-rule:evenodd;clip-rule:evenodd;fill:url(#SVGID_10_);}
	.st20{fill-rule:evenodd;clip-rule:evenodd;fill:url(#SVGID_11_);}
	.st21{fill-rule:evenodd;clip-rule:evenodd;fill:url(#SVGID_12_);}
	.st22{fill-rule:evenodd;clip-rule:evenodd;fill:url(#SVGID_13_);}
	.st23{fill-rule:evenodd;clip-rule:evenodd;fill:url(#SVGID_14_);}
	.st24{fill-rule:evenodd;clip-rule:evenodd;fill:url(#SVGID_15_);}
	.st25{fill-rule:evenodd;clip-rule:evenodd;fill:url(#SVGID_16_);}
	.st26{fill-rule:evenodd;clip-rule:evenodd;fill:url(#SVGID_17_);}
	.st27{fill-rule:evenodd;clip-rule:evenodd;fill:url(#SVGID_18_);}
	.st28{fill-rule:evenodd;clip-rule:evenodd;fill:url(#SVGID_19_);}
	.st29{fill-rule:evenodd;clip-rule:evenodd;fill:url(#SVGID_20_);}
	.st30{fill-rule:evenodd;clip-rule:evenodd;fill:#75C5F0;}
	.st31{fill-rule:evenodd;clip-rule:evenodd;fill:#F99F3C;}
</style>
<g>
	<g>
		<path class="st0" d="M347,230.3c-21.7,63.3-95.1,103.6-156.4,121.4c-20.7,8.1-52.9,7.2-70.9-18.7c-14.3-4.2-15.8-13.7-15-19.3
			c-6.3-6.2-6-10.3-1-20.1c-3.2-17.5-3.8-36.9,17-65.6c-1.1-5.8-0.3-11.8,10.7-19.2c-2.5-3.5-1.8-7.7,9.9-14.2
			c0.5-9.4,2.5-18.4,23.5-25.9c6.8-14.2,21.5-24.5,44.1-30c4.7-6.2,9.8-8.7,23.3-9.1c11.7-7.4,18.2-11.3,36.4-6.1
			c15.7-4.1,38.2-0.4,46.9,13.4C335.6,168.9,358.6,196.7,347,230.3z"/>
		<path class="st0" d="M347,230.3c-21.7,63.3-95.1,103.6-156.4,121.4c-12.8,3.7-28.8,7.2-44.3,1.3c-0.1-0.3-1.4-6.6-1.6-6.9
			c-4.7-6.3-7.1-16.2-2.5-23c0.3-0.3-4.5-4.8,3.1-18.8c8.6-24.6,17.2-54.9,25.7-59.6c8.5-15.7,18.8-37.2,29-41.1
			c4-4.8,9.4-13.4,19.6-21.5c1.7-4.2,7.6-10.9,18.5-16.7c7.6-8.4,15.3-16.3,24.8-17.3c8.5-8.1,16.1-11.9,22.3-10.4
			c1.1-0.4,2.1-0.8,3.2-1.1c7.4-2.4,14.9-2.6,22.5-1.1C343.2,155.6,358.6,196.6,347,230.3z"/>
	</g>
	<g>
		<path class="st1" d="M347,230.3c-17.3,50.4-67.2,86.1-117.8,107.6c-8.9,3.4-17.8,6.3-26.4,8.9c-20.7,8.1-57.9,4.5-75.9-21.4
			c-15.7-9-7.6-26.3-6.7-31.8c0.1-1.4-4.9-6.2,0-15.9c-11.2-2-11.1-27.2,9.7-55.9c-1.1-5.8,2.6-10.4,13.6-17.7
			c-2.5-3.5-2.5-14,9.2-20.5c0.5-9.4,5.5-14.3,24.2-19.6c4.5-9.4,12.6-17.2,24.1-22.9c2.5-0.8,5.1-1.5,7.8-2.2
			c0.4-0.6,0.9-1.2,1.4-1.7c5.9-6.9,13.9-7.2,21.9-7.4c2.8-1.8,5.4-3.4,7.9-4.7c6.1-5,14.9-5.3,28.6-1.4
			c15.7-4.1,38.2-0.4,46.9,13.4C335.6,168.9,358.6,196.7,347,230.3z"/>
		<path class="st2" d="M347,230.3c-17.3,50.4-67.2,86.1-117.8,107.6c-8.9,3.4-17.8,6.3-26.4,8.9c-17.7,6.9-43.7,7.2-62.2-8.9
			c-1.4-5-1.3-10.4,1.6-14.6c0.3-0.3-4.5-4.8,3.1-18.8c8.6-24.6,17.2-54.9,25.7-59.6c8.5-15.7,18.8-37.2,29-41.1
			c4-4.8,9.4-13.4,19.6-21.5c1.7-4.2,7.6-10.9,18.5-16.7c7.6-8.4,15.3-16.3,24.8-17.3c8.5-8.1,16.1-11.9,22.3-10.4
			c1-0.4,2.1-0.8,3.2-1.1c7.4-2.4,14.9-2.6,22.5-1.1C343.2,155.6,358.6,196.6,347,230.3z"/>
	</g>
	<path class="st0" d="M396.1,261.2c0.4,8.1-2.5,21.6-14.4,27.3c-4,18.9-25.4,35.9-39.1,36c-1,4.6-5.3,8.4-9.2,5.8
		c-5.4,12.2-26.1,19.3-35.5,18c-2,4.1-4.5,5.1-7.6,3.2c-8.4,9.4-20.1,12.1-28.8,10.7c-3.2,4.4-8.1,5.8-12.4,4.1
		c-6.1,5.6-13.7,8.3-20.2,6.1c-11,7.4-23,8.9-33,3.4c-19.7,0.2-39.4-13.1-39.3-27.4c-5.2-7.9-7.3-17.6-1.9-28.4
		c1.5-5.4,2.6-10.9,3.4-16.6c-2.1-5.2,1.5-13.4,8-23.1c-1.1-6.5,1.6-13.1,9.3-19.7c9.2-26.6,24.3-46.5,42.4-61.5
		c1.1-7.5,5.2-9.6,9.6-10.4c-1-3.9,2-6.9,9.1-9c-0.3-4,1.2-7.9,13.9-12.2c0.4-3.9,2.1-7.4,12.3-9.2c5.3-10.3,16.5-13,27-15.2
		c3.6-1.5,7.1-2.9,10.7-4.1c10.2-3.3,23.8-4.6,32.5,1.9c7.2,0.2,18.7,5.6,23,14.3c7.1,0.7,10.8,5.7,12.3,11.7
		c3.7,1.5,7.3,5.4,7.7,10.3c5.6,2.7,8.3,7.2,7.9,12.2c4.8,3,8.6,8.8,7.3,14.8C401.6,212.3,402.2,252.8,396.1,261.2z"/>
	<path class="st1" d="M168.5,322.4c-9.3-3.7-8.7-21.2-4.9-24.6c-2-5.2-0.2-13.4,13.8-18c-1-6.5-3.9-14.2,3.9-20.8
		c9.2-26.6,18.3-44.8,36.4-59.9c1.1-7.5,5.2-9.6,9.6-10.4c-1-3.9,2-6.9,9.1-9c-0.3-4,1.2-7.9,13.9-12.2c0.4-3.9,2.1-7.4,12.3-9.2
		c5.3-10.3,16.5-12.9,27-15.2c3.5-1.5,7.1-2.9,10.7-4c10.2-3.3,23.8-4.6,32.5,1.9c7.2,0.2,18.7,5.6,23,14.3
		c7.1,0.7,10.8,5.7,12.3,11.7c3.7,1.5,7.3,5.4,7.7,10.3c5.6,2.7,8.3,7.2,7.9,12.2c4.8,3,8.6,8.8,7.3,14.8c0.7,0.5,1.4,1.3,2,2.1
		c-0.6,6.3-1.8,11.4-3.6,13.9c0.4,8.1-6.1,20.6-18.1,26.3c-4,18.9-8.8,28-35.4,37c-1,4.6-12.5,9.4-16.5,6.9
		c-5.4,12.2-5.6,16-15,14.6c-2,4-25.4,12.5-28.4,10.6c-8.4,9.4-9.2,4.6-17.9,3.1c-2.1,6.6-14.9,14.3-19.2,12.6
		c-6.1,5.6-11,7.4-21.1,2.7c0.6,10.8-17.4,9.9-27.3,4.4C164.6,335.5,169,330.1,168.5,322.4z"/>
	<g>
		<path class="st3" d="M194.3,375.3c-16.4-6.8-25.6-14.5-27.6-23c-1.2-5.2,0.4-10.7,4.7-16.1c-0.9-0.5-1.7-1.3-2.4-2.3
			c-1.8-2.5-2.7-6.4-2.5-9.8c-4,0.2-9.1,0-13-2.8c-0.7-0.5-0.9-1.5-0.4-2.2c0.5-0.7,1.5-0.9,2.2-0.4c3.4,2.4,8.2,2.5,11.9,2.2
			c1-2.3,3.1-4,5.2-5.7c2.9-2.3,5.7-4.5,5.7-8.1l0-1.4c0.1-6.7-0.1-10.6-4.7-12.1c-2.5-0.8-12.4,7.7-17.6,13.6
			c-0.6,0.7-1.6,0.7-2.2,0.1c-0.7-0.6-0.7-1.6-0.2-2.2c0.2-0.2,14.8-16.5,20.9-14.5c7,2.3,6.9,8.8,6.8,15.1l0,1.4
			c0,5.1-3.7,8-6.9,10.5c-2.1,1.7-4.1,3.2-4.5,5c0,0,0,0.1,0,0.1c-0.6,2.9,0.1,7.1,1.7,9.4c0.8,1.1,1.6,1.7,2.6,1.9c0,0,0,0,0,0
			l0.7,0.1c13.8,2,29.4,4.2,40.3,13.4c1.6,1.3,2.2,3.4,1.7,5.8c-0.9,4.6-5.5,10-9.8,11.3c-3.7,1.2-6.4,0-9.6-1.3
			c-3.4-1.5-7.7-3.3-15.1-2.8c-0.9,0.1-1.6-0.6-1.7-1.4c-0.1-0.9,0.6-1.6,1.4-1.7c8.1-0.5,13,1.5,16.5,3c2.9,1.3,4.9,2.1,7.4,1.2
			c3.1-1,7-5.5,7.7-9c0.4-1.9-0.4-2.6-0.7-2.8c-10.2-8.6-25.3-10.8-38.6-12.7c-4.3,5-5.9,9.9-4.9,14.4c1.7,7.4,10.3,14.4,25.7,20.8
			c0.8,0.3,1.2,1.3,0.8,2c-0.2,0.6-0.8,1-1.4,1C194.7,375.4,194.5,375.4,194.3,375.3z M227.6,373.5c-0.6-0.6-0.5-1.6,0.2-2.2
			c5.6-4.9,9.9-12.5,10-17.7c0-1.7-0.5-3.1-1.4-3.9c0,0,0,0,0,0c-8.3-7.4-14.7-12.1-20.9-15.2c-3.3-1.7-7.5-2.3-11.6-2.9
			c-5.9-0.9-12.1-1.8-15.2-6l-8.2,1.3c-0.9,0.1-1.7-0.4-1.8-1.3c-0.2-0.8,0.4-1.7,1.3-1.8l7.6-1.2c0.2-1.9,1.8-4.1,3.5-6.5
			c2.4-3.3,5.3-7.5,4.3-10.4c0,0,0,0,0-0.1c-0.9-2.4-2.5-4.1-4.1-5.9c-3-3.2-6.3-6.8-5.4-15c0.1-1-0.2-1.4-0.5-1.7
			c-2.1-2.2-10.2-1.6-15.4-1.1c-1.9,0.1-3.7,0.3-5.1,0.3c-0.9,0.1-1.6-0.7-1.6-1.5c0-0.9,0.7-1.6,1.5-1.6c1.4,0,3.1-0.2,4.9-0.3
			c5.3-0.4,11.1-0.9,15,0.4c0.1-0.1,0.1-0.1,0.2-0.1c2.4-2.4,4.4-4.7,6.3-6.9c4-4.6,8-9.3,15.5-15c2.4-1.8,10-8,8.2-13.3
			c0,0,0,0,0-0.1c-4.4-13.2,3.2-19.9,12.1-26.1c1.4-1,1.3-1.8,0.5-5.1c-0.8-2.9-1.8-6.7-0.6-11.6l-12.6-0.6c-0.9,0-1.5-0.8-1.5-1.6
			c0-0.9,0.8-1.5,1.6-1.5l14.6,0.7c0.1,0,0.2,0,0.3,0c0.2,0.1,0.4,0.1,0.5,0.2c0.2,0.1,0.4,0.3,0.5,0.5c0.1,0.2,0.2,0.4,0.2,0.6
			c0,0.2,0,0.4,0,0.5c0,0.1,0,0.2-0.1,0.3c-1.7,5.1-0.7,8.8,0.1,11.8c0.4,1.5,0.8,3.1,0.7,4.5c2.7,0.2,5.4,0.6,8.1,1
			c6.4,1,12.4,1.8,17.8-0.4c0,0,0,0,0.1,0c5-2,8.1-8.8,8.6-14.5c0,0,0,0,0,0c0.5-6.4-1.5-13.7-6.1-21.8c0,0,0,0,0,0
			c-1.3-2.2-4.8-3-7.4-3c0,0-0.1,0-0.1,0c-4.6,0-22.5,3.4-25.7,6.4c-0.6,0.6-1.6,0.5-2.2-0.1c-0.6-0.6-0.6-1.6,0.1-2.2
			c4.4-4.1,23.8-7.2,27.9-7.2c0,0,0.1,0,0.1,0c1.6,0,6.6,0.3,9.3,3.5c8.2-3.3,18.9-2.1,33.7,3.7c0.8,0.3,1.2,1.2,0.9,2
			c-0.3,0.8-1.2,1.2-2,0.9c-5.8-2.3-11-3.8-15.5-4.6c0.4,1.5,0.7,3.1,1,4.7c0.6,3.4,1.1,6.6,3.4,8.2c3.5,2.3,8,2.4,12.8,2.4
			c1.4,0,2.8,0,4.1,0.1c-0.1-0.3-0.1-0.5-0.1-0.8c-0.2-3.9,3.3-9.1,6.4-12.2c-13-9.2-40.8-15.1-62.2-13c-0.9,0.1-1.6-0.5-1.7-1.4
			c-0.1-0.9,0.5-1.6,1.4-1.7c22.7-2.2,51.4,4,64.9,14c4-2.9,10-4.8,14.9-3.4c0.1-0.3,0.3-0.6,0.4-0.9c0.5-1.2,1-2.4,0.7-2.9
			c0,0,0,0,0,0c-9-12.7-21.5-18.4-38-17.7c-0.8,0-1.6-0.6-1.6-1.5c0-0.9,0.6-1.6,1.5-1.6c17.1-0.8,30.2,5,39.8,17.7
			c4-2.5,9.4-1.2,13.7,0.3c1.6-2.6,5.6-4.9,7.8-5.4l1.1-0.3c6-1.4,10.3-2.5,18.4,0.6c0.8,0.3,1.2,1.2,0.9,2c-0.3,0.8-1.2,1.2-2,0.9
			c-7.2-2.7-10.7-1.9-16.6-0.5l-1.1,0.3c-2.4,0.6-5.7,3.3-6,4.2c0,0,0,0.1,0,0.1c18.7,13,25.9,26.3,30.5,37.5c0.5,1.2,1,1.3,1.2,1.4
			c1.7,0.6,5.4-1.7,8.9-4c2.1-1.4,4.3-2.8,6.6-3.9c0.8-0.4,1.7-0.1,2.1,0.7c0.4,0.8,0.1,1.7-0.7,2.1c-2.1,1.1-4.3,2.4-6.3,3.7
			c-0.3,0.2-0.5,0.3-0.7,0.5c6,5.7,8.8,10.7,8.5,15.2c-0.2,2.9-1.7,5.5-4.5,7.8c7.9,6.9,8.9,12.4,8.3,15.9c-0.9,4.8-5.3,8.8-12.2,11
			c-2.2,0.7-5.3,0.1-7.9-1.7c-1.1-0.7-2.1-1.6-2.9-2.5c-0.5,1.5-1.2,3-2.2,4.6c-0.2,0.3-0.4,0.5-0.5,0.8c0.2,0.3,0.4,0.6,0.4,1
			c0,2.3-0.1,4.5-0.3,6.6c0.2,0,0.3,0.1,0.4,0.2c6.2,3.6,10.4,7.9,12.1,18.2c0.1,0.9-0.4,1.7-1.3,1.8c-0.9,0.2-1.7-0.4-1.8-1.3
			c-1.4-8.9-4.7-12.6-9.9-15.7c-2.2,12.8-9.2,22.3-15.4,30.8c-5.4,7.4-10.1,13.9-10.2,20.7c0,0.9-0.6,1.5-1.6,1.5
			c-0.8,0-1.6-0.7-1.5-1.6c0.1-7.9,5.1-14.7,10.8-22.5c7-9.6,14.9-20.4,15.5-35.8c-9.4,12.8-20.3,23-31.4,31.8
			c1.5,9.5-1.2,17-7.5,20.3c-6.2,3.2-14.1,1.2-20.2-5.1c-0.3-0.3-0.4-0.7-0.4-1.1c-0.7-0.2-1.4-0.5-2.1-0.8
			c-0.2-0.1-0.5-0.3-0.7-0.5c-1.7,6.9-5.7,12.1-11.5,15.7c0.6,0.7,1.3,1.4,1.8,2.1c0,0,0.1,0,0.1,0.1c9.6,5.7,20.1,0.7,27.7-2.9
			c4.9-2.3,8.5-4,10.8-2.2c1.6,1.3,1.9,3.8,1,8.4c-0.2,0.8-1,1.4-1.9,1.2c-0.8-0.2-1.4-1-1.2-1.9c0.9-4.6,0.2-5.3,0.1-5.3
			c-0.8-0.6-4.8,1.3-7.5,2.6c-6.8,3.2-16.7,7.9-26.4,4.7c2.2,4.9,2.8,10.7,1.3,15.6c-0.2,0.8-1.1,1.3-1.9,1
			c-0.8-0.2-1.3-1.1-1.1-1.9c2-6.7-0.6-15.4-5.8-20c-3.5,1.7-7.6,2.8-12.3,3.4c2.3,2.8,3.6,5.2,4,7.4l8.8,12.1
			c0.5,0.7,0.4,1.7-0.3,2.2c-0.7,0.5-1.7,0.4-2.2-0.3l-6.9-9.5c-1.5,2.8-5.1,4.7-10.9,5.8c-4.4,2.2-6.7,6.7-7,13.6
			c0,0.8-0.9,1.6-1.6,1.5c-0.8,0-1.5-0.8-1.5-1.6c0.4-8.2,3.4-13.7,9-16.4c0.1-0.1,0.3-0.1,0.4-0.1c5.3-1,8.5-2.7,9.1-4.9
			c0.1-0.5,0.2-1,0.1-1.5c0,0,0,0,0-0.1c-0.2-2.1-1.8-4.7-4.7-7.8c-2.4,0.1-4.9,0.2-7.5,0.1c-3,4.4-6,8.1-9,11
			c-7.7,12.2-8.8,21.2-7.7,24c0.3,0.8-0.1,1.7-0.9,2c-0.8,0.3-1.7-0.1-2-0.9c-1.4-3.4-0.4-10.8,4.2-20.2c-3.7,2.3-7.5,3.4-11.3,3.4
			c0.4,1,0.5,2.1,0.5,3.4c-0.1,6.1-4.7,14.6-11,20c-0.3,0.3-0.7,0.4-1,0.4C228.3,374,227.9,373.8,227.6,373.5z M255.8,339.6
			c3-2.9,6.1-6.7,9.1-11.3c0.3-0.5,0.8-0.8,1.4-0.7c2.8,0.1,5.7,0.1,8.6-0.1c0.1,0,0.2,0,0.3,0c5.2-0.4,10.3-1.5,14.8-3.7
			c0.1-0.1,0.3-0.2,0.4-0.2c6.4-3.3,11.2-9.1,12.3-18.5c-0.3-1.4-0.5-2.9-0.7-4.5c-0.2-2-0.6-5.1-1.6-5.7c-2.7,0.5-5.6,1.5-8.7,2.6
			c-6.3,2.2-13.3,4.7-21.2,3.2c2,3.3,3.7,7,4.8,11.4c0.2,0.7,0.3,1.4,0.3,2c4.2,0.2,9.2-1.4,15.7-5.1c0.7-0.4,1.7-0.2,2.1,0.6
			c0.4,0.8,0.2,1.7-0.6,2.1c-7.1,4-12.8,5.8-17.6,5.5c-0.4,1-1,1.8-1.5,2.3c-3.5,3.4-10.6,2.5-13.8,1.5c-0.2-0.1-0.4-0.1-0.5-0.3
			c-0.3,1.7-1,3.3-2.3,4.8c-2.9,3.4-7.7,5.8-12,6.9l1.1,5.9c0.2,0.8-0.4,1.7-1.3,1.8c-0.8,0.2-1.7-0.4-1.8-1.3l-1.1-5.9
			c-0.4,0.1-0.7,0.1-1.1,0.1c-4.1,0.2-7.3-2.2-10.3-4.6c-2.2-1.7-4.3-3.3-6.7-4c-5.1-1.4-9.5-2.5-15.3-0.3c-0.8,0.3-1.7-0.1-2-0.9
			c-0.3-0.8,0.1-1.7,0.9-2c6.7-2.6,11.8-1.3,17.4,0.2c2.9,0.8,5.3,2.6,7.7,4.5c2.8,2.1,5.3,4.2,8.3,4c4.3-0.2,10.8-2.8,13.9-6.5
			c1.3-1.5,1.8-3,1.6-4.5c-1.7-14.1-11.9-22.6-30.2-25c-0.9-0.1-1.5-0.9-1.3-1.8c0.1-0.9,0.9-1.4,1.8-1.3
			c19.7,2.7,30.8,11.9,32.8,27.4c0.4-0.3,0.9-0.4,1.5-0.3c3.7,1.1,8.7,1.2,10.7-0.7c0.5-0.5,0.8-1.1,0.9-1.9c0,0,0,0,0-0.1
			c0.1-0.7,0-1.5-0.2-2.4c-1.4-5.4-3.7-9.6-6.5-13.5c0,0-0.1,0-0.1-0.1c-0.6-0.2-0.9-0.8-1-1.4c-2-2.5-4.2-5-6.5-7.5
			c-3.3-3.7-6.8-7.5-10-12.2c-0.2-0.3-0.3-0.6-0.3-0.9c-0.1,0-0.1,0.1-0.2,0.1c-5.1,3.1-10.1,2-14.8,0.9c-6.5-1.5-12.6-2.9-20.3,4.8
			c-0.2,0.2-0.3,0.4-0.4,0.5c0,0,0,0.1-0.1,0.1c-1,1.5-0.5,3.7,0.3,6.7c0.7,2.5,1.4,5.4,0.7,8c12.6,2.9,22.7,9.2,28.6,17.9
			c0.5,0.7,0.3,1.7-0.4,2.2c-0.7,0.5-1.7,0.3-2.2-0.4c-5.6-8.2-15.3-14.1-27.5-16.8c-2.6,3.3-6.5,3.9-10.3,4.6
			c-0.9,0.1-1.8,0.3-2.7,0.5c0.4,4-2.6,8.1-5,11.6c-1.2,1.7-3.2,4.5-3,5.2c0,0,0,0,0,0c2.1,3.6,7.7,4.5,13.5,5.4
			c4.3,0.7,8.8,1.3,12.5,3.2c6.4,3.2,13,7.9,21.3,15.4C244,347.6,249.8,345.2,255.8,339.6C255.7,339.7,255.7,339.6,255.8,339.6z
			 M324.8,305.2c-3.1,2.3-8.1,5.4-13,5.9c4.8,4.2,10.6,5.5,15.1,3.2c4.6-2.4,6.8-8,6.1-15.2C330.3,301.1,327.5,303.2,324.8,305.2z
			 M345.9,257c-0.7,6.1-6.2,12.7-11.2,18.6c-2.2,2.7-4.3,5.2-5.7,7.3c-0.5,0.7-1.4,0.9-2.2,0.5c-0.7-0.5-0.9-1.4-0.5-2.2
			c1.4-2.3,3.6-4.9,5.9-7.6c5.5-6.5,12.2-14.6,10.1-20.1l-0.5-1.4c-2.1-5.7-5-13.5-10.7-14.8c-4.5-1-10.6,2.1-18,9.2
			c-6.5,6.3-19.7,10.6-30.5,10.3c4.4,5.9,6.8,11.8,7.1,17.7c0,0,0,0,0.1,0c5.5-2.6,11.1-5.3,17.9-3.7c0.7,0.2,1.4,0.5,2,0.8
			c5.5-8.9,12.5-18.3,24-21.6c0.8-0.2,1.7,0.2,1.9,1.1c0.2,0.8-0.2,1.7-1.1,1.9c-10.7,3.1-17.3,12.2-22.6,20.8
			c1.4,1.9,2.4,4.5,3.3,7.1c1.3,3.3,2.5,6.8,4.7,8c0,0,0,0,0,0c3.7,2.2,9.7-2.3,12.1-4.2c7.6-6.3,14.2-13.9,20.5-21.2
			c3.2-3.7,6.5-7.6,10-11.2c0.6-0.6,1.6-0.7,2.2-0.1c0.6,0.6,0.7,1.6,0.1,2.2c-3.4,3.6-6.7,7.4-9.9,11.1
			c-6.5,7.5-13.1,15.2-20.9,21.6c-3.3,2.7-9.2,6.7-14.1,5.2l-3.5,7.9c-0.4,0.8-1.3,1.1-2.1,0.8c-0.8-0.4-1.2-1.3-0.8-2.1l3.6-8.1
			c-2.3-2-3.6-5.5-4.9-8.8c-1-2.8-2-5.4-3.4-6.9c0-0.1-0.1-0.1-0.1-0.1c-0.6-0.6-1.2-1-1.9-1.2c-5.7-1.3-10.6,1-15.8,3.5
			c-4.8,2.3-9.8,4.7-15.8,4.3c-3.6-0.2-4.9-3.6-6.1-6.7c-0.5-1.3-1-2.6-1.7-3.5c-0.5-0.7-0.3-1.7,0.4-2.2c0.7-0.5,1.7-0.3,2.2,0.4
			c0.8,1.2,1.4,2.7,2,4.2c1.1,2.8,1.9,4.6,3.4,4.7c4.1,0.2,7.6-1,11.2-2.6c0-6.5-2.8-13-8.4-19.6c-4.6-0.8-8.3-2.6-10.9-5.3
			c-6.1-1.1-10.3,0.2-12.8,4c0.7,2.4,0.8,5.2,0.5,8.3c-0.6,5-2.6,9.6-5.3,12.3c0.4,0.1,0.8,0.3,1,0.6c3.1,4.5,6.5,8.2,9.8,11.9
			c2.5,2.8,5,5.5,7.2,8.4c8.4,3.1,15.8,0.5,22.9-2.1c3.2-1.1,6.2-2.2,9.2-2.7c1-0.2,1.9,0,2.6,0.6c1.8,1.4,2.2,4.3,2.6,7.8
			c0.3,2.7,0.8,6.4,2.1,7.1c5,2.8,13.4-2.8,15.8-4.6c15.9-11.6,32.3-25,45.1-44.2c7-10.5-3.5-20.7-7.2-23.9
			C358.6,247.3,351.4,254.6,345.9,257z M209.7,298.5c1.2-2,0.5-4.6-0.2-7.5c-0.6-2.3-1.3-4.8-0.8-7.1l-7.1-0.5
			c-0.8-0.1-1.5-0.8-1.4-1.7c0.1-0.9,0.8-1.5,1.7-1.4l8.4,0.6c0.1-0.1,0.2-0.2,0.3-0.3c8.9-9,16.5-7.2,23.2-5.7
			c4.6,1.1,8.5,2,12.5-0.5c2.8-1.7,5.2-6.4,5.8-11.6c0.4-2.9,0.2-5.5-0.5-7.5c0-0.1,0-0.1-0.1-0.1c-0.4-1.2-1-2.1-1.7-2.8
			c-6.5-6.7-14.8-6.9-23.7-7.1c-2.6-0.1-5.4-0.1-8-0.4c0.2,4.6-3.6,9.1-6.8,12.1c11.1-0.9,19.7,1.2,26.9,6.4
			c0.7,0.5,0.9,1.5,0.4,2.2c-0.5,0.7-1.5,0.8-2.2,0.4c-7.2-5.2-16.1-6.9-28-5.5c-0.4,0-0.7-0.1-1-0.2c-6.5,5.1-10.2,9.3-14,13.7
			c-1.8,2.1-3.7,4.3-6,6.6c0,0.1,0.1,0.1,0.1,0.1c1.1,1.1,1.5,2.6,1.3,4.3c-0.8,6.7,1.7,9.4,4.6,12.5c1.5,1.7,3.1,3.4,4.2,5.7
			c1.1-0.2,2.1-0.4,3.1-0.6C204.5,302,207.8,301.4,209.7,298.5C209.6,298.5,209.6,298.5,209.7,298.5z M384.4,234.8
			c-1.3,6-5.7,12-11.2,13.1c0.1,0.7,0.2,1.4,0.3,2.2c0.4,2.1,1.8,4.1,3.9,5.5c1.8,1.2,4,1.7,5.3,1.3c5.7-1.8,9.4-4.9,10-8.6
			c0.7-4.1-2.1-8.8-8.2-13.8C384.5,234.5,384.5,234.6,384.4,234.8z M331.9,234.2c7.3,1.7,10.6,10.4,13,16.8l0.5,1.4
			c0.2,0.4,0.3,0.8,0.4,1.2c7.7-4.2,18.1-19.3,9.5-47.2c-3.9-12.6-18.8-20-30.8-26l-0.8-0.4c0,0-0.1,0-0.1,0c-4.1-2-10.4,0-14.1,3.1
			c0,0,0,0-0.1,0c-2.9,2.5-6.9,7.9-6.7,11c0,0.7,0.3,1.2,0.8,1.5c0,0,0,0,0,0c8,5.3,13.9,9.1,14.8,17.5c0.3,2.6,2.4,3.5,7.6,5.4
			c5.1,1.9,12.1,4.5,20.4,10.9c7.7-6.2,2.5-18-3.4-27c-2.5-3.8-12.2-10.7-18.1-11.4c-1.4-0.1-2.3,0.1-2.9,0.7
			c-0.2,0.2-0.2,0.3-0.2,0.6c0,2.4,5.4,7.6,9.4,11.3c4.1,3.9,7.6,7.3,8.7,10c0.3,0.8-0.1,1.7-0.9,2c-0.8,0.3-1.7-0.1-2-0.9
			c-0.8-2.1-4.4-5.5-7.9-8.8c-5.3-5.1-10.3-9.8-10.3-13.6c0-1.1,0.4-2.1,1.1-2.8c1.3-1.3,3.1-1.8,5.4-1.5c7,0.7,17.5,8.3,20.4,12.7
			c9.3,14.2,10.3,24.9,3,31c1.2,2.1,1.5,5.2,1.7,7.8c0.1,0.9,0.1,1.7,0.2,2.3c0.1,0.8-0.5,1.6-1.3,1.8c-0.8,0.1-1.7-0.5-1.8-1.3
			c-0.1-0.7-0.2-1.6-0.3-2.5c-0.2-2.4-0.5-6.1-1.8-7.1c0,0,0,0-0.1,0c-8.4-6.6-15.4-9.2-20.5-11.1c-2.6-1-4.8-1.8-6.5-2.9
			c-9.4,15.3-19.4,23.2-29.7,23.5c-10.4,0.3-21.1-7.1-31.8-22c-5.9,2-12.2,1-18.3,0.1c-3-0.4-6.1-0.9-9-1c-0.3,0.3-0.6,0.6-1,0.8
			c-9.6,6.7-14.1,12-11.2,21.6c2.9,0.3,5.9,0.4,8.8,0.5c9,0.2,18.4,0.5,25.8,8c0.4,0.5,0.8,1,1.2,1.5c2.8-3.1,6.7-4.5,11.7-4.2
			c-0.7-1.1-1.3-2.1-1.8-3.2c-4.3-7.6-8.3-14.8-33.2-17c-0.9-0.1-1.5-0.8-1.4-1.7c0.1-0.9,0.8-1.5,1.7-1.4
			c26.6,2.3,31.2,10.6,35.7,18.6c0.9,1.6,1.8,3.2,2.9,4.7c0.2,0.3,0.5,0.7,0.8,1c0,0,0,0,0,0c3,3.4,7.7,4.6,11.3,4.9
			c10.1,1,24-3.3,30.3-9.3c7.1-6.9,13.2-10.3,18.3-10.3C330.3,234,331.1,234,331.9,234.2z M375.4,217.1c7,2.8,9.5,8.5,9.4,13.9
			c2.5-1.9,3.9-3.9,4-6.1c0.3-3.7-2.5-8.1-8.1-13.3c-3,1.8-5.7,2.9-8,2.1c-1.4-0.4-2.5-1.5-3.1-3.2c-4.4-10.8-11.3-23.5-29.4-36.1
			c-0.5-0.4-0.9-0.8-1.1-1.4c-5.4-2-9.3-2.3-11.7-0.8c0.3,1.6-0.4,3.2-1,4.6c-0.1,0.3-0.3,0.6-0.4,0.9c12.5,6.2,27.9,14,32.1,27.7
			c3.1,10.1,3.8,18.7,3.1,25.8c0.3,0,0.5,0.1,0.8,0.3c4.4,3.5,8.4,8.2,10.2,13.2c3.9-0.5,7.8-5,9.1-10.7c0.5-2.4,1.6-10.7-7.1-14.1
			c-0.8-0.3-1.2-1.2-0.9-2c0.2-0.6,0.8-1,1.5-1C375,217,375.2,217,375.4,217.1z M315.2,213.5c-0.8-6.6-5-9.8-13.2-15.1
			c-2.1-0.3-4.3-0.3-6.6-0.3c-5,0-10.2,0-14.5-2.9c-3.4-2.3-4.1-6.3-4.7-10.3c-0.3-1.8-0.6-3.5-1.1-5c-0.1-0.2-0.1-0.4-0.1-0.6
			c-4.7-0.5-8.7-0.1-12.1,1.2c4,7.5,5.9,14.5,5.7,20.8c2.8,0.7,5.9,1.1,8.8,1.4c7.1,0.9,14.5,1.7,19.1,7c3.8,0.6,7.2,1.2,10.1,1.8
			c0.8,0.2,1.4,1,1.2,1.8c-0.2,0.9-1,1.4-1.8,1.2c-2.4-0.5-5.1-1-8.1-1.5c0,0.5-0.1,1-0.4,1.4c-1.9,4.4-11.5,7.4-15.9,7.8
			c-3.4,0.3-5.4-2.7-7.1-5.4c-0.8-1.2-1.5-2.3-2.3-3c-0.6-0.6-0.6-1.6,0-2.2c0.6-0.6,1.6-0.6,2.2,0c1,1,1.9,2.3,2.7,3.6
			c1.6,2.5,2.8,4.1,4.3,3.9c4.6-0.3,12.2-3.4,13.3-5.9c0.2-0.4,0.2-0.7-0.2-1.2c-3.7-4.7-10.4-5.5-17.4-6.3c-2.9-0.4-6-0.7-8.8-1.4
			c-0.9,5.4-3.8,11.5-8.6,14.5c10,13.7,19.7,20.5,28.8,20.2c9.3-0.3,18.5-7.9,27.5-22.7C315.7,215.5,315.3,214.6,315.2,213.5z
			 M120,333.5c-0.5-0.7-0.4-1.7,0.3-2.2c0.8-0.6,1.4-1.6,2-2.7c2.5-4.1,6-9.6,22.6-5.6c0.8,0.2,1.4,1.1,1.1,1.9
			c-0.2,0.8-1.1,1.3-1.9,1.1c-14.4-3.5-17,0.5-19.2,4.2c-0.8,1.3-1.6,2.5-2.8,3.5c-0.3,0.2-0.6,0.4-1,0.4
			C120.7,334.1,120.3,333.9,120,333.5z M104.1,315.1c-0.8-0.4-1.2-1.3-0.8-2c0.3-0.8,1.3-1.2,2-0.9c8.6,3.6,14.4,0.7,21.1-2.7
			c6.1-3.1,12.9-6.6,22.6-4.8c0.8,0.2,1.4,1,1.3,1.8c-0.1,0.8-1,1.4-1.8,1.3c-8.7-1.6-14.8,1.5-20.7,4.6c-4.6,2.3-9.2,4.7-14.9,4.7
			C110.2,317,107.4,316.5,104.1,315.1z M102.5,295.7c-0.5-0.7-0.4-1.7,0.3-2.2c0.7-0.5,1.7-0.4,2.2,0.4c2.8,3.9,6.9,6,9.8,5.3
			c2.7-0.7,3.6-3.6,3.9-5.9c0-0.2,0.1-0.4,0.2-0.6c-0.4-0.9-0.7-1.9-0.9-3.1c-0.8-3.8-0.4-8.2,1.4-10.8c-2.1-1.1-3.9-2.9-5.2-5.2
			c-3-5.4-3.2-12.7-1.7-16.8c2.3-6.4,7.3-10.4,12.1-14.3c2.1-1.7,4.3-3.4,6.2-5.3c0.6-0.6,1.6-0.6,2.2,0c0.6,0.6,0.6,1.6,0,2.2
			c-2.1,2-4.3,3.8-6.4,5.5c-4.7,3.8-9.2,7.3-11.1,12.9c-1.2,3.5-1,9.8,1.5,14.3c1.4,2.4,3.2,4,5.6,4.6c2.8-0.9,10-3.2,10.8-13.1
			c0.8-8.6,4.4-16.5,10-22.6c-4.6-4-5.8-10.4-3.8-18.7c-8.8-0.4-15.1,2.1-17.7,7.2c-0.4,0.8-1.3,1.1-2.1,0.7
			c-0.8-0.4-1.1-1.3-0.7-2.1c3.2-6.4,11-9.6,21.4-8.9c1.2-3.7,3-7.8,5.4-12.2c0.2-0.4,0.4-0.8,0.6-1.2c-3.8-0.6-8.3,0.1-14,4.6
			c-0.7,0.5-1.7,0.4-2.2-0.3c-0.5-0.7-0.4-1.7,0.2-2.2c7.4-5.8,13.1-6.1,17.8-5c4.2-5.6,11.2-9.6,19.4-11.2c-0.9-3.1-0.9-5.8-0.1-8
			c-0.7-0.5-3.3-1.3-7.3-0.8c-3.8,0.4-13.1,2.5-17.6,12.7c-0.3,0.8-1.3,1.1-2.1,0.8c-0.8-0.4-1.1-1.3-0.8-2.1
			c4.5-10.2,14.1-14.2,21.6-14.6c2.7-0.1,5.8,0.2,7.7,1.3c3.1-3.8,8.8-4.6,12-5c0.4-0.1,0.9-0.1,1.2-0.2c2.7-4.8,5.8-8.2,10.8-9.8
			c-8.5-4-16.4-1.8-27.1,3.6c-0.8,0.4-1.7,0.1-2.1-0.7c-0.4-0.8-0.1-1.7,0.7-2.1c11.7-5.8,20.7-8.3,30.5-3.3c-0.2-1-0.5-2-0.7-3
			c-0.5-2.3-1.1-4.6-1.4-6.2c-0.1-0.3-0.1-0.7,0.1-1c2.2-5.1,5-8.3,8.5-9.7c5.4-2.1,11.1,0.4,16.2,2.7c1,0.4,2,0.9,2.9,1.3l2.9,1.2
			c8.4,3.5,13.3,5.3,15.3,2.6c0.3-0.4,0.7-0.8,1.1-1.3c1.1-1.2,2.4-2.7,2-3.6c-0.2-0.7-1.7-2.5-10.3-4.1c-0.8-0.2-1.4-1-1.2-1.8
			c0.2-0.8,1-1.4,1.8-1.3c7.8,1.5,11.7,3.4,12.7,6.2c0.9,2.6-1.2,5-2.7,6.7c-0.3,0.4-0.7,0.8-0.9,1.1c-3.6,4.7-10.1,2-19-1.7
			l-2.9-1.2c-1-0.4-2-0.8-3-1.3c-4.5-2-9.6-4.3-13.7-2.6c-2.6,1-4.8,3.5-6.6,7.6c0.4,1.6,0.8,3.6,1.3,5.7c0.4,1.8,0.8,3.7,1.2,5.2
			c5.7-0.4,13.5,0.5,24.3,3.1c0.8,0.2,1.4,1,1.2,1.9c-0.2,0.9-1,1.4-1.9,1.2c-24.9-5.9-31.7-3.2-37,5.9c4.4,4.8,11.4,7.4,21.9,8.1
			c0.7,0.1,1.3,0.5,1.4,1.2c0.2,0.7-0.1,1.4-0.7,1.7l-6.3,3.8c-0.7,0.4-1.7,0.2-2.1-0.5c-0.4-0.8-0.2-1.7,0.5-2.2l2.3-1.3
			c-8.9-1.2-15.2-4.1-19.4-8.8c-0.4,0.1-0.8,0.1-1.3,0.2c-3,0.4-8.5,1.2-10.5,4.6c-1.1,1.9-1.2,4.5-0.1,7.8
			c12.9,0.8,24.1,1.8,33.2,13.3c0.5,0.7,0.4,1.7-0.3,2.2c-0.7,0.5-1.7,0.4-2.2-0.3c-8-10.2-17.3-11.3-31.8-12.2
			c-7.9,1.1-14.6,4.6-18.7,9.8c0.1,0.3,0.1,0.6,0,0.9c-0.2,0.7-0.8,1.1-1.4,1.1c-0.4,0.6-0.7,1.3-1,1.9c-1.7,3.1-3.7,7.2-5.1,11.3
			c0.4,0.3,0.6,0.8,0.5,1.4c-0.1,0.7-0.7,1.3-1.4,1.4c-1.6,6.3-1.6,12.5,2.9,16.2c2.9-2.7,6.2-4.9,9.9-6.4
			c-1.8-11.6,3.7-17.8,9.5-22.4c4.6-3.3,8.5-4.7,12-4.1c2.8,0.5,5.2,2.1,7.3,5.1c0.3,0.4,0.4,0.9,0.2,1.4
			c-4.1,11.8-10.9,17.3-20.3,16.5c-0.9-0.1-1.5-0.8-1.4-1.7c0.1-0.8,0.8-1.5,1.7-1.4c7.6,0.6,13.1-3.8,16.8-13.7
			c-1.5-1.9-3-2.9-4.8-3.2c-2.6-0.4-5.8,0.8-9.5,3.5c-5.5,4.4-10.2,9.9-8.1,20.7l19.8,15.2c0.7,0.5,0.8,1.5,0.3,2.2
			c-0.5,0.7-1.5,0.8-2.2,0.3l-20.2-15.4c-10.9,4.8-18.9,16.2-20.1,28.6c-0.7,8-5.1,13.3-13.1,15.8l-0.3,0.1c0,0,0,0,0,0
			c-1.9,0.6-2.8,5-1.9,9.2c0.6,2.9,1.9,5,3.2,4.8c6.9-0.6,11.7-7.9,16.1-14.3c0.9-1.4,1.8-2.7,2.7-4c3.7-5.2,6.2-11.3,8.6-17.2
			c1.2-3,2.5-6.1,3.9-9.1c0.4-0.8,1.3-1.1,2.1-0.7c0.8,0.4,1.1,1.3,0.7,2.1c-1.4,2.9-2.6,6-3.8,9c-2.5,6.1-5,12.4-8.9,17.8
			c-0.9,1.3-1.8,2.6-2.7,3.9c-4.7,7-10,15-18.4,15.7c-1.2,0.1-2.2-0.2-3.2-0.9c-1.3,4.4-4,5.8-5.8,6.2c-0.6,0.2-1.3,0.2-2,0.2
			C109.8,302.5,105.5,299.9,102.5,295.7z M171.7,261.3c-0.2-0.8,0.4-1.7,1.2-1.8c10.3-2.1,21.3-5.9,24.6-18.8
			c3.1-13.6,9.5-24.9,20.1-35.5c0.6-0.6,1.6-0.6,2.2,0c0.6,0.6,0.6,1.6,0,2.2c-10.2,10.2-16.3,21-19.3,34c-3.8,14.6-16.4,19-27,21.1
			c-0.1,0-0.2,0-0.3,0C172.5,262.6,171.8,262.1,171.7,261.3z M253,206.6l-3.3-4.4c-1.9,2-5.6,2.8-8.8,3.5c-1,0.2-1.9,0.4-2.7,0.6
			c-0.8,0.2-1.7-0.3-1.9-1.1c-0.2-0.8,0.2-1.7,1.1-1.9c0.8-0.2,1.8-0.4,2.9-0.7c3.1-0.7,7.4-1.6,7.6-3.6c0.3-3.6-1.7-6-3.4-7.4
			c-5.2-4-14.2-4.6-23-1.4c-0.8,0.3-1.7-0.1-2-1c-0.3-0.8,0.1-1.7,0.9-2c9.8-3.5,20-2.8,26,1.9c3.2,2.5,4.8,5.8,4.7,9.5l4.5,5.9
			c0.5,0.7,0.4,1.7-0.3,2.2c-0.3,0.2-0.6,0.3-1,0.3C253.7,207.2,253.3,207,253,206.6z M370.4,193.4c-8.4-8-8.9-10.9-8.3-12.6
			c1.8-5.4,5.9-5.1,9.8-4.7c1.1,0.1,2.3,0.2,3.7,0.2c0.9,0,1.6,0.7,1.6,1.6c0,0.9-0.7,1.6-1.6,1.6c-1.4,0-2.7-0.1-3.9-0.2
			c-4.2-0.4-5.6-0.4-6.6,2.6c0,0-0.2,2.1,7.5,9.4c1.5,1.4,1.9,1.2,4.1-0.4c1.3-0.9,2.9-2.1,5.1-2.8c0.8-0.3,1.7,0.2,2,1
			c0.3,0.8-0.2,1.7-1,2c-1.7,0.6-3.1,1.5-4.2,2.4c-1.2,0.9-2.7,1.9-4.3,1.9C373,195.1,371.8,194.7,370.4,193.4z M220.6,184.2
			c-6.7-5.7-12.5-7.6-21.5-9.1c-0.8-0.2-1.4-1-1.3-1.8c0.1-0.9,0.9-1.4,1.8-1.3c9.3,1.6,15.8,3.6,22.9,9.8c0.7,0.5,0.7,1.5,0.2,2.2
			c-0.3,0.4-0.8,0.5-1.2,0.5C221.2,184.6,220.9,184.5,220.6,184.2z M308.6,170.6c-12.7-7.6-40.3-13.4-54.7-11.5
			c-0.9,0.1-1.6-0.5-1.8-1.4c-0.1-0.8,0.5-1.6,1.4-1.8c15.2-2,43.3,3.9,56.7,11.9c0.7,0.4,1,1.4,0.5,2.2c-0.3,0.5-0.8,0.8-1.3,0.8
			C309.1,170.8,308.9,170.7,308.6,170.6z M237.7,166.3c-4.6-3.9-9.7-4.7-18.9-6.2c-1.9-0.3-4-0.6-6.2-1c-0.8-0.1-1.4-1-1.3-1.8
			c0.1-0.9,0.9-1.4,1.8-1.3c2.3,0.4,4.3,0.7,6.2,1c9.5,1.5,15.2,2.5,20.5,7c0.7,0.5,0.7,1.5,0.2,2.2c-0.3,0.4-0.8,0.5-1.2,0.5
			C238.3,166.7,238,166.6,237.7,166.3z M324.9,157.7c-2.9-0.8-5.6-2.3-8.8-4c-6.2-3.3-13.8-7.5-27.4-8.9c-0.8-0.1-1.5-0.8-1.4-1.7
			c0.1-0.8,0.9-1.5,1.7-1.4c14.2,1.4,22.5,5.9,28.6,9.2c3,1.6,5.6,3,8.1,3.7c0.7,0.2,1.5,0.3,2.2,0.4c-3.6-4.2-4.9-7.8-3.8-10.8
			c0.7-1.9,2.7-4.3,8.4-5c0.8-0.1,1.6,0.5,1.7,1.4c0.1,0.8-0.5,1.6-1.4,1.7c-3.2,0.4-5.3,1.4-5.9,2.9c-0.7,1.9,0.8,5,4.2,8.6
			c0.3,0.3,0.4,0.6,0.4,1c1.5-0.1,3.1-0.4,4.9-0.6c4.9-0.8,11-1.7,19.4-0.8c0.9,0.1,1.5,0.9,1.4,1.7c-0.1,0.9-0.8,1.5-1.7,1.4
			c-7.9-0.9-13.8,0-18.6,0.8c-2.7,0.4-5.1,0.8-7.5,0.8C327.9,158.2,326.4,158.1,324.9,157.7z M263,150.6c-4.4-8.1-11.5-12-23.6-13.1
			c-1.1-0.1-2.3-0.2-3.4-0.3c-8.2-0.8-15.8-1.6-25.6,2.7c-0.8,0.4-1.7,0-2.1-0.8c-0.4-0.8,0-1.7,0.8-2.1c10.5-4.7,18.6-3.8,27.2-3
			c1.1,0.1,2.2,0.2,3.3,0.3c13.1,1.1,21.2,5.7,26.1,14.7c0.4,0.8,0.1,1.7-0.6,2.1c-0.2,0.1-0.5,0.2-0.7,0.2
			C263.8,151.4,263.3,151.1,263,150.6z M285.9,141.2c-7.9-8.6-8.3-8.5-19.3-6.5l-2.7,0.5c-0.3,0.1-0.6,0-0.9-0.1
			c-1.3-0.5-2.5-1-3.7-1.5c-9.7-4-14.6-6.1-23.9-1.8c-0.8,0.4-1.7,0-2.1-0.8c-0.4-0.8,0-1.7,0.8-2.1c10.6-4.9,16.6-2.4,26.4,1.7
			c1,0.4,2.1,0.9,3.2,1.3l2.2-0.4c11.8-2.2,13.4-2.2,22.2,7.4c0.6,0.6,0.5,1.6-0.1,2.2c-0.3,0.3-0.7,0.4-1,0.4
			C286.6,141.7,286.2,141.6,285.9,141.2z M305.1,136.1c-12.5-5.1-29.5-12.1-34.2-9.5c-0.6,0.4-0.9,0.8-1,1.6
			c-0.1,0.8-0.9,1.5-1.8,1.3c-0.9-0.1-1.4-0.9-1.3-1.8c0.3-1.7,1.1-3,2.5-3.9c5.5-3.2,18.8,1.8,36.9,9.3c0.8,0.3,1.2,1.2,0.9,2
			c-0.3,0.6-0.8,1-1.4,1C305.5,136.2,305.3,136.2,305.1,136.1z"/>
	</g>
	<g>
		<path class="st4" d="M261.1,163.1c8.5,0.7,22.2,1.3,29.6,5c3.4,1.7,15.7,8.1,19.8,5.8c1.5-0.9-9.3-5.8-14.9-7.2
			c-4.7-1.2-19.8-5.7-24.8-5.7C269.4,160.9,244.6,161.8,261.1,163.1z"/>
		<path class="st4" d="M239.9,182.2c6.5-2.1,14.8-8,18.6,1.7c2.5,6.6,4.4,5.8,4.4,14.3c0,3.8-0.2,15.4-3.9,8.9
			c-5.3-9.4-2.9-17.2-13.2-24.3c-1.4-1-10-0.6-11.9-0.1C229.1,183.8,235.5,182.9,239.9,182.2z"/>
		<path class="st4" d="M238.8,192c2.8,2.6,8.6,2.4,4.4,6.7c-1.6,1.6-3.1,2.8-5.8,1.8c-7.1-2.7,4.7-7-8.2-7.5
			c-2.6-0.1-3.6,3.4-5.2,0.7C223.4,192.5,231,184.8,238.8,192z"/>
		<path class="st4" d="M246,207c-1,0-8.9,0.8-9,2.2c-0.4,3.9,13.1,4.2,16.5,4.2c4.2,0-2.1-4.3-2.8-4.9
			C249.1,207.3,248,206.3,246,207z"/>
		<path class="st4" d="M308.9,217.1c-8.2-5.7-8,1.7-13.4,5c-2.9,1.8-18.6,4.6-20.4-0.6c-1-2.9-5.1-9-7.2-4.7
			c-2.6,5.2-0.8,3.6,4.1,7.5c6.2,4.8,19.2,8.3,25.8,2.6C301.7,223.4,308.9,222.3,308.9,217.1z"/>
		<path class="st4" d="M273.6,181.5c-9.2-0.6-3.5,4.3-3,9.3c1.3,12.9,15.6,7,24.5,11.9c3.5,1.9,5.2,4.5,9.6,5.3
			c10.2,1.7,7.6,1.3,0.7-4.5c-8.1-6.8-19.6-2.9-27.6-7.4C271.8,192.7,274.5,180.6,273.6,181.5z"/>
		<path class="st4" d="M244,231.5c-4.4-1.8-8.1-2.1-13.4-2.1c-2.7,0-8.5-0.6-6.9,2.8c1.8,3.7,10.3,5.4,14.6,5.7
			c7,0.5,14.9,3.7,18.3,8.7C260.4,251.9,257.1,236.9,244,231.5z"/>
		<path class="st4" d="M248.7,258.5c0,7.4,0.4,9.8-5.4,12.6c-4.8,2.3-10.3,3.9-5.2-1.2c3.2-3.2,8.2-4.1,3.4-10.7
			c-5-7-28.1-4.9-19.4-10.4C228.5,244.8,248.7,247.4,248.7,258.5z"/>
		<path class="st4" d="M235,268.9c-3.6,4.1-17.3-2.4-24.5,1.1c-2.6,1.3-13.7,11.3-15.4,8.5c-1.1-1.8,11.8-13.7,16.6-15.5
			C215.6,261.5,239.3,264.1,235,268.9z"/>
		<path class="st4" d="M184.3,286.5c1.3,3.4-0.1,6.3,1.7,9.6c3.7,6.5,6.7,3.5,5.6,12c-0.3,2-3.1,11.7-5.9,9
			c-1.7-1.7,0.1-7.9,0.1-10.7c0-5.6-2.5-12.1-5.4-16.3C176.3,284.1,182.1,280.8,184.3,286.5z"/>
		<path class="st4" d="M220.1,210.3c-0.1,0.2,3.8-3.6,3.8-0.1c0,6.1-7.7,10.3-11.1,14.8c-3,3.9-5.3,8.6-5.3,14.2
			c0,11-10.6,24.3-19.5,28.7c-4.1,2.1-1.7-1.5-0.8-3.9c1.5-4.2,10.2-9.7,13.3-14.6c4.3-7,3.2-16.4,8.4-23.8
			C210.9,222.5,218,210.7,220.1,210.3z"/>
		<path class="st4" d="M233.1,313.4c9.8,9.4-3.1,1.9-8-0.3c-5.8-2.6-11.3-3.9-17.9-3.5c-2.9,0.2-5,1.7-8.1,1.4
			C196.4,310.7,219.2,300.2,233.1,313.4z"/>
		<path class="st4" d="M254.3,290.1c-2.5-2.5-6.9-11.3-10.6-8.8c-7.9,5.4-14.6-7.4-23.5,0.1c-2.8,2.3-6.8,4.7-3.7,8.7
			c1.2,1.6,4.3-4.1,8.1-5.1c11.5-2.8,24,5.3,31.1,13.5c1.4,1.6,8,7.1,8,1.8C263.7,297.3,253.6,291.2,254.3,290.1z"/>
		<path class="st4" d="M260.1,255.6c7.2-2.5,10.9-2.1,15.6,4.7c2.7,3.8,15.8,12.9,4.9,12.9c-3.7,0-6.8-11-12.6-11
			c-6.4,0-8.3,18.1-14.1,11C254,273.1,258.3,257.1,260.1,255.6z"/>
		<path class="st4" d="M340.5,230.8c-6-5.4-9.5-5.6-17-5.6c-3.8,0-12.1,9.1-16.6,12.2c-11.6,8-26,8-37.1,0.3
			c-2.5-1.8-6.1-7.3-8.1-9.9c-2.5-3.2-5.7-2.2-1.9,2.6c14.4,18.1,34.6,26.2,53.7,5.1c5.5-6.1,13.5-7.8,20.8-3.2
			c2.7,1.6,6,5.5,9.6,5.5C346.4,237.7,340.3,230.6,340.5,230.8z"/>
		<path class="st4" d="M334.6,243.6c-4.9-5.8-5.1-4.1-15.7,2.4c-7.2,4.4-12.7,11.3-21.8,12c-2.5,0.2-9.7-0.2-5.6,5.7
			c6.9,10,24-9.5,28.8-12.5c4.7-2.9,2.4-4.8,8.4-4.8c2.4,0,5.1,0.1,7,0.9C339.1,248.5,335.4,244.1,334.6,243.6z"/>
		<path class="st4" d="M339.5,256.9c-1.3-6.7-27.5,10.2-22.1,18.2c1.4,2-0.3,7.7,2,5.8c4.3-3.4,7.7-10.5,7.5-13.6
			C326.5,261.1,340.7,262.5,339.5,256.9z"/>
		<path class="st4" d="M309.5,281c-4.5-9.7-12.6-3.7-20.2,0.2c-5.1,2.5-15.6,7.4-21.9-2.4c-5.4-8.4-4.3,0.7-1.7,5.1
			c5.5,9.3,23.8,2.9,33,0.8c6-1.4,8.9,4.2,13.2,4.2C314.4,288.9,309.3,280.8,309.5,281z"/>
		<path class="st4" d="M337.1,188.2c-7.1-4.1-13.8-8.3-22.3-5.5c-3.3,1.1-7,3.6-7.7,7.4c-0.6,3.3-1.3,4.5,2,4.9
			c6.1,0.7,6.8-7.7,12.6-9.2c3.7-1,7,0.1,10.6,0.4C336.6,186.7,337,189.3,337.1,188.2z"/>
		<path class="st4" d="M205.6,287.5c1.6,5,2.2,11.7-5.7,9.7c-3.6-0.9-7.7-5-9.3-9c-0.6-1.5-0.5-9.3,1.8-6.2c2,2.8,2.7,6.5,4.8,9.5
			c0.9,1.3,2.3,2.3,4.1,1.3c3-1.7-4.9-5.6-1.9-6C200.9,286.5,205.6,286.2,205.6,287.5z"/>
		<path class="st4" d="M173.4,297.1c1.6,2.1,4.2,6.3,2.2,9.2c-0.5,0.8-0.7,1.7-1.8,2.1c-2.6,0.9-1.4-2.3-1.9-3.6
			c-0.4-1.3-1.1-2.2-2.6-2.2c-2.5,0-1.8-2.7-0.5-3.6C170.9,297.5,170.8,296.5,173.4,297.1z"/>
		<path class="st4" d="M288,147.5c-5.3,1.2-9.9,2.1-14.8,4.6c-2.4,1.2,1.3,1.9,2.1,2.1c4,1.1,7.5-3.7,12.1-4.1
			c3.9-0.4,6.7,0,10.6,0.4c0.9,0.1,2,0.5,2.9,0.5c4.4,0-4.8-2.6-5.7-2.8C292.6,147.5,289.6,146.9,288,147.5z"/>
		<path class="st4" d="M344,159c-6.1,1-13.6,3.3-19.6,1.7c-4-1,3.5,4.1,4.6,4.5c1.8,0.6,4.7,0.5,6.7,0.3c3.2-0.5,4.3-2.9,7.3-3.9
			C345.2,160.9,347.3,159.2,344,159z"/>
		<path class="st4" d="M315.9,200.3c4.2,3.5,4.9,10.3,8.8,14.3c2.9,2.9,7.5,3.4,11.3,5.2c6.3,2.9,1.7-0.8-0.8-2.6
			c-4.2-3.1-6.8-8.5-10.4-12.5C323.5,203.1,316,195,315.9,200.3z"/>
		<path class="st4" d="M326.9,195.5c4.2,4.2,9.9,7.6,12.9,13c1.3,2.2,2.2,3.8,3.1,6.1c0.6,1.6,1.4,9.6,2.6,3.6
			c1.2-5.9-2.7-13.5-7-17.2C336.9,199.7,326.9,191.4,326.9,195.5z"/>
		<path class="st4" d="M363.1,169c-1.7-0.7-13.8-0.4-13.8,1.9c0,2.9,4.5,5.7,5.8,8c0.7,1.3,3.6,5,3.6,1.1c0-5.6,1.2-7.1,7.1-8
			C369.7,171.5,364.5,168.9,363.1,169z"/>
		<path class="st4" d="M283.6,184c1.8,3.9,2.8,5.6,6.2,6.6c1.7,0.5,3.9-0.1,5.4-0.6c4.1-1.6-3.7-2.5-5-3.2
			C289.2,186.3,284,182.5,283.6,184z"/>
		<path class="st4" d="M333.9,174c-2.6,4.8,9.5,9.5,12.6,11.3c4.5,2.6,7.1,5.5,10,9.5c3.5,4.9-2-3.1-3.6-4.7
			C350.6,187.6,336.1,167.6,333.9,174z"/>
		<path class="st4" d="M361.8,201.6c2.7,7.3,4.1,13.7,9.4,19c1.4,1.4,9.6,6.8,6.8,10.3c-6.7,8.5-11.3-4-11.9-10.7
			c-0.3-3.6-3.2-7.4-3.5-10.6C362.7,209.3,361.3,199,361.8,201.6z"/>
		<path class="st4" d="M361.8,240.8c1.6,0.7,2.8,2.1,3.7,3.5c0.8,1.3-0.2,2.1-1.6,2.8c-2.7,1.4-5.2,4.8-7.3,7.3
			c-1.7,2.1-3.8,3.2-2.3-0.5c1-2.5,3.1-5.1,4.7-7.3C359.8,245.5,361.5,241,361.8,240.8z"/>
		<path class="st4" d="M376.7,182c-2.4-1-4.7-1.4-7.2-1.4c-0.9,0-0.8-0.1-1.2,0.5c-0.6,0.9,0.7,2.7,1,3.1c1,1.3,3.4,1.8,4.7,0.4
			c0.6-0.7,1-1.1,1.7-1.4C376.2,183.1,377.6,182.5,376.7,182z"/>
		<path class="st4" d="M321.2,139.2c-5-0.8-9.9-1.1-14.5,0.5c-0.5,0.2-3.2,0.8-3.5,1.3c-0.5,0.5,2.5,1.1,2.8,1.2
			c3.6,1,9.7,3.9,13.4,1.9C321,143.3,324.6,139,321.2,139.2z"/>
		<path class="st4" d="M384.2,194.4c-1.5,0-3,0.7-4,1.2c-0.9,0.5-2.6,1.2-3.5,1.4c-0.8,0.2-3.1-0.1-3.3,0.5c-0.4,1.6-0.2,4,1.7,4
			c0.6,0,1.2,0.1,1.8,0c0.4,0,1.9-1.6,2.4-1.9c0.8-0.6,1.3-0.9,2.1-1.4c0.9-0.6,2.2-0.8,3-1.4C385.4,196,384.7,194.6,384.2,194.4z"
			/>
		<path class="st4" d="M336.6,144.7c-2.8,1-3.4,0.8-4.3,3.4c-1.2,3.5,4.1,2.1,6.1,2.1c2,0,3.9,0.5,5.8,0.5c4.8,0-0.4-3.5-1.4-4.2
			C341.1,145.4,338.2,144.6,336.6,144.7z"/>
		<path class="st4" d="M282.9,209.3c1.5,0,7.1,1.5,5.3,3.2c-1.1,1.1-2.7,2.9-4.5,2.9c-2.2,0-2.6-1-4-1.9c-1.8-1.1-3.7-3.3-1.3-4.5
			C279.6,208.4,283.3,208.7,282.9,209.3z"/>
		<path class="st4" d="M217.8,152.2c-6.1-1.1-11.8-6.9-16.5-0.7c-2.1,2.8-1.6,8.9,1.1,10.7c3.2,2,7,1.4,11,1.4
			c4.9,0-2.4-2.7-3.5-3.1c-2-0.7-3.4-1.4-3.4-3.7c0-2.9,5.5-2.8,7.7-2.8C216,154.1,221.2,153.1,217.8,152.2z"/>
		<path class="st4" d="M191.4,175.1c1.9,3.5,5.1,5.6,9.7,5.8c1.2,0.1,4,0,5,0.5c0.5,0.3,2.8,1.1,3.7,1.1c2.2,0-3.5-2.2-3.9-2.4
			c-2.5-1.4-6.5-2.2-8.4-3.7c-1-0.8-2.2-1.9-3.2-2.4C193.4,173.4,191.4,173.9,191.4,175.1z"/>
		<path class="st4" d="M195.5,189.8c-2.9-0.6-6.1-0.8-8.2-2.1c-2.3-1.4-6-5.8-9.4-4.5c-3,1.1-5,3.4-1.4,5c3.3,1.5,9.3,1.5,13.1,2.6
			c1.7,0.4,4.6,1.8,6,1.8C198.4,192.5,195,189.9,195.5,189.8z"/>
		<path class="st4" d="M189.6,201.4c-9.5-6.8-19.8-1.9-29.4,0.8c-6.9,2-11.9,10.8-13.6,17.6c-0.4,1.6-0.9,5.6,0.5,7
			c2.5,2.5,6.2-10.8,8.2-13.3c4.5-5.5,15-14.9,23.2-11.3C183.9,204.5,193.3,212.5,189.6,201.4z"/>
		<path class="st4" d="M176.6,212.4c0,3.2-2.2,5.7-3.9,7.8c-0.9,1.1-4.5,2.9-6.5,2.9c-1,0-1.1-1.2-1.1-1.9c0-1,4.5-6.5,5.5-7.3
			c0.8-0.6,1.8-1.3,3.1-1.8C174.1,211.9,177,212.1,176.6,212.4z"/>
		<path class="st4" d="M134.8,243.3c-6,4.6-14.9,8.9-15.8,16.8c-0.6,5.4-0.3,9.4,4.5,11.3c2.6,1,6.3-3,6.3-5.7
			c0-3.7-1.5-4.4-3.9-2.1c-4.4,4.1-0.1-7.1,1.6-9.1C130.6,251,137.7,248.1,134.8,243.3z"/>
		<path class="st4" d="M134.8,226.8c1.6,2.5-1.2,4.3-2.8,5.7c-0.9,0.8-2.1,1.6-3.2,2.4c-0.5,0.4-1.5,1.4-2.3,1.4
			c-1.2,0.1,0.7-3.8,0.8-4c1-2.3,1.7-4,3.6-5.3C131.9,226.2,134.7,225.4,134.8,226.8z"/>
		<path class="st4" d="M163,186.7c-2.7-3.2-9.2,1.4-11.3,2.9c-1.1,0.8-3.8,6.6-1.3,5.3c1.4-0.7,2.2-2.1,4.2-2.4
			c1.5-0.2,2.7-0.8,4.4-0.8c2.3,0,3.7,0.1,5.2-1.1C165.3,189.6,164.5,186.4,163,186.7z"/>
		<path class="st4" d="M184.8,168c-3.2,2.3-4.1,4.8-7.4,7c-2.8,1.8-5.5,2.6-9,2.6c-1.8,0-4.8,0.6-4-2.1c0.8-3,10.2-5.7,12.9-6.6
			C179,168.2,184.8,165.2,184.8,168z"/>
		<path class="st4" d="M154.6,240.7c-8.4,2.6-14.9,15.3-14.9,23.6c0,1.2-8.4,16.7-1.9,11c7.1-6.3,8.1-25.7,16.8-29.1
			c3.3-1.3,9.2,4.2,9.2,0.8C163.8,244.2,154.7,238.4,154.6,240.7z"/>
		<path class="st4" d="M147.8,285.2c-0.2,4.6-2.1,11.9-6.1,13.8c-1.6,0.8-11.2,6.1-12.4,4.2c-1.5-2.3,5.6-6.1,6.9-7.3
			c3.3-3,5.1-7.7,7.4-11C145.9,281.6,148,279.3,147.8,285.2z"/>
		<path class="st4" d="M229.3,143.5c1.9,0.6,5,1.8,6.7,2.7c3.9,2-1.1,4.9-4.5,3.1c-2.9-1.5-5.5-2.2-8.4-3.9c-1.7-1-4.1-1.4-5.8-2.6
			c-3.5-2.5,3.2-2.4,5.8-2.1C224.3,140.8,229.4,142.7,229.3,143.5z"/>
		<path class="st4" d="M248.6,141c1.6,0.1,5.9,2.6,4.3,4.5c-0.7,0.9-1.3,1.6-1.9,2.1c-1.3,1.1-1.6-1.7-2.4-2.7
			c-0.9-1.3-1.7-1.9-2.8-2.6c-0.6-0.4-1-0.8-1.3-1.3C243.7,139.6,249,141.2,248.6,141z"/>
	</g>
	<g>
		<g>
			<g>
				<polygon class="st5" points="128.9,325.9 128.6,326.1 123.8,322.9 123.7,318.1 122.5,317.3 122.2,315.3 122.5,315 124,315.9 
					124.2,320.7 128.9,323.6 				"/>
				<g>
					<polygon class="st6" points="128.6,326.1 123.8,323.3 123.9,320.9 128.6,323.8 					"/>
					<polygon class="st7" points="123.7,316.1 123.9,320.9 123.8,323.3 123.6,318.4 					"/>
					<polygon class="st6" points="123.6,318.4 122.2,317.6 122.2,315.3 123.7,316.1 					"/>
				</g>
			</g>
			<g>
				<polygon class="st5" points="128.9,322 128.5,322.3 123.8,319 123.7,314.3 122.5,313.5 122.2,311.4 122.5,311.2 124,312 
					124.2,316.8 128.9,319.7 				"/>
				<g>
					<polygon class="st6" points="128.5,322.3 123.8,319.4 123.9,317.1 128.5,319.9 					"/>
					<polygon class="st7" points="123.6,312.2 123.9,317.1 123.8,319.4 123.6,314.6 					"/>
					<polygon class="st6" points="123.6,314.6 122.1,313.7 122.2,311.4 123.6,312.2 					"/>
				</g>
			</g>
			<g>
				<polygon class="st5" points="128.8,318.2 128.5,318.4 123.8,315.2 123.7,310.4 122.5,309.6 122.1,307.5 122.5,307.3 124,308.1 
					124.2,313 128.9,315.8 				"/>
				<g>
					<polygon class="st6" points="128.5,318.4 123.8,315.5 123.8,313.2 128.5,316.1 					"/>
					<polygon class="st7" points="123.6,308.4 123.8,313.2 123.8,315.5 123.6,310.7 					"/>
					<polygon class="st6" points="123.6,310.7 122.1,309.8 122.1,307.5 123.6,308.4 					"/>
				</g>
			</g>
			<g>
				<polygon class="st5" points="128.8,314.3 128.5,314.5 123.8,311.3 123.7,306.5 122.4,305.7 122.1,303.6 122.4,303.4 
					123.9,304.3 124.1,309.1 128.8,312 				"/>
				<g>
					<polygon class="st6" points="128.5,314.5 123.8,311.6 123.8,309.3 128.5,312.2 					"/>
					<polygon class="st7" points="123.6,304.5 123.8,309.3 123.8,311.6 123.6,306.8 					"/>
					<polygon class="st6" points="123.6,306.8 122.1,305.9 122.1,303.6 123.6,304.5 					"/>
				</g>
			</g>
			<g>
				<polygon class="st5" points="128.8,310.4 128.5,310.6 123.7,307.4 123.7,302.6 122.4,301.8 122.1,299.7 122.4,299.5 
					123.9,300.4 124.1,305.2 128.8,308.1 				"/>
				<g>
					<polygon class="st6" points="128.5,310.6 123.7,307.7 123.8,305.4 128.5,308.3 					"/>
					<polygon class="st7" points="123.6,300.6 123.8,305.4 123.7,307.7 123.6,302.9 					"/>
					<polygon class="st6" points="123.6,302.9 122.1,302 122.1,299.7 123.6,300.6 					"/>
				</g>
			</g>
			<g>
				<polygon class="st5" points="128.8,306.5 128.4,306.7 123.7,303.5 123.6,298.7 122.4,297.9 122.1,295.8 122.4,295.6 
					123.9,296.5 124.1,301.3 128.8,304.2 				"/>
				<g>
					<polygon class="st6" points="128.4,306.7 123.7,303.9 123.8,301.5 128.5,304.4 					"/>
					<polygon class="st7" points="123.5,296.7 123.8,301.5 123.7,303.9 123.5,299 					"/>
					<polygon class="st6" points="123.5,299 122.1,298.2 122.1,295.8 123.5,296.7 					"/>
				</g>
			</g>
			<g>
				<polygon class="st5" points="128.8,302.6 128.4,302.8 123.7,299.6 123.6,294.9 122.4,294.1 122,292 122.4,291.8 123.9,292.6 
					124.1,297.4 128.8,300.3 				"/>
				<g>
					<polygon class="st6" points="128.4,302.8 123.7,300 123.7,297.7 128.4,300.5 					"/>
					<polygon class="st7" points="123.5,292.8 123.7,297.7 123.7,300 123.5,295.1 					"/>
					<polygon class="st6" points="123.5,295.1 122,294.3 122,292 123.5,292.8 					"/>
				</g>
			</g>
			<g>
				<polygon class="st5" points="128.7,298.8 128.4,299 123.7,295.7 123.6,291 122.3,290.2 122,288.1 122.4,287.9 123.9,288.7 
					124.1,293.6 128.7,296.4 				"/>
				<g>
					<polygon class="st6" points="128.4,299 123.7,296.1 123.7,293.8 128.4,296.7 					"/>
					<polygon class="st7" points="123.5,288.9 123.7,293.8 123.7,296.1 123.5,291.3 					"/>
					<polygon class="st6" points="123.5,291.3 122,290.4 122,288.1 123.5,288.9 					"/>
				</g>
			</g>
			<g>
				<polygon class="st5" points="128.7,294.9 128.4,295.1 123.7,291.9 123.6,287.1 122.3,286.3 122,284.2 122.3,284 123.8,284.9 
					124,289.7 128.7,292.6 				"/>
				<g>
					<polygon class="st6" points="128.4,295.1 123.6,292.2 123.7,289.9 128.4,292.8 					"/>
					<polygon class="st7" points="123.5,285.1 123.7,289.9 123.6,292.2 123.5,287.4 					"/>
					<polygon class="st6" points="123.5,287.4 122,286.5 122,284.2 123.5,285.1 					"/>
				</g>
			</g>
			<g>
				<polygon class="st5" points="128.7,291 128.4,291.2 123.6,288 123.5,283.2 122.3,282.4 122,280.3 122.3,280.1 123.8,281 
					124,285.8 128.7,288.7 				"/>
				<g>
					<polygon class="st6" points="128.4,291.2 123.6,288.3 123.7,286 128.4,288.9 					"/>
					<polygon class="st7" points="123.5,281.2 123.7,286 123.6,288.3 123.4,283.5 					"/>
					<polygon class="st6" points="123.4,283.5 122,282.6 122,280.3 123.5,281.2 					"/>
				</g>
			</g>
		</g>
		<g>
			<g>
				<polygon class="st5" points="131.9,331.6 131.6,331.7 131.9,337.4 135.9,340 135.9,341.5 137.6,342.8 137.9,342.7 138,340.9 
					133.9,338.3 133.9,332.7 				"/>
				<g>
					<polygon class="st6" points="131.6,331.7 131.6,337.3 133.6,338.4 133.5,332.9 					"/>
					<polygon class="st7" points="137.6,341.1 133.6,338.4 131.6,337.3 135.6,339.9 					"/>
					<polygon class="st6" points="135.6,339.9 135.6,341.7 137.6,342.8 137.6,341.1 					"/>
				</g>
			</g>
			<g>
				<polygon class="st5" points="135.2,333.6 134.9,333.8 135.2,339.5 139.2,342 139.3,343.5 140.9,344.9 141.2,344.7 141.3,343 
					137.3,340.3 137.2,334.8 				"/>
				<g>
					<polygon class="st6" points="134.9,333.8 134.9,339.3 136.9,340.5 136.9,335 					"/>
					<polygon class="st7" points="140.9,343.1 136.9,340.5 134.9,339.3 138.9,342 					"/>
					<polygon class="st6" points="138.9,342 138.9,343.7 140.9,344.9 140.9,343.1 					"/>
				</g>
			</g>
			<g>
				<polygon class="st5" points="138.5,335.6 138.2,335.8 138.5,341.5 142.5,344 142.6,345.5 144.2,346.9 144.6,346.7 144.6,345 
					140.6,342.3 140.5,336.8 				"/>
				<g>
					<polygon class="st6" points="138.2,335.8 138.2,341.3 140.2,342.5 140.2,337 					"/>
					<polygon class="st7" points="144.2,345.2 140.2,342.5 138.2,341.3 142.2,344 					"/>
					<polygon class="st6" points="142.2,344 142.2,345.7 144.2,346.9 144.2,345.2 					"/>
				</g>
			</g>
			<g>
				<polygon class="st5" points="141.8,337.6 141.5,337.8 141.8,343.5 145.8,346.1 145.9,347.5 147.5,348.9 147.9,348.7 147.9,347 
					143.9,344.3 143.8,338.8 				"/>
				<g>
					<polygon class="st6" points="141.5,337.8 141.5,343.3 143.5,344.5 143.5,339 					"/>
					<polygon class="st7" points="147.5,347.2 143.5,344.5 141.5,343.3 145.5,346 					"/>
					<polygon class="st6" points="145.5,346 145.5,347.7 147.5,348.9 147.5,347.2 					"/>
				</g>
			</g>
			<g>
				<polygon class="st5" points="145.2,339.7 144.8,339.8 145.1,345.6 149.2,348.1 149.2,349.6 150.8,350.9 151.2,350.8 151.2,349 
					147.2,346.4 147.1,340.8 				"/>
				<g>
					<polygon class="st6" points="144.8,339.8 144.8,345.4 146.8,346.6 146.8,341 					"/>
					<polygon class="st7" points="150.9,349.2 146.8,346.6 144.8,345.4 148.9,348 					"/>
					<polygon class="st6" points="148.9,348 148.8,349.8 150.8,350.9 150.9,349.2 					"/>
				</g>
			</g>
			<g>
				<polygon class="st5" points="148.5,341.7 148.1,341.9 148.4,347.6 152.5,350.1 152.5,351.6 154.1,353 154.5,352.8 154.5,351.1 
					150.5,348.4 150.5,342.9 				"/>
				<g>
					<polygon class="st6" points="148.1,341.9 148.1,347.4 150.1,348.6 150.1,343 					"/>
					<polygon class="st7" points="154.2,351.2 150.1,348.6 148.1,347.4 152.2,350.1 					"/>
					<polygon class="st6" points="152.2,350.1 152.1,351.8 154.1,353 154.2,351.2 					"/>
				</g>
			</g>
			<g>
				<polygon class="st5" points="151.8,343.7 151.4,343.9 151.7,349.6 155.8,352.1 155.8,353.6 157.4,355 157.8,354.8 157.8,353.1 
					153.8,350.4 153.8,344.9 				"/>
				<g>
					<polygon class="st6" points="151.4,343.9 151.4,349.4 153.4,350.6 153.4,345.1 					"/>
					<polygon class="st7" points="157.5,353.3 153.4,350.6 151.4,349.4 155.5,352.1 					"/>
					<polygon class="st6" points="155.5,352.1 155.5,353.8 157.4,355 157.5,353.3 					"/>
				</g>
			</g>
			<g>
				<polygon class="st5" points="155.1,345.7 154.7,345.9 155.1,351.6 159.1,354.2 159.1,355.6 160.8,357 161.1,356.8 161.1,355.1 
					157.1,352.4 157.1,346.9 				"/>
				<g>
					<polygon class="st6" points="154.7,345.9 154.8,351.4 156.8,352.6 156.7,347.1 					"/>
					<polygon class="st7" points="160.8,355.3 156.8,352.6 154.8,351.4 158.8,354.1 					"/>
					<polygon class="st6" points="158.8,354.1 158.8,355.8 160.8,357 160.8,355.3 					"/>
				</g>
			</g>
			<g>
				<polygon class="st5" points="158.4,347.8 158.1,348 158.4,353.7 162.4,356.2 162.4,357.7 164.1,359 164.4,358.9 164.4,357.1 
					160.4,354.5 160.4,349 				"/>
				<g>
					<polygon class="st6" points="158.1,348 158.1,353.5 160.1,354.7 160,349.1 					"/>
					<polygon class="st7" points="164.1,357.3 160.1,354.7 158.1,353.5 162.1,356.1 					"/>
					<polygon class="st6" points="162.1,356.1 162.1,357.9 164.1,359 164.1,357.3 					"/>
				</g>
			</g>
			<g>
				<polygon class="st5" points="161.7,349.8 161.4,350 161.7,355.7 165.7,358.2 165.8,359.7 167.4,361.1 167.7,360.9 167.8,359.2 
					163.7,356.5 163.7,351 				"/>
				<g>
					<polygon class="st6" points="161.4,350 161.4,355.5 163.4,356.7 163.4,351.2 					"/>
					<polygon class="st7" points="167.4,359.3 163.4,356.7 161.4,355.5 165.4,358.2 					"/>
					<polygon class="st6" points="165.4,358.2 165.4,359.9 167.4,361.1 167.4,359.3 					"/>
				</g>
			</g>
		</g>
		<polygon class="st8" points="130,286.8 129.9,326.3 132.7,331.2 166.5,351.4 170.7,349.1 170.6,310 167.6,304.7 134.2,284.5 		"/>
		<polygon class="st9" points="127.8,288.1 127.7,327.6 130.4,332.4 164.2,352.7 168.4,350.4 168.3,311.3 165.3,306 131.9,285.8 		
			"/>
		<polygon class="st8" points="126.9,288.6 126.8,328.1 129.6,332.9 163.4,353.2 167.6,350.8 167.5,311.7 164.5,306.4 131.1,286.2 
					"/>
		<polygon class="st5" points="162.4,299.3 162.4,304.9 164.1,306.2 164.4,306.1 164.4,300.8 167.9,294.5 168,292.5 166,291.3 
			165.7,291.5 166,293.1 162.4,299.3 		"/>
		<polygon class="st7" points="165.7,293.2 162.1,299.5 164.1,300.7 167.7,294.4 		"/>
		<polygon class="st6" points="165.7,291.5 165.7,293.2 167.7,294.4 167.7,292.7 		"/>
		<polygon class="st5" points="159.1,297.3 159.1,302.8 160.8,304.2 161.1,304 161,298.7 164.6,292.4 164.7,290.5 162.7,289.3 
			162.4,289.5 162.6,291 159.1,297.3 		"/>
		<polygon class="st7" points="162.3,291.2 158.8,297.5 160.7,298.7 164.3,292.4 		"/>
		<polygon class="st6" points="162.4,289.5 162.3,291.2 164.3,292.4 164.4,290.7 		"/>
		<polygon class="st5" points="155.7,295.3 155.7,300.8 157.5,302.2 157.7,302 157.7,296.7 161.3,290.4 161.3,288.5 159.3,287.3 
			159,287.4 159.3,289 155.7,295.3 		"/>
		<polygon class="st7" points="159,289.2 155.4,295.5 157.4,296.6 161,290.4 		"/>
		<polygon class="st6" points="159,287.4 159,289.2 161,290.4 161,288.6 		"/>
		<polygon class="st5" points="152.4,293.3 152.4,298.8 154.1,300.1 154.4,299.9 154.4,294.7 157.9,288.4 158,286.4 156,285.2 
			155.7,285.4 156,287 152.4,293.3 		"/>
		<polygon class="st7" points="155.7,287.1 152.1,293.5 154.1,294.6 157.7,288.3 		"/>
		<polygon class="st6" points="155.7,285.4 155.7,287.1 157.7,288.3 157.7,286.6 		"/>
		<polygon class="st5" points="149.1,291.2 149.1,296.8 150.8,298.1 151.1,297.9 151,292.6 154.6,286.4 154.6,284.4 152.7,283.2 
			152.4,283.4 152.6,284.9 149.1,291.2 		"/>
		<polygon class="st7" points="152.3,285.1 148.8,291.4 150.7,292.6 154.3,286.3 		"/>
		<polygon class="st6" points="152.4,283.4 152.3,285.1 154.3,286.3 154.3,284.6 		"/>
		<polygon class="st5" points="145.7,289.2 145.7,294.7 147.4,296.1 147.7,295.9 147.7,290.6 151.3,284.3 151.3,282.4 149.3,281.2 
			149,281.4 149.3,282.9 145.7,289.2 		"/>
		<polygon class="st7" points="149,283.1 145.4,289.4 147.4,290.6 151,284.3 		"/>
		<polygon class="st6" points="149,281.4 149,283.1 151,284.3 151,282.5 		"/>
		<polygon class="st5" points="142.4,287.2 142.4,292.7 144.1,294 144.4,293.9 144.4,288.6 147.9,282.3 148,280.3 146,279.2 
			145.7,279.3 146,280.9 		"/>
		<polygon class="st7" points="145.7,281.1 142.1,287.4 144.1,288.5 147.6,282.2 		"/>
		<polygon class="st6" points="145.7,279.3 145.7,281.1 147.6,282.2 147.7,280.5 		"/>
		<polygon class="st5" points="139,285.1 139,290.7 140.8,292 141.1,291.8 141,286.5 144.6,280.3 144.6,278.3 142.6,277.1 
			142.3,277.3 142.6,278.9 139,285.2 		"/>
		<polygon class="st7" points="142.3,279 138.7,285.3 140.7,286.5 144.3,280.2 		"/>
		<polygon class="st6" points="142.3,277.3 142.3,279 144.3,280.2 144.3,278.5 		"/>
		<polygon class="st5" points="135.7,283.1 135.7,288.6 137.4,290 137.7,289.8 137.7,284.5 141.2,278.2 141.3,276.3 139.3,275.1 
			139,275.3 139.3,276.8 135.7,283.1 		"/>
		<polygon class="st7" points="139,277 135.4,283.3 137.4,284.5 141,278.2 		"/>
		<polygon class="st6" points="139,275.3 139,277 141,278.2 141,276.5 		"/>
		<polygon class="st5" points="132.4,281.1 132.4,286.6 134.1,288 134.4,287.8 134.4,282.5 137.9,276.2 137.9,274.3 136,273.1 
			135.7,273.2 135.9,274.8 132.4,281.1 		"/>
		<g>
			
				<linearGradient id="SVGID_1_" gradientUnits="userSpaceOnUse" x1="2343.0137" y1="194.4782" x2="2340.0623" y2="199.8029" gradientTransform="matrix(-1 0 0 -1 2504.6602 500)">
				<stop  offset="0" style="stop-color:#E6E7E8"/>
				<stop  offset="0.45" style="stop-color:#E6E7E8"/>
				<stop  offset="0.64" style="stop-color:#FFFFFF"/>
				<stop  offset="1" style="stop-color:#FFFFFF"/>
			</linearGradient>
			<polygon class="st10" points="162.1,299.5 162.1,305 164.1,306.2 164.1,300.7 			"/>
			
				<linearGradient id="SVGID_2_" gradientUnits="userSpaceOnUse" x1="2346.342" y1="196.5209" x2="2343.4009" y2="201.8266" gradientTransform="matrix(-1 0 0 -1 2504.6602 500)">
				<stop  offset="0" style="stop-color:#E6E7E8"/>
				<stop  offset="0.45" style="stop-color:#E6E7E8"/>
				<stop  offset="0.64" style="stop-color:#FFFFFF"/>
				<stop  offset="1" style="stop-color:#FFFFFF"/>
			</linearGradient>
			<polygon class="st11" points="158.8,297.5 158.8,303 160.8,304.2 160.7,298.7 			"/>
			
				<linearGradient id="SVGID_3_" gradientUnits="userSpaceOnUse" x1="2349.6721" y1="198.5433" x2="2346.7288" y2="203.8535" gradientTransform="matrix(-1 0 0 -1 2504.6602 500)">
				<stop  offset="0" style="stop-color:#E6E7E8"/>
				<stop  offset="0.45" style="stop-color:#E6E7E8"/>
				<stop  offset="0.64" style="stop-color:#FFFFFF"/>
				<stop  offset="1" style="stop-color:#FFFFFF"/>
			</linearGradient>
			<polygon class="st12" points="155.4,295.5 155.4,301 157.5,302.2 157.4,296.6 			"/>
			
				<linearGradient id="SVGID_4_" gradientUnits="userSpaceOnUse" x1="2353.022" y1="200.5867" x2="2350.0801" y2="205.8942" gradientTransform="matrix(-1 0 0 -1 2504.6602 500)">
				<stop  offset="0" style="stop-color:#E6E7E8"/>
				<stop  offset="0.45" style="stop-color:#E6E7E8"/>
				<stop  offset="0.64" style="stop-color:#FFFFFF"/>
				<stop  offset="1" style="stop-color:#FFFFFF"/>
			</linearGradient>
			<polygon class="st13" points="152.1,293.4 152.1,299 154.1,300.1 154.1,294.6 			"/>
			
				<linearGradient id="SVGID_5_" gradientUnits="userSpaceOnUse" x1="2356.3599" y1="202.6117" x2="2353.4163" y2="207.9223" gradientTransform="matrix(-1 0 0 -1 2504.6602 500)">
				<stop  offset="0" style="stop-color:#E6E7E8"/>
				<stop  offset="0.45" style="stop-color:#E6E7E8"/>
				<stop  offset="0.64" style="stop-color:#FFFFFF"/>
				<stop  offset="1" style="stop-color:#FFFFFF"/>
			</linearGradient>
			<polygon class="st14" points="148.8,291.4 148.8,296.9 150.8,298.1 150.7,292.6 			"/>
			
				<linearGradient id="SVGID_6_" gradientUnits="userSpaceOnUse" x1="2359.6965" y1="204.6392" x2="2356.7466" y2="209.9608" gradientTransform="matrix(-1 0 0 -1 2504.6602 500)">
				<stop  offset="0" style="stop-color:#E6E7E8"/>
				<stop  offset="0.45" style="stop-color:#E6E7E8"/>
				<stop  offset="0.64" style="stop-color:#FFFFFF"/>
				<stop  offset="1" style="stop-color:#FFFFFF"/>
			</linearGradient>
			<polygon class="st15" points="145.4,289.4 145.4,294.9 147.4,296.1 147.4,290.6 			"/>
			
				<linearGradient id="SVGID_7_" gradientUnits="userSpaceOnUse" x1="2363.0312" y1="206.6603" x2="2360.0867" y2="211.9727" gradientTransform="matrix(-1 0 0 -1 2504.6602 500)">
				<stop  offset="0" style="stop-color:#E6E7E8"/>
				<stop  offset="0.45" style="stop-color:#E6E7E8"/>
				<stop  offset="0.64" style="stop-color:#FFFFFF"/>
				<stop  offset="1" style="stop-color:#FFFFFF"/>
			</linearGradient>
			<polygon class="st16" points="142.1,287.4 142.1,292.9 144.1,294 144.1,288.5 			"/>
			
				<linearGradient id="SVGID_8_" gradientUnits="userSpaceOnUse" x1="2366.3701" y1="208.6999" x2="2363.4263" y2="214.0111" gradientTransform="matrix(-1 0 0 -1 2504.6602 500)">
				<stop  offset="0" style="stop-color:#E6E7E8"/>
				<stop  offset="0.45" style="stop-color:#E6E7E8"/>
				<stop  offset="0.64" style="stop-color:#FFFFFF"/>
				<stop  offset="1" style="stop-color:#FFFFFF"/>
			</linearGradient>
			<polygon class="st17" points="138.7,285.3 138.7,290.9 140.8,292 140.7,286.5 			"/>
			
				<linearGradient id="SVGID_9_" gradientUnits="userSpaceOnUse" x1="2369.7097" y1="210.7297" x2="2366.7681" y2="216.0367" gradientTransform="matrix(-1 0 0 -1 2504.6602 500)">
				<stop  offset="0" style="stop-color:#E6E7E8"/>
				<stop  offset="0.45" style="stop-color:#E6E7E8"/>
				<stop  offset="0.64" style="stop-color:#FFFFFF"/>
				<stop  offset="1" style="stop-color:#FFFFFF"/>
			</linearGradient>
			<polygon class="st18" points="135.4,283.3 135.4,288.8 137.4,290 137.4,284.5 			"/>
			
				<linearGradient id="SVGID_10_" gradientUnits="userSpaceOnUse" x1="2373.0376" y1="212.7566" x2="2370.0981" y2="218.0599" gradientTransform="matrix(-1 0 0 -1 2504.6602 500)">
				<stop  offset="0" style="stop-color:#E6E7E8"/>
				<stop  offset="0.45" style="stop-color:#E6E7E8"/>
				<stop  offset="0.64" style="stop-color:#FFFFFF"/>
				<stop  offset="1" style="stop-color:#FFFFFF"/>
			</linearGradient>
			<polygon class="st19" points="132.1,281.3 132.1,286.8 134.1,288 134.1,282.4 			"/>
		</g>
		<polygon class="st7" points="135.6,275 132.1,281.3 134.1,282.4 137.6,276.2 		"/>
		<polygon class="st6" points="135.7,273.2 135.6,275 137.6,276.2 137.7,274.4 		"/>
		<g>
			<polygon class="st5" points="172.4,317.1 167.7,314.3 167.5,312.1 167.8,312 172.3,314.7 179.5,314.9 181.2,315.9 181.2,318.2 
				180.9,318.4 179.7,317.3 			"/>
			
				<linearGradient id="SVGID_11_" gradientUnits="userSpaceOnUse" x1="2337.9741" y1="185.4566" x2="2331.7334" y2="185.1296" gradientTransform="matrix(-1 0 0 -1 2504.6602 500)">
				<stop  offset="0" style="stop-color:#E6E7E8"/>
				<stop  offset="0.45" style="stop-color:#E6E7E8"/>
				<stop  offset="0.64" style="stop-color:#FFFFFF"/>
				<stop  offset="1" style="stop-color:#FFFFFF"/>
			</linearGradient>
			<polygon class="st20" points="172.1,317.3 167.4,314.4 167.5,312.1 172.2,315 			"/>
			<polygon class="st7" points="179.4,317.5 172.1,317.3 172.2,315 179.4,315.2 			"/>
			<polygon class="st6" points="180.9,318.4 179.4,317.5 179.4,315.2 180.9,316.1 			"/>
			<polygon class="st5" points="172.4,321.1 167.7,318.2 167.5,316 167.8,315.9 172.3,318.6 179.5,318.8 181.2,319.8 181.2,322.1 
				180.9,322.3 179.7,321.2 172.4,321 			"/>
			
				<linearGradient id="SVGID_12_" gradientUnits="userSpaceOnUse" x1="2337.9705" y1="181.5526" x2="2331.7258" y2="181.2253" gradientTransform="matrix(-1 0 0 -1 2504.6602 500)">
				<stop  offset="0" style="stop-color:#E6E7E8"/>
				<stop  offset="0.45" style="stop-color:#E6E7E8"/>
				<stop  offset="0.64" style="stop-color:#FFFFFF"/>
				<stop  offset="1" style="stop-color:#FFFFFF"/>
			</linearGradient>
			<polygon class="st21" points="172.2,321.2 167.4,318.3 167.5,316 172.2,318.9 			"/>
			<polygon class="st7" points="179.4,321.4 172.1,321.2 172.2,318.9 179.4,319.1 			"/>
			<polygon class="st6" points="180.9,322.3 179.4,321.4 179.4,319.1 180.9,320 			"/>
			<polygon class="st5" points="172.5,325 167.7,322.1 167.5,319.9 167.8,319.8 172.3,322.5 179.5,322.7 181.2,323.7 181.2,326 
				180.9,326.2 179.7,325.1 			"/>
			
				<linearGradient id="SVGID_13_" gradientUnits="userSpaceOnUse" x1="2337.9641" y1="177.6395" x2="2331.7122" y2="177.3119" gradientTransform="matrix(-1 0 0 -1 2504.6602 500)">
				<stop  offset="0" style="stop-color:#E6E7E8"/>
				<stop  offset="0.45" style="stop-color:#E6E7E8"/>
				<stop  offset="0.64" style="stop-color:#FFFFFF"/>
				<stop  offset="1" style="stop-color:#FFFFFF"/>
			</linearGradient>
			<polygon class="st22" points="172.2,325.1 167.4,322.3 167.5,319.9 172.2,322.8 			"/>
			<polygon class="st7" points="179.4,325.3 172.2,325.1 172.2,322.8 179.4,323 			"/>
			<polygon class="st6" points="180.9,326.2 179.4,325.3 179.4,323 180.9,323.9 			"/>
			<polygon class="st5" points="172.5,328.9 167.7,326 167.5,323.8 167.8,323.7 172.3,326.4 179.5,326.6 181.2,327.6 181.2,329.9 
				180.9,330.1 179.7,329 			"/>
			
				<linearGradient id="SVGID_14_" gradientUnits="userSpaceOnUse" x1="2337.9514" y1="173.7355" x2="2331.6919" y2="173.4075" gradientTransform="matrix(-1 0 0 -1 2504.6602 500)">
				<stop  offset="0" style="stop-color:#E6E7E8"/>
				<stop  offset="0.45" style="stop-color:#E6E7E8"/>
				<stop  offset="0.64" style="stop-color:#FFFFFF"/>
				<stop  offset="1" style="stop-color:#FFFFFF"/>
			</linearGradient>
			<polygon class="st23" points="172.2,329 167.5,326.2 167.5,323.8 172.2,326.7 			"/>
			<polygon class="st7" points="179.4,329.2 172.2,329 172.2,326.7 179.4,326.9 			"/>
			<polygon class="st6" points="180.9,330.1 179.4,329.2 179.4,326.9 180.9,327.8 			"/>
			<polygon class="st5" points="172.5,332.8 167.8,329.9 167.5,327.7 167.8,327.6 172.3,330.3 179.5,330.5 181.2,331.5 181.2,333.8 
				180.9,334 179.7,333 172.5,332.8 			"/>
			
				<linearGradient id="SVGID_15_" gradientUnits="userSpaceOnUse" x1="2337.9387" y1="169.8312" x2="2331.6865" y2="169.5035" gradientTransform="matrix(-1 0 0 -1 2504.6602 500)">
				<stop  offset="0" style="stop-color:#E6E7E8"/>
				<stop  offset="0.45" style="stop-color:#E6E7E8"/>
				<stop  offset="0.64" style="stop-color:#FFFFFF"/>
				<stop  offset="1" style="stop-color:#FFFFFF"/>
			</linearGradient>
			<polygon class="st24" points="172.2,332.9 167.5,330.1 167.5,327.7 172.2,330.6 			"/>
			<polygon class="st7" points="179.4,333.1 172.2,332.9 172.2,330.6 179.4,330.8 			"/>
			<polygon class="st6" points="180.9,334 179.4,333.1 179.4,330.8 180.9,331.7 			"/>
			<polygon class="st5" points="172.5,336.7 167.8,333.8 167.5,331.6 167.8,331.5 172.3,334.2 179.5,334.4 181.2,335.4 181.2,337.7 
				180.9,337.9 179.7,336.9 			"/>
			
				<linearGradient id="SVGID_16_" gradientUnits="userSpaceOnUse" x1="2337.9148" y1="165.926" x2="2331.6812" y2="165.5993" gradientTransform="matrix(-1 0 0 -1 2504.6602 500)">
				<stop  offset="0" style="stop-color:#E6E7E8"/>
				<stop  offset="0.45" style="stop-color:#E6E7E8"/>
				<stop  offset="0.64" style="stop-color:#FFFFFF"/>
				<stop  offset="1" style="stop-color:#FFFFFF"/>
			</linearGradient>
			<polygon class="st25" points="172.2,336.8 167.5,334 167.5,331.6 172.2,334.5 			"/>
			<polygon class="st7" points="179.4,337 172.2,336.8 172.2,334.5 179.5,334.7 			"/>
			<polygon class="st6" points="180.9,337.9 179.4,337 179.5,334.7 180.9,335.6 			"/>
			<polygon class="st5" points="172.5,340.6 167.8,337.7 167.5,335.5 167.8,335.4 172.3,338.2 179.6,338.3 181.3,339.3 181.2,341.6 
				180.9,341.8 179.8,340.8 			"/>
			
				<linearGradient id="SVGID_17_" gradientUnits="userSpaceOnUse" x1="2337.9177" y1="162.018" x2="2331.6665" y2="161.6904" gradientTransform="matrix(-1 0 0 -1 2504.6602 500)">
				<stop  offset="0" style="stop-color:#E6E7E8"/>
				<stop  offset="0.45" style="stop-color:#E6E7E8"/>
				<stop  offset="0.64" style="stop-color:#FFFFFF"/>
				<stop  offset="1" style="stop-color:#FFFFFF"/>
			</linearGradient>
			<polygon class="st26" points="172.2,340.7 167.5,337.9 167.5,335.5 172.2,338.4 			"/>
			<polygon class="st7" points="179.4,340.9 172.2,340.7 172.2,338.4 179.5,338.6 			"/>
			<polygon class="st6" points="180.9,341.8 179.5,340.9 179.5,338.6 180.9,339.5 			"/>
			<polygon class="st5" points="172.5,344.5 167.8,341.6 167.5,339.5 167.8,339.3 172.3,342.1 179.6,342.3 181.3,343.2 181.2,345.5 
				180.9,345.7 179.8,344.7 172.5,344.5 			"/>
			
				<linearGradient id="SVGID_18_" gradientUnits="userSpaceOnUse" x1="2337.9014" y1="158.1048" x2="2331.6528" y2="157.7774" gradientTransform="matrix(-1 0 0 -1 2504.6602 500)">
				<stop  offset="0" style="stop-color:#E6E7E8"/>
				<stop  offset="0.45" style="stop-color:#E6E7E8"/>
				<stop  offset="0.64" style="stop-color:#FFFFFF"/>
				<stop  offset="1" style="stop-color:#FFFFFF"/>
			</linearGradient>
			<polygon class="st27" points="172.2,344.7 167.5,341.8 167.5,339.5 172.2,342.3 			"/>
			<polygon class="st7" points="179.5,344.8 172.2,344.6 172.2,342.3 179.5,342.5 			"/>
			<polygon class="st6" points="180.9,345.7 179.5,344.8 179.5,342.5 181,343.4 			"/>
			<polygon class="st5" points="172.5,348.4 167.8,345.5 167.6,343.4 167.9,343.2 172.4,346 179.6,346.2 181.3,347.2 181.3,349.4 
				181,349.6 179.8,348.6 			"/>
			
				<linearGradient id="SVGID_19_" gradientUnits="userSpaceOnUse" x1="2337.8916" y1="154.209" x2="2331.6462" y2="153.8816" gradientTransform="matrix(-1 0 0 -1 2504.6602 500)">
				<stop  offset="0" style="stop-color:#E6E7E8"/>
				<stop  offset="0.45" style="stop-color:#E6E7E8"/>
				<stop  offset="0.64" style="stop-color:#FFFFFF"/>
				<stop  offset="1" style="stop-color:#FFFFFF"/>
			</linearGradient>
			<polygon class="st28" points="172.2,348.6 167.5,345.7 167.6,343.4 172.2,346.2 			"/>
			<polygon class="st7" points="179.5,348.7 172.2,348.5 172.2,346.2 179.5,346.4 			"/>
			<polygon class="st6" points="181,349.6 179.5,348.7 179.5,346.4 181,347.3 			"/>
			<polygon class="st5" points="172.5,352.3 167.8,349.4 167.6,347.3 167.9,347.1 172.4,349.9 179.6,350.1 181.3,351 181.3,353.4 
				181,353.5 179.8,352.5 			"/>
			
				<linearGradient id="SVGID_20_" gradientUnits="userSpaceOnUse" x1="2337.8655" y1="150.3125" x2="2331.6431" y2="149.9864" gradientTransform="matrix(-1 0 0 -1 2504.6602 500)">
				<stop  offset="0" style="stop-color:#E6E7E8"/>
				<stop  offset="0.45" style="stop-color:#E6E7E8"/>
				<stop  offset="0.64" style="stop-color:#FFFFFF"/>
				<stop  offset="1" style="stop-color:#FFFFFF"/>
			</linearGradient>
			<polygon class="st29" points="172.2,352.4 167.5,349.6 167.6,347.3 172.3,350.2 			"/>
			<polygon class="st7" points="179.5,352.7 172.2,352.4 172.3,350.2 179.5,350.3 			"/>
			<polygon class="st6" points="181,353.5 179.5,352.7 179.5,350.3 181,351.2 			"/>
		</g>
		<polygon class="st30" points="131.9,301.1 131.8,326.4 133.6,329.5 155.3,342.5 157.9,341 157.9,315.9 156,312.5 134.5,299.5 		
			"/>
		<polygon class="st31" points="133.9,304.2 133.8,325.6 135.3,328.2 153.6,339.2 155.9,337.9 155.9,316.7 154.2,313.8 136.2,302.9 
					"/>
	</g>
</g>
</svg>
