<?xml version="1.0" encoding="utf-8"?>
<!-- Generator: Adobe Illustrator 24.2.3, SVG Export Plug-In . SVG Version: 6.00 Build 0)  -->
<svg version="1.1" id="Layer_1" xmlns="http://www.w3.org/2000/svg" xmlns:xlink="http://www.w3.org/1999/xlink" x="0px" y="0px"
	 viewBox="0 0 512 512" style="enable-background:new 0 0 512 512;" xml:space="preserve">
<style type="text/css">
	.st0{fill:#F9B233;}
	.st1{fill:#FBC566;}
	.st2{fill:#2E6E99;}
	.st3{fill:#6699CC;}
	.st4{fill:#D2E3F1;}
	.st5{fill:#FFFFFF;}
	.st6{fill:#A5C6E3;}
	.st7{fill:#4A8DC6;}
	.st8{fill:#77AAD4;}
	.st9{fill:#333333;}
</style>
<g>
	<polygon class="st0" points="399.9,419.4 345.5,392.2 393.1,344.5 420.4,399 	"/>
	<polygon class="st1" points="365.9,412.6 318.2,337.7 338.7,317.3 413.6,364.9 	"/>
	<polygon class="st2" points="502.1,317.3 461.2,358.1 413.6,337.7 481.7,296.9 	"/>
	<polygon class="st3" points="481.7,296.9 440.8,337.7 393.1,317.3 461.2,276.4 	"/>
	<polygon class="st2" points="461.2,276.4 420.4,317.3 372.7,296.9 440.8,256 	"/>
	<g>
		<polygon class="st3" points="440.8,256 386.3,310.5 379.5,276.4 420.4,235.6 		"/>
		<polygon class="st3" points="461.2,358.1 420.4,399 399.9,378.6 406.8,344.5 440.8,337.7 		"/>
	</g>
	<polygon class="st2" points="440.8,337.7 399.9,378.6 379.5,358.1 386.3,324.1 420.4,317.3 	"/>
	<polygon class="st3" points="420.4,317.3 379.5,358.1 359.1,337.7 365.9,303.7 399.9,296.9 	"/>
	<g>
		
			<rect x="340.4" y="292.6" transform="matrix(0.7071 -0.7071 0.7071 0.7071 -108.9644 351.0734)" class="st2" width="57.8" height="28.9"/>
		<polygon class="st2" points="318.2,501.1 359.1,460.3 338.7,412.6 297.8,480.7 		"/>
	</g>
	<polygon class="st3" points="297.8,480.7 338.7,439.8 318.2,392.2 277.4,460.3 	"/>
	<polygon class="st2" points="277.4,460.3 318.2,419.4 297.8,371.8 257,439.8 	"/>
	<g>
		<polygon class="st3" points="257,439.8 311.4,385.4 277.4,378.6 236.5,419.4 		"/>
		<polygon class="st3" points="359.1,460.3 399.9,419.4 379.5,399 345.5,405.8 338.7,439.8 		"/>
	</g>
	<polygon class="st2" points="338.7,439.8 379.5,399 359.1,378.6 325,385.4 318.2,419.4 	"/>
	<polygon class="st3" points="318.2,419.4 359.1,378.6 338.7,358.1 304.6,364.9 297.8,399 	"/>
	
		<rect x="279.1" y="353.9" transform="matrix(0.7071 -0.7071 0.7071 0.7071 -170.2462 325.6896)" class="st3" width="57.8" height="28.9"/>
	<polygon class="st0" points="93.5,113 120.8,167.5 168.4,119.8 114,92.6 	"/>
	<polygon class="st1" points="100.3,147.1 175.2,194.7 195.7,174.3 148,99.4 	"/>
	<polygon class="st2" points="195.7,10.9 154.8,51.7 175.2,99.4 216.1,31.3 	"/>
	<polygon class="st3" points="216.1,31.3 175.2,72.2 195.7,119.8 236.5,51.7 	"/>
	<polygon class="st2" points="236.5,51.7 195.7,92.6 216.1,140.2 257,72.2 	"/>
	<g>
		<polygon class="st3" points="257,72.2 202.5,126.6 236.5,133.4 277.4,92.6 		"/>
		<polygon class="st3" points="154.8,51.7 114,92.6 134.4,113 168.4,106.2 175.2,72.2 		"/>
	</g>
	<polygon class="st2" points="175.2,72.2 134.4,113 154.8,133.4 188.9,126.6 195.7,92.6 	"/>
	<polygon class="st3" points="195.7,92.6 154.8,133.4 175.2,153.9 209.3,147.1 216.1,113 	"/>
	<g>
		
			<rect x="177" y="129.2" transform="matrix(0.7071 -0.7071 0.7071 0.7071 -41.2745 187.6555)" class="st2" width="57.8" height="28.9"/>
		<polygon class="st2" points="11.8,194.7 52.7,153.9 100.3,174.3 32.3,215.1 		"/>
	</g>
	<polygon class="st3" points="32.3,215.1 73.1,174.3 120.8,194.7 52.7,235.6 	"/>
	<polygon class="st2" points="52.7,235.6 93.5,194.7 141.2,215.1 73.1,256 	"/>
	<g>
		<polygon class="st3" points="73.1,256 127.6,201.5 134.4,235.6 93.5,276.4 		"/>
		<polygon class="st3" points="52.7,153.9 93.5,113 114,133.4 107.2,167.5 73.1,174.3 		"/>
	</g>
	<polygon class="st2" points="73.1,174.3 114,133.4 134.4,153.9 127.6,187.9 93.5,194.7 	"/>
	<polygon class="st3" points="93.5,194.7 134.4,153.9 154.8,174.3 148,208.3 114,215.1 	"/>
	
		<rect x="115.7" y="190.5" transform="matrix(0.7071 -0.7071 0.7071 0.7071 -102.5563 162.2717)" class="st2" width="57.8" height="28.9"/>
	<path class="st4" d="M434,126.6l-20.4-20.4l-81.7,81.7l61.3,20.4l40.9-40.9C445.2,156.2,445.2,137.9,434,126.6z"/>
	<path class="st5" d="M413.6,106.2L386.3,79c-11.2-11.2-29.6-11.2-40.9,0l-40.9,40.9v40.9l88.5,6.8l20.4-20.4
		C424.8,135.8,424.8,117.4,413.6,106.2z"/>
	<g>
		
			<rect x="320" y="130.4" transform="matrix(0.7071 -0.7071 0.7071 0.7071 -13.838 294.7477)" class="st6" width="57.8" height="67.4"/>
		<polygon class="st6" points="372.7,187.9 209.3,310.5 250.1,351.3 393.1,208.3 		"/>
	</g>
	
		<rect x="166.1" y="177.2" transform="matrix(0.7071 -0.7071 0.7071 0.7071 -81.1027 254.9202)" class="st4" width="202.2" height="96.3"/>
	<polygon class="st7" points="277.4,337.7 216.1,399 154.8,378.6 257,317.3 270.6,330.9 	"/>
	<polygon class="st8" points="226.3,286.6 124.2,347.9 195.7,378.6 257,317.3 	"/>
	<g>
		<polygon class="st6" points="175.2,235.6 114,296.9 144.6,368.3 226.3,286.6 		"/>
		<polygon class="st6" points="195.7,378.6 144.6,388.8 134.4,439.8 154.8,460.3 216.1,399 		"/>
	</g>
	
		<rect x="80.8" y="310.6" transform="matrix(0.7071 -0.7071 0.7071 0.7071 -224.0931 195.6913)" class="st4" width="86.7" height="115.6"/>
	<path class="st9" d="M507.2,312.2l-81.7-81.7c-2.8-2.8-7.4-2.8-10.2,0l-86.8,86.8l-17-17l127.7-127.7c14.1-14.1,14.1-37,0-51.1
		l-47.7-47.7c-14.1-14.1-37-14.1-51.1,0L212.7,201.5l-17-17l86.8-86.8c2.8-2.8,2.8-7.4,0-10.2L200.8,5.8c-2.8-2.8-7.4-2.8-10.2,0
		L6.7,189.6c-2.8,2.8-2.8,7.4,0,10.2l81.7,81.7c2.8,2.8,7.4,2.8,10.2,0l86.8-86.8l17,17l-20.4,20.4l-1.7-1.7
		c-2.8-2.8-7.4-2.8-10.2,0L52.7,347.9l-1.7-1.7c-2.8-2.8-7.4-2.8-10.2,0c-2.8,2.8-2.8,7.4,0,10.2l115.8,115.8
		c2.8,2.8,7.4,2.8,10.2,0c2.8-2.8,2.8-7.4,0-10.2l-1.7-1.7l117.5-117.5c2.8-2.8,2.8-7.4,0-10.2l-1.7-1.7l20.4-20.4l17,17l-86.8,86.8
		c-2.8,2.8-2.8,7.4,0,10.2l81.7,81.7c2.8,2.8,7.4,2.8,10.2,0l183.8-183.8C510,319.6,510,315,507.2,312.2z M103.7,194.7l30.6-30.6
		l10.2,10.2L114,204.9L103.7,194.7z M103.7,215.1l-30.6,30.6l-10.2-10.2l30.6-30.6L103.7,215.1z M62.9,153.9l30.6-30.6l10.2,10.2
		l-30.6,30.6L62.9,153.9z M195.7,164.1l-10.2-10.2l15.3-15.3c2.8-2.8,2.8-7.4,0-10.2c-2.8-2.8-7.4-2.8-10.2,0l-15.3,15.3L165,133.4
		l30.6-30.6l30.6,30.6L195.7,164.1z M205.9,92.6l30.6-30.6l10.2,10.2l-30.6,30.6L205.9,92.6z M195.7,82.4l-10.2-10.2l30.6-30.6
		l10.2,10.2L195.7,82.4L195.7,82.4z M185.5,92.6l-30.6,30.6L144.6,113l30.6-30.6L185.5,92.6z M134.4,102.8l-10.2-10.2l30.6-30.6
		L165,72.2L134.4,102.8z M114,143.7l10.2,10.2l-30.6,30.6l-10.2-10.2L114,143.7z M154.8,184.5l10.2,10.2l-30.6,30.6l-10.2-10.2
		L154.8,184.5z M103.7,113l10.2-10.2l71.5,71.5l-10.2,10.2L103.7,113z M236.5,123.2L226.3,113L257,82.4l10.2,10.2L236.5,123.2z
		 M205.9,31.3l-30.6,30.6L165,51.7l30.6-30.6C195.7,21.1,205.9,31.3,205.9,31.3z M52.7,164.1l30.6,30.6l-30.6,30.6l-10.2-10.2
		l15.3-15.3c2.8-2.8,2.8-7.4,0-10.2c-2.8-2.8-7.4-2.8-10.2,0l-15.3,15.3L22,194.7L52.7,164.1z M83.3,256l30.6-30.6l10.2,10.2
		l-30.6,30.6L83.3,256z M381.2,84.1l47.7,47.7c8.4,8.4,8.4,22.2,0,30.6l-35.7,35.7l-78.3-78.3l35.7-35.7
		C359,75.6,372.8,75.6,381.2,84.1z M62.9,358.1l51.1-51.1l10.2,10.2c2.8,2.8,7.4,2.8,10.2,0c2.8-2.8,2.8-7.4,0-10.2l-10.2-10.2
		l51.1-51.1l40.9,40.9L165,337.7l-10.2-10.2c-2.8-2.8-7.4-2.8-10.2,0c-2.8,2.8-2.8,7.4,0,10.2l61.3,61.3l-51.1,51.1L62.9,358.1z
		 M267.2,337.7l-51.1,51.1l-40.9-40.9l51.1-51.1L267.2,337.7z M192.3,242.4L304.6,130l78.3,78.3L270.6,320.7L192.3,242.4z
		 M318.2,347.9l10.2,10.2l-30.6,30.6l-10.2-10.2L318.2,347.9z M420.4,307.1l-10.2-10.2l30.6-30.6l10.2,10.2L420.4,307.1z
		 M461.2,286.6l10.2,10.2l-30.6,30.6l-10.2-10.2L461.2,286.6z M430.6,337.7l-30.6,30.6l-10.2-10.2l15.3-15.3c2.8-2.8,2.8-7.4,0-10.2
		c-2.8-2.8-7.4-2.8-10.2,0l-15.3,15.3l-10.2-10.2l30.6-30.6L430.6,337.7z M440.8,347.9l10.2,10.2l-30.6,30.6l-10.2-10.2L440.8,347.9
		z M359.1,327.5l-10.2-10.2l30.6-30.6l10.2,10.2L359.1,327.5z M338.7,327.5l71.5,71.5l-10.2,10.2l-71.5-71.5L338.7,327.5z
		 M338.7,368.3l10.2,10.2l-30.6,30.6L308,399L338.7,368.3z M308,419.4l-30.6,30.6l-10.2-10.2l30.6-30.6L308,419.4z M318.2,429.6
		l10.2,10.2l-30.6,30.6l-10.2-10.2L318.2,429.6z M328.4,419.4l30.6-30.6l10.2,10.2l-30.6,30.6L328.4,419.4z M379.5,409.2l10.2,10.2
		l-30.6,30.6l-10.2-10.2L379.5,409.2z M461.2,347.9L451,337.7l30.6-30.6l10.2,10.2L461.2,347.9z M430.6,256l-30.6,30.6l-10.2-10.2
		l30.6-30.6L430.6,256z M277.4,388.8l10.2,10.2L257,429.6l-10.2-10.2L277.4,388.8z M308,480.7l30.6-30.6l10.2,10.2l-30.6,30.6
		L308,480.7z"/>
	<circle class="st9" cx="233.1" cy="330.9" r="7.2"/>
	<circle class="st9" cx="209.3" cy="354.7" r="7.2"/>
	<path class="st9" d="M340.4,124.9l47.7,47.7c2.8,2.8,7.4,2.8,10.2,0s2.8-7.4,0-10.2l-47.7-47.7c-2.8-2.8-7.4-2.8-10.2,0
		C337.5,117.5,337.5,122.1,340.4,124.9z"/>
</g>
</svg>
