<?xml version="1.0" encoding="utf-8"?>
<!-- Generator: Adobe Illustrator 24.2.3, SVG Export Plug-In . SVG Version: 6.00 Build 0)  -->
<svg version="1.1" id="Layer_1" xmlns="http://www.w3.org/2000/svg" xmlns:xlink="http://www.w3.org/1999/xlink" x="0px" y="0px"
	 viewBox="0 0 512 512" style="enable-background:new 0 0 512 512;" xml:space="preserve">
<style type="text/css">
	.st0{fill:#F9B233;}
	.st1{fill:#FBC566;}
	.st2{fill:#2E6E99;}
	.st3{fill:#6699CC;}
	.st4{fill:#D2E3F1;}
	.st5{fill:#FFFFFF;}
	.st6{fill:#A5C6E3;}
	.st7{fill:#4A8DC6;}
	.st8{fill:#77AAD4;}
	.st9{fill:#333333;}
</style>
<g>
	<polygon class="st0" points="355.2,369.3 317.4,350.5 350.4,317.4 369.4,355.2 	"/>
	<polygon class="st1" points="331.6,364.6 298.5,312.7 312.7,298.5 364.7,331.5 	"/>
	<polygon class="st2" points="426,298.5 397.7,326.8 364.7,312.7 411.9,284.4 	"/>
	<polygon class="st3" points="411.9,284.4 383.5,312.7 350.4,298.5 397.7,270.1 	"/>
	<polygon class="st2" points="397.7,270.1 369.4,298.5 336.3,284.4 383.5,256 	"/>
	<g>
		<polygon class="st3" points="383.5,256 345.7,293.8 341,270.1 369.4,241.9 		"/>
		<polygon class="st3" points="397.7,326.8 369.4,355.2 355.2,341 359.9,317.4 383.5,312.7 		"/>
	</g>
	<polygon class="st2" points="383.5,312.7 355.2,341 341,326.8 345.7,303.2 369.4,298.5 	"/>
	<polygon class="st3" points="369.4,298.5 341,326.8 326.9,312.7 331.6,289.1 355.2,284.4 	"/>
	<g>
		
			<rect x="313.9" y="281.4" transform="matrix(0.7071 -0.7071 0.7071 0.7071 -108.2589 321.4674)" class="st2" width="40.1" height="20"/>
		<polygon class="st2" points="298.5,426 326.9,397.7 312.7,364.6 284.3,411.9 		"/>
	</g>
	<polygon class="st3" points="284.3,411.9 312.7,383.5 298.5,350.5 270.2,397.7 	"/>
	<polygon class="st2" points="270.2,397.7 298.5,369.3 284.3,336.3 256,383.5 	"/>
	<g>
		<polygon class="st3" points="256,383.5 293.8,345.8 270.2,341 241.8,369.3 		"/>
		<polygon class="st3" points="326.9,397.7 355.2,369.3 341,355.2 317.4,359.9 312.7,383.5 		"/>
	</g>
	<polygon class="st2" points="312.7,383.5 341,355.2 326.9,341 303.2,345.8 298.5,369.3 	"/>
	<polygon class="st3" points="298.5,369.3 326.9,341 312.7,326.8 289.1,331.5 284.3,355.2 	"/>
	
		<rect x="271.4" y="323.9" transform="matrix(0.7071 -0.7071 0.7071 0.7071 -150.7773 303.8658)" class="st3" width="40.1" height="20"/>
	<polygon class="st0" points="142.6,156.8 161.6,194.6 194.6,161.5 156.8,142.7 	"/>
	<polygon class="st1" points="147.3,180.5 199.3,213.5 213.5,199.3 180.4,147.4 	"/>
	<polygon class="st2" points="213.5,86 185.1,114.3 199.3,147.4 227.7,100.1 	"/>
	<polygon class="st3" points="227.7,100.1 199.3,128.5 213.5,161.5 241.8,114.3 	"/>
	<polygon class="st2" points="241.8,114.3 213.5,142.7 227.7,175.7 256,128.5 	"/>
	<g>
		<polygon class="st3" points="256,128.5 218.2,166.2 241.8,171 270.2,142.7 		"/>
		<polygon class="st3" points="185.1,114.3 156.8,142.7 171,156.8 194.6,152.1 199.3,128.5 		"/>
	</g>
	<polygon class="st2" points="199.3,128.5 171,156.8 185.1,171 208.8,166.2 213.5,142.7 	"/>
	<polygon class="st3" points="213.5,142.7 185.1,171 199.3,185.2 222.9,180.5 227.7,156.8 	"/>
	<g>
		
			<rect x="200.5" y="168" transform="matrix(0.7071 -0.7071 0.7071 0.7071 -61.3023 208.1312)" class="st2" width="40.1" height="20"/>
		<polygon class="st2" points="86,213.5 114.3,185.2 147.3,199.3 100.2,227.6 		"/>
	</g>
	<polygon class="st3" points="100.2,227.6 128.5,199.3 161.6,213.5 114.3,241.9 	"/>
	<polygon class="st2" points="114.3,241.9 142.6,213.5 175.7,227.6 128.5,256 	"/>
	<g>
		<polygon class="st3" points="128.5,256 166.3,218.2 171,241.9 142.6,270.1 		"/>
		<polygon class="st3" points="114.3,185.2 142.6,156.8 156.8,171 152.1,194.6 128.5,199.3 		"/>
	</g>
	<polygon class="st2" points="128.5,199.3 156.8,171 171,185.2 166.3,208.8 142.6,213.5 	"/>
	<polygon class="st3" points="142.6,213.5 171,185.2 185.1,199.3 180.4,222.9 156.8,227.6 	"/>
	
		<rect x="158" y="210.6" transform="matrix(0.7071 -0.7071 0.7071 0.7071 -103.8207 190.5296)" class="st2" width="40.1" height="20"/>
	<path class="st4" d="M378.8,166.2l-14.1-14.1L308,208.8l42.5,14.1l28.4-28.4C386.6,186.8,386.6,174.1,378.8,166.2z"/>
	<path class="st5" d="M364.7,152.1l-18.9-18.9c-7.8-7.8-20.5-7.8-28.4,0L289,161.6V190l61.4,4.7l14.1-14.1
		C372.4,172.6,372.4,159.9,364.7,152.1z"/>
	<g>
		
			<rect x="299.7" y="168.9" transform="matrix(0.7071 -0.7071 0.7071 0.7071 -42.2721 282.4251)" class="st6" width="40.1" height="46.7"/>
		<polygon class="st6" points="336.3,208.8 222.9,293.8 251.2,322.1 350.4,222.9 		"/>
	</g>
	
		<rect x="193" y="201.3" transform="matrix(0.7071 -0.7071 0.7071 0.7071 -88.9171 254.7859)" class="st4" width="140.2" height="66.8"/>
	<polygon class="st7" points="270.2,312.7 227.7,355.2 185.1,341 256,298.5 265.5,308 	"/>
	<polygon class="st8" points="234.7,277.2 163.9,319.7 213.5,341 256,298.5 	"/>
	<g>
		<polygon class="st6" points="199.3,241.9 156.8,284.4 178.1,333.9 234.7,277.2 		"/>
		<polygon class="st6" points="213.5,341 178.1,348.1 171,383.5 185.1,397.7 227.7,355.2 		"/>
	</g>
	
		<rect x="133.8" y="293.9" transform="matrix(0.7071 -0.7071 0.7071 0.7071 -188.1381 213.7206)" class="st4" width="60.1" height="80.2"/>
	<path class="st9" d="M429.6,295l-56.7-56.7c-1.9-1.9-5.1-1.9-7.1,0l-60.2,60.2l-11.8-11.8l88.6-88.6c9.8-9.8,9.8-25.7,0-35.4
		l-33.1-33.1c-9.8-9.8-25.7-9.8-35.4,0l-88.6,88.6l-11.8-11.8l60.2-60.2c1.9-1.9,1.9-5.1,0-7.1l-56.7-56.7c-1.9-1.9-5.1-1.9-7.1,0
		L82.4,209.9c-1.9,1.9-1.9,5.1,0,7.1l56.7,56.7c1.9,1.9,5.1,1.9,7.1,0l60.2-60.2l11.8,11.8L204,239.4l-1.2-1.2
		c-1.9-1.9-5.1-1.9-7.1,0l-81.4,81.5l-1.2-1.2c-1.9-1.9-5.1-1.9-7.1,0c-1.9,1.9-1.9,5.1,0,7.1l80.3,80.3c1.9,1.9,5.1,1.9,7.1,0
		c1.9-1.9,1.9-5.1,0-7.1l-1.2-1.2l81.5-81.5c1.9-1.9,1.9-5.1,0-7.1l-1.2-1.2l14.1-14.1l11.8,11.8l-60.2,60.2c-1.9,1.9-1.9,5.1,0,7.1
		l56.7,56.7c1.9,1.9,5.1,1.9,7.1,0l127.5-127.5C431.5,300.1,431.5,296.9,429.6,295z M149.7,213.5l21.2-21.2l7.1,7.1l-21.2,21.2
		L149.7,213.5z M149.7,227.6l-21.2,21.2l-7.1-7.1l21.2-21.2L149.7,227.6z M121.4,185.2l21.2-21.2l7.1,7.1l-21.2,21.2L121.4,185.2z
		 M213.5,192.3l-7.1-7.1l10.6-10.6c1.9-1.9,1.9-5.1,0-7.1c-1.9-1.9-5.1-1.9-7.1,0l-10.6,10.6l-7.1-7.1l21.2-21.2l21.2,21.2
		L213.5,192.3z M220.6,142.7l21.2-21.2l7.1,7.1l-21.2,21.2L220.6,142.7z M213.5,135.6l-7.1-7.1l21.2-21.2l7.1,7.1L213.5,135.6
		L213.5,135.6z M206.4,142.7l-21.2,21.2l-7.1-7.1l21.2-21.2L206.4,142.7z M171,149.7l-7.1-7.1l21.2-21.2l7.1,7.1L171,149.7z
		 M156.8,178.1l7.1,7.1l-21.2,21.2l-7.1-7.1L156.8,178.1z M185.1,206.4l7.1,7.1L171,234.7l-7.1-7.1L185.1,206.4z M149.7,156.8
		l7.1-7.1l49.6,49.6l-7.1,7.1L149.7,156.8z M241.8,163.9l-7.1-7.1l21.3-21.2l7.1,7.1L241.8,163.9z M220.6,100.1l-21.2,21.2l-7.1-7.1
		l21.2-21.2C213.5,93.1,220.6,100.1,220.6,100.1z M114.3,192.3l21.2,21.2l-21.2,21.2l-7.1-7.1l10.6-10.6c1.9-1.9,1.9-5.1,0-7.1
		c-1.9-1.9-5.1-1.9-7.1,0l-10.6,10.6l-7.1-7.1L114.3,192.3z M135.6,256l21.2-21.2l7.1,7.1l-21.2,21.2L135.6,256z M342.2,136.8
		l33.1,33.1c5.8,5.8,5.8,15.4,0,21.2l-24.8,24.8l-54.3-54.3l24.8-24.8C326.8,130.9,336.4,130.9,342.2,136.8z M121.4,326.8l35.4-35.4
		l7.1,7.1c1.9,1.9,5.1,1.9,7.1,0c1.9-1.9,1.9-5.1,0-7.1l-7.1-7.1l35.4-35.4l28.4,28.4l-35.5,35.4l-7.1-7.1c-1.9-1.9-5.1-1.9-7.1,0
		c-1.9,1.9-1.9,5.1,0,7.1l42.5,42.5l-35.4,35.4L121.4,326.8z M263.1,312.7l-35.4,35.4l-28.4-28.4l35.4-35.4L263.1,312.7z
		 M211.2,246.6l77.9-78l54.3,54.3l-77.9,78L211.2,246.6z M298.5,319.7l7.1,7.1L284.3,348l-7.1-7.1L298.5,319.7z M369.4,291.4
		l-7.1-7.1l21.2-21.2l7.1,7.1L369.4,291.4z M397.7,277.2l7.1,7.1l-21.2,21.2l-7.1-7.1L397.7,277.2z M376.4,312.7l-21.2,21.2
		l-7.1-7.1l10.6-10.6c1.9-1.9,1.9-5.1,0-7.1c-1.9-1.9-5.1-1.9-7.1,0l-10.6,10.6l-7.1-7.1l21.2-21.2L376.4,312.7z M383.5,319.7
		l7.1,7.1L369.4,348l-7.1-7.1L383.5,319.7z M326.9,305.6l-7.1-7.1l21.2-21.2l7.1,7.1L326.9,305.6z M312.7,305.6l49.6,49.6l-7.1,7.1
		l-49.6-49.6L312.7,305.6z M312.7,333.9l7.1,7.1l-21.2,21.2l-7.1-7L312.7,333.9z M291.4,369.3l-21.2,21.2l-7.1-7.1l21.2-21.2
		L291.4,369.3z M298.5,376.4l7.1,7.1l-21.2,21.2l-7.1-7.1L298.5,376.4z M305.6,369.3l21.2-21.2l7.1,7.1l-21.2,21.2L305.6,369.3z
		 M341,362.3l7.1,7.1l-21.2,21.2l-7.1-7.1L341,362.3z M397.7,319.7l-7.1-7.1l21.2-21.2l7.1,7.1L397.7,319.7z M376.4,256l-21.2,21.2
		l-7.1-7.1l21.2-21.2L376.4,256z M270.2,348.1l7.1,7.1L256,376.4l-7.1-7.1L270.2,348.1z M291.4,411.9l21.2-21.2l7.1,7.1l-21.2,21.2
		L291.4,411.9z"/>
	<circle class="st9" cx="239.5" cy="308" r="5"/>
	<circle class="st9" cx="222.9" cy="324.5" r="5"/>
	<path class="st9" d="M313.9,165.1l33.1,33.1c1.9,1.9,5.1,1.9,7.1,0c1.9-1.9,1.9-5.1,0-7.1L321,158c-1.9-1.9-5.1-1.9-7.1,0
		C311.9,159.9,311.9,163.1,313.9,165.1z"/>
</g>
</svg>
