<?xml version="1.0" encoding="utf-8"?>
<!-- Generator: Adobe Illustrator 24.3.0, SVG Export Plug-In . SVG Version: 6.00 Build 0)  -->
<svg version="1.1" id="Layer_1" xmlns="http://www.w3.org/2000/svg" xmlns:xlink="http://www.w3.org/1999/xlink" x="0px" y="0px"
	 viewBox="0 0 500 500" style="enable-background:new 0 0 500 500;" xml:space="preserve">
<style type="text/css">
	.st0{fill:#3C3C3B;}
	.st1{fill:#ACACAC;}
	.st2{fill:#C1C1C1;}
	.st3{fill:#E0E0E0;}
	.st4{fill:#706F6F;}
	.st5{opacity:0.15;fill:#1D1D1B;}
	.st6{fill:#C4E2FF;}
	.st7{opacity:0.5;fill:#FFFFFF;}
</style>
<g>
	
		<rect x="207.39" y="203.4" transform="matrix(0.7347 -0.6784 0.6784 0.7347 -92.9527 201.1283)" class="st0" width="6.56" height="32.02"/>
	
		<rect x="195.9" y="276.53" transform="matrix(0.761 -0.6487 0.6487 0.761 -130.7862 204.5785)" class="st0" width="32.78" height="6.55"/>
	<g>
		<path class="st0" d="M383.92,246.75c0-21.71-17.6-39.27-39.27-39.27c-5.66,0-10.23,17.56-10.23,39.27
			c0,21.67,4.57,39.27,10.23,39.27C366.32,286.02,383.92,268.42,383.92,246.75z"/>
		<g>
			<path class="st1" d="M230.71,292.05h121.43c6.51,0,11.78-20.28,11.78-45.3s-5.27-45.3-11.78-45.3H230.71V292.05z"/>
			<path class="st2" d="M230.71,201.45c6.5,0,11.78,20.28,11.78,45.3s-5.27,45.3-11.78,45.3s-11.78-20.28-11.78-45.3
				S224.2,201.45,230.71,201.45z"/>
		</g>
		<g>
			<path class="st0" d="M219.17,286.02h8.9c5.64,0,10.21-17.58,10.21-39.27c0-21.69-4.57-39.27-10.21-39.27h-8.9V286.02z"/>
			<ellipse class="st0" cx="219.17" cy="246.75" rx="10.21" ry="39.27"/>
		</g>
		<path class="st2" d="M202.99,275.88h14.06c4.18,0,7.57-13.04,7.57-29.13c0-16.09-3.39-29.13-7.57-29.13h-14.06V275.88z"/>
		<path class="st3" d="M202.99,217.62c4.18,0,7.57,13.04,7.57,29.13c0,16.09-3.39,29.13-7.57,29.13c-4.18,0-7.57-13.04-7.57-29.13
			C195.42,230.66,198.81,217.62,202.99,217.62z"/>
		<path class="st0" d="M182.15,246.75c0,10.41,8.44,18.83,18.83,18.83c2.71,0,4.9-8.42,4.9-18.83c0-10.39-2.19-18.83-4.9-18.83
			C190.59,227.91,182.15,236.36,182.15,246.75z"/>
		<path class="st4" d="M202.99,266.84c0.47,0,0.85,1.46,0.85,3.25s-0.38,3.25-0.85,3.25c-0.47,0-0.85-1.46-0.85-3.25
			S202.53,266.84,202.99,266.84z"/>
		<path class="st4" d="M208.03,243.5c0.47,0,0.85,1.46,0.85,3.25s-0.38,3.25-0.85,3.25s-0.85-1.46-0.85-3.25
			S207.57,243.5,208.03,243.5z"/>
		<path class="st4" d="M202.15,219.88c0.47,0,0.85,1.46,0.85,3.25s-0.38,3.25-0.85,3.25c-0.47,0-0.85-1.46-0.85-3.25
			S201.68,219.88,202.15,219.88z"/>
		<path class="st4" d="M206.34,227.91c0.47,0,0.85,1.46,0.85,3.25s-0.38,3.25-0.85,3.25c-0.47,0-0.85-1.46-0.85-3.25
			S205.87,227.91,206.34,227.91z"/>
		<path class="st4" d="M206.73,258.32c0.47,0,0.85,1.46,0.85,3.25s-0.38,3.25-0.85,3.25c-0.47,0-0.85-1.46-0.85-3.25
			S206.26,258.32,206.73,258.32z"/>
		<path class="st0" d="M345.69,237.56c5.07,0,9.19,4.11,9.19,9.19l0,0c0,5.07-4.11,9.19-9.19,9.19h-89.5
			c-5.07,0-9.19-4.11-9.19-9.19l0,0c0-5.07,4.11-9.19,9.19-9.19H345.69z"/>
		<path class="st0" d="M275.15,260.71c2.59,0,4.69,2.1,4.69,4.69s-2.1,4.69-4.69,4.69s-4.69-2.1-4.69-4.69
			S272.56,260.71,275.15,260.71z"/>
		<path class="st0" d="M291.9,260.71c2.59,0,4.69,2.1,4.69,4.69s-2.1,4.69-4.69,4.69s-4.69-2.1-4.69-4.69
			S289.31,260.71,291.9,260.71z"/>
	</g>
	<path class="st5" d="M182.79,242.12c-0.38,1.49-0.64,3.02-0.64,4.63c0,9.09,6.44,16.66,14.98,18.44c1.39,6.53,3.5,10.7,5.86,10.7
		h9.35c1.81,6.28,4.2,10.13,6.83,10.14h5.68c1.73,3.82,3.72,6.03,5.85,6.03h121.43c2.61,0,5.01-3.3,6.96-8.82
		c14.52-5.77,24.81-19.92,24.81-36.48c0-14.83-8.24-27.69-20.36-34.36C310.08,247.3,242.77,262.5,182.79,242.12z"/>
	
		<rect x="225.64" y="208.88" transform="matrix(0.696 -0.718 0.718 0.696 -78.2618 239.4622)" class="st0" width="36.07" height="6.56"/>
	
		<rect x="240.19" y="268.3" transform="matrix(0.7297 -0.6838 0.6838 0.7297 -130.4046 244.0653)" class="st0" width="6.56" height="37.31"/>
	<g>
		<g>
			<polygon class="st0" points="216.78,315.67 149.39,425 116.08,370.96 183.47,261.64 			"/>
			<path class="st6" d="M182.7,313.16l13.94-22.62l-13.17-21.36l-13.94,22.62L182.7,313.16z M198.19,338.29l13.94-22.62
				l-13.17-21.36l-13.94,22.62L198.19,338.29z M166.44,339.55l13.94-22.62l-13.17-21.36l-13.94,22.62L166.44,339.55z M181.93,364.68
				l13.94-22.62L182.7,320.7l-13.94,22.62L181.93,364.68z M150.17,365.94l13.94-22.62l-13.17-21.36L137,344.58L150.17,365.94z
				 M165.66,391.07l13.94-22.62l-13.17-21.36l-13.94,22.62L165.66,391.07z M133.9,392.33l13.94-22.62l-13.17-21.36l-13.94,22.62
				L133.9,392.33z M149.39,417.46l13.94-22.62l-13.17-21.36l-13.94,22.62L149.39,417.46z"/>
		</g>
		<g>
			<polygon class="st0" points="331.82,129.04 264.43,238.36 231.13,184.33 298.52,75 			"/>
			<path class="st6" d="M297.75,126.52l13.94-22.62l-13.17-21.36l-13.94,22.62L297.75,126.52z M313.24,151.66l13.94-22.62
				l-13.17-21.36l-13.94,22.62L313.24,151.66z M281.48,152.91l13.94-22.62l-13.17-21.36l-13.94,22.62L281.48,152.91z M296.97,178.04
				l13.94-22.62l-13.17-21.36l-13.94,22.62L296.97,178.04z M265.21,179.3l13.94-22.62l-13.17-21.36l-13.94,22.62L265.21,179.3z
				 M280.71,204.43l13.94-22.62l-13.17-21.36l-13.94,22.62L280.71,204.43z M248.95,205.69l13.94-22.62l-13.17-21.36l-13.94,22.62
				L248.95,205.69z M264.44,230.82l13.94-22.62l-13.17-21.36l-13.94,22.62L264.44,230.82z"/>
		</g>
		<g>
			<polygon class="st0" points="183.47,238.36 116.08,129.04 149.39,75 216.78,184.33 			"/>
			<path class="st6" d="M185.02,183.08l13.94,22.62l13.17-21.36l-13.94-22.62L185.02,183.08z M169.53,208.21l13.94,22.62
				l13.17-21.36l-13.94-22.62L169.53,208.21z M168.75,156.69l13.94,22.62l13.17-21.36l-13.94-22.62L168.75,156.69z M153.26,181.82
				l13.94,22.62l13.17-21.36l-13.94-22.62L153.26,181.82z M152.49,130.3l13.94,22.62l13.17-21.36l-13.94-22.62L152.49,130.3z
				 M137,155.43l13.94,22.62l13.17-21.36l-13.94-22.62L137,155.43z M136.22,103.91l13.94,22.62l13.17-21.36l-13.94-22.62
				L136.22,103.91z M120.73,129.04l13.94,22.62l13.17-21.36l-13.94-22.62L120.73,129.04z"/>
			<path class="st7" d="M185.02,183.08l1.36,2.2l-1.01-2.76L185.02,183.08z M168.75,156.69l3.73,6.06l-2.78-7.6L168.75,156.69z"/>
		</g>
		<g>
			<polygon class="st0" points="298.52,425 231.13,315.67 264.43,261.64 331.82,370.96 			"/>
			<path class="st6" d="M300.07,369.72l13.94,22.62l13.17-21.36l-13.94-22.62L300.07,369.72z M284.57,394.85l13.94,22.62
				l13.17-21.36l-13.94-22.62L284.57,394.85z M283.8,343.33l13.94,22.62l13.17-21.36l-13.94-22.62L283.8,343.33z M268.31,368.46
				l13.94,22.62l13.17-21.36l-13.94-22.62L268.31,368.46z M267.53,316.94l13.94,22.62l13.17-21.36l-13.94-22.62L267.53,316.94z
				 M252.04,342.07l13.94,22.62l13.17-21.36l-13.94-22.62L252.04,342.07z M251.27,290.55l13.94,22.62l13.17-21.36l-13.94-22.62
				L251.27,290.55z M235.77,315.68l13.94,22.62l13.17-21.36l-13.94-22.62L235.77,315.68z"/>
			<path class="st7" d="M273.54,307.18l10.4,28.37l2.61-4.23l-10.39-28.39L273.54,307.18z M308.19,401.77l2.61-4.24l-2.57-7.04
				l-10.26-16.65L308.19,401.77z M300.07,369.72l1.36,2.2l-1.01-2.76L300.07,369.72z M285.67,340.28l5.48,14.98l6.58,10.68
				l0.94-1.52l-10.4-28.38L285.67,340.28z M261.41,274.08l10.4,28.38l2.62-4.25l-10.4-28.37L261.41,274.08z M267.53,316.94
				l13.94,22.62l1.54-2.5l-10.4-28.38L267.53,316.94z M283.8,343.33l3.73,6.06l-2.78-7.6L283.8,343.33z M291.65,383.38l10.4,28.37
				l5.23-8.48l-10.4-28.37L291.65,383.38z M279.52,350.26l10.4,28.38l5.23-8.48l-0.81-2.19l-12.87-20.87L279.52,350.26z
				 M277.79,345.54l1.36-2.21l-5.36-8.7L277.79,345.54z M255.26,284.06l10.4,28.38l5.23-8.48l-10.4-28.38L255.26,284.06z"/>
		</g>
	</g>
</g>
</svg>
