<?xml version="1.0" encoding="utf-8"?>
<!-- Generator: Adobe Illustrator 24.2.3, SVG Export Plug-In . SVG Version: 6.00 Build 0)  -->
<svg version="1.1" id="Layer_1" xmlns="http://www.w3.org/2000/svg" xmlns:xlink="http://www.w3.org/1999/xlink" x="0px" y="0px"
	 viewBox="0 0 512 512" style="enable-background:new 0 0 512 512;" xml:space="preserve">
<style type="text/css">
	.st0{fill:#75967A;}
	.st1{fill:#88AA8C;}
	.st2{fill:#6F8E71;}
	.st3{fill:#6A6930;}
	.st4{fill:#7C7E38;}
	.st5{fill:#D4E1F4;}
	.st6{fill:#8CAF90;}
	.st7{fill:#B6C7DD;}
	.st8{fill:#333333;}
	.st9{fill:#284268;}
</style>
<g>
	<path class="st0" d="M444.3,440.2l-38.9-248.6l-0.5-0.5L254.2,341.8l157.7,157.7l19.4-19.4C441.7,469.7,446.6,454.9,444.3,440.2
		L444.3,440.2z"/>
	<path class="st0" d="M321.2,107.4L72.6,68.5c-14.6-2.3-29.5,2.5-39.9,13l-19.4,19.4L171,258.6l150.7-150.7L321.2,107.4z"/>
	<path class="st1" d="M487.5,60.5l11.2-46.4l-46.4,11.2c-41.3,9.9-79.1,31.1-109.1,61.1l-260,260l83.2,83.2l260-260
		C456.5,139.6,477.6,101.8,487.5,60.5L487.5,60.5z"/>
	<path class="st2" d="M452.3,25.3c-41.3,9.9-79.1,31.1-109.1,61.1l-260,260l24.6,24.6l260-260c30-30,67.8-51.2,109.1-61.1l14.1-3.4
		l7.8-32.3L452.3,25.3z"/>
	<path class="st0" d="M221.6,375.4l-0.5-0.5l-54.7,54.7l0.5,0.5l53.8,53.8l21.1-21.1L221.6,375.4z"/>
	<path class="st0" d="M137.4,291.2L50,271l-21.1,21.1l53.8,53.8l0.5,0.5l54.7-54.7L137.4,291.2z"/>
	<path class="st0" d="M321.2,107.4L72.6,68.5c-14.6-2.3-29.5,2.5-39.9,13l-19.4,19.4L171,258.6l150.7-150.7L321.2,107.4z"/>
	<path class="st3" d="M289.2,423.6l40.5,40.5l-23.6,23.6l-40.5-40.5L289.2,423.6z"/>
	<path class="st4" d="M368.5,419.4c12.5-12.5,21.3-28.2,25.4-45.4l4.6-19.3l-19.3,4.6c-17.2,4.1-32.9,12.9-45.4,25.4l-41.8,41.8
		l34.6,34.6"/>
	<path class="st3" d="M48.7,183.1l40.5,40.5l-23.6,23.6l-40.5-40.5L48.7,183.1z"/>
	<path class="st4" d="M153.5,133.5l4.6-19.3l-19.3,4.6c-17.2,4.1-32.9,12.9-45.4,25.4L51.7,186l34.6,34.6l41.8-41.8
		C140.6,166.4,149.4,150.7,153.5,133.5z"/>
	<path class="st3" d="M250.1,308.6l-57.3,57.3l18.7,18.7l9.6-9.6l47.7-47.7L250.1,308.6z"/>
	<path class="st4" d="M227.2,285.6l22.9,22.9l-57.3,57.3L169.9,343L227.2,285.6z"/>
	<path class="st3" d="M204.2,262.7l22.9,22.9L169.9,343L146.9,320L204.2,262.7z"/>
	<path class="st4" d="M185.5,244l-47.7,47.7l-9.6,9.6l18.7,18.7l57.3-57.3L185.5,244z"/>
	<path class="st5" d="M418.6,147.7L373.3,193c-1.2-29-24.5-52.3-53.5-53.5l45.3-45.3C394.1,95.5,417.4,118.7,418.6,147.7z"/>
	<path class="st6" d="M321.2,107.4L72.6,68.5c-14.6-2.3-29.5,2.5-39.9,13l-19.4,19.4l24.6,24.6l19.4-19.4
		c10.5-10.5,25.3-15.3,39.9-13l206.9,32.4l17.6-17.6L321.2,107.4z"/>
	<path class="st7" d="M319.8,139.5c12.9,0.5,25.3,5.6,34.9,14.2l45.3-45.3c-9.6-8.7-22-13.7-34.9-14.2L319.8,139.5z"/>
	<g>
		<path class="st8" d="M451.2,439.2l-38.5-245.9l18.7-18.7c30.9-30.9,52.7-69.8,63-112.4l11.2-46.4c0.9-3.7-1.4-7.5-5.1-8.4
			c-1.1-0.3-2.2-0.3-3.2,0l-46.4,11.2c-42.6,10.2-81.5,32-112.4,63l-18.7,18.7L73.7,61.7c-16.8-2.6-33.9,2.9-45.9,15L8.4,96
			c-2.7,2.7-2.7,7.1,0,9.8l56.8,56.8l-14,14c-2.6-1-5.5-0.4-7.5,1.6l-23.6,23.6c-2.7,2.7-2.7,7.1,0,9.8l40.5,40.5
			c2.7,2.7,7.1,2.7,9.8,0l23.6-23.6c2-2,2.6-4.9,1.6-7.5l14-14l51.5,51.5L136,283.8l-84.4-19.5c-2.3-0.5-4.8,0.2-6.5,1.9L24,287.2
			c-2.7,2.7-2.7,7.1,0,9.8l191.8,191.8c2.7,2.7,7.1,2.7,9.8,0l21.1-21.1c1.7-1.7,2.4-4.1,1.9-6.5L229,376.8l25.2-25.2l51.5,51.5
			l-14,14c-2.6-1-5.5-0.4-7.5,1.6l-23.6,23.6c-2.7,2.7-2.7,7.1,0,9.8l40.5,40.5c2.7,2.7,7.1,2.7,9.8,0l23.6-23.6
			c2-2,2.6-4.9,1.6-7.5l14-14l56.8,56.8c2.7,2.7,7.1,2.7,9.8,0l19.4-19.4C448.2,473,453.8,456,451.2,439.2L451.2,439.2z M83.2,336.6
			l-44.4-44.4l13.5-13.5l72.2,16.7L83.2,336.6z M65.7,237.4L35,206.7l13.8-13.8l30.7,30.7L65.7,237.4z M61.5,186l36.8-36.8
			c11.6-11.6,26.2-19.8,42.1-23.6l8.3-2l-2,8.3c-3.8,15.9-12,30.5-23.6,42.1l-36.8,36.8L61.5,186z M171,248.8l-51.5-51.5l13.5-13.5
			c13.4-13.4,22.8-30.3,27.3-48.7l4.6-19.3c0.9-3.7-1.4-7.5-5.1-8.4c-1.1-0.3-2.2-0.3-3.2,0l-19.3,4.6
			c-18.4,4.4-35.3,13.9-48.7,27.3l-13.5,13.5l-51.9-51.9l14.5-14.5c8.9-8.9,21.5-13,33.9-11.1l235.9,36.9L171,248.8z M185.5,253.9
			l8.9,8.9l-47.5,47.5l-8.9-8.9L185.5,253.9z M166.4,419.8L93,346.4l35.2-35.2l73.4,73.4L166.4,419.8z M156.7,320l47.5-47.5
			l13.1,13.1l-47.5,47.5L156.7,320z M179.7,343l47.5-47.5l13.1,13.1l-47.5,47.5L179.7,343z M211.5,374.8l-8.9-8.9l47.5-47.5l8.9,8.9
			L211.5,374.8z M268.8,317.5L195.4,244L348.1,91.3c29.1-29.1,65.8-49.7,105.8-59.3l35.4-8.5l-8.5,35.4
			c-9.6,40.1-30.1,76.7-59.3,105.8L268.8,317.5z M234.2,460.6l-13.5,13.5l-44.4-44.4l41.2-41.2L234.2,460.6z M306.2,477.8
			l-30.7-30.7l13.8-13.8l30.7,30.7L306.2,477.8z M302,426.5l36.8-36.8c11.6-11.6,26.2-19.8,42.1-23.6l8.3-2l-2,8.3
			c-3.8,15.9-12,30.5-23.6,42.1l-36.8,36.8L302,426.5z M411.9,489.7L360,437.8l13.5-13.5c13.4-13.4,22.8-30.3,27.3-48.7l4.6-19.3
			c0.9-3.7-1.4-7.5-5.1-8.4c-1.1-0.3-2.2-0.3-3.2,0l-19.3,4.6c-18.4,4.4-35.3,13.9-48.7,27.3l-13.5,13.5l-51.5-51.5l136.4-136.4
			l36.9,235.9c1.9,12.4-2.2,25-11.1,33.9L411.9,489.7z"/>
		<path class="st9" d="M365.4,87.3c-1.9-0.1-3.8,0.7-5.2,2l-45.3,45.3c-2.7,2.7-2.7,7.1,0,9.8c1.2,1.2,2.9,2,4.6,2
			c25.5,0.9,45.9,21.4,46.8,46.8c0.2,3.8,3.4,6.8,7.2,6.6c1.7-0.1,3.4-0.8,4.6-2l45.3-45.3c1.4-1.4,2.1-3.3,2-5.2
			C424.1,114.8,398,88.7,365.4,87.3z M378,178.5c-5.9-21.2-22.5-37.7-43.6-43.6l33.4-33.4c23.1,2.3,41.4,20.5,43.6,43.6L378,178.5z"
			/>
		<path class="st9" d="M311.8,158.7c-2.7-2.7-7.1-2.7-9.8,0l-5.6,5.6c-2.7,2.7-2.7,7.1,0,9.8c2.7,2.7,7.1,2.7,9.8,0l5.6-5.6
			C314.5,165.8,314.5,161.4,311.8,158.7z"/>
		<path class="st9" d="M290.4,180.1c-2.7-2.7-7.1-2.7-9.8,0l-57.5,57.5c-2.7,2.7-2.7,7.1,0,9.8c2.7,2.7,7.1,2.7,9.8,0l57.5-57.5
			C293.2,187.2,293.2,182.8,290.4,180.1z"/>
	</g>
</g>
</svg>
