<?xml version="1.0" encoding="utf-8"?>
<!-- Generator: Adobe Illustrator 24.3.0, SVG Export Plug-In . SVG Version: 6.00 Build 0)  -->
<svg version="1.1" id="Layer_1" xmlns="http://www.w3.org/2000/svg" xmlns:xlink="http://www.w3.org/1999/xlink" x="0px" y="0px"
	 viewBox="0 0 500 500" style="enable-background:new 0 0 500 500;" xml:space="preserve">
<style type="text/css">
	.st0{fill:#D1C5BD;}
	.st1{fill:#F7F4F2;}
	.st2{fill:#EA7B6C;}
	.st3{fill:#878584;}
	.st4{fill:#A3978E;}
	.st5{fill:#635952;}
</style>
<g>
	<g>
		<path class="st0" d="M207.16,347.55l145.22-145.21c7.56-7.56,7.56-19.92,0-27.48l-29.01-29.01c-7.56-7.56-19.92-7.56-27.48,0
			L150.67,291.07L207.16,347.55z"/>
		<path class="st1" d="M202.57,342.97l140.64-140.64c7.56-7.55,7.56-19.91,0-27.48l-19.84-19.84c-7.55-7.55-19.92-7.56-27.48,0
			L155.25,295.65L202.57,342.97z"/>
		<path class="st2" d="M287.88,257.68l55.33-55.34c7.56-7.55,7.56-19.91,0-27.48l-19.84-19.84c-7.55-7.55-19.92-7.56-27.48,0
			l-55.34,55.34L287.88,257.68z"/>
		<polygon class="st3" points="414.56,79.47 343.79,150.24 347.99,154.45 425.49,76.94 		"/>
		<polygon class="st0" points="343.28,144.39 329.35,156.32 341.91,168.88 353.84,154.95 		"/>
		
			<rect x="77.11" y="289.7" transform="matrix(0.7071 -0.7071 0.7071 0.7071 -166.7076 222.8042)" class="st0" width="216.98" height="45.88"/>
		
			<rect x="101.24" y="348.55" transform="matrix(0.7071 -0.7071 0.7071 0.7071 -242.5531 191.3702)" class="st0" width="17" height="79.88"/>
		<polygon class="st4" points="233.49,217.41 280.81,264.74 292.84,252.72 245.51,205.39 		"/>
		<g>
			
				<rect x="323.48" y="154.34" transform="matrix(0.7072 -0.707 0.707 0.7072 -27.3087 280.5208)" class="st5" width="3.06" height="37.78"/>
			<polygon class="st5" points="328.2,189.25 308.98,170.04 311.15,167.87 330.36,187.08 			"/>
			
				<rect x="312.81" y="170.31" transform="matrix(0.7071 -0.7071 0.7071 0.7071 -37.9655 276.1335)" class="st5" width="3.06" height="27.17"/>
			
				<rect x="307.48" y="175.64" transform="matrix(0.7071 -0.7071 0.7071 0.7071 -43.2969 273.9251)" class="st5" width="3.06" height="27.18"/>
			
				<rect x="302.14" y="180.97" transform="matrix(0.7071 -0.7071 0.7071 0.7071 -48.6307 271.7196)" class="st5" width="3.06" height="27.18"/>
			
				<rect x="296.81" y="181" transform="matrix(0.7072 -0.7071 0.7071 0.7072 -53.9683 269.48)" class="st5" width="3.06" height="37.78"/>
			<polygon class="st5" points="301.53,215.92 282.31,196.7 284.48,194.53 303.7,213.75 			"/>
			
				<rect x="286.15" y="196.97" transform="matrix(0.7071 -0.7071 0.7071 0.7071 -64.6291 265.0845)" class="st5" width="3.06" height="27.17"/>
			
				<rect x="280.81" y="202.31" transform="matrix(0.7071 -0.7071 0.7071 0.7071 -69.9645 262.8803)" class="st5" width="3.06" height="27.17"/>
			
				<rect x="275.48" y="207.63" transform="matrix(0.7071 -0.7071 0.7071 0.7071 -75.2945 260.6706)" class="st5" width="3.06" height="27.18"/>
			
				<rect x="270.15" y="207.67" transform="matrix(0.7071 -0.7071 0.7071 0.7071 -80.6272 258.4637)" class="st5" width="3.06" height="37.78"/>
			<polygon class="st5" points="274.87,242.58 255.65,223.36 257.82,221.2 277.03,240.42 			"/>
			
				<rect x="259.48" y="223.63" transform="matrix(0.7072 -0.707 0.707 0.7072 -91.2943 253.9984)" class="st5" width="3.06" height="27.18"/>
			
				<rect x="254.15" y="228.97" transform="matrix(0.7071 -0.7071 0.7071 0.7071 -96.6276 251.8389)" class="st5" width="3.06" height="27.18"/>
			
				<rect x="248.82" y="234.3" transform="matrix(0.7072 -0.707 0.707 0.7072 -101.9597 249.59)" class="st5" width="3.06" height="27.17"/>
			
				<rect x="243.48" y="234.33" transform="matrix(0.7071 -0.7071 0.7071 0.7071 -107.293 247.4164)" class="st5" width="3.06" height="37.78"/>
			
				<rect x="238.15" y="244.97" transform="matrix(0.7071 -0.7071 0.7071 0.7071 -112.6236 245.2077)" class="st5" width="3.06" height="27.17"/>
			
				<rect x="232.82" y="250.3" transform="matrix(0.7071 -0.7071 0.7071 0.7071 -117.9586 242.9998)" class="st5" width="3.06" height="27.18"/>
			
				<rect x="227.49" y="255.63" transform="matrix(0.7071 -0.7071 0.7071 0.7071 -123.29 240.7916)" class="st5" width="3.06" height="27.18"/>
			
				<rect x="222.15" y="260.96" transform="matrix(0.7069 -0.7073 0.7073 0.7069 -128.6298 238.6616)" class="st5" width="3.07" height="27.18"/>
			
				<rect x="216.82" y="260.99" transform="matrix(0.7071 -0.7071 0.7071 0.7071 -133.9549 236.372)" class="st5" width="3.06" height="37.78"/>
			
				<rect x="211.49" y="271.63" transform="matrix(0.7072 -0.707 0.707 0.7072 -139.2823 234.1181)" class="st5" width="3.06" height="27.18"/>
			<polygon class="st5" points="216.21,301.25 196.99,282.03 199.16,279.86 218.37,299.07 			"/>
			
				<rect x="200.82" y="282.3" transform="matrix(0.7071 -0.7071 0.7071 0.7071 -149.9541 229.7425)" class="st5" width="3.06" height="27.17"/>
			
				<rect x="195.49" y="287.63" transform="matrix(0.7072 -0.707 0.707 0.7072 -155.2796 227.4938)" class="st5" width="3.06" height="27.18"/>
			
				<rect x="190.15" y="287.66" transform="matrix(0.7071 -0.7072 0.7072 0.7071 -160.6257 225.3548)" class="st5" width="3.06" height="37.78"/>
		</g>
		
			<rect x="165.57" y="273.43" transform="matrix(0.7071 -0.7071 0.7071 0.7071 -176.3401 218.8018)" class="st0" width="20.78" height="97.68"/>
		<polygon class="st4" points="138.82,290.34 134.08,295.08 203.15,364.16 207.89,359.42 		"/>
	</g>
</g>
</svg>
