<?xml version="1.0" encoding="utf-8"?>
<!-- Generator: Adobe Illustrator 24.2.3, SVG Export Plug-In . SVG Version: 6.00 Build 0)  -->
<svg version="1.1" id="Layer_1" xmlns="http://www.w3.org/2000/svg" xmlns:xlink="http://www.w3.org/1999/xlink" x="0px" y="0px"
	 viewBox="0 0 512 512" style="enable-background:new 0 0 512 512;" xml:space="preserve">
<style type="text/css">
	.st0{fill:#75967A;}
	.st1{fill:#88AA8C;}
	.st2{fill:#6F8E71;}
	.st3{fill:#6A6930;}
	.st4{fill:#7C7E38;}
	.st5{fill:#D4E1F4;}
	.st6{fill:#8CAF90;}
	.st7{fill:#B6C7DD;}
	.st8{fill:#333333;}
	.st9{fill:#284268;}
</style>
<g>
	<path class="st0" d="M369.1,366.2l-23.4-149.3l-0.3-0.3l-90.5,90.5l94.7,94.7l11.7-11.7C367.5,383.9,370.4,375,369.1,366.2
		L369.1,366.2z"/>
	<path class="st0" d="M295.1,166.3l-149.3-23.4c-8.8-1.4-17.7,1.5-24,7.8l-11.7,11.7l94.7,94.7l90.5-90.5L295.1,166.3z"/>
	<path class="st1" d="M395,138.1l6.7-27.9l-27.9,6.7c-24.8,5.9-47.5,18.7-65.5,36.7L152.1,309.9l50,50l156.2-156.2
		C376.4,185.6,389.1,162.9,395,138.1L395,138.1z"/>
	<path class="st2" d="M373.9,117c-24.8,5.9-47.5,18.7-65.5,36.7L152.1,309.9l14.8,14.8l156.2-156.2c18-18,40.7-30.8,65.5-36.7l8.5-2
		l4.7-19.4L373.9,117z"/>
	<path class="st0" d="M235.3,327.3L235,327l-32.9,32.9l0.3,0.3l32.3,32.3l12.7-12.7L235.3,327.3z"/>
	<path class="st0" d="M184.7,276.7l-52.5-12.1l-12.7,12.7l32.3,32.3l0.3,0.3L185,277L184.7,276.7z"/>
	<path class="st0" d="M295.1,166.3l-149.3-23.4c-8.8-1.4-17.7,1.5-24,7.8l-11.7,11.7l94.7,94.7l90.5-90.5L295.1,166.3z"/>
	<path class="st3" d="M275.9,356.2l24.3,24.3L286,394.7l-24.3-24.3L275.9,356.2z"/>
	<path class="st4" d="M323.5,353.7c7.5-7.5,12.8-16.9,15.3-27.3l2.8-11.6l-11.6,2.8c-10.3,2.5-19.8,7.7-27.3,15.3L277.6,358
		l20.8,20.8"/>
	<path class="st3" d="M131.4,211.8l24.3,24.3l-14.2,14.2l-24.3-24.3L131.4,211.8z"/>
	<path class="st4" d="M194.4,182l2.8-11.6l-11.6,2.8c-10.3,2.5-19.8,7.7-27.3,15.3l-25,25.1l20.8,20.8l25.1-25.1
		C186.6,201.7,191.9,192.3,194.4,182z"/>
	<path class="st3" d="M252.4,287.1L218,321.6l11.2,11.2l5.8-5.8l28.7-28.7L252.4,287.1z"/>
	<path class="st4" d="M238.6,273.3l13.8,13.8L218,321.5l-13.8-13.7L238.6,273.3z"/>
	<path class="st3" d="M224.8,259.6l13.8,13.8l-34.4,34.5L190.4,294L224.8,259.6z"/>
	<path class="st4" d="M213.6,248.3L184.9,277l-5.8,5.8l11.2,11.2l34.4-34.4L213.6,248.3z"/>
	<path class="st5" d="M353.6,190.5l-27.2,27.2c-0.7-17.4-14.7-31.4-32.1-32.1l27.2-27.2C338.9,159.1,352.9,173.1,353.6,190.5z"/>
	<path class="st6" d="M295.1,166.3l-149.3-23.4c-8.8-1.4-17.7,1.5-24,7.8l-11.7,11.7l14.8,14.8l11.7-11.7c6.3-6.3,15.2-9.2,24-7.8
		l124.3,19.5l10.6-10.6L295.1,166.3z"/>
	<path class="st7" d="M294.3,185.6c7.7,0.3,15.2,3.4,21,8.5l27.2-27.2c-5.8-5.2-13.2-8.2-21-8.5L294.3,185.6z"/>
	<g>
		<path class="st8" d="M373.2,365.6l-23.1-147.7l11.2-11.2c18.6-18.6,31.7-41.9,37.8-67.5l6.7-27.9c0.5-2.2-0.8-4.5-3.1-5
			c-0.7-0.2-1.3-0.2-1.9,0l-27.9,6.7c-25.6,6.1-49,19.2-67.5,37.8L294.3,162l-147.8-23.2c-10.1-1.6-20.4,1.7-27.6,9l-11.7,11.6
			c-1.6,1.6-1.6,4.3,0,5.9l34.1,34.1l-8.4,8.4c-1.6-0.6-3.3-0.2-4.5,1L114.2,223c-1.6,1.6-1.6,4.3,0,5.9l24.3,24.3
			c1.6,1.6,4.3,1.6,5.9,0l14.2-14.2c1.2-1.2,1.6-2.9,1-4.5l8.4-8.4l30.9,30.9l-15.1,15.2l-50.7-11.7c-1.4-0.3-2.9,0.1-3.9,1.1
			l-12.7,12.6c-1.6,1.6-1.6,4.3,0,5.9l115.2,115.2c1.6,1.6,4.3,1.6,5.9,0l12.7-12.7c1-1,1.4-2.5,1.1-3.9l-11.8-50.7l15.1-15.1
			l30.9,30.9l-8.4,8.4c-1.6-0.6-3.3-0.2-4.5,1l-14.2,14.2c-1.6,1.6-1.6,4.3,0,5.9l24.3,24.3c1.6,1.6,4.3,1.6,5.9,0l14.2-14.2
			c1.2-1.2,1.6-2.9,1-4.5l8.4-8.4l34.1,34.1c1.6,1.6,4.3,1.6,5.9,0l11.7-11.7C371.4,385.9,374.8,375.7,373.2,365.6L373.2,365.6z
			 M152.1,304l-26.7-26.7l8.1-8.1l43.4,10L152.1,304z M141.6,244.4l-18.4-18.4l8.3-8.3l18.4,18.4L141.6,244.4z M139.1,213.5
			l22.1-22.1c7-7,15.7-11.9,25.3-14.2l5-1.2l-1.2,5c-2.3,9.6-7.2,18.3-14.2,25.3L154,228.4L139.1,213.5z M204.9,251.2L174,220.3
			l8.1-8.1c8-8,13.7-18.2,16.4-29.3l2.8-11.6c0.5-2.2-0.8-4.5-3.1-5c-0.7-0.2-1.3-0.2-1.9,0l-11.6,2.8c-11.1,2.6-21.2,8.3-29.3,16.4
			l-8.1,8.1l-31.2-31.2l8.7-8.7c5.3-5.3,12.9-7.8,20.4-6.7l141.7,22.2L204.9,251.2z M213.6,254.3l5.3,5.3l-28.5,28.5l-5.3-5.3
			L213.6,254.3z M202.1,353.9L158,309.9l21.1-21.1l44.1,44.1L202.1,353.9z M196.3,294l28.5-28.5l7.9,7.9l-28.5,28.5L196.3,294z
			 M210.1,307.8l28.5-28.5l7.9,7.9L218,315.7L210.1,307.8z M229.2,326.9l-5.3-5.3l28.5-28.5l5.3,5.3L229.2,326.9z M263.6,292.5
			l-44.1-44.2l91.7-91.7c17.5-17.5,39.5-29.9,63.6-35.6l21.3-5.1l-5.1,21.3c-5.8,24.1-18.1,46.1-35.6,63.6L263.6,292.5z
			 M242.9,378.5l-8.1,8.1l-26.7-26.7l24.7-24.7L242.9,378.5z M286.1,388.8l-18.4-18.4l8.3-8.3l18.4,18.4L286.1,388.8z M283.6,358
			l22.1-22.1c7-7,15.7-11.9,25.3-14.2l5-1.2l-1.2,5c-2.3,9.6-7.2,18.3-14.2,25.3l-22.1,22.1L283.6,358z M349.6,395.9l-31.2-31.2
			l8.1-8.1c8-8,13.7-18.2,16.4-29.3l2.8-11.6c0.5-2.2-0.8-4.5-3.1-5c-0.7-0.2-1.3-0.2-1.9,0l-11.6,2.8c-11.1,2.6-21.2,8.3-29.3,16.4
			l-8.1,8.1l-30.9-30.9l81.9-81.9l22.2,141.7c1.1,7.4-1.3,15-6.7,20.4L349.6,395.9z"/>
		<path class="st9" d="M321.7,154.2c-1.1-0.1-2.3,0.4-3.1,1.2l-27.2,27.2c-1.6,1.6-1.6,4.3,0,5.9c0.7,0.7,1.7,1.2,2.8,1.2
			c15.3,0.5,27.6,12.9,28.1,28.1c0.1,2.3,2,4.1,4.3,4c1-0.1,2-0.5,2.8-1.2l27.2-27.2c0.8-0.8,1.3-2,1.2-3.1
			C356.9,170.7,341.2,155.1,321.7,154.2z M329.2,209c-3.5-12.7-13.5-22.6-26.2-26.2l20.1-20.1c13.9,1.4,24.9,12.3,26.2,26.2
			L329.2,209z"/>
		<path class="st9" d="M289.5,197.1c-1.6-1.6-4.3-1.6-5.9,0l-3.4,3.4c-1.6,1.6-1.6,4.3,0,5.9c1.6,1.6,4.3,1.6,5.9,0l3.4-3.4
			C291.1,201.4,291.1,198.7,289.5,197.1z"/>
		<path class="st9" d="M276.6,210c-1.6-1.6-4.3-1.6-5.9,0l-34.5,34.5c-1.6,1.6-1.6,4.3,0,5.9c1.6,1.6,4.3,1.6,5.9,0l34.5-34.5
			C278.3,214.2,278.3,211.6,276.6,210z"/>
	</g>
</g>
</svg>
