<?xml version="1.0" encoding="utf-8"?>
<!-- Generator: Adobe Illustrator 24.2.3, SVG Export Plug-In . SVG Version: 6.00 Build 0)  -->
<svg version="1.1" id="Layer_1" xmlns="http://www.w3.org/2000/svg" xmlns:xlink="http://www.w3.org/1999/xlink" x="0px" y="0px"
	 viewBox="0 0 512 512" style="enable-background:new 0 0 512 512;" xml:space="preserve">
<style type="text/css">
	.st0{fill:#EB423F;}
	.st1{fill:#CC3A3A;}
	.st2{fill:#FFFFFF;}
	.st3{fill:#ACACAC;}
	.st4{fill:#9C9C9C;}
	.st5{fill:#838383;}
	.st6{fill:#5A5A5A;}
	.st7{fill:#EAF6FF;}
	.st8{fill:#D8ECFE;}
	.st9{fill:#26A6FE;}
	.st10{fill:#0593FC;}
	.st11{fill:#333333;}
</style>
<g>
	<g>
		<path class="st0" d="M221.7,239.2v-14.6c0-27.1,14.3-51,35.7-64.7c3.5-2.2,8-2.2,11.6,0c21.4,13.6,35.7,37.5,35.7,64.7v14.6
			l16.7,33.7V118.6c0-39-21-83.6-52.3-103.5c-3.5-2.3-8.1-2.3-11.7,0C226.1,35,205,79.7,205,118.6v154.3L221.7,239.2z"/>
		<g>
			<path class="st1" d="M214.4,224.6c0-20.1,7.1-39.1,19.8-54v-52c0-8.3,1-16.8,2.7-25.3V80.9h-18.2c-4.1,12.4-6.4,25.3-6.4,37.7
				v123.1l2.1-4.2V224.6z"/>
		</g>
		<path class="st2" d="M244.2,73.6v21.9c0,2.7,2.2,4.9,4.9,4.9h28.2c2.7,0,4.9-2.2,4.9-4.9V73.6L244.2,73.6z"/>
		<g>
			<path class="st0" d="M312.9,73.6C304,49.4,288.5,27.5,269,15.1c-3.5-2.3-8.1-2.3-11.7,0c-19.4,12.4-34.9,34.4-43.9,58.5H312.9z"
				/>
		</g>
		<g>
			<path class="st1" d="M277.8,21.5c-2.8-2.4-5.7-4.5-8.7-6.4c-3.5-2.3-8.1-2.3-11.7,0c-19.4,12.4-34.9,34.4-43.9,58.5h29.2
				C250.2,53.2,262.5,34.3,277.8,21.5z"/>
		</g>
	</g>
	<g>
		<g>
			<g>
				<path class="st3" d="M349.9,330.5c1.9,3.9,4.8,7.3,8.3,9.9l31.9,23.6V187.9c0-5.1-1-10.1-3-14.8l-13.6-32.4c-1.7-4-7.3-4-9,0
					l-13.6,32.4c-2,4.7-3,9.7-3,14.8v139L349.9,330.5z"/>
				<path class="st3" d="M390.1,416.6l-42,10.8v41.6h42V416.6z"/>
			</g>
			<g>
				<path class="st4" d="M367.6,422.4l-19.4,5v41.6h19.4V422.4z"/>
				<path class="st4" d="M349.9,330.5c1.9,3.9,4.8,7.3,8.3,9.9l9.4,6.9V187.9c0-5.1,1-10.1,3-14.8l8.3-19.9l-5.2-12.5
					c-1.7-4-7.3-4-9,0l-13.6,32.4c-2,4.7-3,9.7-3,14.8v139L349.9,330.5z"/>
			</g>
			<g>
				<path class="st0" d="M348.1,215.6h42v73.5h-42V215.6z"/>
			</g>
			<g>
				<path class="st1" d="M348.1,215.6h19.4v73.5h-19.4V215.6z"/>
			</g>
			<g>
				<path class="st5" d="M390.5,496.5h-42.7c-3.6,0-6.3-3.5-5.3-6.9l5.6-20.5h42l5.6,20.5C396.7,493,394.1,496.5,390.5,496.5z"/>
			</g>
			<g>
				<path class="st6" d="M361.9,489.6l5.6-20.5h-19.4l-5.6,20.5c-1,3.5,1.7,6.9,5.3,6.9h19.4C363.6,496.5,360.9,493,361.9,489.6z"/>
			</g>
		</g>
		<g>
			<g>
				<path class="st3" d="M168.2,340.4c3.5-2.6,6.4-6,8.3-9.9l1.8-3.6v-139c0-5.1-1-10.1-3-14.8l-13.6-32.4c-1.7-4-7.3-4-9,0
					l-13.6,32.4c-2,4.7-3,9.7-3,14.8V364L168.2,340.4z"/>
				<path class="st3" d="M178.3,427.4l-42-10.8v52.5h42V427.4z"/>
			</g>
			<g>
				<path class="st4" d="M155.7,349.7V187.9c0-5.1,1-10.1,3-14.8l8.3-19.9l-5.2-12.5c-1.7-4-7.3-4-9,0l-13.6,32.4
					c-2,4.7-3,9.7-3,14.8V364L155.7,349.7z"/>
				<path class="st4" d="M155.7,421.6l-19.4-5v52.5h19.4V421.6z"/>
			</g>
			<g>
				<path class="st0" d="M136.3,215.6h42v73.5h-42V215.6z"/>
			</g>
			<g>
				<path class="st1" d="M136.3,215.6h19.4v73.5h-19.4V215.6z"/>
			</g>
			<g>
				<path class="st5" d="M178.7,496.5h-42.7c-3.6,0-6.3-3.5-5.3-6.9l5.6-20.5h42l5.6,20.5C184.9,493,182.3,496.5,178.7,496.5z"/>
			</g>
			<g>
				<path class="st6" d="M150.1,489.6l5.6-20.5h-19.4l-5.6,20.5c-1,3.5,1.7,6.9,5.3,6.9h19.4C151.8,496.5,149.1,493,150.1,489.6z"/>
			</g>
		</g>
	</g>
	<g>
		<path class="st7" d="M207.2,425c0-5.4,4.4-9.7,9.7-9.7h4.7V239.2l-45.2,91.3c-1.9,3.9-4.8,7.3-8.3,9.9L120.1,376
			c-1.2,0.9-2,2.4-2,3.9v28.2c0,2.2,1.5,4.2,3.6,4.7l85.5,22.1V425z"/>
		<path class="st7" d="M406.3,376l-48.2-35.6c-3.5-2.6-6.4-6-8.3-9.9l-45.2-91.3v176.1h4.7c5.4,0,9.7,4.4,9.7,9.7v9.9l85.5-22.1
			c2.1-0.6,3.6-2.5,3.6-4.7v-28.2C408.3,378.4,407.6,376.9,406.3,376z"/>
	</g>
	<g>
		<path class="st8" d="M221.7,239.2l-45.2,91.3c-1.9,3.9-4.8,7.3-8.3,9.9L120.1,376c-1.2,0.9-2,2.4-2,3.9v28.2
			c0,2.2,1.5,4.2,3.6,4.7l15.8,4.1v-27.3c0-1.5,0.7-3,2-3.9l48.2-35.6c3.5-2.6,6.4-6,8.3-9.9l25.7-52L221.7,239.2z"/>
	</g>
	<path class="st4" d="M304.7,416.3V224.6c0-27.1-14.3-51-35.7-64.7c-3.5-2.2-8-2.2-11.6,0c-21.4,13.6-35.7,37.5-35.7,64.7v191.6
		H304.7z"/>
	<path class="st5" d="M250.9,416.3V224.6c0-23.2,10.5-44.1,26.9-58.1c-2.8-2.4-5.7-4.6-8.8-6.5c-3.5-2.2-8-2.2-11.6,0
		c-21.4,13.6-35.7,37.5-35.7,64.7v191.6L250.9,416.3L250.9,416.3z"/>
	<g>
		<path class="st9" d="M257.4,160c-17.3,11-29.9,28.7-34.2,49.3h79.9c-4.2-20.7-16.9-38.4-34.2-49.3
			C265.5,157.7,260.9,157.7,257.4,160L257.4,160z"/>
	</g>
	<g>
		<path class="st10" d="M223.3,209.3h29.2c3.5-17,12.6-31.9,25.4-42.8c-2.8-2.4-5.7-4.6-8.8-6.5c-3.5-2.2-8-2.2-11.6,0
			C240.1,171,227.5,188.7,223.3,209.3L223.3,209.3z"/>
	</g>
	<g>
		<path class="st5" d="M224.8,462v29.6c0,2.7,2.2,4.9,4.9,4.9h67.1c2.7,0,4.9-2.2,4.9-4.9V462H224.8z"/>
		<path class="st6" d="M254,491.6V462h-29.2v29.6c0,2.7,2.2,4.9,4.9,4.9h29.2C256.1,496.5,254,494.3,254,491.6z"/>
		<g>
			<path class="st9" d="M314.3,462H212.1c-2.7,0-4.9-2.2-4.9-4.9V425c0-5.4,4.4-9.7,9.7-9.7h92.5c5.4,0,9.7,4.4,9.7,9.7v32.2
				C319.2,459.9,317,462,314.3,462z"/>
		</g>
		<g>
			<path class="st10" d="M236.4,457.2V425c0-5.4,4.4-9.7,9.7-9.7H217c-5.4,0-9.7,4.4-9.7,9.7v32.2c0,2.7,2.2,4.9,4.9,4.9h29.2
				C238.6,462,236.4,459.9,236.4,457.2z"/>
		</g>
	</g>
	<g>
		<path class="st11" d="M410.7,370.1l-13.3-9.8v-93.1c0-4-3.3-7.3-7.3-7.3s-7.3,3.3-7.3,7.3v14.6h-27.4v-58.9h27.4v9.7
			c0,4,3.3,7.3,7.3,7.3s7.3-3.3,7.3-7.3v-44.7c0-6.1-1.2-12-3.5-17.6l-13.6-32.4c-1.9-4.5-6.3-7.5-11.2-7.5c-4.9,0-9.3,2.9-11.2,7.5
			l-13.6,32.4c-2.3,5.6-3.5,11.5-3.5,17.6v107.8l-12.2-24.6V167.8c0-4-3.3-7.3-7.3-7.3c-4,0-7.3,3.3-7.3,7.3v73.9l-2.1-4.2v-12.9
			c0-28.8-14.6-55.3-39.1-70.8h0c-5.9-3.7-13.5-3.7-19.4,0c-24.5,15.6-39.1,42-39.1,70.8v12.9l-2.1,4.2V118.6
			c0-12.5,2.3-25.4,6.4-37.7H237v14.6c0,6.7,5.5,12.2,12.2,12.2h28.2c6.7,0,12.2-5.5,12.2-12.2V80.9h18.2
			c4.1,12.4,6.4,25.3,6.4,37.7v15.5c0,4,3.3,7.3,7.3,7.3c4,0,7.3-3.3,7.3-7.3v-15.5c0-42.9-23.4-89.1-55.7-109.7
			c-5.9-3.8-13.6-3.8-19.5,0c-32.3,20.6-55.7,66.8-55.7,109.7v152.6l-12.2,24.6V187.9c0-6.1-1.2-12-3.5-17.6l-13.6-32.4
			c-1.9-4.5-6.3-7.5-11.2-7.5c-4.9,0-9.3,2.9-11.2,7.5l-13.6,32.4c-2.3,5.6-3.5,11.5-3.5,17.6v172.4l-13.3,9.8
			c-3.1,2.3-4.9,5.9-4.9,9.8v28.2c0,5.5,3.7,10.4,9.1,11.8l9.1,2.3v45.9l-5.4,19.5c-1.1,3.9-0.3,7.9,2.2,11.1c2.4,3.2,6.1,5,10.2,5
			h42.7c4,0,7.7-1.8,10.2-5c2.4-3.2,3.2-7.3,2.2-11.1l-5.4-19.5v-31.2l14.4,3.7v16.6c0,6.7,5.5,12.2,12.2,12.2h5.4v22.3
			c0,6.7,5.5,12.2,12.2,12.2h67.1c6.7,0,12.2-5.5,12.2-12.2v-22.3h5.4c6.7,0,12.2-5.5,12.2-12.2v-16.6l14.4-3.7v31.2l-5.4,19.5
			c-1.1,3.9-0.3,7.9,2.2,11.1c2.4,3.2,6.1,5,10.2,5h42.7c4,0,7.7-1.8,10.2-5c2.4-3.2,3.2-7.3,2.2-11.1l-5.4-19.5v-45.9l9.1-2.3
			c5.4-1.4,9.1-6.2,9.1-11.8v-28.2C415.6,376.1,413.8,372.4,410.7,370.1L410.7,370.1z M355.4,187.9c0-4.1,0.8-8.1,2.4-12l11.3-27.1
			l11.3,27.1c1.6,3.8,2.4,7.8,2.4,12v20.4h-27.4L355.4,187.9L355.4,187.9z M274.9,93.1h-23.3V80.9h23.3V93.1z M261.3,21.2
			c1.2-0.7,2.7-0.7,3.8,0c15,9.6,28,26.1,36.8,45.1h-77.4C233.3,47.2,246.3,30.8,261.3,21.2z M143.6,187.9c0-4.1,0.8-8.1,2.4-12
			l11.3-27.1l11.3,27.1c1.6,3.8,2.4,7.8,2.4,12v20.4h-27.4V187.9z M143.6,222.9H171v58.9h-27.4V222.9z M143.6,296.4H171v28.8l-1,2.1
			c-1.4,2.9-3.5,5.4-6.1,7.3l-20.3,15L143.6,296.4L143.6,296.4z M138.3,489.2l3.5-12.9h30.9l3.5,12.9H138.3z M143.6,461.8V426
			l27.4,7.1v28.7L143.6,461.8z M214.4,408.2c-8.2,1.2-14.5,8.3-14.5,16.8v0.5l-74.6-19.3v-25.1l47.2-34.8c4.4-3.3,8.1-7.6,10.5-12.5
			l31.4-63.4V408.2z M355.4,296.4h27.4v53.2l-20.3-15c-2.6-1.9-4.7-4.4-6.1-7.3l-1-2.1L355.4,296.4L355.4,296.4z M261.3,166.1
			c1.1-0.7,2.6-0.7,3.7,0c13.6,8.6,23.5,21.3,28.5,35.9h-60.8C237.8,187.4,247.8,174.8,261.3,166.1L261.3,166.1z M294.3,489.2h-62.2
			v-19.9h62.2V489.2z M311.9,454.8h-97.3V425c0-1.3,1.1-2.4,2.4-2.4h37.5c4,0,7.3-3.3,7.3-7.3c0-4-3.3-7.3-7.3-7.3H229V224.6
			c0-2.7,0.2-5.4,0.5-8h67.5c0.3,2.6,0.5,5.3,0.5,8V408h-8c-4,0-7.3,3.3-7.3,7.3c0,4,3.3,7.3,7.3,7.3h20c1.3,0,2.4,1.1,2.4,2.4
			L311.9,454.8L311.9,454.8z M350.1,489.2l3.5-12.9h30.9l3.5,12.9H350.1z M355.4,461.8v-28.7l27.4-7.1v35.8L355.4,461.8L355.4,461.8
			z M401,406.2l-74.6,19.3V425c0-8.5-6.3-15.6-14.5-16.8V270.4l31.4,63.4c2.4,4.9,6.1,9.3,10.5,12.5l47.2,34.8V406.2z"/>
		<path class="st11" d="M286,249.1c0-4-3.3-7.3-7.3-7.3h-31.1c-4,0-7.3,3.3-7.3,7.3c0,4,3.3,7.3,7.3,7.3h31.1
			C282.8,256.4,286,253.1,286,249.1z"/>
		<path class="st11" d="M172.1,368.6v28.2c0,4,3.3,7.3,7.3,7.3c4,0,7.3-3.3,7.3-7.3v-28.2c0-4-3.3-7.3-7.3-7.3
			C175.4,361.4,172.1,364.6,172.1,368.6z"/>
		<path class="st11" d="M347,361.4c-4,0-7.3,3.3-7.3,7.3v28.2c0,4,3.3,7.3,7.3,7.3c4,0,7.3-3.3,7.3-7.3v-28.2
			C354.3,364.6,351,361.4,347,361.4z"/>
	</g>
</g>
</svg>
