<?xml version="1.0" encoding="utf-8"?>
<!-- Generator: Adobe Illustrator 24.3.0, SVG Export Plug-In . SVG Version: 6.00 Build 0)  -->
<svg version="1.1" id="Layer_1" xmlns="http://www.w3.org/2000/svg" xmlns:xlink="http://www.w3.org/1999/xlink" x="0px" y="0px"
	 viewBox="0 0 500 500" style="enable-background:new 0 0 500 500;" xml:space="preserve">
<style type="text/css">
	.st0{fill:#E6E6E6;}
	.st1{fill:#A6A6A6;}
	.st2{fill:#262626;}
	.st3{fill:#FFFFFF;}
	.st4{fill:#D4C5B9;}
	.st5{fill:#FFCC66;}
	.st6{fill:#333333;}
	.st7{fill:#D1D1D1;}
	.st8{fill:#969696;}
	.st9{fill:#BDBDBD;}
</style>
<g>
	<g>
		<g>
			<g>
				<path class="st0" d="M261.52,400.08c-0.01,0-0.14,0.54-0.14,0.54C261.38,400.62,261.52,400.08,261.52,400.08z"/>
			</g>
		</g>
		<g>
			<g>
				<path class="st1" d="M260.34,390l0.15,0.51C260.46,390.37,260.4,390.19,260.34,390z"/>
			</g>
		</g>
		<g>
			<g>
				<polygon class="st0" points="309.78,392.42 312.22,401.96 308.16,401.97 307.61,398.93 303.13,398.94 303.68,401.99 
					290.08,402.03 290.2,398.98 276.33,399.03 275.86,402.07 272.69,402.08 273.35,399.04 269.35,399.05 268.78,402.1 264.6,402.11 
					266.98,392.56 266.05,392.56 263.48,402.86 313.34,402.7 310.71,392.42 				"/>
			</g>
		</g>
		<g>
			<g>
				<path class="st0" d="M270.56,392.55l-0.81,4.33c-0.81,0.05-1.63,0.09-2.44,0.14c6.96,0.43,13.93,0.51,20.89,0.5
					c6.96-0.04,13.92-0.17,20.88-0.64c-0.62-0.04-1.24-0.06-1.86-0.1l-0.79-4.36l-4.48,0.01l0.75,4.15
					c-4.13-0.15-8.26-0.2-12.39-0.2l0.16-3.91l-2.09,0.01l-11.04,0.04l-0.63,4.05c-0.95,0.03-1.9,0.07-2.86,0.1l0.9-4.14
					L270.56,392.55z"/>
			</g>
		</g>
		<g>
			<g>
				<path class="st1" d="M312.56,389.21l-24.15,0.08c0.93-1.17,1.8-2.36,2.61-3.56l-2.66,0.01l-26.56,0.08
					c0.76,2.86,1.39,4.62,1.39,4.62l22.74-0.07l2.44-0.01l25.18-0.08c0,0,0.62-1.76,1.37-4.62l-1.34,0
					C313.16,387.25,312.79,388.48,312.56,389.21z"/>
			</g>
		</g>
		<g>
			<g>
				<path class="st2" d="M319.4,139.5c0-0.22-0.01-0.37-0.01-0.51c-0.01-0.39-0.03-0.78-0.05-1.17c-0.02-0.4-0.04-0.8-0.08-1.2
					c-0.02-0.37-0.05-0.76-0.09-1.13c-0.04-0.42-0.08-0.84-0.12-1.26c-0.04-0.39-0.09-0.78-0.13-1.17c-0.05-0.41-0.1-0.82-0.16-1.24
					c-0.06-0.42-0.12-0.84-0.19-1.27c-0.06-0.39-0.12-0.78-0.19-1.17c-0.08-0.46-0.16-0.93-0.24-1.39
					c-0.07-0.35-0.14-0.71-0.21-1.07c-0.1-0.5-0.2-1-0.31-1.51c-0.07-0.33-0.14-0.65-0.21-0.97c-0.13-0.54-0.25-1.08-0.38-1.62
					c-0.07-0.3-0.15-0.6-0.23-0.89c-0.14-0.56-0.29-1.13-0.45-1.7c-0.08-0.28-0.15-0.56-0.23-0.84c-0.17-0.58-0.34-1.16-0.51-1.75
					c-0.08-0.27-0.17-0.54-0.25-0.82c-0.18-0.58-0.37-1.16-0.56-1.75c-0.09-0.28-0.19-0.56-0.28-0.84c-0.19-0.57-0.39-1.14-0.59-1.7
					c-0.11-0.31-0.22-0.61-0.33-0.91c-0.2-0.54-0.4-1.08-0.61-1.61c-0.13-0.34-0.26-0.67-0.39-1c-0.2-0.5-0.4-1-0.61-1.5
					c-0.15-0.37-0.31-0.74-0.47-1.11c-0.2-0.46-0.39-0.92-0.6-1.38c-0.18-0.4-0.36-0.79-0.55-1.19c-0.2-0.43-0.4-0.85-0.6-1.28
					c-0.19-0.41-0.39-0.81-0.59-1.21c-0.15-0.31-0.3-0.61-0.45-0.91c-0.38-0.75-0.83-1.61-1.35-2.55c-0.11-0.2-0.22-0.39-0.33-0.59
					c-0.23-0.42-0.47-0.84-0.73-1.29c-0.26-0.46-0.53-0.91-0.8-1.35c-0.08-0.13-0.15-0.25-0.24-0.38c-0.34-0.55-0.67-1.08-1.01-1.6
					c-0.03-0.05-0.07-0.11-0.1-0.15c-0.36-0.55-0.71-1.09-1.07-1.6c-0.05-0.08-0.12-0.16-0.17-0.24c-0.34-0.49-0.69-0.97-1.03-1.43
					c-0.1-0.13-0.2-0.26-0.3-0.4c-0.31-0.4-0.62-0.8-0.92-1.18c-0.14-0.18-0.28-0.35-0.42-0.52c-0.19-0.24-0.39-0.47-0.59-0.7
					c-0.25-0.3-0.5-0.58-0.76-0.86c-0.08-0.09-0.16-0.18-0.24-0.26c-2.06-2.23-4.09-3.87-6.07-4.93c-0.31-0.16-0.56-0.29-0.8-0.4
					c-0.37-0.17-0.64-0.28-0.9-0.38c-0.3-0.11-0.58-0.2-0.85-0.28c-0.34-0.09-0.56-0.15-0.79-0.19c-0.08-0.02-0.16-0.03-0.24-0.04
					c-0.2-0.04-0.39-0.06-0.58-0.09c-0.08,0-0.16-0.01-0.23-0.02c-0.27-0.02-0.53-0.04-0.8-0.03c-0.26,0-0.53,0.02-0.79,0.04
					c-0.08,0.01-0.16,0.02-0.24,0.03c-0.19,0.03-0.39,0.06-0.58,0.09c-0.08,0.01-0.16,0.03-0.23,0.04c-0.23,0.04-0.46,0.1-0.69,0.17
					c-0.38,0.11-0.66,0.2-0.94,0.3c-0.28,0.11-0.55,0.22-0.82,0.34c-0.35,0.16-0.59,0.29-0.84,0.42c-2.03,1.11-4.05,2.75-6.1,5
					c-0.08,0.08-0.16,0.18-0.23,0.26c-0.25,0.28-0.5,0.57-0.75,0.86c-0.19,0.23-0.39,0.47-0.58,0.7c-0.14,0.17-0.28,0.34-0.41,0.52
					c-0.31,0.39-0.62,0.78-0.92,1.19c-0.1,0.13-0.2,0.27-0.3,0.4c-0.34,0.47-0.69,0.95-1.03,1.44c-0.05,0.08-0.11,0.16-0.16,0.24
					c-0.36,0.53-0.71,1.06-1.07,1.62c-0.03,0.05-0.06,0.1-0.09,0.14c-0.34,0.53-0.67,1.06-1.01,1.61c-0.08,0.13-0.15,0.25-0.22,0.38
					c-0.27,0.45-0.53,0.9-0.8,1.36c-0.25,0.44-0.49,0.87-0.72,1.29c-0.11,0.19-0.22,0.4-0.33,0.6c-0.51,0.94-0.95,1.8-1.33,2.55
					c-0.15,0.3-0.29,0.61-0.44,0.91c-0.2,0.4-0.39,0.81-0.59,1.22c-0.2,0.42-0.4,0.86-0.59,1.29c-0.18,0.39-0.36,0.79-0.53,1.19
					c-0.2,0.46-0.4,0.92-0.6,1.39c-0.15,0.37-0.31,0.74-0.46,1.11c-0.2,0.5-0.41,1-0.6,1.5c-0.13,0.33-0.26,0.67-0.39,1.01
					c-0.2,0.53-0.4,1.08-0.6,1.62c-0.11,0.3-0.22,0.6-0.33,0.91c-0.2,0.57-0.39,1.13-0.58,1.7c-0.09,0.28-0.19,0.56-0.28,0.84
					c-0.19,0.59-0.37,1.17-0.55,1.76c-0.08,0.27-0.16,0.54-0.24,0.81c-0.17,0.58-0.34,1.17-0.5,1.75c-0.08,0.28-0.15,0.56-0.23,0.84
					c-0.15,0.57-0.29,1.14-0.44,1.7c-0.08,0.3-0.15,0.59-0.22,0.89c-0.13,0.54-0.25,1.08-0.37,1.62c-0.07,0.32-0.14,0.64-0.21,0.97
					c-0.1,0.51-0.2,1.01-0.3,1.52c-0.07,0.35-0.13,0.71-0.2,1.07c-0.08,0.46-0.16,0.93-0.24,1.39c-0.06,0.39-0.12,0.78-0.18,1.16
					c-0.06,0.43-0.13,0.85-0.18,1.27c-0.06,0.41-0.11,0.83-0.15,1.23c-0.04,0.4-0.09,0.79-0.13,1.18c-0.04,0.42-0.08,0.84-0.11,1.25
					c-0.03,0.38-0.06,0.76-0.09,1.13c-0.02,0.4-0.05,0.8-0.06,1.2c-0.02,0.39-0.03,0.79-0.05,1.17c0,0.14-0.01,0.29-0.02,0.42
					c0,0.53-0.02,0.98-0.02,1.42l0.1,33.57c-0.02,0.02,0,4.26,0,4.26c0.02-0.02,0.02,2.43,0.02,2.43c-0.02,0.02-0.01,1.44-0.01,1.44
					c0.02-0.02,0.18,52.32,0.18,52.32c-0.02,0-0.01,2.26-0.01,2.26c0.02,0,0.46,146.27,0.46,146.27c-0.02,0-0.01,0.63-0.01,0.63
					s0.38,1.62,2.59,1.62l1.24,4.17c0.06,0.19,0.12,0.37,0.17,0.51c-0.02,0,1.01,2.07,2.93,2.06l-1.92,7.51
					c0.01,0-0.13,0.54-0.13,0.54c0,0-0.4,1.54-0.4,1.54c0.02,0-0.05,0.28-0.05,0.28c-0.16,0.63,0.04,1.28,0.54,1.78
					c0.49,0.5,1.24,0.78,2.02,0.78l49.85-0.16c0.79,0,1.53-0.29,2.02-0.79c0.49-0.5,0.68-1.15,0.52-1.78l-0.07-0.28l-2.51-9.57
					c1.92-0.01,2.93-2.08,2.93-2.08l1.36-4.69c2.21-0.01,2.58-1.63,2.58-1.63l-0.64-209.61l-0.1-33.57
					C319.43,140.4,319.41,139.95,319.4,139.5z M287.42,81.24c10.9-0.03,28.54,32.52,29.24,58.23l-0.8,0
					c-0.9-24.15-18.32-56.56-27.51-56.53c-4.92,0.02-12.13,9.33-17.9,21.68c-4.36,9.35-7.88,20.45-8.95,30.57
					c0.74,0.27,1.9,0.53,3.38,0.79c0.14-1.5,0.3-2.98,0.52-4.46c0.3-2.09,0.66-4.17,1.09-6.24c0.42-2.07,0.94-4.13,1.51-6.17
					c0.57-2.04,1.28-4.05,2.04-6.04c-0.39,2.06-0.72,4.11-0.91,6.18c-0.2,2.07-0.33,4.13-0.37,6.2c-0.05,2.06-0.03,4.13,0.06,6.18
					c0.07,1.65,0.19,3.32,0.35,4.95c14.79,1.78,43.46,2.89,43.46,2.89l-52.81,0.17l-1.28,0C259.08,113.94,276.52,81.28,287.42,81.24
					z M263.48,402.86l2.57-10.29l0.93,0l-2.38,9.55l4.19-0.01l0.57-3.05l4-0.01l-0.66,3.05l3.17-0.01l0.47-3.05l13.87-0.04
					l-0.12,3.04l13.6-0.04l-0.55-3.04l4.48-0.01l0.55,3.04l4.06-0.01l-2.44-9.53l0.93,0l2.63,10.28L263.48,402.86z M276.71,396.58
					l0.63-4.05l11.04-0.04l2.09-0.01l-0.16,3.91c4.13,0.01,8.26,0.06,12.39,0.2l-0.75-4.15l4.48-0.01l0.79,4.36
					c0.62,0.04,1.24,0.06,1.86,0.1c-6.96,0.47-13.92,0.6-20.88,0.64c-6.96,0.01-13.93-0.08-20.89-0.5c0.81-0.05,1.63-0.09,2.44-0.14
					l0.81-4.33l4.2-0.01l-0.9,4.14C274.81,396.65,275.76,396.61,276.71,396.58z M313.55,390.28l-25.18,0.08l-2.44,0.01l-22.74,0.07
					c0,0-0.64-1.76-1.39-4.62l26.56-0.08l2.66-0.01c-0.81,1.2-1.68,2.4-2.61,3.56l24.15-0.08c0.23-0.73,0.6-1.96,1.02-3.56l1.34,0
					C314.18,388.51,313.55,390.28,313.55,390.28z M299.92,190.14l0.59,193.31l-10.44,0.03l-0.59-193.31L299.92,190.14z
					 M289.48,189.04l-0.08-25.2l10.44-0.03l0.08,25.2L289.48,189.04z M316.79,175.06l0.18,59.8c0,1.15,0.01,2.3,0.01,3.46
					c0.05,15.49,0.44,145.07,0.44,145.07l-1.51,0l-0.74-240.51l-15.4,0.05l0.06,19.74l-10.44,0.03l-0.06-19.74l-3.44,0.01
					l0.06,19.74l-19.04,0.06l0,1.13l19.04-0.06l0.08,25.2l-19.04,0.06l0,1.13l19.04-0.06l0.59,193.31l-19.89,0.06L266,143.04
					l-5.96,0.02l0.74,240.51l-1.5,0c0,0-0.4-129.57-0.44-145.07c0-1.16-0.01-2.31-0.01-3.46l-0.18-59.8
					c-0.05-15.82-0.09-27.8-0.1-33.34c0.02,0,58.13-0.19,58.13-0.19C316.7,147.27,316.74,159.25,316.79,175.06z"/>
			</g>
		</g>
		<g>
			<g>
				<path class="st3" d="M256.08,237.32c-0.02,0,0.43,146.27,0.43,146.27C256.52,383.58,256.08,237.32,256.08,237.32z"/>
			</g>
		</g>
		<g>
			<g>
				<path class="st3" d="M255.9,178.84c-0.02,0.02-0.01,2.48-0.01,2.48C255.9,181.3,255.9,178.84,255.9,178.84z"/>
			</g>
		</g>
		<g>
			<g>
				<path class="st4" d="M255.91,182.71c-0.02,0.02,0.15,52.34,0.15,52.34C256.07,235.06,255.91,182.71,255.91,182.71z"/>
			</g>
		</g>
		<g>
			<g>
				
					<rect x="289.44" y="163.82" transform="matrix(1 -3.194499e-03 3.194499e-03 1 -0.5621 0.9422)" class="st5" width="10.44" height="25.2"/>
			</g>
		</g>
		<g>
			<g>
				
					<rect x="289.78" y="190.15" transform="matrix(1 -3.194499e-03 3.194499e-03 1 -0.9147 0.9438)" class="st5" width="10.44" height="193.31"/>
			</g>
		</g>
		<g>
			<g>
				<path class="st5" d="M258.55,141.91c0,5.54,0.04,17.52,0.09,33.34l0.18,59.8c0,1.15,0.01,2.3,0.01,3.46
					c0.05,15.49,0.44,145.07,0.44,145.07l1.5,0l-0.74-240.51l5.96-0.02l0.74,240.51l19.89-0.06l-0.59-193.31L267,190.24l0-1.13
					l19.04-0.06l-0.08-25.2l-19.04,0.06l0-1.13l19.04-0.06l-0.06-19.74l3.44-0.01l0.06,19.74l10.44-0.03l-0.06-19.74l15.4-0.05
					l0.74,240.51l1.51,0c0,0-0.4-129.57-0.44-145.07c0-1.16-0.01-2.31-0.01-3.46l-0.18-59.8c-0.05-15.82-0.09-27.8-0.1-33.34
					C316.67,141.72,258.55,141.91,258.55,141.91z"/>
			</g>
		</g>
		<g>
			<g>
				<path class="st4" d="M312.63,139.49c0,0-28.68-1.12-43.46-2.89c-0.16-1.63-0.28-3.29-0.35-4.95c-0.09-2.06-0.11-4.12-0.06-6.18
					c0.03-2.07,0.17-4.13,0.37-6.2c0.19-2.07,0.52-4.12,0.91-6.18c-0.76,1.99-1.47,3.99-2.04,6.04c-0.58,2.04-1.1,4.09-1.51,6.17
					c-0.43,2.07-0.8,4.15-1.09,6.24c-0.21,1.48-0.38,2.96-0.52,4.46c-1.48-0.25-2.64-0.52-3.38-0.79
					c1.07-10.13,4.59-21.22,8.95-30.57c5.77-12.35,12.98-21.67,17.9-21.68c9.2-0.03,26.62,32.38,27.51,56.53l0.8,0
					c-0.69-25.71-18.33-58.27-29.24-58.23c-10.91,0.03-28.34,32.7-28.88,58.42l1.28,0L312.63,139.49z"/>
			</g>
		</g>
	</g>
	<g>
		<g>
			<g>
				<path class="st0" d="M341.23,406.98c0.01,0,0.15,0.56,0.15,0.56C341.38,407.54,341.23,406.98,341.23,406.98z"/>
			</g>
		</g>
		<g>
			<g>
				<path class="st1" d="M342.38,396.55l-0.15,0.53C342.27,396.93,342.32,396.75,342.38,396.55z"/>
			</g>
		</g>
		<g>
			<g>
				<polygon class="st0" points="291.26,399.38 288.8,409.26 293,409.25 293.54,406.1 298.18,406.08 297.63,409.23 311.7,409.19 
					311.55,406.04 325.9,406 326.41,409.14 329.69,409.13 328.98,405.99 333.12,405.97 333.73,409.12 338.06,409.1 335.54,399.24 
					336.5,399.24 339.21,409.87 287.64,410.04 290.29,399.39 				"/>
			</g>
		</g>
		<g>
			<g>
				<path class="st0" d="M331.83,399.26l0.86,4.48c0.84,0.05,1.68,0.07,2.52,0.13c-7.2,0.49-14.4,0.62-21.6,0.66
					c-7.21,0-14.41-0.08-21.61-0.52c0.64-0.04,1.28-0.07,1.93-0.11l0.79-4.52l4.63-0.01l-0.75,4.29c4.27-0.17,8.55-0.25,12.82-0.29
					l-0.19-4.04l2.17-0.01l11.42-0.04l0.67,4.19c0.98,0.02,1.97,0.05,2.95,0.08l-0.95-4.28L331.83,399.26z"/>
			</g>
		</g>
		<g>
			<g>
				<path class="st1" d="M288.37,396.08l24.98-0.08c-0.97-1.2-1.87-2.43-2.72-3.67l2.75-0.01l27.48-0.09
					c-0.77,2.96-1.42,4.79-1.42,4.79l-23.52,0.08l-2.53,0.01l-26.05,0.08c0,0-0.65-1.82-1.44-4.78l1.39,0
					C287.72,394.06,288.12,395.32,288.37,396.08z"/>
			</g>
		</g>
		<g>
			<g>
				<path class="st6" d="M279.68,139.19l0.11,34.72l0.66,216.84c0,0,0.4,1.68,2.68,1.67l1.44,4.84c0,0,1.06,2.14,3.04,2.14
					l-2.54,9.92L285,409.6c-0.16,0.65,0.04,1.32,0.55,1.84c0.51,0.51,1.28,0.81,2.09,0.81l51.57-0.16c0.81,0,1.58-0.31,2.09-0.82
					c0.51-0.52,0.71-1.2,0.54-1.84l-0.07-0.29c0.02,0-0.4-1.59-0.4-1.59c-0.01,0-0.15-0.56-0.15-0.56c0.01,0-2.03-7.75-2.03-7.75
					c1.99-0.01,3.03-2.16,3.03-2.16c0.03-0.14,0.09-0.33,0.15-0.53l1.26-4.32c2.28-0.01,2.67-1.69,2.67-1.69l0-0.65
					c-0.02,0-0.48-151.31-0.48-151.31c0.02,0,0.01-2.33,0.01-2.33c-0.02,0-0.19-54.15-0.19-54.15c0.02,0.03,0.02-1.44,0.02-1.44
					c-0.02-0.02-0.03-2.56-0.03-2.56c0.02,0.02,0.01-4.36,0.01-4.36c-0.02-0.02-0.13-34.74-0.13-34.74c0-0.45-0.02-0.92-0.03-1.38
					c0.01-0.23-0.01-0.38-0.01-0.52c-0.01-0.41-0.03-0.81-0.05-1.21c-0.02-0.41-0.04-0.82-0.07-1.24c-0.03-0.39-0.07-0.78-0.1-1.18
					c-0.04-0.43-0.07-0.86-0.12-1.29c-0.04-0.41-0.09-0.81-0.14-1.22c-0.05-0.42-0.11-0.85-0.17-1.27
					c-0.06-0.44-0.13-0.88-0.19-1.32c-0.06-0.4-0.13-0.8-0.19-1.2c-0.08-0.48-0.16-0.96-0.26-1.44c-0.07-0.36-0.14-0.73-0.21-1.1
					c-0.11-0.52-0.21-1.05-0.33-1.57c-0.07-0.33-0.15-0.67-0.22-1c-0.13-0.56-0.26-1.12-0.39-1.68c-0.08-0.31-0.15-0.61-0.23-0.92
					c-0.15-0.59-0.31-1.17-0.47-1.76c-0.08-0.29-0.16-0.58-0.24-0.86c-0.17-0.61-0.34-1.21-0.53-1.81
					c-0.09-0.28-0.17-0.56-0.26-0.84c-0.19-0.61-0.38-1.21-0.58-1.81c-0.1-0.29-0.19-0.58-0.29-0.87c-0.2-0.59-0.4-1.18-0.61-1.77
					c-0.11-0.31-0.23-0.62-0.34-0.93c-0.21-0.56-0.41-1.12-0.63-1.67c-0.13-0.35-0.27-0.69-0.41-1.04
					c-0.21-0.52-0.41-1.04-0.63-1.56c-0.16-0.38-0.32-0.76-0.48-1.14c-0.2-0.47-0.41-0.95-0.62-1.43c-0.18-0.41-0.37-0.82-0.56-1.22
					c-0.21-0.44-0.41-0.89-0.62-1.33c-0.2-0.42-0.41-0.83-0.61-1.25c-0.15-0.32-0.31-0.63-0.46-0.94c-0.39-0.77-0.86-1.66-1.39-2.63
					c-0.11-0.21-0.23-0.41-0.34-0.62c-0.24-0.43-0.49-0.87-0.75-1.32c-0.27-0.48-0.55-0.94-0.83-1.4c-0.08-0.13-0.15-0.26-0.23-0.39
					c-0.35-0.57-0.7-1.13-1.05-1.67c-0.03-0.05-0.06-0.09-0.09-0.14c-0.37-0.57-0.74-1.13-1.12-1.67c-0.05-0.09-0.11-0.16-0.17-0.25
					c-0.36-0.51-0.71-1-1.07-1.48c-0.1-0.14-0.2-0.28-0.3-0.41c-0.32-0.42-0.64-0.83-0.96-1.23c-0.14-0.18-0.28-0.35-0.43-0.53
					c-0.2-0.24-0.4-0.48-0.61-0.72c-0.26-0.3-0.52-0.6-0.79-0.89c-0.08-0.08-0.16-0.18-0.24-0.27c-2.13-2.3-4.23-4-6.27-5.09
					c-0.33-0.17-0.59-0.3-0.84-0.42c-0.38-0.17-0.66-0.29-0.93-0.39c-0.31-0.12-0.6-0.21-0.89-0.29c-0.35-0.09-0.58-0.15-0.82-0.2
					c-0.08-0.01-0.16-0.02-0.24-0.04c-0.2-0.04-0.41-0.07-0.61-0.09c-0.08-0.01-0.16-0.02-0.24-0.03c-0.28-0.02-0.55-0.04-0.83-0.04
					c-0.27,0-0.55,0.02-0.82,0.04c-0.08,0.01-0.16,0.02-0.24,0.03c-0.21,0.02-0.41,0.05-0.61,0.09c-0.08,0.02-0.16,0.03-0.24,0.04
					c-0.23,0.05-0.47,0.11-0.7,0.17c-0.39,0.11-0.68,0.21-0.97,0.31c-0.29,0.11-0.57,0.23-0.84,0.35c-0.36,0.17-0.62,0.3-0.87,0.44
					c-2.11,1.15-4.19,2.86-6.31,5.17c-0.08,0.09-0.16,0.19-0.24,0.27c-0.26,0.3-0.52,0.59-0.78,0.9c-0.2,0.24-0.4,0.48-0.6,0.72
					c-0.14,0.18-0.29,0.36-0.43,0.54c-0.32,0.4-0.63,0.8-0.95,1.22c-0.1,0.14-0.21,0.28-0.3,0.42c-0.36,0.48-0.71,0.97-1.06,1.49
					c-0.06,0.09-0.12,0.17-0.17,0.25c-0.37,0.54-0.74,1.1-1.1,1.67c-0.03,0.05-0.07,0.11-0.1,0.16c-0.35,0.54-0.69,1.09-1.04,1.66
					c-0.08,0.14-0.16,0.27-0.24,0.4c-0.28,0.46-0.55,0.93-0.82,1.4c-0.26,0.45-0.51,0.9-0.75,1.33c-0.11,0.2-0.22,0.4-0.33,0.61
					c-0.53,0.97-0.99,1.87-1.38,2.65c-0.16,0.32-0.31,0.63-0.45,0.95c-0.21,0.41-0.41,0.83-0.61,1.25c-0.21,0.44-0.4,0.89-0.61,1.33
					c-0.19,0.41-0.37,0.82-0.56,1.23c-0.21,0.48-0.41,0.95-0.61,1.43c-0.16,0.38-0.32,0.76-0.48,1.14
					c-0.21,0.52-0.42,1.04-0.62,1.56c-0.13,0.35-0.27,0.69-0.4,1.04c-0.21,0.55-0.42,1.11-0.62,1.68c-0.11,0.31-0.23,0.62-0.34,0.93
					c-0.21,0.59-0.4,1.18-0.6,1.77c-0.1,0.29-0.19,0.58-0.29,0.87c-0.19,0.6-0.38,1.2-0.56,1.81c-0.09,0.28-0.17,0.57-0.26,0.85
					c-0.18,0.6-0.35,1.21-0.51,1.81c-0.08,0.29-0.16,0.58-0.24,0.87c-0.16,0.59-0.31,1.17-0.45,1.76c-0.08,0.31-0.15,0.61-0.22,0.92
					c-0.13,0.57-0.26,1.12-0.39,1.68c-0.07,0.34-0.15,0.67-0.22,1c-0.11,0.52-0.21,1.05-0.31,1.56c-0.07,0.37-0.14,0.74-0.2,1.11
					c-0.09,0.48-0.17,0.96-0.25,1.43c-0.06,0.41-0.13,0.81-0.19,1.21c-0.06,0.44-0.12,0.88-0.18,1.31
					c-0.06,0.43-0.11,0.86-0.15,1.28c-0.05,0.41-0.1,0.81-0.14,1.22c-0.05,0.43-0.08,0.87-0.12,1.3c-0.03,0.39-0.06,0.78-0.09,1.17
					c-0.03,0.42-0.05,0.83-0.07,1.24c-0.02,0.41-0.04,0.81-0.05,1.21c-0.01,0.15-0.01,0.3-0.02,0.44
					C279.69,138.27,279.68,138.74,279.68,139.19z M287.64,410.04l2.65-10.65l0.96,0l-2.46,9.88l4.2-0.01l0.55-3.15l4.63-0.01
					l-0.55,3.15l14.07-0.04l-0.15-3.15L325.9,406l0.51,3.15l3.28-0.01l-0.7-3.15l4.14-0.01l0.61,3.15l4.33-0.01l-2.52-9.86l0.96,0
					l2.72,10.63L287.64,410.04z M328.44,403.55l-0.95-4.28l4.34-0.01l0.86,4.48c0.84,0.05,1.68,0.07,2.52,0.13
					c-7.2,0.49-14.4,0.62-21.6,0.66c-7.21,0-14.41-0.08-21.61-0.52c0.64-0.04,1.28-0.07,1.93-0.11l0.79-4.52l4.63-0.01l-0.75,4.29
					c4.27-0.17,8.55-0.25,12.82-0.29l-0.19-4.04l2.17-0.01l11.42-0.04l0.67,4.19C326.47,403.49,327.46,403.52,328.44,403.55z
					 M285.9,392.41l1.39,0c0.44,1.65,0.83,2.92,1.08,3.67l24.98-0.08c-0.97-1.2-1.87-2.43-2.72-3.67l2.75-0.01l27.48-0.09
					c-0.77,2.96-1.42,4.79-1.42,4.79l-23.52,0.08l-2.53,0.01l-26.05,0.08C287.34,397.19,286.69,395.37,285.9,392.41z M310.98,190.02
					L311.59,390l-10.81,0.03l-0.61-199.98L310.98,190.02z M300.16,188.89l-0.08-26.07l10.81-0.03l0.08,26.07L300.16,188.89z
					 M282.52,140.09c0.02,0,60.14-0.19,60.14-0.19c0.04,5.74,0.08,18.12,0.13,34.49l0.19,61.87c0,1.19,0.01,2.38,0.01,3.57
					c0.05,16.03,0.46,150.07,0.46,150.07l-1.56,0l-0.76-248.8l-6.16,0.02l0.76,248.8l-20.58,0.07l-0.61-199.98l19.69-0.06l0-1.16
					l-19.69,0.06l-0.08-26.07l19.69-0.06l0-1.16l-19.69,0.06l-0.06-20.43l-3.56,0.01l0.06,20.43l-10.81,0.03l-0.06-20.43
					l-15.93,0.05l0.76,248.8l-1.56,0c0,0-0.41-134.04-0.46-150.07c0-1.19-0.01-2.38-0.01-3.57l-0.19-61.87
					C282.58,158.21,282.54,145.82,282.52,140.09z"/>
			</g>
		</g>
		<g>
			<g>
				<path class="st3" d="M345.82,238.57c0.02,0,0.48,151.31,0.48,151.31C346.29,389.89,345.82,238.57,345.82,238.57z"/>
			</g>
		</g>
		<g>
			<g>
				<path class="st3" d="M345.64,178.09c0.02,0.02,0.03,2.56,0.03,2.56C345.65,180.63,345.64,178.09,345.64,178.09z"/>
			</g>
		</g>
		<g>
			<g>
				<path class="st4" d="M345.65,182.09c0.02,0.03,0.19,54.15,0.19,54.15C345.82,236.24,345.65,182.09,345.65,182.09z"/>
			</g>
		</g>
		<g>
			<g>
				
					<rect x="300.12" y="162.8" transform="matrix(1 -3.194499e-03 3.194499e-03 1 -0.5602 0.9769)" class="st5" width="10.81" height="26.07"/>
			</g>
		</g>
		<g>
			<g>
				
					<rect x="300.47" y="190.04" transform="matrix(1 -3.194499e-03 3.194499e-03 1 -0.9249 0.9786)" class="st5" width="10.81" height="199.98"/>
			</g>
		</g>
		<g>
			<g>
				<path class="st5" d="M342.66,139.9c0.04,5.74,0.08,18.12,0.13,34.49l0.19,61.87c0,1.19,0.01,2.38,0.01,3.57
					c0.05,16.03,0.46,150.07,0.46,150.07l-1.56,0l-0.76-248.8l-6.16,0.02l0.76,248.8l-20.58,0.07l-0.61-199.98l19.69-0.06l0-1.16
					l-19.69,0.06l-0.08-26.07l19.69-0.06l0-1.16l-19.69,0.06l-0.06-20.43l-3.56,0.01l0.06,20.43l-10.81,0.03l-0.06-20.43
					l-15.93,0.05l0.76,248.8l-1.56,0c0,0-0.41-134.04-0.46-150.07c0-1.19-0.01-2.38-0.01-3.57l-0.19-61.87
					c-0.05-16.36-0.09-28.75-0.11-34.49C282.54,140.09,342.66,139.9,342.66,139.9z"/>
			</g>
		</g>
		<g>
			<g>
				<path class="st4" d="M338.49,137.58c0,0-29.67-1.15-44.96-2.99c-0.16-1.69-0.29-3.41-0.36-5.12c-0.09-2.12-0.11-4.26-0.06-6.39
					c0.04-2.14,0.18-4.27,0.38-6.41c0.2-2.14,0.54-4.27,0.95-6.4c-0.79,2.05-1.52,4.14-2.12,6.24c-0.59,2.11-1.13,4.24-1.57,6.38
					c-0.44,2.14-0.82,4.3-1.13,6.46c-0.22,1.53-0.39,3.06-0.54,4.6c-1.53-0.26-2.73-0.53-3.5-0.81c1.11-10.48,4.75-21.95,9.26-31.62
					c5.96-12.78,13.42-22.42,18.51-22.43c9.51-0.03,27.53,33.49,28.46,58.48l0.83,0c-0.71-26.59-18.96-60.27-30.25-60.23
					c-11.28,0.04-29.32,33.83-29.87,60.43l1.32,0L338.49,137.58z"/>
			</g>
		</g>
	</g>
	<g>
		<g>
			<g>
				<g>
					<path class="st7" d="M206.04,402.74c-1.52,0.61-3.04,1.22-4.56,1.85l-0.87-6.74l-0.91,7.46c-0.96,0.39-1.93,0.78-2.88,1.18
						c-10.06,4.2-19.99,8.59-29.78,13.21l-0.83-6.47l-0.88,7.2l-4.22,0.15c-1.23,0.03-2.45,0.1-3.68,0.16
						c-0.09-1.32-0.2-2.64-0.32-3.96l48.88-23.34L206.04,402.74z"/>
				</g>
			</g>
		</g>
		<g>
			<g>
				<g>
					<path class="st3" d="M222.84,359.76l0.01,2.3l-6.91,1.24l6.92,0.48l0.02,6.61c-1.12-0.82-2.59-1.32-4.21-1.32l-6.44,0.02
						c-3.47,0.01-6.28,2.33-6.28,5.18l0.04,13.86l-45.35,23.98L206,390.49l0,1.35L157,415.24c-0.1-1.17-0.24-2.28-0.35-3.38
						c-0.12-1.11-0.26-2.22-0.42-3.32c-0.01-3.24,1.63-6.33,4.54-8.53c13.38-10.14,51.92-39.09,55.75-39.54
						C218.32,360.27,220.65,360.01,222.84,359.76z"/>
				</g>
			</g>
		</g>
		<g>
			<g>
				<g>
					<polygon class="st8" points="264.67,408.87 264.2,410.67 265.46,410.66 265.82,408.87 267.28,408.87 266.86,410.66 
						267.99,410.66 268.29,408.86 272.44,408.85 273.13,408.85 273.05,410.64 277.88,410.62 277.53,408.83 279.13,408.83 
						279.48,410.62 280.7,410.62 280.21,408.82 280.76,408.82 281.36,411.05 263.54,411.1 264.13,408.88 					"/>
				</g>
			</g>
		</g>
		<g>
			<g>
				<g>
					<path class="st9" d="M274.34,404.08c-0.46,1.01-0.95,1.98-1.51,2.89l7.98-0.03c0.19-0.77,0.56-2.38,0.84-4.42
						c0.28-0.07,0.54-0.15,0.8-0.23c-0.4,3.06-1.02,5.27-1.02,5.27l-9,0.03l-0.87,0l-8.13,0.03c0,0-0.26-0.92-0.56-2.37
						C267.42,405.01,271.22,404.58,274.34,404.08z"/>
				</g>
			</g>
		</g>
		<g>
			<g>
				<g>
					<path class="st3" d="M229.41,398.62c1.62,0.77,3.79,1.62,6.53,2.4c0.03-1,0.04-2,0.08-3.01l0.06-2.24l0.04-1.12
						c-0.01-0.31,0.04-0.93,0.22-1.3l1.68-4.27c1.16-2.85,2.31-5.69,3.57-8.51c-0.72,2.95-1.55,5.86-2.37,8.79l-1.28,4.37
						c-0.11,0.34-0.09,0.49-0.07,0.92l0.04,1.12L238,398c0.13,3,0.16,5.99,0.24,8.98l0,0.28c0,0.07,0.01,0.11,0.02,0.17
						c0.02,0.12,0.05,0.23,0.1,0.33c0.09,0.22,0.24,0.41,0.44,0.57l1.98,1.45l0.45,0.33l0.71-13.92l0.84,14.61
						c0.1,0.01,0.77,0.01,0.77,0.01l1.37-0.01l1.36,0l0.67,0c0.1-0.01,0.85-14.62,0.85-14.62l0.8,13.92l0.45-0.33l1.96-1.46
						c0.19-0.16,0.34-0.36,0.43-0.58c0.05-0.11,0.08-0.22,0.1-0.33c0.01-0.06,0.01-0.11,0.01-0.17l0-0.28
						c0.06-3,0.08-5.99,0.18-8.99l0.07-2.24l0.03-1.12c0.01-0.44,0.04-0.58-0.08-0.92l-1.31-4.37c-0.84-2.92-1.68-5.83-2.42-8.77
						c1.28,2.82,2.44,5.65,3.61,8.49l1.26,3.16l-0.08-26.77c-0.32,0-0.63,0-0.94-0.01c-0.16,4.3-0.34,8.6-0.57,12.9l-0.04-12.91
						c-10.35-0.21-18.74-1.9-23.47-3.11c-0.08,4.5-0.15,9.01-0.28,13.51c-0.16-4.56-0.27-9.12-0.37-13.67
						c-0.68-0.18-1.27-0.35-1.76-0.49c0.02,5.85,0.03,11.22,0.05,15.89c2.6,3.5,3.93,5.46,3.95,10.42
						C229.39,391.81,229.41,396.45,229.41,398.62z M245.11,405.72c0.64,0,1.15,0.42,1.15,0.94c0,0.52-0.51,0.95-1.15,0.95
						c-0.64,0-1.16-0.42-1.16-0.94C243.96,406.15,244.48,405.73,245.11,405.72z M245.1,399.8c0.64,0,1.15,0.42,1.15,0.94
						c0,0.52-0.51,0.95-1.15,0.95c-0.64,0-1.16-0.42-1.16-0.94C243.94,400.23,244.46,399.8,245.1,399.8z M245.08,393.88
						c0.64,0,1.15,0.42,1.15,0.94c0,0.52-0.51,0.95-1.15,0.95c-0.64,0-1.16-0.42-1.16-0.94
						C243.92,394.31,244.44,393.88,245.08,393.88z"/>
				</g>
			</g>
		</g>
		<g>
			<g>
				<g>
					<path class="st3" d="M225.27,323.53c0.38,0.11,0.83,0.23,1.32,0.37c0.04,5.38,0.08,10.76,0.16,16.13l0.29,17.88
						c0.02,0.91,0.04,1.82,0.07,2.73c-0.7-0.19-1.28-0.36-1.73-0.49C225.35,349.09,225.31,336.42,225.27,323.53z"/>
				</g>
			</g>
		</g>
		<g>
			<g>
				<g>
					<path class="st3" d="M276.04,166.38c0.05,0.08,0.11,0.16,0.17,0.24C276.16,166.54,276.1,166.46,276.04,166.38z"/>
				</g>
			</g>
		</g>
		<g>
			<g>
				<g>
					<path class="st3" d="M227.83,268.51c0.08,5.42,0.13,10.83,0.17,16.24c4.59,1.18,12.82,2.86,23.03,3.07l-0.11-36.71
						c-10.33-0.2-18.7-1.89-23.43-3.1c0.02,0.87,0.04,1.74,0.06,2.62L227.83,268.51z M229.4,271.85c0.1-3.76,0.15-7.52,0.3-11.27
						c0.16,3.75,0.24,7.51,0.36,11.27l0.22,11.27c0.02,0.7,0.02,1.39,0.03,2.09l-1.08-0.15c0-0.64,0-1.28,0.01-1.93L229.4,271.85z"
						/>
				</g>
			</g>
		</g>
		<g>
			<g>
				<g>
					<path class="st3" d="M226.77,247.83c-0.02,0.93-0.03,1.87-0.05,2.8l-0.18,17.88c-0.04,5.27-0.06,10.55-0.07,15.83
						c-0.52-0.15-0.96-0.28-1.32-0.39c-0.05-15.07-0.09-28.2-0.11-36.62C225.52,247.49,226.1,247.65,226.77,247.83z"/>
				</g>
			</g>
		</g>
		<g>
			<g>
				<g>
					<path class="st3" d="M226.47,285.81c-0.01,6.16,0,12.31-0.02,18.47c0.05,6.05,0.09,12.11,0.13,18.16
						c-0.52-0.15-0.96-0.28-1.31-0.39c-0.04-12.45-0.08-25.06-0.11-36.61C225.53,285.55,225.97,285.68,226.47,285.81z"/>
				</g>
			</g>
		</g>
		<g>
			<g>
				<g>
					<path class="st3" d="M275.71,165.94c0.06,0.07,0.12,0.15,0.17,0.23C275.82,166.09,275.77,166.02,275.71,165.94z"/>
				</g>
			</g>
		</g>
		<g>
			<g>
				<g>
					<path class="st3" d="M228.01,286.21c0.38,0.09,0.78,0.19,1.21,0.29c-0.06,6.39-0.07,12.77-0.06,19.15
						c0.03,5.83,0.07,11.65,0.16,17.48l1.14,0.17c0.05-5.88,0.05-11.76,0.05-17.65c-0.03-6.3-0.08-12.59-0.18-18.89
						c4.92,1.09,12.14,2.28,20.7,2.45l0.11,36.71c-10.21-0.21-18.44-1.89-23.03-3.06c0.01-6.19,0-12.39,0.02-18.58
						C228.09,298.25,228.05,292.23,228.01,286.21z"/>
				</g>
			</g>
		</g>
		<g>
			<g>
				<g>
					<path class="st3" d="M252.73,336.42l0.08,27.6c-0.3,0-0.59,0-0.89-0.01c0.11-2.78,0.21-5.57,0.32-8.35L252.73,336.42z"/>
				</g>
			</g>
		</g>
		<g>
			<g>
				<g>
					<path class="st3" d="M283.88,200.83c0.01,0.19,0.03,0.38,0.03,0.57C283.91,201.21,283.89,201.03,283.88,200.83z"/>
				</g>
			</g>
		</g>
		<g>
			<g>
				<g>
					<path class="st3" d="M284.34,213.43c0,0.26,0.01,0.52,0.01,0.79C284.35,213.95,284.35,213.69,284.34,213.43z"/>
				</g>
			</g>
		</g>
		<g>
			<g>
				<g>
					<path class="st3" d="M282.13,184.29c0.01,0.07,0.03,0.15,0.04,0.23C282.16,184.45,282.15,184.37,282.13,184.29z"/>
				</g>
			</g>
		</g>
		<g>
			<g>
				<g>
					<path class="st3" d="M284.17,206.71c0.01,0.16,0.01,0.33,0.02,0.5C284.18,207.04,284.17,206.88,284.17,206.71z"/>
				</g>
			</g>
		</g>
		<g>
			<g>
				<g>
					<path class="st3" d="M284.25,209.21c0,0.15,0.01,0.31,0.01,0.47C284.26,209.53,284.25,209.37,284.25,209.21z"/>
				</g>
			</g>
		</g>
		<g>
			<g>
				<g>
					<path class="st3" d="M284.3,211.28c0.01,0.25,0.01,0.5,0.02,0.75C284.31,211.77,284.31,211.52,284.3,211.28z"/>
				</g>
			</g>
		</g>
		<g>
			<g>
				<g>
					<path class="st3" d="M282.57,187.12c0.02,0.17,0.04,0.33,0.07,0.5C282.61,187.45,282.59,187.29,282.57,187.12z"/>
				</g>
			</g>
		</g>
		<g>
			<g>
				<g>
					<path class="st3" d="M276.71,167.37c0.05,0.08,0.1,0.15,0.15,0.24C276.81,167.52,276.76,167.45,276.71,167.37z"/>
				</g>
			</g>
		</g>
		<g>
			<g>
				<g>
					<path class="st3" d="M282.37,185.79c0.02,0.13,0.04,0.27,0.06,0.41C282.41,186.06,282.39,185.92,282.37,185.79z"/>
				</g>
			</g>
		</g>
		<g>
			<g>
				<g>
					<path class="st3" d="M277.16,168.1c0.04,0.09,0.09,0.17,0.14,0.25C277.25,168.27,277.2,168.19,277.16,168.1z"/>
				</g>
			</g>
		</g>
		<g>
			<g>
				<g>
					<path class="st3" d="M276.38,166.85c0.05,0.08,0.11,0.16,0.16,0.24C276.48,167.02,276.43,166.93,276.38,166.85z"/>
				</g>
			</g>
		</g>
		<g>
			<g>
				<g>
					<path class="st3" d="M281.88,182.86c0.03,0.15,0.06,0.29,0.08,0.43C281.94,183.15,281.91,183.01,281.88,182.86z"/>
				</g>
			</g>
		</g>
		<g>
			<g>
				<g>
					<path class="st3" d="M283.46,195.11c0.02,0.2,0.03,0.39,0.05,0.59C283.5,195.5,283.48,195.3,283.46,195.11z"/>
				</g>
			</g>
		</g>
		<g>
			<g>
				<g>
					<path class="st3" d="M283.16,191.96c0.01,0.1,0.02,0.2,0.03,0.31C283.18,192.16,283.17,192.06,283.16,191.96z"/>
				</g>
			</g>
		</g>
		<g>
			<g>
				<g>
					<path class="st3" d="M283.32,193.5c0.02,0.18,0.03,0.37,0.05,0.55C283.35,193.86,283.33,193.67,283.32,193.5z"/>
				</g>
			</g>
		</g>
		<g>
			<g>
				<g>
					<path class="st3" d="M282.95,190.07c0.01,0.13,0.03,0.26,0.04,0.4C282.98,190.34,282.96,190.21,282.95,190.07z"/>
				</g>
			</g>
		</g>
		<g>
			<g>
				<g>
					<path class="st3" d="M282.75,188.53c0.02,0.17,0.05,0.34,0.07,0.51C282.8,188.86,282.78,188.69,282.75,188.53z"/>
				</g>
			</g>
		</g>
		<g>
			<g>
				<g>
					<path class="st3" d="M284.38,215.75c0,0.22,0,0.45,0,0.67C284.38,216.2,284.38,215.97,284.38,215.75z"/>
				</g>
			</g>
		</g>
		<g>
			<g>
				<g>
					<path class="st3" d="M283.76,198.92c0,0.06,0.01,0.11,0.01,0.16C283.77,199.02,283.76,198.97,283.76,198.92z"/>
				</g>
			</g>
		</g>
		<g>
			<g>
				<g>
					<path class="st3" d="M277.48,168.67c0.05,0.1,0.09,0.18,0.15,0.28C277.57,168.86,277.52,168.77,277.48,168.67z"/>
				</g>
			</g>
		</g>
		<g>
			<g>
				<g>
					<path class="st3" d="M284.08,204.58c0.01,0.23,0.02,0.45,0.03,0.68C284.1,205.03,284.09,204.81,284.08,204.58z"/>
				</g>
			</g>
		</g>
		<g>
			<g>
				<g>
					<path class="st3" d="M283.99,202.66c0.01,0.23,0.02,0.45,0.03,0.68C284.01,203.12,284,202.89,283.99,202.66z"/>
				</g>
			</g>
		</g>
		<g>
			<g>
				<g>
					<path class="st3" d="M283.61,196.82c0.01,0.18,0.03,0.36,0.04,0.55C283.64,197.18,283.62,197,283.61,196.82z"/>
				</g>
			</g>
		</g>
		<g>
			<g>
				<g>
					<path class="st3" d="M275.22,165.35c0.11,0.12,0.22,0.25,0.33,0.38C275.44,165.6,275.33,165.47,275.22,165.35z"/>
				</g>
			</g>
		</g>
		<g>
			<g>
				<g>
					<path class="st3" d="M280.87,178.06c0.02,0.11,0.05,0.22,0.08,0.34C280.92,178.28,280.89,178.17,280.87,178.06z"/>
				</g>
			</g>
		</g>
		<g>
			<g>
				<g>
					<path class="st3" d="M281.42,180.51c0.03,0.13,0.05,0.27,0.08,0.4C281.48,180.78,281.45,180.64,281.42,180.51z"/>
				</g>
			</g>
		</g>
		<g>
			<g>
				<g>
					<path class="st3" d="M281.18,179.42c0.02,0.07,0.04,0.15,0.05,0.22C281.22,179.57,281.2,179.49,281.18,179.42z"/>
				</g>
			</g>
		</g>
		<g>
			<g>
				<g>
					<path class="st3" d="M280.6,177.01c0.03,0.13,0.07,0.25,0.1,0.38C280.66,177.26,280.63,177.13,280.6,177.01z"/>
				</g>
			</g>
		</g>
		<g>
			<g>
				<g>
					<path class="st3" d="M280.33,176.04c0.03,0.12,0.07,0.25,0.1,0.37C280.4,176.29,280.37,176.16,280.33,176.04z"/>
				</g>
			</g>
		</g>
		<g>
			<g>
				<g>
					<path class="st3" d="M274.88,164.97c0.07,0.07,0.13,0.14,0.19,0.2C275.01,165.11,274.95,165.04,274.88,164.97z"/>
				</g>
			</g>
		</g>
		<g>
			<g>
				<g>
					<path class="st3" d="M281.66,181.65c0.03,0.15,0.05,0.3,0.08,0.44C281.71,181.94,281.68,181.8,281.66,181.65z"/>
				</g>
			</g>
		</g>
		<g>
			<g>
				<g>
					<path class="st3" d="M274.54,164.62c0.07,0.06,0.13,0.13,0.2,0.2C274.67,164.75,274.61,164.68,274.54,164.62z"/>
				</g>
			</g>
		</g>
		<g>
			<g>
				<g>
					<path class="st3" d="M277.79,169.28c0.05,0.1,0.09,0.19,0.14,0.29C277.88,169.47,277.84,169.37,277.79,169.28z"/>
				</g>
			</g>
		</g>
		<g>
			<g>
				<g>
					<path class="st3" d="M278.82,171.57c0.04,0.1,0.08,0.2,0.12,0.3C278.9,171.77,278.86,171.67,278.82,171.57z"/>
				</g>
			</g>
		</g>
		<g>
			<g>
				<g>
					<path class="st3" d="M278.48,170.76c0.04,0.1,0.09,0.2,0.13,0.29C278.57,170.96,278.53,170.86,278.48,170.76z"/>
				</g>
			</g>
		</g>
		<g>
			<g>
				<g>
					<path class="st3" d="M278.11,169.93c0.05,0.09,0.09,0.18,0.13,0.28C278.19,170.12,278.15,170.03,278.11,169.93z"/>
				</g>
			</g>
		</g>
		<g>
			<g>
				<g>
					<path class="st3" d="M279.4,173.12c0.04,0.11,0.08,0.22,0.12,0.33C279.48,173.34,279.45,173.23,279.4,173.12z"/>
				</g>
			</g>
		</g>
		<g>
			<g>
				<g>
					<path class="st3" d="M279.72,174.03c0.02,0.08,0.06,0.17,0.08,0.25C279.77,174.2,279.74,174.11,279.72,174.03z"/>
				</g>
			</g>
		</g>
		<g>
			<g>
				<g>
					<path class="st3" d="M280.06,175.12c0.03,0.11,0.06,0.21,0.1,0.32C280.12,175.33,280.09,175.23,280.06,175.12z"/>
				</g>
			</g>
		</g>
		<g>
			<g>
				<g>
					<path class="st3" d="M279.11,172.32c0.04,0.11,0.08,0.22,0.12,0.33C279.2,172.54,279.15,172.43,279.11,172.32z"/>
				</g>
			</g>
		</g>
		<g>
			<g>
				<g>
					<path class="st3" d="M227.87,357.91l0.18-17.88c0.05-5.24,0.06-10.48,0.06-15.73c0.39,0.09,0.79,0.19,1.22,0.29
						c0.02,1.2,0.02,2.4,0.05,3.6l0.23,11.27c0.12,3.76,0.2,7.51,0.37,11.27c0.14-3.76,0.2-7.51,0.29-11.27l0.15-11.27
						c0.02-1.11,0.02-2.23,0.02-3.34c4.92,1.09,12.14,2.28,20.7,2.45l0.11,36.71c-10.53-0.21-18.95-1.99-23.45-3.17
						C227.84,359.86,227.85,358.88,227.87,357.91z"/>
				</g>
			</g>
		</g>
		<g>
			<g>
				<g>
					<path class="st3" d="M261.18,395.86c-0.07,2.36-0.13,4.74-0.18,7.16l0.74-0.05c2.11-0.16,4.23-0.31,6.33-0.53
						c2.11-0.2,4.2-0.45,6.29-0.74c2.09-0.29,4.17-0.65,6.24-1.06c-0.98,0.35-2,0.62-3.01,0.9c-1.02,0.25-2.05,0.48-3.1,0.68
						c-2.08,0.41-4.2,0.69-6.32,0.9c-2.12,0.2-4.25,0.34-6.39,0.37c-0.84,0.02-1.68,0.01-2.52,0l-0.02-6.96
						c0-0.21-0.01-0.42-0.03-0.64C259.87,395.9,260.52,395.88,261.18,395.86z"/>
				</g>
			</g>
		</g>
		<g>
			<g>
				<g>
					<path class="st7" d="M212.34,406.06c2.05,0.27,4.11,0.32,6.17,0.33c0.51,0,1.13-0.04,1.65-0.22c0.53-0.18,1.02-0.43,1.4-0.77
						c0.78-0.66,1.16-1.6,0.97-2.45c-0.17,0.85-0.69,1.57-1.42,2.06c-0.74,0.49-1.62,0.72-2.6,0.68c-0.23,0-0.46,0.01-0.69,0.01
						l-0.1-32.89c0.59-0.06,1.17-0.14,1.75-0.28c0.5-0.11,1-0.25,1.47-0.45c0.23-0.1,0.46-0.21,0.66-0.37
						c0.19-0.14,0.39-0.35,0.34-0.57c-0.05,0.21-0.27,0.33-0.48,0.42c-0.22,0.09-0.45,0.15-0.68,0.21
						c-0.47,0.11-0.96,0.18-1.45,0.24c-0.98,0.11-1.97,0.18-2.97,0.21c-0.99,0.04-1.99,0.04-2.99,0.03c-1-0.03-1.99-0.07-3-0.19
						c-0.19-0.05-0.36-0.11-0.52-0.17c-0.83,0.57-1.37,1.41-1.37,2.37l0.09,28.73C208.58,404.69,210.27,406.06,212.34,406.06z
						 M209.75,403.53c0,0-0.03-0.46-0.08-1.26c-0.04-0.81-0.13-1.95-0.16-3.32c-0.04-1.38-0.13-2.98-0.14-4.7
						c-0.02-1.72-0.05-3.56-0.07-5.39c0.01-1.84,0.03-3.67,0.04-5.39c0.01-1.72,0.09-3.33,0.12-4.7c0.03-1.38,0.11-2.53,0.14-3.33
						c0.05-0.8,0.08-1.26,0.08-1.26s0.03,0.46,0.09,1.26c0.03,0.8,0.12,1.95,0.17,3.33c0.04,1.37,0.12,2.98,0.14,4.7
						c0.02,1.72,0.05,3.55,0.07,5.39c-0.01,1.83-0.03,3.67-0.04,5.39c-0.01,1.72-0.08,3.33-0.11,4.7c-0.04,1.37-0.12,2.52-0.15,3.33
						C209.78,403.07,209.75,403.53,209.75,403.53z"/>
				</g>
			</g>
		</g>
		<g>
			<g>
				<g>
					<path class="st2" d="M230.06,271.84l0.22,11.27c0.02,0.7,0.02,1.39,0.03,2.09l-1.08-0.15c0-0.64,0-1.28,0.01-1.93l0.15-11.27
						c0.1-3.76,0.15-7.52,0.3-11.27C229.86,264.33,229.94,268.09,230.06,271.84z"/>
				</g>
			</g>
		</g>
		<g>
			<g>
				<g>
					<polygon class="st2" points="232.11,215.18 231.25,212.19 236.62,210.23 238.34,214.86 					"/>
				</g>
			</g>
		</g>
		<g>
			<g>
				<g>
					<polygon class="st2" points="238.36,221.57 232.33,220.24 232.32,217.17 238.35,217.46 					"/>
				</g>
			</g>
		</g>
		<g>
			<g>
				<g>
					<path class="st3" d="M274.51,164.59c-0.79-0.89-1.78-1.68-2.94-2.28c-1.18-0.58-2.52-0.93-3.89-1.07
						c-1.34-0.15-2.81-0.09-4.13,0.32c-1.32,0.4-2.5,1.02-3.56,1.73c-2.1,1.46-3.82,3.21-5.3,5.06c-1.49,1.86-2.8,3.79-3.92,5.79
						c-7.52,11.43-13.2,26.85-14.16,29.51l0.01,4.83l-5.37,2.07l-0.01-3.24c-5.65,4.71-6.74,11.05-6.72,17.87
						c0.01,4.35,0.48,8.9,0.49,13.34c0,1.29,0.01,3.82,0.02,7.35c0.46,0.14,1.05,0.31,1.76,0.51c0.08-4.54,0.15-9.08,0.28-13.62
						c0.16,4.6,0.26,9.2,0.37,13.8c4.49,1.18,12.92,2.96,23.47,3.17l-0.16-52.56c0.45,7.54,0.73,15.09,1.07,22.63l0.61,19.36
						l-0.21-66.92c0.23-0.3,0.46-0.59,0.7-0.88c0.32-0.41,0.65-0.81,0.98-1.21l0.05,15.4c0.9,10.19,3.02,35.75,3.07,51.89
						c0.06,20.53,0.41,134.37,0.44,142.51c0.01,3.2-0.1,6.03-0.27,8.55l1.48,4.55c0.29,0.89,0.46,1.79,0.53,2.7
						c0.21-0.02,0.43-0.04,0.65-0.06c0.12-0.01,0.25-0.01,0.41-0.02c0.65-0.03,1.59-0.06,2.7-0.22c0.55-0.06,1.16-0.14,1.79-0.25
						c0.63-0.11,1.3-0.21,1.97-0.38c1.36-0.31,2.79-0.69,4.18-1.15c1.4-0.46,2.74-1.01,3.98-1.55c1.24-0.54,2.34-1.13,3.27-1.65
						c0.87-0.48,1.55-0.94,2.05-1.27c-0.01-0.05-0.02-0.11-0.03-0.16c-0.54,0.29-1.33,0.66-2.27,1.1c-0.96,0.46-2.12,0.94-3.35,1.45
						c-1.24,0.5-2.58,1.02-3.96,1.44c-1.35,0.48-2.75,0.88-4.07,1.21c-0.66,0.18-1.31,0.31-1.91,0.46
						c-0.61,0.15-1.19,0.27-1.73,0.37c-0.63,0.13-1.18,0.23-1.68,0.32c0.37-11.96,1.04-23.37,1.89-34.31
						c-1.32,0.06-2.64,0.07-3.96,0.03c1.08-0.05,2.16-0.15,3.23-0.28c0.45-0.03,0.95-0.07,1.49-0.15c1.06-0.12,2.29-0.3,3.59-0.57
						c0.65-0.15,1.31-0.32,1.98-0.48c0.66-0.19,1.35-0.37,2.02-0.58c1.22-0.43,2.42-0.88,3.52-1.37c-0.02-0.22-0.05-0.44-0.07-0.66
						c-1.17,0.51-2.47,0.96-3.77,1.38c-0.65,0.22-1.31,0.41-1.95,0.62c-0.66,0.17-1.31,0.34-1.93,0.51
						c-1.27,0.28-2.44,0.6-3.48,0.77c-0.22,0.04-0.43,0.08-0.63,0.12c0.93-11.79,2.07-23.05,3.29-33.88
						c-2.31,0.28-4.65,0.38-6.95,0.3c1.83-0.09,3.65-0.3,5.43-0.61c0.81-0.07,1.68-0.18,2.59-0.34c0.65-0.14,1.34-0.27,2.02-0.44
						c0.67-0.19,1.37-0.34,2.04-0.57c0.66-0.24,1.34-0.46,1.97-0.74c0.54-0.21,1.04-0.45,1.53-0.69c0.01-0.23,0.02-0.46,0.03-0.7
						c-0.67,0.31-1.27,0.57-1.91,0.8c-0.62,0.26-1.28,0.46-1.94,0.68c-0.64,0.23-1.32,0.4-1.97,0.6c-0.66,0.18-1.33,0.31-1.95,0.47
						c-0.26,0.05-0.52,0.1-0.77,0.15c1.34-11.85,2.77-23.21,4.1-34.23c-3.69,0.86-7.52,1.19-11.28,1.07
						c3.95-0.2,7.83-0.91,11.41-2.15c0.08-0.03,0.16-0.05,0.23-0.07c1.37-0.44,2.71-0.94,3.92-1.48c0.7-0.31,1.34-0.64,1.92-0.97
						c0.01-0.19,0.02-0.38,0.03-0.58c-0.7,0.33-1.48,0.68-2.3,1.02c-1.15,0.49-2.42,0.93-3.72,1.32
						c1.39-11.57,2.66-22.78,3.59-33.82c-0.98,0.34-1.99,0.65-3.01,0.9c-3.97,1.02-8.11,1.42-12.18,1.28
						c4.01-0.21,7.94-0.93,11.58-2.2c1.44-0.45,2.78-0.95,3.98-1.5c1.21-0.53,2.26-1.15,3.14-1.68c0.35-0.21,0.66-0.42,0.93-0.62
						c0.01-0.12,0.01-0.24,0.02-0.35c-0.36,0.2-0.77,0.42-1.23,0.65c-0.86,0.46-1.92,0.94-3.06,1.41
						c0.89-11.1,1.44-22.05,1.41-33.02c-1.53,0.55-3.09,1.08-4.7,1.47c-3.97,1.02-8.11,1.41-12.18,1.28
						c4.01-0.21,7.94-0.93,11.58-2.2c1.44-0.45,2.78-0.95,3.98-1.5c1.21-0.53,2.26-1.14,3.14-1.68c0.89-0.53,1.54-1.06,2.01-1.42
						c0.45-0.38,0.68-0.61,0.68-0.61s-0.27,0.19-0.79,0.5c-0.5,0.31-1.25,0.73-2.17,1.2c-0.47,0.25-1,0.5-1.56,0.76
						c-0.08-12.36-0.51-22.29-1.14-30.26c0.06-0.03,0.12-0.06,0.17-0.1c0.29-0.24,0.37-0.63,0.18-0.91
						c-0.1-0.16-0.27-0.27-0.46-0.33c-0.07-0.85-0.15-1.66-0.22-2.47c0.18-0.03,0.35-0.1,0.49-0.21c0.29-0.24,0.37-0.63,0.18-0.91
						c-0.16-0.26-0.5-0.4-0.81-0.37c-0.77-7.59-1.72-13.04-2.69-16.96c-1.34-0.19-3.12-0.36-5.42-0.39c-3.6-0.06-6.28,0.15-8.18,0.4
						c0.76-0.69,1.55-1.33,2.41-1.92c1-0.68,2.11-1.27,3.31-1.65c1.19-0.4,2.47-0.47,3.79-0.4
						C270.24,161.87,272.69,162.96,274.51,164.59z M265.05,318.49l0.01,4.43l-1.78,0.01l-0.01-4.43L265.05,318.49z M266.83,288.29
						l-0.01-4.43l1.78-0.01l0.01,4.43L266.83,288.29z M264.93,280.87l0.01,4.43l-1.78,0.01l-0.01-4.43L264.93,280.87z
						 M232.32,217.17l6.03,0.29l0.01,4.11l-6.03-1.33L232.32,217.17z M236.62,210.23l1.72,4.63l-6.23,0.32l-0.86-2.99L236.62,210.23
						z M237.46,203.94c0.08,0.86,0.12,1.71,0.17,2.57c0.06,0.85,0.08,1.69,0.12,2.53c0.89,2.08,1.73,4.18,2.53,6.28
						c0.04,3.03,0.03,5.96-0.05,8.88l-0.01,0.36l-0.4-0.12c-2.4-0.69-4.8-1.4-7.16-2.18c2.33,0.49,4.63,1.03,6.94,1.58
						c-0.09-2.8-0.12-5.59-0.12-8.38c-0.79-2.1-1.55-4.21-2.26-6.34c0.02-0.92,0.03-1.78,0.09-2.64
						C237.35,205.65,237.39,204.8,237.46,203.94z M273.47,183.38c0-0.38,0.37-0.68,0.82-0.69c0.32,0.07,0.55,0.26,0.62,0.47
						c0.07,0.21,0,0.43-0.18,0.57c-0.17,0.14-0.44,0.2-0.69,0.14C273.79,183.83,273.56,183.64,273.47,183.38z M273.48,187.31
						c0-0.38,0.37-0.68,0.82-0.68c0.32,0.07,0.55,0.26,0.62,0.47c0.07,0.21,0,0.43-0.18,0.57c-0.17,0.15-0.44,0.2-0.69,0.15
						C273.8,187.76,273.57,187.57,273.48,187.31z M270.93,185.93c0.93,0,1.69,0.62,1.69,1.38c0,0.77-0.75,1.39-1.69,1.39
						c-0.94,0-1.69-0.62-1.69-1.38C269.24,186.56,269.99,185.93,270.93,185.93z M270.91,182c0.93,0,1.69,0.61,1.69,1.38
						c0,0.76-0.75,1.39-1.69,1.39c-0.94,0-1.69-0.61-1.69-1.38C269.23,182.63,269.98,182.01,270.91,182z"/>
				</g>
			</g>
		</g>
		<g>
			<g>
				<g>
					<path class="st2" d="M237.75,209.04c0.89,2.08,1.73,4.18,2.53,6.28c0.04,3.03,0.03,5.96-0.05,8.88l-0.01,0.36l-0.4-0.12
						c-2.4-0.69-4.8-1.4-7.16-2.18c2.33,0.49,4.63,1.03,6.94,1.58c-0.09-2.8-0.12-5.59-0.12-8.38c-0.79-2.1-1.55-4.21-2.26-6.34
						c0.02-0.92,0.03-1.78,0.09-2.64c0.05-0.86,0.09-1.71,0.16-2.57c0.08,0.86,0.12,1.71,0.17,2.57
						C237.7,207.35,237.71,208.19,237.75,209.04z"/>
				</g>
			</g>
		</g>
		<g>
			<g>
				<g>
					<path class="st2" d="M272.61,183.39c0,0.76-0.75,1.39-1.69,1.39c-0.94,0-1.69-0.61-1.69-1.38c0-0.77,0.75-1.39,1.68-1.39
						C271.85,182,272.6,182.62,272.61,183.39z"/>
				</g>
			</g>
		</g>
		<g>
			<g>
				<g>
					<path class="st2" d="M274.3,182.7c0.32,0.07,0.55,0.26,0.62,0.47c0.07,0.21,0,0.43-0.18,0.57c-0.17,0.14-0.44,0.2-0.69,0.14
						c-0.25-0.05-0.49-0.24-0.57-0.5C273.47,183.01,273.84,182.7,274.3,182.7z"/>
				</g>
			</g>
		</g>
		<g>
			<g>
				<g>
					<path class="st2" d="M272.62,187.31c0,0.77-0.75,1.39-1.69,1.39c-0.94,0-1.69-0.62-1.69-1.38c0-0.76,0.75-1.39,1.68-1.39
						C271.86,185.93,272.62,186.55,272.62,187.31z"/>
				</g>
			</g>
		</g>
		<g>
			<g>
				<g>
					<path class="st2" d="M274.31,186.63c0.32,0.07,0.55,0.26,0.62,0.47c0.07,0.21,0,0.43-0.18,0.57c-0.17,0.15-0.44,0.2-0.69,0.15
						c-0.25-0.06-0.49-0.24-0.57-0.51C273.48,186.93,273.85,186.63,274.31,186.63z"/>
				</g>
			</g>
		</g>
		<g>
			<g>
				<g>
					
						<rect x="263.16" y="280.88" transform="matrix(1 -3.066052e-03 3.066052e-03 1 -0.8667 0.8109)" class="st2" width="1.78" height="4.43"/>
				</g>
			</g>
		</g>
		<g>
			<g>
				<g>
					
						<rect x="266.82" y="283.86" transform="matrix(1 -3.066052e-03 3.066052e-03 1 -0.8758 0.8222)" class="st2" width="1.78" height="4.43"/>
				</g>
			</g>
		</g>
		<g>
			<g>
				<g>
					
						<rect x="263.28" y="318.49" transform="matrix(1 -3.066052e-03 3.066052e-03 1 -0.9821 0.8115)" class="st2" width="1.78" height="4.43"/>
				</g>
			</g>
		</g>
		<g>
			<g>
				<g>
					<path class="st2" d="M246.23,394.83c0,0.52-0.51,0.95-1.15,0.95c-0.64,0-1.16-0.42-1.16-0.94c0-0.52,0.52-0.95,1.15-0.95
						C245.71,393.88,246.23,394.3,246.23,394.83z"/>
				</g>
			</g>
		</g>
		<g>
			<g>
				<g>
					<path class="st2" d="M246.25,400.74c0,0.52-0.51,0.95-1.15,0.95c-0.64,0-1.16-0.42-1.16-0.94c0-0.52,0.52-0.95,1.15-0.95
						C245.73,399.8,246.25,400.23,246.25,400.74z"/>
				</g>
			</g>
		</g>
		<g>
			<g>
				<g>
					<path class="st2" d="M246.27,406.66c0,0.52-0.51,0.95-1.15,0.95c-0.64,0-1.16-0.42-1.16-0.94c0-0.52,0.52-0.94,1.15-0.95
						C245.75,405.72,246.27,406.14,246.27,406.66z"/>
				</g>
			</g>
		</g>
		<g>
			<g>
				<g>
					<path class="st3" d="M290.61,422.92l0.22-20.86c0.08-6.95,0.07-13.91,0.12-20.86c-0.66-6.63-1.15-13.26-1.68-19.87
						c-0.52-6.62-0.97-13.24-1.39-19.86c-0.41-6.62-0.79-13.25-1.13-19.87c-0.39-6.63-0.69-13.25-1.01-19.88
						c-0.28-6.63-0.58-13.26-0.79-19.88c-0.26-6.63-0.49-13.26-0.69-19.89l-0.56-19.89l-0.46-19.89c0,0-4.64,73.59-6.01,109.98
						c0.81,8.67,1.69,17.35,2.7,26.02c1.09,9.22,2.24,18.43,3.89,27.59c-2.07-9.11-3.65-18.29-5.15-27.47
						c-0.63-3.87-1.23-7.73-1.81-11.61c0,0.27,0,0.54,0,0.78C276.92,370.5,290.61,422.92,290.61,422.92z M283.23,222.17l-0.07,19.9
						c0.03,6.63,0.07,13.27,0.2,19.9c0.17,13.27,0.59,26.53,1.12,39.79c0.29,6.63,0.55,13.26,0.91,19.89
						c0.34,6.63,0.77,13.26,1.22,19.88c0.91,13.24,1.92,26.48,3.41,39.69c0.04,3.26,0.07,6.52,0.1,9.78
						c-6.63-19.9-9.36-64.28-10.11-114.79C281.62,247.76,283.23,222.18,283.23,222.17z"/>
				</g>
			</g>
		</g>
		<g>
			<g>
				<g>
					<path class="st6" d="M290.88,424.99c1.29-0.12,2.27-1.01,2.26-2.07l-0.13-41.72c0-0.06,0-0.12-0.01-0.18
						c-1.6-14.39-4.24-47.37-5.86-91.98l-0.22-70.35c-0.07-24.06-2.15-40.18-6.36-49.29c-2.16-4.68-5.75-10.05-14.4-10.03
						c-7.39,0.02-14.84,7.41-22.78,22.58c-4.69,8.97-8.11,18.03-9.1,20.73c-4.79,2.41-8.08,5.62-10.04,9.77
						c-1.6,3.38-2.3,7.31-2.29,12.73c0.01,2.21,0.13,4.49,0.24,6.69c0.12,2.19,0.24,4.46,0.25,6.65l0.37,119.14
						c-2.29,0.25-4.78,0.53-6.67,0.74c-1.29,0.15-3.24,0.38-25.62,16.64c-11.81,8.57-24.8,18.36-31.5,23.43
						c-3.41,2.58-5.36,6.25-5.35,10.06l0.04,13.3c0,1.15,1.14,2.07,2.54,2.07l9.72-0.03c0.41,0,0.82-0.09,1.18-0.25l40.15-17.54
						c1.15,1.24,2.97,2.05,5.02,2.04l6.44-0.02c3.47-0.01,6.28-2.34,6.27-5.18l-0.01-4.21c1.76,1.12,5.26,2.98,10.85,4.46
						c-0.02,1.26-0.04,2.53-0.06,3.79l-0.01,0.28c0,0.11,0,0.25,0.02,0.38c0.03,0.26,0.1,0.52,0.2,0.76c0.2,0.5,0.54,0.95,0.98,1.33
						c0.26,0.21,0.38,0.29,0.56,0.43l0.5,0.38l1.01,0.75l0.5,0.38c0.19,0.14,0.29,0.22,0.57,0.42c0.5,0.33,1.09,0.57,1.71,0.69
						c0.31,0.06,0.63,0.09,0.95,0.09l0.7,0l1.37,0l1.36-0.01l0.7-0.01c0.32-0.01,0.64-0.04,0.95-0.1c0.62-0.12,1.21-0.36,1.7-0.7
						c0.28-0.19,0.38-0.28,0.57-0.42l0.5-0.38l1-0.76l0.5-0.38c0.18-0.14,0.3-0.23,0.56-0.44c0.44-0.38,0.77-0.84,0.97-1.34
						c0.1-0.24,0.17-0.5,0.2-0.76c0.01-0.13,0.01-0.26,0.01-0.38l-0.01-0.28c-0.01-0.5-0.02-0.99-0.03-1.48
						c0.49,0.01,0.98,0.01,1.48,0.01c2.11-0.01,4.1-0.06,5.97-0.13c0.31,1.52,0.58,2.5,0.6,2.59c0.1,0.32,0.35,0.58,0.67,0.75
						l-0.58,2.17c-0.02,0.09-0.03,0.18-0.03,0.27c0,0.28,0.12,0.56,0.34,0.78c0.29,0.29,0.73,0.46,1.19,0.46l17.83-0.06
						c0.46,0,0.9-0.17,1.18-0.47c0.22-0.22,0.33-0.5,0.33-0.79c0-0.09-0.01-0.18-0.04-0.27l-0.59-2.16
						c0.32-0.18,0.58-0.44,0.67-0.76c0.03-0.1,0.35-1.28,0.68-3.07c2.37,10.29,4.32,17.79,4.53,18.58
						C288.4,424.4,289.59,425.1,290.88,424.99z M290.61,422.92c0,0-13.69-52.42-13.76-75.46c0-0.24,0-0.51,0-0.78
						c0.58,3.87,1.19,7.74,1.81,11.61c1.5,9.18,3.08,18.37,5.15,27.47c-1.65-9.16-2.81-18.38-3.89-27.59
						c-1.01-8.67-1.89-17.35-2.7-26.02c1.37-36.39,6.01-109.98,6.01-109.98l0.46,19.89l0.56,19.89c0.2,6.63,0.43,13.26,0.69,19.89
						c0.21,6.63,0.51,13.25,0.79,19.88c0.32,6.62,0.62,13.25,1.01,19.88c0.34,6.62,0.72,13.25,1.13,19.87
						c0.42,6.62,0.87,13.24,1.39,19.86c0.53,6.61,1.02,13.23,1.68,19.84c-0.05,6.99-0.03,13.94-0.12,20.9L290.61,422.92z
						 M267.61,161.77c-1.32-0.07-2.6,0-3.79,0.4c-1.2,0.38-2.3,0.97-3.31,1.65c-0.85,0.59-1.65,1.24-2.41,1.92
						c1.91-0.26,4.58-0.46,8.18-0.4c2.3,0.03,4.08,0.19,5.42,0.39c0.97,3.92,1.93,9.38,2.69,16.96c0.31-0.03,0.65,0.12,0.81,0.37
						c0.19,0.28,0.11,0.67-0.18,0.91c-0.13,0.11-0.31,0.18-0.49,0.21c0.07,0.8,0.15,1.62,0.22,2.47c0.19,0.06,0.36,0.17,0.46,0.33
						c0.19,0.28,0.11,0.68-0.18,0.91c-0.05,0.04-0.11,0.07-0.17,0.1c0.63,7.97,1.06,17.9,1.14,30.26c0.56-0.26,1.09-0.51,1.56-0.76
						c0.92-0.47,1.66-0.89,2.17-1.2c0.52-0.31,0.79-0.5,0.79-0.5s-0.23,0.23-0.68,0.61c-0.47,0.35-1.12,0.89-2.01,1.42
						c-0.88,0.54-1.93,1.15-3.14,1.68c-1.2,0.55-2.54,1.05-3.92,1.48c-3.7,1.29-7.64,2.01-11.64,2.22
						c4.07,0.14,8.22-0.26,12.18-1.28c1.61-0.4,3.18-0.92,4.7-1.53c0.03,11.02-0.52,21.97-1.41,33.07c1.14-0.47,2.2-0.95,3.06-1.41
						c0.46-0.23,0.87-0.45,1.23-0.65c-0.01,0.12-0.01,0.24-0.02,0.35c-0.28,0.2-0.58,0.41-0.93,0.62c-0.88,0.54-1.93,1.15-3.14,1.68
						c-1.2,0.55-2.54,1.05-3.92,1.49c-3.7,1.28-7.64,2.01-11.64,2.21c4.07,0.13,8.22-0.26,12.18-1.28c1.02-0.25,2.03-0.55,3.01-0.9
						c-0.93,11.04-2.2,22.25-3.59,33.82c1.3-0.39,2.57-0.83,3.72-1.32c0.83-0.34,1.6-0.68,2.3-1.02c-0.01,0.19-0.02,0.39-0.03,0.58
						c-0.59,0.33-1.23,0.67-1.92,0.97c-1.2,0.55-2.54,1.04-3.92,1.48c-0.08,0.02-0.16,0.04-0.23,0.06
						c-3.59,1.25-7.47,1.95-11.41,2.16c3.76,0.12,7.59-0.21,11.28-1.07c-1.33,11.02-2.75,22.38-4.1,34.23
						c0.25-0.05,0.51-0.1,0.77-0.15c0.63-0.16,1.3-0.29,1.95-0.47c0.65-0.2,1.32-0.37,1.97-0.6c0.66-0.22,1.32-0.42,1.94-0.68
						c0.63-0.23,1.24-0.49,1.81-0.75c0.09,0.19,0.08,0.42,0.06,0.65c-0.49,0.24-1,0.48-1.53,0.69c-0.63,0.28-1.31,0.5-1.97,0.74
						c-0.67,0.23-1.37,0.39-2.04,0.57c-0.68,0.17-1.37,0.29-2.02,0.44c-0.91,0.16-1.78,0.27-2.59,0.34
						c-1.78,0.31-3.6,0.52-5.43,0.61c2.31,0.08,4.64-0.02,6.95-0.3c-1.22,10.83-2.36,22.09-3.29,33.88c0.2-0.04,0.41-0.08,0.63-0.12
						c1.04-0.17,2.21-0.49,3.48-0.77c0.62-0.17,1.27-0.34,1.93-0.51c0.64-0.21,1.3-0.4,1.95-0.62c1.3-0.42,2.59-0.87,3.76-1.38
						c0.03,0.21,0.05,0.43,0.08,0.65c-1.1,0.49-2.3,0.94-3.52,1.37c-0.67,0.21-1.35,0.39-2.02,0.58c-0.67,0.17-1.33,0.33-1.98,0.48
						c-1.3,0.27-2.53,0.45-3.59,0.57c-0.55,0.08-1.05,0.12-1.49,0.15c-1.07,0.13-2.15,0.22-3.23,0.28c1.31,0.04,2.63,0.03,3.96-0.03
						c-0.86,10.94-1.52,22.34-1.89,34.31c0.49-0.09,1.05-0.19,1.68-0.32c0.54-0.09,1.12-0.21,1.73-0.37
						c0.61-0.15,1.26-0.28,1.91-0.46c1.32-0.33,2.72-0.74,4.07-1.21c1.38-0.42,2.72-0.94,3.96-1.44c1.23-0.51,2.4-0.99,3.35-1.45
						c0.94-0.44,1.73-0.82,2.27-1.1c0.01,0.05,0.02,0.11,0.03,0.16c-0.5,0.33-1.17,0.8-2.05,1.27c-0.93,0.52-2.03,1.11-3.27,1.65
						c-1.25,0.54-2.59,1.09-3.98,1.55c-1.39,0.45-2.83,0.84-4.18,1.15c-0.67,0.17-1.34,0.27-1.97,0.38
						c-0.63,0.11-1.23,0.19-1.79,0.25c-1.11,0.16-2.04,0.19-2.7,0.22c-0.15,0.01-0.29,0.01-0.41,0.02
						c-0.21,0.02-0.43,0.05-0.65,0.06c-0.07-0.91-0.24-1.81-0.53-2.7l-1.48-4.55c0.17-2.52,0.28-5.35,0.27-8.55
						c-0.02-8.14-0.37-121.99-0.44-142.51c-0.05-16.14-2.17-41.7-3.07-51.89l-0.05-15.4c-0.33,0.39-0.66,0.8-0.98,1.21
						c-0.24,0.29-0.47,0.59-0.7,0.88l0.21,66.92l-0.61-19.36c-0.34-7.55-0.63-15.09-1.07-22.63l0.16,52.56
						c-10.55-0.21-18.98-1.99-23.47-3.17c-0.11-4.6-0.21-9.2-0.37-13.8c-0.13,4.54-0.21,9.08-0.28,13.62
						c-0.72-0.19-1.31-0.36-1.76-0.51c-0.01-3.53-0.02-6.07-0.02-7.35c-0.01-4.44-0.48-8.99-0.49-13.34
						c-0.02-6.82,1.07-13.16,6.72-17.87l0.01,3.24l5.37-2.07l-0.01-4.83c0.95-2.66,6.64-18.08,14.17-29.52
						c1.12-2,2.42-3.93,3.91-5.79c1.48-1.85,3.2-3.6,5.3-5.06c1.06-0.71,2.24-1.34,3.56-1.73c1.32-0.4,2.79-0.47,4.13-0.32
						c1.37,0.13,2.71,0.48,3.89,1.07c1.16,0.6,2.15,1.39,2.94,2.28C272.69,162.96,270.24,161.87,267.61,161.77z M160.76,400.01
						c13.38-10.14,51.92-39.09,55.75-39.54c1.8-0.21,4.13-0.47,6.33-0.71l0.01,2.3l-6.91,1.24l6.92,0.48l0.02,6.61
						c-1.12-0.82-2.59-1.32-4.21-1.32l-6.44,0.02c-3.47,0.01-6.28,2.33-6.28,5.18l0.04,13.86l-45.35,23.98L206,390.49l0,1.35
						L157,415.24c-0.1-1.17-0.24-2.28-0.35-3.38c-0.12-1.11-0.26-2.22-0.42-3.32C156.22,405.3,157.86,402.21,160.76,400.01z
						 M208.58,402.99l-0.09-28.73c0-0.96,0.54-1.8,1.37-2.37c0.15,0.06,0.33,0.12,0.52,0.17c1.01,0.12,2.01,0.16,3,0.19
						c1,0.01,2,0.01,2.99-0.03c1-0.03,1.99-0.09,2.97-0.21c0.48-0.06,0.97-0.12,1.45-0.24c0.23-0.06,0.46-0.12,0.68-0.21
						c0.21-0.09,0.43-0.21,0.48-0.42c0.05,0.22-0.15,0.43-0.34,0.57c-0.19,0.16-0.43,0.27-0.66,0.37c-0.47,0.2-0.97,0.34-1.47,0.45
						c-0.58,0.13-1.16,0.22-1.75,0.28l0.1,32.89c0.23-0.01,0.46-0.01,0.69-0.01c0.98,0.04,1.86-0.19,2.6-0.68
						c0.73-0.49,1.25-1.21,1.42-2.06c0.19,0.85-0.19,1.8-0.97,2.45c-0.39,0.34-0.87,0.59-1.4,0.77c-0.52,0.17-1.14,0.22-1.65,0.22
						c-2.05,0-4.11-0.06-6.17-0.33C210.27,406.06,208.58,404.69,208.58,402.99z M235.94,401.01c-2.74-0.78-4.91-1.63-6.53-2.4
						c-0.01-2.17-0.02-6.81-0.03-10.68c-0.02-4.96-1.35-6.93-3.95-10.42c-0.01-4.68-0.03-10.04-0.05-15.89
						c0.49,0.14,1.08,0.31,1.76,0.49c0.1,4.55,0.21,9.11,0.37,13.67c0.13-4.5,0.2-9.01,0.28-13.51c4.73,1.21,13.12,2.9,23.47,3.11
						l0.04,12.91c0.23-4.29,0.4-8.6,0.57-12.9c0.31,0,0.63,0.01,0.94,0.01l0.08,26.77l-1.26-3.16c-1.17-2.84-2.34-5.67-3.61-8.49
						c0.74,2.94,1.58,5.85,2.42,8.77l1.31,4.37c0.11,0.34,0.09,0.49,0.08,0.92l-0.03,1.12l-0.07,2.24c-0.11,3-0.12,5.99-0.18,8.99
						l0,0.28c0,0.07-0.01,0.11-0.01,0.17c-0.02,0.12-0.05,0.23-0.1,0.33c-0.09,0.22-0.24,0.41-0.43,0.58l-1.96,1.46l-0.45,0.33
						l-0.8-13.92l-0.75,14.62c-0.1,0.01-0.77,0.01-0.77,0.01l-1.36,0l-1.37,0.01l-0.67,0c-0.1-0.01-0.94-14.62-0.94-14.62
						l-0.71,13.92l-0.45-0.33l-1.98-1.45c-0.19-0.16-0.34-0.36-0.44-0.57c-0.04-0.11-0.08-0.22-0.1-0.33
						c-0.01-0.06-0.01-0.11-0.02-0.17l0-0.28c-0.08-3-0.11-5.99-0.24-8.98l-0.08-2.24l-0.04-1.12c-0.02-0.44-0.04-0.58,0.07-0.92
						l1.28-4.37c0.82-2.93,1.65-5.84,2.37-8.79c-1.26,2.82-2.41,5.67-3.57,8.51l-1.68,4.27c-0.18,0.37-0.23,0.99-0.22,1.3
						l-0.04,1.12l-0.06,2.24C235.98,399.01,235.97,400.01,235.94,401.01z M262.88,405.25c4.54-0.24,8.34-0.67,11.46-1.17
						c-0.46,1.01-0.95,1.98-1.51,2.89l7.98-0.03c0.19-0.77,0.56-2.38,0.84-4.42c0.28-0.07,0.54-0.15,0.8-0.23
						c-0.4,3.06-1.02,5.27-1.02,5.27l-9,0.03l-0.87,0l-8.13,0.03C263.44,407.63,263.18,406.71,262.88,405.25z M264.13,408.88l0.54,0
						l-0.48,1.79l1.26,0l0.36-1.79l1.46,0l-0.42,1.79l1.12,0l0.3-1.79l4.15-0.01l0.69,0l-0.08,1.79l4.83-0.02l-0.35-1.79l1.6-0.01
						l0.35,1.79l1.22,0l-0.49-1.79l0.54,0l0.61,2.22l-17.83,0.06L264.13,408.88z M255.52,351.51l-0.17-16.64l-0.2-33.29l0-33.29
						l0.07-16.65l0.16-16.65l0.26,16.65l0.17,16.64l0.2,33.29l0,33.29l-0.07,16.65l-0.16,16.64L255.52,351.51z M225.03,247.35
						c0.49,0.14,1.07,0.31,1.73,0.49c-0.02,0.93-0.03,1.87-0.05,2.8l-0.18,17.88c-0.04,5.27-0.06,10.55-0.07,15.83
						c-0.52-0.15-0.96-0.28-1.32-0.39C225.1,268.89,225.06,255.76,225.03,247.35z M225.15,285.44c0.38,0.11,0.82,0.23,1.32,0.36
						c-0.01,6.16,0,12.31-0.02,18.47c0.05,6.05,0.09,12.11,0.13,18.16c-0.52-0.15-0.96-0.28-1.31-0.39
						C225.23,309.6,225.19,296.99,225.15,285.44z M157.13,416.78l48.88-23.34l0.03,9.3c-1.52,0.61-3.04,1.22-4.56,1.85l-0.87-6.74
						l-0.91,7.46c-0.96,0.39-1.93,0.78-2.88,1.18c-10.06,4.2-19.99,8.59-29.78,13.21l-0.83-6.47l-0.88,7.2l-4.22,0.15
						c-1.23,0.03-2.45,0.1-3.68,0.16C157.36,419.42,157.25,418.1,157.13,416.78z M228.12,322.85c0.01-6.19,0-12.39,0.02-18.58
						c-0.05-6.02-0.09-12.04-0.13-18.06c0.38,0.09,0.78,0.19,1.21,0.29c-0.06,6.39-0.07,12.77-0.06,19.15
						c0.03,5.83,0.07,11.65,0.16,17.48l1.14,0.17c0.05-5.88,0.05-11.76,0.05-17.65c-0.03-6.3-0.08-12.59-0.18-18.89
						c4.92,1.09,12.14,2.28,20.7,2.45l0.11,36.71C240.94,325.7,232.71,324.02,228.12,322.85z M251.93,364.02
						c0.11-2.78,0.21-5.57,0.32-8.35l0.49-19.24l0.08,27.6C252.52,364.02,252.22,364.02,251.93,364.02z M228,284.76
						c-0.04-5.42-0.08-10.83-0.17-16.24l-0.29-17.88c-0.02-0.87-0.04-1.74-0.06-2.62c4.73,1.21,13.1,2.9,23.43,3.1l0.11,36.71
						C240.82,287.61,232.58,285.93,228,284.76z M227.82,360.83c0.02-0.98,0.04-1.95,0.06-2.93l0.18-17.88
						c0.05-5.24,0.06-10.48,0.06-15.73c0.39,0.09,0.79,0.19,1.22,0.29c0.02,1.2,0.02,2.4,0.05,3.6l0.23,11.27
						c0.12,3.76,0.2,7.51,0.37,11.27c0.14-3.76,0.2-7.51,0.29-11.27l0.15-11.27c0.02-1.11,0.02-2.23,0.02-3.34
						c4.92,1.09,12.14,2.28,20.7,2.45l0.11,36.71C240.73,363.79,232.31,362.01,227.82,360.83z M259.21,395.9
						c0.66,0,1.32-0.02,1.97-0.05c-0.07,2.36-0.13,4.74-0.18,7.16l0.74-0.05c2.11-0.16,4.23-0.31,6.33-0.53
						c2.11-0.2,4.2-0.45,6.29-0.74c2.09-0.29,4.17-0.65,6.24-1.06c-0.98,0.35-2,0.62-3.01,0.9c-1.02,0.25-2.05,0.48-3.1,0.68
						c-2.08,0.41-4.2,0.69-6.32,0.9c-2.12,0.2-4.25,0.34-6.39,0.37c-0.84,0.02-1.68,0.01-2.52,0l-0.02-6.96
						C259.23,396.33,259.22,396.12,259.21,395.9z M225.27,323.53c0.38,0.11,0.83,0.23,1.32,0.37c0.04,5.38,0.08,10.76,0.16,16.13
						l0.29,17.88c0.02,0.91,0.04,1.82,0.07,2.73c-0.7-0.19-1.28-0.36-1.73-0.49C225.35,349.09,225.31,336.42,225.27,323.53z
						 M276.04,166.38c0.05,0.08,0.11,0.16,0.17,0.24C276.16,166.54,276.1,166.46,276.04,166.38z M275.71,165.94
						c0.06,0.07,0.12,0.15,0.17,0.23C275.82,166.09,275.77,166.02,275.71,165.94z M275.22,165.35c0.11,0.12,0.22,0.25,0.33,0.38
						C275.44,165.6,275.33,165.47,275.22,165.35z M274.88,164.97c0.07,0.07,0.13,0.14,0.19,0.2
						C275.01,165.11,274.95,165.04,274.88,164.97z M274.54,164.62c0.07,0.06,0.13,0.13,0.2,0.2
						C274.67,164.75,274.61,164.68,274.54,164.62z M281.66,181.65c0.03,0.15,0.05,0.3,0.08,0.44
						C281.71,181.94,281.68,181.8,281.66,181.65z M281.42,180.51c0.03,0.13,0.05,0.27,0.08,0.4
						C281.48,180.78,281.45,180.64,281.42,180.51z M281.18,179.42c0.02,0.07,0.04,0.15,0.05,0.22
						C281.22,179.57,281.2,179.49,281.18,179.42z M280.87,178.06c0.02,0.11,0.05,0.22,0.08,0.34
						C280.92,178.28,280.89,178.17,280.87,178.06z M280.6,177.01c0.03,0.13,0.07,0.25,0.1,0.38
						C280.66,177.26,280.63,177.13,280.6,177.01z M280.33,176.04c0.03,0.12,0.07,0.25,0.1,0.37
						C280.4,176.29,280.37,176.16,280.33,176.04z M280.06,175.12c0.03,0.11,0.06,0.21,0.1,0.32
						C280.12,175.33,280.09,175.23,280.06,175.12z M279.72,174.03c0.02,0.08,0.06,0.17,0.08,0.25
						C279.77,174.2,279.74,174.11,279.72,174.03z M279.4,173.12c0.04,0.11,0.08,0.22,0.12,0.33
						C279.48,173.34,279.45,173.23,279.4,173.12z M279.11,172.32c0.04,0.11,0.08,0.22,0.12,0.33
						C279.2,172.54,279.15,172.43,279.11,172.32z M278.82,171.57c0.04,0.1,0.08,0.2,0.12,0.3
						C278.9,171.77,278.86,171.67,278.82,171.57z M278.48,170.76c0.04,0.1,0.09,0.2,0.13,0.29
						C278.57,170.96,278.53,170.86,278.48,170.76z M278.11,169.93c0.05,0.09,0.09,0.18,0.13,0.28
						C278.19,170.12,278.15,170.03,278.11,169.93z M277.79,169.28c0.05,0.1,0.09,0.19,0.14,0.29
						C277.88,169.47,277.84,169.37,277.79,169.28z M277.48,168.67c0.05,0.1,0.09,0.18,0.15,0.28
						C277.57,168.86,277.52,168.77,277.48,168.67z M277.16,168.1c0.04,0.09,0.09,0.17,0.14,0.25
						C277.25,168.27,277.2,168.19,277.16,168.1z M276.71,167.37c0.05,0.08,0.1,0.15,0.15,0.24
						C276.81,167.52,276.76,167.45,276.71,167.37z M276.38,166.85c0.05,0.08,0.11,0.16,0.16,0.24
						C276.48,167.02,276.43,166.93,276.38,166.85z M281.88,182.86c0.03,0.15,0.06,0.29,0.08,0.43
						C281.94,183.15,281.91,183.01,281.88,182.86z M282.37,185.79c0.02,0.13,0.04,0.27,0.06,0.41
						C282.41,186.06,282.39,185.92,282.37,185.79z M282.13,184.29c0.01,0.07,0.03,0.15,0.04,0.23
						C282.16,184.45,282.15,184.37,282.13,184.29z M282.57,187.12c0.02,0.17,0.04,0.33,0.07,0.5
						C282.61,187.45,282.59,187.29,282.57,187.12z M284.34,213.43c0,0.26,0.01,0.52,0.01,0.79
						C284.35,213.95,284.35,213.69,284.34,213.43z M284.3,211.28c0.01,0.25,0.01,0.5,0.02,0.75
						C284.31,211.77,284.31,211.52,284.3,211.28z M284.25,209.21c0,0.15,0.01,0.31,0.01,0.47
						C284.26,209.53,284.25,209.37,284.25,209.21z M284.17,206.71c0.01,0.16,0.01,0.33,0.02,0.5
						C284.18,207.04,284.17,206.88,284.17,206.71z M284.08,204.58c0.01,0.23,0.02,0.45,0.03,0.68
						C284.1,205.03,284.09,204.81,284.08,204.58z M283.99,202.66c0.01,0.23,0.02,0.45,0.03,0.68
						C284.01,203.12,284,202.89,283.99,202.66z M283.88,200.83c0.01,0.19,0.03,0.38,0.03,0.57
						C283.91,201.21,283.89,201.03,283.88,200.83z M283.76,198.92c0,0.06,0.01,0.11,0.01,0.16
						C283.77,199.02,283.76,198.97,283.76,198.92z M283.61,196.82c0.01,0.18,0.03,0.36,0.04,0.55
						C283.64,197.18,283.62,197,283.61,196.82z M283.46,195.11c0.02,0.2,0.03,0.39,0.05,0.59
						C283.5,195.5,283.48,195.3,283.46,195.11z M283.32,193.5c0.02,0.18,0.03,0.37,0.05,0.55
						C283.35,193.86,283.33,193.67,283.32,193.5z M283.16,191.96c0.01,0.1,0.02,0.2,0.03,0.31
						C283.18,192.16,283.17,192.06,283.16,191.96z M282.95,190.07c0.01,0.13,0.03,0.26,0.04,0.4
						C282.98,190.34,282.96,190.21,282.95,190.07z M282.75,188.53c0.02,0.17,0.05,0.34,0.07,0.51
						C282.8,188.86,282.78,188.69,282.75,188.53z M284.38,215.75c0,0.22,0,0.45,0,0.67C284.38,216.2,284.38,215.97,284.38,215.75z"
						/>
				</g>
			</g>
		</g>
		<g>
			<g>
				<g>
					<path class="st2" d="M283.36,261.97c0.17,13.27,0.59,26.53,1.12,39.79c0.29,6.63,0.55,13.26,0.91,19.89
						c0.34,6.63,0.77,13.26,1.22,19.88c0.91,13.24,1.92,26.48,3.41,39.69c0.04,3.26,0.07,6.52,0.1,9.78
						c-6.63-19.9-9.36-64.28-10.11-114.79c1.6-28.45,3.22-54.03,3.22-54.04l-0.07,19.9C283.19,248.7,283.24,255.34,283.36,261.97z"
						/>
				</g>
			</g>
		</g>
		<g>
			<g>
				<g>
					<polygon class="st3" points="255.15,301.58 255.15,268.3 255.21,251.65 255.37,235 255.62,251.65 255.79,268.29 256,301.58 
						256,334.87 255.93,351.51 255.78,368.15 255.52,351.51 255.35,334.87 					"/>
				</g>
			</g>
		</g>
		<g>
			<g>
				<g>
					<path class="st2" d="M209.67,402.27c-0.04-0.81-0.13-1.95-0.16-3.32c-0.04-1.38-0.13-2.98-0.14-4.7
						c-0.02-1.72-0.05-3.56-0.07-5.39c0.01-1.84,0.03-3.67,0.04-5.39c0.01-1.72,0.09-3.33,0.12-4.7c0.03-1.38,0.11-2.53,0.14-3.33
						c0.05-0.8,0.08-1.26,0.08-1.26s0.03,0.46,0.09,1.26c0.03,0.8,0.12,1.95,0.17,3.33c0.04,1.37,0.12,2.98,0.14,4.7
						c0.02,1.72,0.05,3.55,0.07,5.39c-0.01,1.83-0.03,3.67-0.04,5.39c-0.01,1.72-0.08,3.33-0.11,4.7c-0.04,1.37-0.12,2.52-0.15,3.33
						c-0.05,0.8-0.08,1.26-0.08,1.26S209.72,403.07,209.67,402.27z"/>
				</g>
			</g>
		</g>
	</g>
</g>
</svg>
