<?xml version="1.0" encoding="utf-8"?>
<!-- Generator: Adobe Illustrator 24.2.3, SVG Export Plug-In . SVG Version: 6.00 Build 0)  -->
<svg version="1.1" id="Layer_1" xmlns="http://www.w3.org/2000/svg" xmlns:xlink="http://www.w3.org/1999/xlink" x="0px" y="0px"
	 viewBox="0 0 512 512" style="enable-background:new 0 0 512 512;" xml:space="preserve">
<style type="text/css">
	.st0{fill:#EB423F;}
	.st1{fill:#CC3A3A;}
	.st2{fill:#FFFFFF;}
	.st3{fill:#ACACAC;}
	.st4{fill:#9C9C9C;}
	.st5{fill:#838383;}
	.st6{fill:#5A5A5A;}
	.st7{fill:#EAF6FF;}
	.st8{fill:#D8ECFE;}
	.st9{fill:#26A6FE;}
	.st10{fill:#0593FC;}
	.st11{fill:#333333;}
</style>
<g>
	<g>
		<path class="st0" d="M226.6,244.9v-10.3c0-19.1,10.1-35.9,25.1-45.5c2.5-1.5,5.6-1.5,8.2,0c15,9.6,25.1,26.4,25.1,45.5v10.3
			l11.7,23.7V160.1c0-27.4-14.8-58.8-36.8-72.8c-2.5-1.6-5.7-1.6-8.2,0c-22,14-36.8,45.4-36.8,72.8v108.5L226.6,244.9z"/>
		<g>
			<path class="st1" d="M221.4,234.6c0-14.1,5-27.5,13.9-38v-36.6c0-5.8,0.7-11.8,1.9-17.8v-8.7h-12.8c-2.9,8.7-4.5,17.8-4.5,26.5
				v86.5l1.5-3V234.6L221.4,234.6z"/>
		</g>
		<path class="st2" d="M242.4,128.5v15.4c0,1.9,1.5,3.4,3.4,3.4h19.8c1.9,0,3.4-1.5,3.4-3.4v-15.4H242.4z"/>
		<g>
			<path class="st0" d="M290.7,128.5c-6.3-17-17.2-32.4-30.9-41.1c-2.5-1.6-5.7-1.6-8.2,0c-13.6,8.7-24.5,24.2-30.9,41.1H290.7z"/>
		</g>
		<g>
			<path class="st1" d="M266,91.9c-2-1.7-4-3.2-6.1-4.5c-2.5-1.6-5.7-1.6-8.2,0c-13.6,8.7-24.5,24.2-30.9,41.1h20.5
				C246.6,114.1,255.3,100.9,266,91.9z"/>
		</g>
	</g>
	<g>
		<g>
			<g>
				<path class="st3" d="M316.7,309.1c1.3,2.7,3.4,5.1,5.8,7l22.4,16.6V208.8c0-3.6-0.7-7.1-2.1-10.4l-9.6-22.8
					c-1.2-2.8-5.1-2.8-6.3,0l-9.6,22.8c-1.4,3.3-2.1,6.8-2.1,10.4v97.7L316.7,309.1z"/>
				<path class="st3" d="M345,369.6l-29.5,7.6v29.2H345V369.6z"/>
			</g>
			<g>
				<path class="st4" d="M329.1,373.7l-13.6,3.5v29.2h13.6V373.7z"/>
				<path class="st4" d="M316.7,309.1c1.3,2.7,3.4,5.1,5.8,7l6.6,4.9V208.8c0-3.6,0.7-7.1,2.1-10.4l5.8-14l-3.7-8.8
					c-1.2-2.8-5.1-2.8-6.3,0l-9.6,22.8c-1.4,3.3-2.1,6.8-2.1,10.4v97.7L316.7,309.1z"/>
			</g>
			<g>
				<path class="st0" d="M315.4,228.3H345V280h-29.5V228.3z"/>
			</g>
			<g>
				<path class="st1" d="M315.4,228.3h13.6V280h-13.6V228.3z"/>
			</g>
			<g>
				<path class="st5" d="M345.2,425.8h-30c-2.5,0-4.4-2.5-3.7-4.9l3.9-14.4H345l3.9,14.4C349.6,423.3,347.8,425.8,345.2,425.8z"/>
			</g>
			<g>
				<path class="st6" d="M325.1,420.9l3.9-14.4h-13.6l-3.9,14.4c-0.7,2.5,1.2,4.9,3.7,4.9h13.6C326.3,425.8,324.4,423.3,325.1,420.9
					z"/>
			</g>
		</g>
		<g>
			<g>
				<path class="st3" d="M189,316.1c2.5-1.8,4.5-4.2,5.8-7l1.3-2.5v-97.7c0-3.6-0.7-7.1-2.1-10.4l-9.6-22.8c-1.2-2.8-5.1-2.8-6.3,0
					l-9.6,22.8c-1.4,3.3-2.1,6.8-2.1,10.4v123.8L189,316.1z"/>
				<path class="st3" d="M196.1,377.2l-29.5-7.6v36.9h29.5V377.2z"/>
			</g>
			<g>
				<path class="st4" d="M180.2,322.6V208.8c0-3.6,0.7-7.1,2.1-10.4l5.8-14l-3.7-8.8c-1.2-2.8-5.1-2.8-6.3,0l-9.6,22.8
					c-1.4,3.3-2.1,6.8-2.1,10.4v123.8L180.2,322.6z"/>
				<path class="st4" d="M180.2,373.1l-13.6-3.5v36.9h13.6V373.1z"/>
			</g>
			<g>
				<path class="st0" d="M166.5,228.3h29.5V280h-29.5V228.3z"/>
			</g>
			<g>
				<path class="st1" d="M166.5,228.3h13.6V280h-13.6V228.3z"/>
			</g>
			<g>
				<path class="st5" d="M196.3,425.8h-30c-2.5,0-4.4-2.5-3.7-4.9l3.9-14.4h29.5l3.9,14.4C200.7,423.3,198.9,425.8,196.3,425.8z"/>
			</g>
			<g>
				<path class="st6" d="M176.2,420.9l3.9-14.4h-13.6l-3.9,14.4c-0.7,2.5,1.2,4.9,3.7,4.9H180C177.4,425.8,175.5,423.3,176.2,420.9z
					"/>
			</g>
		</g>
	</g>
	<g>
		<path class="st7" d="M216.4,375.5c0-3.8,3.1-6.8,6.8-6.8h3.3V244.9l-31.8,64.2c-1.3,2.7-3.4,5.1-5.8,7l-33.7,25
			c-0.8,0.6-1.4,1.7-1.4,2.7v19.8c0,1.5,1.1,3,2.5,3.3l60.1,15.5V375.5z"/>
		<path class="st7" d="M356.4,341.1l-33.9-25c-2.5-1.8-4.5-4.2-5.8-7l-31.8-64.2v123.8h3.3c3.8,0,6.8,3.1,6.8,6.8v7l60.1-15.5
			c1.5-0.4,2.5-1.8,2.5-3.3v-19.8C357.8,342.8,357.3,341.7,356.4,341.1z"/>
	</g>
	<g>
		<path class="st8" d="M226.6,244.9l-31.8,64.2c-1.3,2.7-3.4,5.1-5.8,7l-33.8,25c-0.8,0.6-1.4,1.7-1.4,2.7v19.8c0,1.5,1.1,3,2.5,3.3
			l11.1,2.9v-19.2c0-1.1,0.5-2.1,1.4-2.7l33.9-25c2.5-1.8,4.5-4.2,5.8-7l18.1-36.6V244.9z"/>
	</g>
	<path class="st4" d="M284.9,369.4V234.6c0-19.1-10.1-35.9-25.1-45.5c-2.5-1.5-5.6-1.5-8.2,0c-15,9.6-25.1,26.4-25.1,45.5v134.7
		L284.9,369.4L284.9,369.4z"/>
	<path class="st5" d="M247.1,369.4V234.6c0-16.3,7.4-31,18.9-40.8c-2-1.7-4-3.2-6.2-4.6c-2.5-1.5-5.6-1.5-8.2,0
		c-15,9.6-25.1,26.4-25.1,45.5v134.7H247.1L247.1,369.4z"/>
	<g>
		<path class="st9" d="M251.7,189.2c-12.2,7.7-21,20.2-24,34.7h56.2c-3-14.6-11.9-27-24-34.7C257.4,187.6,254.1,187.6,251.7,189.2
			L251.7,189.2z"/>
	</g>
	<g>
		<path class="st10" d="M227.7,223.9h20.5c2.5-12,8.9-22.4,17.9-30.1c-2-1.7-4-3.2-6.2-4.6c-2.5-1.5-5.6-1.5-8.2,0
			C239.5,197,230.7,209.4,227.7,223.9L227.7,223.9z"/>
	</g>
	<g>
		<path class="st5" d="M228.8,401.5v20.8c0,1.9,1.5,3.4,3.4,3.4h47.2c1.9,0,3.4-1.5,3.4-3.4v-20.8H228.8z"/>
		<path class="st6" d="M249.3,422.4v-20.8h-20.5v20.8c0,1.9,1.5,3.4,3.4,3.4h20.5C250.8,425.8,249.3,424.3,249.3,422.4z"/>
		<g>
			<path class="st9" d="M291.7,401.5h-71.8c-1.9,0-3.4-1.5-3.4-3.4v-22.6c0-3.8,3.1-6.8,6.8-6.8h65c3.8,0,6.8,3.1,6.8,6.8v22.6
				C295.1,400.1,293.6,401.5,291.7,401.5z"/>
		</g>
		<g>
			<path class="st10" d="M236.9,398.2v-22.6c0-3.8,3.1-6.8,6.8-6.8h-20.5c-3.8,0-6.8,3.1-6.8,6.8v22.6c0,1.9,1.5,3.4,3.4,3.4h20.5
				C238.5,401.5,236.9,400.1,236.9,398.2z"/>
		</g>
	</g>
	<g>
		<path class="st11" d="M359.4,336.9l-9.4-6.9v-65.5c0-2.8-2.3-5.1-5.1-5.1s-5.1,2.3-5.1,5.1v10.3h-19.3v-41.4h19.3v6.8
			c0,2.8,2.3,5.1,5.1,5.1s5.1-2.3,5.1-5.1v-31.4c0-4.3-0.8-8.4-2.5-12.4l-9.6-22.8c-1.3-3.2-4.4-5.3-7.9-5.3c-3.4,0-6.5,2-7.9,5.3
			l-9.6,22.8c-1.6,3.9-2.5,8.1-2.5,12.4v75.8l-8.6-17.3v-72.6c0-2.8-2.3-5.1-5.1-5.1c-2.8,0-5.1,2.3-5.1,5.1v52l-1.5-3v-9.1
			c0-20.2-10.3-38.9-27.5-49.8l0,0c-4.1-2.6-9.5-2.6-13.6,0c-17.2,11-27.5,29.5-27.5,49.8v9.1l-1.5,3v-86.5c0-8.8,1.6-17.9,4.5-26.5
			h12.9v10.3c0,4.7,3.9,8.6,8.6,8.6h19.8c4.7,0,8.6-3.9,8.6-8.6v-10.3h12.8c2.9,8.7,4.5,17.8,4.5,26.5V171c0,2.8,2.3,5.1,5.1,5.1
			c2.8,0,5.1-2.3,5.1-5.1v-10.9c0-30.2-16.5-62.6-39.2-77.1c-4.1-2.7-9.6-2.7-13.7,0c-22.7,14.5-39.2,47-39.2,77.1v107.3l-8.6,17.3
			v-75.9c0-4.3-0.8-8.4-2.5-12.4l-9.6-22.8c-1.3-3.2-4.4-5.3-7.9-5.3s-6.5,2-7.9,5.3l-9.6,22.8c-1.6,3.9-2.5,8.1-2.5,12.4V330
			l-9.4,6.9c-2.2,1.6-3.4,4.1-3.4,6.9v19.8c0,3.9,2.6,7.3,6.4,8.3l6.4,1.6v32.3l-3.8,13.7c-0.8,2.7-0.2,5.6,1.5,7.8
			c1.7,2.2,4.3,3.5,7.2,3.5h30c2.8,0,5.4-1.3,7.2-3.5c1.7-2.2,2.2-5.1,1.5-7.8l-3.8-13.7v-21.9l10.1,2.6v11.7c0,4.7,3.9,8.6,8.6,8.6
			h3.8v15.7c0,4.7,3.9,8.6,8.6,8.6h47.2c4.7,0,8.6-3.9,8.6-8.6v-15.7h3.8c4.7,0,8.6-3.9,8.6-8.6v-11.7l10.1-2.6v21.9l-3.8,13.7
			c-0.8,2.7-0.2,5.6,1.5,7.8c1.7,2.2,4.3,3.5,7.2,3.5h30c2.8,0,5.4-1.3,7.2-3.5c1.7-2.2,2.2-5.1,1.5-7.8l-3.8-13.7v-32.3l6.4-1.6
			c3.8-1,6.4-4.4,6.4-8.3v-19.8C362.9,341.2,361.6,338.6,359.4,336.9L359.4,336.9z M320.6,208.8c0-2.9,0.6-5.7,1.7-8.4l7.9-19.1
			l7.9,19.1c1.1,2.7,1.7,5.5,1.7,8.4v14.3h-19.3L320.6,208.8L320.6,208.8z M264,142.2h-16.4v-8.6H264V142.2z M254.4,91.7
			c0.8-0.5,1.9-0.5,2.7,0c10.5,6.7,19.7,18.3,25.9,31.7h-54.4C234.7,109.9,243.9,98.4,254.4,91.7z M171.7,208.8
			c0-2.9,0.6-5.7,1.7-8.4l7.9-19.1l7.9,19.1c1.1,2.7,1.7,5.5,1.7,8.4v14.3h-19.3V208.8z M171.7,233.5h19.3v41.4h-19.3V233.5z
			 M171.7,285.1h19.3v20.2l-0.7,1.5c-1,2-2.5,3.8-4.3,5.1l-14.3,10.5V285.1L171.7,285.1z M167.9,420.7l2.5-9.1h21.7l2.5,9.1H167.9z
			 M171.7,401.4v-25.2l19.3,5v20.2L171.7,401.4z M221.4,363.7c-5.8,0.8-10.2,5.8-10.2,11.8v0.4l-52.4-13.6v-17.6l33.2-24.5
			c3.1-2.3,5.7-5.3,7.4-8.8l22.1-44.6V363.7z M320.6,285.1h19.3v37.4L325.6,312c-1.8-1.3-3.3-3.1-4.3-5.1l-0.7-1.5V285.1
			L320.6,285.1z M254.4,193.5c0.8-0.5,1.8-0.5,2.6,0c9.6,6,16.5,15,20,25.2h-42.7C237.9,208.5,244.9,199.6,254.4,193.5L254.4,193.5z
			 M277.6,420.7h-43.7v-14h43.7V420.7z M290,396.5h-68.4v-21c0-0.9,0.8-1.7,1.7-1.7h26.4c2.8,0,5.1-2.3,5.1-5.1
			c0-2.8-2.3-5.1-5.1-5.1h-17.9V234.6c0-1.9,0.1-3.8,0.4-5.6h47.5c0.2,1.8,0.4,3.7,0.4,5.6v128.9h-5.6c-2.8,0-5.1,2.3-5.1,5.1
			c0,2.8,2.3,5.1,5.1,5.1h14.1c0.9,0,1.7,0.8,1.7,1.7V396.5L290,396.5z M316.8,420.7l2.5-9.1H341l2.5,9.1H316.8z M320.6,401.4v-20.2
			l19.3-5v25.2L320.6,401.4L320.6,401.4z M352.6,362.3l-52.4,13.6v-0.4c0-6-4.4-11-10.2-11.8v-96.9l22.1,44.6
			c1.7,3.4,4.3,6.5,7.4,8.8l33.2,24.5V362.3z"/>
		<path class="st11" d="M271.8,251.9c0-2.8-2.3-5.1-5.1-5.1h-21.9c-2.8,0-5.1,2.3-5.1,5.1s2.3,5.1,5.1,5.1h21.9
			C269.5,257,271.8,254.7,271.8,251.9z"/>
		<path class="st11" d="M191.7,335.9v19.8c0,2.8,2.3,5.1,5.1,5.1c2.8,0,5.1-2.3,5.1-5.1v-19.8c0-2.8-2.3-5.1-5.1-5.1
			C194,330.8,191.7,333.1,191.7,335.9z"/>
		<path class="st11" d="M314.7,330.8c-2.8,0-5.1,2.3-5.1,5.1v19.8c0,2.8,2.3,5.1,5.1,5.1s5.1-2.3,5.1-5.1V336
			C319.8,333.1,317.5,330.8,314.7,330.8z"/>
	</g>
</g>
</svg>
