<?xml version="1.0" encoding="utf-8"?>
<!-- Generator: Adobe Illustrator 24.2.3, SVG Export Plug-In . SVG Version: 6.00 Build 0)  -->
<svg version="1.1" id="Layer_1" xmlns="http://www.w3.org/2000/svg" xmlns:xlink="http://www.w3.org/1999/xlink" x="0px" y="0px"
	 viewBox="0 0 512 512" style="enable-background:new 0 0 512 512;" xml:space="preserve">
<style type="text/css">
	.st0{fill:#F7B030;}
	.st1{fill:#E8E8E8;}
	.st2{fill:#CDCDCD;}
	.st3{fill:#333333;}
</style>
<path class="st0" d="M329.8,293.4v77.3H182.2v-77.3C182.2,92.8,256,26,256,26S329.8,92.8,329.8,293.4z"/>
<path class="st1" d="M108.7,451.3V238.1c0-118.7,36.8-158.3,36.8-158.3s36.8,39.6,36.8,158.3v213.2H108.7z"/>
<path class="st0" d="M108.7,451.3h36.8h36.8l9,34.7h-45.8H99.7L108.7,451.3z"/>
<path class="st1" d="M403.3,451.3V238.1c0-118.7-36.8-158.3-36.8-158.3s-36.8,39.6-36.8,158.3v213.2H403.3z"/>
<path class="st0" d="M403.3,451.3h-36.8h-36.8l-9,34.7h45.8h45.8L403.3,451.3z"/>
<path class="st1" d="M431,401.2v23.5H256c0,0,3.2-163,6.4-190.1c34,92.7,108.2,108.2,140.9,121.5c15.1,6.8,25.4,21.1,27.2,37.6
	C430.8,396.2,431,398.7,431,401.2L431,401.2z"/>
<path class="st1" d="M256,424.7H81v-23.5c0-2.5,0.2-5,0.5-7.5c1.8-16.4,12.1-30.7,27.2-37.6c32.7-13.3,106.9-28.8,140.9-121.5
	C252.8,261.8,256,424.7,256,424.7L256,424.7z"/>
<path class="st2" d="M292.8,424.7V271.6c0-118.7-36.8-158.3-36.8-158.3s-36.8,39.6-36.8,158.3v153.1L292.8,424.7z"/>
<path class="st1" d="M278.6,383.7c12.5,0,22.6,10.1,22.6,22.6v50.1l0,0H256l0,0v-50.1C256,393.8,266.1,383.7,278.6,383.7
	L278.6,383.7z"/>
<path class="st1" d="M256,456.5h-45.3l0,0v-50.1c0-12.5,10.1-22.6,22.6-22.6s22.6,10.1,22.6,22.6L256,456.5L256,456.5z"/>
<g>
	<path class="st3" d="M403.3,231.1c-3.9,0-7,3.1-7,7V258c0,3.9,3.1,7,7,7s7-3.1,7-7v-19.9C410.3,234.3,407.2,231.1,403.3,231.1z"/>
	<path class="st3" d="M410.3,351.7V285c0-3.9-3.1-7-7-7s-7,3.1-7,7v61l-4.3-1.5c-19.4-6.3-37.9-14.9-55.3-25.6v-80.8
		c0-86.8,20.1-130.3,29.8-146.2c8.5,13.8,24.8,48.5,28.8,115.2c0.2,3.9,3.6,6.8,7.4,6.6c3.9-0.2,6.8-3.6,6.6-7.4
		C403.6,110.5,373,76.4,371.7,75c-1.3-1.4-3.2-2.2-5.1-2.2c-1.9,0-3.8,0.8-5.1,2.2c-1.3,1.4-25,27.9-34.6,99.2
		C306.7,64,263.1,23,260.7,20.8c-2.7-2.4-6.7-2.4-9.4,0c-2.4,2.2-46,43.2-66.1,153.4c-9.6-71.3-33.4-97.8-34.6-99.2
		c-1.3-1.4-3.2-2.2-5.1-2.2c-1.9,0-3.8,0.8-5.1,2.2c-1.6,1.7-38.6,43-38.6,163.1v113.6c-17.3,10.2-27.9,28.9-27.7,49v24
		c0,3.9,3.1,7,7,7h20.7v18.6l-8.8,33.9c-1,3.7,1.3,7.6,5,8.5c0.6,0.1,1.2,0.2,1.8,0.2h41.8c3.9,0,7-3.1,7-7s-3.1-7-7-7h-32.7
		l5.4-20.7h62.7l5.4,20.7H173c-3.9,0-7,3.1-7,7s3.1,7,7,7l0,0h18.2c3.9,0,7-3.1,7-7c0-0.6-0.1-1.2-0.2-1.8l-8.8-33.9v-18.7h14.5
		v24.7c0,3.9,3.1,7,7,7H249V486c0,3.9,3.1,7,7,7s7-3.1,7-7v-22.5h38.2c3.9,0,7-3.1,7-7c0,0,0,0,0,0v-24.7h14.5v18.7l-8.8,33.9
		c-1,3.7,1.3,7.6,5,8.5c0.6,0.1,1.2,0.2,1.8,0.2h91.6c3.9,0,7-3.1,7-7c0-0.6-0.1-1.2-0.2-1.8l-8.8-33.9v-18.6H431c3.9,0,7-3.1,7-7
		v-24.1C438.2,380.5,427.6,361.9,410.3,351.7L410.3,351.7z M256,36.3c15.9,19,66.8,92.4,66.8,257.1v15.5c-8.4-6.7-16.1-14.2-23-22.4
		v-14.9c0-120.1-37.1-161.4-38.7-163.1c-2.8-2.8-7.4-2.8-10.2,0c0,0,0,0,0,0c-0.4,0.4-10.1,11.1-19.7,36.5c-1.4,3.6,0.5,7.7,4.1,9
		c3.6,1.4,7.7-0.5,9-4.1l0,0c3.1-8.6,7-16.8,11.7-24.6c9.7,15.8,29.8,58.9,29.8,146.3v106c-7.8-2-16-0.7-22.8,3.6v-23.9
		c0-3.9-3.1-7-7-7s-7,3.1-7,7v23.9c-6.8-4.3-15-5.6-22.8-3.6v-106c-0.3-29.9,2.6-59.7,8.6-89c0.9-3.8-1.4-7.5-5.1-8.5
		c-3.8-0.9-7.5,1.4-8.5,5.1c0,0.1,0,0.2-0.1,0.3c-6.3,30.3-9.3,61.1-9,92v14.9c-6.9,8.2-14.6,15.7-23,22.4v-15.5
		C189.2,128.7,240.1,55.3,256,36.3L256,36.3z M145.5,91.9c9.7,15.8,29.8,59,29.8,146.2v80.8c-17.4,10.6-35.9,19.2-55.3,25.6
		l-4.3,1.5V238.1C115.7,151.4,135.8,107.8,145.5,91.9L145.5,91.9z M175.2,444.3h-59.6v-12.6h59.6V444.3z M88,417.7v-10h63
		c3.9,0,7-3.1,7-7s-3.1-7-7-7H88.6c1.7-13.6,10.3-25.3,22.7-31.1l0.1,0c3.8-1.6,8.4-3.2,13.3-5c21.4-7,41.9-16.7,60.9-28.7
		c0.1,0,0.1-0.1,0.2-0.2c0.2-0.1,0.4-0.2,0.6-0.4c0.1,0,0.1-0.1,0.2-0.1c9.2-6.2,17.8-13.3,25.6-21.1v78.5
		c-5.4,5.5-8.5,12.9-8.5,20.7v11.4L88,417.7z M217.7,424.8C217.8,424.8,217.8,424.7,217.7,424.8c0-0.1,0-0.2,0-0.2v-18.3
		c0.1-8.6,7.2-15.5,15.9-15.4c8.4,0.1,15.2,6.9,15.4,15.4v43.1h-31.3V424.8z M263,449.4v-43.1c0-8.6,7-15.6,15.6-15.6
		c8.6,0,15.6,7,15.6,15.6c0,0,0,0,0,0v18.3v0.1c0,0,0,0.1,0,0.1v24.6L263,449.4z M329.8,479l5.4-20.7h62.7l5.4,20.7H329.8z
		 M396.3,444.3h-59.6v-12.5h59.6L396.3,444.3z M308.2,417.7v-11.4c0-7.7-3-15.2-8.4-20.7v-78.5c7.8,7.8,16.4,14.9,25.5,21.1
		c0.1,0.1,0.2,0.1,0.3,0.2c0.2,0.1,0.4,0.3,0.6,0.4c0.1,0.1,0.2,0.1,0.3,0.2c19,12,39.5,21.7,60.8,28.6c4.9,1.8,9.5,3.4,13.4,5
		c12.4,5.8,21,17.5,22.7,31.1H361c-3.9,0-7,3.1-7,7s3.1,7,7,7h63v10L308.2,417.7z"/>
	<path class="st3" d="M244,237.1h24c3.9,0,7-3.1,7-7s-3.1-7-7-7h-24c-3.9,0-7,3.1-7,7S240.1,237.1,244,237.1z"/>
</g>
</svg>
