<?xml version="1.0" encoding="utf-8"?>
<!-- Generator: Adobe Illustrator 24.3.0, SVG Export Plug-In . SVG Version: 6.00 Build 0)  -->
<svg version="1.1" id="Layer_1" xmlns="http://www.w3.org/2000/svg" xmlns:xlink="http://www.w3.org/1999/xlink" x="0px" y="0px"
	 viewBox="0 0 500 500" style="enable-background:new 0 0 500 500;" xml:space="preserve">
<style type="text/css">
	.st0{fill:#565045;}
	.st1{fill:#C2BEA8;}
	.st2{fill:#B5AA95;}
	.st3{fill:#F4F3EA;}
	.st4{fill:#918779;}
	.st5{fill:#A09787;}
	.st6{fill:#F9F9F7;}
	.st7{fill:#70665A;}
	.st8{fill:#E0DCC6;}
	.st9{fill:#B4B096;}
	.st10{enable-background:new    ;}
	.st11{fill:#353435;}
	.st12{fill:#4F413C;}
	.st13{fill:#FE5236;}
	.st14{fill:#82827D;}
	.st15{fill:#FBA400;}
</style>
<g>
	<g>
		<g>
			<path class="st0" d="M270.21,396.26v6.76c0,5.3-3.51,10.61-10.51,14.65c-14.02,8.1-36.75,8.1-50.78,0
				c-7.01-4.05-10.51-9.36-10.51-14.65v-6.76c0,1.13,0.16,2.26,0.48,3.38c0.33,1.14,0.81,2.28,1.48,3.38
				c1.71,2.89,4.56,5.59,8.55,7.89c14.03,8.1,36.76,8.1,50.78,0c3.99-2.3,6.84-5,8.55-7.89c0.66-1.1,1.15-2.24,1.48-3.38
				C270.05,398.52,270.21,397.39,270.21,396.26z"/>
			<path class="st1" d="M269.72,399.64c-0.33,1.14-0.81,2.28-1.48,3.38c-1.71,2.89-4.57,5.59-8.55,7.89
				c-14.02,8.1-36.75,8.1-50.78,0c-3.99-2.3-6.84-5-8.55-7.89c-0.67-1.1-1.15-2.24-1.48-3.38c1.17-4.13,4.52-8.09,10.03-11.28
				c66.05-38.14-15.26-38.17,50.78,0C265.21,391.55,268.55,395.5,269.72,399.64z"/>
			<path class="st2" d="M270.21,396.26c0,1.13-0.16,2.26-0.48,3.38c-0.33,1.14-0.81,2.28-1.48,3.38c-1.71,2.89-4.57,5.59-8.55,7.89
				c-14.02,8.1-36.75,8.1-50.78,0c-3.99-2.3-6.84-5-8.55-7.89c-0.67-1.1-1.15-2.24-1.48-3.38c-0.33-1.12-0.48-2.25-0.48-3.38
				c0-5.31,3.5-33.16,10.51-37.2c0.69-0.39,1.39-0.76,2.12-1.12c6.88-3.4,15.45-5.05,23.96-4.96c8.06,0.09,16.08,1.74,22.58,4.96
				c0.72,0.34,1.43,0.72,2.12,1.12C266.7,363.1,270.21,390.95,270.21,396.26z"/>
		</g>
		<g>
			<g>
				<path class="st3" d="M276,179.76v0.33c-0.03,2.45-0.71,4.89-2.03,7.25c-0.67,1.19-1.5,2.36-2.49,3.49
					c-0.24,0.27-0.48,0.54-0.74,0.8c-0.86,0.89-1.82,1.76-2.91,2.59c-0.34,0.28-0.71,0.55-1.08,0.82c-0.9,0.65-1.9,1.29-2.95,1.9
					c-0.55,0.33-1.13,0.64-1.7,0.94c-0.48,0.24-0.96,0.49-1.47,0.71c-0.48,0.24-0.95,0.45-1.44,0.65c-0.31,0.13-0.62,0.27-0.95,0.4
					c-0.61,0.25-1.23,0.49-1.85,0.71c-0.43,0.15-0.86,0.3-1.3,0.45c-0.7,0.24-1.39,0.45-2.09,0.65c-0.09,0.03-0.16,0.05-0.25,0.07
					c-0.61,0.16-1.22,0.33-1.82,0.48c-1.25,0.33-2.51,0.59-3.78,0.81c-0.55,0.12-1.11,0.21-1.68,0.3c-0.74,0.12-1.5,0.22-2.24,0.31
					c-5.86,0.76-11.94,0.76-17.8,0c-0.74-0.09-1.5-0.19-2.24-0.31c-0.56-0.09-1.13-0.18-1.68-0.3c-1.28-0.22-2.54-0.49-3.78-0.81
					c-0.61-0.15-1.22-0.31-1.82-0.48c-0.09-0.03-0.16-0.05-0.25-0.07c-0.05-0.01-0.07-0.03-0.12-0.03v-0.01
					c-0.67-0.18-1.32-0.39-1.97-0.61c-0.45-0.15-0.88-0.3-1.31-0.45c-0.62-0.22-1.24-0.46-1.85-0.71c-0.33-0.13-0.64-0.27-0.95-0.4
					c-0.49-0.21-0.96-0.41-1.44-0.65c-0.51-0.22-0.99-0.48-1.47-0.71c-0.58-0.3-1.16-0.61-1.71-0.94c-1.05-0.61-2.05-1.25-2.95-1.9
					c-0.37-0.27-0.74-0.53-1.08-0.82c-1.08-0.83-2.05-1.7-2.91-2.59c-0.27-0.27-0.5-0.54-0.74-0.8c-0.99-1.13-1.82-2.3-2.49-3.49
					c-1.32-2.36-2-4.81-2.03-7.25v-0.33l0.01-12.98C192.65,143.76,211.3,75,234.3,75c0,0,0.13,0.01,0.37,0.01
					c22.83,0.73,41.28,68.87,41.31,91.77L276,179.76z"/>
				<path class="st4" d="M276.13,375.79c0,6.2-4.1,12.4-12.26,17.09c-13.03,7.53-32.48,9.03-48.11,4.56
					c0.2-43.34,0.37-113.2-0.13-181.16c0.1,0.03,0.17,0.03,0.23,0.07c0.63,0.17,1.23,0.33,1.83,0.47c0.23,0.07,0.5,0.13,0.73,0.17
					c0.5,0.13,1,0.23,1.53,0.37c0.5,0.1,1,0.2,1.53,0.3c0.53,0.1,1.1,0.2,1.67,0.3c0.73,0.1,1.5,0.2,2.23,0.3
					c5.86,0.77,11.96,0.77,17.82,0c0.73-0.1,1.5-0.2,2.23-0.3c0.57-0.1,1.13-0.2,1.67-0.3c1.27-0.23,2.53-0.5,3.8-0.83
					c0.6-0.13,1.2-0.3,1.8-0.47c0.1-0.03,0.17-0.03,0.27-0.07c0.7-0.2,1.4-0.43,2.1-0.67c0.43-0.13,0.87-0.3,1.3-0.43
					c0.63-0.23,1.23-0.47,1.86-0.7c0.3-0.13,0.63-0.27,0.93-0.4c0.5-0.23,0.97-0.43,1.43-0.67c0.5-0.23,1-0.47,1.47-0.7
					c0.6-0.3,1.16-0.63,1.73-0.93c2.37-1.4,4.4-2.9,6.1-4.5c0.27-0.23,0.5-0.47,0.7-0.7c0.27-0.23,0.5-0.5,0.7-0.77
					c0.3-0.3,0.57-0.6,0.83-0.93c0.33-0.4,0.63-0.83,0.9-1.23c0.43-0.6,0.8-1.2,1.1-1.8c0.1-0.2,0.2-0.37,0.3-0.57
					c0.3-0.63,0.57-1.27,0.77-1.9c0.23-0.7,0.43-1.37,0.53-2.07c0.07-0.2,0.1-0.4,0.1-0.6c0.07-0.27,0.1-0.53,0.1-0.8
					c0.03-0.3,0.07-0.6,0.07-0.9L276.13,375.79z"/>
			</g>
			<path class="st5" d="M215.76,397.44c-3.96-1.1-7.73-2.63-11.03-4.56c-8.16-4.69-12.26-10.89-12.26-17.09l0.13-180.66
				c0.03,1.43,0.3,2.86,0.77,4.26c0.23,0.63,0.5,1.27,0.8,1.9c0.1,0.2,0.17,0.37,0.3,0.57c0.3,0.6,0.67,1.2,1.1,1.8
				c0.27,0.4,0.57,0.83,0.9,1.23c0.27,0.33,0.53,0.63,0.83,0.93c0.2,0.27,0.43,0.53,0.67,0.77c0.23,0.23,0.47,0.47,0.73,0.7
				c1.7,1.6,3.73,3.1,6.1,4.5c0.57,0.3,1.13,0.63,1.7,0.93c0.5,0.23,0.97,0.47,1.5,0.7c0.47,0.23,0.93,0.43,1.43,0.67
				c0.3,0.13,0.6,0.27,0.93,0.4c0.63,0.23,1.23,0.47,1.87,0.7c0.43,0.13,0.87,0.3,1.3,0.43c0.5,0.17,1,0.33,1.5,0.47
				c0.2,0.07,0.4,0.13,0.6,0.2C216.13,284.25,215.97,354.1,215.76,397.44z"/>
			<path class="st6" d="M215.5,201.39v0.03c0.07,4.93,0.1,9.89,0.13,14.86c-0.2-0.07-0.4-0.13-0.6-0.2c-0.5-0.13-1-0.3-1.5-0.47
				c-0.43-0.13-0.87-0.3-1.3-0.43c-0.63-0.23-1.23-0.47-1.87-0.7c-0.33-0.13-0.63-0.27-0.93-0.4c-0.5-0.23-0.97-0.43-1.43-0.67
				c-0.53-0.23-1-0.47-1.5-0.7c-0.57-0.3-1.13-0.63-1.7-0.93c-2.37-1.4-4.4-2.9-6.1-4.5c-0.27-0.23-0.5-0.47-0.73-0.7
				c-0.23-0.23-0.47-0.5-0.67-0.77c-0.3-0.3-0.57-0.6-0.83-0.93c-0.33-0.4-0.63-0.83-0.9-1.23c-0.43-0.6-0.8-1.2-1.1-1.8
				c-0.13-0.2-0.2-0.37-0.3-0.57c-0.3-0.63-0.57-1.27-0.8-1.9c-0.47-1.4-0.73-2.83-0.77-4.26v-28.35
				C192.65,143.76,211.3,75,234.29,75C234.29,75,214.5,87.53,215.5,201.39z"/>
			<g>
				<g>
					<path class="st7" d="M276,310v1.63c0,0.3-0.03,0.6-0.07,0.9c0,0.27-0.03,0.53-0.1,0.8c0,0.2-0.03,0.4-0.1,0.6
						c-0.1,0.7-0.3,1.37-0.53,2.07c-0.2,0.63-0.47,1.27-0.77,1.9c-0.1,0.2-0.2,0.37-0.3,0.57c-0.3,0.6-0.67,1.2-1.1,1.8
						c-0.27,0.4-0.57,0.83-0.9,1.23c-0.27,0.33-0.53,0.63-0.83,0.93c-0.2,0.27-0.43,0.53-0.7,0.77c-0.2,0.23-0.43,0.47-0.7,0.7
						c-1.7,1.6-3.73,3.1-6.1,4.5c-0.57,0.3-1.13,0.63-1.73,0.93c-0.47,0.23-0.97,0.47-1.47,0.7c-0.47,0.23-0.93,0.43-1.43,0.67
						c-0.3,0.13-0.63,0.27-0.93,0.4c-0.63,0.23-1.23,0.47-1.86,0.7c-0.43,0.13-0.87,0.3-1.3,0.43c-0.7,0.23-1.4,0.47-2.1,0.67
						c-0.1,0.03-0.17,0.03-0.27,0.07c-0.6,0.17-1.2,0.33-1.8,0.47c-1.27,0.33-2.53,0.6-3.8,0.83c-0.53,0.1-1.1,0.2-1.67,0.3
						c-0.73,0.1-1.5,0.2-2.23,0.3c-5.86,0.77-11.96,0.77-17.82,0c-0.73-0.1-1.5-0.2-2.23-0.3c-0.57-0.1-1.13-0.2-1.67-0.3
						c-0.53-0.1-1.03-0.2-1.53-0.3c-0.53-0.13-1.03-0.23-1.53-0.37c-0.23-0.03-0.5-0.1-0.73-0.17c-0.6-0.13-1.2-0.3-1.83-0.47
						c-0.07-0.03-0.13-0.03-0.23-0.07c-0.2-0.07-0.4-0.13-0.6-0.2c-0.5-0.13-1-0.3-1.5-0.47c-0.43-0.13-0.87-0.3-1.3-0.43
						c-0.63-0.23-1.23-0.47-1.87-0.7c-0.33-0.13-0.63-0.27-0.93-0.4c-0.5-0.23-0.97-0.43-1.43-0.67c-0.53-0.23-1-0.47-1.5-0.7
						c-0.57-0.3-1.13-0.63-1.7-0.93c-2.37-1.4-4.4-2.9-6.1-4.5c-0.27-0.23-0.5-0.47-0.73-0.7c-0.23-0.23-0.47-0.5-0.67-0.77
						c-0.3-0.3-0.57-0.6-0.83-0.93c-0.33-0.4-0.63-0.83-0.9-1.23c-0.43-0.6-0.8-1.2-1.1-1.8c-0.13-0.2-0.2-0.37-0.3-0.57
						c-0.3-0.63-0.57-1.27-0.8-1.9c-0.47-1.4-0.73-2.83-0.77-4.26V310c0,0.1,0,0.2,0.03,0.3v0.33c0.03,0.27,0.03,0.53,0.07,0.77
						c0.03,0.23,0.07,0.43,0.1,0.67c0,0.1,0.03,0.2,0.07,0.3c0.03,0.43,0.17,0.87,0.27,1.3c0.17,0.6,0.37,1.2,0.63,1.8
						c0.23,0.6,0.53,1.2,0.87,1.8c0.67,1.2,1.5,2.37,2.5,3.5c0.23,0.27,0.47,0.53,0.73,0.8c0.87,0.9,1.83,1.77,2.9,2.6
						c0.33,0.27,0.73,0.53,1.1,0.8c0.9,0.67,1.9,1.3,2.93,1.9c0.57,0.33,1.13,0.63,1.7,0.93c0.5,0.27,0.97,0.5,1.5,0.73
						c0.47,0.23,0.93,0.43,1.43,0.63c0.3,0.13,0.6,0.27,0.93,0.4c0.63,0.27,1.23,0.5,1.87,0.73c0.43,0.13,0.87,0.3,1.3,0.43
						c0.47,0.17,0.9,0.3,1.37,0.4c0.2,0.1,0.4,0.13,0.6,0.2c0.07,0.03,0.1,0.03,0.13,0.07c0.1,0.03,0.17,0.03,0.23,0.07
						c0.63,0.17,1.23,0.33,1.83,0.47c0.2,0.07,0.4,0.1,0.6,0.13c1.07,0.3,2.1,0.5,3.2,0.7c0.53,0.1,1.1,0.2,1.67,0.27
						c0.73,0.13,1.5,0.23,2.23,0.33c5.86,0.77,11.96,0.77,17.82,0c0.73-0.1,1.5-0.2,2.23-0.33c0.57-0.07,1.13-0.17,1.67-0.27
						c1.27-0.23,2.53-0.5,3.8-0.83c0.6-0.13,1.2-0.3,1.8-0.47c0.1-0.03,0.17-0.03,0.27-0.07c0.7-0.23,1.4-0.43,2.1-0.67
						c0.43-0.13,0.87-0.3,1.3-0.43c0.63-0.23,1.23-0.47,1.86-0.73c0.3-0.13,0.63-0.27,0.93-0.4c0.5-0.2,0.97-0.4,1.43-0.63
						c0.5-0.23,1-0.47,1.47-0.73c0.6-0.3,1.16-0.6,1.73-0.93c1.03-0.6,2.03-1.23,2.93-1.9c0.37-0.27,0.73-0.53,1.1-0.8
						c1.07-0.83,2.03-1.7,2.9-2.6c0.27-0.27,0.5-0.53,0.73-0.8c1-1.13,1.83-2.3,2.5-3.5c0.63-1.13,1.1-2.26,1.43-3.43
						c0.07-0.2,0.13-0.4,0.17-0.6c0.1-0.37,0.17-0.77,0.23-1.13c0.07-0.3,0.07-0.6,0.1-0.87c0.03-0.3,0.03-0.6,0.07-0.9
						C276,310.23,276,310.1,276,310z"/>
					<path class="st7" d="M276,306.67v1.63c0,0.3-0.03,0.6-0.07,0.9c0,0.27-0.03,0.53-0.1,0.8c0,0.2-0.03,0.4-0.1,0.6
						c-0.1,0.7-0.3,1.37-0.53,2.07c-0.2,0.63-0.47,1.27-0.77,1.9c-0.1,0.2-0.2,0.37-0.3,0.57c-0.3,0.6-0.67,1.2-1.1,1.8
						c-0.27,0.4-0.57,0.83-0.9,1.23c-0.27,0.33-0.53,0.63-0.83,0.93c-0.2,0.27-0.43,0.53-0.7,0.77c-0.2,0.23-0.43,0.47-0.7,0.7
						c-1.7,1.6-3.73,3.1-6.1,4.5c-0.57,0.3-1.13,0.63-1.73,0.93c-0.47,0.23-0.97,0.47-1.47,0.7c-0.47,0.23-0.93,0.43-1.43,0.67
						c-0.3,0.13-0.63,0.27-0.93,0.4c-0.63,0.23-1.23,0.47-1.86,0.7c-0.43,0.13-0.87,0.3-1.3,0.43c-0.7,0.23-1.4,0.47-2.1,0.67
						c-0.1,0.03-0.17,0.03-0.27,0.07c-0.6,0.17-1.2,0.33-1.8,0.47c-1.27,0.33-2.53,0.6-3.8,0.83c-0.53,0.1-1.1,0.2-1.67,0.3
						c-0.73,0.1-1.5,0.2-2.23,0.3c-5.86,0.77-11.96,0.77-17.82,0c-0.73-0.1-1.5-0.2-2.23-0.3c-0.57-0.1-1.13-0.2-1.67-0.3
						c-0.53-0.1-1.03-0.2-1.53-0.3c-0.53-0.13-1.03-0.23-1.53-0.37c-0.23-0.03-0.5-0.1-0.73-0.17c-0.6-0.13-1.2-0.3-1.83-0.47
						c-0.07-0.03-0.13-0.03-0.23-0.07c-0.2-0.07-0.4-0.13-0.6-0.2c-0.5-0.13-1-0.3-1.5-0.47c-0.43-0.13-0.87-0.3-1.3-0.43
						c-0.63-0.23-1.23-0.47-1.87-0.7c-0.33-0.13-0.63-0.27-0.93-0.4c-0.5-0.23-0.97-0.43-1.43-0.67c-0.53-0.23-1-0.47-1.5-0.7
						c-0.57-0.3-1.13-0.63-1.7-0.93c-2.37-1.4-4.4-2.9-6.1-4.5c-0.27-0.23-0.5-0.47-0.73-0.7c-0.23-0.23-0.47-0.5-0.67-0.77
						c-0.3-0.3-0.57-0.6-0.83-0.93c-0.33-0.4-0.63-0.83-0.9-1.23c-0.43-0.6-0.8-1.2-1.1-1.8c-0.13-0.2-0.2-0.37-0.3-0.57
						c-0.3-0.63-0.57-1.27-0.8-1.9c-0.47-1.4-0.73-2.83-0.77-4.26v-1.73c0,0.1,0,0.2,0.03,0.3v0.33c0.03,0.27,0.03,0.53,0.07,0.77
						c0.03,0.23,0.07,0.43,0.1,0.67c0,0.1,0.03,0.2,0.07,0.3c0.03,0.43,0.17,0.87,0.27,1.3c0.17,0.6,0.37,1.2,0.63,1.8
						c0.23,0.6,0.53,1.2,0.87,1.8c0.67,1.2,1.5,2.37,2.5,3.5c0.23,0.27,0.47,0.53,0.73,0.8c0.87,0.9,1.83,1.77,2.9,2.6
						c0.33,0.27,0.73,0.53,1.1,0.8c0.9,0.67,1.9,1.3,2.93,1.9c0.57,0.33,1.13,0.63,1.7,0.93c0.5,0.27,0.97,0.5,1.5,0.73
						c0.47,0.23,0.93,0.43,1.43,0.63c0.3,0.13,0.6,0.27,0.93,0.4c0.63,0.27,1.23,0.5,1.87,0.73c0.43,0.13,0.87,0.3,1.3,0.43
						c0.47,0.17,0.9,0.3,1.37,0.4c0.2,0.1,0.4,0.13,0.6,0.2c0.07,0.03,0.1,0.03,0.13,0.07c0.1,0.03,0.17,0.03,0.23,0.07
						c0.63,0.17,1.23,0.33,1.83,0.47c0.2,0.07,0.4,0.1,0.6,0.13c1.07,0.3,2.1,0.5,3.2,0.7c0.53,0.1,1.1,0.2,1.67,0.27
						c0.73,0.13,1.5,0.23,2.23,0.33c5.86,0.77,11.96,0.77,17.82,0c0.73-0.1,1.5-0.2,2.23-0.33c0.57-0.07,1.13-0.17,1.67-0.27
						c1.27-0.23,2.53-0.5,3.8-0.83c0.6-0.13,1.2-0.3,1.8-0.47c0.1-0.03,0.17-0.03,0.27-0.07c0.7-0.23,1.4-0.43,2.1-0.67
						c0.43-0.13,0.87-0.3,1.3-0.43c0.63-0.23,1.23-0.47,1.86-0.73c0.3-0.13,0.63-0.27,0.93-0.4c0.5-0.2,0.97-0.4,1.43-0.63
						c0.5-0.23,1-0.47,1.47-0.73c0.6-0.3,1.16-0.6,1.73-0.93c1.03-0.6,2.03-1.23,2.93-1.9c0.37-0.27,0.73-0.53,1.1-0.8
						c1.07-0.83,2.03-1.7,2.9-2.6c0.27-0.27,0.5-0.53,0.73-0.8c1-1.13,1.83-2.3,2.5-3.5c0.63-1.13,1.1-2.26,1.43-3.43
						c0.07-0.2,0.13-0.4,0.17-0.6c0.1-0.37,0.17-0.77,0.23-1.13c0.07-0.3,0.07-0.6,0.1-0.87c0.03-0.3,0.03-0.6,0.07-0.9
						C276,306.9,276,306.76,276,306.67z"/>
				</g>
				<path class="st7" d="M276,270.02v1.63c0,0.3-0.03,0.6-0.07,0.9c0,0.27-0.03,0.53-0.1,0.8c0,0.2-0.03,0.4-0.1,0.6
					c-0.1,0.7-0.3,1.37-0.53,2.07c-0.2,0.63-0.47,1.27-0.77,1.9c-0.1,0.2-0.2,0.37-0.3,0.57c-0.3,0.6-0.67,1.2-1.1,1.8
					c-0.27,0.4-0.57,0.83-0.9,1.23c-0.27,0.33-0.53,0.63-0.83,0.93c-0.2,0.27-0.43,0.53-0.7,0.77c-0.2,0.23-0.43,0.47-0.7,0.7
					c-1.7,1.6-3.73,3.1-6.1,4.5c-0.57,0.3-1.13,0.63-1.73,0.93c-0.47,0.23-0.97,0.47-1.47,0.7c-0.47,0.23-0.93,0.43-1.43,0.67
					c-0.3,0.13-0.63,0.27-0.93,0.4c-0.63,0.23-1.23,0.47-1.86,0.7c-0.43,0.13-0.87,0.3-1.3,0.43c-0.7,0.23-1.4,0.47-2.1,0.67
					c-0.1,0.03-0.17,0.03-0.27,0.07c-0.6,0.17-1.2,0.33-1.8,0.47c-1.27,0.33-2.53,0.6-3.8,0.83c-0.53,0.1-1.1,0.2-1.67,0.3
					c-0.73,0.1-1.5,0.2-2.23,0.3c-5.86,0.77-11.96,0.77-17.82,0c-0.73-0.1-1.5-0.2-2.23-0.3c-0.57-0.1-1.13-0.2-1.67-0.3
					c-0.53-0.1-1.03-0.2-1.53-0.3c-0.53-0.13-1.03-0.23-1.53-0.37c-0.23-0.03-0.5-0.1-0.73-0.17c-0.6-0.13-1.2-0.3-1.83-0.47
					c-0.07-0.03-0.13-0.03-0.23-0.07c-0.2-0.07-0.4-0.13-0.6-0.2c-0.5-0.13-1-0.3-1.5-0.47c-0.43-0.13-0.87-0.3-1.3-0.43
					c-0.63-0.23-1.23-0.47-1.87-0.7c-0.33-0.13-0.63-0.27-0.93-0.4c-0.5-0.23-0.97-0.43-1.43-0.67c-0.53-0.23-1-0.47-1.5-0.7
					c-0.57-0.3-1.13-0.63-1.7-0.93c-2.37-1.4-4.4-2.9-6.1-4.5c-0.27-0.23-0.5-0.47-0.73-0.7c-0.23-0.23-0.47-0.5-0.67-0.77
					c-0.3-0.3-0.57-0.6-0.83-0.93c-0.33-0.4-0.63-0.83-0.9-1.23c-0.43-0.6-0.8-1.2-1.1-1.8c-0.13-0.2-0.2-0.37-0.3-0.57
					c-0.3-0.63-0.57-1.27-0.8-1.9c-0.47-1.4-0.73-2.83-0.77-4.26v-1.73c0,0.1,0,0.2,0.03,0.3v0.33c0.03,0.27,0.03,0.53,0.07,0.77
					c0.03,0.23,0.07,0.43,0.1,0.67c0,0.1,0.03,0.2,0.07,0.3c0.03,0.43,0.17,0.87,0.27,1.3c0.17,0.6,0.37,1.2,0.63,1.8
					c0.23,0.6,0.53,1.2,0.87,1.8c0.67,1.2,1.5,2.37,2.5,3.5c0.23,0.27,0.47,0.53,0.73,0.8c0.87,0.9,1.83,1.77,2.9,2.6
					c0.33,0.27,0.73,0.53,1.1,0.8c0.9,0.67,1.9,1.3,2.93,1.9c0.57,0.33,1.13,0.63,1.7,0.93c0.5,0.27,0.97,0.5,1.5,0.73
					c0.47,0.23,0.93,0.43,1.43,0.63c0.3,0.13,0.6,0.27,0.93,0.4c0.63,0.27,1.23,0.5,1.87,0.73c0.43,0.13,0.87,0.3,1.3,0.43
					c0.47,0.17,0.9,0.3,1.37,0.4c0.2,0.1,0.4,0.13,0.6,0.2c0.07,0.03,0.1,0.03,0.13,0.07c0.1,0.03,0.17,0.03,0.23,0.07
					c0.63,0.17,1.23,0.33,1.83,0.47c0.2,0.07,0.4,0.1,0.6,0.13c1.07,0.3,2.1,0.5,3.2,0.7c0.53,0.1,1.1,0.2,1.67,0.27
					c0.73,0.13,1.5,0.23,2.23,0.33c5.86,0.77,11.96,0.77,17.82,0c0.73-0.1,1.5-0.2,2.23-0.33c0.57-0.07,1.13-0.17,1.67-0.27
					c1.27-0.23,2.53-0.5,3.8-0.83c0.6-0.13,1.2-0.3,1.8-0.47c0.1-0.03,0.17-0.03,0.27-0.07c0.7-0.23,1.4-0.43,2.1-0.67
					c0.43-0.13,0.87-0.3,1.3-0.43c0.63-0.23,1.23-0.47,1.86-0.73c0.3-0.13,0.63-0.27,0.93-0.4c0.5-0.2,0.97-0.4,1.43-0.63
					c0.5-0.23,1-0.47,1.47-0.73c0.6-0.3,1.16-0.6,1.73-0.93c1.03-0.6,2.03-1.23,2.93-1.9c0.37-0.27,0.73-0.53,1.1-0.8
					c1.07-0.83,2.03-1.7,2.9-2.6c0.27-0.27,0.5-0.53,0.73-0.8c1-1.13,1.83-2.3,2.5-3.5c0.63-1.13,1.1-2.26,1.43-3.43
					c0.07-0.2,0.13-0.4,0.17-0.6c0.1-0.37,0.17-0.77,0.23-1.13c0.07-0.3,0.07-0.6,0.1-0.87c0.03-0.3,0.03-0.6,0.07-0.9
					C276,270.25,276,270.12,276,270.02z"/>
				<path class="st7" d="M276,266.69v1.63c0,0.3-0.03,0.6-0.07,0.9c0,0.27-0.03,0.53-0.1,0.8c0,0.2-0.03,0.4-0.1,0.6
					c-0.1,0.7-0.3,1.37-0.53,2.07c-0.2,0.63-0.47,1.27-0.77,1.9c-0.1,0.2-0.2,0.37-0.3,0.57c-0.3,0.6-0.67,1.2-1.1,1.8
					c-0.27,0.4-0.57,0.83-0.9,1.23c-0.27,0.33-0.53,0.63-0.83,0.93c-0.2,0.27-0.43,0.53-0.7,0.77c-0.2,0.23-0.43,0.47-0.7,0.7
					c-1.7,1.6-3.73,3.1-6.1,4.5c-0.57,0.3-1.13,0.63-1.73,0.93c-0.47,0.23-0.97,0.47-1.47,0.7c-0.47,0.23-0.93,0.43-1.43,0.67
					c-0.3,0.13-0.63,0.27-0.93,0.4c-0.63,0.23-1.23,0.47-1.86,0.7c-0.43,0.13-0.87,0.3-1.3,0.43c-0.7,0.23-1.4,0.47-2.1,0.67
					c-0.1,0.03-0.17,0.03-0.27,0.07c-0.6,0.17-1.2,0.33-1.8,0.47c-1.27,0.33-2.53,0.6-3.8,0.83c-0.53,0.1-1.1,0.2-1.67,0.3
					c-0.73,0.1-1.5,0.2-2.23,0.3c-5.86,0.77-11.96,0.77-17.82,0c-0.73-0.1-1.5-0.2-2.23-0.3c-0.57-0.1-1.13-0.2-1.67-0.3
					c-0.53-0.1-1.03-0.2-1.53-0.3c-0.53-0.13-1.03-0.23-1.53-0.37c-0.23-0.03-0.5-0.1-0.73-0.17c-0.6-0.13-1.2-0.3-1.83-0.47
					c-0.07-0.03-0.13-0.03-0.23-0.07c-0.2-0.07-0.4-0.13-0.6-0.2c-0.5-0.13-1-0.3-1.5-0.47c-0.43-0.13-0.87-0.3-1.3-0.43
					c-0.63-0.23-1.23-0.47-1.87-0.7c-0.33-0.13-0.63-0.27-0.93-0.4c-0.5-0.23-0.97-0.43-1.43-0.67c-0.53-0.23-1-0.47-1.5-0.7
					c-0.57-0.3-1.13-0.63-1.7-0.93c-2.37-1.4-4.4-2.9-6.1-4.5c-0.27-0.23-0.5-0.47-0.73-0.7c-0.23-0.23-0.47-0.5-0.67-0.77
					c-0.3-0.3-0.57-0.6-0.83-0.93c-0.33-0.4-0.63-0.83-0.9-1.23c-0.43-0.6-0.8-1.2-1.1-1.8c-0.13-0.2-0.2-0.37-0.3-0.57
					c-0.3-0.63-0.57-1.27-0.8-1.9c-0.47-1.4-0.73-2.83-0.77-4.26v-1.73c0,0.1,0,0.2,0.03,0.3v0.33c0.03,0.27,0.03,0.53,0.07,0.77
					c0.03,0.23,0.07,0.43,0.1,0.67c0,0.1,0.03,0.2,0.07,0.3c0.03,0.43,0.17,0.87,0.27,1.3c0.17,0.6,0.37,1.2,0.63,1.8
					c0.23,0.6,0.53,1.2,0.87,1.8c0.67,1.2,1.5,2.37,2.5,3.5c0.23,0.27,0.47,0.53,0.73,0.8c0.87,0.9,1.83,1.77,2.9,2.6
					c0.33,0.27,0.73,0.53,1.1,0.8c0.9,0.67,1.9,1.3,2.93,1.9c0.57,0.33,1.13,0.63,1.7,0.93c0.5,0.27,0.97,0.5,1.5,0.73
					c0.47,0.23,0.93,0.43,1.43,0.63c0.3,0.13,0.6,0.27,0.93,0.4c0.63,0.27,1.23,0.5,1.87,0.73c0.43,0.13,0.87,0.3,1.3,0.43
					c0.47,0.17,0.9,0.3,1.37,0.4c0.2,0.1,0.4,0.13,0.6,0.2c0.07,0.03,0.1,0.03,0.13,0.07c0.1,0.03,0.17,0.03,0.23,0.07
					c0.63,0.17,1.23,0.33,1.83,0.47c0.2,0.07,0.4,0.1,0.6,0.13c1.07,0.3,2.1,0.5,3.2,0.7c0.53,0.1,1.1,0.2,1.67,0.27
					c0.73,0.13,1.5,0.23,2.23,0.33c5.86,0.77,11.96,0.77,17.82,0c0.73-0.1,1.5-0.2,2.23-0.33c0.57-0.07,1.13-0.17,1.67-0.27
					c1.27-0.23,2.53-0.5,3.8-0.83c0.6-0.13,1.2-0.3,1.8-0.47c0.1-0.03,0.17-0.03,0.27-0.07c0.7-0.23,1.4-0.43,2.1-0.67
					c0.43-0.13,0.87-0.3,1.3-0.43c0.63-0.23,1.23-0.47,1.86-0.73c0.3-0.13,0.63-0.27,0.93-0.4c0.5-0.2,0.97-0.4,1.43-0.63
					c0.5-0.23,1-0.47,1.47-0.73c0.6-0.3,1.16-0.6,1.73-0.93c1.03-0.6,2.03-1.23,2.93-1.9c0.37-0.27,0.73-0.53,1.1-0.8
					c1.07-0.83,2.03-1.7,2.9-2.6c0.27-0.27,0.5-0.53,0.73-0.8c1-1.13,1.83-2.3,2.5-3.5c0.63-1.13,1.1-2.26,1.43-3.43
					c0.07-0.2,0.13-0.4,0.17-0.6c0.1-0.37,0.17-0.77,0.23-1.13c0.07-0.3,0.07-0.6,0.1-0.87c0.03-0.3,0.03-0.6,0.07-0.9
					C276,266.92,276,266.79,276,266.69z"/>
				<path class="st7" d="M276,230.04v1.63c0,0.3-0.03,0.6-0.07,0.9c0,0.27-0.03,0.53-0.1,0.8c0,0.2-0.03,0.4-0.1,0.6
					c-0.1,0.7-0.3,1.37-0.53,2.07c-0.2,0.63-0.47,1.27-0.77,1.9c-0.1,0.2-0.2,0.37-0.3,0.57c-0.3,0.6-0.67,1.2-1.1,1.8
					c-0.27,0.4-0.57,0.83-0.9,1.23c-0.27,0.33-0.53,0.63-0.83,0.93c-0.2,0.27-0.43,0.53-0.7,0.77c-0.2,0.23-0.43,0.47-0.7,0.7
					c-1.7,1.6-3.73,3.1-6.1,4.5c-0.57,0.3-1.13,0.63-1.73,0.93c-0.47,0.23-0.97,0.47-1.47,0.7c-0.47,0.23-0.93,0.43-1.43,0.67
					c-0.3,0.13-0.63,0.27-0.93,0.4c-0.63,0.23-1.23,0.47-1.86,0.7c-0.43,0.13-0.87,0.3-1.3,0.43c-0.7,0.23-1.4,0.47-2.1,0.67
					c-0.1,0.03-0.17,0.03-0.27,0.07c-0.6,0.17-1.2,0.33-1.8,0.47c-1.27,0.33-2.53,0.6-3.8,0.83c-0.53,0.1-1.1,0.2-1.67,0.3
					c-0.73,0.1-1.5,0.2-2.23,0.3c-5.86,0.77-11.96,0.77-17.82,0c-0.73-0.1-1.5-0.2-2.23-0.3c-0.57-0.1-1.13-0.2-1.67-0.3
					c-0.53-0.1-1.03-0.2-1.53-0.3c-0.53-0.13-1.03-0.23-1.53-0.37c-0.23-0.03-0.5-0.1-0.73-0.17c-0.6-0.13-1.2-0.3-1.83-0.47
					c-0.07-0.03-0.13-0.03-0.23-0.07c-0.2-0.07-0.4-0.13-0.6-0.2c-0.5-0.13-1-0.3-1.5-0.47c-0.43-0.13-0.87-0.3-1.3-0.43
					c-0.63-0.23-1.23-0.47-1.87-0.7c-0.33-0.13-0.63-0.27-0.93-0.4c-0.5-0.23-0.97-0.43-1.43-0.67c-0.53-0.23-1-0.47-1.5-0.7
					c-0.57-0.3-1.13-0.63-1.7-0.93c-2.37-1.4-4.4-2.9-6.1-4.5c-0.27-0.23-0.5-0.47-0.73-0.7c-0.23-0.23-0.47-0.5-0.67-0.77
					c-0.3-0.3-0.57-0.6-0.83-0.93c-0.33-0.4-0.63-0.83-0.9-1.23c-0.43-0.6-0.8-1.2-1.1-1.8c-0.13-0.2-0.2-0.37-0.3-0.57
					c-0.3-0.63-0.57-1.27-0.8-1.9c-0.47-1.4-0.73-2.83-0.77-4.26v-1.73c0,0.1,0,0.2,0.03,0.3v0.33c0.03,0.27,0.03,0.53,0.07,0.77
					c0.03,0.23,0.07,0.43,0.1,0.67c0,0.1,0.03,0.2,0.07,0.3c0.03,0.43,0.17,0.87,0.27,1.3c0.17,0.6,0.37,1.2,0.63,1.8
					c0.23,0.6,0.53,1.2,0.87,1.8c0.67,1.2,1.5,2.37,2.5,3.5c0.23,0.27,0.47,0.53,0.73,0.8c0.87,0.9,1.83,1.77,2.9,2.6
					c0.33,0.27,0.73,0.53,1.1,0.8c0.9,0.67,1.9,1.3,2.93,1.9c0.57,0.33,1.13,0.63,1.7,0.93c0.5,0.27,0.97,0.5,1.5,0.73
					c0.47,0.23,0.93,0.43,1.43,0.63c0.3,0.13,0.6,0.27,0.93,0.4c0.63,0.27,1.23,0.5,1.87,0.73c0.43,0.13,0.87,0.3,1.3,0.43
					c0.47,0.17,0.9,0.3,1.37,0.4c0.2,0.1,0.4,0.13,0.6,0.2c0.07,0.03,0.1,0.03,0.13,0.07c0.1,0.03,0.17,0.03,0.23,0.07
					c0.63,0.17,1.23,0.33,1.83,0.47c0.2,0.07,0.4,0.1,0.6,0.13c1.07,0.3,2.1,0.5,3.2,0.7c0.53,0.1,1.1,0.2,1.67,0.27
					c0.73,0.13,1.5,0.23,2.23,0.33c5.86,0.77,11.96,0.77,17.82,0c0.73-0.1,1.5-0.2,2.23-0.33c0.57-0.07,1.13-0.17,1.67-0.27
					c1.27-0.23,2.53-0.5,3.8-0.83c0.6-0.13,1.2-0.3,1.8-0.47c0.1-0.03,0.17-0.03,0.27-0.07c0.7-0.23,1.4-0.43,2.1-0.67
					c0.43-0.13,0.87-0.3,1.3-0.43c0.63-0.23,1.23-0.47,1.86-0.73c0.3-0.13,0.63-0.27,0.93-0.4c0.5-0.2,0.97-0.4,1.43-0.63
					c0.5-0.23,1-0.47,1.47-0.73c0.6-0.3,1.16-0.6,1.73-0.93c1.03-0.6,2.03-1.23,2.93-1.9c0.37-0.27,0.73-0.53,1.1-0.8
					c1.07-0.83,2.03-1.7,2.9-2.6c0.27-0.27,0.5-0.53,0.73-0.8c1-1.13,1.83-2.3,2.5-3.5c0.63-1.13,1.1-2.26,1.43-3.43
					c0.07-0.2,0.13-0.4,0.17-0.6c0.1-0.37,0.17-0.77,0.23-1.13c0.07-0.3,0.07-0.6,0.1-0.87c0.03-0.3,0.03-0.6,0.07-0.9
					C276,230.28,276,230.14,276,230.04z"/>
				<path class="st7" d="M276,226.71v1.63c0,0.3-0.03,0.6-0.07,0.9c0,0.27-0.03,0.53-0.1,0.8c0,0.2-0.03,0.4-0.1,0.6
					c-0.1,0.7-0.3,1.37-0.53,2.07c-0.2,0.63-0.47,1.27-0.77,1.9c-0.1,0.2-0.2,0.37-0.3,0.57c-0.3,0.6-0.67,1.2-1.1,1.8
					c-0.27,0.4-0.57,0.83-0.9,1.23c-0.27,0.33-0.53,0.63-0.83,0.93c-0.2,0.27-0.43,0.53-0.7,0.77c-0.2,0.23-0.43,0.47-0.7,0.7
					c-1.7,1.6-3.73,3.1-6.1,4.5c-0.57,0.3-1.13,0.63-1.73,0.93c-0.47,0.23-0.97,0.47-1.47,0.7c-0.47,0.23-0.93,0.43-1.43,0.67
					c-0.3,0.13-0.63,0.27-0.93,0.4c-0.63,0.23-1.23,0.47-1.86,0.7c-0.43,0.13-0.87,0.3-1.3,0.43c-0.7,0.23-1.4,0.47-2.1,0.67
					c-0.1,0.03-0.17,0.03-0.27,0.07c-0.6,0.17-1.2,0.33-1.8,0.47c-1.27,0.33-2.53,0.6-3.8,0.83c-0.53,0.1-1.1,0.2-1.67,0.3
					c-0.73,0.1-1.5,0.2-2.23,0.3c-5.86,0.77-11.96,0.77-17.82,0c-0.73-0.1-1.5-0.2-2.23-0.3c-0.57-0.1-1.13-0.2-1.67-0.3
					c-0.53-0.1-1.03-0.2-1.53-0.3c-0.53-0.13-1.03-0.23-1.53-0.37c-0.23-0.03-0.5-0.1-0.73-0.17c-0.6-0.13-1.2-0.3-1.83-0.47
					c-0.07-0.03-0.13-0.03-0.23-0.07c-0.2-0.07-0.4-0.13-0.6-0.2c-0.5-0.13-1-0.3-1.5-0.47c-0.43-0.13-0.87-0.3-1.3-0.43
					c-0.63-0.23-1.23-0.47-1.87-0.7c-0.33-0.13-0.63-0.27-0.93-0.4c-0.5-0.23-0.97-0.43-1.43-0.67c-0.53-0.23-1-0.47-1.5-0.7
					c-0.57-0.3-1.13-0.63-1.7-0.93c-2.37-1.4-4.4-2.9-6.1-4.5c-0.27-0.23-0.5-0.47-0.73-0.7c-0.23-0.23-0.47-0.5-0.67-0.77
					c-0.3-0.3-0.57-0.6-0.83-0.93c-0.33-0.4-0.63-0.83-0.9-1.23c-0.43-0.6-0.8-1.2-1.1-1.8c-0.13-0.2-0.2-0.37-0.3-0.57
					c-0.3-0.63-0.57-1.27-0.8-1.9c-0.47-1.4-0.73-2.83-0.77-4.26v-1.73c0,0.1,0,0.2,0.03,0.3v0.33c0.03,0.27,0.03,0.53,0.07,0.77
					c0.03,0.23,0.07,0.43,0.1,0.67c0,0.1,0.03,0.2,0.07,0.3c0.03,0.43,0.17,0.87,0.27,1.3c0.17,0.6,0.37,1.2,0.63,1.8
					c0.23,0.6,0.53,1.2,0.87,1.8c0.67,1.2,1.5,2.37,2.5,3.5c0.23,0.27,0.47,0.53,0.73,0.8c0.87,0.9,1.83,1.77,2.9,2.6
					c0.33,0.27,0.73,0.53,1.1,0.8c0.9,0.67,1.9,1.3,2.93,1.9c0.57,0.33,1.13,0.63,1.7,0.93c0.5,0.27,0.97,0.5,1.5,0.73
					c0.47,0.23,0.93,0.43,1.43,0.63c0.3,0.13,0.6,0.27,0.93,0.4c0.63,0.27,1.23,0.5,1.87,0.73c0.43,0.13,0.87,0.3,1.3,0.43
					c0.47,0.17,0.9,0.3,1.37,0.4c0.2,0.1,0.4,0.13,0.6,0.2c0.07,0.03,0.1,0.03,0.13,0.07c0.1,0.03,0.17,0.03,0.23,0.07
					c0.63,0.17,1.23,0.33,1.83,0.47c0.2,0.07,0.4,0.1,0.6,0.13c1.07,0.3,2.1,0.5,3.2,0.7c0.53,0.1,1.1,0.2,1.67,0.27
					c0.73,0.13,1.5,0.23,2.23,0.33c5.86,0.77,11.96,0.77,17.82,0c0.73-0.1,1.5-0.2,2.23-0.33c0.57-0.07,1.13-0.17,1.67-0.27
					c1.27-0.23,2.53-0.5,3.8-0.83c0.6-0.13,1.2-0.3,1.8-0.47c0.1-0.03,0.17-0.03,0.27-0.07c0.7-0.23,1.4-0.43,2.1-0.67
					c0.43-0.13,0.87-0.3,1.3-0.43c0.63-0.23,1.23-0.47,1.86-0.73c0.3-0.13,0.63-0.27,0.93-0.4c0.5-0.2,0.97-0.4,1.43-0.63
					c0.5-0.23,1-0.47,1.47-0.73c0.6-0.3,1.16-0.6,1.73-0.93c1.03-0.6,2.03-1.23,2.93-1.9c0.37-0.27,0.73-0.53,1.1-0.8
					c1.07-0.83,2.03-1.7,2.9-2.6c0.27-0.27,0.5-0.53,0.73-0.8c1-1.13,1.83-2.3,2.5-3.5c0.63-1.13,1.1-2.26,1.43-3.43
					c0.07-0.2,0.13-0.4,0.17-0.6c0.1-0.37,0.17-0.77,0.23-1.13c0.07-0.3,0.07-0.6,0.1-0.87c0.03-0.3,0.03-0.6,0.07-0.9
					C276,226.95,276,226.81,276,226.71z"/>
				<path class="st8" d="M276,180.07v14.96c0,0.3-0.03,0.6-0.07,0.9c0,0.27-0.03,0.53-0.1,0.8c0,0.2-0.03,0.4-0.1,0.6
					c-0.1,0.7-0.3,1.37-0.53,2.07c-0.2,0.63-0.47,1.27-0.77,1.9c-0.1,0.2-0.2,0.37-0.3,0.57c-0.3,0.6-0.67,1.2-1.1,1.8
					c-0.27,0.4-0.57,0.83-0.9,1.23c-0.27,0.33-0.53,0.63-0.83,0.93c-0.2,0.27-0.43,0.53-0.7,0.77c-0.2,0.23-0.43,0.47-0.7,0.7
					c-1.7,1.6-3.73,3.1-6.1,4.5c-0.57,0.3-1.13,0.63-1.73,0.93c-0.47,0.23-0.97,0.47-1.47,0.7c-0.47,0.23-0.93,0.43-1.43,0.67
					c-0.3,0.13-0.63,0.27-0.93,0.4c-0.63,0.23-1.23,0.47-1.86,0.7c-0.43,0.13-0.87,0.3-1.3,0.43c-0.7,0.23-1.4,0.47-2.1,0.67
					c-0.1,0.03-0.17,0.03-0.27,0.07c-0.6,0.17-1.2,0.33-1.8,0.47c-1.27,0.33-2.53,0.6-3.8,0.83c-0.53,0.1-1.1,0.2-1.67,0.3
					c-0.73,0.1-1.5,0.2-2.23,0.3c-5.86,0.77-11.96,0.77-17.82,0c-0.73-0.1-1.5-0.2-2.23-0.3c-0.57-0.1-1.13-0.2-1.67-0.3
					c-0.53-0.1-1.03-0.2-1.53-0.3c-0.53-0.13-1.03-0.23-1.53-0.37c-0.23-0.03-0.5-0.1-0.73-0.17c-0.6-0.13-1.2-0.3-1.83-0.47
					c-0.07-0.03-0.13-0.03-0.23-0.07c-0.2-0.07-0.4-0.13-0.6-0.2c-0.5-0.13-1-0.3-1.5-0.47c-0.43-0.13-0.87-0.3-1.3-0.43
					c-0.63-0.23-1.23-0.47-1.87-0.7c-0.33-0.13-0.63-0.27-0.93-0.4c-0.5-0.23-0.97-0.43-1.43-0.67c-0.53-0.23-1-0.47-1.5-0.7
					c-0.57-0.3-1.13-0.63-1.7-0.93c-2.37-1.4-4.4-2.9-6.1-4.5c-0.27-0.23-0.5-0.47-0.73-0.7c-0.23-0.23-0.47-0.5-0.67-0.77
					c-0.3-0.3-0.57-0.6-0.83-0.93c-0.33-0.4-0.63-0.83-0.9-1.23c-0.43-0.6-0.8-1.2-1.1-1.8c-0.13-0.2-0.2-0.37-0.3-0.57
					c-0.3-0.63-0.57-1.27-0.8-1.9c-0.47-1.4-0.73-2.83-0.77-4.26v-15.06c0,0.1,0,0.2,0.03,0.3v0.33c0.03,0.27,0.03,0.53,0.07,0.77
					c0.03,0.23,0.07,0.43,0.1,0.67c0,0.1,0.03,0.2,0.07,0.3c0.03,0.43,0.17,0.87,0.27,1.3c0.17,0.6,0.37,1.2,0.63,1.8
					c0.23,0.6,0.53,1.2,0.87,1.8c0.67,1.2,1.5,2.37,2.5,3.5c0.23,0.27,0.47,0.53,0.73,0.8c0.87,0.9,1.83,1.77,2.9,2.6
					c0.33,0.27,0.73,0.53,1.1,0.8c0.9,0.67,1.9,1.3,2.93,1.9c0.57,0.33,1.13,0.63,1.7,0.93c0.5,0.27,0.97,0.5,1.5,0.73
					c0.47,0.23,0.93,0.43,1.43,0.63c0.3,0.13,0.6,0.27,0.93,0.4c0.63,0.27,1.23,0.5,1.87,0.73c0.43,0.13,0.87,0.3,1.3,0.43
					c0.47,0.17,0.9,0.3,1.37,0.4c0.2,0.1,0.4,0.13,0.6,0.2c0.07,0.03,0.1,0.03,0.13,0.07c0.1,0.03,0.17,0.03,0.23,0.07
					c0.63,0.17,1.23,0.33,1.83,0.47c0.2,0.07,0.4,0.1,0.6,0.13c1.07,0.3,2.1,0.5,3.2,0.7c0.53,0.1,1.1,0.2,1.67,0.27
					c0.73,0.13,1.5,0.23,2.23,0.33c5.86,0.77,11.96,0.77,17.82,0c0.73-0.1,1.5-0.2,2.23-0.33c0.57-0.07,1.13-0.17,1.67-0.27
					c1.27-0.23,2.53-0.5,3.8-0.83c0.6-0.13,1.2-0.3,1.8-0.47c0.1-0.03,0.17-0.03,0.27-0.07c0.7-0.23,1.4-0.43,2.1-0.67
					c0.43-0.13,0.87-0.3,1.3-0.43c0.63-0.23,1.23-0.47,1.86-0.73c0.3-0.13,0.63-0.27,0.93-0.4c0.5-0.2,0.97-0.4,1.43-0.63
					c0.5-0.23,1-0.47,1.47-0.73c0.6-0.3,1.16-0.6,1.73-0.93c1.03-0.6,2.03-1.23,2.93-1.9c0.37-0.27,0.73-0.53,1.1-0.8
					c1.07-0.83,2.03-1.7,2.9-2.6c0.27-0.27,0.5-0.53,0.73-0.8c1-1.13,1.83-2.3,2.5-3.5c0.63-1.13,1.1-2.26,1.43-3.43
					c0.07-0.2,0.13-0.4,0.17-0.6c0.1-0.37,0.17-0.77,0.23-1.13c0.07-0.3,0.07-0.6,0.1-0.87c0.03-0.3,0.03-0.6,0.07-0.9
					C276,180.31,276,180.17,276,180.07z"/>
				<g>
					<g>
						<path class="st1" d="M272.87,189.08v14.83c-0.83,1.17-1.81,2.3-2.97,3.37v-14.82C271.06,191.36,272.04,190.25,272.87,189.08z"
							/>
					</g>
					<g>
						<path class="st1" d="M265.45,195.92v14.83c-0.54,0.36-1.08,0.7-1.66,1.02c-0.43,0.25-0.86,0.49-1.3,0.73v-14.83
							c0.45-0.24,0.88-0.48,1.3-0.73C264.37,196.61,264.92,196.27,265.45,195.92z"/>
					</g>
					<g>
						<path class="st1" d="M258.03,199.71v14.83c-0.96,0.39-1.96,0.76-2.97,1.08V200.8C256.08,200.47,257.07,200.1,258.03,199.71z"
							/>
					</g>
					<g>
						<path class="st1" d="M250.62,202.07v14.83c-0.98,0.24-1.96,0.46-2.97,0.65v-14.83C248.66,202.53,249.64,202.31,250.62,202.07z
							"/>
					</g>
					<g>
						<path class="st1" d="M243.2,203.42v14.83c-0.98,0.13-1.97,0.24-2.97,0.31v-14.83C241.23,203.66,242.22,203.55,243.2,203.42z"
							/>
					</g>
					<g>
						<path class="st1" d="M235.79,203.97v14.83c-0.99,0.03-1.97,0.03-2.97,0v-14.83C233.81,204,234.79,204,235.79,203.97z"/>
					</g>
					<g>
						<path class="st1" d="M228.37,203.73v14.83c-0.99-0.07-1.99-0.18-2.97-0.31v-14.83C226.38,203.55,227.37,203.66,228.37,203.73z
							"/>
					</g>
					<g>
						<path class="st1" d="M220.95,202.72v14.83c-1.01-0.19-1.99-0.42-2.97-0.65v-14.83C218.96,202.31,219.94,202.53,220.95,202.72z
							"/>
					</g>
					<g>
						<path class="st1" d="M213.54,200.8v14.83c-1.01-0.33-2-0.7-2.97-1.08v-14.83C211.53,200.1,212.53,200.47,213.54,200.8z"/>
					</g>
					<g>
						<path class="st1" d="M206.12,197.67v14.83c-0.45-0.24-0.88-0.47-1.31-0.73c-0.58-0.33-1.13-0.67-1.66-1.02v-14.83
							c0.53,0.36,1.08,0.7,1.66,1.02C205.25,197.19,205.67,197.43,206.12,197.67z"/>
					</g>
					<g>
						<path class="st1" d="M198.7,192.46v14.82c-1.16-1.07-2.14-2.2-2.97-3.37v-14.83C196.57,190.25,197.55,191.36,198.7,192.46z"/>
					</g>
				</g>
			</g>
		</g>
		<g>
			<path class="st1" d="M218.3,202.13c-0.2-0.03-0.4-0.07-0.6-0.13c-0.6-0.13-1.2-0.3-1.83-0.47c-0.07-0.03-0.13-0.03-0.23-0.07
				c-0.03-0.03-0.07-0.03-0.13-0.07c-0.2-0.07-0.4-0.1-0.6-0.2c-0.67-89.22,11.26-117.53,17.02-125.93c0.77-0.2,1.57-0.27,2.37-0.27
				c0.67,0,1.33,0.07,2,0.17C233.49,78.07,217.43,99.15,218.3,202.13z"/>
		</g>
		<g>
			<g>
				<g>
					<path class="st8" d="M177.87,408.16c0.9,0.4,2.4,0.97,4.16,1.6C180.53,409.39,179.13,408.86,177.87,408.16z"/>
					<path class="st9" d="M201.32,375.34c-0.03,14.93-0.13,26.65-0.27,31.82h-0.03c-0.33,0.27-0.7,0.47-1.07,0.7
						c-2.66,1.53-6.06,2.43-9.53,2.66c0.03-2.9,0.13-15.12,0.23-31.85c3.66-0.23,7.06-1.2,9.69-2.7
						C200.69,375.74,201.02,375.58,201.32,375.34z"/>
					<path class="st8" d="M204.65,368.95v2.73c-0.63,1.3-1.7,2.53-3.17,3.57l-0.1,0.06c-0.03,0-0.03,0.03-0.07,0.03
						c-0.3,0.23-0.63,0.4-0.97,0.63c-2.63,1.5-6.03,2.47-9.69,2.7c-0.07,0.04-0.13,0.04-0.2,0.04c-0.63,0.07-1.27,0.07-1.93,0.07
						c-1.13,0-2.27-0.07-3.4-0.2c-1.2-0.17-2.27-0.37-3.26-0.6c-1.77-0.47-3.33-1.1-4.76-1.86l-0.23-0.13
						c-2.03-1.16-3.5-2.63-4.3-4.2v-2.83l0.03-122.43v-12.63c0-8.86,7.16-32.75,15.99-32.75c0.23,0,0.43,0,0.67,0.03
						c8.53,1.13,15.32,24.09,15.32,32.72v12.56L204.65,368.95z"/>
					<path class="st1" d="M190.66,378.67c-0.1,16.73-0.2,28.95-0.23,31.85c-1.73,0.1-3.5,0.07-5.2-0.13
						c-1.07-0.17-2.13-0.34-3.16-0.6c0-0.04-0.03-0.04-0.03-0.04c-1.76-0.63-3.26-1.2-4.16-1.6c-0.13-0.07-0.27-0.1-0.37-0.17
						c-0.1-0.04-0.17-0.1-0.23-0.13c-3.17-1.8-4.7-4.2-4.7-6.57v-29.51c0.8,1.57,2.26,3.03,4.3,4.2l0.23,0.13
						c1.43,0.76,3,1.4,4.76,1.86c1,0.23,2.07,0.43,3.26,0.6c1.13,0.13,2.26,0.2,3.4,0.2c0.67,0,1.3,0,1.93-0.07
						C190.53,378.71,190.6,378.71,190.66,378.67z"/>
					<path class="st3" d="M191.53,240.72c0,2.43-0.03,6.5-0.07,11.76c0,0.27,0,0.57-0.03,0.83c-0.13,27.68-0.5,87.01-0.77,124.52
						c0.03,0.3,0,0.57,0,0.83c-0.07,0.04-0.13,0.04-0.2,0.04c-0.63,0.07-1.27,0.07-1.93,0.07c-1.13,0-2.27-0.07-3.4-0.2
						c-1.2-0.17-2.27-0.37-3.26-0.6c-1.77-0.47-3.33-1.1-4.76-1.86l-0.23-0.13c-2.03-1.16-3.5-2.63-4.3-4.2v-2.83l0.03-122.43
						v-12.63c0-8.86,7.16-32.75,15.99-32.75c0.23,0,0.43,0,0.67,0.03c-0.03,0.07-0.03,0.3,0.03,0.6v0.03
						C189.46,205.14,191.66,220.37,191.53,240.72z"/>
					<path class="st5" d="M204.65,371.68v29.61c0,2.07-1.2,4.16-3.6,5.87c0.13-5.17,0.23-16.89,0.27-31.82
						c0.03,0,0.03-0.03,0.07-0.03l0.1-0.06C202.96,374.21,204.02,372.98,204.65,371.68z"/>
					<path class="st1" d="M204.65,368.95v2.73c-0.63,1.3-1.7,2.53-3.17,3.57l-0.1,0.06c-0.03,0-0.03,0.03-0.07,0.03v-1.03
						c0.13-41.28,0.03-105.87,0.1-124.36c0.03-0.37,0.03-0.73,0.03-1.07v-1.07c0.23-31.01-9.43-43.17-12.16-46v-0.03
						c-0.47-0.43-0.7-0.63-0.7-0.63c0.23,0,0.43,0,0.67,0.03c8.53,1.13,15.32,24.09,15.32,32.72v12.56L204.65,368.95z"/>
				</g>
				<g>
					<g>
						<path class="st1" d="M204.59,243.62v2.83c-0.6,1.27-1.67,2.43-3.1,3.46l-0.07,0.03l-0.03,0.03c-0.33,0.23-0.7,0.47-1.03,0.67
							c-2.43,1.4-5.56,2.33-8.93,2.67c-0.33,0.03-0.63,0.07-0.97,0.1c-0.63,0.03-1.27,0.07-1.93,0.07c-1.13,0-2.27-0.1-3.4-0.23
							c-1.17-0.13-2.27-0.37-3.26-0.6c-1.77-0.47-3.33-1.07-4.76-1.87l-0.23-0.13c-2.03-1.17-3.46-2.57-4.27-4.13v-2.9h0.1
							c0,2.37,1.63,4.6,4.56,6.3l0.2,0.1c1.4,0.8,2.9,1.37,4.56,1.8l0.13,0.07c0.87,0.2,1.93,0.4,3.06,0.53
							c1.7,0.23,3.43,0.27,5.2,0.17c0.33-0.03,0.7-0.07,1.03-0.1c3.2-0.33,6.16-1.23,8.46-2.57c0.37-0.2,0.73-0.43,1.07-0.7
							l0.13-0.07c0.13-0.1,0.23-0.17,0.33-0.27c1.96-1.5,3.03-3.37,3.03-5.26H204.59z"/>
					</g>
					<g>
						<path class="st4" d="M204.65,368.95v2.73c-0.63,1.3-1.7,2.53-3.17,3.57l-0.1,0.06c-0.03,0-0.03,0.03-0.07,0.03
							c-0.3,0.23-0.63,0.4-0.97,0.63c-2.63,1.5-6.03,2.47-9.69,2.7c-0.07,0.04-0.13,0.04-0.2,0.04c-0.63,0.07-1.27,0.07-1.93,0.07
							c-1.13,0-2.27-0.07-3.4-0.2c-1.2-0.17-2.27-0.37-3.26-0.6c-1.77-0.47-3.33-1.1-4.76-1.86l-0.23-0.13
							c-2.03-1.16-3.5-2.63-4.3-4.2v-2.83h0.13c0,2.36,1.63,4.6,4.56,6.3l0.23,0.13c1.37,0.76,2.86,1.33,4.53,1.76l0.1,0.04
							c0.9,0.23,1.93,0.43,3.1,0.57c1.7,0.23,3.43,0.27,5.2,0.13c0.07,0,0.17,0,0.23-0.04c3.46-0.2,6.76-1.16,9.26-2.6
							c0.4-0.23,0.77-0.43,1.07-0.7l0.13-0.07c0.07-0.06,0.13-0.1,0.2-0.17c2.03-1.53,3.17-3.43,3.17-5.36H204.65z"/>
					</g>
				</g>
				<g>
					<g>
						<path class="st4" d="M192.93,400.04v0.54v3.99v0.55c0.2,0,0.39-0.02,0.59-0.05c2.22-0.25,4.35-0.79,6.21-1.61
							c0.2-0.07,0.39-0.16,0.59-0.25v-0.66v-3.87v-0.66c-0.18,0.11-0.39,0.2-0.59,0.29c-1.84,0.84-3.97,1.41-6.21,1.66
							C193.32,400.01,193.13,400.04,192.93,400.04z M193.52,400.53c2.22-0.25,4.35-0.79,6.21-1.61v3.92
							c-1.84,0.84-3.97,1.41-6.21,1.65V400.53z"/>
						<path class="st4" d="M192.93,390.04v0.54v3.99v0.55c0.2,0,0.39-0.02,0.59-0.05c2.22-0.25,4.35-0.79,6.21-1.61
							c0.2-0.07,0.39-0.16,0.59-0.25v-0.66v-3.87v-0.66c-0.18,0.11-0.39,0.2-0.59,0.29c-1.84,0.84-3.97,1.41-6.21,1.66
							C193.32,390.02,193.13,390.04,192.93,390.04z M193.52,390.54c2.22-0.25,4.35-0.79,6.21-1.61v3.92
							c-1.84,0.84-3.97,1.41-6.21,1.65V390.54z"/>
						<path class="st4" d="M192.93,380.59v3.99v0.55c0.2,0,0.39-0.02,0.59-0.05c2.22-0.25,4.35-0.79,6.21-1.61
							c0.2-0.07,0.39-0.16,0.59-0.25v-0.66v-3.87v-0.66c-0.18,0.11-0.39,0.2-0.59,0.29c-1.84,0.84-3.97,1.41-6.21,1.66
							c-0.2,0.05-0.39,0.07-0.59,0.07V380.59L192.93,380.59z M199.73,378.94v3.92c-1.84,0.84-3.97,1.41-6.21,1.65v-3.97
							c0.04,0,0.07-0.01,0.11-0.01L199.73,378.94z M193.63,380.53c2.18-0.25,4.27-0.79,6.1-1.6L193.63,380.53z"/>
					</g>
					<g>
						<path class="st1" d="M192.93,326.74v0.55v3.99v0.54c0.2,0,0.39-0.02,0.59-0.05c2.22-0.25,4.35-0.79,6.21-1.61
							c0.2-0.07,0.39-0.16,0.59-0.25v-0.66v-3.88v-0.66c-0.18,0.11-0.39,0.2-0.59,0.29c-1.84,0.84-3.97,1.41-6.21,1.66
							C193.32,326.72,193.13,326.74,192.93,326.74z M193.52,327.24c2.22-0.25,4.35-0.79,6.21-1.61v3.92
							c-1.84,0.84-3.97,1.41-6.21,1.65V327.24z"/>
						<path class="st1" d="M192.93,286.77v0.55v3.99v0.54c0.2,0,0.39-0.02,0.59-0.05c2.22-0.25,4.35-0.79,6.21-1.61
							c0.2-0.07,0.39-0.16,0.59-0.25v-0.66v-3.88v-0.66c-0.18,0.11-0.39,0.2-0.59,0.29c-1.84,0.84-3.97,1.41-6.21,1.66
							C193.32,286.75,193.13,286.77,192.93,286.77z M193.52,287.27c2.22-0.25,4.35-0.79,6.21-1.61v3.92
							c-1.84,0.84-3.97,1.41-6.21,1.65V287.27z"/>
						<path class="st1" d="M192.93,306.76v0.55v3.99v0.54c0.2,0,0.39-0.02,0.59-0.05c2.22-0.25,4.35-0.79,6.21-1.61
							c0.2-0.07,0.39-0.16,0.59-0.25v-0.66v-3.88v-0.66c-0.18,0.11-0.39,0.2-0.59,0.29c-1.84,0.84-3.97,1.41-6.21,1.66
							C193.32,306.74,193.13,306.76,192.93,306.76z M193.52,307.26c2.22-0.25,4.35-0.79,6.21-1.61v3.92
							c-1.84,0.84-3.97,1.41-6.21,1.65V307.26z"/>
						<path class="st1" d="M192.93,266.78v0.55v3.99v0.54c0.2,0,0.39-0.02,0.59-0.05c2.22-0.25,4.35-0.79,6.21-1.61
							c0.2-0.07,0.39-0.16,0.59-0.25v-0.66v-3.88v-0.66c-0.18,0.11-0.39,0.2-0.59,0.29c-1.84,0.84-3.97,1.41-6.21,1.66
							C193.32,266.76,193.13,266.78,192.93,266.78z M193.52,267.28c2.22-0.25,4.35-0.79,6.21-1.61v3.92
							c-1.84,0.84-3.97,1.41-6.21,1.65V267.28z"/>
					</g>
				</g>
				<g>
					<g>
						<g class="st10">
							<path class="st9" d="M181.46,294.31l-0.14,50.22c0,0.39-0.07,0.73-0.2,1c0,0,0,0,0,0c-0.12,0.27-0.3,0.47-0.53,0.6l2.35-1.36
								c0.17-0.1,0.31-0.24,0.43-0.42c0.03-0.05,0.06-0.11,0.09-0.17c0,0,0-0.01,0.01-0.01l0,0c0.02-0.04,0.04-0.08,0.05-0.13
								c0.01-0.04,0.03-0.09,0.04-0.13c0.01-0.04,0.02-0.08,0.03-0.13c0.01-0.04,0.02-0.08,0.02-0.12c0.01-0.04,0.01-0.08,0.02-0.12
								c0-0.04,0.01-0.08,0.01-0.12c0-0.04,0.01-0.08,0.01-0.12c0-0.04,0-0.08,0-0.12c0,0,0,0,0-0.01l0.14-50.22L181.46,294.31z"/>
							<path class="st8" d="M180.74,291.86c0,0.01,0,0.01,0.01,0.01c0.22,0.39,0.4,0.79,0.52,1.21c0,0,0,0,0,0
								c0.12,0.41,0.19,0.83,0.19,1.23l2.35-1.36c0-0.04,0-0.08,0-0.12c0-0.04,0-0.08,0-0.12c0-0.04-0.01-0.08-0.01-0.12
								c0-0.04-0.01-0.08-0.01-0.12c0-0.04-0.01-0.08-0.02-0.13c-0.01-0.04-0.01-0.08-0.02-0.13c-0.01-0.04-0.02-0.09-0.03-0.13
								c-0.01-0.04-0.02-0.09-0.03-0.13c-0.01-0.04-0.02-0.09-0.04-0.13c-0.01-0.03-0.02-0.06-0.03-0.1l0-0.01
								c0-0.01-0.01-0.02-0.01-0.03c-0.01-0.04-0.03-0.09-0.04-0.13c-0.01-0.04-0.03-0.08-0.04-0.13c-0.01-0.04-0.03-0.08-0.05-0.12
								c-0.01-0.04-0.03-0.08-0.05-0.12c-0.02-0.04-0.03-0.08-0.05-0.12c-0.02-0.04-0.04-0.08-0.06-0.12
								c-0.02-0.04-0.04-0.09-0.06-0.13c-0.02-0.05-0.05-0.1-0.08-0.15c-0.03-0.06-0.06-0.11-0.09-0.17c0,0,0-0.01-0.01-0.01
								c-0.01-0.01-0.01-0.02-0.02-0.04c-0.06-0.1-0.12-0.2-0.18-0.29c-0.05-0.07-0.1-0.15-0.16-0.22c-0.04-0.05-0.07-0.1-0.11-0.14
								c-0.03-0.04-0.06-0.08-0.09-0.12c-0.03-0.04-0.06-0.08-0.1-0.11c-0.03-0.04-0.06-0.07-0.1-0.11
								c-0.01-0.01-0.02-0.02-0.03-0.03l0,0c-0.02-0.03-0.05-0.05-0.07-0.08c-0.04-0.03-0.07-0.07-0.11-0.1
								c-0.04-0.03-0.07-0.07-0.11-0.1c-0.04-0.03-0.07-0.07-0.11-0.1c-0.04-0.03-0.07-0.06-0.11-0.09
								c-0.04-0.03-0.07-0.06-0.11-0.08c-0.04-0.03-0.07-0.05-0.11-0.08c-0.04-0.02-0.07-0.05-0.11-0.07
								c-0.04-0.02-0.07-0.05-0.11-0.07c-0.01,0-0.02-0.01-0.02-0.01l-5.51-3.18c-0.03-0.01-0.05-0.03-0.08-0.05
								c-0.03-0.02-0.07-0.04-0.1-0.05c-0.03-0.02-0.07-0.03-0.1-0.05c-0.03-0.02-0.07-0.03-0.1-0.04c-0.03-0.01-0.07-0.03-0.1-0.04
								c-0.03-0.01-0.07-0.02-0.1-0.03c-0.03-0.01-0.07-0.02-0.1-0.03c-0.03-0.01-0.07-0.02-0.1-0.02
								c-0.04-0.01-0.07-0.01-0.11-0.02c-0.02,0-0.05-0.01-0.07-0.01c0,0,0,0-0.01,0c-0.01,0-0.02,0-0.03,0c-0.04,0-0.08,0-0.12,0
								c-0.04,0-0.09,0-0.13,0.01c-0.05,0-0.1,0.01-0.14,0.02c-0.06,0.01-0.12,0.03-0.17,0.05c-0.07,0.02-0.14,0.06-0.2,0.09
								l-2.35,1.36c0.22-0.13,0.49-0.19,0.79-0.16l0.01,0c0.3,0.03,0.63,0.14,0.97,0.34l5.51,3.18c0.34,0.2,0.67,0.47,0.97,0.78
								c0,0,0,0,0,0C180.25,291.12,180.52,291.48,180.74,291.86z"/>
							<g>
								<path class="st1" d="M178.98,290.02c1.38,0.8,2.48,2.71,2.48,4.3l-0.14,50.22c-0.01,1.59-1.11,2.22-2.5,1.42l-5.51-3.18
									c-1.38-0.8-2.49-2.71-2.48-4.3l0.14-50.22c0-1.59,1.11-2.22,2.5-1.42L178.98,290.02z"/>
							</g>
						</g>
					</g>
					<g>
						<g>
							<path class="st1" d="M176.66,339.33c0.53,0.3,0.95,0.06,0.95-0.55v-1.94c0-0.6-0.43-1.35-0.95-1.65l-1.68-0.97
								c-0.53-0.3-0.95-0.06-0.95,0.55v1.94c0,0.61,0.43,1.35,0.95,1.65L176.66,339.33z"/>
							<path class="st0" d="M174.37,334.94v1.97c0,0.4,0.27,0.87,0.6,1.07l1.7,0.97c0.3,0.17,0.53,0.07,0.53-0.2
								c0.07-0.07,0.07-0.1,0.07-0.17v-1.93c0-0.4-0.27-0.87-0.6-1.07l-1.7-0.97c-0.03,0-0.07-0.03-0.07-0.03
								C174.61,334.44,174.37,334.61,174.37,334.94z"/>
							<path class="st11" d="M174.87,334.74v1.96c0,0.4,0.3,0.87,0.63,1.07l1.67,0.96h0.03c0.07-0.07,0.07-0.1,0.07-0.17v-1.93
								c0-0.4-0.27-0.87-0.6-1.07l-1.7-0.97c-0.03,0-0.07-0.03-0.07-0.03C174.87,334.61,174.87,334.68,174.87,334.74z"/>
						</g>
						<g>
							<path class="st1" d="M176.66,299.46c0.53,0.3,0.95,0.06,0.95-0.55v-1.94c0-0.6-0.43-1.35-0.95-1.65l-1.68-0.97
								c-0.53-0.3-0.95-0.06-0.95,0.55v1.94c0,0.61,0.43,1.35,0.95,1.65L176.66,299.46z"/>
							<path class="st0" d="M174.37,295.08v1.97c0,0.4,0.27,0.87,0.6,1.07l1.7,0.97c0.3,0.17,0.53,0.07,0.53-0.2
								c0.07-0.07,0.07-0.1,0.07-0.17v-1.93c0-0.4-0.27-0.87-0.6-1.07l-1.7-0.97c-0.03,0-0.07-0.03-0.07-0.03
								C174.61,294.58,174.37,294.74,174.37,295.08z"/>
							<path class="st11" d="M174.87,294.88v1.96c0,0.4,0.3,0.87,0.63,1.07l1.67,0.96h0.03c0.07-0.07,0.07-0.1,0.07-0.17v-1.93
								c0-0.4-0.27-0.87-0.6-1.07l-1.7-0.97c-0.03,0-0.07-0.03-0.07-0.03C174.87,294.74,174.87,294.81,174.87,294.88z"/>
						</g>
					</g>
				</g>
				<g>
					<g>
						<g class="st10">
							<path class="st9" d="M181.46,261l-0.14,16.91c0,0.39-0.07,0.73-0.2,1c0,0,0,0,0,0c-0.12,0.27-0.3,0.47-0.53,0.6l2.35-1.36
								c0.17-0.1,0.31-0.24,0.43-0.42c0.03-0.05,0.06-0.11,0.09-0.17c0,0,0-0.01,0.01-0.01l0,0c0.02-0.04,0.04-0.08,0.05-0.13
								c0.01-0.04,0.03-0.09,0.04-0.13c0.01-0.04,0.02-0.08,0.03-0.13c0.01-0.04,0.02-0.08,0.02-0.12c0.01-0.04,0.01-0.08,0.02-0.12
								c0-0.04,0.01-0.08,0.01-0.12c0-0.04,0.01-0.08,0.01-0.12c0-0.04,0-0.08,0-0.12c0,0,0-0.01,0-0.01l0.14-16.91L181.46,261z"/>
							<path class="st8" d="M180.74,258.55c0,0.01,0,0.01,0.01,0.01c0.22,0.39,0.4,0.79,0.52,1.21c0,0,0,0,0,0
								c0.12,0.41,0.19,0.83,0.19,1.23l2.35-1.36c0-0.04,0-0.08,0-0.12c0-0.04,0-0.08,0-0.12c0-0.04-0.01-0.08-0.01-0.12
								c0-0.04-0.01-0.08-0.01-0.12c0-0.04-0.01-0.08-0.02-0.13c-0.01-0.04-0.01-0.08-0.02-0.13c-0.01-0.04-0.02-0.09-0.03-0.13
								c-0.01-0.04-0.02-0.09-0.03-0.13c-0.01-0.04-0.02-0.09-0.04-0.13c-0.01-0.03-0.02-0.06-0.03-0.1l0-0.01
								c0-0.01-0.01-0.02-0.01-0.03c-0.01-0.04-0.03-0.09-0.04-0.13c-0.01-0.04-0.03-0.08-0.04-0.13c-0.01-0.04-0.03-0.08-0.05-0.12
								c-0.01-0.04-0.03-0.08-0.05-0.12c-0.02-0.04-0.03-0.08-0.05-0.12c-0.02-0.04-0.04-0.08-0.06-0.12
								c-0.02-0.04-0.04-0.09-0.06-0.13c-0.02-0.05-0.05-0.1-0.08-0.15c-0.03-0.06-0.06-0.11-0.09-0.17c0,0,0-0.01-0.01-0.01
								c-0.01-0.01-0.01-0.02-0.02-0.04c-0.06-0.1-0.12-0.2-0.18-0.29c-0.05-0.07-0.1-0.15-0.16-0.22c-0.04-0.05-0.07-0.1-0.11-0.14
								c-0.03-0.04-0.06-0.08-0.09-0.12c-0.03-0.04-0.06-0.08-0.1-0.11c-0.03-0.04-0.06-0.07-0.1-0.11
								c-0.01-0.01-0.02-0.02-0.03-0.03l0,0c-0.02-0.03-0.05-0.05-0.07-0.08c-0.04-0.03-0.07-0.07-0.11-0.1
								c-0.04-0.03-0.07-0.07-0.11-0.1c-0.04-0.03-0.07-0.07-0.11-0.1c-0.04-0.03-0.07-0.06-0.11-0.09
								c-0.04-0.03-0.07-0.06-0.11-0.08c-0.04-0.03-0.07-0.05-0.11-0.08c-0.04-0.02-0.07-0.05-0.11-0.07
								c-0.04-0.02-0.07-0.05-0.11-0.07c-0.01,0-0.02-0.01-0.02-0.01l-5.51-3.18c-0.03-0.01-0.05-0.03-0.08-0.05
								c-0.03-0.02-0.07-0.04-0.1-0.05c-0.03-0.02-0.07-0.03-0.1-0.05c-0.03-0.02-0.07-0.03-0.1-0.04c-0.03-0.01-0.07-0.03-0.1-0.04
								c-0.03-0.01-0.07-0.02-0.1-0.03c-0.03-0.01-0.07-0.02-0.1-0.03c-0.03-0.01-0.07-0.02-0.1-0.02
								c-0.04-0.01-0.07-0.01-0.11-0.02c-0.02,0-0.05-0.01-0.07-0.01c0,0,0,0-0.01,0c-0.01,0-0.02,0-0.03,0c-0.04,0-0.08,0-0.12,0
								c-0.04,0-0.09,0-0.13,0.01c-0.05,0-0.1,0.01-0.14,0.02c-0.06,0.01-0.12,0.03-0.17,0.05c-0.07,0.02-0.14,0.06-0.2,0.09
								l-2.35,1.36c0.22-0.13,0.49-0.19,0.79-0.16l0.01,0c0.3,0.03,0.63,0.14,0.97,0.34l5.51,3.18c0.34,0.2,0.67,0.47,0.97,0.78
								c0,0,0,0,0,0C180.25,257.8,180.52,258.16,180.74,258.55z"/>
							<g>
								<path class="st1" d="M178.98,256.7c1.38,0.8,2.48,2.71,2.48,4.3l-0.14,16.91c-0.01,1.59-1.11,2.22-2.5,1.42l-5.51-3.18
									c-1.38-0.8-2.49-2.71-2.48-4.3l0.14-16.91c0-1.59,1.11-2.22,2.5-1.42L178.98,256.7z"/>
							</g>
						</g>
					</g>
					<g>
						<g>
							<path class="st1" d="M176.66,274.32c0.53,0.3,0.95,0.06,0.95-0.55v-11.94c0-0.6-0.43-1.35-0.95-1.65l-1.68-0.97
								c-0.52-0.3-0.95-0.06-0.95,0.55v11.93c0,0.61,0.43,1.35,0.95,1.65L176.66,274.32z"/>
							<path class="st11" d="M174.37,259.94v11.96c0,0.4,0.27,0.87,0.6,1.07l1.7,0.96c0.3,0.17,0.53,0.07,0.53-0.2
								c0.07-0.07,0.07-0.1,0.07-0.17v-11.93c0-0.4-0.27-0.87-0.6-1.07l-1.7-0.97c-0.03,0-0.07-0.03-0.07-0.03
								C174.61,259.44,174.37,259.61,174.37,259.94z"/>
							<path class="st12" d="M174.87,259.74v11.96c0,0.4,0.3,0.87,0.63,1.07l1.67,0.96h0.03c0.07-0.07,0.07-0.1,0.07-0.17v-11.93
								c0-0.4-0.27-0.87-0.6-1.07l-1.7-0.97c-0.03,0-0.07-0.03-0.07-0.03C174.87,259.61,174.87,259.67,174.87,259.74z"/>
						</g>
					</g>
				</g>
			</g>
			<g>
				<path class="st8" d="M205.74,421.06c0.9,0.4,2.4,0.97,4.16,1.6C208.4,422.3,207,421.76,205.74,421.06z"/>
				<path class="st9" d="M229.19,388.25c-0.03,14.93-0.13,26.65-0.27,31.81h-0.03c-0.33,0.27-0.7,0.47-1.07,0.7
					c-2.66,1.53-6.06,2.43-9.53,2.66c0.03-2.9,0.13-15.12,0.23-31.85c3.66-0.23,7.06-1.2,9.69-2.7
					C228.56,388.65,228.89,388.48,229.19,388.25z"/>
				<path class="st8" d="M232.52,381.85v2.73c-0.63,1.3-1.7,2.53-3.17,3.56l-0.1,0.07c-0.03,0-0.03,0.03-0.07,0.03
					c-0.3,0.23-0.63,0.4-0.97,0.63c-2.63,1.5-6.03,2.46-9.69,2.7c-0.07,0.03-0.13,0.03-0.2,0.03c-0.63,0.07-1.27,0.07-1.93,0.07
					c-1.13,0-2.27-0.07-3.4-0.2c-1.2-0.17-2.27-0.36-3.26-0.6c-1.77-0.47-3.33-1.1-4.76-1.86l-0.23-0.13
					c-2.03-1.17-3.5-2.63-4.3-4.2v-2.83l0.03-122.43V246.8c0-8.86,7.16-32.75,15.99-32.75c0.23,0,0.43,0,0.67,0.03
					c8.53,1.13,15.32,24.09,15.32,32.71v12.56L232.52,381.85z"/>
				<path class="st1" d="M218.53,391.58c-0.1,16.73-0.2,28.95-0.23,31.85c-1.73,0.1-3.5,0.07-5.2-0.13
					c-1.07-0.17-2.13-0.34-3.17-0.6c0-0.03-0.03-0.03-0.03-0.03c-1.77-0.63-3.26-1.2-4.16-1.6c-0.13-0.06-0.27-0.1-0.37-0.17
					c-0.1-0.03-0.17-0.1-0.23-0.13c-3.16-1.8-4.7-4.2-4.7-6.56v-29.52c0.8,1.57,2.26,3.03,4.3,4.2l0.23,0.13
					c1.43,0.76,3,1.4,4.76,1.86c1,0.23,2.06,0.43,3.26,0.6c1.13,0.13,2.26,0.2,3.4,0.2c0.67,0,1.3,0,1.93-0.07
					C218.4,391.61,218.46,391.61,218.53,391.58z"/>
				<path class="st3" d="M219.4,253.63c0,2.43-0.03,6.5-0.07,11.76c0,0.27,0,0.57-0.03,0.83c-0.13,27.68-0.5,87.02-0.77,124.53
					c0.03,0.3,0,0.57,0,0.83c-0.07,0.03-0.13,0.03-0.2,0.03c-0.63,0.07-1.27,0.07-1.93,0.07c-1.13,0-2.27-0.07-3.4-0.2
					c-1.2-0.17-2.27-0.36-3.26-0.6c-1.77-0.47-3.33-1.1-4.76-1.86l-0.23-0.13c-2.03-1.17-3.5-2.63-4.3-4.2v-2.83l0.03-122.43V246.8
					c0-8.86,7.16-32.75,15.99-32.75c0.23,0,0.43,0,0.67,0.03c-0.03,0.07-0.03,0.3,0.03,0.6v0.03
					C217.33,218.05,219.53,233.27,219.4,253.63z"/>
				<path class="st4" d="M232.52,384.59v29.61c0,2.07-1.2,4.16-3.6,5.86c0.13-5.16,0.23-16.89,0.27-31.81
					c0.03,0,0.03-0.03,0.07-0.03l0.1-0.07C230.82,387.12,231.89,385.88,232.52,384.59z"/>
				<path class="st1" d="M232.52,381.85v2.73c-0.63,1.3-1.7,2.53-3.17,3.56l-0.1,0.07c-0.03,0-0.03,0.03-0.07,0.03v-1.03
					c0.13-41.28,0.03-105.87,0.1-124.36c0.03-0.37,0.03-0.73,0.03-1.07v-1.07c0.23-31.02-9.43-43.17-12.16-46.01v-0.03
					c-0.47-0.43-0.7-0.63-0.7-0.63c0.23,0,0.43,0,0.67,0.03c8.53,1.13,15.32,24.09,15.32,32.71v12.56L232.52,381.85z"/>
			</g>
			<g>
				<g>
					<path class="st1" d="M232.46,256.53v2.83c-0.6,1.27-1.67,2.43-3.1,3.46l-0.07,0.03l-0.03,0.03c-0.33,0.23-0.7,0.47-1.03,0.67
						c-2.43,1.4-5.56,2.33-8.93,2.67c-0.33,0.03-0.63,0.07-0.97,0.1c-0.63,0.03-1.27,0.07-1.93,0.07c-1.13,0-2.27-0.1-3.4-0.23
						c-1.17-0.13-2.27-0.37-3.26-0.6c-1.77-0.47-3.33-1.07-4.76-1.87l-0.23-0.13c-2.03-1.16-3.46-2.57-4.26-4.13v-2.9h0.1
						c0,2.37,1.63,4.6,4.56,6.3l0.2,0.1c1.4,0.8,2.9,1.37,4.56,1.8l0.13,0.07c0.87,0.2,1.93,0.4,3.06,0.53
						c1.7,0.23,3.43,0.27,5.2,0.17c0.33-0.03,0.7-0.07,1.03-0.1c3.2-0.33,6.16-1.23,8.46-2.57c0.37-0.2,0.73-0.43,1.07-0.7
						l0.13-0.07c0.13-0.1,0.23-0.17,0.33-0.27c1.97-1.5,3.03-3.36,3.03-5.26H232.46z"/>
				</g>
				<g>
					<path class="st4" d="M232.52,381.85v2.73c-0.63,1.3-1.7,2.53-3.17,3.56l-0.1,0.07c-0.03,0-0.03,0.03-0.07,0.03
						c-0.3,0.23-0.63,0.4-0.97,0.63c-2.63,1.5-6.03,2.46-9.69,2.7c-0.07,0.03-0.13,0.03-0.2,0.03c-0.63,0.07-1.27,0.07-1.93,0.07
						c-1.13,0-2.27-0.07-3.4-0.2c-1.2-0.17-2.27-0.36-3.26-0.6c-1.77-0.47-3.33-1.1-4.76-1.86l-0.23-0.13
						c-2.03-1.17-3.5-2.63-4.3-4.2v-2.83h0.13c0,2.36,1.63,4.6,4.56,6.29l0.23,0.13c1.36,0.77,2.86,1.33,4.53,1.77l0.1,0.03
						c0.9,0.23,1.93,0.43,3.1,0.57c1.7,0.23,3.43,0.27,5.2,0.13c0.07,0,0.17,0,0.23-0.03c3.46-0.2,6.76-1.16,9.26-2.6
						c0.4-0.23,0.77-0.43,1.07-0.7l0.13-0.07c0.07-0.07,0.13-0.1,0.2-0.17c2.03-1.53,3.16-3.43,3.16-5.36H232.52z"/>
				</g>
			</g>
			<g>
				<g>
					<path class="st4" d="M220.8,412.94v0.55v3.99v0.54c0.2,0,0.38-0.02,0.59-0.05c2.22-0.25,4.35-0.79,6.21-1.61
						c0.2-0.07,0.39-0.16,0.59-0.25v-0.66v-3.88v-0.66c-0.18,0.11-0.39,0.2-0.59,0.3c-1.84,0.84-3.97,1.41-6.21,1.66
						C221.18,412.92,221,412.94,220.8,412.94z M221.39,413.44c2.22-0.25,4.35-0.79,6.21-1.61v3.92c-1.84,0.84-3.97,1.41-6.21,1.66
						V413.44z"/>
					<path class="st4" d="M220.8,402.95v0.55v3.99v0.54c0.2,0,0.38-0.02,0.59-0.05c2.22-0.25,4.35-0.79,6.21-1.61
						c0.2-0.07,0.39-0.16,0.59-0.25v-0.66v-3.88v-0.66c-0.18,0.11-0.39,0.2-0.59,0.3c-1.84,0.84-3.97,1.41-6.21,1.66
						C221.18,402.93,221,402.95,220.8,402.95z M221.39,403.45c2.22-0.25,4.35-0.79,6.21-1.61v3.92c-1.84,0.84-3.97,1.41-6.21,1.66
						V403.45z"/>
					<path class="st4" d="M220.8,393.5v3.99v0.54c0.2,0,0.38-0.02,0.59-0.05c2.22-0.25,4.35-0.79,6.21-1.61
						c0.2-0.07,0.39-0.16,0.59-0.25v-0.66v-3.88v-0.66c-0.18,0.11-0.39,0.2-0.59,0.3c-1.84,0.84-3.97,1.41-6.21,1.66
						c-0.2,0.04-0.39,0.06-0.59,0.06V393.5L220.8,393.5z M227.6,391.84v3.92c-1.84,0.84-3.97,1.41-6.21,1.66v-3.97
						c0.04-0.01,0.07-0.01,0.11-0.01L227.6,391.84z M221.5,393.44c2.18-0.26,4.27-0.79,6.1-1.6L221.5,393.44z"/>
				</g>
				<g>
					<path class="st1" d="M220.8,339.65v0.54v3.99v0.55c0.2,0,0.38-0.02,0.59-0.05c2.22-0.25,4.35-0.79,6.21-1.61
						c0.2-0.07,0.39-0.16,0.59-0.25v-0.66v-3.88v-0.66c-0.18,0.11-0.39,0.2-0.59,0.29c-1.84,0.84-3.97,1.41-6.21,1.65
						C221.18,339.63,221,339.65,220.8,339.65z M221.39,340.15c2.22-0.25,4.35-0.79,6.21-1.61v3.92c-1.84,0.84-3.97,1.41-6.21,1.65
						V340.15z"/>
					<path class="st1" d="M220.8,299.68v0.54v3.99v0.55c0.2,0,0.38-0.02,0.59-0.05c2.22-0.25,4.35-0.79,6.21-1.61
						c0.2-0.07,0.39-0.16,0.59-0.25v-0.66v-3.88v-0.66c-0.18,0.11-0.39,0.2-0.59,0.29c-1.84,0.84-3.97,1.41-6.21,1.65
						C221.18,299.65,221,299.68,220.8,299.68z M221.39,300.18c2.22-0.25,4.35-0.79,6.21-1.61v3.92c-1.84,0.84-3.97,1.41-6.21,1.65
						V300.18z"/>
					<path class="st1" d="M220.8,319.67v0.54v3.99v0.55c0.2,0,0.38-0.02,0.59-0.05c2.22-0.25,4.35-0.79,6.21-1.61
						c0.2-0.07,0.39-0.16,0.59-0.25v-0.66v-3.88v-0.66c-0.18,0.11-0.39,0.2-0.59,0.29c-1.84,0.84-3.97,1.41-6.21,1.65
						C221.18,319.64,221,319.67,220.8,319.67z M221.39,320.16c2.22-0.25,4.35-0.79,6.21-1.61v3.92c-1.84,0.84-3.97,1.41-6.21,1.65
						V320.16z"/>
					<path class="st1" d="M220.8,279.69v0.54v3.99v0.55c0.2,0,0.38-0.02,0.59-0.05c2.22-0.25,4.35-0.79,6.21-1.61
						c0.2-0.07,0.39-0.16,0.59-0.25v-0.66v-3.88v-0.66c-0.18,0.11-0.39,0.2-0.59,0.29c-1.84,0.84-3.97,1.41-6.21,1.65
						C221.18,279.67,221,279.69,220.8,279.69z M221.39,280.19c2.22-0.25,4.35-0.79,6.21-1.61v3.92c-1.84,0.84-3.97,1.41-6.21,1.65
						V280.19z"/>
				</g>
			</g>
			<g>
				<g>
					<g class="st10">
						<path class="st9" d="M209.33,307.22l-0.14,50.22c0,0.39-0.07,0.73-0.2,1c0,0,0,0,0,0c-0.13,0.27-0.3,0.48-0.53,0.6l2.35-1.36
							c0.17-0.1,0.31-0.24,0.43-0.42c0.03-0.06,0.06-0.11,0.09-0.17c0-0.01,0-0.01,0-0.02c0,0,0,0,0,0
							c0.02-0.04,0.04-0.08,0.05-0.12c0.01-0.04,0.03-0.09,0.04-0.13c0.01-0.04,0.02-0.08,0.03-0.13c0.01-0.04,0.02-0.08,0.02-0.12
							c0.01-0.04,0.01-0.08,0.02-0.12c0-0.04,0.01-0.08,0.01-0.12c0-0.04,0.01-0.08,0.01-0.12c0-0.04,0-0.08,0-0.12
							c0,0,0-0.01,0-0.01l0.14-50.23L209.33,307.22z"/>
						<path class="st8" d="M208.61,304.77c0,0,0,0.01,0.01,0.01c0.22,0.39,0.4,0.8,0.52,1.21l0,0c0.12,0.41,0.19,0.83,0.19,1.23
							l2.35-1.36c0-0.04,0-0.08,0-0.11c0-0.04,0-0.08-0.01-0.12c0-0.04-0.01-0.08-0.01-0.12c0-0.04-0.01-0.08-0.01-0.12
							c-0.01-0.04-0.01-0.08-0.02-0.13c-0.01-0.04-0.01-0.08-0.02-0.13c-0.01-0.04-0.02-0.09-0.03-0.13
							c-0.01-0.04-0.02-0.09-0.03-0.13c-0.01-0.04-0.02-0.09-0.03-0.13c-0.01-0.03-0.02-0.06-0.03-0.1c0,0,0-0.01,0-0.01
							c0-0.01-0.01-0.02-0.01-0.03c-0.01-0.04-0.03-0.09-0.04-0.13c-0.01-0.04-0.03-0.08-0.04-0.13c-0.01-0.04-0.03-0.08-0.05-0.12
							c-0.02-0.04-0.03-0.08-0.05-0.12c-0.02-0.04-0.03-0.08-0.05-0.12c-0.02-0.04-0.04-0.08-0.05-0.12
							c-0.02-0.04-0.04-0.09-0.06-0.13c-0.02-0.05-0.05-0.1-0.07-0.15c-0.03-0.06-0.06-0.11-0.09-0.17c0,0,0-0.01-0.01-0.01
							c-0.01-0.01-0.01-0.03-0.02-0.04c-0.06-0.1-0.12-0.2-0.18-0.29c-0.05-0.08-0.1-0.15-0.16-0.22c-0.04-0.05-0.07-0.1-0.11-0.14
							c-0.03-0.04-0.06-0.08-0.1-0.12c-0.03-0.04-0.06-0.07-0.1-0.11c-0.03-0.04-0.06-0.07-0.1-0.11c-0.01-0.01-0.02-0.02-0.03-0.03
							l0,0c-0.02-0.03-0.05-0.05-0.07-0.07c-0.04-0.04-0.07-0.07-0.11-0.1c-0.04-0.04-0.07-0.07-0.11-0.1
							c-0.04-0.03-0.07-0.06-0.11-0.1c-0.04-0.03-0.07-0.06-0.11-0.09c-0.04-0.03-0.07-0.06-0.11-0.08
							c-0.04-0.03-0.07-0.05-0.11-0.08c-0.04-0.02-0.07-0.05-0.11-0.07c-0.04-0.02-0.07-0.04-0.11-0.06c-0.01,0-0.02-0.01-0.02-0.01
							l-5.51-3.18c-0.03-0.01-0.05-0.03-0.08-0.04c-0.04-0.02-0.07-0.04-0.1-0.05c-0.03-0.02-0.07-0.03-0.1-0.05
							c-0.03-0.01-0.07-0.03-0.1-0.04c-0.03-0.01-0.07-0.03-0.1-0.04c-0.03-0.01-0.07-0.02-0.1-0.03c-0.03-0.01-0.07-0.02-0.1-0.03
							c-0.04-0.01-0.07-0.02-0.1-0.02c-0.04-0.01-0.07-0.01-0.11-0.02c-0.02,0-0.05-0.01-0.07-0.01c0,0,0,0,0,0
							c-0.01,0-0.03,0-0.04,0c-0.04,0-0.08-0.01-0.12-0.01c-0.04,0-0.09,0-0.13,0.01c-0.05,0-0.1,0.01-0.14,0.02
							c-0.06,0.01-0.12,0.03-0.17,0.05c-0.07,0.02-0.13,0.06-0.2,0.09l-2.35,1.36c0.23-0.13,0.49-0.19,0.79-0.16h0
							c0.3,0.03,0.63,0.14,0.98,0.34l5.51,3.18c0.34,0.2,0.67,0.47,0.97,0.78l0,0.01C208.12,304.03,208.38,304.38,208.61,304.77z"/>
						<g>
							<path class="st1" d="M206.85,302.92c1.38,0.8,2.49,2.71,2.48,4.3l-0.14,50.22c-0.01,1.59-1.11,2.22-2.5,1.42l-5.51-3.18
								c-1.38-0.8-2.48-2.71-2.48-4.3l0.14-50.22c0.01-1.59,1.11-2.22,2.5-1.42L206.85,302.92z"/>
						</g>
					</g>
				</g>
				<g>
					<g>
						<path class="st1" d="M204.53,352.23c0.53,0.31,0.95,0.06,0.95-0.55v-1.94c0-0.61-0.43-1.35-0.95-1.65l-1.68-0.97
							c-0.52-0.31-0.95-0.06-0.95,0.55v1.94c0,0.61,0.43,1.35,0.95,1.65L204.53,352.23z"/>
						<path class="st0" d="M202.24,347.85v1.97c0,0.4,0.27,0.87,0.6,1.07l1.7,0.97c0.3,0.17,0.53,0.07,0.53-0.2
							c0.07-0.07,0.07-0.1,0.07-0.17v-1.93c0-0.4-0.27-0.87-0.6-1.06l-1.7-0.97c-0.03,0-0.07-0.04-0.07-0.04
							C202.47,347.35,202.24,347.52,202.24,347.85z"/>
						<path class="st11" d="M202.74,347.65v1.96c0,0.4,0.3,0.87,0.63,1.06l1.67,0.97h0.03c0.07-0.07,0.07-0.1,0.07-0.17v-1.93
							c0-0.4-0.27-0.87-0.6-1.06l-1.7-0.97c-0.03,0-0.07-0.04-0.07-0.04C202.74,347.52,202.74,347.58,202.74,347.65z"/>
					</g>
					<g>
						<path class="st1" d="M204.53,312.37c0.53,0.3,0.95,0.06,0.95-0.55v-1.94c0-0.6-0.43-1.35-0.95-1.65l-1.68-0.97
							c-0.52-0.3-0.95-0.06-0.95,0.55v1.94c0,0.61,0.43,1.35,0.95,1.65L204.53,312.37z"/>
						<path class="st0" d="M202.24,307.98v1.97c0,0.4,0.27,0.87,0.6,1.07l1.7,0.97c0.3,0.17,0.53,0.07,0.53-0.2
							c0.07-0.07,0.07-0.1,0.07-0.17v-1.93c0-0.4-0.27-0.87-0.6-1.07l-1.7-0.97c-0.03,0-0.07-0.03-0.07-0.03
							C202.47,307.49,202.24,307.65,202.24,307.98z"/>
						<path class="st11" d="M202.74,307.78v1.96c0,0.4,0.3,0.87,0.63,1.07l1.67,0.97h0.03c0.07-0.07,0.07-0.1,0.07-0.17v-1.93
							c0-0.4-0.27-0.87-0.6-1.07l-1.7-0.97c-0.03,0-0.07-0.03-0.07-0.03C202.74,307.65,202.74,307.72,202.74,307.78z"/>
					</g>
				</g>
			</g>
			<g>
				<g>
					<g class="st10">
						<path class="st9" d="M209.33,273.91l-0.14,16.91c0,0.39-0.07,0.73-0.2,1c0,0,0,0,0,0c-0.13,0.27-0.3,0.47-0.53,0.6l2.35-1.36
							c0.17-0.1,0.31-0.24,0.43-0.42c0.03-0.05,0.06-0.11,0.09-0.17c0,0,0-0.01,0-0.01c0,0,0,0,0,0c0.02-0.04,0.04-0.08,0.05-0.13
							c0.01-0.04,0.03-0.09,0.04-0.13c0.01-0.04,0.02-0.08,0.03-0.13c0.01-0.04,0.02-0.08,0.02-0.12c0.01-0.04,0.01-0.08,0.02-0.12
							c0-0.04,0.01-0.08,0.01-0.12c0-0.04,0.01-0.08,0.01-0.12s0-0.08,0-0.12c0,0,0-0.01,0-0.01l0.14-16.91L209.33,273.91z"/>
						<path class="st8" d="M208.61,271.46c0,0,0,0.01,0.01,0.01c0.22,0.39,0.4,0.8,0.52,1.21l0,0c0.12,0.41,0.19,0.83,0.19,1.23
							l2.35-1.36c0-0.04,0-0.08,0-0.11c0-0.04,0-0.08-0.01-0.12c0-0.04-0.01-0.08-0.01-0.12c0-0.04-0.01-0.08-0.01-0.12
							c-0.01-0.04-0.01-0.08-0.02-0.13c-0.01-0.04-0.01-0.08-0.02-0.13c-0.01-0.04-0.02-0.09-0.03-0.13
							c-0.01-0.04-0.02-0.09-0.03-0.13c-0.01-0.04-0.02-0.09-0.03-0.13c-0.01-0.03-0.02-0.06-0.03-0.1c0,0,0-0.01,0-0.01
							c0-0.01-0.01-0.02-0.01-0.03c-0.01-0.04-0.03-0.09-0.04-0.13c-0.01-0.04-0.03-0.08-0.04-0.13c-0.01-0.04-0.03-0.08-0.05-0.12
							c-0.02-0.04-0.03-0.08-0.05-0.12c-0.02-0.04-0.03-0.08-0.05-0.12c-0.02-0.04-0.04-0.08-0.05-0.12
							c-0.02-0.04-0.04-0.09-0.06-0.13c-0.02-0.05-0.05-0.1-0.07-0.15c-0.03-0.06-0.06-0.11-0.09-0.17c0,0,0-0.01-0.01-0.01
							c-0.01-0.01-0.01-0.03-0.02-0.04c-0.06-0.1-0.12-0.2-0.18-0.29c-0.05-0.08-0.1-0.15-0.16-0.22c-0.04-0.05-0.07-0.1-0.11-0.14
							c-0.03-0.04-0.06-0.08-0.1-0.12c-0.03-0.04-0.06-0.07-0.1-0.11c-0.03-0.04-0.06-0.07-0.1-0.11c-0.01-0.01-0.02-0.02-0.03-0.03
							l0,0c-0.02-0.03-0.05-0.05-0.07-0.07c-0.04-0.04-0.07-0.07-0.11-0.1c-0.04-0.04-0.07-0.07-0.11-0.1
							c-0.04-0.03-0.07-0.06-0.11-0.1c-0.04-0.03-0.07-0.06-0.11-0.09c-0.04-0.03-0.07-0.06-0.11-0.08
							c-0.04-0.03-0.07-0.05-0.11-0.08c-0.04-0.02-0.07-0.05-0.11-0.07c-0.04-0.02-0.07-0.04-0.11-0.06c-0.01,0-0.02-0.01-0.02-0.01
							l-5.51-3.18c-0.03-0.01-0.05-0.03-0.08-0.04c-0.04-0.02-0.07-0.04-0.1-0.05c-0.03-0.02-0.07-0.03-0.1-0.05
							c-0.03-0.01-0.07-0.03-0.1-0.04c-0.03-0.01-0.07-0.03-0.1-0.04c-0.03-0.01-0.07-0.02-0.1-0.03c-0.03-0.01-0.07-0.02-0.1-0.03
							c-0.04-0.01-0.07-0.02-0.1-0.02c-0.04-0.01-0.07-0.01-0.11-0.02c-0.02,0-0.05-0.01-0.07-0.01c0,0,0,0,0,0
							c-0.01,0-0.03,0-0.04,0c-0.04,0-0.08-0.01-0.12-0.01c-0.04,0-0.09,0-0.13,0.01c-0.05,0-0.1,0.01-0.14,0.02
							c-0.06,0.01-0.12,0.03-0.17,0.05c-0.07,0.02-0.13,0.06-0.2,0.09l-2.35,1.36c0.23-0.13,0.49-0.19,0.79-0.16h0
							c0.3,0.03,0.63,0.14,0.98,0.34l5.51,3.18c0.34,0.2,0.67,0.47,0.97,0.78l0,0.01C208.12,270.71,208.38,271.07,208.61,271.46z"/>
						<g>
							<path class="st1" d="M206.85,269.61c1.38,0.8,2.49,2.71,2.48,4.3l-0.14,16.91c-0.01,1.59-1.11,2.22-2.5,1.42l-5.51-3.18
								c-1.38-0.8-2.48-2.71-2.48-4.3l0.14-16.91c0.01-1.59,1.11-2.22,2.5-1.42L206.85,269.61z"/>
						</g>
					</g>
				</g>
				<g>
					<g>
						<path class="st1" d="M204.53,287.23c0.53,0.3,0.95,0.06,0.95-0.55v-11.93c0-0.61-0.43-1.35-0.95-1.65l-1.68-0.97
							c-0.53-0.3-0.95-0.06-0.95,0.55v11.93c0,0.61,0.43,1.35,0.95,1.65L204.53,287.23z"/>
						<path class="st11" d="M202.24,272.85v11.96c0,0.4,0.27,0.87,0.6,1.07l1.7,0.97c0.3,0.17,0.53,0.07,0.53-0.2
							c0.07-0.07,0.07-0.1,0.07-0.17v-11.92c0-0.4-0.27-0.87-0.6-1.07l-1.7-0.97c-0.03,0-0.07-0.03-0.07-0.03
							C202.48,272.35,202.24,272.52,202.24,272.85z"/>
						<path class="st12" d="M202.74,272.65v11.96c0,0.4,0.3,0.87,0.63,1.07l1.67,0.97h0.03c0.07-0.07,0.07-0.1,0.07-0.17v-11.92
							c0-0.4-0.27-0.87-0.6-1.07l-1.7-0.97c-0.03,0-0.07-0.03-0.07-0.03C202.74,272.52,202.74,272.58,202.74,272.65z"/>
					</g>
				</g>
			</g>
		</g>
	</g>
	<g>
		<g>
			<path class="st13" d="M292.67,413.76v2.77c0,2.17-1.43,4.34-4.3,5.99c-5.74,3.32-15.04,3.32-20.78,0
				c-2.87-1.65-4.3-3.83-4.3-5.99v-2.77c0,0.46,0.07,0.93,0.2,1.38c0.13,0.47,0.33,0.93,0.6,1.38c0.7,1.18,1.87,2.29,3.5,3.23
				c5.74,3.32,15.04,3.32,20.78,0c1.63-0.94,2.8-2.05,3.5-3.23c0.27-0.45,0.47-0.92,0.6-1.38
				C292.6,414.68,292.67,414.21,292.67,413.76z"/>
			<path class="st1" d="M292.47,415.14c-0.13,0.47-0.33,0.93-0.6,1.38c-0.7,1.18-1.87,2.29-3.5,3.23c-5.74,3.32-15.04,3.32-20.78,0
				c-1.63-0.94-2.8-2.05-3.5-3.23c-0.27-0.45-0.47-0.92-0.6-1.38c0.48-1.69,1.85-3.31,4.1-4.62c27.02-15.61-6.24-15.62,20.78,0
				C290.62,411.83,291.99,413.45,292.47,415.14z"/>
			<path class="st0" d="M292.67,413.76c0,0.46-0.07,0.93-0.2,1.38c-0.13,0.47-0.33,0.93-0.6,1.38c-0.7,1.18-1.87,2.29-3.5,3.23
				c-5.74,3.32-15.04,3.32-20.78,0c-1.63-0.94-2.8-2.05-3.5-3.23c-0.27-0.45-0.47-0.92-0.6-1.38c-0.13-0.46-0.2-0.92-0.2-1.38
				c0-2.17,1.43-13.57,4.3-15.22c0.28-0.16,0.57-0.31,0.87-0.46c2.81-1.39,6.32-2.07,9.8-2.03c3.3,0.04,6.58,0.71,9.24,2.03
				c0.29,0.14,0.59,0.3,0.87,0.46C291.23,400.19,292.67,411.58,292.67,413.76z"/>
		</g>
		<g>
			<g class="st10">
				<g>
					<polygon class="st14" points="296.83,381.29 295.52,380.52 295.25,285.28 296.56,286.05 					"/>
				</g>
				<g>
					<polygon class="st1" points="329.16,362.63 315.11,370.73 314.27,371.23 296.82,381.29 296.78,372.16 296.78,371.19 
						296.55,286.04 312.51,331.38 329.13,350.21 329.13,353.54 					"/>
				</g>
			</g>
		</g>
		<path class="st3" d="M300.62,394.91c0,3.27-2.17,6.56-6.5,9.1c-3.16,1.8-6.99,2.96-11.06,3.46c-7.13,0.87-14.86-0.3-20.39-3.46
			c-0.53-0.34-1.03-0.63-1.53-1c-3.33-2.33-5-5.23-5-8.09l0.03-28.82v-2.53l0.03-31.51v-2.43l0.03-31.65v-14.19
			c0-6.23,2.57-17.86,6.7-27.78l0.4-0.96c3.76-8.7,8.73-15.86,14.16-16.56c0.3-0.07,0.6-0.07,0.9-0.07
			c5.83,0,11.09,7.43,15.02,16.59c0.13,0.33,0.3,0.67,0.43,1c4.13,9.93,6.7,21.55,6.7,27.78v14.29l0.03,31.55c0,0,0,0,0,0.03v36.58
			c0,0,0,0,0,0.04L300.62,394.91z"/>
		<path class="st8" d="M300.62,394.92c0,3.28-2.17,6.57-6.51,9.08c-3.16,1.82-9.1,3.44-13.16,3.94c-0.01-0.01-0.01-0.01-0.01-0.01
			s0.37-83.63,0.18-115.71c-0.03-5.57-0.23-10.81-0.53-15.67c-0.02-0.27,2.07-1,2.05-1.27c-1.41-21.81-4.88-35.78-5.14-36.81
			c0.3-0.05,0.61-0.06,0.9-0.06c12.24,0,22.14,33.12,22.16,45.37L300.62,394.92z"/>
		<g>
			<g>
				<rect x="280.6" y="276.31" class="st1" width="0.83" height="30.53"/>
			</g>
			<path class="st0" d="M280.59,276.62c0,0,0.24-4.43,1.69-6.81c0.4-0.65,3.75-2.83,6.01-3.7c2.87-1.11,4.23-1.34,4.8-1.25
				c1.01,0.16,5.19,2.72,5.19,2.72l-17.04,9.84L280.59,276.62z"/>
			<path class="st8" d="M298.27,267.58c0,0,4.04,1.92,2.28,20.47c-1.76,18.54-10.63,25.81-10.63,25.81l-6.5-4.72l-2.19-31.71
				l3.65-3.26c3.4-3.04,7.51-5.18,11.95-6.24L298.27,267.58z"/>
			<g>
				
					<rect x="286.82" y="265" transform="matrix(0.4906 -0.8714 0.8714 0.4906 -88.857 388.1731)" class="st8" width="1.48" height="10.17"/>
			</g>
			<g>
				
					<rect x="292.73" y="261.86" transform="matrix(0.4904 -0.8715 0.8715 0.4904 -83.0899 391.7812)" class="st8" width="1.48" height="10.17"/>
			</g>
		</g>
		<g>
			<g>
				<path class="st1" d="M300.58,363.77v2.46c0,0,0,0,0,0.04c-1.1,2.13-3.1,4.06-5.86,5.66c-3.2,1.83-7.16,3.06-11.49,3.63
					c-1.63,0.17-3.23,0.26-4.83,0.26c-6.06,0-11.93-1.36-16.32-3.9c-0.47-0.27-1-0.6-1.5-0.97l-0.1-0.07c-2-1.4-3.46-3.03-4.3-4.8
					v-2.5c0.43,2.37,2.06,4.67,4.66,6.53l0.13,0.1c0.5,0.37,1.07,0.7,1.53,0.97c5.4,3.13,13.09,4.43,20.62,3.53
					c4.23-0.53,8.1-1.77,11.16-3.53C297.82,369.16,300.02,366.56,300.58,363.77z"/>
			</g>
			<g>
				<path class="st1" d="M300.58,329.65v2.46c-1.1,2.13-3.1,4.06-5.86,5.66c-3.2,1.83-7.16,3.1-11.49,3.63
					c-1.63,0.2-3.23,0.3-4.83,0.3c-6.06,0-11.93-1.37-16.32-3.93c-0.47-0.27-1-0.57-1.5-0.97l-0.1-0.03c-1.97-1.4-3.4-3-4.27-4.73
					v-2.4c0.5,2.33,2.1,4.53,4.63,6.36l0.13,0.07c0.5,0.4,1.07,0.73,1.53,1c5.4,3.1,13.13,4.43,20.62,3.5
					c4.23-0.5,8.1-1.73,11.16-3.5C297.82,335.05,300.02,332.45,300.58,329.65z"/>
			</g>
			<g>
				<path class="st1" d="M262.94,255.99c0.63,1.03,1.57,2,2.77,2.83l0.07,0.03c0.37,0.27,0.73,0.5,1.07,0.7
					c3.1,1.8,7.26,2.77,11.56,2.77c1.13,0,2.26-0.07,3.4-0.2c3.1-0.4,5.9-1.27,8.16-2.57c1.77-1.03,3.07-2.23,3.9-3.57
					c-0.13-0.33-0.3-0.67-0.43-1c-0.67,1.43-2,2.73-3.9,3.83c-2.13,1.23-4.86,2.1-7.83,2.47c-5.26,0.67-10.66-0.27-14.46-2.47
					c-0.3-0.2-0.7-0.4-1.03-0.67l-0.13-0.1c-1.23-0.9-2.17-1.93-2.73-3.03L262.94,255.99z"/>
			</g>
			<g>
				<path class="st1" d="M300.55,295.64c-0.6,2.73-2.77,5.3-6.26,7.3c-3.06,1.8-6.93,3-11.16,3.53c-7.5,0.93-15.22-0.4-20.62-3.53
					c-0.47-0.27-1.03-0.6-1.53-0.97l-0.13-0.1c-2.5-1.76-4.06-3.96-4.6-6.23v2.3v0.03c0.87,1.7,2.3,3.3,4.23,4.66l0.1,0.07
					c0.5,0.37,1.03,0.7,1.5,0.97c4.4,2.53,10.26,3.9,16.32,3.9c1.6,0,3.2-0.07,4.83-0.27c4.33-0.57,8.3-1.8,11.49-3.63
					c2.73-1.6,4.73-3.5,5.83-5.6v-0.03V295.64z"/>
			</g>
			<path class="st8" d="M273.27,326.15c-2.92-0.32-5.69-1.06-8.08-2.15c-0.27-0.12-0.53-0.24-0.77-0.38v0.85v5.04v0.86
				c0.27,0.12,0.5,0.24,0.77,0.32c2.42,1.06,5.19,1.77,8.08,2.09c0.27,0.03,0.5,0.06,0.77,0.06v-0.71v-5.19v-0.71
				C273.77,326.24,273.54,326.21,273.27,326.15z M273.27,332.04c-2.92-0.32-5.69-1.06-8.08-2.15v-5.1c2.42,1.06,5.19,1.77,8.08,2.09
				V332.04z"/>
			<path class="st8" d="M273.27,293.98c-2.92-0.32-5.69-1.06-8.08-2.15c-0.27-0.12-0.53-0.24-0.77-0.38v0.86v5.04v0.86
				c0.27,0.12,0.5,0.24,0.77,0.32c2.42,1.06,5.19,1.77,8.08,2.09c0.27,0.03,0.5,0.06,0.77,0.06v-0.71v-5.19v-0.71
				C273.77,294.07,273.54,294.04,273.27,293.98z M273.27,299.88c-2.92-0.33-5.69-1.06-8.08-2.15v-5.1c2.42,1.06,5.19,1.77,8.08,2.09
				V299.88z"/>
			<path class="st8" d="M273.27,317.3c-2.92-0.32-5.69-1.06-8.08-2.15c-0.27-0.12-0.53-0.24-0.77-0.38v0.86v5.04v0.86
				c0.27,0.12,0.5,0.24,0.77,0.32c2.42,1.06,5.19,1.77,8.08,2.09c0.27,0.03,0.5,0.06,0.77,0.06v-0.71v-5.19v-0.71
				C273.77,317.39,273.54,317.36,273.27,317.3z M273.27,323.2c-2.92-0.33-5.69-1.06-8.08-2.15v-5.1c2.42,1.06,5.19,1.77,8.08,2.09
				V323.2z"/>
		</g>
		<polygon class="st9" points="296.78,371.19 296.78,372.16 314.27,362.1 314.27,371.23 315.11,370.73 315.11,361.6 329.13,353.54 
			329.13,352.57 		"/>
		<g>
			<g class="st10">
				<g>
					<polygon class="st8" points="308.57,384.72 309.88,383.95 326.38,409.76 325.06,410.53 					"/>
				</g>
				<g>
					<polygon class="st1" points="325.06,410.53 326.38,409.76 326.35,422.18 325.03,422.95 					"/>
				</g>
				<g>
					<polygon class="st1" points="292.87,345.32 294.19,344.56 309.88,383.95 308.57,384.72 					"/>
				</g>
				<g>
					<polygon class="st3" points="325.07,410.54 325.07,413.3 325.03,422.96 307.58,412.87 306.74,412.4 292.72,404.31 
						292.75,394.68 292.75,393.75 292.89,345.31 308.58,384.72 					"/>
				</g>
			</g>
		</g>
		<path class="st0" d="M260.59,303.12c0.22,28.21-0.51,71.97,0.24,99.68c-3.32-2.34-4.68-5.01-4.68-7.89l0.07-111.13
			c0.01-11.95,9.43-43.76,21.26-45.31c0.3-0.05,0.61-0.06,0.9-0.06C278.39,238.4,260.19,253.04,260.59,303.12z"/>
		<g class="st10">
			<g>
				<polygon class="st0" points="228.68,421.71 227.36,420.95 227.32,408.52 228.64,409.28 				"/>
			</g>
			<g>
				<polygon class="st0" points="228.64,409.28 227.32,408.52 243.78,370.61 245.09,371.38 				"/>
			</g>
			<g>
				<polygon class="st0" points="245.09,371.38 243.78,370.61 259.41,307.03 260.73,307.8 				"/>
			</g>
			<g>
				<polygon class="st8" points="261.01,403.04 246.98,411.14 246.15,411.6 228.69,421.7 228.63,409.27 245.08,371.39 260.74,307.8 
					260.97,391.95 260.97,392.88 				"/>
			</g>
		</g>
		<g>
			<polygon class="st13" points="267.34,402.76 264.37,398.31 264.37,351.99 267.34,356.44 			"/>
		</g>
		<g>
			<polygon class="st15" points="236.3,403.18 238.12,400.72 257.15,389.73 255.32,392.19 			"/>
		</g>
		<g>
			<polygon class="st15" points="304.55,364.34 306.38,361.87 325.4,350.89 323.58,353.35 			"/>
		</g>
		<polygon class="st1" points="261.01,391.91 261.01,392.88 260.97,392.88 246.98,400.94 246.98,411.14 246.15,411.6 246.15,401.44 
			228.66,411.5 228.66,410.54 260.97,391.95 		"/>
		<polygon class="st1" points="325.07,412.34 325.07,413.3 307.58,403.24 307.58,412.87 306.74,412.4 306.74,402.74 292.75,394.68 
			292.72,394.68 292.72,393.71 292.75,393.75 		"/>
		<g>
			<g>
				<path class="st1" d="M290.56,281.32c-0.53,0.3-0.95,0.06-0.95-0.55v-1.94c0-0.61,0.43-1.35,0.95-1.65l1.68-0.97
					c0.53-0.3,0.95-0.06,0.95,0.55v1.94c0,0.61-0.43,1.35-0.95,1.65L290.56,281.32z"/>
				<path class="st0" d="M292.85,276.94v1.97c0,0.4-0.27,0.87-0.6,1.07l-1.7,0.97c-0.3,0.17-0.53,0.07-0.53-0.2
					c-0.07-0.07-0.07-0.1-0.07-0.17v-1.93c0-0.4,0.27-0.87,0.6-1.07l1.7-0.97c0.03,0,0.07-0.03,0.07-0.03
					C292.62,276.44,292.85,276.6,292.85,276.94z"/>
				<path class="st11" d="M292.35,276.74v1.96c0,0.4-0.3,0.87-0.63,1.07l-1.67,0.97h-0.03c-0.07-0.07-0.07-0.1-0.07-0.17v-1.93
					c0-0.4,0.27-0.87,0.6-1.07l1.7-0.97c0.03,0,0.07-0.03,0.07-0.03C292.35,276.6,292.35,276.67,292.35,276.74z"/>
			</g>
			<g>
				<path class="st1" d="M295.46,278.49c-0.53,0.3-0.95,0.06-0.95-0.55V276c0-0.61,0.43-1.35,0.95-1.65l1.68-0.97
					c0.53-0.3,0.95-0.06,0.95,0.55v1.94c0,0.61-0.43,1.35-0.95,1.65L295.46,278.49z"/>
				<path class="st0" d="M297.75,274.11v1.96c0,0.4-0.27,0.87-0.6,1.07l-1.7,0.97c-0.3,0.17-0.53,0.07-0.53-0.2
					c-0.07-0.07-0.07-0.1-0.07-0.17v-1.93c0-0.4,0.27-0.87,0.6-1.07l1.7-0.97c0.03,0,0.07-0.03,0.07-0.03
					C297.52,273.61,297.75,273.78,297.75,274.11z"/>
				<path class="st11" d="M297.25,273.91v1.97c0,0.4-0.3,0.87-0.63,1.07l-1.67,0.97h-0.03c-0.07-0.07-0.07-0.1-0.07-0.17v-1.93
					c0-0.4,0.27-0.87,0.6-1.07l1.7-0.97c0.03,0,0.07-0.03,0.07-0.03C297.25,273.78,297.25,273.84,297.25,273.91z"/>
			</g>
		</g>
	</g>
</g>
</svg>
