<?xml version="1.0" encoding="utf-8"?>
<!-- Generator: Adobe Illustrator 24.2.3, SVG Export Plug-In . SVG Version: 6.00 Build 0)  -->
<svg version="1.1" id="Layer_1" xmlns="http://www.w3.org/2000/svg" xmlns:xlink="http://www.w3.org/1999/xlink" x="0px" y="0px"
	 viewBox="0 0 512 512" style="enable-background:new 0 0 512 512;" xml:space="preserve">
<style type="text/css">
	.st0{fill:#F7B030;}
	.st1{fill:#E8E8E8;}
	.st2{fill:#CDCDCD;}
	.st3{fill:#333333;}
</style>
<g>
	<path class="st0" d="M310.5,283.6v57.1h-109v-57.1c0-148.1,54.5-197.4,54.5-197.4S310.5,135.5,310.5,283.6z"/>
	<path class="st1" d="M147.3,400.2V242.8c0-87.6,27.2-116.9,27.2-116.9s27.2,29.2,27.2,116.9v157.4H147.3z"/>
	<path class="st0" d="M147.3,400.2h27.2h27.2l6.6,25.6h-33.8h-33.8L147.3,400.2z"/>
	<path class="st1" d="M364.8,400.2V242.8c0-87.6-27.2-116.9-27.2-116.9s-27.2,29.2-27.2,116.9v157.4H364.8z"/>
	<path class="st0" d="M364.8,400.2h-27.2h-27.2l-6.6,25.6h33.8h33.8L364.8,400.2z"/>
	<path class="st1" d="M385.2,363.2v17.3H256c0,0,2.4-120.3,4.7-140.3c25.1,68.4,79.9,79.9,104,89.7c11.1,5,18.8,15.6,20.1,27.8
		C385.1,359.5,385.2,361.4,385.2,363.2L385.2,363.2z"/>
	<path class="st1" d="M256,380.6H126.8v-17.3c0-1.8,0.1-3.7,0.4-5.5c1.3-12.1,8.9-22.7,20.1-27.8c24.1-9.8,78.9-21.3,104-89.7
		C253.7,260.3,256,380.6,256,380.6L256,380.6z"/>
	<path class="st2" d="M283.2,380.6v-113c0-87.6-27.2-116.9-27.2-116.9s-27.2,29.2-27.2,116.9v113H283.2z"/>
	<path class="st1" d="M272.7,350.3c9.2,0,16.7,7.5,16.7,16.7v37l0,0H256l0,0v-37C256,357.7,263.5,350.3,272.7,350.3L272.7,350.3z"/>
	<path class="st1" d="M256,404h-33.4l0,0v-37c0-9.2,7.5-16.7,16.7-16.7s16.7,7.5,16.7,16.7L256,404L256,404z"/>
	<g>
		<path class="st3" d="M364.8,237.6c-2.9,0-5.2,2.3-5.2,5.2v14.7c0,2.9,2.3,5.2,5.2,5.2c2.9,0,5.2-2.3,5.2-5.2v-14.7
			C369.9,240,367.6,237.6,364.8,237.6z"/>
		<path class="st3" d="M369.9,326.7v-49.2c0-2.9-2.3-5.2-5.2-5.2c-2.9,0-5.2,2.3-5.2,5.2v45l-3.2-1.1c-14.3-4.7-28-11-40.8-18.9
			v-59.6c0-64.1,14.8-96.2,22-107.9c6.3,10.2,18.3,35.8,21.3,85c0.1,2.9,2.7,5,5.5,4.9c2.9-0.1,5-2.7,4.9-5.5
			c-4.2-70.7-26.8-95.9-27.8-96.9c-1-1-2.4-1.6-3.8-1.6s-2.8,0.6-3.8,1.6c-1,1-18.5,20.6-25.5,73.2C293.4,114.3,261.3,84,259.5,82.4
			c-2-1.8-4.9-1.8-6.9,0c-1.8,1.6-34,31.9-48.8,113.2c-7.1-52.6-24.7-72.2-25.5-73.2c-1-1-2.4-1.6-3.8-1.6c-1.4,0-2.8,0.6-3.8,1.6
			c-1.2,1.3-28.5,31.7-28.5,120.4v83.9c-12.8,7.5-20.6,21.3-20.4,36.2v17.7c0,2.9,2.3,5.2,5.2,5.2h15.3v13.7l-6.5,25
			c-0.7,2.7,1,5.6,3.7,6.3c0.4,0.1,0.9,0.1,1.3,0.1h30.9c2.9,0,5.2-2.3,5.2-5.2c0-2.9-2.3-5.2-5.2-5.2h-24.1l4-15.3h46.3l4,15.3
			h-6.9c-2.9,0-5.2,2.3-5.2,5.2c0,2.9,2.3,5.2,5.2,5.2l0,0h13.4c2.9,0,5.2-2.3,5.2-5.2c0-0.4-0.1-0.9-0.1-1.3l-6.5-25v-13.8h10.7
			v18.2c0,2.9,2.3,5.2,5.2,5.2h28.3v16.8c0,2.9,2.3,5.2,5.2,5.2c2.9,0,5.2-2.3,5.2-5.2v-16.6h28.2c2.9,0,5.2-2.3,5.2-5.2l0,0v-18.2
			h10.7v13.8l-6.5,25c-0.7,2.7,1,5.6,3.7,6.3c0.4,0.1,0.9,0.1,1.3,0.1h67.6c2.9,0,5.2-2.3,5.2-5.2c0-0.4-0.1-0.9-0.1-1.3l-6.5-25
			v-13.7h15.3c2.9,0,5.2-2.3,5.2-5.2v-17.8C390.5,347.9,382.7,334.2,369.9,326.7L369.9,326.7z M256,93.8
			c11.7,14,49.3,68.2,49.3,189.8v11.4c-6.2-4.9-11.9-10.5-17-16.5v-11c0-88.7-27.4-119.2-28.6-120.4c-2.1-2.1-5.5-2.1-7.5,0l0,0
			c-0.3,0.3-7.5,8.2-14.5,26.9c-1,2.7,0.4,5.7,3,6.6c2.7,1,5.7-0.4,6.6-3l0,0c2.3-6.3,5.2-12.4,8.6-18.2c7.2,11.7,22,43.5,22,108
			v78.3c-5.8-1.5-11.8-0.5-16.8,2.7v-17.6c0-2.9-2.3-5.2-5.2-5.2c-2.9,0-5.2,2.3-5.2,5.2v17.6c-5-3.2-11.1-4.1-16.8-2.7v-78.3
			c-0.2-22.1,1.9-44.1,6.3-65.7c0.7-2.8-1-5.5-3.8-6.3c-2.8-0.7-5.5,1-6.3,3.8c0,0.1,0,0.1-0.1,0.2c-4.7,22.4-6.9,45.1-6.6,67.9v11
			c-5.1,6.1-10.8,11.6-17,16.5v-11.4C206.7,162,244.3,107.8,256,93.8L256,93.8z M174.4,134.9c7.2,11.7,22,43.6,22,107.9v59.6
			c-12.8,7.8-26.5,14.2-40.8,18.9l-3.2,1.1v-79.7C152.4,178.8,167.3,146.6,174.4,134.9L174.4,134.9z M196.4,395h-44v-9.3h44V395z
			 M132,375.4V368h46.5c2.9,0,5.2-2.3,5.2-5.2c0-2.9-2.3-5.2-5.2-5.2h-46.1c1.3-10,7.6-18.7,16.8-23h0.1c2.8-1.2,6.2-2.4,9.8-3.7
			c15.8-5.2,30.9-12.3,45-21.2c0.1,0,0.1-0.1,0.1-0.1c0.1-0.1,0.3-0.1,0.4-0.3c0.1,0,0.1-0.1,0.1-0.1c6.8-4.6,13.1-9.8,18.9-15.6v58
			c-4,4.1-6.3,9.5-6.3,15.3v8.4L132,375.4z M227.7,380.6C227.8,380.6,227.8,380.6,227.7,380.6c0-0.1,0-0.1,0-0.1V367
			c0.1-6.3,5.3-11.4,11.7-11.4c6.2,0.1,11.2,5.1,11.4,11.4v31.8h-23.1L227.7,380.6L227.7,380.6z M261.2,398.8V367
			c0-6.3,5.2-11.5,11.5-11.5s11.5,5.2,11.5,11.5l0,0v13.5v0.1v0.1v18.2H261.2z M310.5,420.6l4-15.3h46.3l4,15.3H310.5z M359.6,395
			h-44v-9.2h44V395z M294.5,375.4V367c0-5.7-2.2-11.2-6.2-15.3v-58c5.8,5.8,12.1,11,18.8,15.6c0.1,0.1,0.1,0.1,0.2,0.1
			c0.1,0.1,0.3,0.2,0.4,0.3c0.1,0.1,0.1,0.1,0.2,0.1c14,8.9,29.2,16,44.9,21.1c3.6,1.3,7,2.5,9.9,3.7c9.2,4.3,15.5,12.9,16.8,23
			h-46.1c-2.9,0-5.2,2.3-5.2,5.2c0,2.9,2.3,5.2,5.2,5.2H380v7.4H294.5z"/>
		<path class="st3" d="M247.2,242.1h17.7c2.9,0,5.2-2.3,5.2-5.2s-2.3-5.2-5.2-5.2h-17.7c-2.9,0-5.2,2.3-5.2,5.2
			S244.3,242.1,247.2,242.1z"/>
	</g>
</g>
</svg>
