<?xml version="1.0" encoding="utf-8"?>
<!-- Generator: Adobe Illustrator 24.3.0, SVG Export Plug-In . SVG Version: 6.00 Build 0)  -->
<svg version="1.1" id="Layer_1" xmlns="http://www.w3.org/2000/svg" xmlns:xlink="http://www.w3.org/1999/xlink" x="0px" y="0px"
	 viewBox="0 0 500 500" style="enable-background:new 0 0 500 500;" xml:space="preserve">
<style type="text/css">
	.st0{enable-background:new    ;}
	.st1{clip-path:url(#SVGID_2_);enable-background:new    ;}
	.st2{fill:#C1C8DC;}
	.st3{clip-path:url(#SVGID_4_);enable-background:new    ;}
	.st4{fill:#B8BECC;}
	.st5{clip-path:url(#SVGID_6_);enable-background:new    ;}
	.st6{fill:#D8DFE9;}
	.st7{fill:#E8EEF4;}
	.st8{fill:#A4A9C2;}
	.st9{clip-path:url(#SVGID_8_);enable-background:new    ;}
	.st10{clip-path:url(#SVGID_10_);enable-background:new    ;}
	.st11{clip-path:url(#SVGID_12_);enable-background:new    ;}
	.st12{clip-path:url(#SVGID_14_);enable-background:new    ;}
	.st13{clip-path:url(#SVGID_18_);enable-background:new    ;}
	.st14{fill:#FFB700;}
	.st15{fill:#D8651B;}
	.st16{fill-rule:evenodd;clip-rule:evenodd;fill:#FB852A;}
	.st17{clip-path:url(#SVGID_22_);enable-background:new    ;}
	.st18{clip-path:url(#SVGID_24_);enable-background:new    ;}
	.st19{clip-path:url(#SVGID_26_);enable-background:new    ;}
	.st20{clip-path:url(#SVGID_28_);enable-background:new    ;}
	.st21{clip-path:url(#SVGID_30_);enable-background:new    ;}
	.st22{clip-path:url(#SVGID_32_);enable-background:new    ;}
	.st23{clip-path:url(#SVGID_34_);enable-background:new    ;}
	.st24{fill:#CBD3DB;}
	.st25{fill:#242A31;}
	.st26{clip-path:url(#SVGID_36_);enable-background:new    ;}
	.st27{clip-path:url(#SVGID_40_);enable-background:new    ;}
	.st28{clip-path:url(#SVGID_46_);enable-background:new    ;}
	.st29{fill-rule:evenodd;clip-rule:evenodd;fill:#E8EEF4;}
	.st30{fill-rule:evenodd;clip-rule:evenodd;fill:#242A31;}
	.st31{clip-path:url(#SVGID_50_);enable-background:new    ;}
	.st32{clip-path:url(#SVGID_52_);enable-background:new    ;}
	.st33{fill:#9498A3;}
	.st34{fill:#BDC3D0;}
</style>
<g id="shuttle_2_">
	<g>
		<g>
			<g class="st0">
				<g class="st0">
					<defs>
						<path id="SVGID_1_" class="st0" d="M306.06,317.25l-0.13,45.39c-0.01,2-1.32,3.99-3.94,5.52c-5.28,3.07-13.87,3.07-19.19,0
							c-2.68-1.54-4.01-3.57-4.01-5.6l0.13-45.39c-0.01,2.02,1.33,4.05,4.01,5.6c5.32,3.07,13.91,3.07,19.19,0
							C304.74,321.24,306.06,319.24,306.06,317.25z"/>
					</defs>
					<use xlink:href="#SVGID_1_"  style="overflow:visible;fill:#C1C8DC;"/>
					<clipPath id="SVGID_2_">
						<use xlink:href="#SVGID_1_"  style="overflow:visible;"/>
					</clipPath>
					<g class="st1">
						<path class="st2" d="M306.06,317.25l-0.13,45.39c0,1.34-0.6,2.68-1.78,3.88l0.13-45.39
							C305.47,319.93,306.06,318.59,306.06,317.25L306.06,317.25z"/>
						<path class="st2" d="M304.29,321.12l-0.13,45.39c-0.58,0.59-1.3,1.14-2.17,1.64c-0.9,0.53-1.91,0.96-2.97,1.31l0.13-45.39
							c1.07-0.35,2.07-0.78,2.97-1.31C302.98,322.26,303.71,321.71,304.29,321.12L304.29,321.12z"/>
						<path class="st2" d="M299.15,324.07l-0.13,45.39c-2.32,0.75-4.93,1.08-7.51,0.98l0.13-45.39
							C294.22,325.15,296.83,324.82,299.15,324.07L299.15,324.07z"/>
						<path class="st2" d="M291.64,325.05l-0.13,45.39c-2.39-0.09-4.74-0.55-6.8-1.37l0.13-45.39
							C286.89,324.5,289.25,324.96,291.64,325.05L291.64,325.05z"/>
						<path class="st2" d="M284.84,323.68l-0.13,45.39c-0.67-0.27-1.31-0.57-1.91-0.92c-2.68-1.54-4.01-3.57-4.01-5.6l0.13-45.39
							c-0.01,2.02,1.33,4.05,4.01,5.6C283.53,323.11,284.17,323.42,284.84,323.68L284.84,323.68z"/>
					</g>
				</g>
				<g>
					<path class="st2" d="M302.06,311.65c5.32,3.07,5.34,8.05,0.06,11.12c-5.28,3.07-13.87,3.07-19.19,0
						c-5.32-3.07-5.35-8.05-0.06-11.12C288.15,308.58,296.74,308.58,302.06,311.65z"/>
				</g>
			</g>
		</g>
		<g>
			<g class="st0">
				<g class="st0">
					<defs>
						<path id="SVGID_3_" class="st0" d="M306.06,332.74l5.84,19.2c-0.01,2.88-1.9,5.75-5.68,7.95c-7.61,4.42-19.98,4.42-27.63,0
							c-3.85-2.22-5.78-5.14-5.77-8.06l6.1-19.17c-0.01,2.02,1.33,4.05,4.01,5.6c5.32,3.07,13.91,3.07,19.19,0
							C304.74,336.74,306.06,334.74,306.06,332.74z"/>
					</defs>
					<use xlink:href="#SVGID_3_"  style="overflow:visible;fill:#B8BECC;"/>
					<clipPath id="SVGID_4_">
						<use xlink:href="#SVGID_3_"  style="overflow:visible;"/>
					</clipPath>
					<g class="st3">
						<path class="st4" d="M306.06,332.74l5.84,19.2c-0.01,1.93-0.86,3.86-2.56,5.58l-5.06-20.91
							C305.47,335.42,306.06,334.08,306.06,332.74L306.06,332.74z"/>
						<path class="st4" d="M304.29,336.62l5.06,20.91c-0.84,0.85-1.87,1.64-3.12,2.37c-1.3,0.76-2.74,1.38-4.28,1.88l-2.8-22.21
							c1.07-0.35,2.07-0.78,2.97-1.31C302.98,337.76,303.71,337.21,304.29,336.62L304.29,336.62z"/>
						<path class="st4" d="M299.15,339.57l2.8,22.21c-3.33,1.08-7.1,1.55-10.82,1.41l0.51-22.64
							C294.22,340.64,296.83,340.32,299.15,339.57L299.15,339.57z"/>
						<path class="st4" d="M291.64,340.55l-0.51,22.64c-3.44-0.13-6.83-0.79-9.79-1.97l3.5-22.04
							C286.89,340,289.25,340.45,291.64,340.55L291.64,340.55z"/>
						<path class="st4" d="M284.84,339.18l-3.5,22.04c-0.97-0.39-1.89-0.83-2.75-1.32c-3.85-2.22-5.78-5.14-5.77-8.06l6.1-19.17
							c-0.01,2.02,1.33,4.05,4.01,5.6C283.53,338.61,284.17,338.91,284.84,339.18L284.84,339.18z"/>
					</g>
				</g>
				<g>
					<path class="st4" d="M302.06,327.14c5.32,3.07,5.34,8.05,0.06,11.12c-5.28,3.07-13.87,3.07-19.19,0
						c-5.32-3.07-5.35-8.05-0.06-11.11C288.15,324.08,296.74,324.08,302.06,327.14z"/>
				</g>
			</g>
		</g>
		<g>
			<g class="st0">
				<g class="st0">
					<defs>
						<path id="SVGID_5_" class="st0" d="M306.06,285.84l-0.13,45.39c-0.01,2-1.32,3.99-3.94,5.52c-5.28,3.07-13.87,3.07-19.19,0
							c-2.68-1.54-4.01-3.57-4.01-5.6l0.13-45.39c-0.01,2.02,1.33,4.05,4.01,5.6c5.32,3.07,13.91,3.07,19.19,0
							C304.74,289.84,306.06,287.84,306.06,285.84z"/>
					</defs>
					<use xlink:href="#SVGID_5_"  style="overflow:visible;fill:#D8DFE9;"/>
					<clipPath id="SVGID_6_">
						<use xlink:href="#SVGID_5_"  style="overflow:visible;"/>
					</clipPath>
					<g class="st5">
						<path class="st6" d="M306.06,285.84l-0.13,45.39c0,1.34-0.6,2.68-1.78,3.88l0.13-45.39
							C305.47,288.52,306.06,287.18,306.06,285.84L306.06,285.84z"/>
						<path class="st6" d="M304.29,289.72l-0.13,45.39c-0.58,0.59-1.3,1.14-2.17,1.64c-0.9,0.53-1.91,0.96-2.97,1.31l0.13-45.39
							c1.07-0.35,2.07-0.78,2.97-1.31C302.98,290.86,303.71,290.31,304.29,289.72L304.29,289.72z"/>
						<path class="st7" d="M299.15,292.67l-0.13,45.39c-2.32,0.75-4.93,1.08-7.51,0.98l0.13-45.39
							C294.22,293.75,296.83,293.42,299.15,292.67L299.15,292.67z"/>
						<path class="st6" d="M291.64,293.65l-0.13,45.39c-2.39-0.09-4.74-0.55-6.8-1.37l0.13-45.39
							C286.89,293.1,289.25,293.56,291.64,293.65L291.64,293.65z"/>
						<path class="st6" d="M284.84,292.28l-0.13,45.39c-0.67-0.27-1.31-0.57-1.91-0.92c-2.68-1.54-4.01-3.57-4.01-5.6l0.13-45.39
							c-0.01,2.02,1.33,4.05,4.01,5.6C283.53,291.71,284.17,292.01,284.84,292.28L284.84,292.28z"/>
					</g>
				</g>
				<g>
					<path class="st8" d="M302.06,280.25c5.32,3.07,5.34,8.05,0.06,11.12c-5.28,3.07-13.87,3.07-19.19,0
						c-5.32-3.07-5.35-8.05-0.06-11.12C288.15,277.18,296.74,277.18,302.06,280.25z"/>
				</g>
			</g>
		</g>
		<g>
			<g class="st0">
				<g class="st0">
					<defs>
						<path id="SVGID_7_" class="st0" d="M306.06,239.36l-0.13,45.39c-0.01,2-1.32,3.99-3.94,5.52c-5.28,3.07-13.87,3.07-19.19,0
							c-2.68-1.54-4.01-3.57-4.01-5.6l0.13-45.39c-0.01,2.02,1.33,4.05,4.01,5.6c5.32,3.07,13.91,3.07,19.19,0
							C304.74,243.36,306.06,241.36,306.06,239.36z"/>
					</defs>
					<use xlink:href="#SVGID_7_"  style="overflow:visible;fill:#D8DFE9;"/>
					<clipPath id="SVGID_8_">
						<use xlink:href="#SVGID_7_"  style="overflow:visible;"/>
					</clipPath>
					<g class="st9">
						<path class="st6" d="M306.06,239.36l-0.13,45.39c0,1.34-0.6,2.68-1.78,3.88l0.13-45.39
							C305.47,242.04,306.06,240.7,306.06,239.36L306.06,239.36z"/>
						<path class="st6" d="M304.29,243.24l-0.13,45.39c-0.58,0.59-1.3,1.14-2.17,1.64c-0.9,0.53-1.91,0.96-2.97,1.31l0.13-45.39
							c1.07-0.35,2.07-0.78,2.97-1.31C302.98,244.38,303.71,243.83,304.29,243.24L304.29,243.24z"/>
						<path class="st7" d="M299.15,246.19l-0.13,45.39c-2.32,0.75-4.93,1.08-7.51,0.98l0.13-45.39
							C294.22,247.27,296.83,246.94,299.15,246.19L299.15,246.19z"/>
						<path class="st6" d="M291.64,247.17l-0.13,45.39c-2.39-0.09-4.74-0.55-6.8-1.37l0.13-45.39
							C286.89,246.62,289.25,247.07,291.64,247.17L291.64,247.17z"/>
						<path class="st6" d="M284.84,245.8l-0.13,45.39c-0.67-0.27-1.31-0.57-1.91-0.92c-2.68-1.54-4.01-3.57-4.01-5.6l0.13-45.39
							c-0.01,2.02,1.33,4.05,4.01,5.6C283.53,245.23,284.17,245.53,284.84,245.8L284.84,245.8z"/>
					</g>
				</g>
				<g>
					<path class="st8" d="M302.06,233.77c5.32,3.07,5.34,8.05,0.06,11.12s-13.87,3.07-19.19,0c-5.32-3.07-5.35-8.05-0.06-11.12
						C288.15,230.7,296.74,230.7,302.06,233.77z"/>
				</g>
			</g>
		</g>
		<g>
			<g class="st0">
				<g class="st0">
					<defs>
						<path id="SVGID_9_" class="st0" d="M306.06,192.92l-0.13,45.39c-0.01,2-1.32,3.99-3.94,5.52c-5.28,3.07-13.87,3.07-19.19,0
							c-2.68-1.54-4.01-3.57-4.01-5.6l0.13-45.39c-0.01,2.02,1.33,4.05,4.01,5.6c5.32,3.07,13.91,3.07,19.19,0
							C304.74,196.92,306.06,194.92,306.06,192.92z"/>
					</defs>
					<use xlink:href="#SVGID_9_"  style="overflow:visible;fill:#D8DFE9;"/>
					<clipPath id="SVGID_10_">
						<use xlink:href="#SVGID_9_"  style="overflow:visible;"/>
					</clipPath>
					<g class="st10">
						<path class="st6" d="M306.06,192.92l-0.13,45.39c0,1.34-0.6,2.68-1.78,3.88l0.13-45.39
							C305.47,195.6,306.06,194.26,306.06,192.92L306.06,192.92z"/>
						<path class="st6" d="M304.29,196.8l-0.13,45.39c-0.58,0.59-1.3,1.14-2.17,1.64c-0.9,0.53-1.91,0.96-2.97,1.31l0.13-45.39
							c1.07-0.35,2.07-0.78,2.97-1.31C302.98,197.94,303.71,197.39,304.29,196.8L304.29,196.8z"/>
						<path class="st7" d="M299.15,199.75l-0.13,45.39c-2.32,0.75-4.93,1.08-7.51,0.98l0.13-45.39
							C294.22,200.83,296.83,200.5,299.15,199.75L299.15,199.75z"/>
						<path class="st6" d="M291.64,200.73l-0.13,45.39c-2.39-0.09-4.74-0.55-6.8-1.37l0.13-45.39
							C286.89,200.18,289.25,200.64,291.64,200.73L291.64,200.73z"/>
						<path class="st6" d="M284.84,199.36l-0.13,45.39c-0.67-0.27-1.31-0.57-1.91-0.92c-2.68-1.54-4.01-3.57-4.01-5.6l0.13-45.39
							c-0.01,2.02,1.33,4.05,4.01,5.6C283.53,198.79,284.17,199.09,284.84,199.36L284.84,199.36z"/>
					</g>
				</g>
				<g>
					<path class="st8" d="M302.06,187.33c5.32,3.07,5.34,8.05,0.06,11.12s-13.87,3.07-19.19,0c-5.32-3.07-5.35-8.05-0.06-11.12
						C288.15,184.26,296.74,184.26,302.06,187.33z"/>
				</g>
			</g>
		</g>
		<g>
			<g class="st0">
				<g class="st0">
					<defs>
						<path id="SVGID_11_" class="st0" d="M306.06,146.44l-0.13,45.39c-0.01,2-1.32,3.99-3.94,5.52c-5.28,3.07-13.87,3.07-19.19,0
							c-2.68-1.54-4.01-3.57-4.01-5.6l0.13-45.39c-0.01,2.02,1.33,4.05,4.01,5.6c5.32,3.07,13.91,3.07,19.19,0
							C304.74,150.44,306.06,148.44,306.06,146.44z"/>
					</defs>
					<use xlink:href="#SVGID_11_"  style="overflow:visible;fill:#D8DFE9;"/>
					<clipPath id="SVGID_12_">
						<use xlink:href="#SVGID_11_"  style="overflow:visible;"/>
					</clipPath>
					<g class="st11">
						<path class="st6" d="M306.06,146.44l-0.13,45.39c0,1.34-0.6,2.68-1.78,3.88l0.13-45.39
							C305.47,149.12,306.06,147.78,306.06,146.44L306.06,146.44z"/>
						<path class="st6" d="M304.29,150.32l-0.13,45.39c-0.58,0.59-1.3,1.14-2.17,1.64c-0.9,0.53-1.91,0.96-2.97,1.31l0.13-45.39
							c1.07-0.35,2.07-0.78,2.97-1.31C302.98,151.46,303.71,150.91,304.29,150.32L304.29,150.32z"/>
						<path class="st7" d="M299.15,153.27l-0.13,45.39c-2.32,0.75-4.93,1.08-7.51,0.98l0.13-45.39
							C294.22,154.35,296.83,154.02,299.15,153.27L299.15,153.27z"/>
						<path class="st6" d="M291.64,154.25l-0.13,45.39c-2.39-0.09-4.74-0.55-6.8-1.37l0.13-45.39
							C286.89,153.7,289.25,154.16,291.64,154.25L291.64,154.25z"/>
						<path class="st6" d="M284.84,152.88l-0.13,45.39c-0.67-0.27-1.31-0.57-1.91-0.92c-2.68-1.54-4.01-3.57-4.01-5.6l0.13-45.39
							c-0.01,2.02,1.33,4.05,4.01,5.6C283.53,152.31,284.17,152.61,284.84,152.88L284.84,152.88z"/>
					</g>
				</g>
				<g>
					<path class="st8" d="M302.06,140.85c5.32,3.07,5.34,8.05,0.06,11.12c-5.28,3.07-13.87,3.07-19.19,0
						c-5.32-3.07-5.35-8.05-0.06-11.12C288.15,137.78,296.74,137.78,302.06,140.85z"/>
				</g>
			</g>
		</g>
		<g>
			<g class="st0">
				<g class="st0">
					<defs>
						<path id="SVGID_13_" class="st0" d="M296.63,116.22l9.37,29.36c-0.01,2-1.32,3.99-3.94,5.52c-5.28,3.07-13.87,3.07-19.19,0
							c-2.68-1.54-4.01-3.57-4.01-5.6l9.63-29.31c0,0.61,0.4,1.22,1.2,1.68c1.59,0.92,4.17,0.92,5.76,0
							C296.23,117.42,296.63,116.82,296.63,116.22z"/>
					</defs>
					<use xlink:href="#SVGID_13_"  style="overflow:visible;fill:#D8DFE9;"/>
					<clipPath id="SVGID_14_">
						<use xlink:href="#SVGID_13_"  style="overflow:visible;"/>
					</clipPath>
					<g class="st12">
						<path class="st6" d="M296.63,116.22l9.37,29.36c0,1.34-0.6,2.68-1.78,3.88l-8.13-32.08
							C296.45,117.02,296.63,116.62,296.63,116.22L296.63,116.22z"/>
						<path class="st6" d="M296.1,117.38l8.13,32.08c-0.58,0.59-1.3,1.14-2.17,1.64c-0.9,0.53-1.91,0.96-2.97,1.31l-4.53-34.14
							c0.32-0.1,0.62-0.23,0.89-0.39C295.71,117.72,295.92,117.56,296.1,117.38L296.1,117.38z"/>
						<path class="st7" d="M294.55,118.27l4.53,34.14c-2.32,0.75-4.93,1.08-7.51,0.98l0.73-34.82
							C293.07,118.59,293.86,118.49,294.55,118.27L294.55,118.27z"/>
						<path class="st6" d="M292.3,118.56l-0.73,34.82c-2.39-0.09-4.74-0.55-6.8-1.37l5.49-33.87
							C290.88,118.4,291.58,118.53,292.3,118.56L292.3,118.56z"/>
						<path class="st6" d="M290.26,118.15l-5.49,33.87c-0.67-0.27-1.31-0.57-1.91-0.92c-2.68-1.54-4.01-3.57-4.01-5.6l9.63-29.31
							c0,0.61,0.4,1.22,1.2,1.68C289.87,117.98,290.06,118.07,290.26,118.15L290.26,118.15z"/>
					</g>
				</g>
				<g>
					<path class="st7" d="M295.43,114.54c1.59,0.92,1.6,2.41,0.02,3.33c-1.58,0.92-4.16,0.92-5.76,0c-1.6-0.92-1.6-2.41-0.02-3.33
						C291.25,113.62,293.83,113.62,295.43,114.54z"/>
				</g>
			</g>
		</g>
	</g>
	<g>
		<g>
			<g>
				<g>
					<g>
						<defs>
							<path id="SVGID_15_" d="M279.55,155.02l-0.36,207.15c-0.02,5.52-3.65,11.04-10.9,15.25c-14.6,8.48-38.33,8.48-53.02,0
								c-7.39-4.27-11.09-9.87-11.07-15.47l0.36-207.15c-0.02,5.59,3.68,11.2,11.07,15.47c14.69,8.48,38.43,8.48,53.03,0
								C275.9,166.06,279.53,160.54,279.55,155.02z"/>
						</defs>
						<use xlink:href="#SVGID_15_"  style="overflow:visible;fill:#D8651B;"/>
						<clipPath id="SVGID_16_">
							<use xlink:href="#SVGID_15_"  style="overflow:visible;"/>
						</clipPath>
					</g>
				</g>
			</g>
			<g>
				<g class="st0">
					<g class="st0">
						<defs>
							<path id="SVGID_17_" class="st0" d="M279.55,155.02l-0.36,207.15c-0.02,5.52-3.65,11.04-10.9,15.25
								c-14.6,8.48-38.33,8.48-53.02,0c-7.39-4.27-11.09-9.87-11.07-15.47l0.36-207.15c-0.02,5.59,3.68,11.2,11.07,15.47
								c14.69,8.48,38.43,8.48,53.03,0C275.9,166.06,279.53,160.54,279.55,155.02z"/>
						</defs>
						<use xlink:href="#SVGID_17_"  style="overflow:visible;fill:#D8651B;"/>
						<clipPath id="SVGID_18_">
							<use xlink:href="#SVGID_17_"  style="overflow:visible;"/>
						</clipPath>
						<g class="st13">
							<path class="st14" d="M279.55,155.02l-0.36,207.15c-0.01,3.7-1.65,7.41-4.91,10.71l0.36-207.15
								C277.9,162.43,279.54,158.73,279.55,155.02L279.55,155.02z"/>
							<path class="st14" d="M274.64,165.73l-0.36,207.15c-1.6,1.62-3.6,3.15-5.98,4.54c-2.5,1.45-5.27,2.66-8.21,3.61l0.36-207.15
								c2.94-0.95,5.71-2.16,8.21-3.61C271.04,168.88,273.04,167.36,274.64,165.73L274.64,165.73z"/>
							<path class="st15" d="M260.44,173.88l-0.36,207.15c-6.4,2.08-13.63,2.98-20.76,2.7l0.36-207.15
								C246.81,176.86,254.04,175.96,260.44,173.88L260.44,173.88z"/>
							<path class="st15" d="M239.68,176.58l-0.36,207.15c-6.6-0.25-13.11-1.51-18.78-3.78l0.36-207.15
								C226.58,175.07,233.09,176.33,239.68,176.58L239.68,176.58z"/>
							<path class="st15" d="M220.9,172.81l-0.36,207.15c-1.85-0.74-3.62-1.58-5.27-2.54c-7.39-4.27-11.09-9.87-11.07-15.47
								l0.36-207.15c-0.02,5.59,3.68,11.2,11.07,15.47C217.28,171.22,219.04,172.07,220.9,172.81L220.9,172.81z"/>
						</g>
					</g>
					<g>
						<g>
							<path class="st15" d="M268.48,139.56c14.69,8.48,14.77,22.23,0.17,30.72s-38.33,8.48-53.03,0
								c-14.69-8.48-14.77-22.23-0.17-30.71C230.05,131.07,253.79,131.07,268.48,139.56z"/>
						</g>
					</g>
				</g>
			</g>
			<g>
				<g>
					<g>
						<defs>
							<path id="SVGID_19_" d="M279.55,155.02l-0.36,207.15c-0.02,5.52-3.65,11.04-10.9,15.25c-14.6,8.48-38.33,8.48-53.02,0
								c-7.39-4.27-11.09-9.87-11.07-15.47l0.36-207.15c-0.02,5.59,3.68,11.2,11.07,15.47c14.69,8.48,38.43,8.48,53.03,0
								C275.9,166.06,279.53,160.54,279.55,155.02z"/>
						</defs>
						<use xlink:href="#SVGID_19_"  style="overflow:visible;fill:#D8651B;"/>
						<clipPath id="SVGID_20_">
							<use xlink:href="#SVGID_19_"  style="overflow:visible;"/>
						</clipPath>
					</g>
				</g>
			</g>
		</g>
		<path class="st16" d="M279.55,154.44c-0.72-39.92-19.2-79.54-37.67-79.44c-18.5,0.1-36.64,40.32-37.32,79.8
			c3.33,11.04,18.58,19.85,37.32,19.85C260.62,174.66,276.22,165.48,279.55,154.44z"/>
	</g>
	<g>
		<g>
			<g class="st0">
				<g class="st0">
					<defs>
						<path id="SVGID_21_" class="st0" d="M211.41,371.79l-0.13,45.39c-0.01,2-1.32,3.99-3.94,5.52c-5.28,3.07-13.87,3.07-19.19,0
							c-2.68-1.54-4.01-3.57-4.01-5.6l0.13-45.39c-0.01,2.02,1.33,4.05,4.01,5.6c5.32,3.07,13.91,3.07,19.19,0
							C210.09,375.78,211.4,373.79,211.41,371.79z"/>
					</defs>
					<use xlink:href="#SVGID_21_"  style="overflow:visible;fill:#C1C8DC;"/>
					<clipPath id="SVGID_22_">
						<use xlink:href="#SVGID_21_"  style="overflow:visible;"/>
					</clipPath>
					<g class="st17">
						<path class="st2" d="M211.41,371.79l-0.13,45.39c0,1.34-0.6,2.68-1.78,3.88l0.13-45.39
							C210.81,374.47,211.4,373.13,211.41,371.79L211.41,371.79z"/>
						<path class="st2" d="M209.63,375.66l-0.13,45.39c-0.58,0.59-1.3,1.14-2.17,1.64c-0.9,0.53-1.91,0.96-2.97,1.31l0.13-45.39
							c1.07-0.35,2.07-0.78,2.97-1.31C208.33,376.8,209.05,376.25,209.63,375.66L209.63,375.66z"/>
						<path class="st2" d="M204.49,378.61L204.36,424c-2.32,0.75-4.93,1.08-7.51,0.98l0.13-45.39
							C199.56,379.69,202.18,379.36,204.49,378.61L204.49,378.61z"/>
						<path class="st2" d="M196.98,379.59l-0.13,45.39c-2.39-0.09-4.74-0.55-6.8-1.37l0.13-45.39
							C192.24,379.04,194.59,379.5,196.98,379.59L196.98,379.59z"/>
						<path class="st2" d="M190.18,378.22l-0.13,45.39c-0.67-0.27-1.31-0.57-1.91-0.92c-2.68-1.54-4.01-3.57-4.01-5.6l0.13-45.39
							c-0.01,2.02,1.33,4.05,4.01,5.6C188.87,377.65,189.51,377.96,190.18,378.22L190.18,378.22z"/>
					</g>
				</g>
				<g>
					<path class="st2" d="M207.4,366.19c5.32,3.07,5.34,8.05,0.06,11.12c-5.28,3.07-13.87,3.07-19.19,0
						c-5.32-3.07-5.35-8.05-0.06-11.12C193.49,363.12,202.09,363.12,207.4,366.19z"/>
				</g>
			</g>
		</g>
		<g>
			<g class="st0">
				<g class="st0">
					<defs>
						<path id="SVGID_23_" class="st0" d="M211.41,387.28l5.84,19.2c-0.01,2.88-1.9,5.75-5.68,7.95c-7.61,4.42-19.98,4.42-27.63,0
							c-3.85-2.22-5.78-5.14-5.77-8.06l6.1-19.17c-0.01,2.02,1.33,4.05,4.01,5.6c5.32,3.07,13.91,3.07,19.19,0
							C210.09,391.28,211.4,389.28,211.41,387.28z"/>
					</defs>
					<use xlink:href="#SVGID_23_"  style="overflow:visible;fill:#D8DFE9;"/>
					<clipPath id="SVGID_24_">
						<use xlink:href="#SVGID_23_"  style="overflow:visible;"/>
					</clipPath>
					<g class="st18">
						<path class="st6" d="M211.41,387.28l5.84,19.2c-0.01,1.93-0.86,3.86-2.56,5.58l-5.06-20.91
							C210.81,389.96,211.4,388.62,211.41,387.28L211.41,387.28z"/>
						<path class="st6" d="M209.63,391.16l5.06,20.91c-0.84,0.85-1.87,1.64-3.12,2.37c-1.3,0.76-2.74,1.38-4.28,1.88l-2.8-22.21
							c1.07-0.35,2.07-0.78,2.97-1.31C208.33,392.3,209.05,391.75,209.63,391.16L209.63,391.16z"/>
						<path class="st7" d="M204.49,394.11l2.8,22.21c-3.33,1.08-7.1,1.55-10.82,1.41l0.51-22.64
							C199.56,395.18,202.18,394.86,204.49,394.11L204.49,394.11z"/>
						<path class="st6" d="M196.98,395.09l-0.51,22.64c-3.44-0.13-6.83-0.79-9.79-1.97l3.5-22.04
							C192.24,394.54,194.59,394.99,196.98,395.09L196.98,395.09z"/>
						<path class="st6" d="M190.18,393.72l-3.5,22.04c-0.97-0.39-1.89-0.83-2.75-1.32c-3.85-2.22-5.78-5.14-5.77-8.06l6.1-19.17
							c-0.01,2.02,1.33,4.05,4.01,5.6C188.87,393.15,189.51,393.45,190.18,393.72L190.18,393.72z"/>
					</g>
				</g>
				<g>
					<path class="st8" d="M207.4,381.69c5.32,3.07,5.34,8.05,0.06,11.12c-5.28,3.07-13.87,3.07-19.19,0
						c-5.32-3.07-5.35-8.05-0.06-11.11C193.49,378.62,202.09,378.62,207.4,381.69z"/>
				</g>
			</g>
		</g>
		<g>
			<g class="st0">
				<g class="st0">
					<defs>
						<path id="SVGID_25_" class="st0" d="M211.41,340.38l-0.13,45.39c-0.01,2-1.32,3.99-3.94,5.52c-5.28,3.07-13.87,3.07-19.19,0
							c-2.68-1.54-4.01-3.57-4.01-5.6l0.13-45.39c-0.01,2.02,1.33,4.05,4.01,5.6c5.32,3.07,13.91,3.07,19.19,0
							C210.09,344.38,211.4,342.38,211.41,340.38z"/>
					</defs>
					<use xlink:href="#SVGID_25_"  style="overflow:visible;fill:#D8DFE9;"/>
					<clipPath id="SVGID_26_">
						<use xlink:href="#SVGID_25_"  style="overflow:visible;"/>
					</clipPath>
					<g class="st19">
						<path class="st6" d="M211.41,340.38l-0.13,45.39c0,1.34-0.6,2.68-1.78,3.88l0.13-45.39
							C210.81,343.06,211.4,341.72,211.41,340.38L211.41,340.38z"/>
						<path class="st6" d="M209.63,344.26l-0.13,45.39c-0.58,0.59-1.3,1.14-2.17,1.64c-0.9,0.53-1.91,0.96-2.97,1.31l0.13-45.39
							c1.07-0.35,2.07-0.78,2.97-1.31C208.33,345.4,209.05,344.85,209.63,344.26L209.63,344.26z"/>
						<path class="st7" d="M204.49,347.21l-0.13,45.39c-2.32,0.75-4.93,1.08-7.51,0.98l0.13-45.39
							C199.56,348.29,202.18,347.96,204.49,347.21L204.49,347.21z"/>
						<path class="st6" d="M196.98,348.19l-0.13,45.39c-2.39-0.09-4.74-0.55-6.8-1.37l0.13-45.39
							C192.24,347.64,194.59,348.1,196.98,348.19L196.98,348.19z"/>
						<path class="st6" d="M190.18,346.82l-0.13,45.39c-0.67-0.27-1.31-0.57-1.91-0.92c-2.68-1.54-4.01-3.57-4.01-5.6l0.13-45.39
							c-0.01,2.02,1.33,4.05,4.01,5.6C188.87,346.25,189.51,346.55,190.18,346.82L190.18,346.82z"/>
					</g>
				</g>
				<g>
					<path class="st8" d="M207.4,334.79c5.32,3.07,5.34,8.05,0.06,11.12c-5.28,3.07-13.87,3.07-19.19,0
						c-5.32-3.07-5.35-8.05-0.06-11.12C193.49,331.72,202.09,331.72,207.4,334.79z"/>
				</g>
			</g>
		</g>
		<g>
			<g class="st0">
				<g class="st0">
					<defs>
						<path id="SVGID_27_" class="st0" d="M211.41,293.9l-0.13,45.39c-0.01,2-1.32,3.99-3.94,5.52c-5.28,3.07-13.87,3.07-19.19,0
							c-2.68-1.54-4.01-3.57-4.01-5.6l0.13-45.39c-0.01,2.02,1.33,4.05,4.01,5.6c5.32,3.07,13.91,3.07,19.19,0
							C210.09,297.9,211.4,295.9,211.41,293.9z"/>
					</defs>
					<use xlink:href="#SVGID_27_"  style="overflow:visible;fill:#D8DFE9;"/>
					<clipPath id="SVGID_28_">
						<use xlink:href="#SVGID_27_"  style="overflow:visible;"/>
					</clipPath>
					<g class="st20">
						<path class="st6" d="M211.41,293.9l-0.13,45.39c0,1.34-0.6,2.68-1.78,3.88l0.13-45.39
							C210.81,296.58,211.4,295.24,211.41,293.9L211.41,293.9z"/>
						<path class="st6" d="M209.63,297.78l-0.13,45.39c-0.58,0.59-1.3,1.14-2.17,1.64c-0.9,0.53-1.91,0.96-2.97,1.31l0.13-45.39
							c1.07-0.35,2.07-0.78,2.97-1.31C208.33,298.92,209.05,298.37,209.63,297.78L209.63,297.78z"/>
						<path class="st7" d="M204.49,300.73l-0.13,45.39c-2.32,0.75-4.93,1.08-7.51,0.98l0.13-45.39
							C199.56,301.81,202.18,301.48,204.49,300.73L204.49,300.73z"/>
						<path class="st6" d="M196.98,301.71l-0.13,45.39c-2.39-0.09-4.74-0.55-6.8-1.37l0.13-45.39
							C192.24,301.16,194.59,301.62,196.98,301.71L196.98,301.71z"/>
						<path class="st6" d="M190.18,300.34l-0.13,45.39c-0.67-0.27-1.31-0.57-1.91-0.92c-2.68-1.54-4.01-3.57-4.01-5.6l0.13-45.39
							c-0.01,2.02,1.33,4.05,4.01,5.6C188.87,299.77,189.51,300.07,190.18,300.34L190.18,300.34z"/>
					</g>
				</g>
				<g>
					<path class="st8" d="M207.4,288.31c5.32,3.07,5.34,8.05,0.06,11.12c-5.28,3.07-13.87,3.07-19.19,0
						c-5.32-3.07-5.35-8.05-0.06-11.12C193.49,285.24,202.09,285.24,207.4,288.31z"/>
				</g>
			</g>
		</g>
		<g>
			<g class="st0">
				<g class="st0">
					<defs>
						<path id="SVGID_29_" class="st0" d="M211.41,247.47l-0.13,45.39c-0.01,2-1.32,3.99-3.94,5.52c-5.28,3.07-13.87,3.07-19.19,0
							c-2.68-1.54-4.01-3.57-4.01-5.6l0.13-45.39c-0.01,2.02,1.33,4.05,4.01,5.6c5.32,3.07,13.91,3.07,19.19,0
							C210.09,251.46,211.4,249.46,211.41,247.47z"/>
					</defs>
					<use xlink:href="#SVGID_29_"  style="overflow:visible;fill:#D8DFE9;"/>
					<clipPath id="SVGID_30_">
						<use xlink:href="#SVGID_29_"  style="overflow:visible;"/>
					</clipPath>
					<g class="st21">
						<path class="st6" d="M211.41,247.47l-0.13,45.39c0,1.34-0.6,2.68-1.78,3.88l0.13-45.39
							C210.81,250.14,211.4,248.81,211.41,247.47L211.41,247.47z"/>
						<path class="st6" d="M209.63,251.34l-0.13,45.39c-0.58,0.59-1.3,1.14-2.17,1.64c-0.9,0.53-1.91,0.96-2.97,1.31l0.13-45.39
							c1.07-0.35,2.07-0.78,2.97-1.31C208.33,252.48,209.05,251.93,209.63,251.34L209.63,251.34z"/>
						<path class="st7" d="M204.49,254.29l-0.13,45.39c-2.32,0.75-4.93,1.08-7.51,0.98l0.13-45.39
							C199.56,255.37,202.18,255.04,204.49,254.29L204.49,254.29z"/>
						<path class="st6" d="M196.98,255.27l-0.13,45.39c-2.39-0.09-4.74-0.55-6.8-1.37l0.13-45.39
							C192.24,254.72,194.59,255.18,196.98,255.27L196.98,255.27z"/>
						<path class="st6" d="M190.18,253.9l-0.13,45.39c-0.67-0.27-1.31-0.57-1.91-0.92c-2.68-1.54-4.01-3.57-4.01-5.6l0.13-45.39
							c-0.01,2.02,1.33,4.05,4.01,5.6C188.87,253.33,189.51,253.63,190.18,253.9L190.18,253.9z"/>
					</g>
				</g>
				<g>
					<path class="st8" d="M207.4,241.87c5.32,3.07,5.34,8.05,0.06,11.12c-5.28,3.07-13.87,3.07-19.19,0
						c-5.32-3.07-5.35-8.05-0.06-11.12C193.49,238.8,202.09,238.8,207.4,241.87z"/>
				</g>
			</g>
		</g>
		<g>
			<g class="st0">
				<g class="st0">
					<defs>
						<path id="SVGID_31_" class="st0" d="M211.41,200.98l-0.13,45.39c-0.01,2-1.32,3.99-3.94,5.52c-5.28,3.07-13.87,3.07-19.19,0
							c-2.68-1.54-4.01-3.57-4.01-5.6l0.13-45.39c-0.01,2.02,1.33,4.05,4.01,5.6c5.32,3.07,13.91,3.07,19.19,0
							C210.09,204.98,211.4,202.98,211.41,200.98z"/>
					</defs>
					<use xlink:href="#SVGID_31_"  style="overflow:visible;fill:#D8DFE9;"/>
					<clipPath id="SVGID_32_">
						<use xlink:href="#SVGID_31_"  style="overflow:visible;"/>
					</clipPath>
					<g class="st22">
						<path class="st6" d="M211.41,200.98l-0.13,45.39c0,1.34-0.6,2.68-1.78,3.88l0.13-45.39
							C210.81,203.66,211.4,202.33,211.41,200.98L211.41,200.98z"/>
						<path class="st6" d="M209.63,204.86l-0.13,45.39c-0.58,0.59-1.3,1.14-2.17,1.64c-0.9,0.53-1.91,0.96-2.97,1.31l0.13-45.39
							c1.07-0.35,2.07-0.78,2.97-1.31C208.33,206,209.05,205.45,209.63,204.86L209.63,204.86z"/>
						<path class="st7" d="M204.49,207.81l-0.13,45.39c-2.32,0.75-4.93,1.08-7.51,0.98l0.13-45.39
							C199.56,208.89,202.18,208.56,204.49,207.81L204.49,207.81z"/>
						<path class="st6" d="M196.98,208.79l-0.13,45.39c-2.39-0.09-4.74-0.55-6.8-1.37l0.13-45.39
							C192.24,208.24,194.59,208.7,196.98,208.79L196.98,208.79z"/>
						<path class="st6" d="M190.18,207.42l-0.13,45.39c-0.67-0.27-1.31-0.57-1.91-0.92c-2.68-1.54-4.01-3.57-4.01-5.6l0.13-45.39
							c-0.01,2.02,1.33,4.05,4.01,5.6C188.87,206.85,189.51,207.15,190.18,207.42L190.18,207.42z"/>
					</g>
				</g>
				<g>
					<path class="st8" d="M207.4,195.39c5.32,3.07,5.34,8.05,0.06,11.12c-5.28,3.07-13.87,3.07-19.19,0
						c-5.32-3.07-5.35-8.05-0.06-11.11C193.49,192.32,202.09,192.32,207.4,195.39z"/>
				</g>
			</g>
		</g>
		<g>
			<g class="st0">
				<g class="st0">
					<defs>
						<path id="SVGID_33_" class="st0" d="M201.97,170.76l9.37,29.36c-0.01,2-1.32,3.99-3.94,5.52c-5.28,3.07-13.87,3.07-19.19,0
							c-2.68-1.54-4.01-3.57-4.01-5.6l9.63-29.31c0,0.61,0.4,1.22,1.2,1.68c1.59,0.92,4.17,0.92,5.76,0
							C201.58,171.96,201.97,171.36,201.97,170.76z"/>
					</defs>
					<use xlink:href="#SVGID_33_"  style="overflow:visible;fill:#D8DFE9;"/>
					<clipPath id="SVGID_34_">
						<use xlink:href="#SVGID_33_"  style="overflow:visible;"/>
					</clipPath>
					<g class="st23">
						<path class="st6" d="M201.97,170.76l9.37,29.36c0,1.34-0.6,2.68-1.78,3.88l-8.13-32.08
							C201.79,171.56,201.97,171.16,201.97,170.76L201.97,170.76z"/>
						<path class="st6" d="M201.44,171.92l8.13,32.08c-0.58,0.59-1.3,1.14-2.17,1.64c-0.9,0.53-1.91,0.96-2.97,1.31l-4.53-34.14
							c0.32-0.1,0.62-0.23,0.89-0.39C201.05,172.26,201.27,172.1,201.44,171.92L201.44,171.92z"/>
						<path class="st7" d="M199.9,172.81l4.53,34.14c-2.32,0.75-4.93,1.08-7.51,0.98l0.73-34.82
							C198.42,173.13,199.2,173.03,199.9,172.81L199.9,172.81z"/>
						<path class="st6" d="M197.65,173.1l-0.73,34.82c-2.39-0.09-4.74-0.55-6.8-1.37l5.49-33.87
							C196.22,172.94,196.93,173.07,197.65,173.1L197.65,173.1z"/>
						<path class="st6" d="M195.61,172.69l-5.49,33.87c-0.67-0.27-1.31-0.57-1.91-0.92c-2.68-1.54-4.01-3.57-4.01-5.6l9.63-29.31
							c0,0.61,0.4,1.22,1.2,1.68C195.21,172.52,195.41,172.61,195.61,172.69L195.61,172.69z"/>
					</g>
				</g>
				<g>
					<path class="st7" d="M200.77,169.08c1.6,0.92,1.6,2.41,0.02,3.33c-1.58,0.92-4.16,0.92-5.76,0c-1.6-0.92-1.6-2.41-0.02-3.33
						C196.6,168.16,199.18,168.16,200.77,169.08z"/>
				</g>
			</g>
		</g>
	</g>
	<g>
		<g>
			<g class="st0">
				<g>
					<polygon class="st6" points="283.19,346.17 279.83,344.22 279.55,244.76 282.91,246.71 					"/>
				</g>
				<g>
					<polygon class="st24" points="282.91,246.71 279.55,244.76 280.54,244.19 283.9,246.14 					"/>
				</g>
				<g>
					<polygon class="st6" points="283.9,246.14 303.57,293.5 321.8,312.21 321.83,323.87 283.19,346.17 282.91,246.71 					"/>
				</g>
				<g>
					<polygon class="st25" points="283.16,336.47 283.19,346.17 321.83,323.87 321.8,314.17 					"/>
				</g>
			</g>
		</g>
		<g>
			<g class="st0">
				<g class="st0">
					<defs>
						<path id="SVGID_35_" class="st0" d="M283.74,353.17l9.32,33.62c-0.01,4.59-3.03,9.18-9.06,12.68
							c-12.14,7.05-31.88,7.05-44.1,0c-6.15-3.55-9.22-8.21-9.21-12.86l9.73-33.56c-0.01,3.23,2.12,6.47,6.39,8.93
							c8.48,4.9,22.19,4.9,30.62,0C281.64,359.54,283.73,356.36,283.74,353.17z"/>
					</defs>
					<use xlink:href="#SVGID_35_"  style="overflow:visible;fill:#D8DFE9;"/>
					<clipPath id="SVGID_36_">
						<use xlink:href="#SVGID_35_"  style="overflow:visible;"/>
					</clipPath>
					<g class="st26">
						<path class="st6" d="M283.74,353.17l9.32,33.62c-0.01,3.08-1.37,6.16-4.08,8.91l-8.07-36.34
							C282.79,357.44,283.74,355.31,283.74,353.17L283.74,353.17z"/>
						<path class="st6" d="M280.91,359.35l8.07,36.34c-1.33,1.35-2.99,2.62-4.98,3.77c-2.08,1.21-4.38,2.21-6.83,3l-4.47-38.41
							c1.7-0.55,3.3-1.25,4.74-2.09C278.83,361.17,279.98,360.29,280.91,359.35L280.91,359.35z"/>
						<path class="st7" d="M272.71,364.06l4.47,38.41c-5.32,1.73-11.34,2.47-17.27,2.25l0.81-39.1
							C264.84,365.78,269.01,365.26,272.71,364.06L272.71,364.06z"/>
						<path class="st6" d="M260.72,365.62l-0.81,39.1c-5.49-0.21-10.9-1.26-15.62-3.14l5.58-38.14
							C253.15,364.75,256.91,365.47,260.72,365.62L260.72,365.62z"/>
						<path class="st6" d="M249.87,363.44l-5.58,38.14c-1.54-0.61-3.01-1.32-4.38-2.11c-6.15-3.55-9.22-8.21-9.21-12.86l9.73-33.56
							c-0.01,3.23,2.12,6.47,6.39,8.93C247.78,362.52,248.8,363.01,249.87,363.44L249.87,363.44z"/>
					</g>
				</g>
				<g>
					<path class="st8" d="M277.35,344.24c8.48,4.9,8.53,12.84,0.1,17.74c-8.43,4.9-22.14,4.9-30.62,0s-8.53-12.84-0.1-17.74
						S268.87,339.34,277.35,344.24z"/>
				</g>
			</g>
		</g>
		<g>
			<g>
				<g>
					<defs>
						<path id="SVGID_37_" d="M284.36,258.07l-0.25,109.13c-0.01,3.91-2.58,7.82-7.72,10.8c-10.34,6.01-27.15,6.01-37.55,0
							c-5.24-3.02-7.85-6.99-7.84-10.95l0.25-109.13c-0.01,3.96,2.6,7.93,7.84,10.95c10.4,6.01,27.22,6.01,37.55,0
							C281.78,265.88,284.35,261.98,284.36,258.07z"/>
					</defs>
					<use xlink:href="#SVGID_37_"  style="overflow:visible;fill:#242A31;"/>
					<clipPath id="SVGID_38_">
						<use xlink:href="#SVGID_37_"  style="overflow:visible;"/>
					</clipPath>
				</g>
			</g>
			<g>
				<g class="st0">
					<g class="st0">
						<defs>
							<path id="SVGID_39_" class="st0" d="M284.36,258.07l-0.25,109.13c-0.01,3.91-2.58,7.82-7.72,10.8
								c-10.34,6.01-27.15,6.01-37.55,0c-5.24-3.02-7.85-6.99-7.84-10.95l0.25-109.13c-0.01,3.96,2.6,7.93,7.84,10.95
								c10.4,6.01,27.22,6.01,37.55,0C281.78,265.88,284.35,261.98,284.36,258.07z"/>
						</defs>
						<use xlink:href="#SVGID_39_"  style="overflow:visible;fill:#242A31;"/>
						<clipPath id="SVGID_40_">
							<use xlink:href="#SVGID_39_"  style="overflow:visible;"/>
						</clipPath>
						<g class="st27">
							<path class="st25" d="M284.36,258.07l-0.25,109.13c-0.01,2.62-1.17,5.24-3.48,7.59l0.25-109.13
								C283.19,263.31,284.35,260.69,284.36,258.07L284.36,258.07z"/>
							<path class="st25" d="M280.88,265.65l-0.25,109.13c-1.13,1.15-2.55,2.23-4.24,3.21c-1.77,1.03-3.73,1.88-5.82,2.56
								l0.25-109.13c2.09-0.68,4.05-1.53,5.82-2.56C278.33,267.88,279.75,266.8,280.88,265.65L280.88,265.65z"/>
							<g>
								<path class="st25" d="M256.12,273.34l-0.25,109.13c2.61,0.1,5.25-0.02,7.81-0.37V273
									C261.2,273.32,258.65,273.44,256.12,273.34z"/>
								<path class="st25" d="M270.83,271.43c-2.26,0.73-4.67,1.26-7.15,1.58V382.1c2.39-0.32,4.71-0.84,6.9-1.54L270.83,271.43z"/>
							</g>
							<path class="st25" d="M256.12,273.34l-0.25,109.13c-4.67-0.18-9.28-1.07-13.3-2.67l0.25-109.13
								C246.84,272.27,251.45,273.16,256.12,273.34L256.12,273.34z"/>
							<path class="st25" d="M242.82,270.66l-0.25,109.13c-1.31-0.52-2.56-1.12-3.73-1.8c-5.24-3.02-7.85-6.99-7.84-10.95
								l0.25-109.13c-0.01,3.96,2.6,7.93,7.84,10.95C240.26,269.54,241.51,270.14,242.82,270.66L242.82,270.66z"/>
						</g>
					</g>
					<g>
						<path class="st25" d="M276.52,247.11c10.4,6.01,10.46,15.75,0.12,21.75c-10.34,6.01-27.15,6.01-37.55,0
							c-10.4-6.01-10.46-15.75-0.12-21.75C249.3,241.11,266.12,241.11,276.52,247.11z"/>
					</g>
				</g>
			</g>
			<g>
				<g>
					<defs>
						<path id="SVGID_41_" d="M284.36,258.07l-0.25,109.13c-0.01,3.91-2.58,7.82-7.72,10.8c-10.34,6.01-27.15,6.01-37.55,0
							c-5.24-3.02-7.85-6.99-7.84-10.95l0.25-109.13c-0.01,3.96,2.6,7.93,7.84,10.95c10.4,6.01,27.22,6.01,37.55,0
							C281.78,265.88,284.35,261.98,284.36,258.07z"/>
					</defs>
					<use xlink:href="#SVGID_41_"  style="overflow:visible;fill:#242A31;"/>
					<clipPath id="SVGID_42_">
						<use xlink:href="#SVGID_41_"  style="overflow:visible;"/>
					</clipPath>
				</g>
			</g>
		</g>
		<g>
			<g>
				<g>
					<defs>
						<path id="SVGID_43_" d="M284.36,256.23l-0.25,109.13c-0.01,3.91-2.58,7.82-7.72,10.8c-10.34,6.01-27.15,6.01-37.55,0
							c-5.24-3.02-7.85-6.99-7.84-10.95l0.25-109.13c-0.01,3.96,2.6,7.93,7.84,10.95c10.4,6.01,27.22,6.01,37.55,0
							C281.78,264.05,284.35,260.14,284.36,256.23z"/>
					</defs>
					<clipPath id="SVGID_44_">
						<use xlink:href="#SVGID_43_"  style="overflow:visible;"/>
					</clipPath>
				</g>
			</g>
			<g>
				<g class="st0">
					<g class="st0">
						<defs>
							<path id="SVGID_45_" class="st0" d="M284.36,256.23l-0.25,109.13c-0.01,3.91-2.58,7.82-7.72,10.8
								c-10.34,6.01-27.15,6.01-37.55,0c-5.24-3.02-7.85-6.99-7.84-10.95l0.25-109.13c-0.01,3.96,2.6,7.93,7.84,10.95
								c10.4,6.01,27.22,6.01,37.55,0C281.78,264.05,284.35,260.14,284.36,256.23z"/>
						</defs>
						<use xlink:href="#SVGID_45_"  style="overflow:visible;fill:#D8DFE9;"/>
						<clipPath id="SVGID_46_">
							<use xlink:href="#SVGID_45_"  style="overflow:visible;"/>
						</clipPath>
						<g class="st28">
							<path class="st7" d="M284.36,256.23l-0.25,109.13c-0.01,2.62-1.17,5.24-3.48,7.59l0.25-109.13
								C283.19,261.47,284.35,258.85,284.36,256.23L284.36,256.23z"/>
							<path class="st7" d="M280.88,263.82l-0.25,109.13c-1.13,1.15-2.55,2.23-4.24,3.21c-1.77,1.03-3.73,1.88-5.82,2.56
								l0.25-109.13c2.09-0.68,4.05-1.53,5.82-2.56C278.33,266.05,279.75,264.97,280.88,263.82L280.88,263.82z"/>
							<g>
								<path class="st6" d="M256.12,271.5l-0.25,109.13c2.61,0.1,5.25-0.02,7.81-0.37V271.17
									C261.2,271.49,258.65,271.6,256.12,271.5z"/>
								<path class="st7" d="M270.83,269.59c-2.26,0.73-4.67,1.26-7.15,1.58v109.09c2.39-0.32,4.71-0.84,6.9-1.54L270.83,269.59z"/>
							</g>
							<path class="st6" d="M256.12,271.5l-0.25,109.13c-4.67-0.18-9.28-1.07-13.3-2.67l0.25-109.13
								C246.84,270.43,251.45,271.32,256.12,271.5L256.12,271.5z"/>
							<path class="st6" d="M242.82,268.83l-0.25,109.13c-1.31-0.52-2.56-1.12-3.73-1.8c-5.24-3.02-7.85-6.99-7.84-10.95
								l0.25-109.13c-0.01,3.96,2.6,7.93,7.84,10.95C240.26,267.71,241.51,268.3,242.82,268.83L242.82,268.83z"/>
						</g>
					</g>
					<g>
						<path class="st8" d="M276.52,245.28c10.4,6.01,10.46,15.75,0.12,21.75c-10.34,6.01-27.15,6.01-37.55,0
							c-10.4-6.01-10.46-15.75-0.12-21.75C249.3,239.27,266.12,239.27,276.52,245.28z"/>
					</g>
				</g>
			</g>
			<g>
				<g>
					<defs>
						<path id="SVGID_47_" d="M284.36,256.23l-0.25,109.13c-0.01,3.91-2.58,7.82-7.72,10.8c-10.34,6.01-27.15,6.01-37.55,0
							c-5.24-3.02-7.85-6.99-7.84-10.95l0.25-109.13c-0.01,3.96,2.6,7.93,7.84,10.95c10.4,6.01,27.22,6.01,37.55,0
							C281.78,264.05,284.35,260.14,284.36,256.23z"/>
					</defs>
					<clipPath id="SVGID_48_">
						<use xlink:href="#SVGID_47_"  style="overflow:visible;"/>
					</clipPath>
				</g>
			</g>
		</g>
		<path class="st29" d="M284.36,257.93c-2.36,7.82-13.41,14.32-26.68,14.32c-13.27,0-24.07-6.24-26.43-14.06
			c0.26-15.11,4.13-27.43,9.69-35.59c4.74-6.94,10.71-10.86,16.74-10.89c5.48-0.03,10.96,3.11,15.51,8.85
			C279.52,228.53,284.06,241.5,284.36,257.93z"/>
		<path class="st30" d="M273.19,220.56c-0.89,0.97-2.05,1.89-3.47,2.71c-7.65,4.42-20.05,4.42-27.69,0
			c-0.38-0.22-0.74-0.44-1.08-0.67c4.74-6.94,10.71-10.86,16.74-10.89C263.16,211.69,268.64,214.83,273.19,220.56z"/>
		<g>
			<g class="st0">
				<g>
					<polygon class="st6" points="200.84,393.73 197.48,391.78 197.44,380.13 200.8,382.08 					"/>
				</g>
				<g>
					<polygon class="st6" points="200.8,382.08 197.44,380.13 215.51,340.46 218.87,342.41 					"/>
				</g>
				<g>
					<polygon class="st6" points="218.87,342.41 215.51,340.46 234.84,270.58 238.2,272.53 					"/>
				</g>
				<g>
					<polygon class="st24" points="238.2,272.53 234.84,270.58 235.83,270 239.19,271.96 					"/>
				</g>
				<g>
					<polygon class="st7" points="239.19,271.96 239.47,371.42 200.84,393.73 200.8,382.08 218.87,342.41 238.2,272.53 					"/>
				</g>
				<g>
					<polygon class="st25" points="200.81,384.02 200.84,393.73 239.47,371.42 239.45,361.71 					"/>
				</g>
			</g>
		</g>
		<g>
			<g class="st0">
				<g>
					<polygon class="st6" points="263.68,378.9 255.87,374.36 256.09,272.21 263.89,276.75 					"/>
				</g>
				<g class="st0">
					<defs>
						<path id="SVGID_49_" class="st0" d="M278.97,248.16l7.81,4.54c-2.44-1.42-5.82-1.23-9.52,0.91l-7.81-4.54
							C273.15,246.93,276.53,246.74,278.97,248.16z"/>
					</defs>
					<clipPath id="SVGID_50_">
						<use xlink:href="#SVGID_49_"  style="overflow:visible;"/>
					</clipPath>
					<g class="st31">
						<path class="st25" d="M277.25,253.61l-7.81-4.54c1.41-0.81,2.77-1.34,4.05-1.61l7.81,4.54
							C280.02,252.27,278.66,252.8,277.25,253.61L277.25,253.61z"/>
						<path class="st25" d="M281.3,252l-7.81-4.54c1.98-0.42,3.77-0.2,5.24,0.57l7.81,4.54C285.06,251.79,283.28,251.58,281.3,252
							L281.3,252z"/>
						<path class="st6" d="M286.54,252.57l-7.81-4.54c0.08,0.04,0.16,0.09,0.24,0.13l7.81,4.54
							C286.7,252.65,286.62,252.61,286.54,252.57L286.54,252.57z"/>
					</g>
				</g>
				<g class="st0">
					<defs>
						<path id="SVGID_51_" class="st0" d="M263.89,276.75l-7.81-4.54c-0.02-8.47,5.99-18.88,13.36-23.14l7.81,4.54
							C269.88,257.87,263.87,268.28,263.89,276.75z"/>
					</defs>
					<clipPath id="SVGID_52_">
						<use xlink:href="#SVGID_51_"  style="overflow:visible;"/>
					</clipPath>
					<g class="st32">
						<path class="st25" d="M263.89,276.75l-7.81-4.54c-0.01-3.24,0.86-6.76,2.36-10.12l7.81,4.54
							C264.76,269.98,263.88,273.51,263.89,276.75L263.89,276.75z"/>
						<path class="st25" d="M266.25,266.63l-7.81-4.54c1.17-2.63,2.73-5.16,4.54-7.36l7.81,4.54
							C268.98,261.47,267.43,264,266.25,266.63L266.25,266.63z"/>
						<path class="st25" d="M270.79,259.27l-7.81-4.54c1.92-2.33,4.12-4.31,6.46-5.66l7.81,4.54
							C274.91,254.96,272.71,256.94,270.79,259.27L270.79,259.27z"/>
					</g>
				</g>
				<g>
					<path class="st7" d="M277.25,253.61c7.37-4.26,13.42-0.81,13.44,7.66l-0.22,104.56l-26.8,13.07l0.22-102.15
						C263.87,268.28,269.88,257.87,277.25,253.61z"/>
				</g>
			</g>
		</g>
		<g>
			<g class="st0">
				<g>
					<polygon class="st33" points="314.53,390.15 317.89,388.2 317.83,394.82 314.47,396.77 					"/>
				</g>
				<g>
					<polygon class="st4" points="293.53,338.58 296.89,336.63 317.89,388.2 314.53,390.15 					"/>
				</g>
				<g>
					<polygon class="st34" points="277.71,320.86 281.06,318.91 296.89,336.63 293.53,338.58 					"/>
				</g>
				<g>
					<polygon class="st6" points="277.71,320.86 293.53,338.58 314.53,390.15 314.47,396.77 277.38,375.2 					"/>
				</g>
			</g>
		</g>
	</g>
</g>
</svg>
