<?xml version="1.0" encoding="utf-8"?>
<!-- Generator: Adobe Illustrator 24.2.3, SVG Export Plug-In . SVG Version: 6.00 Build 0)  -->
<svg version="1.1" id="Layer_1" xmlns="http://www.w3.org/2000/svg" xmlns:xlink="http://www.w3.org/1999/xlink" x="0px" y="0px"
	 viewBox="0 0 500 500" style="enable-background:new 0 0 500 500;" xml:space="preserve">
<style type="text/css">
	.st0{fill:#2C4E59;}
	.st1{fill:#7198A6;}
	.st2{fill:#F5CE7D;}
	.st3{fill:#C6E4EC;}
	.st4{fill:#16353D;}
	.st5{fill:#87B6C7;}
	.st6{fill:#36606E;}
	.st7{fill:#406A78;}
</style>
<g>
	<g>
		<rect x="248.9" y="282.8" class="st0" width="2.1" height="81.4"/>
	</g>
	<g>
		<g>
			<path class="st0" d="M288.8,296.1l-0.1-4.2c23.5-0.8,36.2-2.1,42.1-3.2c-10.5-1.8-39-3.8-80.8-3.8c-41.9,0-70.4,1.9-80.9,3.8
				c5.8,1,18,2.3,40.5,3.1l-0.2,4.2c-48.3-1.7-48.3-5-48.3-7.3c0-2.2,0-4.4,27.3-6.3c16.4-1.1,38.2-1.7,61.4-1.7s45,0.6,61.4,1.7
				c27.3,1.9,27.3,4.1,27.3,6.3C338.7,291,338.7,294.4,288.8,296.1z"/>
		</g>
	</g>
	<g>
		<ellipse class="st1" cx="250" cy="371.6" rx="88.7" ry="8.5"/>
	</g>
	<g>
		<g>
			<rect x="316.2" y="293" class="st0" width="2.1" height="84.8"/>
		</g>
		<g>
			<rect x="181.7" y="293" class="st0" width="2.1" height="84.8"/>
		</g>
	</g>
	<path class="st2" d="M338.7,128.4c0,4.7-39.7,8.5-88.7,8.5s-88.7-3.8-88.7-8.5c0-4.7,39.7-8.5,88.7-8.5
		C299,119.8,338.7,123.7,338.7,128.4z"/>
	<path class="st3" d="M250,119.8c-49,0-88.7,3.8-88.7,8.5v243.3c0,4.7,39.7,8.5,88.7,8.5s88.7-3.8,88.7-8.5V128.4
		C338.7,123.7,299,119.8,250,119.8z"/>
	<path class="st4" d="M250,119.8c-49,0-88.7,3.8-88.7,8.5v60.2c71.9-49.6,142.5-44.3,177.4-37v-23.2
		C338.7,123.7,299,119.8,250,119.8z"/>
	<rect x="214.2" y="217.2" class="st5" width="71.6" height="10.6"/>
	<polygon class="st0" points="250,227.8 214.2,227.8 220.7,234.3 250,234.3 279.3,234.3 285.8,227.8 	"/>
	<path class="st6" d="M220.7,379.7V234.3l-6.5-6.5v151.6C216.3,379.5,218.5,379.6,220.7,379.7z"/>
	<path class="st7" d="M279.3,379.7V234.3l6.5-6.5v151.6C283.7,379.5,281.5,379.6,279.3,379.7z"/>
	<path class="st1" d="M338.7,128.4v-19.9c0-4.7-39.7-8.5-88.7-8.5s-88.7,3.8-88.7,8.5v19.9c0-3,16.7-5.7,41.8-7.2v257.7
		c-25.1-1.5-41.8-4.2-41.8-7.2v19.9c0,4.7,39.7,8.5,88.7,8.5s88.7-3.8,88.7-8.5v-19.9c0,3-16.7,5.7-41.8,7.2V121.1
		C322,122.6,338.7,125.3,338.7,128.4z M285.8,379.4c-11,0.5-23.1,0.7-35.8,0.7s-24.9-0.3-35.8-0.7V120.6c11-0.5,23.1-0.7,35.8-0.7
		s24.9,0.3,35.8,0.7V379.4z"/>
	<path class="st4" d="M296.9,318.2v60.7c25.1-1.5,41.8-4.2,41.8-7.2V255.4C326.9,276.5,312.9,298.4,296.9,318.2z"/>
	<path class="st4" d="M161.3,365.9v5.8c0,3,16.7,5.7,41.8,7.2v-68.7C203.1,310.2,196.7,350.9,161.3,365.9z"/>
	<path class="st3" d="M182.2,377.1c4.5,0.5,9.6,1,15.2,1.4v-257c-5.6,0.4-10.7,0.9-15.2,1.4V377.1z"/>
	<path class="st3" d="M165.9,374.4c1.5,0.4,3.4,0.8,5.6,1.2V124.4c-2.2,0.4-4,0.8-5.6,1.2V374.4z"/>
	<path class="st3" d="M254.7,119.9v97.3h19.9v-97C268.2,120,261.6,119.9,254.7,119.9z"/>
	<path class="st3" d="M236.7,119.9v97.2h8.3v-97.3C242.2,119.9,239.4,119.9,236.7,119.9z"/>
	<path class="st3" d="M307.7,378.1c11.2-0.9,19.9-2.1,25.3-3.4V125.3c-5.3-1.3-14.1-2.5-25.3-3.4V378.1z"/>
	<polygon class="st3" points="220.7,347.5 248.5,319.6 248.5,292.8 220.7,320.6 	"/>
	<path class="st3" d="M248.5,337.8l-27.8,27.8v14.1c8.7,0.3,18.1,0.5,27.8,0.5V337.8z"/>
	<polygon class="st3" points="251.5,316.7 279.3,288.9 279.3,262.1 251.5,289.9 	"/>
	<path class="st3" d="M279.3,307l-27.8,27.8v45.3c2.8,0,5.6,0,8.4-0.1l19.5-19.5L279.3,307L279.3,307z"/>
	<path class="st4" d="M279.3,243.9c0,0-35.3-2.9-58.6,17.4v-27h58.6L279.3,243.9z"/>
	<g>
		<polygon class="st3" points="214.2,214.2 203.1,225.3 203.1,256.9 214.2,245.8 		"/>
		<polygon class="st3" points="296.9,131.5 285.8,142.6 285.8,174.2 296.9,163.1 		"/>
	</g>
	<g>
		<path class="st3" d="M176.7,376.4v0.7l0.6-0.6C177.1,376.5,176.9,376.5,176.7,376.4z"/>
		<polygon class="st3" points="296.9,184 285.8,195.1 285.8,268.1 296.9,257 		"/>
		<polygon class="st3" points="203.1,350.8 214.2,339.7 214.2,266.7 203.1,277.8 		"/>
	</g>
	<path class="st4" d="M285.8,373.7v5.7c-1.9,0.1-3.9,0.2-5.9,0.2L259.6,400c44.5-0.5,79.1-4.1,79.1-8.5v-19.9c0,3-16.7,5.7-41.8,7.2
		v-16.2L285.8,373.7z"/>
	<g>
		<path class="st4" d="M245.4,119.9l19.7-19.7c-4.9-0.1-10-0.1-15.1-0.1c-3.6,0-7.2,0-10.7,0.1L219,120.4
			C227.3,120.1,236.1,119.9,245.4,119.9z"/>
		<polygon class="st4" points="214.2,151.1 214.2,125.2 203.1,136.3 203.1,162.2 		"/>
	</g>
</g>
</svg>
