<?xml version="1.0" encoding="utf-8"?>
<!-- Generator: Adobe Illustrator 24.2.3, SVG Export Plug-In . SVG Version: 6.00 Build 0)  -->
<svg version="1.1" id="Capa_1" xmlns="http://www.w3.org/2000/svg" xmlns:xlink="http://www.w3.org/1999/xlink" x="0px" y="0px"
	 viewBox="0 0 512 512" style="enable-background:new 0 0 512 512;" xml:space="preserve">
<style type="text/css">
	.st0{fill:#FCC023;}
	.st1{fill:#FFF04A;}
	.st2{fill:#C0D4ED;}
	.st3{fill:#DEECFF;}
	.st4{fill:#0F4C81;}
	.st5{fill:#2D6AAB;}
	.st6{fill:#4B88D5;}
	.st7{fill:#69A7FF;}
	.st8{fill:#333333;}
</style>
<g>
	<path class="st0" d="M318.1,293.3l-22.4,2.5l-2.5,22.4l18.6,6.2l12.4-12.4L318.1,293.3z"/>
	<path class="st1" d="M299.5,274.6l-18.6,6.2l-6.2,18.6c-10.3,10.3-10.3,27,0,37.3l62.1-62.1C326.5,264.3,309.8,264.3,299.5,274.6
		L299.5,274.6z"/>
	<path class="st2" d="M243.6,305.7L256,256l49.7-12.4l12.4,12.4L256,318.1L243.6,305.7z"/>
	<path class="st0" d="M218.7,193.9l-2.5,22.4l-22.4,2.5l-6.2-18.6l12.4-12.4L218.7,193.9z"/>
	<path class="st1" d="M237.4,212.5l-6.2,18.6l-18.6,6.2c-10.3,10.3-27,10.3-37.3,0l62.1-62.1C247.7,185.5,247.7,202.2,237.4,212.5z"
		/>
	<path class="st3" d="M193.9,256l62.1-62.1l49.7,49.7L293.3,256l-24.9,12.4L256,293.3l-12.4,12.4L193.9,256z"/>
	<path class="st4" d="M311.9,224.9l20-57.3l57.3-20l12.4,12.4l-25.7,25.7l-19.1,6.7l-6.7,19.1l-25.7,25.7L311.9,224.9z"/>
	<path class="st5" d="M274.6,187.6l25.7-25.7l25.3-0.4l0.4-25.3l25.7-25.7l37.3,37.3l-77.2,77.2L274.6,187.6z"/>
	<path class="st5" d="M337.7,199.2l-5.8-31.5l31.5,5.8l12.4,12.4l-25.7,25.7L337.7,199.2z"/>
	<path class="st6" d="M300.4,161.9l25.7-25.7l37.3,37.3l-25.7,25.7L300.4,161.9z"/>
	<path class="st4" d="M147.7,389.2l20-57.3l57.3-20l12.4,12.4l-25.7,25.7l-19.1,6.7l-6.7,19.1l-25.7,25.7L147.7,389.2z"/>
	<path class="st5" d="M110.4,351.9l25.7-25.7l25.3-0.4l0.4-25.3l25.7-25.7l37.3,37.3l-77.2,77.2L110.4,351.9z"/>
	<path class="st5" d="M173.4,363.4l-5.8-31.5l31.5,5.8l12.4,12.4l-25.7,25.7L173.4,363.4z"/>
	<path class="st6" d="M136.1,326.1l25.7-25.7l37.3,37.3l-25.7,25.7L136.1,326.1z"/>
	<path class="st7" d="M243.5,280.9l37.3-37.3l12.4,12.4L256,293.3L243.5,280.9z"/>
	<circle class="st8" cx="256" cy="218.7" r="4.4"/>
	<path class="st8" d="M246.7,234.2c1.7-1.7,1.7-4.5,0-6.2c-1.7-1.7-4.5-1.7-6.2,0c-1.7,1.7-1.7,4.5,0,6.2
		C242.2,236,245,236,246.7,234.2z"/>
	<path class="st8" d="M271.5,234.2c1.7-1.7,1.7-4.5,0-6.2c-1.7-1.7-4.5-1.7-6.2,0c-1.7,1.7-1.7,4.5,0,6.2
		C267,236,269.8,236,271.5,234.2z"/>
	<circle class="st8" cx="256" cy="243.6" r="4.4"/>
	<path class="st8" d="M240.5,284l12.4,12.4c0.9,0.9,2,1.3,3.1,1.3c1.1,0,2.2-0.4,3.1-1.3l37.3-37.3c1.7-1.7,1.7-4.5,0-6.2L284,240.5
		c-1.7-1.7-4.5-1.7-6.2,0l-37.3,37.3C238.7,279.5,238.7,282.3,240.5,284L240.5,284z M280.9,249.8l6.2,6.2L256,287.1l-6.2-6.2
		L280.9,249.8z"/>
	<path class="st8" d="M321.3,240.5c0.8,0.8,1.9,1.3,3.1,1.3s2.3-0.5,3.1-1.3l77.2-77.2c1.7-1.7,1.7-4.5,0-6.2L355,107.3
		c-1.7-1.7-4.5-1.7-6.2,0l-77.2,77.2c-0.8,0.8-1.3,1.9-1.3,3.1c0,1.2,0.5,2.3,1.3,3.1l9.3,9.3l-6.2,6.2l-15.5-15.5
		c-1.7-1.7-4.5-1.7-6.2,0l-3.4,3.4c0.1-8-2.9-16-9-22.1c-1.7-1.7-4.5-1.7-6.2,0l-16.7,16.7l-16.1-5.4c-1.6-0.5-3.3-0.1-4.5,1.1
		L184.5,197c-1.2,1.2-1.6,2.9-1.1,4.5l5.4,16.1l-16.7,16.7c-1.7,1.7-1.7,4.5,0,6.2c6,6,13.9,9,21.8,9c0.1,0,0.2,0,0.3,0l-3.4,3.4
		c-0.8,0.8-1.3,1.9-1.3,3.1s0.5,2.3,1.3,3.1l15.5,15.5l-6.2,6.2l-9.3-9.3c-0.8-0.8-1.9-1.3-3.1-1.3s-2.3,0.5-3.1,1.3l-77.2,77.2
		c-1.7,1.7-1.7,4.5,0,6.2l49.7,49.7c0.9,0.9,2,1.3,3.1,1.3c1.1,0,2.2-0.4,3.1-1.3l77.2-77.2c0.8-0.8,1.3-1.9,1.3-3.1
		c0-1.2-0.5-2.3-1.3-3.1l-9.3-9.3l6.2-6.2l15.5,15.5c0.9,0.9,2,1.3,3.1,1.3c1.1,0,2.2-0.4,3.1-1.3l3.4-3.4c-0.1,8,2.9,16,9,22.1
		c0.9,0.9,2,1.3,3.1,1.3s2.2-0.4,3.1-1.3l16.7-16.7l16.1,5.4c0.5,0.2,0.9,0.2,1.4,0.2c1.1,0,2.3-0.5,3.1-1.3l12.4-12.4
		c1.2-1.2,1.6-2.9,1.1-4.5l-5.4-16.1l16.7-16.7c1.7-1.7,1.7-4.5,0-6.2c-6.1-6.1-14.1-9.1-22.1-9l3.4-3.4c1.7-1.7,1.7-4.5,0-6.2
		l-15.5-15.5l6.2-6.2L321.3,240.5z M350.1,205.4l-43.5-43.5l19.5-19.5l43.5,43.5L350.1,205.4z M351.9,116.6l43.5,43.5l-19.5,19.5
		l-43.5-43.5L351.9,116.6z M300.4,168.1l43.5,43.5l-19.5,19.5l-43.5-43.5L300.4,168.1z M192.7,201.3l8.6-8.6l9.3,3.1l-14.8,14.8
		L192.7,201.3z M181.7,237l55.3-55.3c5.6,8.5,4.7,20.1-2.8,27.6l-24.9,24.9C201.9,241.8,190.3,242.7,181.7,237L181.7,237z
		 M161.9,306.6l43.5,43.5l-19.5,19.5l-43.5-43.5L161.9,306.6z M160.1,395.4l-43.5-43.5l19.5-19.5l43.5,43.5L160.1,395.4z
		 M211.6,343.9l-43.5-43.5l19.5-19.5l43.5,43.5L211.6,343.9z M319.3,310.7l-8.6,8.6l-9.3-3.1l14.8-14.8L319.3,310.7z M330.3,275
		L275,330.3c-5.6-8.5-4.7-20.1,2.8-27.6l24.9-24.9C310.1,270.2,321.7,269.3,330.3,275L330.3,275z M256,311.9l-28-28
		c-1.7-1.7-4.5-1.7-6.2,0c-1.7,1.7-1.7,4.5,0,6.2l9.3,9.3l-6.2,6.2l-18.6-18.6l9.3-9.3c1.7-1.7,1.7-4.5,0-6.2L200.1,256l55.9-55.9
		l55.9,55.9L256,311.9z M299.5,231.1l-18.6-18.6l6.2-6.2l18.6,18.6L299.5,231.1z"/>
</g>
</svg>
