<?xml version="1.0" encoding="utf-8"?>
<!-- Generator: Adobe Illustrator 24.2.3, SVG Export Plug-In . SVG Version: 6.00 Build 0)  -->
<svg version="1.1" id="Layer_1" xmlns="http://www.w3.org/2000/svg" xmlns:xlink="http://www.w3.org/1999/xlink" x="0px" y="0px"
	 viewBox="0 0 512 512" style="enable-background:new 0 0 512 512;" xml:space="preserve">
<style type="text/css">
	.st0{fill:#EFEFEF;}
	.st1{fill:#DCDCDC;}
	.st2{fill:#E82A40;}
	.st3{fill:#D6243A;}
	.st4{fill:#3C85C9;}
	.st5{fill:#3479BA;}
	.st6{fill:#F27A2A;}
	.st7{fill:#F25817;}
	.st8{fill:#333333;}
	.st9{fill:#D9D4D4;}
	.st10{fill:#F0EEEE;}
	.st11{fill:#FA8500;}
	.st12{fill:#CE6A06;}
	.st13{fill:#5880A2;}
	.st14{fill:#3F6582;}
	.st15{fill:#FB403F;}
</style>
<g>
	<g>
		<path class="st0" d="M375.9,197.5L252.2,321.3c-1.6,1.6-4.2,1.6-5.8,0l-55.1-55.1c-1.6-1.6-1.6-4.2,0-5.8L316.7,135
			c18-18,40.6-30.8,65.4-36.6c13.4-3.1,25.9-4.4,30.4,0.1c3.9,3.9,3.7,14,1.7,25.5C409.5,151.8,395.9,177.5,375.9,197.5z"/>
		<path class="st1" d="M414.3,123.9c2-11.5,2.2-21.5-1.7-25.5c-2.1-2.1-5.8-2.9-10.5-3c0.1,4.3-0.4,9.4-1.4,14.8
			c-4.8,28-18.3,53.6-38.4,73.6L238.6,307.6c-1.6,1.6-4.2,1.6-5.8,0l13.6,13.6c1.6,1.6,4.2,1.6,5.8,0l123.7-123.7
			C395.9,177.5,409.5,151.8,414.3,123.9L414.3,123.9z"/>
		<path class="st2" d="M375.9,197.5l-9,9L306,145.7l10.7-10.7c18-18,40.6-30.8,65.4-36.6c13.4-3.1,25.9-4.4,30.4,0.1
			c3.9,3.9,3.7,14,1.7,25.5C409.5,151.8,395.9,177.5,375.9,197.5z"/>
		<path class="st3" d="M414.3,123.9c2-11.5,2.2-21.5-1.7-25.5c-2.1-2.1-5.8-2.9-10.5-2.9c0.1,4.3-0.4,9.4-1.4,14.8
			c-4.8,28-18.3,53.6-38.4,73.6l-9,9l13.6,13.6l9-9C395.9,177.5,409.5,151.8,414.3,123.9z"/>
		<path class="st2" d="M211.2,335.1l-33.8-33.8l18.7-30.3l45.3,45.3L211.2,335.1z"/>
		<path class="st3" d="M227.9,302.7l-30.3,18.7l13.6,13.6l30.3-18.7L227.9,302.7z"/>
		<g>
			<path class="st4" d="M206,245.7l-24.8-17c-1.1-0.8-1.3-2.4-0.3-3.3l14.7-14.7c1.8-1.8,4.3-2.7,6.8-2.5l38.1,3L206,245.7z"/>
			<path class="st4" d="M266.9,306.6l17,24.8c0.8,1.1,2.4,1.3,3.3,0.3l14.7-14.7c1.8-1.8,2.7-4.3,2.5-6.8l-3-38.1L266.9,306.6z"/>
			<path class="st4" d="M277.3,174.4l60.9,60.9l-19.1,19.1l-60.9-60.9L277.3,174.4z"/>
		</g>
		<path class="st5" d="M305.4,240.8l19.1-19.1l13.6,13.6L319,254.4L305.4,240.8z"/>
		<path class="st6" d="M166,320.3c-24.8,7.4-59.2,29.2-69.6,92.8c-0.2,1,0.8,1.9,1.8,1.6c12.3-3.3,74-22,90.7-71.2
			C193.6,329.5,180.3,316,166,320.3z"/>
		<path class="st7" d="M166,320.3c-1.6,0.5-3.2,1-4.8,1.6c7.2,4.1,11.4,12.7,8.4,21.6c-12.3,36.3-49,56-72.4,65.2
			c-0.3,1.5-0.5,2.9-0.8,4.4c-0.2,1,0.8,1.9,1.8,1.6c12.3-3.3,74-22,90.7-71.2C193.6,329.5,180.3,316,166,320.3L166,320.3z"/>
		<g>
			<path class="st8" d="M416,95c-5.3-5.3-16.4-5.8-34.9-1.4c-3.3,0.8-6.5,1.7-9.7,2.7c-2.5,0.8-4,3.5-3.2,6c0.8,2.5,3.5,4,6,3.2
				c3-0.9,6-1.8,9.1-2.5c21.3-5,25.5-1.6,25.9-1.2c0.6,0.6,3.3,4.3,0.4,21.2c-4.6,26.9-17.4,51.4-37,71.1l-5.6,5.6l-54.1-54.1
				l7.3-7.3c10.5-10.5,22.5-19.1,35.7-25.5c2.4-1.2,3.4-4.1,2.2-6.4c-1.2-2.4-4.1-3.4-6.4-2.2c-14.1,6.9-27,16.1-38.2,27.4
				L273.9,171c0,0,0,0,0,0l-19.1,19.1l-16.1,16.1l-35.9-2.9c-3.9-0.3-7.8,1.1-10.6,3.9L177.5,222c-1.5,1.5-2.2,3.5-2,5.6
				c0.2,2.1,1.3,3.9,3,5.1l20,13.7L187.9,257c-1.7,1.7-2.6,3.9-2.6,6.3s0.9,4.6,2.6,6.3l2.2,2.2l-16.7,27c-1.2,1.9-0.9,4.4,0.7,5.9
				l33.8,33.8c0.9,0.9,2.2,1.4,3.4,1.4c0.9,0,1.8-0.2,2.5-0.7l27-16.7l2.2,2.2c1.7,1.7,3.9,2.6,6.3,2.6s4.6-0.9,6.3-2.6l10.6-10.6
				l13.7,20c1.2,1.7,3,2.8,5.1,3c0.2,0,0.4,0,0.7,0c1.8,0,3.6-0.7,4.9-2l14.7-14.7c2.8-2.8,4.2-6.6,3.9-10.6l-2.9-35.9l16.1-16.1
				c0,0,0,0,0,0l19.1-19.1c0,0,0,0,0,0l37.8-37.8c21-21,34.8-47.4,39.7-76.2C421.7,109.2,420.7,99.8,416,95L416,95z M199,214.1
				c0.8-0.8,1.9-1.2,3-1.1l27.7,2.2l-24.3,24.3l-18.9-12.9L199,214.1z M360.1,206.6l-21.9,21.9l-54.1-54.1l21.9-21.9L360.1,206.6z
				 M233.8,315.5L212,329l-28.4-28.4l13.5-21.8l10.5,10.5L233.8,315.5z M249.3,317.4l-54.1-54.1l14.2-14.2c0,0,0,0,0,0l17-17
				l31.7-31.7l32.8,32.8c1.9,1.9,4.9,1.9,6.8,0c1.9-1.9,1.9-4.9,0-6.8L265,193.5l12.3-12.3l54.1,54.1l-12.3,12.3l-6.7-6.7
				c-1.9-1.9-4.9-1.9-6.8,0c-1.9,1.9-1.9,4.9,0,6.8l6.7,6.7L249.3,317.4z M299.6,310.6c0.1,1.1-0.3,2.2-1.1,3L286,326l-12.9-18.9
				l24.3-24.3L299.6,310.6z"/>
			<path class="st8" d="M164.6,315.7c-14.7,4.4-35.6,14.6-51.6,38.5c-1.5,2.2-0.9,5.2,1.3,6.7c2.2,1.5,5.2,0.9,6.7-1.3
				c11.6-17.3,27.2-28.9,46.4-34.6c5-1.5,10.2-0.2,13.8,3.6c3.5,3.6,4.7,8.7,3,13.5c-14.2,42-63.6,60.9-82.2,66.6
				c2.2-11.2,5.2-21.4,9.1-30.6c1-2.5-0.1-5.3-2.6-6.3c-2.5-1-5.3,0.1-6.3,2.6c-4.8,11.3-8.3,24.1-10.6,38c-0.3,2.1,0.4,4.2,2,5.7
				c1.2,1.1,2.7,1.6,4.2,1.6c0.5,0,1.1-0.1,1.6-0.2c12.6-3.4,76.6-22.8,94-74.3c2.8-8.3,0.8-17-5.2-23.3
				C182.1,315.5,173,313.2,164.6,315.7L164.6,315.7z"/>
		</g>
	</g>
	<g>
		<path class="st9" d="M229.6,304.2h-11.7c-5.1,0-9.2-4.1-9.2-9.2v-24c0-5.1,4.1-9.2,9.2-9.2h11.7V304.2z"/>
		<path class="st9" d="M363.1,304.2h11.7c5.1,0,9.2-4.1,9.2-9.2v-24c0-5.1-4.1-9.2-9.2-9.2h-11.7V304.2z"/>
	</g>
	<path class="st10" d="M270.8,350.1h51c20.1,0,36.3,16.3,36.3,36.3v31.7H234.5v-31.7C234.5,366.4,250.8,350.1,270.8,350.1z"/>
	<path class="st9" d="M321.8,350.1h-10.9c20.1,0,36.3,16.3,36.3,36.3v31.7h10.9v-31.7C358.1,366.4,341.9,350.1,321.8,350.1z"/>
	<g>
		<circle class="st10" cx="296.3" cy="275.4" r="74.1"/>
		<circle class="st10" cx="296.3" cy="275.4" r="74.1"/>
	</g>
	<path class="st9" d="M296.3,201.3c-0.9,0-1.8,0-2.7,0.1c36.9,1.4,66.4,34,66.4,74s-29.5,72.6-66.4,74c0.9,0,1.8,0.1,2.7,0.1
		c40.9,0,74.1-33.2,74.1-74.1S337.2,201.3,296.3,201.3z"/>
	<ellipse class="st11" cx="296.3" cy="342" rx="55.9" ry="24.6"/>
	<path class="st12" d="M296.3,317.4c-0.9,0-1.8,0-2.7,0c26.9,0.6,48.4,11.4,48.4,24.5c0,13.2-21.5,23.9-48.4,24.5c0.9,0,1.8,0,2.7,0
		c30.9,0,55.9-11,55.9-24.6S327.2,317.4,296.3,317.4z"/>
	<path class="st13" d="M368.4,258.2c-17.5-21-43.3-31.1-72.1-31.1c-28.8,0-54.6,10.1-72.1,31.1c-1.3,5.5-2,11.3-2,17.2
		c0,40.9,33.2,74.1,74.1,74.1c40.9,0,74.1-33.2,74.1-74.1C370.4,269.5,369.7,263.7,368.4,258.2z"/>
	<path class="st14" d="M370.4,273.3c0-0.2,0-0.4,0-0.6c0-0.5,0-1-0.1-1.5c0-0.2,0-0.4,0-0.7c0-0.5-0.1-1-0.1-1.4
		c0-0.2,0-0.4-0.1-0.6c0-0.5-0.1-1-0.2-1.5c0-0.2,0-0.3-0.1-0.5c-0.1-0.6-0.2-1.2-0.2-1.8c0-0.1,0-0.1,0-0.2
		c-0.3-2.1-0.7-4.2-1.2-6.3c-4.4-5.3-9.3-9.9-14.7-13.8c4,9.4,6.3,19.9,6.3,31c0,40-29.5,72.6-66.4,74c0.4,0,0.8,0,1.2,0
		c0.5,0,1,0,1.5,0h0c10.9,0,21.2-2.3,30.5-6.5c0.5-0.2,1.1-0.5,1.6-0.8c2.7-1.3,5.3-2.8,7.8-4.4c0.5-0.3,1-0.6,1.5-1
		c1-0.7,2-1.4,2.9-2.1c0.5-0.4,0.9-0.7,1.4-1.1c2.8-2.2,5.4-4.6,7.9-7.2c0.8-0.9,1.6-1.7,2.4-2.6c0.8-0.9,1.5-1.8,2.3-2.7
		c0.4-0.5,0.7-0.9,1.1-1.4c1.1-1.4,2.1-2.9,3-4.4c1-1.5,1.9-3,2.7-4.6c5.7-10.5,8.9-22.5,8.9-35.3
		C370.4,274.7,370.4,274,370.4,273.3z"/>
	<circle class="st15" cx="262.8" cy="388.3" r="8.9"/>
	<path class="st8" d="M378,258.9v-26.4c0-1.8-1.5-3.3-3.3-3.3s-3.3,1.5-3.3,3.3V257c-8.4-34.4-39.3-59-75.2-59
		c-20.8,0-40.3,8.1-54.9,22.9c-1.3,1.3-1.3,3.4,0,4.6c1.3,1.3,3.4,1.3,4.6,0c13.4-13.5,31.3-21,50.3-21c28.2,0,53,16.6,64.4,41.2
		c-6.8-5.8-14.4-10.4-22.8-14c-12.5-5.3-26.5-7.9-41.5-7.9c-15.1,0-29,2.7-41.5,7.9c-8.4,3.5-16.1,8.2-22.8,14
		c1.7-3.6,3.7-7.2,6-10.5c1-1.5,0.7-3.5-0.8-4.5c-1.5-1-3.5-0.6-4.5,0.8c-5.5,7.9-9.3,16.6-11.5,25.9c0,0,0,0,0,0c0,0,0,0.1,0,0.1
		c-0.1,0.3-0.1,0.6-0.2,0.8h-2.9c-6.9,0-12.5,5.6-12.5,12.5v24c0,6.9,5.6,12.5,12.5,12.5h8c4,8.8,9.5,16.6,16.1,23.1
		c-3.2,3.5-4.9,7.4-4.9,11.4c0,7.9,6.5,15.2,18.3,20.4c11,4.8,25.5,7.5,40.9,7.5c7.1,0,14-0.6,20.6-1.7c1.8-0.3,3-2,2.7-3.8
		c-0.3-1.8-2-3-3.8-2.7c-6.2,1-12.8,1.6-19.5,1.6c-14.5,0-28.1-2.5-38.2-6.9c-9.2-4-14.4-9.3-14.4-14.4c0-2.4,1.1-4.7,3.2-7
		c12.2,10.2,27.5,16.5,44,17.6c0.1,0,0.2,0,0.3,0c0.4,0,0.9,0.1,1.3,0.1c0.2,0,0.3,0,0.5,0c0.4,0,0.8,0,1.2,0c0.2,0,0.3,0,0.5,0
		c0.6,0,1.1,0,1.7,0c0.6,0,1.1,0,1.7,0c0.2,0,0.3,0,0.5,0c0.4,0,0.8,0,1.2,0c0.2,0,0.3,0,0.5,0c0.4,0,0.9,0,1.3-0.1
		c0.1,0,0.2,0,0.3,0c16.4-1.2,31.7-7.5,44-17.6c2.1,2.3,3.2,4.7,3.2,7c0,6.2-8,12.6-20.8,16.7c-1.7,0.6-2.7,2.4-2.1,4.1
		c0.4,1.4,1.7,2.3,3.1,2.3c0.3,0,0.7-0.1,1-0.2c4.4-1.4,8.2-3,11.6-4.9c8.2,6.2,13.1,15.9,13.1,26.3v28.4H237.8v-28.4
		c0-6.9,2.1-13.5,6.1-19.2c1-1.5,0.7-3.5-0.8-4.6c-1.5-1-3.5-0.7-4.6,0.8c-4.8,6.7-7.3,14.7-7.3,23v31.7c0,1.8,1.5,3.3,3.3,3.3
		h123.6c1.8,0,3.3-1.5,3.3-3.3v-31.7c0-11.7-5.1-22.6-13.9-30.1c5.2-4.2,8-9.1,8-14.3c0-4-1.7-7.9-4.9-11.4
		c6.6-6.5,12.1-14.3,16.1-23.1h8c6.9,0,12.5-5.6,12.5-12.5v-24C387.2,265.2,383.3,260.3,378,258.9z M257.3,237.8
		c11.7-4.9,24.8-7.4,39-7.4c14.2,0,27.3,2.5,39,7.4c11.8,5,21.9,12.3,30.1,21.9c0.6,2.6,1,5.2,1.3,7.8c0,0,0,0,0,0.1
		c0.1,0.6,0.1,1.2,0.2,1.7c0,0.1,0,0.3,0,0.4c0,0.5,0.1,0.9,0.1,1.4c0,0.2,0,0.4,0,0.6c0,0.4,0,0.9,0.1,1.3c0,0.2,0,0.4,0,0.5
		c0,0.6,0,1.2,0,1.8c0,0.6,0,1.2,0,1.9c0,0,0,0.1,0,0.1c-0.5,19.4-9,37.8-23.5,50.7c-11.8,10.6-26.6,16.8-42.3,18
		c-0.1,0-0.2,0-0.3,0c-0.4,0-0.8,0-1.2,0.1c-0.2,0-0.3,0-0.5,0c-0.4,0-0.7,0-1.1,0c-0.1,0-0.3,0-0.4,0c-0.5,0-1,0-1.5,0
		c-0.5,0-1,0-1.5,0c-0.1,0-0.3,0-0.4,0c-0.4,0-0.7,0-1.1,0c-0.2,0-0.3,0-0.5,0c-0.4,0-0.8,0-1.2-0.1c-0.1,0-0.2,0-0.3,0
		c-15.7-1.1-30.6-7.4-42.3-18c-14.4-13-22.9-31.4-23.5-50.7c0,0,0-0.1,0-0.1c0-0.6,0-1.2,0-1.9c0-0.6,0-1.2,0-1.8c0-0.2,0-0.4,0-0.5
		c0-0.4,0-0.9,0.1-1.3c0-0.2,0-0.4,0-0.6c0-0.5,0.1-0.9,0.1-1.4c0-0.2,0-0.3,0-0.5c0-0.5,0.1-1.1,0.2-1.6c0-0.1,0-0.2,0-0.2
		c0.1-1.3,0.3-2.5,0.5-3.8c0-0.1,0-0.3,0.1-0.4c0.1-0.4,0.2-0.9,0.2-1.3c0-0.3,0.1-0.5,0.2-0.8c0.1-0.4,0.2-0.8,0.2-1.2
		c0-0.1,0-0.2,0.1-0.3C235.4,250.2,245.5,242.8,257.3,237.8z M217.9,300.9c-3.3,0-5.9-2.7-5.9-5.9v-24c0-3.3,2.7-5.9,5.9-5.9h1.8
		c0,0.1,0,0.2,0,0.3c-0.1,0.6-0.2,1.3-0.2,1.9c0,0.2,0,0.4-0.1,0.6c0,0.2,0,0.5-0.1,0.7c0,0.1,0,0.3,0,0.4c0,0.4-0.1,0.8-0.1,1.2
		c0,0.1,0,0.2,0,0.3c0,0.1,0,0.1,0,0.2c0,0.2,0,0.4,0,0.6c0,0.4,0,0.8-0.1,1.3c0,0.2,0,0.3,0,0.5c0,0.1,0,0.2,0,0.4
		c0,0.7,0,1.4,0,2.1c0,0.6,0,1.2,0,1.8c0,0.1,0,0.2,0,0.2c0,0,0,0.1,0,0.1c0,0.1,0,0.2,0,0.3c0,0.4,0,0.8,0,1.2c0,0.2,0,0.4,0,0.7
		c0,0.4,0,0.8,0.1,1.2c0,0.2,0,0.5,0,0.7c0,0.4,0.1,0.8,0.1,1.2c0,0.2,0,0.4,0.1,0.6c0,0.5,0.1,1,0.2,1.4c0,0.1,0,0.2,0,0.3
		c0.1,0.6,0.2,1.2,0.2,1.8c0,0.2,0.1,0.3,0.1,0.5c0.1,0.4,0.1,0.9,0.2,1.3c0,0.2,0.1,0.4,0.1,0.6c0.1,0.4,0.1,0.8,0.2,1.1
		c0,0.2,0.1,0.4,0.1,0.7c0.1,0.4,0.2,0.8,0.2,1.1c0,0.2,0.1,0.4,0.1,0.6c0.1,0.4,0.2,0.8,0.3,1.3c0,0.2,0.1,0.3,0.1,0.5
		c0.1,0.6,0.3,1.1,0.5,1.7c0,0.1,0.1,0.2,0.1,0.3c0.1,0.5,0.3,0.9,0.4,1.4c0.1,0.2,0.1,0.4,0.2,0.6c0.1,0.4,0.2,0.8,0.4,1.1
		c0.1,0.2,0.1,0.4,0.2,0.6c0.1,0.2,0.1,0.3,0.2,0.5L217.9,300.9L217.9,300.9z M380.7,295c0,3.3-2.7,5.9-5.9,5.9h-5.4
		c0.1-0.2,0.1-0.4,0.2-0.5c0.1-0.2,0.1-0.4,0.2-0.6c0.1-0.4,0.3-0.8,0.4-1.2c0.1-0.2,0.1-0.4,0.2-0.6c0.1-0.5,0.3-1,0.4-1.4
		c0-0.1,0.1-0.2,0.1-0.3c0.2-0.6,0.3-1.2,0.5-1.7c0-0.2,0.1-0.3,0.1-0.5c0.1-0.4,0.2-0.9,0.3-1.3c0-0.2,0.1-0.4,0.1-0.6
		c0.1-0.4,0.2-0.8,0.2-1.1c0-0.2,0.1-0.4,0.1-0.7c0.1-0.4,0.1-0.8,0.2-1.1c0-0.2,0.1-0.4,0.1-0.6c0.1-0.4,0.1-0.9,0.2-1.3
		c0-0.2,0.1-0.3,0.1-0.5c0.1-0.6,0.2-1.2,0.2-1.8c0-0.1,0-0.2,0-0.4c0.1-0.5,0.1-1,0.2-1.4c0-0.2,0-0.4,0.1-0.6
		c0-0.4,0.1-0.8,0.1-1.2c0-0.2,0-0.5,0-0.7c0-0.4,0-0.8,0.1-1.1c0-0.2,0-0.4,0-0.7c0-0.4,0-0.8,0-1.2c0-0.1,0-0.2,0-0.2
		c0,0,0-0.1,0-0.1c0-0.1,0-0.2,0-0.2c0-0.6,0-1.2,0-1.8c0-0.7,0-1.4,0-2.1c0-0.1,0-0.2,0-0.4c0-0.2,0-0.3,0-0.5c0-0.4,0-0.8-0.1-1.3
		c0-0.2,0-0.4,0-0.6c0-0.1,0-0.1,0-0.2c0-0.1,0-0.2,0-0.3c0-0.4-0.1-0.8-0.1-1.3c0-0.1,0-0.2,0-0.3c0-0.2,0-0.5-0.1-0.7
		c0-0.2,0-0.4-0.1-0.6c-0.1-0.6-0.1-1.3-0.2-1.9c0-0.1,0-0.2,0-0.3h1.8c3.3,0,5.9,2.7,5.9,5.9L380.7,295L380.7,295L380.7,295z"/>
	<path class="st8" d="M275,388.3c0-6.7-5.4-12.1-12.1-12.1c-6.7,0-12.1,5.4-12.1,12.1c0,6.7,5.4,12.1,12.1,12.1
		C269.5,400.5,275,395,275,388.3z M257.2,388.3c0-3.1,2.5-5.6,5.6-5.6c3.1,0,5.6,2.5,5.6,5.6c0,3.1-2.5,5.6-5.6,5.6
		C259.8,393.9,257.2,391.4,257.2,388.3z"/>
	<path class="st8" d="M330.7,411.6c6.6,0,12-5.4,12-12v-12c0-6.6-5.4-12-12-12h-18.6c-6.6,0-12,5.4-12,12v12c0,6.6,5.4,12,12,12
		H330.7z M306.6,399.6v-12c0-3,2.5-5.5,5.5-5.5h18.6c3,0,5.5,2.5,5.5,5.5v12c0,3-2.5,5.5-5.5,5.5h-18.6
		C309,405.1,306.6,402.6,306.6,399.6z"/>
	<path class="st8" d="M313.5,391.6h15c1.8,0,3.3-1.5,3.3-3.3c0-1.8-1.5-3.3-3.3-3.3h-15c-1.8,0-3.3,1.5-3.3,3.3
		C310.2,390.1,311.7,391.6,313.5,391.6z"/>
	<path class="st8" d="M328.4,402.1c1.8,0,3.3-1.5,3.3-3.3c0-1.8-1.5-3.3-3.3-3.3h-15c-1.8,0-3.3,1.5-3.3,3.3c0,1.8,1.5,3.3,3.3,3.3
		H328.4z"/>
</g>
</svg>
