<?xml version="1.0" encoding="utf-8"?>
<!-- Generator: Adobe Illustrator 24.2.3, SVG Export Plug-In . SVG Version: 6.00 Build 0)  -->
<svg version="1.1" id="Capa_1" xmlns="http://www.w3.org/2000/svg" xmlns:xlink="http://www.w3.org/1999/xlink" x="0px" y="0px"
	 viewBox="0 0 512 512" style="enable-background:new 0 0 512 512;" xml:space="preserve">
<style type="text/css">
	.st0{fill:#DD636E;}
	.st1{fill:#DA4A54;}
	.st2{fill:#CBE2FF;}
	.st3{fill:#9DC6FB;}
	.st4{fill:#F9F6F9;}
	.st5{fill:#DDDAEC;}
</style>
<g>
	<path class="st0" d="M338.6,262.7H173.7v-98.4c0-10.8,8.8-19.6,19.6-19.6h125.6c10.8,0,19.6,8.8,19.6,19.6L338.6,262.7L338.6,262.7
		z"/>
	<path class="st1" d="M319,144.7h-15c10.8,0,19.6,8.8,19.6,19.6v98.4h15v-98.4C338.6,153.5,329.8,144.7,319,144.7L319,144.7z"/>
	<path class="st2" d="M309,231.8H203.4c-4.3,0-7.8-3.5-7.8-7.8v-43.5c0-4.3,3.5-7.8,7.8-7.8H309c4.3,0,7.8,3.5,7.8,7.8V224
		C316.8,228.3,313.3,231.8,309,231.8z"/>
	<path class="st3" d="M309,172.7h-15c4.3,0,7.8,3.5,7.8,7.8V224c0,4.3-3.5,7.8-7.8,7.8h15c4.3,0,7.8-3.5,7.8-7.8v-43.5
		C316.8,176.2,313.3,172.7,309,172.7z"/>
	<path class="st4" d="M309,144.7H203.4v-23.5c0-5.8,4.7-10.5,10.5-10.5h84.7c5.8,0,10.5,4.7,10.5,10.5v23.5H309z"/>
	<path class="st5" d="M298.5,110.7h-12c5.8,0,10.5,4.7,10.5,10.5v23.5h12v-23.5C309,115.3,304.3,110.7,298.5,110.7z"/>
	<path class="st4" d="M246.7,192.1l-81.9,48.2c-6.8,4-10.2,11.9-8.5,19.6L188,398.8h136.5l31.6-138.9c1.8-7.7-1.7-15.6-8.5-19.6
		l-81.9-48.2C259.8,188.7,252.5,188.7,246.7,192.1L246.7,192.1z"/>
	<path class="st5" d="M347.6,240.3l-81.9-48.2c-5.9-3.5-13.1-3.5-19,0l-5.5,3.3c2.3,0.4,4.6,1.1,6.7,2.4l81.9,48.2
		c6.8,4,10.2,11.9,8.5,19.6l-30.4,133.3h16.6l31.6-139C357.8,252.2,354.4,244.3,347.6,240.3L347.6,240.3z"/>
	<g>
		<path class="st0" d="M241.5,279.2c8.8-6.3,20.6-6.3,29.3,0l69.4,50.1l6.9-30.3l-76.3-55.1c-8.8-6.3-20.6-6.3-29.3,0L165.2,299
			l6.9,30.3L241.5,279.2z"/>
	</g>
	<path class="st1" d="M347.2,299l-14.3-10.3L326,319l14.3,10.3L347.2,299z"/>
	<path class="st2" d="M84.5,366.8c28.6,0,28.6,13.8,57.2,13.8s28.6-13.8,57.2-13.8s28.6,13.8,57.2,13.8c28.6,0,28.6-13.8,57.2-13.8
		s28.6,13.8,57.2,13.8s28.6-13.8,57.2-13.8v57.5c0,3.3-2.7,6-6,6H90.5c-3.3,0-6-2.7-6-6V366.8z"/>
	<g>
		<path class="st3" d="M415.6,367.8v56.5c0,3.3-2.7,6-6,6h12.2c3.3,0,6-2.7,6-6v-57.5C423.1,366.8,419.1,367.2,415.6,367.8z"/>
	</g>
	<g>
		<path d="M215.2,126.6v2.1c0,2.9,2.3,5.2,5.2,5.2s5.2-2.3,5.2-5.2v-2.1c0-2.9-2.3-5.2-5.2-5.2S215.2,123.8,215.2,126.6z"/>
		<path d="M238.3,133.9c2.9,0,5.2-2.3,5.2-5.2v-2.1c0-2.9-2.3-5.2-5.2-5.2c-2.9,0-5.2,2.3-5.2,5.2v2.1
			C233.1,131.5,235.4,133.9,238.3,133.9z"/>
		<path d="M261.4,128.7v-2.1c0-2.9-2.3-5.2-5.2-5.2c-2.9,0-5.2,2.3-5.2,5.2v2.1c0,2.9,2.3,5.2,5.2,5.2
			C259.1,133.9,261.4,131.5,261.4,128.7z"/>
		<path d="M279.3,128.7v-2.1c0-2.9-2.3-5.2-5.2-5.2c-2.9,0-5.2,2.3-5.2,5.2v2.1c0,2.9,2.3,5.2,5.2,5.2
			C277,133.9,279.3,131.5,279.3,128.7z"/>
		<path d="M297.2,128.7v-2.1c0-2.9-2.3-5.2-5.2-5.2c-2.9,0-5.2,2.3-5.2,5.2v2.1c0,2.9,2.3,5.2,5.2,5.2
			C294.9,133.9,297.2,131.5,297.2,128.7z"/>
		<path d="M427.9,361.6c-29.7,0-30.5,13.8-57.2,13.8c-17.3,0-22.9-5.4-33.4-9.6l23.8-104.7c2.3-9.9-2.1-20.1-10.9-25.3l-6.4-3.8
			v-30.7c0-2.9-2.3-5.2-5.2-5.2c-2.9,0-5.2,2.3-5.2,5.2V226l-11.4-6.7v-38.7c0-7.2-5.8-13-13-13H203.4c-7.2,0-13,5.8-13,13v38.7
			L179,226v-61.7c0-8,6.5-14.4,14.4-14.4H319c8,0,14.4,6.5,14.4,14.4v16.4c0,2.9,2.3,5.2,5.2,5.2c2.9,0,5.2-2.3,5.2-5.2v-16.4
			c0-13.7-11.1-24.8-24.8-24.8h-4.8v-18.4c0-8.6-7-15.7-15.7-15.7h-37.2V99h2.2c2.9,0,5.2-2.3,5.2-5.2s-2.3-5.2-5.2-5.2h-2.2v-1.8
			c0-2.9-2.3-5.2-5.2-5.2c-2.9,0-5.2,2.3-5.2,5.2v1.8h-2.2c-2.9,0-5.2,2.3-5.2,5.2c0,2.9,2.3,5.2,5.2,5.2h2.2v6.4h-12.7
			c-2.9,0-5.2,2.3-5.2,5.2c0,2.9,2.3,5.2,5.2,5.2h60.2c2.9,0,5.3,2.4,5.3,5.3v18.4h-95.3v-18.4c0-2.9,2.4-5.3,5.3-5.3h3.7
			c2.9,0,5.2-2.3,5.2-5.2s-2.3-5.2-5.2-5.2h-3.7c-8.6,0-15.7,7-15.7,15.7v18.4h-4.8c-13.7,0-24.8,11.1-24.8,24.8v67.8l-6.4,3.8
			c-8.8,5.2-13.2,15.3-10.9,25.3c12.4,54.4,22,96.6,23.9,104.8c-10.5,4.2-16.1,9.6-33.4,9.6c-26.8,0-27.4-13.8-57.2-13.8
			c-2.9,0-5.2,2.3-5.2,5.2c0,2.9,2.3,5.2,5.2,5.2c26.8,0,27.4,13.8,57.2,13.8c29.7,0,30.5-13.8,57.2-13.8
			c26.8,0,27.4,13.8,57.2,13.8c29.7,0,30.5-13.8,57.2-13.8c26.8,0,27.4,13.8,57.2,13.8c29.7,0,30.5-13.8,57.2-13.8
			c2.9,0,5.2-2.3,5.2-5.2C433,363.9,430.7,361.6,427.9,361.6z M200.7,180.5c0-1.4,1.2-2.6,2.6-2.6h105.6c1.4,0,2.6,1.2,2.6,2.6v32.6
			l-43.3-25.5c-7.5-4.4-16.8-4.4-24.3,0l-43.3,25.5L200.7,180.5L200.7,180.5z M167.4,244.8l81.9-48.2c4.2-2.5,9.5-2.5,13.8,0
			l81.9,48.2c4.9,2.9,7.3,8.5,6.1,14l-7.2,31.4l-70-50.6c-10.6-7.7-24.8-7.7-35.4,0l-70,50.6l-7.2-31.4
			C160.1,253.3,162.5,247.6,167.4,244.8L167.4,244.8z M256.2,375.4c-26.8,0-27.4-13.8-57.2-13.8c-5.4,0-10,0.5-13.9,1.3l-7.1-31.4
			l11.3-8.2c2.3-1.7,2.8-4.9,1.2-7.2c-1.7-2.3-4.9-2.8-7.2-1.2l-7.7,5.6l-3.4-14.9l-1-4.4l73.5-53.1c7-5,16.3-5,23.3,0l73.5,53.1
			l-4.4,19.4L273.9,275c-10.6-7.7-24.8-7.7-35.4,0l-38.4,27.7c-2.3,1.7-2.8,4.9-1.2,7.2c1.7,2.3,4.9,2.8,7.2,1.2l38.4-27.7
			c7-5,16.3-5,23.3,0l66.6,48.1l-7.1,31.4c-3.9-0.8-8.4-1.3-13.9-1.3C283.7,361.6,282.9,375.4,256.2,375.4L256.2,375.4z"/>
		<path d="M307.2,326.7c-2.8-0.6-5.6,1.1-6.2,3.9l-3.5,15.3c-0.6,2.8,1.1,5.6,3.9,6.2c0.4,0.1,0.8,0.1,1.2,0.1c2.4,0,4.5-1.6,5-4
			l3.5-15.3C311.8,330.1,310,327.3,307.2,326.7z"/>
		<path d="M192.3,256l11.7-8.4c2.3-1.7,2.8-4.9,1.2-7.2c-1.7-2.3-4.9-2.8-7.2-1.2l-11.7,8.4c-2.3,1.7-2.8,4.9-1.2,7.2
			C186.8,257.1,190,257.6,192.3,256z"/>
		<path d="M308.4,247.5l11.7,8.5c2.3,1.7,5.6,1.1,7.2-1.2c1.7-2.3,1.2-5.6-1.2-7.2l-11.7-8.4c-2.3-1.7-5.6-1.2-7.2,1.2
			C305.5,242.6,306.1,245.8,308.4,247.5L308.4,247.5z"/>
	</g>
</g>
</svg>
