<?xml version="1.0" encoding="utf-8"?>
<!-- Generator: Adobe Illustrator 24.2.3, SVG Export Plug-In . SVG Version: 6.00 Build 0)  -->
<svg version="1.1" id="Capa_1" xmlns="http://www.w3.org/2000/svg" xmlns:xlink="http://www.w3.org/1999/xlink" x="0px" y="0px"
	 viewBox="0 0 512 512" style="enable-background:new 0 0 512 512;" xml:space="preserve">
<style type="text/css">
	.st0{fill:#DD636E;}
	.st1{fill:#DA4A54;}
	.st2{fill:#CBE2FF;}
	.st3{fill:#9DC6FB;}
	.st4{fill:#F9F6F9;}
	.st5{fill:#DDDAEC;}
</style>
<g>
	<path class="st0" d="M325.9,261.7H186.1v-83.5c0-9.2,7.5-16.6,16.6-16.6h106.6c9.2,0,16.6,7.5,16.6,16.6L325.9,261.7L325.9,261.7z"
		/>
	<path class="st1" d="M309.3,161.6h-12.8c9.2,0,16.6,7.5,16.6,16.6v83.5h12.8v-83.5C325.9,169,318.5,161.6,309.3,161.6L309.3,161.6z
		"/>
	<path class="st2" d="M300.8,235.5h-89.6c-3.7,0-6.6-3-6.6-6.6V192c0-3.7,3-6.6,6.6-6.6h89.6c3.7,0,6.6,3,6.6,6.6v36.9
		C307.4,232.5,304.5,235.5,300.8,235.5z"/>
	<path class="st3" d="M300.8,185.4H288c3.7,0,6.6,3,6.6,6.6v36.9c0,3.7-3,6.6-6.6,6.6h12.8c3.7,0,6.6-3,6.6-6.6V192
		C307.4,188.3,304.5,185.4,300.8,185.4z"/>
	<path class="st4" d="M300.8,161.6h-89.6v-20c0-4.9,4-8.9,8.9-8.9h71.8c4.9,0,8.9,4,8.9,8.9V161.6z"/>
	<path class="st5" d="M291.9,132.7h-10.2c4.9,0,8.9,4,8.9,8.9v20h10.2v-20C300.8,136.7,296.8,132.7,291.9,132.7z"/>
	<path class="st4" d="M247.9,201.8l-69.5,40.9c-5.8,3.4-8.7,10.1-7.2,16.7l26.9,117.8h115.7l26.9-117.8c1.5-6.5-1.4-13.3-7.2-16.7
		l-69.5-40.9C259.1,198.9,252.9,198.9,247.9,201.8L247.9,201.8z"/>
	<path class="st5" d="M333.5,242.7l-69.5-40.9c-5-2.9-11.2-2.9-16.1,0l-4.7,2.8c2,0.3,3.9,1,5.6,2l69.5,40.9
		c5.8,3.4,8.7,10.1,7.2,16.7l-25.8,113h14.1l26.9-117.8C342.2,252.8,339.3,246.1,333.5,242.7L333.5,242.7z"/>
	<g>
		<path class="st0" d="M243.6,275.7c7.4-5.4,17.5-5.4,24.9,0l58.9,42.5l5.9-25.7l-64.7-46.8c-7.4-5.4-17.5-5.4-24.9,0l-64.7,46.8
			l5.9,25.7L243.6,275.7z"/>
	</g>
	<path class="st1" d="M333.2,292.5l-12.1-8.7l-5.9,25.7l12.1,8.7L333.2,292.5z"/>
	<path class="st2" d="M110.4,350c24.3,0,24.3,11.7,48.5,11.7s24.3-11.7,48.5-11.7c24.3,0,24.3,11.7,48.5,11.7
		c24.3,0,24.3-11.7,48.5-11.7c24.3,0,24.3,11.7,48.5,11.7s24.3-11.7,48.5-11.7v48.8c0,2.8-2.3,5.1-5.1,5.1H115.4
		c-2.8,0-5.1-2.3-5.1-5.1L110.4,350z"/>
	<g>
		<path class="st3" d="M391.2,350.8v47.9c0,2.8-2.3,5.1-5.1,5.1h10.4c2.8,0,5.1-2.3,5.1-5.1V350C397.5,350,394.2,350.3,391.2,350.8z
			"/>
	</g>
	<g>
		<path d="M221.2,146.3v1.7c0,2.4,2,4.4,4.4,4.4c2.4,0,4.4-2,4.4-4.4v-1.7c0-2.4-2-4.4-4.4-4.4C223.2,141.9,221.2,143.9,221.2,146.3
			z"/>
		<path d="M240.8,152.4c2.4,0,4.4-2,4.4-4.4v-1.7c0-2.4-2-4.4-4.4-4.4c-2.4,0-4.4,2-4.4,4.4v1.7
			C236.4,150.4,238.4,152.4,240.8,152.4z"/>
		<path d="M260.4,148v-1.7c0-2.4-2-4.4-4.4-4.4c-2.4,0-4.4,2-4.4,4.4v1.7c0,2.4,2,4.4,4.4,4.4C258.4,152.4,260.4,150.4,260.4,148z"
			/>
		<path d="M275.6,148v-1.7c0-2.4-2-4.4-4.4-4.4c-2.4,0-4.4,2-4.4,4.4v1.7c0,2.4,2,4.4,4.4,4.4C273.6,152.4,275.6,150.4,275.6,148z"
			/>
		<path d="M290.8,148v-1.7c0-2.4-2-4.4-4.4-4.4c-2.4,0-4.4,2-4.4,4.4v1.7c0,2.4,2,4.4,4.4,4.4C288.8,152.4,290.8,150.4,290.8,148z"
			/>
		<path d="M401.6,345.6c-25.2,0-25.9,11.7-48.5,11.7c-14.7,0-19.5-4.6-28.3-8.1l20.3-88.9c1.9-8.4-1.8-17-9.2-21.4l-5.4-3.2v-26
			c0-2.4-2-4.4-4.4-4.4c-2.4,0-4.4,2-4.4,4.4v20.8l-9.7-5.7V192c0-6.1-4.9-11-11-11h-89.6c-6.1,0-11,4.9-11,11v32.8l-9.7,5.7v-52.3
			c0-6.8,5.5-12.3,12.3-12.3h106.6c6.8,0,12.3,5.5,12.3,12.3v13.9c0,2.4,2,4.4,4.4,4.4c2.4,0,4.4-2,4.4-4.4v-13.9
			c0-11.6-9.4-21-21-21h-4.1v-15.6c0-7.3-6-13.3-13.3-13.3h-31.5v-5.4h1.8c2.4,0,4.4-2,4.4-4.4c0-2.4-2-4.4-4.4-4.4h-1.8v-1.5
			c0-2.4-2-4.4-4.4-4.4c-2.4,0-4.4,2-4.4,4.4v1.5h-1.8c-2.4,0-4.4,2-4.4,4.4c0,2.4,2,4.4,4.4,4.4h1.8v5.4h-10.8
			c-2.4,0-4.4,2-4.4,4.4s2,4.4,4.4,4.4h51.1c2.5,0,4.5,2,4.5,4.5v15.6h-80.8v-15.6c0-2.5,2-4.5,4.5-4.5h3.2c2.4,0,4.4-2,4.4-4.4
			s-2-4.4-4.4-4.4h-3.2c-7.3,0-13.3,6-13.3,13.3v15.6h-4.1c-11.6,0-21,9.4-21,21v57.5l-5.4,3.2c-7.5,4.4-11.2,13-9.2,21.4
			c10.5,46.2,18.7,81.9,20.3,88.8c-8.9,3.6-13.6,8.1-28.3,8.1c-22.7,0-23.2-11.7-48.5-11.7c-2.4,0-4.4,2-4.4,4.4s2,4.4,4.4,4.4
			c22.7,0,23.2,11.7,48.5,11.7c25.2,0,25.9-11.7,48.5-11.7c22.7,0,23.2,11.7,48.5,11.7c25.2,0,25.9-11.7,48.5-11.7
			c22.7,0,23.2,11.7,48.5,11.7c25.2,0,25.9-11.7,48.5-11.7c2.4,0,4.4-2,4.4-4.4S404,345.6,401.6,345.6z M209,192
			c0-1.2,1-2.2,2.2-2.2h89.6c1.2,0,2.2,1,2.2,2.2v27.7L266.3,198c-6.3-3.7-14.2-3.7-20.6,0L209,219.6L209,192L209,192z M180.7,246.5
			l69.5-40.9c3.6-2.1,8.1-2.1,11.7,0l69.5,40.9c4.1,2.4,6.2,7.2,5.1,11.9l-6.1,26.6L271,242.1c-9-6.5-21.1-6.5-30,0L181.6,285
			l-6.1-26.6C174.5,253.7,176.6,248.9,180.7,246.5L180.7,246.5z M256,357.3c-22.7,0-23.2-11.7-48.5-11.7c-4.6,0-8.5,0.4-11.8,1.1
			l-6.1-26.6l9.6-6.9c2-1.4,2.4-4.2,1-6.1c-1.4-2-4.2-2.4-6.1-1l-6.5,4.7l-2.9-12.7l-0.9-3.8l62.4-45.1c5.9-4.3,13.8-4.3,19.7,0
			l62.4,45.1l-3.7,16.4L271,272.1c-9-6.5-21.1-6.5-30,0l-32.5,23.5c-2,1.4-2.4,4.2-1,6.1c1.4,2,4.2,2.4,6.1,1l32.5-23.5
			c5.9-4.3,13.8-4.3,19.7,0l56.5,40.8l-6.1,26.6c-3.3-0.7-7.2-1.1-11.8-1.1C279.3,345.6,278.6,357.3,256,357.3L256,357.3z"/>
		<path d="M299.3,316c-2.4-0.5-4.7,0.9-5.3,3.3l-3,13c-0.5,2.4,0.9,4.7,3.3,5.3c0.3,0.1,0.7,0.1,1,0.1c2,0,3.8-1.4,4.3-3.4l3-13
			C303.1,318.8,301.7,316.5,299.3,316z"/>
		<path d="M201.8,256l9.9-7.2c2-1.4,2.4-4.2,1-6.1c-1.4-2-4.2-2.4-6.1-1l-9.9,7.2c-2,1.4-2.4,4.2-1,6.1
			C197.1,257,199.9,257.4,201.8,256z"/>
		<path d="M300.3,248.8l9.9,7.2c2,1.4,4.7,1,6.1-1c1.4-2,1-4.7-1-6.1l-9.9-7.2c-2-1.4-4.7-1-6.1,1
			C297.9,244.6,298.3,247.4,300.3,248.8L300.3,248.8z"/>
	</g>
</g>
</svg>
