<?xml version="1.0" encoding="utf-8"?>
<!-- Generator: Adobe Illustrator 24.3.0, SVG Export Plug-In . SVG Version: 6.00 Build 0)  -->
<svg version="1.1" id="Layer_1" xmlns="http://www.w3.org/2000/svg" xmlns:xlink="http://www.w3.org/1999/xlink" x="0px" y="0px"
	 viewBox="0 0 500 500" style="enable-background:new 0 0 500 500;" xml:space="preserve">
<style type="text/css">
	.st0{enable-background:new    ;}
	.st1{fill:#C5C5C5;}
	.st2{fill:#898989;}
	.st3{fill:#DCDCDC;}
	.st4{fill:#14213D;}
	.st5{fill:#E8EEF4;}
	.st6{clip-path:url(#SVGID_2_);enable-background:new    ;}
	.st7{fill:#C1C8DC;}
	.st8{clip-path:url(#SVGID_4_);enable-background:new    ;}
	.st9{fill:#CCD4EB;}
	.st10{clip-path:url(#SVGID_6_);enable-background:new    ;}
	.st11{clip-path:url(#SVGID_8_);enable-background:new    ;}
	.st12{clip-path:url(#SVGID_10_);enable-background:new    ;}
	.st13{fill:#10191B;}
	.st14{fill:#242A31;}
	.st15{clip-path:url(#SVGID_12_);enable-background:new    ;}
	.st16{fill:#A8AAAD;}
	.st17{clip-path:url(#SVGID_14_);enable-background:new    ;}
	.st18{fill:#D6D6D6;}
	.st19{clip-path:url(#SVGID_16_);enable-background:new    ;}
	.st20{fill:#A7A8AA;stroke:#D6D6D6;stroke-miterlimit:10;}
	.st21{fill:#D6D6D6;stroke:#D6D6D6;stroke-miterlimit:10;}
	.st22{clip-path:url(#SVGID_18_);enable-background:new    ;}
	.st23{fill:#F4F4F4;}
	.st24{fill:#FFFFFF;}
	.st25{fill:#DDDDDD;}
	.st26{fill:#B7B8BC;}
	.st27{clip-path:url(#SVGID_20_);enable-background:new    ;}
	.st28{clip-path:url(#SVGID_22_);enable-background:new    ;}
	.st29{clip-path:url(#SVGID_24_);enable-background:new    ;}
	.st30{clip-path:url(#SVGID_26_);enable-background:new    ;}
	.st31{clip-path:url(#SVGID_28_);enable-background:new    ;}
	.st32{fill:#D8DFE9;}
	.st33{clip-path:url(#SVGID_30_);enable-background:new    ;}
	.st34{clip-path:url(#SVGID_32_);enable-background:new    ;}
	.st35{clip-path:url(#SVGID_34_);enable-background:new    ;}
	.st36{clip-path:url(#SVGID_36_);enable-background:new    ;}
	.st37{clip-path:url(#SVGID_38_);enable-background:new    ;}
	.st38{clip-path:url(#SVGID_40_);enable-background:new    ;}
	.st39{clip-path:url(#SVGID_42_);enable-background:new    ;}
	.st40{clip-path:url(#SVGID_44_);enable-background:new    ;}
	.st41{opacity:0.2;fill:#FFFFFF;}
</style>
<g id="space_telescope_2_">
	<g>
		<g>
			<g>
				<g class="st0">
					<g>
						<polygon class="st1" points="425,247.96 424.99,251.84 367.59,285.21 367.6,281.33 						"/>
					</g>
					<g>
						<polygon class="st2" points="367.6,281.33 367.59,285.21 258.24,222.1 258.25,218.22 						"/>
					</g>
					<g>
						<polygon class="st3" points="425,247.96 367.6,281.33 258.25,218.22 315.65,184.85 						"/>
					</g>
				</g>
			</g>
			<g>
				<polygon class="st4" points="422.12,248.18 413.95,252.89 368.45,279.16 322.95,252.89 274.11,224.69 262.23,217.83 
					271.83,212.29 298.95,196.63 315.9,186.85 332.84,196.63 359.96,212.29 381.45,224.69 				"/>
				<path class="st5" d="M360.45,243.92l17.63,10.18l-13.18,7.61l-17.63-10.18L360.45,243.92z M374.27,235.94l17.63,10.18
					l-13.18,7.61l-17.63-10.18L374.27,235.94z M342.18,233.38l17.63,10.18l-13.18,7.61l-17.63-10.18L342.18,233.38z M356,225.39
					l17.63,10.18l-13.18,7.61L342.82,233L356,225.39z M323.91,222.83L341.53,233l-13.18,7.61l-17.62-10.18L323.91,222.83z
					 M337.74,214.85l17.62,10.18l-13.18,7.61l-17.62-10.18L337.74,214.85z M305.64,212.28l17.63,10.18l-13.18,7.61l-17.63-10.18
					L305.64,212.28z M319.46,204.3l17.63,10.18l-13.18,7.61l-17.63-10.18L319.46,204.3z M318.82,203.93l-13.18,7.61l-16.25-9.38
					l-0.64,0.37l16.25,9.38l-13.18,7.61l-16.25-9.38l-0.64,0.37l16.25,9.38l-12.69,7.32l0.64,0.37l12.69-7.32l17.63,10.18
					l-12.69,7.32l0.64,0.37l12.69-7.32l17.62,10.18l-12.69,7.32l0.64,0.37l12.69-7.32l17.63,10.18l-12.69,7.32l0.64,0.37l12.69-7.32
					l17.63,10.18l-12.69,7.32l0.64,0.37l12.69-7.32l16.25,9.38l0.64-0.37l-16.25-9.38l13.18-7.61l16.25,9.38l0.64-0.37l-16.25-9.38
					l13.18-7.61l16.25,9.38l0.64-0.37l-16.25-9.38l12.69-7.32l-0.64-0.37l-12.69,7.32l-17.63-10.18l12.69-7.32l-0.64-0.37
					l-12.69,7.32l-17.63-10.18l12.69-7.32l-0.64-0.37L356,224.65l-17.62-10.18l12.69-7.32l-0.64-0.37l-12.69,7.32l-17.63-10.18
					l12.69-7.32l-0.64-0.37l-12.69,7.32l-16.25-9.38l-0.64,0.37L318.82,203.93z"/>
			</g>
		</g>
		<g>
			<g class="st0">
				<g class="st0">
					<defs>
						<path id="SVGID_1_" class="st0" d="M346.6,270.92l-22.36,12.67c0.35-0.2,0.84-0.17,1.38,0.15l22.36-12.67
							C347.44,270.76,346.95,270.72,346.6,270.92z"/>
					</defs>
					<clipPath id="SVGID_2_">
						<use xlink:href="#SVGID_1_"  style="overflow:visible;"/>
					</clipPath>
					<g class="st6">
						<path class="st5" d="M325.61,283.74l22.36-12.67c-0.2-0.12-0.4-0.2-0.59-0.24l-22.36,12.67
							C325.21,283.54,325.41,283.62,325.61,283.74L325.61,283.74z"/>
						<path class="st5" d="M325.02,283.5l22.36-12.67c-0.28-0.06-0.54-0.04-0.75,0.07l-22.36,12.67
							C324.48,283.46,324.74,283.43,325.02,283.5L325.02,283.5z"/>
						<path class="st7" d="M324.27,283.57l22.36-12.67c-0.01,0.01-0.02,0.01-0.03,0.02l-22.36,12.67
							C324.25,283.58,324.26,283.57,324.27,283.57L324.27,283.57z"/>
					</g>
				</g>
				<g class="st0">
					<defs>
						<path id="SVGID_3_" class="st0" d="M326.92,288.33l22.36-12.67c0.35-0.2,0.57-0.62,0.58-1.23c0.02-1.23-0.83-2.73-1.89-3.36
							l-22.36,12.67c1.06,0.63,1.91,2.13,1.89,3.36C327.49,287.71,327.27,288.14,326.92,288.33z"/>
					</defs>
					<clipPath id="SVGID_4_">
						<use xlink:href="#SVGID_3_"  style="overflow:visible;"/>
					</clipPath>
					<g class="st8">
						<path class="st7" d="M326.92,288.33l22.36-12.67c0.35-0.2,0.57-0.62,0.58-1.23c0.01-0.47-0.11-0.98-0.32-1.47l-22.36,12.67
							c0.21,0.49,0.33,1,0.32,1.47C327.49,287.71,327.27,288.14,326.92,288.33L326.92,288.33z"/>
						<path class="st5" d="M327.18,285.63l22.36-12.67c-0.16-0.38-0.38-0.74-0.64-1.06l-22.36,12.67
							C326.8,284.89,327.01,285.25,327.18,285.63L327.18,285.63z"/>
						<path class="st5" d="M326.54,284.57l22.36-12.67c-0.27-0.34-0.59-0.63-0.93-0.83l-22.36,12.67
							C325.95,283.94,326.27,284.23,326.54,284.57L326.54,284.57z"/>
					</g>
				</g>
				<g>
					<path class="st9" d="M325.61,283.74c-1.06-0.63-1.94-0.14-1.95,1.09c-0.02,1.23,0.83,2.73,1.89,3.36
						c1.06,0.63,1.94,0.14,1.95-1.08C327.52,285.87,326.67,284.37,325.61,283.74z"/>
				</g>
			</g>
		</g>
		<g>
			<g class="st0">
				<g class="st0">
					<defs>
						<path id="SVGID_5_" class="st0" d="M274.76,229.35l-22.36,12.67c0.35-0.2,0.84-0.17,1.38,0.15l22.36-12.67
							C275.6,229.18,275.12,229.15,274.76,229.35z"/>
					</defs>
					<clipPath id="SVGID_6_">
						<use xlink:href="#SVGID_5_"  style="overflow:visible;"/>
					</clipPath>
					<g class="st10">
						<path class="st5" d="M253.78,242.17l22.36-12.67c-0.2-0.12-0.4-0.2-0.59-0.24l-22.36,12.67
							C253.37,241.97,253.57,242.05,253.78,242.17L253.78,242.17z"/>
						<path class="st5" d="M253.19,241.92l22.36-12.67c-0.28-0.06-0.54-0.04-0.75,0.07L252.43,242
							C252.65,241.89,252.9,241.86,253.19,241.92L253.19,241.92z"/>
						<path class="st7" d="M252.43,242l22.36-12.67c-0.01,0.01-0.02,0.01-0.03,0.02l-22.36,12.67
							C252.41,242.01,252.42,242,252.43,242L252.43,242z"/>
					</g>
				</g>
				<g class="st0">
					<defs>
						<path id="SVGID_7_" class="st0" d="M255.09,246.76l22.36-12.67c0.35-0.2,0.57-0.62,0.58-1.23c0.02-1.23-0.83-2.73-1.89-3.36
							l-22.36,12.67c1.06,0.63,1.91,2.13,1.89,3.36C255.66,246.14,255.44,246.56,255.09,246.76z"/>
					</defs>
					<clipPath id="SVGID_8_">
						<use xlink:href="#SVGID_7_"  style="overflow:visible;"/>
					</clipPath>
					<g class="st11">
						<path class="st7" d="M255.09,246.76l22.36-12.67c0.35-0.2,0.57-0.62,0.58-1.23c0.01-0.47-0.11-0.98-0.32-1.47l-22.36,12.67
							c0.21,0.49,0.33,1,0.32,1.47C255.66,246.14,255.44,246.56,255.09,246.76L255.09,246.76z"/>
						<path class="st5" d="M255.34,244.06l22.36-12.67c-0.16-0.38-0.38-0.74-0.64-1.06L254.7,243
							C254.96,243.32,255.18,243.68,255.34,244.06L255.34,244.06z"/>
						<path class="st5" d="M254.7,243l22.36-12.67c-0.27-0.34-0.59-0.63-0.93-0.83l-22.36,12.67
							C254.11,242.37,254.43,242.66,254.7,243L254.7,243z"/>
					</g>
				</g>
				<g>
					<path class="st9" d="M253.78,242.17c-1.06-0.63-1.94-0.14-1.95,1.09c-0.02,1.23,0.83,2.73,1.89,3.36
						c1.06,0.63,1.94,0.14,1.95-1.08C255.68,244.3,254.84,242.79,253.78,242.17z"/>
				</g>
			</g>
		</g>
	</g>
	<g>
		<g class="st0">
			<g class="st0">
				<defs>
					<path id="SVGID_9_" class="st0" d="M113.88,185.57l-1.87,0.51c-9.43,2.6-20.15-0.5-27.91-9.15
						c-11.51-12.83-12.18-33-1.49-45.06c3.48-3.93,7.74-6.51,12.29-7.76l1.87-0.51c-4.56,1.25-8.81,3.84-12.3,7.76
						c-10.69,12.06-10.02,32.23,1.49,45.06C93.73,185.07,104.44,188.17,113.88,185.57z"/>
				</defs>
				<use xlink:href="#SVGID_9_"  style="overflow:visible;fill:#10191B;"/>
				<clipPath id="SVGID_10_">
					<use xlink:href="#SVGID_9_"  style="overflow:visible;"/>
				</clipPath>
				<g class="st12">
					<path class="st13" d="M113.88,185.57l-1.87,0.51c-9.43,2.6-20.15-0.5-27.91-9.15c-11.51-12.83-12.18-33-1.49-45.06
						c3.48-3.93,7.74-6.51,12.29-7.76l1.87-0.51c-4.56,1.25-8.81,3.84-12.3,7.76c-10.69,12.06-10.02,32.23,1.49,45.06
						C93.73,185.07,104.44,188.17,113.88,185.57L113.88,185.57z"/>
				</g>
			</g>
			<g>
				<path class="st14" d="M124.68,132.74c11.52,12.83,12.19,33,1.5,45.06c-10.69,12.06-28.69,11.44-40.21-1.39
					c-11.51-12.83-12.18-33-1.49-45.06C95.16,119.3,113.17,119.92,124.68,132.74z"/>
			</g>
		</g>
	</g>
	<g>
		<g class="st0">
			<g class="st0">
				<defs>
					<path id="SVGID_11_" class="st0" d="M157.12,177.2l-11.22-6.73c-4.61-2.73-11.02-2.39-18.13,1.64l11.22,6.73
						C146.09,174.8,152.51,174.47,157.12,177.2z"/>
				</defs>
				<clipPath id="SVGID_12_">
					<use xlink:href="#SVGID_11_"  style="overflow:visible;"/>
				</clipPath>
				<g class="st15">
					<path class="st16" d="M157.12,177.2l-11.22-6.73c-2.57-1.52-5.71-2.09-9.22-1.59l11.22,6.73
						C151.4,175.11,154.54,175.67,157.12,177.2L157.12,177.2z"/>
					<path class="st5" d="M147.89,175.6l-11.22-6.73c-2.06,0.29-4.25,0.95-6.53,2.01l11.22,6.73
						C143.64,176.56,145.83,175.9,147.89,175.6L147.89,175.6z"/>
					<path class="st5" d="M141.37,177.61l-11.22-6.73c-0.78,0.36-1.58,0.77-2.38,1.22l11.22,6.73
						C139.79,178.38,140.58,177.97,141.37,177.61L141.37,177.61z"/>
				</g>
			</g>
			<g class="st0">
				<defs>
					<path id="SVGID_13_" class="st0" d="M109.36,232.25l11.22,6.73c-4.55-2.69-7.34-8.36-7.3-16.39
						c0.08-16.16,11.59-35.75,25.71-43.76l-11.22-6.73c-14.12,8.01-25.63,27.6-25.71,43.76
						C102.02,223.89,104.81,229.56,109.36,232.25z"/>
				</defs>
				<clipPath id="SVGID_14_">
					<use xlink:href="#SVGID_13_"  style="overflow:visible;"/>
				</clipPath>
				<g class="st17">
					<path class="st5" d="M138.99,178.83l-11.22-6.73c-1.51,0.86-2.99,1.85-4.43,2.95l11.22,6.73
						C136,180.68,137.48,179.69,138.99,178.83L138.99,178.83z"/>
					<path class="st5" d="M134.56,181.78l-11.22-6.73c-8.96,6.87-16.35,18.16-19.56,29.44l11.22,6.73
						C118.2,199.95,125.59,188.65,134.56,181.78L134.56,181.78z"/>
					<path class="st5" d="M115,211.23l-11.22-6.73c-0.8,2.81-1.34,5.63-1.58,8.37l11.22,6.73C113.66,216.85,114.2,214.04,115,211.23
						L115,211.23z"/>
					<path class="st5" d="M113.42,219.6l-11.22-6.73c-0.09,1.01-0.14,2.01-0.14,3c-0.01,1.64,0.1,3.19,0.32,4.63l11.22,6.73
						c-0.22-1.44-0.33-2.99-0.32-4.63C113.28,221.61,113.33,220.61,113.42,219.6L113.42,219.6z"/>
					<path class="st16" d="M113.6,227.22l-11.22-6.73c0.86,5.59,3.36,9.62,6.98,11.76l11.22,6.73
						C116.96,236.84,114.46,232.82,113.6,227.22L113.6,227.22z"/>
				</g>
			</g>
			<g>
				<path class="st18" d="M138.99,178.83c-14.12,8.01-25.63,27.6-25.71,43.76c-0.08,16.16,11.31,22.76,25.43,14.75
					c14.12-8.01,25.63-27.6,25.71-43.76C164.5,177.43,153.11,170.82,138.99,178.83z"/>
			</g>
		</g>
	</g>
	<g>
		<g class="st0">
			<g>
				<defs>
					<path id="SVGID_15_" d="M229.82,225.31l-71.37-42.16c-4.05-2.4-9.69-2.11-15.94,1.44l71.37,42.16
						C220.13,223.2,225.77,222.91,229.82,225.31z"/>
				</defs>
				<use xlink:href="#SVGID_15_"  style="overflow:visible;fill:#A4A9C2;"/>
				<clipPath id="SVGID_16_">
					<use xlink:href="#SVGID_15_"  style="overflow:visible;"/>
				</clipPath>
				<g class="st19">
					<path class="st20" d="M229.82,225.31l-71.37-42.16c-2.26-1.34-5.02-1.84-8.11-1.4l71.37,42.16
						C224.8,223.47,227.56,223.97,229.82,225.31L229.82,225.31z"/>
					<path class="st21" d="M221.72,223.91l-71.37-42.16c-1.81,0.26-3.74,0.84-5.74,1.76l71.37,42.16
						C217.98,224.75,219.9,224.17,221.72,223.91L221.72,223.91z"/>
					<path class="st21" d="M215.98,225.67l-71.37-42.16c-0.69,0.32-1.39,0.68-2.09,1.08l71.37,42.16
						C214.59,226.35,215.29,225.99,215.98,225.67L215.98,225.67z"/>
				</g>
			</g>
			<g class="st0">
				<defs>
					<path id="SVGID_17_" class="st0" d="M126.34,237.46l71.37,42.16c-4-2.37-6.45-7.35-6.42-14.41
						c0.07-14.2,10.19-31.43,22.6-38.47l-71.37-42.16c-12.42,7.04-22.53,24.27-22.6,38.47C119.88,230.11,122.34,235.1,126.34,237.46
						z"/>
				</defs>
				<use xlink:href="#SVGID_17_"  style="overflow:visible;fill:#E8EEF4;"/>
				<clipPath id="SVGID_18_">
					<use xlink:href="#SVGID_17_"  style="overflow:visible;"/>
				</clipPath>
				<g class="st22">
					<path class="st23" d="M213.89,226.75l-71.37-42.16c-1.33,0.75-2.63,1.62-3.9,2.59l71.37,42.16
						C211.26,228.37,212.56,227.5,213.89,226.75L213.89,226.75z"/>
					<path class="st24" d="M209.99,229.34l-71.37-42.16c-7.88,6.04-14.38,15.97-17.2,25.88l71.37,42.16
						C195.61,245.31,202.11,235.38,209.99,229.34L209.99,229.34z"/>
					<path class="st25" d="M192.79,255.23l-71.37-42.16c-0.7,2.47-1.18,4.95-1.39,7.36l71.37,42.16
						C191.62,260.17,192.09,257.7,192.79,255.23L192.79,255.23z"/>
					<path class="st18" d="M191.41,262.58l-71.37-42.16c-0.08,0.89-0.12,1.77-0.12,2.64c-0.01,1.45,0.09,2.8,0.28,4.07l71.37,42.16
						c-0.19-1.27-0.29-2.63-0.28-4.07C191.29,264.35,191.33,263.47,191.41,262.58L191.41,262.58z"/>
					<path class="st26" d="M191.57,269.29l-71.37-42.16c0.75,4.92,2.95,8.45,6.13,10.33l71.37,42.16
						C194.52,277.74,192.32,274.21,191.57,269.29L191.57,269.29z"/>
				</g>
			</g>
			<g>
				
					<ellipse transform="matrix(0.509 -0.8608 0.8608 0.509 -112.3579 307.9564)" class="st5" cx="213.76" cy="252.47" rx="31.55" ry="18.28"/>
			</g>
		</g>
	</g>
	<g>
		<g class="st0">
			<g class="st0">
				<defs>
					<path id="SVGID_19_" class="st0" d="M330.58,273.36l-92.74-54.79c-5.27-3.11-12.59-2.74-20.71,1.87l92.74,54.79
						C317.99,270.62,325.31,270.24,330.58,273.36z"/>
				</defs>
				<clipPath id="SVGID_20_">
					<use xlink:href="#SVGID_19_"  style="overflow:visible;"/>
				</clipPath>
				<g class="st27">
					<path class="st7" d="M330.58,273.36l-92.74-54.79c-2.94-1.74-6.53-2.39-10.53-1.82l92.74,54.79
						C324.05,270.97,327.64,271.62,330.58,273.36L330.58,273.36z"/>
					<path class="st5" d="M320.04,271.53l-92.74-54.79c-2.36,0.33-4.86,1.09-7.46,2.29l92.74,54.79
						C315.19,272.62,317.69,271.87,320.04,271.53L320.04,271.53z"/>
					<path class="st5" d="M312.58,273.83l-92.74-54.79c-0.89,0.41-1.8,0.88-2.72,1.4l92.74,54.79
						C310.78,274.7,311.69,274.24,312.58,273.83L312.58,273.83z"/>
				</g>
			</g>
			<g class="st0">
				<defs>
					<path id="SVGID_21_" class="st0" d="M196.09,289.15l92.74,54.79c-5.2-3.07-8.39-9.55-8.34-18.72
						c0.09-18.46,13.24-40.84,29.37-49.99l-92.74-54.79c-16.13,9.15-29.28,31.54-29.37,49.99
						C187.71,279.6,190.89,286.08,196.09,289.15z"/>
				</defs>
				<clipPath id="SVGID_22_">
					<use xlink:href="#SVGID_21_"  style="overflow:visible;"/>
				</clipPath>
				<g class="st28">
					<path class="st5" d="M309.87,275.22l-92.74-54.79c-1.73,0.98-3.42,2.11-5.06,3.37l92.74,54.79
						C306.45,277.33,308.14,276.2,309.87,275.22L309.87,275.22z"/>
					<path class="st24" d="M304.8,278.59l-92.74-54.79c-10.24,7.85-18.68,20.75-22.35,33.64l92.74,54.79
						C286.12,299.34,294.56,286.44,304.8,278.59L304.8,278.59z"/>
					<path class="st5" d="M282.46,312.23l-92.74-54.79c-0.91,3.21-1.53,6.43-1.8,9.56l92.74,54.79
						C280.93,318.66,281.54,315.45,282.46,312.23L282.46,312.23z"/>
					<path class="st5" d="M280.65,321.79L187.91,267c-0.1,1.15-0.15,2.3-0.16,3.42c-0.01,1.88,0.12,3.64,0.37,5.29l92.74,54.79
						c-0.25-1.65-0.38-3.41-0.37-5.29C280.5,324.09,280.55,322.95,280.65,321.79L280.65,321.79z"/>
					<path class="st7" d="M280.86,330.51l-92.74-54.79c0.98,6.39,3.84,10.99,7.97,13.43l92.74,54.79
						C284.7,341.5,281.84,336.9,280.86,330.51L280.86,330.51z"/>
				</g>
			</g>
			<g>
				
					<ellipse transform="matrix(0.509 -0.8608 0.8608 0.509 -113.6084 418.1256)" class="st16" cx="309.71" cy="308.65" rx="41" ry="23.75"/>
			</g>
		</g>
	</g>
	<g>
		<g class="st0">
			<g class="st0">
				<defs>
					<path id="SVGID_23_" class="st0" d="M342.1,288.18l-12.99-7.77c-4.5-2.66-10.76-2.34-17.7,1.6l12.99,7.77
						C331.34,285.84,337.6,285.52,342.1,288.18z"/>
				</defs>
				<clipPath id="SVGID_24_">
					<use xlink:href="#SVGID_23_"  style="overflow:visible;"/>
				</clipPath>
				<g class="st29">
					<path class="st7" d="M342.1,288.18l-12.99-7.77c-2.51-1.49-5.58-2.05-9-1.56l12.99,7.77
						C336.52,286.14,339.58,286.69,342.1,288.18L342.1,288.18z"/>
					<path class="st5" d="M333.09,286.62l-12.99-7.77c-2.01,0.29-4.15,0.93-6.37,1.96l12.99,7.77
						C328.94,287.55,331.08,286.91,333.09,286.62L333.09,286.62z"/>
					<path class="st5" d="M326.72,288.58l-12.99-7.77c-0.76,0.35-1.54,0.75-2.32,1.2l12.99,7.77
						C325.18,289.34,325.96,288.94,326.72,288.58L326.72,288.58z"/>
				</g>
			</g>
			<g class="st0">
				<defs>
					<path id="SVGID_25_" class="st0" d="M293.43,340.83l12.99,7.77c-4.44-2.63-7.17-8.17-7.13-16.02
						c0.08-15.8,11.32-34.96,25.11-42.79l-12.99-7.77c-13.79,7.83-25.03,26.99-25.11,42.79
						C286.26,332.65,288.99,338.2,293.43,340.83z"/>
				</defs>
				<clipPath id="SVGID_26_">
					<use xlink:href="#SVGID_25_"  style="overflow:visible;"/>
				</clipPath>
				<g class="st30">
					<path class="st5" d="M324.4,289.78l-12.99-7.77c-1.47,0.84-2.92,1.81-4.33,2.88l12.99,7.77
						C321.48,291.59,322.92,290.62,324.4,289.78L324.4,289.78z"/>
					<path class="st5" d="M320.07,292.66l-12.99-7.77c-8.75,6.72-15.97,17.76-19.1,28.79l12.99,7.77
						C304.1,310.42,311.32,299.38,320.07,292.66L320.07,292.66z"/>
					<path class="st5" d="M300.97,321.46l-12.99-7.77c-0.78,2.75-1.31,5.5-1.54,8.18l12.99,7.76
						C299.66,326.96,300.19,324.21,300.97,321.46L300.97,321.46z"/>
					<path class="st5" d="M299.43,329.64l-12.99-7.76c-0.09,0.99-0.13,1.97-0.14,2.93c-0.01,1.61,0.1,3.12,0.32,4.53l12.99,7.77
						c-0.22-1.41-0.32-2.92-0.32-4.53C299.3,331.6,299.34,330.63,299.43,329.64L299.43,329.64z"/>
					<path class="st7" d="M299.61,337.1l-12.99-7.77c0.84,5.47,3.28,9.4,6.81,11.5l12.99,7.77
						C302.89,346.5,300.44,342.57,299.61,337.1L299.61,337.1z"/>
				</g>
			</g>
			<g>
				<path class="st16" d="M324.4,289.78c-13.79,7.83-25.03,26.99-25.11,42.79c-0.08,15.8,11.04,22.26,24.83,14.42
					c13.79-7.83,25.03-26.99,25.11-42.79C349.3,288.4,338.19,281.95,324.4,289.78z"/>
			</g>
			<g>
				<g>
					<path class="st14" d="M315.04,345.5c-2.13,0-4.09-0.5-5.83-1.52c-4.1-2.4-6.34-7.34-6.31-13.92
						c0.06-13.25,9.52-29.36,21.08-35.93l0,0c5.77-3.28,11.21-3.75,15.34-1.34c4.1,2.4,6.34,7.34,6.31,13.92
						c-0.06,13.25-9.52,29.36-21.08,35.93C321.2,344.54,317.97,345.5,315.04,345.5z M333.48,292.89c-2.65,0-5.62,0.89-8.71,2.64v0
						c-11.11,6.31-20.2,21.81-20.27,34.54c-0.03,5.98,1.93,10.42,5.52,12.52c3.61,2.11,8.48,1.63,13.73-1.35
						c11.11-6.31,20.2-21.81,20.27-34.54c0.03-5.98-1.93-10.42-5.52-12.52C337.02,293.32,335.32,292.89,333.48,292.89z"/>
				</g>
			</g>
		</g>
	</g>
	<g>
		<g>
			<g class="st0">
				<g class="st0">
					<defs>
						<path id="SVGID_27_" class="st0" d="M244.82,145.22l-0.05,87.2c0,0.26-0.17,0.52-0.51,0.72c-0.69,0.4-1.8,0.4-2.5,0
							c-0.35-0.2-0.52-0.46-0.52-0.73l0.05-87.2c0,0.26,0.17,0.53,0.52,0.73c0.69,0.4,1.81,0.4,2.5,0
							C244.65,145.73,244.82,145.48,244.82,145.22z"/>
					</defs>
					<use xlink:href="#SVGID_27_"  style="overflow:visible;fill:#D8DFE9;"/>
					<clipPath id="SVGID_28_">
						<use xlink:href="#SVGID_27_"  style="overflow:visible;"/>
					</clipPath>
					<g class="st31">
						<path class="st32" d="M244.82,145.22l-0.05,87.2c0,0.17-0.08,0.35-0.23,0.5l0.05-87.2
							C244.75,145.56,244.82,145.39,244.82,145.22L244.82,145.22z"/>
						<path class="st32" d="M244.59,145.72l-0.05,87.2c-0.08,0.08-0.17,0.15-0.28,0.21c-0.12,0.07-0.25,0.13-0.39,0.17l0.05-87.2
							c0.14-0.05,0.27-0.1,0.39-0.17C244.42,145.87,244.52,145.8,244.59,145.72L244.59,145.72z"/>
						<path class="st32" d="M243.92,146.1l-0.05,87.2c-0.3,0.1-0.64,0.14-0.98,0.13l0.05-87.2
							C243.28,146.24,243.62,146.2,243.92,146.1L243.92,146.1z"/>
						<path class="st32" d="M242.95,146.23l-0.05,87.2c-0.31-0.01-0.62-0.07-0.88-0.18l0.05-87.2
							C242.33,146.16,242.64,146.22,242.95,146.23L242.95,146.23z"/>
						<path class="st32" d="M242.06,146.05l-0.05,87.2c-0.09-0.03-0.17-0.07-0.25-0.12c-0.35-0.2-0.52-0.46-0.52-0.73l0.05-87.2
							c0,0.26,0.17,0.53,0.52,0.73C241.89,145.98,241.98,146.02,242.06,146.05L242.06,146.05z"/>
					</g>
				</g>
				<g>
					<path class="st32" d="M244.3,144.49c0.69,0.4,0.7,1.05,0.01,1.45c-0.69,0.4-1.8,0.4-2.5,0c-0.69-0.4-0.7-1.05-0.01-1.45
						C242.49,144.09,243.61,144.09,244.3,144.49z"/>
				</g>
			</g>
		</g>
		<path class="st5" d="M247.98,145.21c0-2.73-2.21-4.94-4.94-4.94c-2.73,0-4.94,2.21-4.94,4.94c0,2.73,2.21,4.94,4.94,4.94
			C245.76,150.15,247.98,147.94,247.98,145.21z"/>
	</g>
	<g>
		<g>
			<g class="st0">
				<g class="st0">
					<defs>
						<path id="SVGID_29_" class="st0" d="M270.71,237.89l22.27,12.99c-1.85-1.09-4.42-0.96-7.27,0.66l-22.27-12.99
							C266.29,236.93,268.86,236.79,270.71,237.89z"/>
					</defs>
					<clipPath id="SVGID_30_">
						<use xlink:href="#SVGID_29_"  style="overflow:visible;"/>
					</clipPath>
					<g class="st33">
						<path class="st5" d="M285.71,251.53l-22.27-12.99c1.09-0.62,2.14-1.02,3.12-1.22l22.27,12.99
							C287.84,250.51,286.8,250.91,285.71,251.53L285.71,251.53z"/>
						<path class="st5" d="M288.83,250.31l-22.27-12.99c1.51-0.31,2.86-0.14,3.97,0.46l22.27,12.99
							C291.69,250.18,290.33,250.01,288.83,250.31L288.83,250.31z"/>
						<path class="st7" d="M292.8,250.77l-22.27-12.99c0.06,0.03,0.12,0.07,0.18,0.1l22.27,12.99
							C292.92,250.84,292.86,250.81,292.8,250.77L292.8,250.77z"/>
					</g>
				</g>
				<g class="st0">
					<defs>
						<path id="SVGID_31_" class="st0" d="M278.32,275.66l-22.27-12.99c-1.83-1.08-2.94-3.35-2.93-6.57
							c0.03-6.48,4.65-14.34,10.31-17.55l22.27,12.99c-5.67,3.21-10.28,11.07-10.31,17.55C275.38,272.31,276.5,274.58,278.32,275.66
							z"/>
					</defs>
					<clipPath id="SVGID_32_">
						<use xlink:href="#SVGID_31_"  style="overflow:visible;"/>
					</clipPath>
					<g class="st34">
						<path class="st7" d="M278.32,275.66l-22.27-12.99c-1.83-1.08-2.94-3.35-2.93-6.57c0.01-2.48,0.7-5.17,1.86-7.72l22.27,12.99
							c-1.16,2.55-1.84,5.23-1.86,7.72C275.38,272.31,276.5,274.58,278.32,275.66L278.32,275.66z"/>
						<path class="st5" d="M277.25,261.37l-22.27-12.99c0.9-1.99,2.09-3.89,3.48-5.55l22.27,12.99
							C279.35,257.48,278.15,259.38,277.25,261.37L277.25,261.37z"/>
						<path class="st5" d="M280.73,255.82l-22.27-12.99c1.48-1.77,3.17-3.26,4.98-4.29l22.27,12.99
							C283.9,252.55,282.21,254.05,280.73,255.82L280.73,255.82z"/>
					</g>
				</g>
				<g>
					<path class="st9" d="M285.71,251.53c5.66-3.21,10.23-0.56,10.2,5.92s-4.65,14.34-10.31,17.55c-5.66,3.21-10.23,0.56-10.2-5.92
						C275.43,262.6,280.04,254.74,285.71,251.53z"/>
				</g>
			</g>
		</g>
		<g>
			<g class="st0">
				<g class="st0">
					<defs>
						<path id="SVGID_33_" class="st0" d="M293.49,253.52l8.66,5.03c-1.6-0.94-3.82-0.83-6.28,0.57l-8.66-5.03
							C289.67,252.69,291.89,252.58,293.49,253.52z"/>
					</defs>
					<clipPath id="SVGID_34_">
						<use xlink:href="#SVGID_33_"  style="overflow:visible;"/>
					</clipPath>
					<g class="st35">
						<path class="st5" d="M295.87,259.12l-8.66-5.03c0.94-0.53,1.84-0.88,2.69-1.05l8.66,5.03
							C297.71,258.24,296.81,258.59,295.87,259.12L295.87,259.12z"/>
						<path class="st5" d="M298.56,258.07l-8.66-5.03c1.3-0.26,2.47-0.12,3.43,0.4l8.66,5.03
							C301.04,257.95,299.87,257.81,298.56,258.07L298.56,258.07z"/>
						<path class="st7" d="M302,258.47l-8.66-5.03c0.05,0.03,0.1,0.06,0.16,0.09l8.66,5.03C302.1,258.53,302.05,258.5,302,258.47
							L302,258.47z"/>
					</g>
				</g>
				<g class="st0">
					<defs>
						<path id="SVGID_35_" class="st0" d="M289.49,279.97l-8.66-5.03c-1.58-0.93-2.54-2.9-2.53-5.68c0.03-5.6,4.02-12.39,8.91-15.17
							l8.66,5.03c-4.89,2.78-8.88,9.57-8.91,15.17C286.94,277.07,287.91,279.04,289.49,279.97z"/>
					</defs>
					<clipPath id="SVGID_36_">
						<use xlink:href="#SVGID_35_"  style="overflow:visible;"/>
					</clipPath>
					<g class="st36">
						<path class="st7" d="M289.49,279.97l-8.66-5.03c-1.58-0.93-2.54-2.9-2.53-5.68c0.01-2.15,0.6-4.47,1.6-6.67l8.66,5.03
							c-1,2.2-1.59,4.52-1.6,6.67C286.94,277.07,287.91,279.04,289.49,279.97L289.49,279.97z"/>
						<path class="st5" d="M288.56,267.62l-8.66-5.03c0.78-1.72,1.81-3.36,3.01-4.79l8.66,5.03
							C290.37,264.26,289.34,265.91,288.56,267.62L288.56,267.62z"/>
						<path class="st5" d="M291.57,262.83l-8.66-5.03c1.28-1.53,2.74-2.82,4.3-3.7l8.66,5.03
							C294.31,260.01,292.84,261.3,291.57,262.83L291.57,262.83z"/>
					</g>
				</g>
				<g>
					<path class="st9" d="M295.87,259.12c4.89-2.78,8.84-0.49,8.81,5.11c-0.03,5.6-4.02,12.39-8.91,15.17
						c-4.89,2.78-8.84,0.49-8.81-5.11C286.98,268.69,290.97,261.9,295.87,259.12z"/>
				</g>
			</g>
		</g>
	</g>
	<g>
		<g>
			<g class="st0">
				<g class="st0">
					<defs>
						<path id="SVGID_37_" class="st0" d="M265.97,316.34l-22.36,12.67c0.35-0.2,0.84-0.17,1.38,0.15l22.36-12.67
							C266.82,316.18,266.33,316.14,265.97,316.34z"/>
					</defs>
					<clipPath id="SVGID_38_">
						<use xlink:href="#SVGID_37_"  style="overflow:visible;"/>
					</clipPath>
					<g class="st37">
						<path class="st5" d="M244.99,329.16l22.36-12.67c-0.2-0.12-0.4-0.2-0.59-0.24l-22.36,12.67
							C244.59,328.96,244.78,329.04,244.99,329.16L244.99,329.16z"/>
						<path class="st5" d="M244.4,328.92l22.36-12.67c-0.28-0.06-0.54-0.04-0.75,0.07l-22.36,12.67
							C243.86,328.88,244.12,328.86,244.4,328.92L244.4,328.92z"/>
						<path class="st7" d="M243.65,328.99l22.36-12.67c-0.01,0.01-0.02,0.01-0.03,0.02l-22.36,12.67
							C243.62,329,243.64,329,243.65,328.99L243.65,328.99z"/>
					</g>
				</g>
				<g class="st0">
					<defs>
						<path id="SVGID_39_" class="st0" d="M246.3,333.76l22.36-12.67c0.35-0.2,0.57-0.62,0.58-1.23c0.02-1.23-0.83-2.73-1.89-3.36
							l-22.36,12.67c1.06,0.63,1.91,2.13,1.89,3.36C246.87,333.13,246.65,333.56,246.3,333.76z"/>
					</defs>
					<clipPath id="SVGID_40_">
						<use xlink:href="#SVGID_39_"  style="overflow:visible;"/>
					</clipPath>
					<g class="st38">
						<path class="st7" d="M246.3,333.76l22.36-12.67c0.35-0.2,0.57-0.62,0.58-1.23c0.01-0.47-0.11-0.98-0.32-1.47l-22.36,12.67
							c0.21,0.49,0.33,1,0.32,1.47C246.87,333.13,246.65,333.56,246.3,333.76L246.3,333.76z"/>
						<path class="st5" d="M246.56,331.05l22.36-12.67c-0.16-0.38-0.38-0.74-0.64-1.06l-22.36,12.67
							C246.17,330.31,246.39,330.68,246.56,331.05L246.56,331.05z"/>
						<path class="st5" d="M245.92,329.99l22.36-12.67c-0.27-0.34-0.59-0.63-0.93-0.83l-22.36,12.67
							C245.33,329.36,245.64,329.65,245.92,329.99L245.92,329.99z"/>
					</g>
				</g>
				<g>
					<path class="st9" d="M244.99,329.16c-1.06-0.63-1.94-0.14-1.95,1.09c-0.02,1.23,0.83,2.73,1.89,3.36
						c1.06,0.63,1.94,0.14,1.95-1.08C246.9,331.29,246.05,329.79,244.99,329.16z"/>
				</g>
			</g>
		</g>
		<g>
			<g class="st0">
				<g class="st0">
					<defs>
						<path id="SVGID_41_" class="st0" d="M194.14,274.77l-22.36,12.67c0.35-0.2,0.84-0.17,1.38,0.15l22.36-12.67
							C194.98,274.61,194.49,274.57,194.14,274.77z"/>
					</defs>
					<clipPath id="SVGID_42_">
						<use xlink:href="#SVGID_41_"  style="overflow:visible;"/>
					</clipPath>
					<g class="st39">
						<path class="st5" d="M173.15,287.59l22.36-12.67c-0.2-0.12-0.4-0.2-0.59-0.24l-22.36,12.67
							C172.75,287.39,172.95,287.47,173.15,287.59L173.15,287.59z"/>
						<path class="st5" d="M172.57,287.35l22.36-12.67c-0.28-0.06-0.54-0.04-0.75,0.07l-22.36,12.67
							C172.02,287.31,172.28,287.28,172.57,287.35L172.57,287.35z"/>
						<path class="st7" d="M171.81,287.42l22.36-12.67c-0.01,0.01-0.02,0.01-0.03,0.02l-22.36,12.67
							C171.79,287.43,171.8,287.43,171.81,287.42L171.81,287.42z"/>
					</g>
				</g>
				<g class="st0">
					<defs>
						<path id="SVGID_43_" class="st0" d="M174.47,292.19l22.36-12.67c0.35-0.2,0.57-0.62,0.58-1.23c0.02-1.23-0.83-2.73-1.89-3.36
							l-22.36,12.67c1.06,0.63,1.91,2.13,1.89,3.36C175.04,291.56,174.82,291.99,174.47,292.19z"/>
					</defs>
					<clipPath id="SVGID_44_">
						<use xlink:href="#SVGID_43_"  style="overflow:visible;"/>
					</clipPath>
					<g class="st40">
						<path class="st7" d="M174.47,292.19l22.36-12.67c0.35-0.2,0.57-0.62,0.58-1.23c0.01-0.47-0.11-0.98-0.32-1.47l-22.36,12.67
							c0.21,0.49,0.33,1,0.32,1.47C175.04,291.56,174.82,291.99,174.47,292.19L174.47,292.19z"/>
						<path class="st5" d="M174.72,289.48l22.36-12.67c-0.16-0.38-0.38-0.74-0.64-1.06l-22.36,12.67
							C174.34,288.74,174.56,289.1,174.72,289.48L174.72,289.48z"/>
						<path class="st5" d="M174.08,288.42l22.36-12.67c-0.27-0.34-0.59-0.63-0.93-0.83l-22.36,12.67
							C173.49,287.79,173.81,288.08,174.08,288.42L174.08,288.42z"/>
					</g>
				</g>
				<g>
					<path class="st9" d="M173.15,287.59c-1.06-0.63-1.94-0.14-1.95,1.09c-0.02,1.23,0.83,2.73,1.89,3.36
						c1.06,0.63,1.94,0.14,1.95-1.08C175.06,289.72,174.21,288.22,173.15,287.59z"/>
				</g>
			</g>
		</g>
		<g>
			<g>
				<g class="st0">
					<g>
						<polygon class="st1" points="264.63,340.05 264.62,343.93 207.22,377.3 207.23,373.42 						"/>
					</g>
					<g>
						<polygon class="st2" points="207.23,373.42 207.22,377.3 97.87,314.19 97.88,310.31 						"/>
					</g>
					<g>
						<polygon class="st3" points="264.63,340.05 207.23,373.42 97.88,310.31 155.28,276.94 						"/>
					</g>
				</g>
			</g>
			<g>
				<polygon class="st4" points="261.75,340.27 208.08,371.25 150.91,338.24 102.07,310.04 101.86,309.92 123.13,297.64 
					150.25,281.98 155.53,278.93 160.81,281.98 187.93,297.64 209.41,310.04 258.25,338.24 				"/>
				<path class="st5" d="M200.08,336.01l17.63,10.18l-13.18,7.61l-17.63-10.18L200.08,336.01z M213.9,328.03l17.63,10.18
					l-13.18,7.61l-17.63-10.18L213.9,328.03z M181.81,325.46l17.63,10.18l-13.18,7.61l-17.63-10.18L181.81,325.46z M195.63,317.48
					l17.63,10.18l-13.18,7.61l-17.63-10.18L195.63,317.48z M163.54,314.92l17.63,10.18l-13.18,7.61l-17.62-10.18L163.54,314.92z
					 M177.37,306.93l17.62,10.18l-13.18,7.61l-17.62-10.18L177.37,306.93z M145.27,304.37l17.63,10.18l-13.18,7.61l-17.63-10.18
					L145.27,304.37z M159.1,296.39l17.63,10.18l-13.18,7.61L145.91,304L159.1,296.39z M158.45,296.01l-13.18,7.61l-16.25-9.38
					l-0.64,0.37l16.25,9.38l-13.18,7.61l-16.25-9.38l-0.64,0.37l16.25,9.38l-12.69,7.32l0.64,0.37l12.69-7.32l17.63,10.18
					l-12.69,7.32l0.64,0.37l12.69-7.32l17.63,10.18l-12.69,7.32l0.64,0.37l12.69-7.32l17.63,10.18l-12.69,7.32l0.64,0.37l12.69-7.32
					l17.63,10.18l-12.69,7.32l0.64,0.37l12.69-7.32l16.25,9.38l0.64-0.37l-16.25-9.38l13.18-7.61l16.25,9.38l0.64-0.37l-16.25-9.38
					l13.18-7.61l16.25,9.38l0.64-0.37l-16.25-9.38l12.69-7.32l-0.64-0.37l-12.69,7.32l-17.63-10.18l12.69-7.32l-0.64-0.37
					l-12.69,7.32l-17.63-10.18l12.69-7.32l-0.64-0.37l-12.69,7.32l-17.63-10.18l12.69-7.32l-0.64-0.37l-12.69,7.32l-17.63-10.18
					l12.69-7.32l-0.64-0.37l-12.69,7.32l-16.25-9.38l-0.64,0.37L158.45,296.01z"/>
			</g>
		</g>
	</g>
	<polygon class="st41" points="187.93,297.64 123.13,297.64 150.25,281.98 160.81,281.98 	"/>
	<polygon class="st41" points="258.25,338.24 150.91,338.24 102.07,310.04 209.41,310.04 	"/>
	<polygon class="st41" points="359.96,212.29 271.83,212.29 298.95,196.63 332.84,196.63 	"/>
	<polygon class="st41" points="422.12,248.18 413.95,252.89 322.95,252.89 274.11,224.69 381.45,224.69 	"/>
</g>
</svg>
