<?xml version="1.0" encoding="utf-8"?>
<!-- Generator: Adobe Illustrator 24.3.0, SVG Export Plug-In . SVG Version: 6.00 Build 0)  -->
<svg version="1.1" id="Layer_1" xmlns="http://www.w3.org/2000/svg" xmlns:xlink="http://www.w3.org/1999/xlink" x="0px" y="0px"
	 viewBox="0 0 500 500" style="enable-background:new 0 0 500 500;" xml:space="preserve">
<style type="text/css">
	.st0{fill-rule:evenodd;clip-rule:evenodd;fill:#B71E20;}
	.st1{fill-rule:evenodd;clip-rule:evenodd;fill:#CC3A3A;}
	.st2{fill-rule:evenodd;clip-rule:evenodd;fill:#66B2D8;}
	.st3{fill-rule:evenodd;clip-rule:evenodd;fill:#1A3E6E;}
	.st4{fill-rule:evenodd;clip-rule:evenodd;fill:#E9EFF7;}
	.st5{fill-rule:evenodd;clip-rule:evenodd;fill:#ACBDD4;}
	.st6{fill-rule:evenodd;clip-rule:evenodd;fill:#E28B25;}
	.st7{fill-rule:evenodd;clip-rule:evenodd;fill:#FFCC00;}
	.st8{fill-rule:evenodd;clip-rule:evenodd;fill:#FFFFFF;}
	.st9{fill-rule:evenodd;clip-rule:evenodd;fill:#DFE8F5;}
	.st10{fill-rule:evenodd;clip-rule:evenodd;fill:#0054A2;}
	.st11{fill-rule:evenodd;clip-rule:evenodd;fill:#0065AF;}
	.st12{fill-rule:evenodd;clip-rule:evenodd;fill:#074289;}
	.st13{fill:#074289;}
	.st14{fill-rule:evenodd;clip-rule:evenodd;fill:#7E99B9;}
	.st15{fill:#DFE8F5;}
	.st16{fill-rule:evenodd;clip-rule:evenodd;fill:#0087CA;}
	.st17{fill-rule:evenodd;clip-rule:evenodd;fill:#3F5F94;}
	.st18{fill-rule:evenodd;clip-rule:evenodd;fill:#0C3090;}
	.st19{fill-rule:evenodd;clip-rule:evenodd;fill:#214DC4;}
	.st20{fill-rule:evenodd;clip-rule:evenodd;fill:#008BD2;}
	.st21{fill:#E9EFF7;}
	.st22{fill:#ACBDD4;}
</style>
<g>
	<path class="st0" d="M424.09,199.81l-4.31,18.88l-6.84,14.12l-12.66,13.77l-12.3,9.53l-163.76,97.32
		c-46.47,13.32-80.14,10.09-95.28,8.06c9.63-12.43-20.96-2.84-53.85-13.42L424.09,199.81z"/>
	<path class="st1" d="M424.09,199.81l-4.31,18.88l-6.82,14.1l-12.67,13.8l-12.3,9.53c9.17-11.98,30.91-35.32,33.6-52.29l1.51-3.58
		L424.09,199.81L424.09,199.81z M274.12,323.95l-49.89,29.48c-12.59,7.44-33.06,9.24-48.62,12.45c-9.6,1.98-44.98,4.31-71.91-1.44
		c-11.42-2.44-15.23-12.08-28.59-16.37l48.86-21.62c5.47-0.96,10.94-1.69,16.42-2.04C161.47,333.78,203.63,340.72,274.12,323.95z"/>
	<path class="st2" d="M424.09,199.81l-4.31,18.89l-13.38,18.1L221.44,346.34c-38.89,12.27-83.35,16.56-108.25,17.76
		c1.38-7.53-11.25-7.4-38.09-16.03L424.09,199.81z"/>
	<path class="st3" d="M424.09,199.81l-4.33,18.98l-6.88,14.11l-12.24,7.31c7.18-6.76,18.08-23.89,20.95-36.39l1.51-3.58
		L424.09,199.81L424.09,199.81z M251.15,328.78l-29.72,17.56c-8.81,5.2-61.04,19.08-90.14,19.92c-13.28,0.38-24.74-0.98-30.8-2.05
		c-9.22-1.63-22.34-5.31-25.39-16.13l48.86-21.62c5.47-0.96,10.94-1.69,16.42-2.04C158.99,332.68,194.48,338.93,251.15,328.78z"/>
	<path class="st4" d="M413.59,209.9l-217,115.74c-36.47,15.34-84.28,28.58-121.49,22.43c-0.86-22.8,31.88-53.74,50.41-64.94
		L343.6,169.98C378.92,151.66,453.43,187.48,413.59,209.9z"/>
	<path class="st5" d="M411.38,208.64L193.02,324.28c-36.19,15.22-78.05,26.71-114.96,20.6c5.35-23.15,25.04-40.69,48.28-58.75
		l219.71-114.76C377.71,154.84,448.29,187.79,411.38,208.64z"/>
	<polygon class="st6" points="196.29,322.56 131.86,287.56 308.88,194.73 370.87,230.09 	"/>
	<path class="st7" d="M81.55,345.41c6.11-21.99,25.24-38.94,47.68-56.38l62.94,35.61C157.32,339.21,117.31,350.22,81.55,345.41z"/>
	<path class="st1" d="M411.38,208.64l-36.27,19.21l-63.32-36.93c0.95-0.58,29.45-15.7,30.43-16.19
		c30.68-15.49,80.79,5.9,77.48,23.02C419.17,200.5,415.53,206.44,411.38,208.64z"/>
	<path class="st8" d="M372.16,174.36L372.16,174.36l0,2.32h0c16.22,0,29.37,8.17,29.37,18.24c0,10.07-13.15,18.24-29.37,18.24h0
		v2.32h0c18.28,0,33.11-9.21,33.11-20.56C405.27,183.56,390.44,174.36,372.16,174.36z M372.16,174.36
		c-18.28,0-33.11,9.21-33.11,20.56c0,11.35,14.83,20.56,33.11,20.56v-2.32c-16.22,0-29.37-8.17-29.37-18.24
		c0-10.07,13.15-18.24,29.37-18.24V174.36z"/>
	<polygon class="st8" points="364.17,205.49 367.98,207.69 395.33,192.99 391.41,190.93 380.55,196.73 366.24,189.08 377.96,182.78 
		374.04,180.72 346.8,195.29 350.61,197.48 362.35,191.17 376.6,198.84 	"/>
	<path class="st5" d="M127.81,285.37l1.82-0.95l0.02,1.95l66.64,36.2c-24.53,9.97-90.41,29.07-118.24,22.32
		c-0.79-12.83,14.61-34.06,28.71-47.46c1.19-1.14,3.65-0.7,5.45-1.01C118.12,291.19,123.72,287.2,127.81,285.37z"/>
	<g>
		<polygon class="st5" points="282.15,264.92 348.74,229.59 336.74,204.37 282.15,233.13 		"/>
		<polygon class="st4" points="336.74,204.37 282.15,233.13 253.08,216.52 307.73,187.83 		"/>
	</g>
	<polygon class="st4" points="282.73,227.5 222.53,261.98 158.71,225.35 219.02,191.68 228.92,197.36 253.47,189.66 279.59,204.65 
		272.12,222.16 	"/>
	<polygon class="st9" points="225.44,310.25 222.53,261.98 158.71,225.35 152.66,269.05 155.84,270.73 157.83,273.94 220.86,309.54 
		222.61,308.65 	"/>
	<polygon class="st5" points="236.2,212.4 210.13,221.07 215.45,239.97 215.48,258 236.18,245.67 	"/>
	<polygon class="st9" points="215.48,258 215.45,239.97 210.13,221.07 159.96,192.27 165.28,211.09 165.31,229.19 	"/>
	<polygon class="st5" points="282.84,228.31 222.53,261.98 225.44,310.25 288.09,276.84 	"/>
	<polygon class="st2" points="214.28,254.55 214.01,241.72 167.31,214.74 167.25,227.5 	"/>
	<g>
		<path class="st10" d="M218.77,293.87l1.83,1.06c0.48,0.28,0.87,0.87,0.87,1.31v6.62c0,0.45-0.39,0.58-0.87,0.31l-1.83-1.06
			c-0.48-0.28-0.87-0.87-0.87-1.31v-6.62C217.91,293.73,218.3,293.59,218.77,293.87z"/>
		<path class="st10" d="M212.7,290.35l1.83,1.06c0.48,0.28,0.87,0.87,0.87,1.31v6.62c0,0.44-0.39,0.58-0.87,0.31l-1.83-1.06
			c-0.48-0.28-0.87-0.87-0.87-1.31v-6.62C211.83,290.21,212.22,290.07,212.7,290.35z"/>
		<path class="st10" d="M200.55,283.31l1.83,1.06c0.48,0.28,0.87,0.87,0.87,1.31v6.62c0,0.45-0.39,0.58-0.87,0.31l-1.83-1.06
			c-0.48-0.28-0.87-0.87-0.87-1.31v-6.62C199.68,283.17,200.07,283.03,200.55,283.31z"/>
		<path class="st10" d="M194.47,279.79l1.83,1.06c0.48,0.28,0.87,0.86,0.87,1.31v6.62c0,0.45-0.39,0.58-0.87,0.31l-1.83-1.06
			c-0.48-0.28-0.87-0.86-0.87-1.31v-6.62C193.61,279.65,193.99,279.52,194.47,279.79z"/>
		<path class="st10" d="M188.4,276.27l1.83,1.06c0.48,0.28,0.87,0.87,0.87,1.31v6.62c0,0.44-0.39,0.58-0.87,0.31l-1.83-1.06
			c-0.48-0.28-0.87-0.86-0.87-1.31v-6.62C187.53,276.14,187.92,276,188.4,276.27z"/>
		<path class="st10" d="M182.32,272.75l1.83,1.06c0.48,0.28,0.87,0.86,0.87,1.31v6.62c0,0.45-0.39,0.58-0.87,0.31l-1.83-1.06
			c-0.48-0.28-0.86-0.86-0.86-1.31v-6.62C181.46,272.62,181.84,272.48,182.32,272.75z"/>
		<path class="st10" d="M176.25,269.23l1.83,1.06c0.48,0.28,0.87,0.87,0.87,1.31v6.62c0,0.45-0.39,0.58-0.87,0.31l-1.83-1.06
			c-0.48-0.28-0.87-0.87-0.87-1.31v-6.62C175.38,269.1,175.77,268.96,176.25,269.23z"/>
		<path class="st10" d="M164.09,262.2l1.83,1.06c0.48,0.28,0.87,0.87,0.87,1.31v6.62c0,0.45-0.39,0.58-0.87,0.31l-1.83-1.06
			c-0.48-0.28-0.87-0.86-0.87-1.31v-6.62C163.23,262.06,163.62,261.92,164.09,262.2z"/>
		<path class="st10" d="M158.02,258.68l1.83,1.06c0.48,0.28,0.87,0.87,0.87,1.31v6.62c0,0.44-0.39,0.58-0.87,0.31l-1.83-1.06
			c-0.48-0.28-0.87-0.87-0.87-1.31v-6.62C157.15,258.54,157.54,258.4,158.02,258.68z"/>
	</g>
	<polygon class="st5" points="169.5,324.72 208.36,302.52 208.36,287.36 172.83,307.3 	"/>
	<polygon class="st9" points="163.65,320.2 140.03,306.69 143.99,291.88 167.62,305.38 	"/>
	<polygon class="st4" points="208.36,287.36 172.83,307.3 141.73,290.41 177.52,269.77 	"/>
	<path class="st1" d="M129.71,286.4l66.58,36.16c-25.69,13.12-84.62,28.4-113.38,23C83.33,326.11,114.54,294.22,129.71,286.4z"/>
	<path class="st4" d="M173.01,330.86l-8.94-0.71c-31.11,8.72-54.53,13.72-85.59,9.53L75,341.82l0.1,4.71
		c23.58,6.84,75.09-1.68,101.89-13.4L173.01,330.86z"/>
	<path class="st11" d="M177.25,333.15c-3.43-0.43-6.85-0.87-10.28-1.3c-31.11,8.92-60.61,14.91-91.98,9.97l0.1,6.26
		C99.85,355.09,150.97,345.86,177.25,333.15z"/>
	<path class="st4" d="M103.32,295.54c-15.74,15.92-26.7,35.24-28.32,46.27c1.56,0.19,1.93-2.32,3.49-2.13
		c6.35-17.84,17.52-30.74,28.18-42.24C105.55,296.81,104.44,296.18,103.32,295.54z"/>
	<polygon class="st5" points="106.67,297.45 112.26,296.37 109.61,294.87 103.32,295.54 	"/>
	<polygon class="st5" points="173.01,330.86 177.14,333.21 166.98,331.85 163.74,329.84 	"/>
	<g>
		<polygon class="st5" points="287.57,224.77 321.61,207.23 316.91,199.4 287.57,214.45 		"/>
		<polygon class="st4" points="316.91,199.4 287.25,212.52 266.04,200.44 294.46,186.6 		"/>
	</g>
	<g>
		<polygon class="st5" points="232.77,231.18 279.59,204.65 269.17,193.82 232.77,214.34 		"/>
		<polygon class="st9" points="232.77,231.18 211.31,218.91 211.31,202.07 232.77,214.34 		"/>
		<polygon class="st4" points="269.17,193.82 232.77,214.34 211.31,202.07 247.76,181.6 		"/>
	</g>
	<polygon class="st4" points="240.13,214.66 220,226.78 149.64,186.24 169.76,174.13 	"/>
	<polygon class="st12" points="225.32,245.68 220,226.78 149.64,186.24 154.96,205.06 	"/>
	<polygon class="st2" points="221.25,240.54 218.35,230.41 153.61,192.93 156.55,203.21 	"/>
	<g>
		<path class="st13" d="M211,235.22c-0.05,0-0.1-0.03-0.12-0.09l-3.11-10.87c-0.02-0.06,0.02-0.13,0.08-0.15
			c0.06-0.02,0.13,0.02,0.15,0.08l3.11,10.87c0.02,0.06-0.02,0.13-0.08,0.15C211.02,235.22,211.01,235.22,211,235.22z"/>
	</g>
	<g>
		<path class="st13" d="M201.68,229.67c-0.05,0-0.1-0.03-0.12-0.09l-3.11-10.87c-0.02-0.06,0.02-0.13,0.08-0.15
			c0.06-0.02,0.13,0.02,0.15,0.08l3.11,10.87c0.02,0.06-0.02,0.13-0.08,0.15C201.7,229.67,201.69,229.67,201.68,229.67z"/>
	</g>
	<g>
		<path class="st13" d="M192.37,224.32c-0.05,0-0.1-0.03-0.12-0.09l-3.11-10.87c-0.02-0.06,0.02-0.13,0.08-0.15
			c0.06-0.02,0.13,0.02,0.15,0.08l3.11,10.87c0.02,0.06-0.02,0.13-0.08,0.15C192.39,224.32,192.38,224.32,192.37,224.32z"/>
	</g>
	<g>
		<path class="st13" d="M183.05,218.86c-0.05,0-0.1-0.03-0.12-0.09l-3.1-10.87c-0.02-0.06,0.02-0.13,0.08-0.15
			c0.06-0.02,0.13,0.02,0.15,0.08l3.1,10.87c0.02,0.06-0.02,0.13-0.08,0.15C183.07,218.86,183.06,218.86,183.05,218.86z"/>
	</g>
	<g>
		<path class="st13" d="M173.74,213.8c-0.05,0-0.1-0.03-0.12-0.09l-3.11-10.87c-0.02-0.06,0.02-0.13,0.08-0.15
			c0.06-0.02,0.13,0.02,0.15,0.08l3.11,10.87c0.02,0.06-0.02,0.13-0.08,0.15C173.76,213.8,173.75,213.8,173.74,213.8z"/>
	</g>
	<g>
		<path class="st13" d="M164.42,208.1c-0.05,0-0.1-0.03-0.12-0.09l-3.11-10.87c-0.02-0.06,0.02-0.13,0.08-0.15
			c0.06-0.02,0.13,0.02,0.15,0.08l3.11,10.87c0.02,0.06-0.02,0.13-0.08,0.15C164.44,208.1,164.43,208.1,164.42,208.1z"/>
	</g>
	<path class="st9" d="M208.04,202.19l-8,4.82c-9.85-1.52-16.08-5.09-18.69-10.73l7.4-41.17l4.5-2.71l10.52,6.04L208.04,202.19z"/>
	<path class="st11" d="M187.84,160.18l0.91-5.07l4.5-2.71l10.52,6.04l0.43,4.4l-4.85,2.99
		C193.33,164.83,189.99,163.24,187.84,160.18z"/>
	<path class="st4" d="M203.77,158.43l-4.5,2.71c-5.54-0.85-9.05-2.87-10.52-6.04l4.5-2.71L203.77,158.43z"/>
	<path class="st14" d="M197.71,143.06L197.71,143.06l-0.06,0.13l-0.01,0.05l-0.12,0.11l-0.09,0.07l-0.1,0.05l-0.27,0.12l-0.1,0.04
		l-0.14,0.04l-0.15,0.01l-0.05,0.02l-0.21,0h-0.05l-0.23,0l-0.03-0.02l-0.21-0.03l-0.04-0.01l-0.19-0.07l-0.04,0l-0.2-0.11
		c-0.29-0.16-0.41-0.35-0.41-0.56l-0.12,13.98c0,0.19,0.12,0.41,0.41,0.57l0.19,0.09l0.01,0l0.04,0.02l0.13,0.04l0.06,0.02
		l0.04,0.01h0.03l0.14,0.03h0.04H196l0.05,0.01l0.12,0.01h0.06h0.05l0.03,0l0.16-0.01l0.01-0.01h0.05l0.11-0.03h0.04l0.15-0.03
		l0.07-0.02l0.03-0.02c0.08-0.04,0.17-0.07,0.27-0.12l0.01-0.02l0.06-0.05l0.1-0.06l0.01-0.02l0.08-0.08v-0.03l0.02-0.02l0.03-0.04
		l0.04-0.08v-0.01l0.01-0.02l0.02-0.03v-0.1l0.13-13.97v-0.01L197.71,143.06z"/>
	<path class="st5" d="M196.12,143.7l-0.03-0.02l-0.21-0.03l-0.04-0.01l-0.19-0.07l-0.04,0l-0.2-0.11c-0.29-0.16-0.41-0.35-0.41-0.56
		l-0.12,13.98c0,0.19,0.12,0.41,0.41,0.57l0.19,0.09l0.01,0l0.04,0.02l0.13,0.04l0.06,0.02l0.04,0.01h0.03l0.14,0.03h0.04H196
		l0.05,0.01l0.12,0.01V143.7H196.12z"/>
	<g>
		<path class="st5" d="M189.79,138.54c0,3.66,2.93,6.64,6.54,6.64c3.62,0.01,6.56-2.96,6.56-6.62c0-3.67-2.94-6.64-6.56-6.65
			C192.72,131.92,189.79,134.88,189.79,138.54z"/>
		<path class="st4" d="M197.19,142.61c-3.03-0.01-5.49-2.48-5.49-5.57c0-2.1,1.16-3.93,2.87-4.87c0.57-0.16,1.16-0.25,1.78-0.25
			c3.03,0.01,5.58,2.09,6.33,4.93l0,0.21C202.67,140.15,200.22,142.62,197.19,142.61z"/>
		<path class="st8" d="M196.34,135.92c0,1.05,0.83,1.9,1.87,1.9c1.03,0,1.88-0.84,1.88-1.89c0-1.04-0.85-1.89-1.88-1.9
			C197.17,134.03,196.34,134.88,196.34,135.92z"/>
	</g>
	<g>
		<path class="st15" d="M186.63,238.81L186.63,238.81c-0.07,0-0.12-0.05-0.12-0.12l0.01-13.56c0-0.07,0.05-0.12,0.12-0.12l0,0
			c0.07,0,0.12,0.05,0.12,0.12l-0.01,13.56C186.75,238.76,186.7,238.81,186.63,238.81z"/>
	</g>
	<g>
		<path class="st15" d="M179.84,234.79L179.84,234.79c-0.07,0-0.12-0.05-0.12-0.12l0.01-13.26c0-0.07,0.05-0.12,0.12-0.12l0,0
			c0.07,0,0.12,0.05,0.12,0.12l-0.01,13.26C179.96,234.74,179.9,234.79,179.84,234.79z"/>
	</g>
	<g>
		<path class="st15" d="M173.04,230.94L173.04,230.94c-0.07,0-0.12-0.05-0.12-0.12l0.01-13.3c0-0.07,0.05-0.12,0.12-0.12l0,0
			c0.07,0,0.12,0.05,0.12,0.12l-0.01,13.3C173.16,230.89,173.11,230.94,173.04,230.94z"/>
	</g>
	<polygon class="st2" points="220,226.78 225.32,245.68 240.13,237.63 240.13,214.66 	"/>
	<polygon class="st5" points="199.28,161.14 200.05,207.01 208.04,202.19 203.77,158.43 	"/>
	<polygon class="st16" points="199.28,161.14 199.35,165.83 199.35,165.83 204.2,162.84 203.77,158.43 	"/>
	<g>
		<path class="st4" d="M97.78,324.03c0.6,0.35,0.6,0.91,0.01,1.26c-0.59,0.35-1.55,0.35-2.16,0c-0.59-0.35-0.6-0.91-0.01-1.26
			C96.22,323.67,97.18,323.67,97.78,324.03z"/>
		<path class="st14" d="M98.71,335.21l-0.01,0.06l-0.01,0.05l-0.03,0.06l-0.02,0.05l-0.03,0.06l-0.02,0.05l-0.04,0.07l-0.04,0.04
			l-0.09,0.08l-0.03,0.03l-0.06,0.05l-0.06,0.05l-0.08,0.05l-0.07,0.04c-0.06,0.04-0.12,0.07-0.19,0.1l-0.05,0.02
			c-0.05,0.02-0.1,0.04-0.16,0.06l-0.07,0.02l-0.09,0.03l-0.09,0.02l-0.1,0.02l-0.07,0.02c-0.08,0.02-0.16,0.03-0.23,0.03l-0.08,0
			l-0.12,0.01l-0.09,0h-0.11h-0.1l-0.09-0.01l-0.1,0l-0.09-0.01l-0.1-0.02l-0.11-0.02l-0.07-0.02l-0.14-0.03l-0.07-0.02
			c-0.07-0.03-0.15-0.05-0.21-0.08l-0.11-0.05l-0.05-0.02c-0.05-0.03-0.1-0.05-0.15-0.08c-0.39-0.22-0.58-0.53-0.58-0.83v0.65
			c0,0.29,0.19,0.6,0.58,0.83c0.05,0.03,0.1,0.05,0.15,0.08l0.06,0.02l0.08,0.04l0.01,0.01c0.08,0.02,0.15,0.05,0.22,0.07l0.02,0.01
			l0.05,0.01l0.12,0.03l0.04,0.01l0.04,0l0.11,0.02l0.05,0.01l0.04,0.01l0.1,0.01h0.05h0.04l0.11,0.02h0.05h0.04h0.11h0.05h0.05
			c0.04,0,0.09-0.02,0.14-0.02h0.04l0.01,0c0.07-0.01,0.16-0.01,0.23-0.03h0.01l0.07-0.02l0.1-0.02l0.09-0.03l0.09-0.03l0.03-0.01
			l0.04-0.02c0.05-0.02,0.11-0.04,0.16-0.06l0.05-0.02c0.06-0.03,0.13-0.07,0.18-0.1l0.03-0.01l0.05-0.04l0.08-0.05l0.05-0.05
			l0.06-0.05l0.02-0.01l0.01-0.02l0.08-0.09l0.02-0.02l0.01-0.02l0.05-0.07l0.02-0.03l0.01-0.02l0.03-0.07l0.01-0.03l0.01-0.02
			l0.02-0.06l0.02-0.04v0l0.01-0.07l0.01-0.04v-0.01v-0.65V335.21z"/>
		<path class="st4" d="M98.12,334.31c0.8,0.46,0.8,1.2,0.01,1.65c-0.78,0.46-2.05,0.46-2.84-0.01c-0.78-0.46-0.78-1.2-0.01-1.65
			C96.06,333.85,97.33,333.85,98.12,334.31z"/>
		<path class="st14" d="M98.25,324.64v0.05l-0.01,0.04l-0.02,0.05l-0.01,0.04l-0.02,0.05l-0.02,0.04l-0.04,0.06l-0.02,0.03
			l-0.06,0.07l-0.04,0.03l-0.04,0.05l-0.04,0.03l-0.05,0.04l-0.06,0.04c-0.07,0.03-0.14,0.07-0.21,0.1l-0.06,0.02
			c-0.08,0.03-0.15,0.05-0.23,0.07l-0.03,0.01c-0.08,0.02-0.15,0.03-0.23,0.04h-0.04c-0.09,0.01-0.18,0.02-0.26,0.02h-0.03
			c-0.09,0-0.17-0.01-0.26-0.01l-0.04-0.01c-0.08-0.02-0.17-0.03-0.25-0.05l-0.05-0.01c-0.07-0.02-0.14-0.04-0.22-0.07l-0.03-0.01
			c-0.08-0.04-0.16-0.07-0.23-0.11c-0.3-0.18-0.45-0.42-0.45-0.65l-0.03,10.39c0,0.23,0.15,0.46,0.45,0.64
			c0.06,0.04,0.14,0.08,0.22,0.11l0.01,0l0.04,0.01l0.13,0.05l0.08,0.02l0.05,0.01l0.03,0.01c0.05,0.01,0.1,0.02,0.16,0.03l0.05,0
			l0.05,0.01l0.05,0c0.04,0.01,0.09,0.01,0.15,0.01h0.05h0.04h0.07c0.06,0,0.11,0,0.17-0.01h0.02l0.04-0.01l0.14-0.02l0.09-0.02
			l0.03,0c0.05-0.02,0.11-0.04,0.16-0.05l0.06-0.02l0.07-0.02c0.07-0.03,0.14-0.06,0.21-0.1l0.02-0.01l0.03-0.03l0.06-0.04
			l0.04-0.03l0.04-0.05l0.02-0.01l0.01-0.02l0.06-0.07l0.02-0.01l0.01-0.02l0.05-0.06l0.01-0.02l0.01-0.01l0.02-0.05l0.02-0.02
			v-0.02l0.01-0.04l0.01-0.03v-0.02v-0.05l0.02-0.03v-0.01l0.02-10.38V324.64z"/>
		<path class="st5" d="M96.12,325.42c-0.07-0.02-0.14-0.04-0.22-0.07l-0.03-0.01c-0.08-0.04-0.16-0.07-0.23-0.11
			c-0.3-0.18-0.45-0.42-0.45-0.65l-0.03,10.39c0,0.23,0.15,0.46,0.45,0.64c0.06,0.04,0.14,0.08,0.22,0.11l0.01,0l0.04,0.01
			l0.13,0.05l0.08,0.02l0.05,0.01l0.03,0.01l0.03,0.01v-10.38l-0.04-0.01L96.12,325.42z"/>
		<path class="st14" d="M97.45,315.28L97.45,315.28l-0.03,0.07l0,0.02l-0.06,0.06l-0.05,0.04l-0.05,0.02l-0.14,0.06l-0.05,0.02
			l-0.08,0.02l-0.08,0.01l-0.03,0.01l-0.11,0h-0.03l-0.12,0l-0.01-0.01l-0.11-0.01l-0.02,0l-0.1-0.03l-0.02,0l-0.1-0.06
			c-0.15-0.08-0.21-0.18-0.21-0.29l-0.07,9.27c0,0.1,0.07,0.21,0.21,0.3l0.1,0.05h0.01l0.02,0.01l0.07,0.02l0.03,0.01l0.02,0.01
			h0.02l0.07,0.02h0.02h0.02l0.03,0l0.06,0h0.03h0.02h0.02l0.08,0l0,0h0.03l0.06-0.02h0.02l0.08-0.02l0.04-0.01l0.02-0.01
			c0.04-0.02,0.09-0.04,0.14-0.06l0.01-0.01l0.03-0.03l0.05-0.03l0.01-0.01l0.04-0.04v-0.01l0.01-0.01l0.02-0.02l0.02-0.04v-0.01
			l0.01-0.01l0.01-0.02v-0.05l0.07-9.27v0L97.45,315.28z"/>
		<path class="st5" d="M96.62,315.61l-0.01-0.01l-0.11-0.01l-0.02,0l-0.1-0.03l-0.02,0l-0.1-0.06c-0.15-0.08-0.21-0.18-0.21-0.29
			l-0.07,9.27c0,0.1,0.07,0.21,0.21,0.3l0.1,0.05h0.01l0.02,0.01l0.07,0.02l0.03,0.01l0.02,0.01h0.02l0.07,0.02h0.02h0.02l0.03,0
			l0.06,0v-9.28H96.62z"/>
		<path class="st9" d="M102.8,337.69l-4.14,2.5c-5.1-0.79-8.32-2.64-9.68-5.56l3.83-21.32l2.33-1.4l5.45,3.13L102.8,337.69z"/>
		<path class="st11" d="M92.34,315.94l0.47-2.63l2.33-1.4l5.45,3.13l0.22,2.28l-2.51,1.55C95.18,318.35,93.45,317.53,92.34,315.94z"
			/>
		<path class="st4" d="M100.59,315.04l-2.33,1.41c-2.87-0.44-4.68-1.48-5.45-3.13l2.33-1.4L100.59,315.04z"/>
		<path class="st14" d="M97.45,297.84L97.45,297.84l-0.03,0.07l0,0.02l-0.06,0.06l-0.05,0.04l-0.05,0.02l-0.14,0.06l-0.05,0.02
			l-0.08,0.02l-0.08,0l-0.03,0.01l-0.11,0h-0.03l-0.12,0l-0.01-0.01l-0.11-0.01l-0.02,0l-0.1-0.03l-0.02,0l-0.1-0.06
			c-0.15-0.08-0.21-0.18-0.21-0.29l-0.07,16.47c0,0.1,0.07,0.21,0.21,0.3l0.1,0.05h0.01l0.02,0.01l0.07,0.02l0.03,0.01l0.02,0.01
			h0.02l0.07,0.02h0.02h0.02l0.03,0l0.06,0h0.03h0.02h0.02l0.08,0l0,0h0.03l0.06-0.02h0.02l0.08-0.02l0.04-0.01l0.02-0.01
			c0.04-0.02,0.09-0.04,0.14-0.06l0.01-0.01l0.03-0.03l0.05-0.03l0.01-0.01l0.04-0.04v-0.01l0.01-0.01l0.02-0.02l0.02-0.04v-0.01
			l0.01-0.01l0.01-0.02v-0.05l0.07-16.47v0L97.45,297.84z"/>
		<path class="st5" d="M96.62,298.17l-0.01-0.01l-0.11-0.01l-0.02,0l-0.1-0.03l-0.02,0l-0.1-0.06c-0.15-0.08-0.21-0.18-0.21-0.29
			l-0.07,16.47c0,0.1,0.07,0.21,0.21,0.3l0.1,0.05h0.01l0.02,0.01l0.07,0.02l0.03,0.01l0.02,0.01h0.02l0.07,0.02h0.02h0.02l0.03,0
			l0.06,0v-16.48H96.62z"/>
		<g>
			<path class="st5" d="M94.35,296.32c0,1.33,1.07,2.42,2.38,2.42c1.32,0,2.39-1.08,2.39-2.41c0-1.34-1.07-2.42-2.39-2.42
				C95.42,293.9,94.35,294.98,94.35,296.32z"/>
			<path class="st4" d="M97.05,297.8c-1.1,0-2-0.91-2-2.03c0-0.76,0.42-1.43,1.05-1.78c0.21-0.06,0.42-0.09,0.65-0.09
				c1.1,0,2.03,0.76,2.31,1.8l0,0.08C99.05,296.9,98.15,297.8,97.05,297.8z"/>
			<path class="st8" d="M96.74,295.36c0,0.38,0.3,0.69,0.68,0.69c0.37,0,0.68-0.31,0.68-0.69c0-0.38-0.31-0.69-0.68-0.69
				C97.04,294.67,96.74,294.98,96.74,295.36z"/>
		</g>
		<polygon class="st5" points="98.26,316.44 98.66,340.19 102.8,337.69 100.59,315.04 		"/>
		<polygon class="st16" points="98.26,316.44 98.3,318.87 98.3,318.87 100.81,317.32 100.59,315.04 		"/>
	</g>
	<polygon class="st5" points="168.87,297.87 201.44,283.47 201.44,277.8 168.87,292.21 	"/>
	<polygon class="st9" points="168.87,297.87 153.67,289.19 153.67,283.52 168.87,292.21 	"/>
	<polygon class="st4" points="201.44,277.8 168.87,292.21 153.67,283.52 176.79,263.74 	"/>
	<path class="st5" d="M142.38,292.36l30.45,14.94l0.65,1.95c-11.19,4.55-39.52,13.26-52.96,10.74l-0.65-1.95
		C121.48,308.91,135.68,295.82,142.38,292.36z"/>
	<path class="st4" d="M141.73,290.41l31.1,16.89c-11.19,4.55-39.52,13.26-52.96,10.74C120.07,308.96,134.65,294.07,141.73,290.41z"
		/>
	<polygon class="st5" points="279.59,204.65 298.23,224.66 283.29,232.53 282.84,228.31 	"/>
	<polygon class="st12" points="158.71,225.35 222.53,261.98 223.53,280.05 156.44,241.76 	"/>
	<g>
		<path class="st11" d="M212.7,260.15l1.83,1.06c0.48,0.28,0.87,0.87,0.87,1.31v6.62c0,0.45-0.39,0.58-0.87,0.31l-1.83-1.06
			c-0.48-0.28-0.87-0.86-0.87-1.31v-6.62C211.83,260.01,212.22,259.87,212.7,260.15z"/>
		<path class="st11" d="M206.62,256.63l1.83,1.06c0.48,0.28,0.87,0.87,0.87,1.31v6.62c0,0.44-0.39,0.58-0.87,0.31l-1.83-1.06
			c-0.48-0.28-0.87-0.86-0.87-1.31v-6.62C205.76,256.49,206.15,256.35,206.62,256.63z"/>
		<path class="st11" d="M200.55,253.11l1.83,1.06c0.48,0.28,0.87,0.87,0.87,1.31v6.62c0,0.44-0.39,0.58-0.87,0.31l-1.83-1.06
			c-0.48-0.28-0.87-0.86-0.87-1.31v-6.62C199.68,252.97,200.07,252.83,200.55,253.11z"/>
		<path class="st11" d="M194.47,249.59l1.83,1.06c0.48,0.28,0.87,0.87,0.87,1.31v6.62c0,0.44-0.39,0.58-0.87,0.31l-1.83-1.06
			c-0.48-0.28-0.87-0.87-0.87-1.31v-6.62C193.61,249.45,193.99,249.31,194.47,249.59z"/>
		<path class="st11" d="M188.4,246.07l1.83,1.06c0.48,0.28,0.87,0.87,0.87,1.31v6.62c0,0.44-0.39,0.58-0.87,0.31l-1.83-1.06
			c-0.48-0.28-0.87-0.87-0.87-1.31v-6.62C187.53,245.93,187.92,245.79,188.4,246.07z"/>
		<path class="st11" d="M182.32,242.55l1.83,1.06c0.48,0.28,0.87,0.86,0.87,1.31v6.62c0,0.45-0.39,0.58-0.87,0.31l-1.83-1.06
			c-0.48-0.28-0.86-0.87-0.86-1.31v-6.62C181.46,242.41,181.84,242.28,182.32,242.55z"/>
		<path class="st11" d="M176.25,239.03l1.83,1.06c0.48,0.28,0.87,0.87,0.87,1.31v6.62c0,0.45-0.39,0.58-0.87,0.31l-1.83-1.06
			c-0.48-0.28-0.87-0.86-0.87-1.31v-6.62C175.38,238.9,175.77,238.76,176.25,239.03z"/>
		<path class="st11" d="M170.17,235.51l1.83,1.06c0.48,0.28,0.87,0.86,0.87,1.31v6.62c0,0.45-0.39,0.58-0.87,0.31l-1.83-1.06
			c-0.48-0.28-0.87-0.86-0.87-1.31v-6.62C169.3,235.38,169.69,235.24,170.17,235.51z"/>
		<path class="st11" d="M164.09,232l1.83,1.06c0.48,0.28,0.87,0.87,0.87,1.31v6.62c0,0.44-0.39,0.58-0.87,0.31l-1.83-1.06
			c-0.48-0.28-0.87-0.86-0.87-1.31v-6.62C163.23,231.86,163.62,231.72,164.09,232z"/>
	</g>
	<g>
		<path class="st15" d="M200.22,246.56L200.22,246.56c-0.07,0-0.12-0.05-0.12-0.12l0.01-13.04c0-0.07,0.05-0.12,0.12-0.12l0,0
			c0.07,0,0.12,0.05,0.12,0.12l-0.01,13.04C200.34,246.51,200.28,246.56,200.22,246.56z"/>
	</g>
	<g>
		<path class="st15" d="M193.42,242.75L193.42,242.75c-0.07,0-0.12-0.05-0.12-0.12l0.01-12.76c0-0.07,0.05-0.12,0.12-0.12l0,0
			c0.07,0,0.12,0.05,0.12,0.12l-0.01,12.76C193.54,242.7,193.49,242.75,193.42,242.75z"/>
	</g>
	<g>
		<path class="st15" d="M207.01,250.73L207.01,250.73c-0.07,0-0.12-0.05-0.12-0.12l0.01-13.04c0-0.07,0.05-0.12,0.12-0.12l0,0
			c0.07,0,0.12,0.05,0.12,0.12l-0.01,13.04C207.13,250.68,207.08,250.73,207.01,250.73z"/>
	</g>
	<g>
		<path class="st17" d="M212.7,275.27l1.83,1.04c0.48,0.27,0.87,0.86,0.87,1.31v6.62c0,0.45-0.39,0.59-0.87,0.31l-1.83-1.05
			c-0.48-0.27-0.87-0.86-0.87-1.3v-6.62C211.83,275.13,212.22,274.99,212.7,275.27z"/>
		<path class="st17" d="M206.62,271.79l1.83,1.04c0.48,0.27,0.87,0.86,0.87,1.31v6.62c0,0.45-0.39,0.59-0.87,0.31l-1.83-1.05
			c-0.48-0.27-0.87-0.86-0.87-1.3v-6.62C205.76,271.66,206.15,271.52,206.62,271.79z"/>
		<path class="st17" d="M200.55,268.31l1.83,1.05c0.48,0.27,0.87,0.86,0.87,1.31v6.62c0,0.45-0.39,0.59-0.87,0.31l-1.83-1.04
			c-0.48-0.27-0.87-0.86-0.87-1.3v-6.62C199.68,268.18,200.07,268.04,200.55,268.31z"/>
		<path class="st17" d="M194.47,264.83l1.83,1.05c0.48,0.27,0.87,0.86,0.87,1.31v6.62c0,0.44-0.39,0.59-0.87,0.31l-1.83-1.05
			c-0.48-0.27-0.87-0.86-0.87-1.3v-6.62C193.61,264.7,193.99,264.56,194.47,264.83z"/>
		<path class="st17" d="M188.4,261.36l1.83,1.04c0.48,0.27,0.87,0.86,0.87,1.31v6.62c0,0.45-0.39,0.59-0.87,0.31l-1.83-1.04
			c-0.48-0.27-0.87-0.86-0.87-1.3v-6.62C187.53,261.22,187.92,261.08,188.4,261.36z"/>
		<path class="st17" d="M182.32,257.88l1.83,1.05c0.48,0.27,0.87,0.86,0.87,1.31v6.62c0,0.44-0.39,0.59-0.87,0.31l-1.83-1.04
			c-0.48-0.27-0.86-0.86-0.86-1.3v-6.62C181.46,257.75,181.84,257.61,182.32,257.88z"/>
		<path class="st17" d="M176.25,254.4l1.83,1.04c0.48,0.27,0.87,0.86,0.87,1.31v6.62c0,0.44-0.39,0.59-0.87,0.31l-1.83-1.05
			c-0.48-0.27-0.87-0.86-0.87-1.3v-6.62C175.38,254.27,175.77,254.13,176.25,254.4z"/>
		<path class="st17" d="M170.17,250.92l1.83,1.04c0.48,0.27,0.87,0.86,0.87,1.31v6.62c0,0.45-0.39,0.59-0.87,0.31l-1.83-1.04
			c-0.48-0.27-0.87-0.86-0.87-1.3v-6.62C169.3,250.79,169.69,250.65,170.17,250.92z"/>
		<path class="st17" d="M164.09,247.45l1.83,1.05c0.48,0.27,0.87,0.86,0.87,1.31v6.62c0,0.44-0.39,0.59-0.87,0.31l-1.83-1.04
			c-0.48-0.27-0.87-0.86-0.87-1.3v-6.62C163.23,247.31,163.62,247.17,164.09,247.45z"/>
	</g>
	<polygon class="st2" points="282.73,227.5 222.53,261.98 223.53,280.05 284.62,244.93 	"/>
	<g>
		<path class="st5" d="M274.09,292.2c0.7-0.4,1.26-0.17,1.26,0.52c0,0.69-0.56,1.59-1.26,1.99c-0.69,0.41-1.26,0.17-1.26-0.53
			C272.83,293.5,273.39,292.6,274.09,292.2z"/>
		<path class="st5" d="M266.54,296.55c0.7-0.41,1.26-0.17,1.26,0.52c0,0.7-0.56,1.59-1.26,1.99c-0.69,0.41-1.26,0.17-1.26-0.52
			C265.29,297.85,265.85,296.95,266.54,296.55z"/>
		<path class="st5" d="M259,300.9c0.7-0.41,1.26-0.17,1.26,0.52c0,0.7-0.56,1.59-1.26,1.99c-0.7,0.41-1.26,0.17-1.26-0.53
			C257.74,302.19,258.3,301.3,259,300.9z"/>
		<path class="st5" d="M251.45,305.25c0.7-0.41,1.26-0.17,1.26,0.52c0,0.7-0.56,1.59-1.26,1.99c-0.69,0.41-1.26,0.17-1.26-0.52
			C250.2,306.54,250.76,305.65,251.45,305.25z"/>
		<path class="st5" d="M243.91,309.59c0.69-0.41,1.26-0.17,1.26,0.52c0,0.69-0.56,1.59-1.26,1.99c-0.7,0.41-1.26,0.17-1.26-0.52
			C242.65,310.89,243.22,310,243.91,309.59z"/>
	</g>
	<g>
		<path class="st5" d="M266.09,305.36c0.7-0.41,1.26-0.17,1.26,0.53c0,0.69-0.56,1.59-1.26,1.99c-0.7,0.41-1.26,0.17-1.26-0.52
			C264.83,306.66,265.39,305.76,266.09,305.36z"/>
		<path class="st5" d="M258.54,309.71c0.69-0.41,1.26-0.17,1.26,0.52c0,0.7-0.56,1.59-1.26,1.99c-0.7,0.41-1.26,0.17-1.26-0.52
			C257.28,311.01,257.85,310.11,258.54,309.71z"/>
		<path class="st5" d="M251,314.06c0.7-0.41,1.26-0.17,1.26,0.53c0,0.7-0.56,1.59-1.26,1.99c-0.7,0.4-1.26,0.17-1.26-0.52
			C249.74,315.35,250.3,314.46,251,314.06z"/>
		<path class="st5" d="M243.45,318.41c0.69-0.4,1.26-0.17,1.26,0.52c0,0.7-0.56,1.59-1.26,1.99c-0.7,0.4-1.26,0.17-1.26-0.53
			C242.19,319.7,242.76,318.81,243.45,318.41z"/>
	</g>
	<g>
		<path class="st18" d="M231.55,259.51l-1.83,1.06c-0.48,0.28-0.87,0.87-0.87,1.31v6.62c0,0.44,0.39,0.58,0.87,0.31l1.83-1.06
			c0.48-0.28,0.87-0.87,0.87-1.31v-6.62C232.42,259.37,232.03,259.23,231.55,259.51z"/>
		<path class="st18" d="M243.71,252.47l-1.83,1.06c-0.48,0.28-0.87,0.87-0.87,1.31v6.62c0,0.44,0.39,0.58,0.87,0.31l1.83-1.06
			c0.48-0.28,0.87-0.87,0.87-1.31v-6.62C244.57,252.33,244.18,252.19,243.71,252.47z"/>
	</g>
	<g>
		<path class="st19" d="M237.63,273.38l-1.83,1.06c-0.48,0.28-0.87,0.86-0.87,1.31v6.62c0,0.44,0.39,0.58,0.87,0.31l1.83-1.06
			c0.48-0.28,0.87-0.86,0.87-1.31v-6.62C238.5,273.25,238.11,273.11,237.63,273.38z"/>
		<path class="st19" d="M243.71,269.86l-1.83,1.06c-0.48,0.28-0.87,0.87-0.87,1.31v6.62c0,0.45,0.39,0.58,0.87,0.31l1.83-1.06
			c0.48-0.28,0.87-0.86,0.87-1.31v-6.62C244.57,269.73,244.18,269.59,243.71,269.86z"/>
	</g>
	<g>
		<path class="st19" d="M231.55,293.37l-1.83,1.06c-0.48,0.28-0.87,0.87-0.87,1.31v6.62c0,0.44,0.39,0.58,0.87,0.31l1.83-1.06
			c0.48-0.28,0.87-0.86,0.87-1.31v-6.62C232.42,293.23,232.03,293.09,231.55,293.37z"/>
		<path class="st19" d="M243.71,286.33l-1.83,1.06c-0.48,0.28-0.87,0.86-0.87,1.31v6.62c0,0.45,0.39,0.58,0.87,0.31l1.83-1.06
			c0.48-0.28,0.87-0.87,0.87-1.31v-6.62C244.57,286.2,244.18,286.06,243.71,286.33z"/>
		<path class="st19" d="M249.78,282.81l-1.83,1.06c-0.48,0.28-0.87,0.87-0.87,1.31v6.62c0,0.45,0.39,0.58,0.87,0.31l1.83-1.06
			c0.48-0.28,0.87-0.87,0.87-1.31v-6.62C250.65,282.67,250.26,282.54,249.78,282.81z"/>
	</g>
	<g>
		<path class="st19" d="M256.12,279.1l-1.83,1.06c-0.48,0.28-0.87,0.87-0.87,1.31v6.62c0,0.44,0.39,0.58,0.87,0.31l1.83-1.06
			c0.48-0.28,0.87-0.87,0.87-1.31v-6.62C256.98,278.96,256.59,278.82,256.12,279.1z"/>
		<path class="st19" d="M268.27,272.06l-1.83,1.06c-0.48,0.28-0.87,0.87-0.87,1.31v6.62c0,0.44,0.39,0.58,0.87,0.31l1.83-1.06
			c0.48-0.28,0.87-0.86,0.87-1.31v-6.62C269.13,271.92,268.74,271.78,268.27,272.06z"/>
		<path class="st19" d="M274.34,268.54l-1.83,1.06c-0.48,0.28-0.87,0.86-0.87,1.31v6.62c0,0.45,0.39,0.58,0.87,0.31l1.83-1.06
			c0.48-0.28,0.86-0.86,0.86-1.31v-6.62C275.21,268.4,274.82,268.26,274.34,268.54z"/>
	</g>
	<g>
		<path class="st20" d="M324.74,216.63c0.69-0.4,1.26-0.17,1.26,0.52c0,0.7-0.56,1.59-1.26,1.99c-0.69,0.41-1.26,0.17-1.26-0.52
			C323.49,217.93,324.05,217.03,324.74,216.63z"/>
		<path class="st20" d="M317.2,220.98c0.7-0.41,1.26-0.17,1.26,0.52c0,0.69-0.56,1.59-1.26,1.99c-0.69,0.41-1.26,0.17-1.26-0.53
			C315.94,222.27,316.51,221.38,317.2,220.98z"/>
		<path class="st20" d="M309.65,225.32c0.7-0.41,1.26-0.17,1.26,0.52c0,0.7-0.56,1.59-1.26,1.99c-0.69,0.41-1.26,0.17-1.26-0.52
			C308.4,226.62,308.96,225.73,309.65,225.32z"/>
		<path class="st20" d="M302.11,229.67c0.7-0.41,1.26-0.17,1.26,0.52s-0.56,1.59-1.26,1.99c-0.69,0.41-1.26,0.17-1.26-0.53
			C300.85,230.97,301.42,230.08,302.11,229.67z"/>
		<path class="st20" d="M294.57,234.02c0.7-0.41,1.26-0.17,1.26,0.52c0,0.7-0.56,1.59-1.26,1.99c-0.69,0.41-1.26,0.17-1.26-0.52
			C293.31,235.32,293.87,234.43,294.57,234.02z"/>
	</g>
	<g>
		<path class="st20" d="M324.74,227.85c0.69-0.4,1.26-0.17,1.26,0.53c0,0.7-0.56,1.59-1.26,1.99c-0.69,0.41-1.26,0.17-1.26-0.52
			C323.49,229.14,324.05,228.25,324.74,227.85z"/>
		<path class="st20" d="M317.2,232.2c0.7-0.41,1.26-0.17,1.26,0.52c0,0.7-0.56,1.59-1.26,1.99c-0.69,0.41-1.26,0.17-1.26-0.52
			C315.94,233.49,316.51,232.6,317.2,232.2z"/>
		<path class="st20" d="M309.65,236.54c0.7-0.41,1.26-0.17,1.26,0.52c0,0.7-0.56,1.59-1.26,1.99c-0.69,0.41-1.26,0.17-1.26-0.53
			C308.4,237.84,308.96,236.95,309.65,236.54z"/>
		<path class="st20" d="M302.11,240.89c0.7-0.41,1.26-0.17,1.26,0.52c0,0.69-0.56,1.59-1.26,1.99c-0.69,0.41-1.26,0.17-1.26-0.52
			C300.85,242.19,301.42,241.3,302.11,240.89z"/>
		<path class="st20" d="M294.57,245.24c0.7-0.41,1.26-0.17,1.26,0.52c0,0.7-0.56,1.59-1.26,1.99c-0.69,0.41-1.26,0.17-1.26-0.53
			C293.31,246.54,293.87,245.65,294.57,245.24z"/>
	</g>
	<path class="st9" d="M306.24,200.02l-5.48,3.3c-6.75-1.04-11.02-3.49-12.81-7.36l5.07-28.22l3.08-1.86l7.21,4.14L306.24,200.02z"/>
	<path class="st11" d="M292.4,171.23l0.62-3.48l3.08-1.86l7.21,4.14l0.29,3.02l-3.32,2.05C296.16,174.42,293.87,173.33,292.4,171.23
		z"/>
	<path class="st4" d="M303.32,170.03l-3.08,1.86c-3.8-0.58-6.2-1.96-7.21-4.14l3.08-1.86L303.32,170.03z"/>
	<path class="st14" d="M299.16,159.5L299.16,159.5l-0.04,0.09l-0.01,0.03l-0.08,0.08l-0.06,0.05l-0.07,0.03l-0.19,0.08l-0.07,0.03
		l-0.1,0.03l-0.1,0.01l-0.03,0.01l-0.14,0h-0.04l-0.16,0l-0.02-0.01l-0.15-0.02l-0.03-0.01l-0.13-0.04l-0.03,0l-0.14-0.07
		c-0.2-0.11-0.28-0.24-0.28-0.38l-0.09,9.58c0,0.13,0.09,0.28,0.28,0.39l0.13,0.06h0.01l0.03,0.01l0.09,0.03l0.04,0.01l0.03,0.01
		h0.02l0.1,0.02h0.03h0.03l0.04,0.01l0.09,0.01h0.04l0.03,0l0.02,0l0.11-0.01l0.01-0.01h0.03l0.08-0.02h0.03l0.1-0.02l0.05-0.01
		l0.02-0.01c0.05-0.03,0.11-0.05,0.18-0.08l0.01-0.01l0.04-0.03l0.07-0.04l0.01-0.01l0.05-0.06v-0.02l0.01-0.01l0.02-0.03l0.03-0.06
		v-0.01l0.01-0.01l0.01-0.02v-0.07l0.09-9.58v-0.01L299.16,159.5z"/>
	<path class="st5" d="M298.07,159.93l-0.02-0.01l-0.15-0.02l-0.03-0.01l-0.13-0.04l-0.03,0l-0.14-0.07
		c-0.2-0.11-0.28-0.24-0.28-0.38l-0.09,9.58c0,0.13,0.09,0.28,0.28,0.39l0.13,0.06h0.01l0.03,0.01l0.09,0.03l0.04,0.01l0.03,0.01
		h0.02l0.1,0.02h0.03h0.03l0.04,0.01l0.09,0.01v-9.59H298.07z"/>
	<g>
		<path class="st5" d="M293.74,156.4c0,2.51,2,4.55,4.48,4.55c2.48,0,4.49-2.03,4.49-4.54c0-2.51-2.01-4.55-4.49-4.56
			C295.74,151.86,293.74,153.89,293.74,156.4z"/>
		<path class="st4" d="M298.8,159.19c-2.07,0-3.76-1.7-3.76-3.82c0-1.44,0.8-2.69,1.97-3.34c0.39-0.11,0.79-0.17,1.22-0.17
			c2.08,0,3.83,1.44,4.34,3.38l0,0.14C302.56,157.5,300.88,159.19,298.8,159.19z"/>
		<path class="st8" d="M298.22,154.6c0,0.72,0.57,1.3,1.28,1.3c0.7,0,1.28-0.58,1.28-1.3c0-0.72-0.58-1.3-1.28-1.3
			C298.79,153.31,298.22,153.89,298.22,154.6z"/>
	</g>
	<polygon class="st5" points="300.23,171.89 300.76,203.33 306.24,200.02 303.32,170.04 	"/>
	<polygon class="st16" points="300.23,171.89 300.29,175.1 300.29,175.1 303.61,173.05 303.32,170.04 	"/>
	<g>
		<path class="st18" d="M264.34,240.45l-1.83,1.06c-0.48,0.28-0.87,0.87-0.87,1.31v6.62c0,0.45,0.39,0.58,0.87,0.31l1.83-1.06
			c0.48-0.28,0.87-0.87,0.87-1.31v-6.62C265.2,240.31,264.82,240.17,264.34,240.45z"/>
		<path class="st18" d="M276.49,233.41l-1.83,1.06c-0.48,0.28-0.87,0.87-0.87,1.31v6.62c0,0.44,0.39,0.58,0.87,0.31l1.83-1.06
			c0.48-0.28,0.87-0.87,0.87-1.31v-6.62C277.35,233.27,276.97,233.14,276.49,233.41z"/>
	</g>
	<g>
		<path class="st5" d="M304.38,274.63c0.7-0.41,1.26-0.17,1.26,0.52c0,0.69-0.56,1.59-1.26,1.99c-0.7,0.41-1.26,0.17-1.26-0.52
			C303.12,275.93,303.68,275.03,304.38,274.63z"/>
		<path class="st5" d="M296.83,278.98c0.7-0.41,1.26-0.17,1.26,0.53c0,0.7-0.56,1.59-1.26,1.99c-0.7,0.41-1.26,0.17-1.26-0.52
			C295.58,280.28,296.14,279.38,296.83,278.98z"/>
		<path class="st5" d="M289.29,283.33c0.7-0.41,1.26-0.17,1.26,0.52c0,0.7-0.56,1.59-1.26,1.99c-0.7,0.41-1.26,0.17-1.26-0.52
			C288.03,284.63,288.59,283.73,289.29,283.33z"/>
		<path class="st5" d="M281.74,287.68c0.7-0.4,1.26-0.17,1.26,0.52c0,0.69-0.56,1.59-1.26,1.99c-0.7,0.41-1.26,0.17-1.26-0.53
			C280.49,288.97,281.05,288.08,281.74,287.68z"/>
	</g>
	<g>
		<path class="st5" d="M296.38,287.79c0.7-0.41,1.26-0.17,1.26,0.52c0,0.7-0.56,1.59-1.26,1.99c-0.7,0.41-1.26,0.17-1.26-0.53
			C295.12,289.09,295.68,288.2,296.38,287.79z"/>
		<path class="st5" d="M288.83,292.14c0.7-0.41,1.26-0.17,1.26,0.52c0,0.7-0.56,1.59-1.26,1.99c-0.69,0.41-1.26,0.17-1.26-0.52
			C287.57,293.44,288.14,292.54,288.83,292.14z"/>
		<path class="st5" d="M281.29,296.49c0.7-0.41,1.26-0.17,1.26,0.52c0,0.69-0.56,1.59-1.26,1.99c-0.7,0.4-1.26,0.17-1.26-0.52
			C280.03,297.79,280.59,296.89,281.29,296.49z"/>
		<path class="st5" d="M273.74,300.84c0.7-0.4,1.26-0.17,1.26,0.53c0,0.7-0.56,1.59-1.26,1.99c-0.69,0.41-1.26,0.17-1.26-0.52
			C272.48,302.13,273.05,301.24,273.74,300.84z"/>
	</g>
	<path class="st21" d="M349.93,259.24l-0.79-5.46v-2.53l1.15-0.65l1.83,11.03l-1.71,0.96l-0.29-1.99l-0.98,0.55v-1.47L349.93,259.24
		z M349.14,253.78l-0.02-0.14l-0.03,0.02l-0.74,6.47l0.79-0.44v1.47l-0.97,0.54l-0.26,2.3l-1.77,0.99l1.72-13.02l1.27-0.72V253.78z"
		/>
	<path class="st21" d="M355.99,247.4l0.42-0.24c0.63-0.35,1.1-0.49,1.41-0.41c0.31,0.08,0.51,0.32,0.61,0.72
		c0.1,0.4,0.15,0.97,0.15,1.7c0,0.73-0.08,1.33-0.23,1.8c-0.16,0.47-0.44,0.89-0.86,1.26c0.41-0.16,0.7-0.04,0.87,0.35
		c0.16,0.4,0.25,1.37,0.25,2.91c0,1.55,0.02,2.36,0.07,2.45l-1.84,1.03c-0.04-0.07-0.07-1.49-0.07-4.28c0-0.53-0.06-0.85-0.19-0.96
		c-0.11-0.09-0.3-0.06-0.58,0.06v-1.47c0.21-0.13,0.37-0.27,0.47-0.42c0.11-0.17,0.19-0.39,0.23-0.67c0.04-0.28,0.07-0.68,0.07-1.21
		v-0.07c0-0.65-0.06-1.05-0.16-1.19c-0.09-0.12-0.3-0.1-0.61,0.05V247.4z M355.8,253.89l-0.59,0.3v5.69l-1.84,1.03v-12.05l2.62-1.47
		v1.42c-0.05,0.02-0.1,0.05-0.15,0.08l-0.62,0.35v3.53l0.73-0.41l0.04-0.02v1.47C355.93,253.83,355.87,253.86,355.8,253.89z"/>
	<path class="st21" d="M365.38,250.89c0,1.16-0.21,2.14-0.62,2.94c-0.42,0.79-1.07,1.44-1.96,1.94c-0.89,0.5-1.56,0.58-2,0.23
		c-0.44-0.35-0.66-1.08-0.66-2.2v-5.25c0-1.79,0.47-3.18,1.41-4.16c0.35-0.36,0.77-0.68,1.26-0.96c1.69-0.95,2.54-0.36,2.54,1.78
		v1.66l-1.77,1v-1.54c0-0.62-0.05-1.04-0.16-1.24c-0.11-0.21-0.31-0.23-0.62-0.05c-0.31,0.17-0.52,0.43-0.64,0.78
		c-0.12,0.35-0.18,0.82-0.18,1.4v5.63c0,0.65,0.06,1.08,0.17,1.29c0.11,0.22,0.32,0.24,0.62,0.07c0.3-0.17,0.51-0.43,0.62-0.78
		c0.11-0.35,0.17-0.85,0.17-1.5v-1.73l1.8-1.01V250.89z"/>
	<polygon class="st21" points="367.49,252.99 367.49,242.52 366.08,243.32 366.08,241.73 370.68,239.15 370.68,240.73 369.32,241.5 
		369.32,251.96 	"/>
	<polygon class="st21" points="371.76,250.59 371.76,238.54 373.6,237.51 373.6,249.56 	"/>
	<path class="st21" d="M380.56,242.36c0,1.16-0.21,2.14-0.62,2.94c-0.42,0.79-1.07,1.44-1.96,1.94c-0.89,0.5-1.56,0.58-2,0.23
		c-0.44-0.35-0.66-1.08-0.66-2.2v-5.25c0-1.79,0.47-3.18,1.41-4.16c0.35-0.36,0.77-0.68,1.26-0.96c1.69-0.95,2.54-0.36,2.54,1.78
		v1.66l-1.77,1v-1.54c0-0.62-0.05-1.04-0.16-1.24c-0.11-0.21-0.31-0.23-0.62-0.05c-0.31,0.17-0.52,0.43-0.64,0.78
		c-0.12,0.35-0.18,0.82-0.18,1.4v5.63c0,0.65,0.06,1.08,0.17,1.29c0.11,0.22,0.32,0.24,0.62,0.07c0.3-0.17,0.51-0.43,0.62-0.78
		c0.11-0.35,0.17-0.85,0.17-1.5v-1.73l1.8-1.01V242.36z"/>
	<path class="st22" d="M159.16,346.32v-0.84l0.05-0.01c0.16-0.05,0.28-0.11,0.35-0.19c0.07-0.08,0.12-0.2,0.15-0.36
		c0.02-0.16,0.03-0.39,0.01-0.69c0-0.01,0-0.03,0-0.04c-0.03-0.38-0.08-0.61-0.17-0.71c-0.07-0.08-0.2-0.09-0.38-0.06v-0.85
		l0.16-0.05c0.42-0.13,0.74-0.16,0.97-0.07c0.22,0.08,0.38,0.24,0.47,0.48c0.09,0.24,0.16,0.58,0.19,1c0.03,0.42-0.01,0.76-0.1,1.01
		c-0.1,0.25-0.29,0.46-0.57,0.63c0.29-0.04,0.49,0.06,0.61,0.3c0.12,0.25,0.2,0.81,0.19,1.7c0,0.88-0.01,1.35,0.02,1.41
		c-0.43,0.12-0.86,0.25-1.3,0.37c-0.03-0.05-0.01-0.86,0-2.45c0-0.31-0.05-0.5-0.14-0.57C159.57,346.27,159.41,346.26,159.16,346.32
		L159.16,346.32z M165.75,345.57c0.02,0.67-0.11,1.22-0.4,1.64c-0.29,0.42-0.74,0.75-1.36,0.95c-0.62,0.21-1.09,0.19-1.39-0.06
		c-0.3-0.24-0.45-0.69-0.46-1.33c-0.02-1.01-0.05-2.02-0.13-3.03c-0.08-1.04,0.16-1.8,0.77-2.27c0.22-0.17,0.5-0.32,0.84-0.44
		c1.15-0.41,1.8-0.01,1.91,1.24c0.03,0.32,0.05,0.64,0.07,0.97c-0.4,0.15-0.8,0.3-1.21,0.44c-0.02-0.3-0.04-0.59-0.07-0.89
		c-0.03-0.36-0.09-0.61-0.18-0.74c-0.09-0.13-0.23-0.16-0.45-0.09c-0.21,0.07-0.34,0.21-0.4,0.4c-0.06,0.2-0.08,0.46-0.05,0.8
		c0.08,1.09,0.14,2.17,0.17,3.25c0.01,0.37,0.04,0.63,0.13,0.76c0.08,0.13,0.23,0.16,0.43,0.09c0.21-0.07,0.36-0.2,0.43-0.39
		c0.08-0.19,0.11-0.48,0.1-0.85c-0.01-0.33-0.02-0.67-0.03-1c0.41-0.14,0.81-0.29,1.22-0.44
		C165.73,344.91,165.74,345.24,165.75,345.57L165.75,345.57z M167.25,346.93c-0.02-1.01-0.04-2.02-0.1-3.03
		c-0.05-1.02-0.14-2.03-0.22-3.05c-0.33,0.12-0.65,0.24-0.97,0.37c-0.03-0.31-0.06-0.61-0.09-0.92c1.06-0.4,2.13-0.81,3.2-1.24
		c0.03,0.31,0.05,0.62,0.08,0.93c-0.32,0.13-0.63,0.25-0.95,0.37c0.08,1.02,0.16,2.04,0.21,3.05c0.05,1.01,0.08,2.03,0.11,3.03
		C168.09,346.6,167.66,346.77,167.25,346.93L167.25,346.93z M170.19,345.76c-0.03-1.17-0.07-2.33-0.13-3.5
		c-0.06-1.17-0.14-2.34-0.23-3.51c0.44-0.18,0.87-0.36,1.32-0.53c0.07,1.17,0.14,2.34,0.19,3.51c0.05,1.17,0.09,2.34,0.12,3.51
		C171.04,345.41,170.61,345.59,170.19,345.76L170.19,345.76z M176.34,341.14c0,0.68-0.15,1.25-0.45,1.71
		c-0.29,0.46-0.75,0.84-1.38,1.12c-0.62,0.28-1.09,0.32-1.41,0.1c-0.31-0.21-0.48-0.64-0.5-1.29c-0.03-1.02-0.07-2.04-0.11-3.06
		c-0.05-1.05,0.26-1.85,0.95-2.4c0.25-0.2,0.56-0.38,0.93-0.53c1.28-0.54,1.93-0.19,1.93,1.05c0,0.32,0,0.64,0,0.96
		c-0.44,0.2-0.87,0.39-1.31,0.58c-0.01-0.3-0.01-0.6-0.01-0.89c-0.01-0.36-0.05-0.61-0.13-0.73c-0.08-0.12-0.24-0.13-0.47-0.04
		c-0.23,0.1-0.38,0.24-0.46,0.45c-0.08,0.2-0.12,0.47-0.11,0.81c0.03,1.09,0.06,2.19,0.08,3.27c0.01,0.38,0.05,0.63,0.13,0.76
		c0.08,0.13,0.23,0.14,0.44,0.05c0.21-0.09,0.36-0.24,0.44-0.45c0.08-0.2,0.12-0.49,0.11-0.87c-0.01-0.33-0.01-0.67-0.01-1
		c0.43-0.19,0.87-0.39,1.31-0.59C176.34,340.48,176.34,340.81,176.34,341.14z M154.94,348.51c-0.14-1.1-0.31-2.19-0.51-3.29
		c-0.01,0-0.01,0-0.02,0l-0.05,0.33v-1.69c0.27-0.06,0.54-0.13,0.82-0.2c0.27,1.1,0.53,2.19,0.72,3.28
		c0.19,1.08,0.34,2.17,0.49,3.25c-0.42,0.09-0.84,0.18-1.25,0.27c-0.04-0.39-0.07-0.77-0.11-1.16c-0.22,0.05-0.44,0.09-0.66,0.14
		v-0.81L154.94,348.51L154.94,348.51z M159.16,342.58v0.85c-0.05,0.01-0.09,0.02-0.15,0.04c-0.14,0.04-0.28,0.08-0.42,0.12
		c0.05,0.68,0.09,1.35,0.11,2.03c0.15-0.04,0.31-0.08,0.46-0.13v0.84l-0.04,0.01c-0.14,0.03-0.27,0.07-0.41,0.1
		c0,1.08-0.03,2.17-0.08,3.24c-0.44,0.11-0.88,0.22-1.32,0.33c0.06-1.14,0.12-2.27,0.11-3.41c0-1.15-0.07-2.3-0.15-3.45
		C157.9,342.95,158.53,342.77,159.16,342.58z M154.36,345.55c-0.16,1.07-0.35,2.13-0.57,3.19c0.19-0.04,0.38-0.08,0.57-0.11v0.81
		c-0.26,0.05-0.51,0.1-0.77,0.15c-0.1,0.41-0.2,0.82-0.31,1.24c-0.44,0.07-0.88,0.15-1.33,0.22c0.34-1.15,0.67-2.3,0.94-3.47
		c0.27-1.16,0.45-2.35,0.62-3.53c0.28-0.06,0.57-0.13,0.85-0.19V345.55z"/>
	<g>
		<path class="st20" d="M261.22,205.36c0.7-0.41,1.26-0.17,1.26,0.52c0,0.7-0.56,1.59-1.26,1.99c-0.69,0.41-1.26,0.17-1.26-0.52
			C259.96,206.66,260.52,205.77,261.22,205.36z"/>
		<path class="st20" d="M253.67,209.71c0.7-0.41,1.26-0.17,1.26,0.52c0,0.7-0.56,1.59-1.26,1.99c-0.69,0.41-1.26,0.17-1.26-0.53
			C252.41,211.01,252.98,210.11,253.67,209.71z"/>
		<path class="st20" d="M246.13,214.06c0.7-0.41,1.26-0.17,1.26,0.53c0,0.7-0.56,1.59-1.26,1.99c-0.69,0.41-1.26,0.17-1.26-0.52
			C244.87,215.36,245.43,214.46,246.13,214.06z"/>
	</g>
</g>
</svg>
