<?xml version="1.0" encoding="utf-8"?>
<!-- Generator: Adobe Illustrator 24.2.3, SVG Export Plug-In . SVG Version: 6.00 Build 0)  -->
<svg version="1.1" id="Layer_1" xmlns="http://www.w3.org/2000/svg" xmlns:xlink="http://www.w3.org/1999/xlink" x="0px" y="0px"
	 viewBox="0 0 91.4 91.4" style="enable-background:new 0 0 91.4 91.4;" xml:space="preserve">
<style type="text/css">
	.st0{fill:#FF6C52;}
	.st1{fill:#FF583E;}
	.st2{fill:#FF8870;}
	.st3{fill:#F2F6FC;}
	.st4{fill:#555A66;}
	.st5{fill:#333333;}
</style>
<g id="Layer_2_1_">
	<g id="Board_Game">
		<circle class="st0" cx="45.7" cy="45.7" r="29.3"/>
		<path class="st1" d="M55.1,65.5c-16.2,0-29.3-13.1-29.3-29.2c0-5.5,1.5-10.8,4.4-15.5c-13.7,8.5-17.9,26.6-9.4,40.3
			s26.6,17.9,40.3,9.4c3.8-2.4,7-5.6,9.4-9.4C65.9,64,60.6,65.5,55.1,65.5z"/>
		<path class="st2" d="M65.2,58.3c-4.2,3.2-10,3.2-14.2,0c-3.1-2.3-6.8-3.6-10.7-3.6H17.8c5,15.4,21.5,23.8,36.9,18.8
			c8.9-2.9,15.9-9.8,18.8-18.7C70.5,55.3,67.6,56.5,65.2,58.3z"/>
		<path class="st0" d="M45.7,74.9c10.1,0,19.5-5.2,24.9-13.9c-12.5,7.8-28.9,5-38.2-6.4H17.8C21.7,66.7,33,74.9,45.7,74.9z"/>
		<path class="st2" d="M40.3,43.1c3.9,0,7.6-1.3,10.7-3.6c4.2-3.2,10-3.2,14.2,0c2.8,2.1,6.2,3.4,9.7,3.6
			c-1.4-16.1-15.6-28-31.7-26.6C29,17.8,17.7,29,16.5,43.1L40.3,43.1z"/>
		<path class="st0" d="M26.6,43.1c-1.8-7.6-0.6-15.7,3.6-22.3c-7.8,4.9-12.9,13.2-13.7,22.3H26.6z"/>
		<ellipse class="st3" cx="36.3" cy="30.5" rx="3.5" ry="2.8"/>
		<ellipse class="st3" cx="55.1" cy="30.5" rx="3.5" ry="2.8"/>
		<path class="st4" d="M48.5,28.4c0-1.7-1.3-1.9-2.8-1.9s-2.8,0.2-2.8,1.9c-0.1,1.6,1.2,3,2.8,3.1C47.3,31.4,48.5,30,48.5,28.4z"/>
		<path class="st5" d="M36.9,28.1c-0.5,0-0.9-0.4-0.9-0.9c0,0,0,0,0,0v-1.4c0-0.5,0.3-0.9,0.8-1c0.5,0,0.9,0.3,1,0.8
			c0,0.1,0,0.1,0,0.2v1.4C37.7,27.7,37.4,28.1,36.9,28.1z"/>
		<path class="st5" d="M45.7,32.4c-2.1-0.1-3.8-1.9-3.7-4c0-2.8,2.6-2.8,3.7-2.8s3.7,0,3.7,2.8C49.4,30.5,47.8,32.3,45.7,32.4z
			 M45.7,27.4c-1.8,0-1.9,0.3-1.9,1c-0.1,1.1,0.8,2.1,1.9,2.2c1.1-0.1,2-1.1,1.9-2.2C47.6,27.7,47.5,27.4,45.7,27.4L45.7,27.4z"/>
		<path class="st5" d="M54.5,28.1c-0.5,0-0.9-0.4-0.9-0.9l0,0v-1.4c0-0.5,0.4-0.9,0.9-0.9c0.5,0,0.9,0.4,0.9,0.9v1.4
			C55.4,27.7,55,28.1,54.5,28.1L54.5,28.1z"/>
		<circle class="st2" cx="58.1" cy="48.9" r="5.9"/>
		<circle class="st2" cx="46.4" cy="65.4" r="4.7"/>
		<circle class="st2" cx="30.2" cy="62.5" r="2.4"/>
		<path class="st5" d="M67,24.3c-11.8-11.8-30.9-11.8-42.7,0s-11.8,30.9,0,42.7S55.2,78.8,67,67S78.8,36.1,67,24.3
			C67,24.3,67,24.3,67,24.3z M45.7,17.3C60,17.3,72,27.9,73.8,42.1c-3-0.4-5.8-1.5-8.1-3.3c-4.5-3.4-10.8-3.4-15.3,0
			c-2.9,2.2-6.5,3.4-10.1,3.4h-6.1c-0.5,0-0.9,0.4-0.9,0.9s0.4,0.9,0.9,0.9l0,0h6.1c4,0,8-1.4,11.2-3.8c3.9-2.9,9.3-2.9,13.1,0
			c2.7,2.1,6,3.3,9.4,3.7c0,0.6,0.1,1.2,0.1,1.7c0,2.8-0.4,5.7-1.3,8.4c-3,0.5-5.8,1.7-8.2,3.5c-3.9,2.9-9.3,2.9-13.1,0
			c-3.2-2.4-7.2-3.8-11.2-3.8H18.5c-0.8-2.6-1.2-5.4-1.2-8.1c0-0.6,0-1.1,0-1.7h13.6c0.5,0,0.9-0.4,0.9-0.9c0-0.5-0.4-0.9-0.9-0.9
			H17.5C19.2,28,31.3,17.3,45.7,17.3z M45.7,74.1c-11.9,0-22.5-7.4-26.6-18.5h21.3c3.7,0,7.2,1.2,10.1,3.4c4.5,3.4,10.8,3.4,15.3,0
			c1.9-1.4,4.1-2.5,6.4-3C67.9,66.9,57.4,74.1,45.7,74.1z"/>
		<path class="st5" d="M58.1,55.7c3.7,0,6.8-3,6.8-6.8c0-1.1-0.3-2.3-0.8-3.3c-0.2-0.4-0.8-0.6-1.2-0.3c-0.4,0.2-0.6,0.8-0.3,1.2
			c1.3,2.4,0.4,5.5-2,6.8c-2.4,1.3-5.5,0.4-6.8-2c-1.3-2.4-0.4-5.5,2-6.8c1.5-0.8,3.3-0.8,4.8,0c0.4,0.3,1,0.2,1.2-0.3
			c0.3-0.4,0.2-1-0.3-1.2c0,0-0.1,0-0.1-0.1c-3.3-1.8-7.4-0.6-9.2,2.7c-1.8,3.3-0.6,7.4,2.7,9.2C55.8,55.4,56.9,55.7,58.1,55.7
			L58.1,55.7z"/>
		<path class="st5" d="M46.4,59.8c-3.1,0-5.6,2.5-5.6,5.6c0,3.1,2.5,5.6,5.6,5.6c3.1,0,5.6-2.5,5.6-5.6c0,0,0,0,0,0
			C52,62.3,49.5,59.8,46.4,59.8z M46.4,69.2c-2.1,0-3.8-1.7-3.8-3.8c0-2.1,1.7-3.8,3.8-3.8c2.1,0,3.8,1.7,3.8,3.8c0,0,0,0,0,0
			C50.3,67.5,48.5,69.2,46.4,69.2z"/>
		<path class="st5" d="M30.2,59.2c-1.8,0-3.2,1.5-3.2,3.2c0,1.8,1.5,3.2,3.2,3.2s3.2-1.5,3.2-3.2C33.5,60.7,32,59.2,30.2,59.2
			C30.2,59.2,30.2,59.2,30.2,59.2z M30.2,63.9c-0.8,0-1.5-0.7-1.5-1.5s0.7-1.5,1.5-1.5c0.8,0,1.5,0.7,1.5,1.5S31,63.9,30.2,63.9
			C30.2,63.9,30.2,63.9,30.2,63.9z"/>
	</g>
</g>
</svg>
