<?xml version="1.0" encoding="utf-8"?>
<!-- Generator: Adobe Illustrator 24.2.3, SVG Export Plug-In . SVG Version: 6.00 Build 0)  -->
<svg version="1.1" id="Layer_1" xmlns="http://www.w3.org/2000/svg" xmlns:xlink="http://www.w3.org/1999/xlink" x="0px" y="0px"
	 viewBox="0 0 512 512" style="enable-background:new 0 0 512 512;" xml:space="preserve">
<style type="text/css">
	.st0{fill:#FFC98C;}
	.st1{fill:#F7A16E;}
	.st2{fill:#1A3E6E;}
	.st3{fill:#3F5F94;}
	.st4{fill:#333333;}
	.st5{fill:#CC3A3A;}
	.st6{fill:#EB423F;}
	.st7{fill:none;}
	.st8{fill:#FFFFFF;}
	.st9{font-family:'Kodchasan-Bold';}
	.st10{font-size:47.1266px;}
</style>
<g>
	<g>
		<g>
			<path class="st0" d="M204.1,263.2c0,0.8-0.1,1.6-0.1,2.4v42.8c0,11.1,9,20.2,20.2,20.2h9.3v-72.1L204.1,263.2z"/>
			<path class="st1" d="M233.6,256.4v72.1h54.2c11.1,0,20.2-9,20.2-20.2v-43c0-0.7,0-1.5-0.1-2.2L233.6,256.4z"/>
			<path class="st2" d="M288.1,402.8V263.2h19.8c-0.6-11.8-6.3-23-16.2-31.6c-9.8-8.5-22.8-13.5-35.5-13.5H256
				c-7.6,0-15.3,1.7-22.4,5L256,343.6c6.5,0,11.8,5.3,11.8,11.8v59.9h0.1c-0.1,0.6-0.1,1.3-0.1,2c0,1.7,1.3,3.1,3,3.1h24.2
				c1.7,0,3-1.3,3-3v-0.4C298.1,410.5,293.9,404.9,288.1,402.8z"/>
			<path class="st3" d="M233.6,223l-2.3,1.2c-16.1,8.3-26.3,23.1-27.1,38.9H224v139.7c-5.9,2.2-10.1,8-10.1,14.6c0,1.6,1.4,3,3,3
				h24.2c1.7,0,3-1.3,3-3v-0.4c0-0.6,0-1.1-0.1-1.7h0.1v-59.9c0-6.5,5.3-11.8,11.8-11.8V229.9L233.6,223z"/>
			<path class="st0" d="M288.1,120.2c-9.4-6.7-20.3-10.8-32-10.8c-31.8,0-58.1,30.2-63,61.6c-1.8-0.8-3.8-1.2-5.9-1.2
				c-8.4,0-15.1,6.8-15.1,15.1s6.8,15.1,15.1,15.1c2.7,0,5.3-0.7,7.5-2c1.8,6.3,4.7,12.2,8.3,17.6c1.8,2.6,11.9,10.6,26.3,13.6
				l34.4,7.2l30.9-30.3C319.7,181.7,316.8,140.6,288.1,120.2z"/>
			<path class="st1" d="M324.8,169.9c-1.9,0-3.8,0.4-5.5,1c-0.1-0.5-0.1-0.9-0.2-1.4c-3.4-19.9-14.4-38.1-30.9-49.4
				c9.4,12.9,14.1,27.7,14.1,43.2c0,34.8-28.6,63-63.9,63c-13.1,0-25.3-3.9-35.4-10.6c9.7,14.4,25.3,24.6,43.4,27.3
				c6.4,1,13,1,19.5,0c24.8-3.7,44.9-21.5,51.7-44.8c2.1,1.2,4.6,1.8,7.2,1.8c8.4,0,15.1-6.8,15.1-15.1
				C339.9,176.7,333.1,169.9,324.8,169.9z"/>
			<path class="st3" d="M324.4,139c-13.4-26.7-38.3-52.6-68.1-52.6c-5.5,0-12.6,0.8-19.1,2c-8,1.5-13.9,8.5-13.9,16.7
				c-9.2,0-17.8,4.3-23.3,11.6c-1.6,2.2-3.2,4.4-4.6,6.6c-9.2,14.3-10.1,32.4-2.4,47.6l0,0l43.7-34.9l61.9,26.2l27.2-5.7
				C326.8,150.7,326.4,144.7,324.4,139z"/>
			<path class="st2" d="M321.2,132.5c-6-9.8-13.6-19-18.2-23.7c5.4,7.1,7.6,20.3,7.6,29c0,12.9-5.3,17.1-17.2,14.5
				c-16.4-3.5-41.1-16.7-57.3-40.6c-3-4.4-8-6.8-12.9-6.6c0,8.3,1.2,10.2-1.4,27.7c-2.9,13.4-15,23.1-28.7,23.1c-0.4,0-2.2,0-4.9,0
				c0.7,5.1,2.3,10.2,4.7,15c0.1,0,0.1,0.1,0.1,0.1c21.3,0,39.1-15,43.5-35c21.5,22.1,51,34.8,82.7,34.8l0,0
				C327.8,159.8,328.6,144.5,321.2,132.5z"/>
			<circle class="st4" cx="233" cy="185.6" r="5"/>
			<circle class="st4" cx="278.1" cy="185.6" r="5"/>
			<path class="st4" d="M259.7,186.4c-1,1-2.2,1.5-3.6,1.5s-2.6-0.5-3.6-1.5c-2-2-5.2-2-7.1,0c-2,2-2,5.2,0,7.1
				c2.9,2.9,6.7,4.4,10.7,4.4c4,0,7.8-1.6,10.7-4.4c2-2,2-5.2,0-7.1C264.9,184.4,261.7,184.4,259.7,186.4z"/>
			<path class="st4" d="M336.1,168.3c-2.4-1.6-5-2.7-7.8-3.2c2.3-5.6,3.3-11.7,2.9-17.8c0,0,0,0,0,0c-0.5-6.2-2.4-12.2-5.7-17.5
				c-7-11.3-15.8-21.7-19-24.7c-25.6-26-48.9-25.8-70.3-21.7c-8.8,1.7-15.6,8.5-17.5,17c-14.3,1.9-21.5,10.7-27.6,20.2
				c-8.5,13.1-10.6,29.7-6.1,44.3c-3.2,0.4-6.3,1.5-9,3.3c-5.6,3.7-9,10-9,16.7c0,7.3,3.7,13.8,10,17.4c4.5,2.6,9.6,3.4,14.5,2.3
				c4.2,10.8,11,20.5,20.2,28.2c-7.7,8.6-12.2,19.1-12.7,30c0,0,0,0,0,0c-0.1,1-0.1,1.9-0.1,2.7v42.8c0,12.1,8.6,22.2,20,24.7v66.7
				c-6.2,3.6-10.1,10.4-10.1,17.8c0,4.4,3.6,8,8,8h24.2c4.4,0,8-3.6,8-8v-0.4c0-98.6,0-44.3,0-61.3c0-3.8,3.1-7.2,6.9-7.1
				c3.7,0.1,6.7,3.1,6.7,6.8c0,0,0,61.9,0,61.9c0,2.2,0.8,4.2,2.4,5.8c1.5,1.5,3.5,2.4,5.7,2.4h24.2c4.4,0,8-3.6,8-8v-0.4
				c0-7.3-3.9-13.9-10.1-17.5V333c11.3-2.5,19.9-12.6,19.9-24.6c0-45,0-43.9-0.1-45.3l0-0.2c0,0,0,0,0,0c-0.6-10.8-5-21.2-12.7-29.8
				c9.2-7.5,16.2-17.3,20.4-28.3c4.8,1,9.9,0.2,14.4-2.4c6.2-3.7,9.9-10.1,9.9-17.3C344.9,178.3,341.6,172.1,336.1,168.3z
				 M199.6,126.1c1.3-2,2.8-4.1,4.4-6.3c4.5-6,11.7-9.6,19.2-9.6c0,0,0,0,0,0c1.3,0,2.6-0.5,3.6-1.5c0.9-0.9,1.5-2.2,1.5-3.6
				c0-5.7,4.1-10.7,9.8-11.8c17.4-3.3,38-4.9,61.4,19c6.3,6.5,12.8,15.2,17.5,22.8c2.4,3.9,3.9,8.3,4.2,12.9c0,0,0,0,0,0
				c0.5,6.3-1.1,12.5-4.5,17.7c-29.5-0.7-56.4-12.7-76.5-33.3c-1.3-1.3-3.2-1.8-5-1.3c-1.8,0.5-3.1,2-3.5,3.8
				c-3.7,16.8-18.3,29.6-35.6,30.9C190.7,153.2,192,137.9,199.6,126.1z M209.1,308.3v-40.2l9.9,0v54.4
				C213.2,320.4,209.1,314.8,209.1,308.3z M302.9,308.3c0,6.4-4.1,12-9.8,14.2v-9.2c0,0,0,0,0,0c0,0,0,0,0,0v-45h9.8
				C302.9,271.2,302.9,272.1,302.9,308.3z M329.9,193.6c-3.1,1.8-6.8,1.9-10,0.2c-1.3-0.7-2.9-0.8-4.3-0.2c-1.4,0.6-2.5,1.8-2.9,3.2
				c-3.7,12.7-11.8,23.9-22.9,31.5c-7.3,5.1-15.9,8.4-24.7,9.8c-2.8,0.4-4.6,3-4.2,5.7c0.4,2.8,3,4.6,5.7,4.2
				c8.9-1.3,17.6-4.5,25.4-9.2c5.3,5.7,8.8,12.2,10.2,19.2h-9.1c-5.6,0-10.1,4.5-10.1,10.1v40h-38.8c-2.8,0-5,2.3-5,5
				c0,2.8,2.3,5,5,5H283v84.5c0,2.1,1.3,4,3.4,4.8c3.5,1.2,6,4.3,6.6,7.8h-19.9c0-0.4,0-0.8-0.1-1.2v-58.7c0-9.1-7.4-16.7-16.6-16.9
				c-9.6-0.2-17.2,7.9-17.2,17.2v58.6c-0.1,0.3-0.1,0.6-0.1,1h-19.9c0.7-3.6,3.2-6.6,6.6-7.8c2-0.7,3.3-2.6,3.3-4.7v-89.6
				c0,0,0,0,0,0s0,0,0,0v-45c0-5.6-4.5-10.1-10.1-10.1h-9.2c1.4-7,5-13.7,10.3-19.3c10.9,6.6,23.3,9.3,26.3,9.3c2.5,0,4.6-1.8,5-4.3
				c0.4-2.8-1.5-5.3-4.2-5.7c-8.9-1.3-17.5-4.8-24.9-9.9c-11.2-7.8-19.1-19-22.8-31.5c-0.4-1.5-1.5-2.7-2.9-3.3
				c-1.4-0.6-3-0.5-4.4,0.3c-3.1,1.8-6.9,1.8-10-0.1c-3.1-1.8-5-5.1-5-8.7c0-3.4,1.6-6.5,4.5-8.4c5.1-3.4,9.5-0.8,10.6-0.6
				c2,0.3,18.1,0.4,32.1-11.1c6.4-5.2,11.4-12,14.6-19.6c22,19.8,50.2,30.6,80.3,30.6c0.6,0,1.3-0.1,1.8-0.3
				c3.1-1.2,6.6-0.8,9.3,1.1c2.8,1.9,4.4,4.9,4.4,8.3C334.8,188.5,333,191.8,329.9,193.6z"/>
		</g>
	</g>
	<g>
		<g>
			<path class="st5" d="M123.5,420.2c0-0.2,0-0.5,0-0.7c0-0.1,0-0.2,0-0.4c0-0.2-0.1-0.4-0.1-0.6c0-0.1,0-0.3-0.1-0.4
				c0-0.2-0.1-0.3-0.1-0.5c-0.1-0.2-0.1-0.4-0.2-0.6c0-0.1-0.1-0.2-0.1-0.4c-0.1-0.2-0.2-0.4-0.2-0.6c0,0,0-0.1,0-0.1l-16.3-56.8
				c0,0-1.8-10.3-10.3-10.3H55.8c-5.6,0-10.7,3.1-13.3,8c-2.6,4.9-2.3,10.9,0.8,15.5l12,17.8L43.7,407c-3.2,4.6-3.6,10.6-1,15.6
				c2.6,5,7.7,8.1,13.3,8.1h57.1c0,0,0.1,0,0.1,0c0.5,0,1-0.1,1.6-0.1c0.2,0,0.4-0.1,0.6-0.1c0.1,0,0.2-0.1,0.3-0.1
				c0.2-0.1,0.5-0.1,0.7-0.2c0.1,0,0.2-0.1,0.3-0.1c0.3-0.1,0.5-0.2,0.7-0.3c0,0,0.1,0,0.1,0c0.1,0,0.2-0.1,0.2-0.1
				c0.2-0.1,0.4-0.2,0.6-0.3c0.1-0.1,0.3-0.2,0.4-0.2c0.1-0.1,0.3-0.2,0.4-0.3c0.1-0.1,0.3-0.2,0.4-0.3c0.1-0.1,0.2-0.2,0.3-0.3
				c0.2-0.1,0.3-0.3,0.4-0.4c0.1-0.1,0.2-0.2,0.3-0.3c0.1-0.1,0.3-0.3,0.4-0.4c0.1-0.1,0.2-0.2,0.3-0.3c0.1-0.1,0.2-0.3,0.3-0.4
				c0.1-0.1,0.2-0.3,0.3-0.4c0.1-0.1,0.2-0.3,0.2-0.4c0.1-0.2,0.2-0.3,0.3-0.5c0.1-0.1,0.1-0.3,0.2-0.4c0.1-0.2,0.2-0.4,0.2-0.5
				c0-0.1,0.1-0.3,0.1-0.4c0.1-0.2,0.1-0.4,0.2-0.6c0-0.1,0.1-0.3,0.1-0.4c0-0.2,0.1-0.3,0.1-0.5c0-0.2,0.1-0.4,0.1-0.5
				c0-0.1,0-0.3,0.1-0.4c0-0.2,0-0.4,0-0.7c0-0.1,0-0.2,0-0.3C123.5,420.3,123.5,420.3,123.5,420.2z"/>
			<path class="st5" d="M451,390.2l12-17.8c3.1-4.6,3.4-10.6,0.8-15.5c-2.6-4.9-7.7-8-13.3-8h-40.6c-8.2,0-10.3,10.3-10.3,10.3
				l-15.9,57c-0.1,0.3-0.3,0.7-0.4,1c0,0,0,0.1,0,0.1c-0.1,0.3-0.2,0.6-0.2,0.9c-0.1,0.3-0.1,0.6-0.1,0.9c0,0,0,0.1,0,0.1
				c-0.1,0.7-0.1,1.4,0,2.1c0,0.1,0,0.2,0,0.3c0,0.2,0.1,0.5,0.1,0.7c0,0.2,0.1,0.4,0.2,0.6c0,0.1,0.1,0.2,0.1,0.3
				c0.1,0.2,0.1,0.4,0.2,0.7c0,0.1,0.1,0.2,0.1,0.3c0.1,0.2,0.2,0.4,0.3,0.6c0.1,0.1,0.1,0.2,0.2,0.3c0.1,0.2,0.2,0.3,0.3,0.5
				c0.1,0.1,0.1,0.3,0.2,0.4c0.1,0.1,0.2,0.2,0.3,0.4c0.1,0.2,0.2,0.3,0.3,0.4c0.1,0.1,0.2,0.2,0.2,0.3c0.1,0.2,0.3,0.3,0.4,0.5
				c0.1,0.1,0.1,0.1,0.2,0.2c0.2,0.2,0.3,0.3,0.5,0.5c0.1,0.1,0.2,0.1,0.3,0.2c0.2,0.1,0.3,0.3,0.5,0.4c0.2,0.1,0.4,0.3,0.6,0.4
				c0.1,0,0.1,0.1,0.2,0.1c0.6,0.3,1.2,0.6,1.9,0.8c0,0,0.1,0,0.1,0c0.3,0.1,0.6,0.2,0.9,0.2c0.3,0.1,0.6,0.1,1,0.1c0,0,0,0,0,0
				c0.3,0,0.7,0.1,1,0.1c0,0,0,0,0.1,0h57.1c5.6,0,10.7-3.1,13.3-8.1c2.6-5,2.2-11-1-15.6L451,390.2z"/>
		</g>
		<path class="st6" d="M424.2,316.7v61.2c0,11.5-12.2,20.8-27.1,20.8H106.8c-12.4,0-22.5-7.7-22.5-17.3v-64.8
			c0-11.5,12.2-20.8,27.1-20.8h285.6C412,295.8,424.2,305.2,424.2,316.7z"/>
	</g>
	<rect x="-11.1" y="328.8" class="st7" width="534.1" height="70.5"/>
	<text transform="matrix(1 0 0 1 102.0134 364.5737)" class="st8 st9 st10">สุดยอดไปเลย!</text>
</g>
</svg>
