<?xml version="1.0" encoding="utf-8"?>
<!-- Generator: Adobe Illustrator 24.2.3, SVG Export Plug-In . SVG Version: 6.00 Build 0)  -->
<svg version="1.1" id="Layer_1" xmlns="http://www.w3.org/2000/svg" xmlns:xlink="http://www.w3.org/1999/xlink" x="0px" y="0px"
	 viewBox="0 0 512 512" style="enable-background:new 0 0 512 512;" xml:space="preserve">
<style type="text/css">
	.st0{fill:#333333;}
	.st1{font-family:'Kodchasan-Bold';}
	.st2{font-size:14.6976px;}
	.st3{font-size:14.6978px;}
	.st4{opacity:0.35;fill:#371A45;}
	.st5{fill:#FFFFFF;}
	.st6{fill:#371A45;}
	.st7{opacity:0.35;}
	.st8{fill:#22A7F0;}
	.st9{fill:#293856;}
	.st10{fill:#111A28;}
	.st11{opacity:0.7;}
	.st12{font-size:51.1px;}
	.st13{font-size:44.5167px;}
</style>
<g>
	<g>
		<text transform="matrix(0.9934 0.1144 -0.1144 0.9934 204.6964 283.9305)" class="st0 st1 st2">จัง!</text>
		<text transform="matrix(0.9494 0.314 -0.314 0.9494 212.5094 265.8394)" class="st0 st1 st3">แย่</text>
	</g>
	<g>
		<g>
			<g>
				<ellipse class="st4" cx="243.1" cy="422.3" rx="136.9" ry="38.5"/>
				<g>
					<g>
						<g>
							<g>
								<g>
									<path class="st5" d="M211.5,268.6c0,0-43.2-11.6-54.4-2.3c-18.2,15-30.2,81.2-22.1,112.4c3.8,14.7,51.3,26.9,51.3,26.9"/>
								</g>
							</g>
						</g>
						<g>
							<g>
								<g>
									<path class="st6" d="M186.1,406c-1.9-0.5-47.8-12.4-51.6-27.2c-8.5-32.8,4.4-98.2,22.3-112.9c11.3-9.3,53.1,1.8,54.8,2.2
										l-0.3,0.9c-0.4-0.1-43.1-11.4-54-2.4c-8.4,6.9-16.1,25.5-20.8,49.9c-4.5,23.7-5,47.5-1.2,62.1
										c3.7,14.3,50.5,26.4,50.9,26.5L186.1,406z"/>
								</g>
							</g>
						</g>
					</g>
					<g class="st7">
						<g>
							<g>
								<g>
									<path class="st6" d="M192,369.7l-5.7,35.9c0,0-47.5-12.2-51.3-26.9c-6.9-26.5,1.3-75.4,14.5-101.8
										c-5.1,27.2-11.1,57.6-1.8,76.6C153,364.3,180,368.7,192,369.7z"/>
								</g>
							</g>
						</g>
					</g>
					<g>
						<g>
							<g>
								<g>
									<path class="st6" d="M186.2,409.3c-0.3,0-0.6,0-0.9-0.1c-8.5-2.1-50.9-13.3-54.1-29.8c-6-31.5,3.2-99.3,23.4-116
										c12.3-10.1,53.9-0.1,58.6,1.1c2,0.5,3.2,2.5,2.7,4.5c-0.5,2-2.5,3.2-4.5,2.7c-16.4-4.1-45-8.4-52-2.6
										c-16.6,13.7-26.8,77.5-20.9,108.8c1.6,8.7,29.4,19.2,48.5,24c2,0.5,3.2,2.5,2.7,4.5C189.4,408.1,187.9,409.3,186.2,409.3z"
										/>
								</g>
							</g>
						</g>
					</g>
					<g>
						<g>
							<g>
								<g>
									<path class="st6" d="M197.3,286.6c-0.5,0-1.1-0.1-1.6-0.4c-29.4-15.2-42-11.7-42.1-11.7c-1.8,0.5-3.7-0.5-4.3-2.3
										c-0.6-1.8,0.4-3.7,2.2-4.3c1.5-0.5,15.4-4.4,47.4,12.1c1.7,0.9,2.3,2.9,1.5,4.6C199.7,285.9,198.5,286.6,197.3,286.6z"/>
								</g>
							</g>
						</g>
					</g>
					<g>
						<g>
							<g>
								<g>
									<path class="st5" d="M376.5,347.4c0,0-4,17.5-11.9,21.3c0,0,3.1,68.2-21.1,72c-8,1.2-19.7-1.7-31.5-1.4
										c-13.8,0.3-27.9,3.6-39.3,1l-2.4,0.1l-6.7,0.2c0,0-16.4,1.6-32.2,2.1c-10.6,0.4-21.5-4.4-28.8-8.1
										c-17.6-9.1-29.5-26.8-33.4-50.8c-2.2-13.1-1.9-28.1,1.1-44.5c6.4-35.1,12.3-58.4,18.1-65.8c1.9-2.4,3.7-3.1,5.6-2.1
										c7.7,4.1,37,31.2,76.4,28.3c39.4-2.9,61.7-17,61.7-17s7.7,4.6,16.8,12.3C362.9,307.1,380.5,326.6,376.5,347.4z"/>
								</g>
							</g>
						</g>
						<g>
							<g>
								<g>
									<path class="st6" d="M230.1,443.2c-7.9,0-17.1-2.7-27.8-8.2c-17.8-9.1-29.8-27.3-33.7-51.1c-2.2-13.5-1.9-28.5,1.1-44.6
										c6.9-38.1,12.7-59,18.2-66c2-2.6,4.1-3.3,6.2-2.2c1.4,0.7,3.4,2.1,5.9,3.9c12.3,8.7,37.8,26.7,70.2,24.3
										c38.8-2.9,61.3-16.8,61.5-16.9l0.3-0.2l0.3,0.2c0.1,0,7.9,4.7,16.9,12.3c14.9,12.6,31.9,32,27.9,52.8l0,0
										c-0.2,0.7-4.1,17.4-11.8,21.5c0.2,5.7,2.2,68.5-21.5,72.2c-4.4,0.7-9.9,0.1-15.8-0.5c-5.1-0.5-10.4-1.1-15.8-0.9
										c-4.7,0.1-9.5,0.6-14.2,1c-9.1,0.9-17.7,1.7-25.3,0l-9,0.3c-0.1,0-16.5,1.6-32.2,2.1C230.9,443.2,230.5,443.2,230.1,443.2z
										 M192.2,271.5c-1.2,0-2.3,0.8-3.6,2.4c-5.4,6.8-11.1,27.7-18,65.6c-2.9,16-3.3,30.9-1.1,44.3c3.9,23.5,15.6,41.4,33.1,50.4
										c11.2,5.7,20.5,8.4,28.6,8.1c15.6-0.6,32-2.1,32.2-2.1l9.2-0.3c7.5,1.7,16.1,0.9,25.1,0c4.7-0.4,9.5-0.9,14.3-1
										c5.4-0.1,10.8,0.4,15.9,1c5.8,0.6,11.3,1.2,15.6,0.5c23.5-3.6,20.7-70.8,20.7-71.5l0-0.3l0.3-0.1
										c7.5-3.6,11.5-20.5,11.6-21c3.9-20.3-12.9-39.4-27.6-51.9c-8-6.8-15.1-11.2-16.5-12.1c-2.6,1.6-24.9,14.2-61.7,16.9
										c-32.7,2.4-58.5-15.8-70.8-24.5c-2.5-1.8-4.5-3.2-5.8-3.9C193.1,271.6,192.7,271.5,192.2,271.5z"/>
								</g>
							</g>
						</g>
					</g>
					<g class="st7">
						<g>
							<g>
								<g>
									<path class="st6" d="M348.7,295.1c-18.9,13.9-43,22.3-69.4,22.3c-38.1,0-71.6-17.4-91.1-43.8c1.9-2.4,3.7-3.1,5.6-2.1
										c7.7,4.1,37,31.2,76.4,28.3c39.4-2.9,61.7-17,61.7-17S339.6,287.4,348.7,295.1z"/>
								</g>
							</g>
						</g>
					</g>
					<g>
						<g>
							<g>
								<g>
									<path class="st6" d="M334.8,444.3c-1.5,0-3.1-0.1-4.7-0.4c-10.4-1.9-19-10-22.9-21.6c-0.7-1.9,0.4-4.1,2.3-4.7
										c1.9-0.7,4.1,0.4,4.7,2.3c3.1,9.1,9.3,15.2,17.2,16.6c6.2,1.1,12.2-1,16.1-5.6c6.2-7.6,16.1-29.4,13.4-63.3
										c-0.2-2.1,1.4-3.8,3.4-4c2.1-0.1,3.8,1.4,4,3.4c2.7,33.9-6.4,58.1-15.1,68.6C348.7,441.2,342,444.3,334.8,444.3z"/>
								</g>
							</g>
						</g>
					</g>
					<g>
						<g>
							<g>
								<g>
									<path class="st6" d="M302.8,337.9c-0.9,0-1.9-0.3-2.6-1c-1.5-1.4-1.5-3.8-0.1-5.3c7-7.3,14.9-13.8,34.2-12
										c2,0.2,3.6,2,3.4,4c-0.2,2-2,3.5-4,3.4c-17.3-1.6-23.1,4.4-28.1,9.7C304.8,337.5,303.8,337.9,302.8,337.9z"/>
								</g>
							</g>
						</g>
					</g>
					<g>
						<g>
							<g>
								<g>
									<path class="st8" d="M217.1,349.2l-7.4-8.6c-2.8-3.3-2.4-8.2,0.8-11l4-3.5c3.3-2.8,8.2-2.4,11,0.8l7.4,8.6
										c2.8,3.3,2.4,8.2-0.8,11l-4,3.5C224.8,352.9,219.9,352.5,217.1,349.2z"/>
								</g>
							</g>
						</g>
						<g>
							<g>
								<g>
									<path class="st6" d="M223,354.4c-0.3,0-0.5,0-0.8,0c-2.7-0.2-5.2-1.5-7-3.5l-7.4-8.6c-1.8-2.1-2.7-4.7-2.4-7.5
										c0.2-2.7,1.5-5.2,3.5-7l4-3.5c2.1-1.8,4.7-2.7,7.5-2.4c2.7,0.2,5.2,1.5,7,3.5l7.4,8.6c1.8,2.1,2.7,4.7,2.4,7.5
										c-0.2,2.7-1.5,5.2-3.5,7l-4,3.5C227.8,353.5,225.4,354.4,223,354.4z M219.6,326.7c-1.2,0-2.5,0.4-3.5,1.3l-4,3.5
										c-2.2,1.9-2.5,5.3-0.6,7.6l7.4,8.6c1.9,2.2,5.3,2.5,7.6,0.6l4-3.5c1.1-0.9,1.7-2.2,1.8-3.7c0.1-1.4-0.3-2.8-1.3-3.9
										l-7.4-8.6C222.6,327.3,221.1,326.7,219.6,326.7z"/>
								</g>
							</g>
						</g>
					</g>
					<g>
						<g>
							<g>
								<g>
									<path class="st6" d="M286.8,447.9c-9.2,0-17.5-3.7-21.4-9.6c-8.8-13.4-10-37.5-9.9-40.2c0.1-2.1,1.9-3.6,3.9-3.5
										c2.1,0.1,3.6,1.9,3.5,3.9c-0.2,3.5,1.5,24.8,8.7,35.7c2.6,3.9,9.2,6.5,16.2,6.2c6.6-0.3,12-3.1,14.4-7.5
										c7-12.8,17.6-58.3,5.8-84.9c-4.3-9.7-11.3-15.8-20.7-18c-11.7-2.8-23.1-0.7-29.5,5.5c-1.5,1.4-3.8,1.4-5.3-0.1
										c-1.4-1.5-1.4-3.8,0.1-5.3c8.3-7.9,22.2-10.8,36.4-7.4c11.8,2.8,20.5,10.3,25.8,22.2c13,29.2,1.6,77.4-6.1,91.5
										c-3.7,6.7-11.4,11-20.7,11.3C287.7,447.9,287.2,447.9,286.8,447.9z"/>
								</g>
							</g>
						</g>
					</g>
					<g>
						<g>
							<g>
								<g>
									<path class="st6" d="M351.2,317.7c-1.1,0.8-2.1,1.4-3.1,2c-1,0.6-2,1.1-2.9,1.7c-1.9,1.1-3.8,2.2-5.7,3.3
										c-1.8,1.1-3.6,2.3-5.3,3.6c-1.7,1.3-3.2,2.6-4.6,4.1c-2.8,2.9-5,6.2-6.1,9.9c-1.1,3.7-1.2,7.6-0.4,11.6
										c0.4,2,1,3.9,1.7,5.9l0.6,1.4c0.2,0.4,0.4,0.9,0.6,1.3c0.4,0.8,0.9,1.6,1.4,2.4c2.1,3,5.2,5.1,8.9,6.2
										c7.3,2.3,16,0.7,23-3.1c3.5-1.9,6.6-4.5,8.8-7.6c2.2-3.1,3.5-6.7,3.8-10.6c0.3-3.9-0.2-8-1.2-12c-1.1-4-2.7-8-4.6-11.8
										c-3.9-7.6-9-14.8-14.8-21.3c-5.8-6.5-12.3-12.4-19.4-17.5l0,0c-1.7-1.2-2.1-3.5-0.9-5.2c1.2-1.7,3.5-2,5.1-0.9
										c7.7,5.3,14.7,11.5,20.9,18.4c6.2,6.9,11.8,14.5,16.1,22.9c2.1,4.2,4,8.7,5.2,13.3c1.3,4.7,1.9,9.7,1.5,14.8
										c-0.4,5.1-2.2,10.3-5.2,14.6c-3.1,4.3-7.1,7.6-11.5,10c-4.4,2.4-9.2,4-14.1,4.7c-4.9,0.7-10.1,0.5-15.1-1.1
										c-5-1.6-9.7-4.8-12.7-9.2c-0.8-1.1-1.5-2.2-2-3.4c-0.3-0.6-0.6-1.2-0.8-1.8l-0.7-1.7c-0.8-2.3-1.5-4.7-2-7.1
										c-1-4.9-0.9-10.2,0.7-15.2c1.5-5,4.5-9.4,8.1-12.9c3.6-3.5,7.7-6.1,11.9-8.2c2.1-1.1,4.2-2,6.4-2.9l3.1-1.2
										c1-0.4,2.1-0.8,2.9-1.2l0.1-0.1c1.2-0.6,2.6,0,3.2,1.1C352.4,315.8,352.1,317.1,351.2,317.7z"/>
								</g>
							</g>
						</g>
					</g>
					<g>
						<g>
							<g>
								<g>
									<path class="st6" d="M253.6,447.3c-6.5,0-13.6-0.2-19.8-1c-30.5-3.8-41.8-8-57.7-28.5c-39.9-51.3,11.5-151.1,13.7-155.3
										c1-1.8,3.2-2.5,5-1.6c1.8,1,2.5,3.2,1.6,5c-0.5,1-51.3,99.8-14.4,147.3c14.5,18.7,23.8,22.1,52.8,25.7
										c16.5,2,40.1,0.2,40.3,0.2c2.1-0.2,3.8,1.4,4,3.4c0.2,2.1-1.4,3.8-3.4,4C275,446.5,265.1,447.3,253.6,447.3z"/>
								</g>
							</g>
						</g>
					</g>
					<g>
						<g>
							<g>
								<g>
									<path class="st5" d="M397.4,209.3c-5.3,19.7-15.6,38.2-30.5,53.5c-3,3.1-6.3,6.1-9.7,8.9c-1.7,1.4-3.4,2.7-5.1,4
										c-5.3,3.9-10.8,7.4-16.5,10.3c-4.9,2.6-9.9,4.7-15,6.6c-6.2,2.2-12.4,3.9-18.8,5.1c-2.3,0.4-4.6,0.8-6.9,1.1
										c-42.5,5.4-86.5-11.8-113.8-48.6c-40.2-54.3-28.7-130.9,25.6-171.1c10.5-7.7,21.8-13.6,33.5-17.5c1.4-0.5,2.7-0.9,4.1-1.3
										c3.7-1.1,7.5-2,11.2-2.8c8.7-1.7,17.5-2.5,26.3-2.3c8.8,0.2,17.5,1.3,26,3.3c2.7,0.6,5.4,1.4,8.1,2.2
										c4,1.2,7.9,2.7,11.8,4.4c19.3,8.2,36.7,21.6,50.1,39.7C400.7,135.9,406.8,174.5,397.4,209.3z"/>
								</g>
							</g>
						</g>
						<g>
							<g>
								<g>
									<path class="st6" d="M279.4,300.2c-38.7,0-75.6-18.3-98.9-49.8c-40.3-54.4-28.7-131.5,25.7-171.8
										c10.3-7.6,21.6-13.6,33.6-17.6c1.3-0.5,2.7-0.9,4.2-1.3c3.7-1.1,7.5-2.1,11.3-2.8c8.7-1.7,17.5-2.5,26.4-2.3
										c8.8,0.2,17.6,1.3,26.1,3.3c2.7,0.7,5.5,1.4,8.1,2.2c4.1,1.3,8.1,2.8,11.9,4.4c19.9,8.5,37.3,22.3,50.3,39.8
										c22.4,30.3,29.7,68.6,19.8,105.1c-5.5,20.2-16,38.8-30.6,53.7c-3.1,3.2-6.4,6.2-9.7,8.9c-1.5,1.3-3.2,2.6-5.2,4
										c-5.3,3.9-10.9,7.4-16.6,10.4c-4.8,2.5-9.9,4.7-15.1,6.6c-6.1,2.2-12.4,3.9-18.9,5.1c-2.3,0.4-4.7,0.8-7,1.1
										C289.6,299.9,284.5,300.2,279.4,300.2z M279.1,55.5c-8,0-15.9,0.8-23.7,2.3c-3.7,0.7-7.5,1.7-11.2,2.8
										c-1.5,0.4-2.8,0.9-4.1,1.3c-11.9,4-23.1,9.9-33.3,17.5c-54,40-65.5,116.4-25.5,170.4c26.2,35.4,69.6,54,113.4,48.5
										c2.3-0.3,4.6-0.7,6.9-1.1c6.4-1.2,12.7-2.9,18.7-5.1c5.2-1.8,10.2-4,15-6.5c5.7-3,11.3-6.4,16.5-10.3
										c1.9-1.4,3.6-2.7,5.1-4c3.3-2.7,6.6-5.7,9.7-8.9c14.5-14.8,25-33.2,30.4-53.3c9.8-36.2,2.6-74.2-19.7-104.3
										c-12.9-17.4-30.1-31.1-49.9-39.5c-3.7-1.6-7.7-3.1-11.8-4.3c-2.6-0.8-5.3-1.6-8-2.2c-8.5-2-17.2-3.1-25.9-3.3
										C280.8,55.5,279.9,55.5,279.1,55.5z"/>
								</g>
							</g>
						</g>
					</g>
					<g class="st7">
						<g>
							<g>
								<g>
									<path class="st6" d="M180.9,250.1c27.3,36.9,71.3,54,113.8,48.6c2.3-0.3,4.6-0.7,6.9-1.1c6.3-1.2,12.6-2.9,18.8-5.1
										c5.1-1.8,10.1-4,15-6.6c5.7-2.9,11.2-6.4,16.5-10.3c1.8-1.3,3.5-2.7,5.1-4c3.4-2.8,6.6-5.8,9.7-8.9
										c14.9-15.3,25.2-33.7,30.5-53.5c2.9-10.8,4.4-22.1,4.2-33.3c-5.5,18.7-15.5,36.2-29.8,50.8c-3,3.1-6.3,6.1-9.7,8.9
										c-1.7,1.4-3.4,2.7-5.1,4c-5.3,3.9-10.8,7.4-16.5,10.3c-4.9,2.5-9.9,4.7-15,6.6c-6.2,2.2-12.4,3.9-18.8,5.1
										c-2.3,0.4-4.6,0.8-7,1.1c-42.5,5.4-86.5-11.8-113.8-48.6c-15.9-21.5-23.7-46.5-24-71.4
										C151.5,178.2,157.2,218.1,180.9,250.1z"/>
								</g>
							</g>
						</g>
					</g>
					<g>
						<g>
							<g>
								<g>
									<path class="st6" d="M279.4,303.5c-39.7,0-77.6-18.8-101.5-51.1c-41.3-55.9-29.5-135,26.4-176.3
										c10.6-7.8,22.2-13.9,34.5-18.1c1.3-0.5,2.7-0.9,4.3-1.4c3.8-1.1,7.7-2.1,11.5-2.9c8.9-1.8,18-2.6,27.1-2.4
										c9,0.2,18,1.3,26.8,3.4c2.8,0.7,5.6,1.4,8.3,2.3c4.2,1.3,8.3,2.8,12.2,4.5c20.5,8.7,38.3,22.9,51.6,40.9
										c23,31.1,30.4,70.4,20.3,107.9l0,0c-5.6,20.8-16.5,39.8-31.5,55.1c-3.2,3.2-6.5,6.3-10,9.2c-1.6,1.3-3.3,2.7-5.3,4.1
										c-5.4,4-11.2,7.6-17.1,10.6c-4.9,2.6-10.2,4.8-15.5,6.8c-6.2,2.2-12.8,4-19.4,5.2c-2.4,0.4-4.8,0.8-7.2,1.1
										C289.9,303.1,284.6,303.5,279.4,303.5z M279.1,58.8c-7.8,0-15.5,0.8-23.1,2.3c-3.6,0.7-7.3,1.6-10.9,2.7
										c-1.4,0.4-2.7,0.8-4,1.3c-11.6,3.9-22.5,9.6-32.5,17c-52.6,38.9-63.7,113.3-24.8,165.9c25.5,34.5,67.8,52.5,110.3,47.2
										c2.2-0.3,4.5-0.6,6.7-1c6.2-1.2,12.3-2.8,18.2-4.9c5-1.8,9.9-3.9,14.6-6.4c5.6-2.9,11-6.2,16-10c1.9-1.4,3.5-2.7,5-3.9
										c3.3-2.7,6.4-5.6,9.4-8.6c14.1-14.4,24.3-32.3,29.6-51.9c9.5-35.2,2.5-72.2-19.1-101.5c-12.5-16.9-29.3-30.2-48.6-38.5
										c-3.7-1.6-7.5-3-11.5-4.2c-2.5-0.8-5.2-1.5-7.8-2.1c-8.3-2-16.7-3.1-25.2-3.2C280.7,58.8,279.9,58.8,279.1,58.8z
										 M397.4,209.3L397.4,209.3L397.4,209.3z"/>
								</g>
							</g>
						</g>
					</g>
					<g>
						<g>
							<g>
								<g>
									<path class="st6" d="M279.4,303.7c-39.8,0-77.7-18.8-101.6-51.2c-41.4-56-29.5-135.2,26.4-176.6
										c10.6-7.8,22.2-13.9,34.5-18.1c1.3-0.5,2.7-0.9,4.3-1.4c3.8-1.1,7.7-2.1,11.6-2.9c8.9-1.8,18-2.6,27.1-2.4
										c9,0.2,18.1,1.3,26.8,3.4c2.8,0.7,5.6,1.4,8.3,2.3c4.2,1.3,8.3,2.8,12.2,4.5c20.5,8.8,38.4,22.9,51.7,41
										c23.1,31.2,30.5,70.5,20.4,108l0,0c-5.6,20.8-16.5,39.9-31.5,55.2c-3.2,3.2-6.5,6.3-10,9.2c-1.6,1.3-3.3,2.7-5.3,4.1
										c-5.4,4-11.2,7.6-17.1,10.7c-4.9,2.6-10.2,4.9-15.5,6.8c-6.3,2.2-12.8,4-19.4,5.2c-2.4,0.4-4.8,0.8-7.2,1.1
										C289.9,303.3,284.7,303.7,279.4,303.7z M279.1,59c-7.7,0-15.5,0.8-23,2.3c-3.6,0.7-7.3,1.6-10.8,2.7
										c-1.4,0.4-2.7,0.8-4,1.3c-11.6,3.9-22.5,9.6-32.4,17c-52.5,38.8-63.6,113.1-24.8,165.6c25.4,34.4,67.7,52.5,110.2,47.1
										c2.2-0.3,4.5-0.6,6.7-1c6.2-1.2,12.3-2.8,18.2-4.9c5-1.8,9.9-3.9,14.5-6.3c5.6-2.9,10.9-6.2,16-10c1.9-1.4,3.5-2.7,5-3.9
										c3.2-2.7,6.4-5.6,9.4-8.6c14.1-14.4,24.3-32.3,29.5-51.8l0,0c9.5-35.2,2.5-72.1-19.1-101.3C362,90.1,345.2,76.8,326,68.6
										c-3.6-1.6-7.5-3-11.4-4.2c-2.5-0.8-5.2-1.5-7.8-2.1c-8.2-2-16.7-3-25.2-3.2C280.7,59,279.9,59,279.1,59z M397.4,209.3
										L397.4,209.3L397.4,209.3z"/>
								</g>
							</g>
						</g>
					</g>
					<g>
						<g>
							<g>
								<g>
									<path class="st9" d="M385.4,238.3c-58.2,65.3-161.3,53.1-186.2-29.9C182.2,152,224.3,91.8,279.5,79
										c40.2-9.4,83.5-0.9,115.1,57.5c0,0,10,28,6.7,49s-10,40.9-10,40.9L385.4,238.3z"/>
								</g>
							</g>
						</g>
						<g>
							<g>
								<g>
									<path class="st6" d="M295.5,280.6c-7.8,0-15.6-0.8-23.3-2.5c-35.8-7.9-62.6-33.2-73.5-69.5c-7.5-25-3.9-52.3,10.3-76.8
										c15.5-26.7,41.8-46.6,70.4-53.3c49.8-11.6,88.7,7.9,115.6,57.8c0.1,0.3,10,28.4,6.8,49.3c-3.2,20.8-9.9,40.8-10,41
										l-6.1,12.1C361.8,265.5,328.7,280.6,295.5,280.6z M306.1,76.2c-8.5,0-17.3,1.1-26.5,3.2c-28.4,6.6-54.5,26.4-69.8,52.8
										c-14,24.2-17.7,51.2-10.2,76c10.8,35.9,37.3,61,72.8,68.8C312.5,286,355.6,271,385,238l6-11.8c0-0.1,6.7-20,9.9-40.7
										c3.2-20.6-6.6-48.5-6.7-48.8C372.4,96.5,342.9,76.2,306.1,76.2z"/>
								</g>
							</g>
						</g>
					</g>
					<g class="st7">
						<g>
							<g>
								<g>
									<path class="st10" d="M227.8,252.1c64.1,58.2,158.8,15.6,175-70.4l-0.2-2.7c-46.5,65.2-135.7,86.4-201.7,28.8
										C205.5,224.5,214.4,239.9,227.8,252.1z"/>
								</g>
							</g>
						</g>
					</g>
					<g>
						<g>
							<g>
								<g>
									<path class="st6" d="M295.1,296.1c-19.4,0-38.4-4.4-55.2-13.1c-27.4-14.2-46.9-38.4-56.4-69.8
										c-8.7-28.9-4.5-60.4,11.8-88.6c17.8-30.7,48-53.6,81-61.3c18.5-4.3,35.9-4.9,51.8-1.7l0.3,0.1l0.3,0.1
										c20.4,8.7,38.2,22.8,51.5,40.8c23,31,30.4,70.3,20.3,107.6l0,0c-5.6,20.7-16.4,39.7-31.4,55c-3.2,3.2-6.5,6.3-10,9.1
										c-1.6,1.3-3.3,2.7-5.3,4.1c-5.4,4-11.1,7.6-17,10.6l-0.5,0.2C322.9,293.8,308.9,296.1,295.1,296.1z M307.2,66.4
										c-9.3,0-19.1,1.2-29.3,3.5c-31.1,7.2-59.8,28.9-76.6,58c-15.4,26.6-19.3,56.1-11.2,83.2c8.9,29.6,27.2,52.3,53,65.7
										c26.9,14,60.1,16.2,91.1,6c5.5-2.9,10.8-6.2,15.8-9.9c1.9-1.4,3.5-2.7,5-3.9c3.3-2.7,6.4-5.6,9.4-8.7
										c14.1-14.4,24.4-32.4,29.7-52l0,0c9.5-35.3,2.5-72.4-19.2-101.8c-12.5-16.9-29.2-30.2-48.4-38.4
										C320.3,67,313.9,66.4,307.2,66.4z M397.4,209.3L397.4,209.3L397.4,209.3z"/>
								</g>
							</g>
						</g>
					</g>
					<g>
						<g>
							<g>
								<g>
									<path class="st6" d="M295.5,283.8c-8,0-16.1-0.9-24-2.6c-37-8.2-64.6-34.3-75.9-71.7c-7.8-25.9-4-54.1,10.6-79.3
										c15.9-27.5,43-48,72.5-54.8c51.4-12,91.5,8,119.2,59.4l0.2,0.5c0.4,1.2,10.3,29.2,6.9,50.8c-3.3,21.1-9.8,40.7-10.1,41.5
										l-0.2,0.5l-6.2,12.3l-0.3,0.4C363.6,268.4,329.6,283.8,295.5,283.8z M305.9,79.5c-8.2,0-16.7,1-25.6,3.1
										c-27.5,6.4-52.8,25.6-67.7,51.3c-13.6,23.5-17.1,49.6-9.9,73.5c10.5,34.7,36.1,59,70.4,66.6c38.8,8.6,80.6-5.9,109.2-37.7
										l5.6-11.2c0.8-2.3,6.8-20.8,9.7-40c2.9-18.8-5.5-44.1-6.5-46.9C370.1,99.1,341.5,79.5,305.9,79.5z M385.4,238.3
										L385.4,238.3L385.4,238.3z"/>
								</g>
							</g>
						</g>
					</g>
					<g>
						<g>
							<g>
								<g>
									
										<ellipse transform="matrix(0.9561 -0.2931 0.2931 0.9561 -54.6844 61.2708)" class="st5" cx="177.1" cy="213.1" rx="31.8" ry="43.8"/>
								</g>
							</g>
						</g>
						<g>
							<g>
								<g>
									<path class="st6" d="M183,256.5c-16,0-32.2-15.5-37.6-36.9c-3.4-13.6-1.8-27.5,4.3-37.2c4.1-6.5,9.9-10.7,16.7-12
										c17.5-3.5,36.5,12.8,42.4,36.5c3.4,13.6,1.8,27.5-4.3,37.2c-4.1,6.5-9.9,10.7-16.7,12C186.2,256.3,184.6,256.5,183,256.5z
										 M171.2,170.7c-1.5,0-3.1,0.1-4.6,0.5c-6.5,1.3-12.1,5.3-16,11.6c-6,9.5-7.6,23.1-4.2,36.5c5.3,21,21.1,36.2,36.6,36.2
										c1.5,0,3.1-0.1,4.6-0.5c6.5-1.3,12.1-5.3,16-11.6c6-9.5,7.6-23.1,4.2-36.5C202.6,185.9,186.8,170.7,171.2,170.7z"/>
								</g>
							</g>
						</g>
					</g>
					<g class="st7">
						<g>
							<g>
								<g>
									<path class="st6" d="M187.7,255.5c-17.2,3.5-36-12.7-41.8-36.1c-3.6-14.5-1.5-28.5,4.9-37.8c2.7,20.8,11.6,37.1,21.1,37.8
										c5.8,0.4,10.6-5,13.6-14c4,8.3,9.1,13.6,14.4,14c3.7,0.3,7-1.9,9.7-5.8C212.3,234.3,203.3,252.4,187.7,255.5z"/>
								</g>
							</g>
						</g>
					</g>
					<g>
						<g>
							<g>
								<g>
									<path class="st6" d="M183.1,259.7c-17.5,0-35.1-16.5-40.8-39.4c-3.7-14.7-1.9-29.2,4.7-39.8c4.6-7.3,11.1-11.9,18.8-13.5
										c19.1-3.9,39.9,13.6,46.2,38.9c3.7,14.7,1.9,29.2-4.7,39.8c-4.6,7.3-11.1,11.9-18.8,13.5
										C186.7,259.5,184.9,259.7,183.1,259.7z M171.3,174c-1.4,0-2.7,0.1-4.1,0.4c-5.6,1.1-10.5,4.6-13.9,10.2
										c-5.5,8.7-6.9,21.4-3.8,34c5.4,21.5,22.2,36.4,37.5,33.4c5.6-1.1,10.5-4.6,13.9-10.2c5.5-8.7,6.9-21.4,3.8-34
										C199.8,188.1,185.4,174,171.3,174z"/>
								</g>
							</g>
						</g>
					</g>
					<g>
						<g>
							<g>
								<g>
									<path class="st6" d="M183.1,259.7c-17.5,0-35.1-16.5-40.8-39.4c-3.7-14.7-1.9-29.2,4.7-39.8c4.6-7.3,11.1-11.9,18.8-13.5
										c19.1-3.9,39.9,13.6,46.2,38.9c3.7,14.7,1.9,29.2-4.7,39.8c-4.6,7.3-11.1,11.9-18.8,13.5
										C186.7,259.5,184.9,259.7,183.1,259.7z M171.3,174c-1.4,0-2.7,0.1-4.1,0.4c-5.6,1.1-10.5,4.6-13.9,10.2
										c-5.5,8.7-6.9,21.4-3.8,34c5.4,21.5,22.2,36.4,37.5,33.4c5.6-1.1,10.5-4.6,13.9-10.2c5.5-8.7,6.9-21.4,3.8-34
										C199.8,188.1,185.4,174,171.3,174z"/>
								</g>
							</g>
						</g>
					</g>
					<g>
						<g>
							<g>
								<g>
									<path class="st5" d="M148.1,237.6c9.6,14.6,26.4,18.9,37.6,9.4c11.2-9.5,12.5-29,2.9-43.7c-9.6-14.6-26.1-25.3-37.3-15.9
										C140.1,196.9,138.6,222.9,148.1,237.6z"/>
								</g>
							</g>
						</g>
						<g>
							<g>
								<g>
									<path class="st6" d="M171.9,252.5c-1.1,0-2.2-0.1-3.3-0.2c-8.1-1.2-15.7-6.4-20.9-14.4l0,0c-9.8-15-8.1-41.1,3.3-50.8
										c3.6-3,7.8-4.2,12.6-3.5c8.7,1.3,18.4,8.7,25.4,19.5c9.7,14.8,8.3,34.7-3,44.3C182,250.7,177.1,252.5,171.9,252.5z
										 M148.5,237.3c5.1,7.8,12.4,12.9,20.2,14c6.1,0.9,12-0.8,16.6-4.7c11-9.3,12.3-28.6,2.8-43c-6.9-10.5-16.3-17.8-24.7-19
										c-4.5-0.7-8.5,0.4-11.8,3.3C140.8,197,139.1,222.9,148.5,237.3L148.5,237.3z"/>
								</g>
							</g>
						</g>
					</g>
					<g class="st7">
						<g>
							<g>
								<g>
									<path class="st6" d="M195.4,227.5c0-6.6-1.8-13.2-4.8-19c-1.3,15-12.4,23.8-26,19.9c-8.8-2.5-16.5-9.8-21.2-18.9
										c-0.1,0.9-0.1,1.9-0.1,2.9c0,16.8,11.7,33.7,26.1,37.9C183.7,254.4,195.4,244.2,195.4,227.5z"/>
								</g>
							</g>
						</g>
					</g>
					<g>
						<g>
							<g>
								<g>
									<path class="st6" d="M173.2,256.9c-13.9,0-27.8-13.7-32.8-33.1c-3.2-12.5-1.8-25,3.6-33.6c3.5-5.5,8.4-9,14.2-10.1
										c15.2-2.9,31.3,11.4,36.7,32.7c3.2,12.5,1.8,25-3.6,33.6c-3.5,5.5-8.4,9-14.2,10.1C175.9,256.7,174.5,256.9,173.2,256.9z
										 M162.1,187.2c-0.8,0-1.7,0.1-2.5,0.2c-4.7,0.9-7.6,4.2-9.3,6.8c-4.3,6.8-5.3,17.2-2.7,27.7l0,0
										c4.3,16.9,17.2,29.3,28.1,27.2c4.7-0.9,7.6-4.2,9.3-6.8c4.3-6.8,5.3-17.2,2.7-27.7C183.8,199,172.4,187.2,162.1,187.2z"/>
								</g>
							</g>
						</g>
					</g>
					<g class="st11">
						<g>
							<g>
								<g>
									
										<ellipse transform="matrix(0.9846 -0.1747 0.1747 0.9846 -26.7686 42.7088)" class="st5" cx="229.2" cy="173.4" rx="14.9" ry="17.4"/>
								</g>
							</g>
						</g>
					</g>
					<g class="st11">
						<g>
							<g>
								<g>
									
										<ellipse transform="matrix(0.9959 -9.098519e-02 9.098519e-02 0.9959 -17.9874 22.2829)" class="st5" cx="235.4" cy="208.4" rx="6.2" ry="7.2"/>
								</g>
							</g>
						</g>
					</g>
					<g>
						<g>
							<g>
								<g>
									<path class="st6" d="M328.8,301.2c0.6,3.6,1.3,7.3,2,10.8c0.8,3.6,1.6,7.2,2.6,10.6c0.5,2-0.6,4.1-2.6,4.6
										c-2,0.5-4.1-0.6-4.6-2.6c-0.1-0.2-0.1-0.5-0.1-0.8c-0.2-3.8-0.3-7.6-0.4-11.3c0-3.8,0-7.5,0.2-11.2c0-0.8,0.7-1.4,1.5-1.4
										C328.1,300,328.7,300.5,328.8,301.2L328.8,301.2z"/>
								</g>
							</g>
						</g>
					</g>
					<g>
						<g>
							<g>
								<g>
									<path class="st6" d="M364.6,372.2c-0.4,0-0.8-0.1-1.1-0.2c-1.8-0.6-2.7-2.6-2.1-4.4c11.1-31.6-19.4-43.3-20.7-43.7
										c-1.8-0.7-2.7-2.6-2-4.4c0.6-1.8,2.6-2.7,4.4-2c0.4,0.1,38.3,14.4,24.8,52.5C367.3,371.3,366,372.2,364.6,372.2z"/>
								</g>
							</g>
						</g>
					</g>
					<g class="st11">
						<g>
							<g>
								<g>
									<path class="st5" d="M318.4,96.4c-0.9-0.8,3.4-0.6,3.4-0.6l2.9-0.4c0,0,5.2-0.6,7.7-0.7c4.2-0.2,8.5,0,12.6,0.5
										c12.2,8,22.7,19.2,29.9,33.2c13,25,12.3,46.6,2.5,69.5c0,0-0.6-14.7-12.4-41.3C358.4,141.6,349.1,123.8,318.4,96.4z"/>
								</g>
							</g>
						</g>
					</g>
					<g class="st7">
						<g>
							<g>
								<g>
									<path class="st6" d="M270.2,440.3l-6.7,0.2c0,0-16.4,1.6-32.2,2.1c-10.6,0.4-21.5-4.4-28.8-8.1
										c-17.6-9.1-29.5-26.8-33.4-50.8c6.3,12.5,27.2,37.9,89.1,21.7C258.1,405.5,259.5,427.3,270.2,440.3z"/>
								</g>
							</g>
						</g>
					</g>
					<g class="st7">
						<g>
							<g>
								<g>
									<path class="st6" d="M262,398.4c0,0,26.1,24.9,52.5,0c0,0-0.5,42.5-21.5,44.3C262.3,445.4,258.5,412.3,262,398.4z"/>
								</g>
							</g>
						</g>
					</g>
					<g class="st7">
						<g>
							<g>
								<g>
									<path class="st6" d="M311.8,400.7c0,0,24.7,23.6,49.7,0c0,0-0.5,40.3-20.3,42C312.1,445.3,308.5,413.9,311.8,400.7z"/>
								</g>
							</g>
						</g>
					</g>
					<g class="st7">
						<g>
							<g>
								<g>
									<path class="st6" d="M200,344.7c0,0,2.5,13.8,34.1,23.6c17.8,5.5,41.8,4.4,62.8-3.2c0,0-2.8,37.1-70.6,17
										C226.3,382.2,193.4,366.8,200,344.7z"/>
								</g>
							</g>
						</g>
					</g>
					<g class="st7">
						<g>
							<g>
								<g>
									<path class="st6" d="M320.2,357.7c0,0,10.9,7,37.9-0.8c8.1-2.3,14.6-9.4,17.3-16.1c0,0-0.1,29.1-19.1,32.9
										C337.3,377.5,320.7,368.7,320.2,357.7z"/>
								</g>
							</g>
						</g>
					</g>
					<g class="st7">
						<g>
							<g>
								<g>
									<path class="st6" d="M162.7,371.8c0,0,22.6,11.5,44.1,8.8c0,0,48.9,29.8,84.8,3.2l-39.9,6.4l-36.8-13.8l-14-20.1l-29,2.1
										L162.7,371.8z"/>
								</g>
							</g>
						</g>
					</g>
					<g>
						<g>
							<g>
								<g>
									<path class="st5" d="M214.9,372.5c-31.4-4.3-51.6-13.3-60.1-17.7c-2.9-1.5-4.7-4.5-4.7-7.8l0,0c0-6.3,6.4-10.6,12.2-8.2
										c10.8,4.4,26.1,10.1,35.6,11.1"/>
								</g>
							</g>
						</g>
						<g>
							<g>
								<g>
									<path class="st6" d="M214.9,372.9c-31.1-4.2-51.1-13-60.3-17.8c-3.1-1.6-5-4.8-5-8.2c0-3.1,1.5-6,4.1-7.7
										c2.6-1.7,5.9-2.1,8.7-0.9c11,4.5,26.1,10.1,35.4,11.1l-0.1,1c-9.4-1-24.6-6.6-35.7-11.1c-2.6-1.1-5.5-0.8-7.8,0.8
										c-2.3,1.6-3.7,4.1-3.7,6.9c0,3.1,1.7,5.9,4.4,7.4c9.1,4.8,29,13.5,59.9,17.7L214.9,372.9z"/>
								</g>
							</g>
						</g>
					</g>
					<g>
						<g>
							<g>
								<g>
									<path class="st6" d="M244.1,389.8c-1.5,0-2.9-1.1-3.3-2.6c-7-28.9,10.4-53.7,11.1-54.8c1.1-1.5,3.2-1.9,4.8-0.8
										c1.5,1.1,1.9,3.2,0.8,4.8l0,0c-0.2,0.2-16.3,23.4-10.1,49.2c0.4,1.8-0.7,3.7-2.5,4.1C244.7,389.8,244.4,389.8,244.1,389.8z
										"/>
								</g>
							</g>
						</g>
					</g>
					<g>
						<g>
							<g>
								<g>
									<path class="st6" d="M211.5,376.2c-0.2,0-0.3,0-0.5,0c-31.7-4.3-48.6-13.2-57.6-18l-0.3-0.1c-4.1-2.2-6.7-6.4-6.7-11.1
										c0-4.2,2.1-8.1,5.6-10.4c3.5-2.3,7.9-2.8,11.8-1.2c15.3,6.3,27.6,10.1,34.5,10.9c2,0.2,3.5,2,3.3,4.1
										c-0.2,2-2.1,3.5-4.1,3.3c-9.8-1-25.3-6.7-36.6-11.4c-1.6-0.7-3.4-0.5-4.8,0.5c-1.4,1-2.3,2.5-2.3,4.2c0,1.9,1,3.6,2.7,4.5
										l0.3,0.1c8.6,4.5,24.7,13,55.2,17.2c2,0.3,3.5,2.2,3.2,4.2C214.9,374.8,213.3,376.2,211.5,376.2z"/>
								</g>
							</g>
						</g>
					</g>
					<g>
						<g>
							<g>
								<g>
									<path class="st6" d="M259.7,392.2c-7.7,0-15.8-1-23.9-3c-24-5.9-39.3-22.5-41-44.3c-0.2-2.1,1.4-3.8,3.4-4
										c2.1-0.2,3.8,1.4,4,3.4c1.4,18.4,14.6,32.5,35.3,37.6c17.9,4.4,36.8,3.4,47.1-2.5c6.7-3.8,10-12.6,8.3-21.7
										c-1.8-9.8-8.6-16.6-18.2-18.1c-2.4-0.4-5-0.7-7.7-1c-11.9-1.5-25.4-3.1-31.8-12c-3.4-4.8-4.4-11.2-2.7-19.1
										c0.4-2,2.4-3.3,4.4-2.9c2,0.4,3.3,2.4,2.9,4.4c-1.2,5.8-0.7,10.1,1.5,13.2c4.4,6.2,15.7,7.6,26.6,9
										c2.6,0.3,5.4,0.7,7.9,1.1c12.6,2,21.9,11.2,24.3,24.1c2.3,12.2-2.5,24.1-11.9,29.5C281.2,390.1,271,392.2,259.7,392.2z"/>
								</g>
							</g>
						</g>
					</g>
				</g>
				<g>
					<g>
						<g>
							<g>
								<path class="st6" d="M302.5,442.5c-1.9,0-3.4-1.5-3.4-3.3c0-1.9,1.5-3.5,3.3-3.5c8.2-0.2,22-0.5,22.8-0.5
									c1.9,0.1,3.3,1.7,3.3,3.6c-0.1,1.9-1.7,3.4-3.6,3.3C324,442,311,442.3,302.5,442.5C302.6,442.5,302.5,442.5,302.5,442.5z"/>
							</g>
						</g>
					</g>
				</g>
			</g>
		</g>
	</g>
</g>
<g>
	<text transform="matrix(0.9934 0.1144 -0.1144 0.9934 371.8305 309.1811)" class="st0 st1 st12">แปป</text>
	<text transform="matrix(0.9986 -5.261115e-02 5.261115e-02 0.9986 396.9315 270.539)" class="st0 st1 st13">เศร้า</text>
</g>
</svg>
