<?xml version="1.0" encoding="utf-8"?>
<!-- Generator: Adobe Illustrator 24.2.3, SVG Export Plug-In . SVG Version: 6.00 Build 0)  -->
<svg version="1.1" id="Layer_1" xmlns="http://www.w3.org/2000/svg" xmlns:xlink="http://www.w3.org/1999/xlink" x="0px" y="0px"
	 viewBox="0 0 512 512" style="enable-background:new 0 0 512 512;" xml:space="preserve">
<style type="text/css">
	.st0{fill:#FFFFFF;}
	.st1{fill:#F92323;}
	.st2{opacity:0.6;}
	.st3{fill:#371A45;}
	.st4{opacity:0.2;}
	.st5{fill:#390075;}
	.st6{opacity:0.3;}
	.st7{opacity:0.35;}
	.st8{fill:#220F2D;}
	.st9{opacity:0.7;}
	.st10{fill:#22A7F0;}
	.st11{opacity:0.8;}
	.st12{fill:#FFD066;}
	.st13{fill:#333333;}
	.st14{font-family:'Kodchasan-Bold';}
	.st15{font-size:60px;}
</style>
<g>
	<g>
		<g>
			<g>
				<path class="st0" d="M490.1,176c-0.1,0.3-0.2,0.7-0.3,1c-0.1,0.3-0.2,0.5-0.3,0.8c-0.1,0.2-0.2,0.4-0.3,0.7
					c-0.1,0.4-0.3,0.7-0.4,1c-0.1,0.3-0.3,0.6-0.4,0.8c-0.2,0.5-0.5,0.9-0.7,1.4c-0.1,0.3-0.3,0.5-0.4,0.7c-0.2,0.3-0.4,0.7-0.6,1
					c-0.2,0.3-0.4,0.6-0.6,0.9c-0.2,0.3-0.4,0.6-0.7,0.9c-0.6,0.7-1.1,1.4-1.7,2c-0.2,0.2-0.3,0.4-0.5,0.6c-0.4,0.4-0.7,0.7-1.1,1.1
					c-0.2,0.2-0.4,0.3-0.6,0.5c-0.3,0.3-0.7,0.6-1,0.9c-0.1,0.1-0.2,0.2-0.3,0.3c-0.7,0.6-1.4,1.1-2.1,1.6c-0.2,0.1-0.3,0.2-0.5,0.3
					c-0.1,0.1-0.2,0.1-0.3,0.2c0,0,0,0,0,0c-0.1,0-0.1,0.1-0.2,0.1c-1.5,1-2.9,1.8-4.3,2.5c-0.2,0.1-0.4,0.2-0.6,0.3
					c-1.1,0.5-2.2,1-3.2,1.4c-0.3,0.1-0.6,0.3-1,0.4c-0.3,0.1-0.7,0.2-1,0.4c-0.3,0.1-0.5,0.2-0.7,0.3c-1.3,0.4-2.3,0.7-2.9,0.9
					c-0.1,0-0.2,0-0.2,0.1c-0.3,0.1-0.4,0.1-0.4,0.1l-44.4,36.9L363.7,281l-15.5-55.8c0,0,18.7-13.4,40.3-28.8
					c8.5-6.1,17.5-12.5,25.9-18.5c4.1-2.9,8.1-5.8,11.9-8.4c0.4-0.3,0.8-0.6,1.2-0.9c4.7-3.4,9.1-6.4,12.8-9
					c0.4-0.3,0.9-0.6,1.3-0.9c2.5-1.7,4.6-3.2,6.4-4.4c0.2-0.1,0.4-0.3,0.6-0.4c0,0,0,0,0,0c0.3-0.2,0.6-0.4,0.9-0.6
					c0.5-0.3,1-0.7,1.4-0.9c0.2-0.1,0.3-0.2,0.4-0.3c0.4-0.3,0.7-0.5,1-0.6C459.8,147,495.5,157.7,490.1,176z"/>
			</g>
			<g>
				<path class="st1" d="M490.1,176c-0.1,0.3-0.2,0.7-0.3,1c-0.1,0.3-0.2,0.5-0.3,0.8c-0.1,0.2-0.2,0.4-0.3,0.7
					c-0.1,0.4-0.3,0.7-0.4,1c-0.1,0.3-0.3,0.6-0.4,0.8c-0.2,0.5-0.5,0.9-0.7,1.4c-0.1,0.3-0.3,0.5-0.4,0.7c-0.2,0.3-0.4,0.7-0.6,1
					c-0.2,0.3-0.4,0.6-0.6,0.9c-0.2,0.3-0.4,0.6-0.7,0.9c-0.6,0.7-1.1,1.4-1.7,2c-0.2,0.2-0.3,0.4-0.5,0.6c-0.4,0.4-0.7,0.7-1.1,1.1
					c-0.2,0.2-0.4,0.3-0.6,0.5c-0.3,0.3-0.7,0.6-1,0.9c-0.1,0.1-0.2,0.2-0.3,0.3c-0.7,0.6-1.4,1.1-2.1,1.6c-0.2,0.1-0.3,0.2-0.5,0.3
					c-0.1,0.1-0.2,0.1-0.3,0.2c-0.1,0-0.1,0.1-0.2,0.1c-1.5,1-2.9,1.8-4.3,2.5c-0.2,0.1-0.4,0.2-0.6,0.3c-1.1,0.5-2.2,1-3.2,1.4
					c-0.3,0.1-0.7,0.3-1,0.4c-0.3,0.1-0.7,0.2-1,0.4c-0.3,0.1-0.5,0.2-0.7,0.3c-1.3,0.4-2.3,0.7-2.9,0.9c-0.1,0-0.2,0-0.2,0.1
					c-0.3,0.1-0.4,0.1-0.4,0.1l-44.4,36.9c-4.6-5.5-7.4-11.3-8.9-17c-5.8-21.1,5.1-40.8,5.1-40.8c4.1-2.9,8.1-5.8,11.9-8.4
					c0.4-0.3,0.8-0.6,1.2-0.9c4.7-3.4,9.1-6.4,12.8-9c0.4-0.3,0.9-0.6,1.3-0.9c2.5-1.7,4.6-3.2,6.4-4.4c0.2-0.1,0.4-0.3,0.6-0.4
					c0,0,0,0,0,0c0.3-0.2,0.6-0.4,0.9-0.6c0.5-0.3,1-0.7,1.4-0.9c0.2-0.1,0.3-0.2,0.4-0.3c0.4-0.3,0.7-0.5,1-0.6
					C459.8,147,495.5,157.7,490.1,176z"/>
			</g>
			<g class="st2">
				<path class="st0" d="M491,175.2c-1.9,6.4-5.8,11.1-10.1,14.5c2.8-5.9,4.3-12.7,1.9-19c-4.3-11.3-23.9-13.6-37.8-14.5
					c1.8-1.3,7.7-5.3,8.3-5.6C460.6,146.1,496.4,156.9,491,175.2z"/>
			</g>
			<g>
				<path class="st3" d="M362.4,285.3l-16.9-61.1l1.4-1c4-2.8,97-69.6,104.3-74c6.2-3.7,23.7,0.7,33.5,8.3
					c7.1,5.5,9.8,12.3,7.8,19.1c-5.3,17.9-24.8,23.5-28.6,24.4L362.4,285.3z M351.1,226.2l14,50.5l96.6-80.1l0.6-0.1
					c0.2,0,20.6-4.5,25.5-21.1c1.5-4.9-0.6-9.6-6.1-13.9c-9.6-7.5-24.7-10-28-8C447,157.4,363,217.7,351.1,226.2z"/>
			</g>
			<g>
				<path class="st3" d="M453.8,170.9c3.5-0.1,7,0.3,10.4,1.2c1.7,0.4,3.4,1,5.1,1.8c1.7,0.8,3.3,1.7,4.8,3c0.8,0.7,1.5,1.5,2.1,2.6
					c0.6,1,0.9,2.3,0.9,3.7c0,0.3-0.1,0.6-0.1,1c0,0.3-0.1,0.5-0.2,0.8c-0.1,0.3-0.2,0.5-0.2,0.8c-0.1,0.3-0.2,0.5-0.3,0.8
					c-0.5,1-1.1,2-2,2.8c-0.9,0.8-1.9,1.4-3,1.7c-1.1,0.4-2.1,0.5-3.1,0.6c-1,0-2,0-3-0.2c-0.5-0.1-1-0.2-1.4-0.3
					c-0.5-0.1-0.9-0.2-1.5-0.4l2.9-2.3c0.1,0.5,0.1,0.8,0.1,1.3c0,0.4,0,0.8,0,1.2c0,0.8,0,1.6-0.1,2.4c-0.2,1.6-0.5,3.2-1.1,4.7
					c-0.6,1.5-1.4,3-2.5,4.4c-1.1,1.3-2.5,2.4-4,3.2c-1.5,0.8-3.1,1.3-4.7,1.6c-1.6,0.3-3.2,0.3-4.7,0.2c-0.8-0.1-1.5-0.2-2.3-0.3
					c-0.7-0.2-1.5-0.3-2.2-0.6c-1.4-0.4-2.8-1-4.1-1.8c-0.2-0.1-0.2-0.3-0.1-0.5c0.1-0.1,0.2-0.2,0.3-0.2l0,0
					c2.9-0.2,5.7-0.2,8.4-0.4c2.6-0.3,5.1-0.8,7.1-2c2-1.2,3.4-3,4.3-5.2c0.4-1.1,0.8-2.3,0.9-3.6c0.1-0.6,0.1-1.3,0.2-1.9
					c0-0.3,0-0.6,0-0.9c0-0.3,0-0.7,0-0.9l0-0.1c-0.1-1.2,0.8-2.3,2-2.4c0.3,0,0.7,0,1,0.1c0.2,0.1,0.6,0.2,1,0.3
					c0.4,0.1,0.7,0.2,1.1,0.2c0.7,0.1,1.4,0.2,2.1,0.2c1.4,0,2.5-0.4,3.3-1.2c0.4-0.4,0.7-0.8,0.9-1.4c0.1-0.1,0.1-0.3,0.2-0.4
					c0-0.1,0.1-0.3,0.1-0.5c0-0.1,0.1-0.3,0.1-0.4c0-0.1,0-0.2,0-0.3c0-0.4-0.1-0.8-0.4-1.2c-0.2-0.4-0.7-0.9-1.2-1.4
					c-0.5-0.5-1.1-0.9-1.7-1.3c-0.6-0.4-1.3-0.8-2-1.2c-1.4-0.8-2.9-1.5-4.4-2.1c-3-1.4-6.1-2.6-9.3-4.1l0,0
					c-0.2-0.1-0.3-0.3-0.2-0.5C453.5,171,453.6,170.9,453.8,170.9z"/>
			</g>
			<g>
				<path class="st3" d="M464,163.8c0.7,1.9,1.3,3.6,2,5.3c0.3,0.8,0.7,1.6,1,2.4c0.3,0.8,0.6,1.5,0.8,2.4l0,0.2
					c0.2,1.2-0.6,2.3-1.8,2.5c-0.8,0.2-1.6-0.2-2.1-0.8c-0.7-0.9-1.1-1.9-1.4-2.9c-0.3-1-0.4-2.1-0.4-3.1c0-1,0.1-2.1,0.2-3.1
					c0.2-1,0.5-2,0.9-3c0.1-0.2,0.3-0.2,0.4-0.2C463.9,163.7,464,163.7,464,163.8L464,163.8z"/>
			</g>
			<g class="st4">
				<path class="st5" d="M477.2,192.7C477.2,192.7,477.2,192.7,477.2,192.7c-0.1,0-0.1,0.1-0.2,0.1c-1.5,1-2.9,1.8-4.3,2.5
					c-0.2,0.1-0.4,0.2-0.6,0.3c-1.1,0.5-2.2,1-3.2,1.4c-0.3,0.1-0.7,0.3-1,0.4c-0.3,0.1-0.7,0.2-1,0.4c-0.3,0.1-0.5,0.2-0.7,0.3
					c-1.3,0.4-2.3,0.7-2.9,0.9c-0.1,0-0.2,0-0.2,0.1c-0.3,0.1-0.4,0.1-0.4,0.1l-44.4,36.9L363.7,281l-15.5-55.8
					c0,0,18.7-13.4,40.3-28.8c4.4,16.3,12.6,21.7,20.9,22.3c12.8,0.9,25.8-9.8,25.8-9.8c-7.1-2.8-1.4-11.4-1.4-11.4
					c20.5,0.7,21.4-14.3,24.1-15.4c2.7-1.2,16.7,1.8,16.7,1.8C478.1,185.6,478.3,189,477.2,192.7z"/>
			</g>
			<g>
				<path class="st1" d="M267.2,269.7c-3.5,7.5-8.9,16.3-16.8,26.5c-17.4,22.6-38.7,36.5-58.4,44.4c-23.2,9.3-44.2,10.4-54.6,7.9
					c-19.3-4.6-7.1-30-39.1-19.7c-32,10.3-30.2-6.7-8.6-24.1c0.2-0.1,0.3-0.3,0.5-0.4c21.6-17,52.2-17.2,66.4-22.5
					c14.3-5.3,32.9-18.8,55.8-31.8s55.4-18.4,55.4-18.4s5.6,4.2,5.6,15.2C273.3,252.5,271.8,260,267.2,269.7z"/>
			</g>
			<g class="st6">
				<path class="st3" d="M267.2,269.7c-3.5,7.5-8.9,16.3-16.8,26.5c-17.4,22.6-38.7,36.5-58.4,44.4c-47.6,8.2-62.8-17.5-67.9-20.6
					c-6.7-4-35.9,5.5-35.7,1.1c0.3-4.4,16.3-16.5,48.5-17.9c32.2-1.5,53-20.8,62.2-26.5c9.2-5.7,40.9-13.4,40.9-13.4
					S254.4,265,267.2,269.7z"/>
			</g>
			<g class="st2">
				<path class="st0" d="M273.3,246.8c-10.8,0.4-5.3-16.8-57.3,9.1c-13.5,6.7-29.8,24-56.8,33.1c-12.1,4.1-43.8,7.9-69,15.3
					c21.6-17,52.2-17.2,66.4-22.5c14.3-5.3,32.9-18.8,55.8-31.8s55.4-18.4,55.4-18.4S273.3,235.8,273.3,246.8z"/>
			</g>
			<g>
				<path class="st3" d="M149.1,352.1c-5,0-9.2-0.5-12.3-1.2c-8.8-2.1-12-8.3-14.5-13.2c-3.6-7-6.1-12-23.3-6.5
					c-14.8,4.7-23.8,4.3-26.8-1.3c-3.3-6.1,2.8-16.5,15.9-27.1c15.5-12.5,35.1-16.3,50.9-19.3c6.7-1.3,12.5-2.4,16.7-4
					c8.9-3.3,19.8-10,32.3-17.8c7.3-4.5,14.9-9.2,23.1-13.9c23-13.1,54.8-18.5,56.2-18.7c0.7-0.1,1.3,0.1,1.9,0.5
					c0.2,0.2,5,3.9,6.3,12.8c1.3,9.8-1.6,27.3-23.2,55.2c-21.2,27.5-46.9,40.8-64.6,47.1C172.6,350.2,159.2,352.1,149.1,352.1z
					 M110.9,324c9.9,0,13,6,15.8,11.4c2.4,4.7,4.6,9.1,11.3,10.7c9.4,2.3,27.9,1.3,48.1-5.9c17.1-6.1,41.9-18.9,62.4-45.5
					c18.8-24.4,22.6-39.9,22.4-48.6c-0.1-6.9-2.6-10.5-3.9-11.9c-6,1.1-33.6,6.7-53.4,17.9c-8.2,4.7-15.7,9.3-23,13.8
					c-12.8,7.9-23.8,14.7-33.2,18.2c-4.6,1.7-10.5,2.9-17.5,4.2c-15.2,2.9-34.2,6.6-48.8,18.3c-11.8,9.5-16.4,17.9-14.7,20.9
					c1.2,2.2,7.4,3.3,21-1.1C103,324.7,107.4,324,110.9,324z"/>
			</g>
			<g>
				<path class="st3" d="M270.3,234.3c-5,6.6-10.4,12.8-16.1,18.7c-2.9,2.9-5.9,5.8-9,8.5c-3.1,2.7-6.5,5.2-10.1,7.4
					c-1.8,1.1-3.7,2-5.7,2.8l-1.5,0.5l-1.4,0.5c-0.9,0.3-1.8,0.7-2.7,1.1c-3.6,1.6-7.1,3.6-10.5,5.7c-6.8,4.3-13.4,9.1-20.3,13.5
					c-6.9,4.4-14,8.5-21.7,11.4c-7.7,3-15.8,4.6-24,5.1c-8.2,0.5-16.3-0.3-24.4-0.3c-4,0-8.1,0.3-12.1,1c-4,0.7-7.9,1.8-11.7,3.2
					c3.8-1.5,7.7-2.7,11.7-3.5c4-0.8,8.1-1.2,12.1-1.3c8.1-0.3,16.3,0.3,24.3-0.4c8-0.6,16-2.5,23.4-5.5c7.4-3.1,14.4-7.2,21.1-11.8
					c6.7-4.5,13.1-9.5,20-14c3.4-2.3,6.9-4.4,10.8-6.2c0.9-0.5,1.9-0.9,2.9-1.2l1.5-0.5l1.3-0.5c1.8-0.7,3.5-1.6,5.1-2.7
					c3.3-2.1,6.4-4.6,9.4-7.2c3-2.7,5.8-5.5,8.5-8.4c5.4-5.9,10.6-12.2,15.3-18.6l0,0c0.8-1.1,2.3-1.3,3.4-0.5
					C270.9,231.6,271.2,233.2,270.3,234.3C270.4,234.3,270.3,234.3,270.3,234.3z"/>
			</g>
			<g>
				<path class="st3" d="M132.6,349.7L75.3,376l55.2-30.6c1.2-0.7,2.7-0.2,3.3,1c0.7,1.2,0.2,2.7-1,3.3
					C132.8,349.7,132.7,349.7,132.6,349.7z"/>
			</g>
			<g>
				<path class="st3" d="M176.9,348.8L98,385.9l76.7-41.5c1.2-0.6,2.7-0.2,3.3,1c0.6,1.2,0.2,2.7-1,3.3
					C177,348.7,176.9,348.8,176.9,348.8z"/>
			</g>
			<g>
				<path class="st0" d="M381.6,267c-2.3,11.7-7.1,24.7-14.9,38.9c-31.8,57.7-92.2,89.9-143.8,104.1c-2.6,0.7-13.7,2.8-13.7,2.8
					s-14.2,18.8-28.6,11.6c-8.9-4.5-12.3-13.1-8-28.4c3.6-12.6,8.8-20,22.8-28.8c15.5-9.9,27.9-22.2,31.1-25.5
					c0.5-0.5,0.8-0.8,0.8-0.8s-6.7-12.6-4.9-32.1c0.5-5.1,1.5-10.7,3.4-16.6c3.7-11.8,10.8-25.1,23.3-39c1.8-2,3.6-4,5.4-5.9
					c2.5-2.7,4.9-5.4,7.2-7.9c34-37.1,50-49.9,75.7-47.1C362.2,194.9,390.9,220.8,381.6,267z"/>
			</g>
			<g>
				<path class="st1" d="M197.9,365.6c-0.8,0.5-1.6,1.1-2.5,1.6c-13.9,8.9-19.2,16.2-22.8,28.8c-4.3,15.3-0.9,23.9,8,28.4
					c14.4,7.2,28.6-11.6,28.6-11.6s11.1-2.1,13.7-2.8c2.3-0.6,4.5-1.3,6.8-2C205.9,402.5,198.7,369.8,197.9,365.6z"/>
			</g>
			<g class="st6">
				<path class="st3" d="M369.1,301.4c-0.8,1.5-1.6,3-2.4,4.5c-31.8,57.7-92.2,89.9-143.8,104.1c-2.6,0.7-13.7,2.8-13.7,2.8
					s-14.2,18.8-28.6,11.6c-8.9-4.5-12.3-13.1-8-28.4c3.6-12.6,8.8-20,22.8-28.8c15.5-9.9,27.9-22.2,31.1-25.5
					c0.5-0.5,0.8-0.8,0.8-0.8s-16.4-30.9,8.8-70.9c-16.9,34.9-3.2,60.7-3.2,60.7s-1.2,0.2-0.8,0.8c30.6,41-6.2,28.1-21.6,33.5
					c-15.2,5.3-24.5,14.6-28.5,24c-4.3,10-4.4,23.6,4.4,28.3c8.5,4.6,14.7-2.3,14.7-2.3s-5.4-1.2-9.1-5c-4.6-4.8-2.3-11.9-2.3-11.9
					s13.3,4.5,37.5-0.5S336.6,355.6,369.1,301.4z"/>
			</g>
			<g>
				<path class="st3" d="M187.5,428.6c-2.6,0-5.3-0.6-8.1-1.9c-10.6-5.3-13.7-15.6-9.2-31.2c3.9-13.7,9.9-21.4,23.8-30.2
					c14.7-9.3,26.6-21.1,30.2-24.8c-1.5-3.5-4.8-12.6-4.8-25.5c0.1-15,4.9-38.2,27.6-63.4c41.7-46.4,59.8-65,90.3-61.8
					c17,1.8,32.8,13.1,41.3,29.4c5.7,10.9,8,23.4,6.9,37.3c-1.2,15.7-6.9,32.8-16.8,50.7l-2.1-1.2l2.1,1.2
					c-14.8,26.9-36.8,50.2-65.3,69.2c-23.4,15.6-51.1,28.1-80.1,36c-2.3,0.6-10.3,2.2-13,2.7C208.1,418.1,198.7,428.6,187.5,428.6z
					 M330.7,194.2c-24.2,0-40.9,17.1-79.9,60.5c-21.6,24-26.2,45.8-26.3,59.9c-0.1,15.2,4.9,25,4.9,25.1c0.5,0.9,0.3,2-0.4,2.8
					c-0.6,0.6-14.2,15.3-32.3,26.8c-12.9,8.2-18.2,14.9-21.7,27.4c-4.9,17.4,1.5,22.9,6.7,25.5c12.4,6.2,25.4-10.7,25.5-10.9
					c0.4-0.5,0.9-0.8,1.5-0.9c3.8-0.7,11.5-2.2,13.5-2.8c30.3-8.3,105-35.1,142.4-102.9c17.7-32,21.2-61.7,9.8-83.4
					c-7.7-14.8-22.1-25.1-37.5-26.7C334.8,194.4,332.7,194.2,330.7,194.2z"/>
			</g>
			<g>
				<path class="st3" d="M175.1,392.5l-78.9,37.1l76.7-41.5c1.2-0.6,2.7-0.2,3.3,1c0.6,1.2,0.2,2.7-1,3.3
					C175.1,392.5,175.1,392.5,175.1,392.5z"/>
			</g>
			<g>
				<path class="st3" d="M181.4,428.3L119.1,457l60.1-33.1c1.2-0.7,2.7-0.2,3.3,1c0.7,1.2,0.2,2.7-1,3.3
					C181.5,428.2,181.4,428.3,181.4,428.3z"/>
			</g>
			<g>
				<path class="st3" d="M189.9,397.4c1.2,1.8,2.6,3.5,4,5.1c1.4,1.6,3,2.9,4.6,4.1c0.8,0.6,1.7,1.1,2.5,1.5
					c0.9,0.4,1.7,0.8,2.6,1.1c1.8,0.6,3.6,0.9,5.5,1.2l0.1,0c1.3,0.2,2.3,1.4,2.1,2.8c-0.2,1.1-1.1,2-2.2,2.1
					c-2.5,0.2-5.1-0.2-7.4-1.1c-2.4-0.9-4.4-2.5-6.1-4.2c-1.7-1.7-3.1-3.7-4.2-5.8c-1.1-2.1-1.9-4.2-2.3-6.5c0-0.2,0.1-0.4,0.3-0.4
					C189.6,397.2,189.8,397.3,189.9,397.4L189.9,397.4z"/>
			</g>
			<g>
				<path class="st3" d="M207,388.5c-0.3,0-0.7-0.1-1-0.3c-9.1-5.8-9.1-22.5-9.1-23.2c0-1,0.8-1.8,1.8-1.8c0,0,0,0,0,0
					c1,0,1.8,0.8,1.8,1.8c0,0.2,0,15.4,7.4,20.1c0.9,0.5,1.1,1.7,0.6,2.5C208.2,388.2,207.6,388.5,207,388.5z"/>
			</g>
			<g>
				<path class="st3" d="M76.2,331.9l-57.4,26.3L74,327.6c1.2-0.7,2.7-0.2,3.3,1c0.7,1.2,0.2,2.7-1,3.3
					C76.4,331.9,76.3,331.9,76.2,331.9z"/>
			</g>
			<g>
				<path class="st5" d="M416.6,230.2c-0.7,0-1.4-0.3-1.9-0.9c-9.2-11.2-12.8-25.2-10.5-40.6c1.8-11.5,6.2-19.7,6.4-20
					c0.7-1.2,2.1-1.6,3.3-1c1.2,0.7,1.6,2.1,1,3.3l0,0c-0.2,0.3-16.4,30.8,3.6,55.1c0.9,1,0.7,2.6-0.3,3.4
					C417.7,230,417.1,230.2,416.6,230.2z"/>
			</g>
			<g>
				<path class="st0" d="M281.9,330.5c41.4,27.8,16.5,58.7-16.2,67c-4.6,1.2-14.3,3-14.3,3s-19.7,26.1-41,15
					c-11.7-6.1-10.3-27.7-4.5-37.1c8.4-13.6,21.2-20,21-20.2c-18.2-16.5-12.8-37.5-12.8-37.5"/>
			</g>
			<g>
				<path class="st1" d="M238.5,353.4c0,0,2.4,45.1,40.9,40c0,0-13.9,5.9-29.2,7.5c0,0-11.1,21-37.3,15.9c0,0-18.4-9.1-8.5-35.1
					C204.3,381.6,214.6,360.3,238.5,353.4z"/>
			</g>
			<g class="st6">
				<path class="st3" d="M278.6,392.9c-4.1,1.9-8.4,3.5-12.9,4.7c-4.6,1.2-14.3,3-14.3,3s-19.7,26.1-41,15
					c-11.7-6.1-10.3-27.7-4.5-37.1c8.4-13.6,21.2-20,21-20.2c-18.2-16.6-12.8-37.5-12.8-37.5l10.2,1.5c0.6,9,4.1,25.4,21.8,27.7
					c12,5.5-21.3,10.7-30.1,24c-9.1,13.9-8.5,34.5,4.5,37.1c16,3.2,23.4-7.6,23.4-7.6s-13.1,0.5-17.7-8c-3.7-6.8,2.1-13.9,2.1-13.9
					s15.5,16,47.4,11.5C276.8,392.9,277.7,393,278.6,392.9z"/>
			</g>
			<g>
				<path class="st3" d="M282.3,329.9c4,2.4,7.8,5.1,11.3,8.3c3.5,3.2,6.6,6.9,8.9,11.2c2.3,4.3,3.6,9.3,3.3,14.3
					c-0.3,5-2.1,9.9-4.7,14c-2.7,4.1-6.1,7.7-9.9,10.6c-3.8,3-7.9,5.4-12.2,7.4c-4.3,2-8.8,3.5-13.5,4.6c-4.6,1.1-9.1,1.9-13.6,2.7
					l1.5-1c-1.1,1.5-2.3,2.7-3.5,4c-1.2,1.2-2.4,2.4-3.7,3.6c-2.6,2.3-5.4,4.4-8.4,6.2c-3,1.8-6.3,3.3-9.8,4.1
					c-3.5,0.9-7.2,1.1-10.9,0.5c-1.8-0.3-3.6-0.8-5.3-1.5c-0.9-0.3-1.7-0.7-2.5-1.1c-0.9-0.4-1.7-1-2.5-1.6
					c-3.1-2.4-5.1-5.9-6.3-9.3c-1.1-3.5-1.6-7.1-1.6-10.6c0-3.5,0.4-7,1.3-10.5c0.4-1.7,1-3.4,1.7-5.1c0.3-0.8,0.7-1.7,1.2-2.5
					c0.2-0.4,0.5-0.8,0.7-1.2l0.7-1.1c1.9-2.9,4.1-5.6,6.4-8.1c2.4-2.5,4.9-4.8,7.7-6.9c1.4-1.1,2.8-2.1,4.2-3
					c0.7-0.5,1.4-0.9,2.2-1.4l0.4-0.3c0,0,0,0,0,0l-0.1,0.1c0,0-0.2,0.2-0.4,0.4c-1,1.7,1.2,4.6,0.3,3.2l0,0l-0.1-0.1l-0.2-0.2
					l-0.9-0.9c-5-4.8-8.9-11-11.1-17.7c-1.1-3.4-1.7-6.9-1.9-10.4c-0.1-1.8-0.1-3.5,0-5.3c0.1-0.9,0.1-1.8,0.3-2.6
					c0.1-0.4,0.1-0.9,0.2-1.3c0.1-0.5,0.2-0.9,0.3-1.4c0.3-1.3,1.6-2.1,3-1.8c1.3,0.3,2.1,1.6,1.8,3l0,0.1c-0.1,0.3-0.1,0.7-0.2,1
					c-0.1,0.4-0.1,0.7-0.2,1.1c-0.1,0.8-0.2,1.5-0.2,2.3c-0.1,1.6-0.1,3.1,0,4.7c0.2,3.1,0.8,6.2,1.7,9.2c1.9,5.9,5.3,11.3,9.8,15.7
					l0.9,0.8l0.2,0.2l0.1,0.1l0,0c-0.9-1.4,1.4,1.5,0.3,3.2c-0.2,0.3-0.5,0.5-0.4,0.5l-0.2,0.1l-0.1,0.1c-0.3,0.2-0.4,0.3-0.6,0.4
					c-0.7,0.4-1.4,0.9-2,1.3c-1.3,0.9-2.6,1.8-3.9,2.8c-2.5,2-4.9,4.1-7.1,6.4c-2.2,2.3-4.2,4.8-5.9,7.4l-0.6,1
					c-0.2,0.3-0.4,0.6-0.5,0.9c-0.3,0.6-0.7,1.3-1,2c-0.6,1.4-1,2.9-1.4,4.4c-0.7,3-1.1,6.2-1.1,9.3c0,3.1,0.4,6.2,1.3,9
					c0.9,2.8,2.5,5.4,4.6,7c0.5,0.4,1.1,0.8,1.7,1.1c0.7,0.3,1.4,0.7,2,0.9c1.4,0.5,2.8,1,4.3,1.2c2.9,0.5,5.9,0.3,8.9-0.4
					c2.9-0.7,5.8-2,8.5-3.6c2.7-1.6,5.2-3.5,7.6-5.7c1.2-1.1,2.3-2.2,3.4-3.3c1.1-1.1,2.2-2.4,3.1-3.5c0.4-0.5,1-0.8,1.5-1
					c4.5-0.9,9-1.7,13.3-2.8c4.3-1.1,8.5-2.5,12.5-4.4c4-1.9,7.8-4.1,11.3-6.7c3.5-2.6,6.5-5.7,8.9-9.3c2.4-3.5,4-7.5,4.4-11.6
					c0.2-2.1,0.1-4.2-0.3-6.2c-0.4-2.1-1.1-4.1-2-6.1c-1.8-3.9-4.4-7.5-7.5-10.8c-1.5-1.6-3.1-3.2-4.8-4.7c-1.7-1.5-3.5-2.9-5.3-4.3
					l0,0c-0.4-0.3-0.4-0.8-0.2-1.1C281.5,329.7,282,329.6,282.3,329.9z"/>
			</g>
			<g>
				<path class="st3" d="M225.4,356.9c1-0.7,2.1-1.2,3.1-1.7c1-0.5,2.1-0.9,3.1-1.3c2.1-0.9,4.2-1.6,6.3-2.3l6.4-2.1
					c2.1-0.7,4.3-1.4,6.3-2.2l0,0c0.2-0.1,0.3,0,0.4,0.2c0.1,0.1,0,0.3-0.1,0.3c-1.7,1.6-3.7,2.8-5.6,4.1c-1.9,1.2-3.9,2.3-5.9,3.4
					c-2,1.1-4,2.1-6,3c-2,0.9-4.1,1.8-6.1,2.5l-0.1,0c-1.1,0.4-2.4-0.2-2.8-1.3C224.1,358.5,224.5,357.4,225.4,356.9z"/>
			</g>
			<g>
				<path class="st3" d="M251.6,403c-0.9,0.1-1.6,0.1-2.3,0.1c-0.8,0-1.5-0.1-2.3-0.1c-1.5-0.2-3-0.5-4.4-0.9
					c-2.9-0.9-5.7-2.3-8.1-4.3c-1.2-1-2.2-2.2-3.1-3.4c-0.9-1.3-1.6-2.6-2.1-4c-1-2.8-1.3-5.8-1-8.6c0-0.2,0.2-0.3,0.4-0.3
					c0.2,0,0.3,0.1,0.3,0.3l0,0c0.7,2.7,1.6,5.2,3,7.4c0.7,1.1,1.5,2,2.4,2.9c0.9,0.9,1.9,1.6,2.9,2.3c2.1,1.3,4.4,2.1,6.9,2.7
					c1.2,0.3,2.5,0.5,3.7,0.7c0.6,0.1,1.3,0.2,1.9,0.2l1.8,0.2l0.2,0c1.3,0.1,2.3,1.3,2.2,2.7C253.6,402,252.7,402.8,251.6,403z"/>
			</g>
			<g>
				<path class="st3" d="M271.7,395.2c-7.8,0-14.5-2.3-19.9-6.9c-13.3-11.2-14.2-31.9-14.3-32.8c0-1,0.7-1.9,1.8-1.9
					c1,0,1.9,0.7,1.9,1.8c0,0.2,1,20,13,30.2c5.8,4.9,13.4,6.8,22.6,5.7c1-0.1,1.9,0.6,2.1,1.6c0.1,1-0.6,1.9-1.6,2.1
					C275.3,395,273.5,395.2,271.7,395.2z"/>
			</g>
			<g>
				<path class="st0" d="M394.3,279.9l-25.2,47.8l-32,8.6l-16.9,4.6c0,0-14.1-2.9-17.5-3.6c-4.6-1-3.8-6.6-2.2-9.8
					c2.6-5.6,4.5-11,6-16.2c2.3-8.3,3.5-15.9,4.7-22.1c1-5.1,5.3-8.9,10.5-9.2c31-1.8,61-7,61-7L394.3,279.9z"/>
			</g>
			<g>
				<path class="st3" d="M320.2,343.3c-0.2,0-0.3,0-0.5,0c-0.6-0.1-14.2-2.9-17.6-3.6c-2.1-0.5-3.7-1.7-4.6-3.5
					c-1.5-3-0.6-7,0.7-9.8c5.8-12.3,8-24,9.7-33.4c0.3-1.5,0.5-2.9,0.8-4.3c1.2-6.2,6.5-10.8,12.8-11.2c30.5-1.8,60.4-6.9,60.7-6.9
					c0.6-0.1,1.2,0,1.7,0.3l11.6,6.9c1.1,0.7,1.5,2.1,0.9,3.2l-25.1,47.8c-0.3,0.6-0.9,1-1.5,1.2l-49,13.2
					C320.6,343.3,320.4,343.3,320.2,343.3z M382.2,275.6c-5.2,0.9-32.6,5.2-60.4,6.8c-4.1,0.2-7.5,3.2-8.3,7.2
					c-0.3,1.4-0.5,2.8-0.8,4.3c-1.8,9.7-4,21.7-10.1,34.6c-1,2.1-1.3,4.4-0.7,5.5c0.2,0.3,0.4,0.7,1.2,0.8c3,0.6,14.3,3,16.9,3.5
					l47.4-12.7l23.6-44.8L382.2,275.6z"/>
			</g>
			<g>
				<path class="st3" d="M327.9,296.4c-0.5,0-1.1-0.2-1.5-0.5l-13.7-10.6c-1.1-0.8-1.3-2.4-0.4-3.4c0.8-1.1,2.4-1.3,3.4-0.4
					l13.7,10.6c1.1,0.8,1.3,2.4,0.4,3.4C329.4,296.1,328.6,296.4,327.9,296.4z"/>
			</g>
			<g class="st6">
				<path class="st3" d="M337.1,336.3l-16.9,4.6c0,0-14.1-2.9-17.5-3.6c-3.5-0.8-3.9-4.2-3.1-7.2c0.2-0.9,0.6-1.8,0.9-2.6
					c2.6-5.6,4.5-11,6-16.2c1.1,2.1,4.1,6.2,11,5.3c2.5-0.3,5.4-1.3,9-3.2C336.8,307.8,337.8,323.6,337.1,336.3z"/>
			</g>
			<g class="st6">
				<path class="st3" d="M317.4,316.6c-7,0.9-10-3.3-11-5.3c-1.5,5.1-3.4,10.6-6,16.2c-0.4,0.8-0.7,1.7-0.9,2.6
					c-19.5,3.8-51.5,0.5-76.8-21c-0.1-0.1-0.3-0.2-0.4-0.4c0.5-5.1,1.5-10.7,3.4-16.6c2.7-1.1,5.8-1,8.5,0.7
					c37.9,24.2,75,13.2,75,13.2S317.4,308.7,317.4,316.6z"/>
			</g>
			<g>
				<path class="st0" d="M220.1,292c-1.4,3.7-0.3,7.8,2.7,10.4c37.7,32,90.6,23.6,94.1,11.5c3.2-11-7.6-14.5-7.6-14.5
					s-37.1,11-75-13.2c-4.9-3.1-11.5-1-13.6,4.5L220.1,292z"/>
			</g>
			<g class="st6">
				<path class="st3" d="M316.8,313.9c-3.5,12-56.4,20.5-94.1-11.5c-3-2.5-4.1-6.7-2.7-10.4l0.5-1.4c0.8-2,2.1-3.5,3.8-4.5
					c0.2,2.4,1.3,4.7,3.2,6.3c32.3,27.4,75.8,25.2,89.8,16.4C317.5,310.2,317.4,311.9,316.8,313.9z"/>
			</g>
			<g>
				<path class="st3" d="M284.6,327.1c-19,0-43.3-5.6-63.5-22.8c-3.8-3.2-5.1-8.5-3.4-13.1l0.5-1.4c1.3-3.3,3.9-5.8,7.2-6.9
					c3.3-1.1,7-0.6,9.9,1.2c36.5,23.3,72.7,13.1,73,12.9l0.7-0.2l0.7,0.2c4.5,1.5,12.3,7,9.2,17.6c-1.2,4-6,7.5-13.6,9.8
					C300.1,326,292.9,327.1,284.6,327.1z M229.2,287.1c-0.7,0-1.4,0.1-2.1,0.3c-1.9,0.6-3.5,2.1-4.2,4l-0.5,1.4
					c-1,2.7-0.2,5.7,2,7.6c27.5,23.4,62.8,24.3,79.9,19.2c6.8-2,9.8-4.7,10.3-6.5c2.1-7.3-3.4-10.4-5.4-11.3
					c-5.9,1.5-40.4,9.1-76.2-13.7C231.7,287.5,230.5,287.1,229.2,287.1z M220.1,292L220.1,292L220.1,292z"/>
			</g>
			<g>
				<path class="st0" d="M292.4,298.1c-0.5,5.5-2.4,10.1-4.1,12.5c-3.3,4.5-35.7,29.5-61.9,31.1c-11.7,0.7-22.2-3.3-28.3-15.9
					c0-0.1-0.1-0.1-0.1-0.2c-14.1-29.7,29.7-64.1,54.3-80.5c3.5-2.3,6.6-4.3,9.1-5.8c3.9-2.4,6.4-3.8,6.6-3.9l-9.8,15.7l-19.1,30.6
					l-0.2,0.3l-2,3.2c1.9-2.6,3.8-4.6,5.6-6.2c1.2-1,2.3-1.8,3.4-2.5c0.1,0,0.1-0.1,0.1-0.1c4.7-2.9,9.1-3.3,12-3.1
					c1.6,0.1,2.9,0.5,3.5,0.7h0c0.4,0.1,0.5,0.2,0.5,0.2l9.5-3.3c1.5-0.5,3-0.7,4.5-0.6l0,0c2.5,0.2,5,1.2,6.8,3.1
					C291.3,281.4,293.1,290.7,292.4,298.1z"/>
			</g>
			<g class="st6">
				<path class="st3" d="M230.4,341.3c0,0-21.1,6.1-32.2-15.5c0-0.1-0.1-0.1-0.1-0.2c-3-6.3-3.4-12.9-1.9-19.4
					c0.2,0.5,0.4,1,0.7,1.5c0,0.1,0.1,0.1,0.1,0.2c4,12.2,17.5,15,17.5,15s-3.2,5.8,4.2,13.3C224.7,342.3,230.4,341.3,230.4,341.3z"
					/>
			</g>
			<g class="st6">
				<path class="st3" d="M268.1,265.3c-2.6-2.1-5.6-3.9-8.9-4.3c-3.2-0.4-6.3,0.5-9.4,1.5c-15.3,5.4-31.6,17.3-36.9,31.7
					c2.6,1.2,5.7-1.1,8.4-1.7c4.7-1.1,9.4-2.3,13.5-4.9c2.2-1.4,4.2-3.3,6.3-4.9c2.6-2,5.5-3.6,8.5-4.9c2.5-1,5.2-1.8,7.9-1.8
					c4.8,0.1,12.4,5.5,16.6,1.1C278.3,273,271.2,267.9,268.1,265.3z"/>
			</g>
			<g>
				<path class="st0" d="M232.7,341.6c24.8-4,52.6-25.1,55.6-31c11.9-22.7-1.6-45.4-18.7-38.9l-7.4,2.6c0,0-4.8-17-25.2,11"/>
			</g>
			<g>
				<path class="st1" d="M231.1,287.5c0,0-5.2,0.9-10.1,9.8c0,0-20.7,24.4,5.4,44.4c0,0,53.3-9.2,65.3-40.1c0,0,8.2-28.5-18.2-31.2
					l-11.1,4.1c0,0-2.1-8.4-10.3-5c0,0-10.1,7.7-15.2,16.7L231.1,287.5z"/>
			</g>
			<g class="st2">
				<path class="st0" d="M263.6,276.4l10.1-1.1c3.1-0.3,6.2,1,8.2,3.4c4.5,5.7,10.5,17.3,3.2,33.6c0,0,10.5-10.4,8.5-25.7
					c0,0-4.9-20.7-22.2-16.1l-6.6,3.8L263.6,276.4z"/>
			</g>
			<g class="st2">
				<path class="st0" d="M223,294c0,0,12.5-1.7,16.1-4.6c0,0,11.1-16.1,20.3-16.1l-1.2-3.8l-5.7,0l-8.5,8.7l-6.8,8.2l-11.6,4
					L223,294z"/>
			</g>
			<g>
				<path class="st3" d="M224.9,344.7c-0.2,0-0.5,0-0.7,0c-13.1-0.2-22.6-6.2-28.2-17.8c-20.4-42.3,65.5-92.9,69.2-95.1
					c1.2-0.7,2.7-0.3,3.3,0.9c0.7,1.2,0.3,2.7-0.9,3.3c-0.9,0.5-85.7,50.4-67.2,88.7c4.7,9.8,12.8,14.9,23.9,15.1c0.2,0,0.4,0,0.6,0
					c25.1,0,58.1-24.3,61.3-30.3c6.9-13.3,4.3-25.8-1-31.8c-3.9-4.4-9.1-5.7-14.7-3.6l-7.5,2.6c-0.6,0.2-1.3,0.2-1.9-0.1
					c-0.6-0.3-1-0.9-1.2-1.5c0,0-0.9-2.9-3.2-3.3c-1.8-0.3-7.1,0.5-17.7,15.1c-0.8,1.1-2.3,1.3-3.4,0.5c-1.1-0.8-1.3-2.3-0.5-3.4
					c9.1-12.5,16.5-18.1,22.6-17c2.9,0.5,4.8,2.5,5.9,4.4l5.3-1.8c7.3-2.8,14.8-0.9,20,5c6.6,7.5,9.7,21.9,1.7,37.4
					C286.9,318.7,252.8,344.7,224.9,344.7z"/>
			</g>
			<g>
				<path class="st3" d="M237.8,287.6c-2,1-4.1,1.8-6.2,2.5c-2.1,0.7-4.3,1.3-6.4,1.9c-2.2,0.6-4.3,1.1-6.5,1.6
					c-2.2,0.5-4.4,1-6.7,1.3c-0.2,0-0.4-0.1-0.4-0.3c0-0.1,0-0.3,0.2-0.4c1.9-1.2,3.9-2.3,5.9-3.4c2-1.1,4-2.1,6-3
					c2-1,4-1.9,6.1-2.8c2.1-0.8,4.2-1.6,6.3-2.1c1.3-0.3,2.7,0.5,3,1.8C239.3,286,238.8,287.1,237.8,287.6z"/>
			</g>
			<g>
				<path class="st3" d="M226.2,343.5c-0.4,0-0.7-0.1-1-0.3c-7.9-5.2-12.3-11.9-13.3-19.9c-2.2-17.6,13.4-34.9,14.1-35.6
					c0.7-0.8,1.8-0.8,2.6-0.1c0.8,0.7,0.8,1.8,0.1,2.6c-0.2,0.2-15.1,16.8-13.1,32.7c0.8,6.9,4.8,12.7,11.7,17.3
					c0.8,0.6,1.1,1.7,0.5,2.5C227.3,343.3,226.8,343.5,226.2,343.5z"/>
			</g>
			<g class="st6">
				<path class="st3" d="M381.6,267c-1,0.6-2.1,1.2-3.1,1.7c-5,2.6-10.1,4.7-15.3,6.4c-1.9,0.6-3.8,1.2-5.8,1.7
					c-34.2,9-72.1,0.4-99.2-25.7c-0.9-0.8-1.7-1.7-2.6-2.6c-0.4-0.5-0.9-0.9-1.3-1.4c-0.6-0.7-1.3-1.4-1.9-2.1
					c3.5-2.3,6.6-4.3,9.1-5.8c34-37.1,50-49.9,75.7-47.1C362.2,194.9,390.9,220.8,381.6,267z"/>
			</g>
			<g>
				<path class="st0" d="M439,175.5c-2.3,17.3-8.9,34.1-19.8,48.7c-2.2,3-4.6,5.9-7.2,8.6c-1.2,1.4-2.6,2.7-3.9,4
					c-4.1,3.9-8.3,7.5-12.8,10.6c-3.9,2.7-7.9,5.1-12,7.3c-5,2.6-10.1,4.7-15.3,6.4c-1.9,0.6-3.8,1.2-5.8,1.7
					c-35.3,9.3-74.5-0.2-101.8-28.3c-40.1-41.4-39.1-107.5,2.3-147.6c8-7.7,16.9-13.9,26.3-18.6c1.1-0.6,2.2-1.1,3.3-1.6
					c3-1.4,6.1-2.6,9.2-3.6c7.2-2.4,14.5-4.1,22-4.9c7.4-0.8,14.9-0.9,22.4-0.1c2.4,0.2,4.7,0.6,7.1,1c3.5,0.6,7,1.4,10.5,2.4
					c17.3,4.8,33.5,14.1,46.9,27.9C433.6,113,443,145,439,175.5z"/>
				<path class="st3" d="M335.6,266.5c-28,0-55.3-11.2-75.3-31.8c-40.2-41.4-39.1-107.8,2.3-148c7.9-7.6,16.7-13.9,26.4-18.7
					c1.1-0.5,2.2-1.1,3.4-1.6c3-1.4,6.1-2.6,9.2-3.6c7.1-2.4,14.5-4.1,22-4.9c7.4-0.8,15-0.9,22.4-0.1c2.4,0.2,4.8,0.6,7.1,1
					c3.6,0.6,7.1,1.4,10.5,2.4c17.8,4.9,34.1,14.6,47,28c22.4,23.1,32.8,54.6,28.6,86.5c-2.3,17.7-9.2,34.6-19.8,48.8
					c-2.3,3-4.7,5.9-7.2,8.6c-1.1,1.2-2.4,2.5-3.9,4c-4,3.9-8.3,7.5-12.9,10.6c-3.8,2.7-7.8,5.1-12,7.3c-4.9,2.5-10.1,4.7-15.3,6.4
					c-1.9,0.6-3.8,1.2-5.8,1.7C353.6,265.3,344.6,266.5,335.6,266.5z M335.5,57.7c-3.9,0-7.9,0.2-11.8,0.7
					c-7.5,0.8-14.9,2.5-21.9,4.9c-3.1,1.1-6.2,2.3-9.1,3.6c-1.2,0.5-2.3,1-3.3,1.6c-9.6,4.7-18.4,11-26.3,18.6
					c-41.2,40-42.3,106-2.3,147.3c26.2,27,65.1,37.8,101.5,28.2c1.9-0.5,3.9-1.1,5.7-1.7c5.3-1.7,10.4-3.9,15.3-6.4
					c4.2-2.2,8.2-4.6,11.9-7.2c4.5-3.2,8.8-6.7,12.8-10.6c1.5-1.4,2.7-2.7,3.9-4c2.5-2.7,4.9-5.6,7.2-8.6
					c10.6-14.2,17.4-31,19.7-48.6l0.2,0l-0.2,0c4.2-31.8-6.2-63.1-28.5-86.1c-12.9-13.3-29-22.9-46.8-27.8
					c-3.4-0.9-6.9-1.7-10.5-2.3c-2.3-0.4-4.7-0.7-7.1-1C342.6,57.8,339,57.7,335.5,57.7z"/>
			</g>
			<g class="st7">
				<path class="st3" d="M260.6,234.5c27.2,28.1,66.4,37.6,101.8,28.3c1.9-0.5,3.8-1.1,5.8-1.7c5.2-1.7,10.4-3.9,15.3-6.4
					c4.1-2.1,8.1-4.5,12-7.2c4.5-3.1,8.8-6.7,12.8-10.6c1.3-1.3,2.6-2.6,3.9-4c2.6-2.8,5-5.7,7.2-8.6c10.9-14.6,17.5-31.4,19.8-48.7
					c1.2-9.5,1.2-19.2-0.2-28.7c-2.5,16.5-9,32.4-19.4,46.3c-2.2,3-4.6,5.9-7.2,8.6c-1.2,1.3-2.6,2.7-3.9,4
					c-4.1,3.9-8.3,7.5-12.8,10.6c-3.9,2.7-7.9,5.1-12,7.2c-5,2.6-10.1,4.7-15.3,6.4c-1.9,0.6-3.8,1.2-5.8,1.7
					c-35.3,9.3-74.5-0.2-101.8-28.3c-15.9-16.4-25.3-36.7-28.3-57.7C227.5,177,236.9,210,260.6,234.5z"/>
			</g>
			<g>
				<path class="st3" d="M335.6,268.1c-28.4,0-56.2-11.4-76.4-32.3c-40.8-42.1-39.7-109.5,2.4-150.3c8-7.7,17-14.1,26.8-18.9
					c1.1-0.5,2.2-1.1,3.4-1.6c3-1.4,6.2-2.6,9.3-3.7c7.2-2.5,14.8-4.2,22.4-5c7.5-0.9,15.2-0.9,22.8-0.1c2.4,0.2,4.9,0.6,7.2,1
					c3.7,0.6,7.2,1.4,10.7,2.4c18.1,5,34.6,14.8,47.7,28.4c22.7,23.4,33.3,55.5,29.1,87.9c-2.4,18-9.3,35.1-20.1,49.6
					c-2.3,3.1-4.8,6-7.3,8.8c-1.2,1.3-2.5,2.6-4,4.1c-4.1,3.9-8.5,7.6-13.1,10.8c-3.8,2.7-7.9,5.2-12.2,7.4
					c-5,2.6-10.2,4.8-15.6,6.5c-1.9,0.6-3.9,1.2-5.9,1.7C353.8,267,344.7,268.1,335.6,268.1z M335.5,59.3c-3.9,0-7.8,0.2-11.6,0.7
					c-7.4,0.8-14.6,2.5-21.6,4.8c-3,1-6.1,2.2-9,3.6c-1.2,0.5-2.3,1-3.3,1.5c-9.5,4.7-18.2,10.8-25.9,18.3
					c-40.6,39.3-41.6,104.4-2.3,144.9c25.8,26.6,64.1,37.2,99.9,27.8c1.9-0.5,3.8-1.1,5.7-1.7c5.2-1.7,10.2-3.8,15-6.3
					c4.1-2.1,8-4.5,11.8-7.1c4.4-3.1,8.7-6.6,12.6-10.4c1.4-1.4,2.7-2.7,3.8-3.9c2.5-2.7,4.9-5.5,7.1-8.5
					c10.4-14,17.1-30.5,19.4-47.8l1.9,0.2l-1.9-0.2c4.1-31.3-6.1-62.1-28-84.7c-12.7-13.1-28.6-22.5-46-27.4
					c-3.3-0.9-6.8-1.7-10.3-2.3c-2.3-0.4-4.6-0.7-6.9-0.9C342.5,59.5,339,59.3,335.5,59.3z"/>
			</g>
			<g>
				<path class="st3" d="M335.6,268.7c-28.6,0-56.5-11.5-76.8-32.5c-41-42.3-39.9-110.1,2.4-151.1c8-7.8,17.1-14.2,26.9-19
					c1.1-0.5,2.2-1.1,3.4-1.6c3.1-1.4,6.2-2.6,9.4-3.7c7.3-2.5,14.8-4.2,22.5-5c7.6-0.9,15.3-0.9,22.9-0.1c2.4,0.2,4.9,0.6,7.2,1
					c3.7,0.6,7.3,1.4,10.7,2.4c18.2,5,34.8,14.9,48,28.6c22.8,23.6,33.5,55.8,29.2,88.3c-2.4,18.1-9.4,35.3-20.2,49.9
					c-2.3,3.1-4.8,6.1-7.4,8.8c-1.2,1.3-2.5,2.6-4,4.1c-4.1,4-8.5,7.6-13.1,10.9c-3.9,2.7-8,5.2-12.3,7.4c-5,2.6-10.3,4.8-15.7,6.6
					c-1.9,0.6-3.9,1.2-5.9,1.7C353.9,267.5,344.8,268.7,335.6,268.7z M335.5,59.9c-3.9,0-7.7,0.2-11.6,0.7
					c-7.3,0.8-14.5,2.4-21.5,4.8c-3,1-6,2.2-8.9,3.5c-1.2,0.5-2.2,1-3.3,1.5c-9.4,4.7-18.1,10.8-25.7,18.2
					c-40.4,39.1-41.4,103.8-2.3,144.2c25.6,26.5,63.7,37,99.4,27.6c1.9-0.5,3.8-1.1,5.6-1.7c5.2-1.7,10.2-3.8,14.9-6.3
					c4.1-2.1,8-4.5,11.7-7.1c4.4-3.1,8.6-6.6,12.5-10.3c1.4-1.4,2.7-2.7,3.8-3.9c2.5-2.7,4.8-5.5,7-8.4c10.4-13.9,17-30.3,19.3-47.6
					l2.4,0.3l-2.4-0.3c4.1-31.1-6.1-61.8-27.9-84.3c-12.6-13-28.4-22.4-45.8-27.2c-3.3-0.9-6.7-1.7-10.2-2.3
					c-2.2-0.4-4.6-0.7-6.9-0.9C342.4,60,339,59.9,335.5,59.9z"/>
			</g>
			<g>
				<path class="st3" d="M432.2,201.3c-41.8,61.8-130.4,63.1-160.9-4.2c-20.8-45.8,8.1-101.5,53.3-118.6
					c32.9-12.5,70.6-10.2,103.9,35.6c0,0,11.6,22.6,11.2,40.7s-3.8,35.7-3.8,35.7L432.2,201.3z"/>
			</g>
			<g>
				<path class="st8" d="M271.3,197.1c30.5,67.3,119.1,66,160.9,4.2l0.8-2.2c-58.5,35.3-135.6,21.7-167.7-45.8
					C263.2,167.9,264.9,183,271.3,197.1z"/>
			</g>
			<g>
				<path class="st3" d="M348.1,260.9c-11.6,0-23-1.9-33.7-5.8c-24.7-8.9-43.8-27-55.3-52.4c-10.6-23.3-10.6-50.3,0-75.9
					c11.5-27.9,34.4-50.5,61.3-60.7c15.1-5.7,29.7-8.2,43.4-7.3l0.3,0l0.2,0.1c18.2,5.1,34.8,14.9,48,28.6
					c22.8,23.6,33.5,55.8,29.2,88.3c-2.4,18.1-9.4,35.3-20.2,49.9c-2.3,3.1-4.8,6.1-7.4,8.8c-1.2,1.3-2.5,2.6-4,4.1
					c-4.1,4-8.5,7.6-13.1,10.9l-0.3,0.2C381,257.1,364.4,260.9,348.1,260.9z M358.3,63.5c-11.5,0-23.7,2.4-36.2,7.1
					c-25.6,9.7-47.5,31.4-58.5,58c-10.1,24.3-10.1,49.9-0.1,72c10.9,24.1,29.1,41.4,52.5,49.8c24.5,8.8,53,6.9,78.1-5.2
					c4.4-3.1,8.5-6.5,12.4-10.2c1.4-1.4,2.7-2.7,3.8-3.9c2.5-2.7,4.8-5.5,7-8.4c10.4-13.9,17-30.3,19.3-47.6l2.4,0.3l-2.4-0.3
					c4.1-31.1-6.1-61.8-27.9-84.3c-12.5-12.9-28.3-22.3-45.5-27.2C361.6,63.6,360,63.5,358.3,63.5z"/>
			</g>
			<g>
				<path class="st3" d="M348.6,250.1c-2.6,0-5.3-0.1-7.9-0.3c-31.9-2.7-58.1-21.5-71.7-51.6c-9.4-20.8-9.4-44.9,0-67.7
					c10.3-24.8,30.7-45.1,54.7-54.2c41.7-15.8,77.6-3.5,106.7,36.5l0.2,0.3c0.5,0.9,11.9,23.3,11.5,41.9
					c-0.4,18.1-3.8,35.9-3.8,36.1l-0.1,0.3l-3.8,11l-0.2,0.3C414.1,232.5,381.9,250.1,348.6,250.1z M357.4,74.6
					c-10.2,0-20.8,2.1-31.9,6.3c-22.7,8.6-42.1,27.8-51.9,51.5c-8.9,21.6-8.9,44.2-0.1,63.8c12.9,28.4,37.5,46.2,67.7,48.8
					c34.1,2.9,68.1-14.2,88.8-44.7l3.6-10.3c0.3-1.8,3.4-18.3,3.7-35.1c0.3-16.5-9.9-37.3-10.9-39.4
					C406.5,88.3,383.4,74.6,357.4,74.6z M432.2,201.3L432.2,201.3L432.2,201.3z"/>
			</g>
			<g>
				<path class="st0" d="M263.9,238.1c-14.5,3.8-31.3-9-37.5-28.6c0,0,0-0.1,0-0.1c-6.1-19.6,0.7-38.5,15.1-42.4
					c14.5-3.8,31.3,9,37.5,28.6c0.4,1.2,0.7,2.5,1,3.7C284.3,217.5,277.5,234.5,263.9,238.1z"/>
			</g>
			<g class="st7">
				<path class="st3" d="M280,199.2c4.3,18.3-2.5,35.2-16.1,38.8c-14.5,3.8-31.3-9-37.5-28.6c0,0,0-0.1,0-0.1l37.9-8.8
					C273.6,209.1,278.1,203.4,280,199.2z"/>
			</g>
			<g>
				<path class="st0" d="M327.9,233.9C327.9,233.9,327.9,233.9,327.9,233.9C327.9,233.9,327.9,233.9,327.9,233.9z"/>
			</g>
			<g>
				<path class="st3" d="M258.7,241.2c-14.2,0-28.9-12.7-34.6-31l0,0c-3.8-12.1-3.1-24.4,2-33.5c3.4-6.2,8.6-10.4,14.9-12.1
					c15.7-4.2,33.9,9.4,40.4,30.3c3.8,12.1,3.1,24.4-2,33.5c-3.4,6.2-8.6,10.4-14.9,12.1C262.6,240.9,260.7,241.2,258.7,241.2z
					 M228.7,208.7c5.8,18.4,21.3,30.5,34.5,27c4.9-1.3,9-4.7,11.8-9.7c4.4-7.9,4.9-19,1.6-29.7c-5.8-18.4-21.3-30.5-34.5-27
					c-4.9,1.3-9,4.7-11.8,9.7C226,186.9,225.4,198,228.7,208.7L228.7,208.7z"/>
			</g>
			<g>
				
					<ellipse transform="matrix(0.9243 -0.3816 0.3816 0.9243 -60.8407 109.3454)" class="st0" cx="245.3" cy="208.1" rx="22.1" ry="29.6"/>
				<path class="st3" d="M250.1,237c-0.5,0-1,0-1.6-0.1c-7.2-0.6-14.4-5.1-19.6-12.5l0,0c-9.4-13.1-9.7-31.1-0.7-40.2
					c3.7-3.7,8.5-5.5,13.8-5c7.2,0.6,14.4,5.1,19.6,12.5c9.4,13.1,9.7,31.1,0.7,40.2C259,235.2,254.8,237,250.1,237z M240.4,179.7
					c-4.5,0-8.6,1.7-11.9,5c-8.8,8.9-8.5,26.6,0.8,39.5l0,0c5.2,7.2,12.2,11.7,19.2,12.3c5.2,0.4,9.8-1.3,13.4-4.9
					c8.8-8.9,8.5-26.6-0.8-39.5c-5.2-7.2-12.2-11.7-19.2-12.3C241.5,179.7,240.9,179.7,240.4,179.7z"/>
			</g>
			<g class="st7">
				<path class="st3" d="M269,213.8c-0.3-5.6-2.2-11.1-5.1-16c-0.3,12.8-9.4,20.9-21.1,18.2c-7.6-1.7-14.6-7.5-19.1-15
					c0,0.8,0,1.6,0,2.5c0.8,14.3,11.7,28.1,24.1,31C260.4,237.3,269.8,228,269,213.8z"/>
			</g>
			<g>
				<path class="st3" d="M250.7,239.2c-11.2,0-23.1-10.7-28-26v0c-3.3-10.3-2.8-20.8,1.3-28.2c2.6-4.7,6.4-7.8,11.1-9
					c12.2-3.1,26.6,8.3,32.1,25.5c3.3,10.3,2.8,20.8-1.3,28.2c-2.6,4.7-6.4,7.8-11.1,9C253.4,239.1,252.1,239.2,250.7,239.2z
					 M227.4,211.7c4.7,14.8,16.5,24.7,26.2,22.2c3.3-0.8,6.1-3.1,8-6.6c3.4-6.2,3.8-15.3,0.9-24.3c-4.7-14.8-16.5-24.7-26.2-22.2
					c-3.3,0.8-6.1,3.1-8,6.6C224.9,193.6,224.5,202.7,227.4,211.7L227.4,211.7z"/>
			</g>
			<g class="st9">
				<path class="st0" d="M307.9,104.5c0,0,45.3-13.9,79.3,2.4c0,0,0.1,0,0.1,0.1c7.2,3.4,13.2,8.7,17.7,15.3
					c5.9,8.7,8.6,15.5,10.8,21.7c6.7,18.6,6.3,28.6,6.3,28.6c7.1-13.7,9-27,3.6-42.6c-0.5-1.5-1.2-3.1-1.8-4.7
					c-0.2-0.4-0.3-0.7-0.5-1.1c0,0,0,0,0,0c-1.6-3.1-3.9-7.1-6.8-11.4c-8.8-13-23.6-28.8-44.7-31
					C332.5,77.7,305.6,103.1,307.9,104.5z"/>
			</g>
			<g class="st9">
				
					<ellipse transform="matrix(0.9965 -8.335979e-02 8.335979e-02 0.9965 -12.5178 24.8383)" class="st0" cx="291.2" cy="162.3" rx="14" ry="16.3"/>
			</g>
			<g class="st9">
				
					<ellipse transform="matrix(1.054249e-03 -1 1 1.054249e-03 101.5752 485.2144)" class="st0" cx="293.7" cy="191.8" rx="6.7" ry="5.8"/>
			</g>
			<g>
				<path class="st0" d="M378.5,310.9c-0.8,4.3-1.4,9.7-1.4,9.7s-8.9-0.8-9.6-1c-2.3-0.4-3.3-5.8-2.1-12c1.2-6.2,4-10.8,6.4-10.4
					c1.7,0.3,8.9,0.9,8.9,0.9S378.8,309.3,378.5,310.9z"/>
			</g>
			<g>
				
					<ellipse transform="matrix(0.1878 -0.9822 0.9822 0.1878 3.6901 623.3392)" class="st0" cx="378.7" cy="309.4" rx="11.4" ry="5.8"/>
			</g>
			<g class="st6">
				<path class="st3" d="M287.5,310.5c-3.3,4.5-35.7,29.5-61.8,31.1c-9.6-6.4-12.6-10.9-12.3-19.1c15.6,4.9,35-13.6,35-13.6
					C262.4,323.7,288.4,309.2,287.5,310.5z"/>
			</g>
			<g>
				<path class="st0" d="M393.9,282.3c-1.6,4.5-4.2,11.7-7.1,19.2c-4.2,10.7-9,21.9-12.9,26.4c-6.8,7.9-35.2,12.3-53.7,12.9
					c-4.9,0.2-8.4-4.4-6.4-8.8c3.3-7.2,5.9-14.3,8-20.5c2-5.8,3.4-10.9,4.4-14.4c0.9-3.3,3.8-5.5,7.2-5.6
					c29.3-0.5,49.1-7.9,57.6-11.9C392.7,278.9,394.5,280.5,393.9,282.3z"/>
			</g>
			<g class="st6">
				<path class="st3" d="M381.3,314.7c-2.1,4.6-4.2,8.7-6.1,11.5c-0.5,0.7-0.9,1.3-1.3,1.8c-6.8,7.9-35.2,12.3-53.7,12.9
					c-4.9,0.2-8.4-4.4-6.4-8.8c3.3-7.2,5.9-14.3,8-20.5c1.8,5,7.7,15.4,26.5,16.2c4.9,0.2,9.7-1.2,14.3-3.7
					c-1.1-2.1-1.3-6.1-0.5-10.5c1.2-6.2,4-10.8,6.4-10.4c1.4,0.3,6.7,0.7,8.3,0.9c0.3,0,0.5,0,0.8,0c1.7,0.3,2.9,2,3.5,4.5
					C381.5,310.3,381.6,312.4,381.3,314.7z"/>
			</g>
			<g class="st6">
				<path class="st3" d="M381.3,314.7c0.3-2.3,0.1-4.4-0.3-6.1c2.1-2.4,4-4.7,5.8-7C385,306,383.2,310.6,381.3,314.7z"/>
			</g>
			<g>
				<path class="st3" d="M319.9,343.3c-3.2,0-6-1.5-7.7-4c-1.7-2.5-1.9-5.5-0.6-8.2c6.4-14.1,10.4-27.7,12.3-34.6c0,0,0,0,0,0
					c1.2-4.3,5.1-7.3,9.5-7.4c28.5-0.4,47.7-7.5,56.6-11.7c1.7-0.8,3.7-0.5,5,0.8c1.4,1.3,1.9,3.2,1.2,5l-0.4,1.1
					c-4.3,12.2-13.4,37.5-20.1,45.3c-7.7,9-37.4,13.2-55.5,13.8C320.1,343.3,320,343.3,319.9,343.3z M328.5,297.8
					c-1.9,7-6.1,20.9-12.6,35.3c-0.7,1.6-0.2,2.9,0.3,3.5c0.8,1.2,2.3,1.9,3.8,1.9c20.6-0.7,46.3-5.5,51.9-12
					c6.1-7.2,15.3-32.8,19.2-43.8l0.1-0.4c-9.5,4.4-29.2,11.4-57.9,11.8C331.1,294.1,329.1,295.6,328.5,297.8L328.5,297.8z"/>
			</g>
			<g>
				<g>
					<path class="st10" d="M378.5,310.9c-0.8,4.3-1.4,9.7-1.4,9.7s-8.9-0.8-9.6-1c-2.3-0.4-3.3-5.8-2.1-12c1.2-6.2,4-10.8,6.4-10.4
						c1.7,0.3,8.9,0.9,8.9,0.9S378.8,309.3,378.5,310.9z"/>
				</g>
				<g class="st11">
					<path class="st0" d="M380.6,298.3c0,0-1.9,11-2.2,12.7c-0.8,4.3-1.4,9.7-1.4,9.7s-0.2,0-0.5,0c0.2-1.8,0.5-3.9,0.9-5.8
						c0.3-1.7,2.2-12.7,2.2-12.7s-7.1-0.6-8.9-0.9c-1.9-0.4-4.1,2.6-5.6,7.1c0-0.2,0.1-0.4,0.1-0.6c1.2-6.2,4-10.8,6.4-10.4
						C373.5,297.7,380.6,298.3,380.6,298.3z"/>
				</g>
				<g class="st6">
					<path class="st3" d="M378.1,313c-0.6,3.8-1,7.7-1,7.7s-8.9-0.8-9.6-1c-2.3-0.4-3.3-5.8-2.1-12c0.4-2.1,1-4,1.7-5.6
						c-0.6,5.3,0.3,9.6,2.4,10C370.1,312.2,375.8,312.8,378.1,313z"/>
				</g>
				<g>
					<path class="st3" d="M377.1,322.6c-0.1,0-0.1,0-0.2,0c-2.1-0.2-9-0.8-9.8-1c-1.1-0.2-3.2-1.2-3.9-5.4c-0.4-2.5-0.3-5.6,0.3-8.8
						c1.2-6.3,4.4-12.7,8.6-11.9c1.3,0.3,6.7,0.7,8.7,0.9c0.5,0,1,0.3,1.4,0.7c0.3,0.4,0.5,1,0.4,1.5c-0.1,0.5-1.9,11.1-2.2,12.7
						l0,0c-0.8,4.2-1.3,9.5-1.3,9.6C378.9,321.8,378.1,322.6,377.1,322.6z M371.4,299.2c-0.7,0.1-3,2.9-4.1,8.8
						c-1.1,5.9,0,9.4,0.6,9.8c0.4,0.1,3.9,0.4,7.5,0.7c0.2-2,0.6-5.2,1.2-8c0,0,0,0,0,0c0.2-1.2,1.3-7.3,1.8-10.6
						C376.1,299.8,372.6,299.5,371.4,299.2z"/>
				</g>
				<g>
					
						<ellipse transform="matrix(0.1878 -0.9822 0.9822 0.1878 3.6901 623.3392)" class="st10" cx="378.7" cy="309.4" rx="11.4" ry="5.8"/>
				</g>
				<g class="st11">
					<path class="st0" d="M384.4,310.5c-0.1,0.4-0.2,0.8-0.3,1.2c0.2-4.8-1.3-8.6-3.9-9.1c-2.9-0.6-6.2,3.4-7.5,8.9
						c0-1,0.2-2.1,0.4-3.1c1.2-6.2,4.7-10.7,7.8-10.1C384,298.9,385.6,304.3,384.4,310.5z"/>
				</g>
				<g class="st6">
					<path class="st3" d="M384.3,311c-1.3,5.9-4.6,10.2-7.7,9.6c-3.1-0.6-4.7-6.1-3.5-12.3c0.6-3.2,1.9-6,3.4-7.8
						c0,0.2-0.1,0.3-0.1,0.5c-1.2,6.2,0.4,11.7,3.5,12.3C381.3,313.6,382.9,312.7,384.3,311z"/>
				</g>
				<g>
					<path class="st3" d="M377.2,322.6c-0.3,0-0.6,0-0.9-0.1c-2.3-0.4-4-2.3-4.8-5.4c-0.7-2.6-0.8-5.8-0.2-9.1
						c0.6-3.3,1.9-6.3,3.5-8.4c1.9-2.5,4.2-3.7,6.5-3.2c2.3,0.4,4,2.3,4.8,5.4c0.7,2.6,0.8,5.8,0.2,9.1
						C384.9,317.8,381.1,322.6,377.2,322.6z M380.3,300.1c-0.7,0-1.7,0.7-2.6,1.8c-1.3,1.7-2.3,4.1-2.8,6.8
						c-0.5,2.7-0.5,5.3,0.1,7.3c0.4,1.5,1.2,2.5,1.9,2.7c1.5,0.3,4.5-2.9,5.5-8.6c0.5-2.7,0.5-5.3-0.1-7.3c-0.4-1.5-1.2-2.5-1.9-2.7
						C380.5,300.1,380.4,300.1,380.3,300.1z"/>
				</g>
			</g>
			<g>
				<path class="st3" d="M341.5,341.2c-0.3,0-0.5,0-0.8-0.1c-1.2-0.4-1.8-1.8-1.4-3l7.2-19.4l-5.5-3.5c-0.8-0.5-1.2-1.5-1-2.5
					l5.6-22.6c0.3-1.2,1.5-2,2.8-1.7c1.2,0.3,2,1.5,1.7,2.8l-5.2,21l5.7,3.6c0.9,0.6,1.3,1.7,0.9,2.7l-7.8,21.1
					C343.3,340.7,342.4,341.2,341.5,341.2z"/>
			</g>
		</g>
	</g>
	<polygon class="st12" points="434.2,332.3 423.7,308.6 408.8,298.1 423.7,287.5 434.2,263.8 444.8,287.5 459.7,298.1 444.8,308.6 	
		"/>
	<polygon class="st12" points="176.4,281.3 169.6,266 160.1,259.3 169.6,252.2 176.4,237 183.2,252.2 192.8,259.3 183.2,266 	"/>
	<polygon class="st12" points="386.8,399.1 382.6,389.6 376.6,385.4 382.6,381.1 386.8,371.6 391,381.1 397,385.4 391,389.6 	"/>
</g>
<g>
	<text transform="matrix(0.9934 0.1144 -0.1144 0.9934 62.4472 215.135)" class="st13 st14 st15">ยอด!</text>
	<text transform="matrix(0.9494 0.314 -0.314 0.9494 94.3474 141.2893)" class="st13 st14 st15">สุด</text>
</g>
</svg>
