<?xml version="1.0" encoding="utf-8"?>
<!-- Generator: Adobe Illustrator 24.2.3, SVG Export Plug-In . SVG Version: 6.00 Build 0)  -->
<svg version="1.1" id="Capa_1" xmlns="http://www.w3.org/2000/svg" xmlns:xlink="http://www.w3.org/1999/xlink" x="0px" y="0px"
	 viewBox="0 0 512 512" style="enable-background:new 0 0 512 512;" xml:space="preserve">
<style type="text/css">
	.st0{fill:#FFCEBF;}
	.st1{fill:#FCAF9D;}
	.st2{fill:#FFE278;}
	.st3{fill:#FF6B6B;}
	.st4{fill:#FF3D7D;}
</style>
<g>
	<path class="st0" d="M379.5,319.2l49.7-50.7c10.1-9.1,10.3-24.8,0.6-34.2c-8.7-8.4-22.4-8.8-31.5-0.9l-97.6,79.4h-21.5
		c11.9,0,21.5-9.6,21.5-21.5c0-11.9-9.6-21.5-21.5-21.5h-43l-2.9-1.5c-35.9-17.9-79.4-8.4-104.5,22.9v43l118.1,10.7l115.5-10.7
		C368.4,329.7,374.2,324.7,379.5,319.2z"/>
	<path class="st1" d="M128.8,334.3v64.4c27.9-20.9,61.8-32.2,96.7-32.2h41.7c34.7,0,68.1-11.5,95.3-32.2H128.8z"/>
	<path class="st1" d="M279.1,259.2h-40.4c-0.9-0.3-27.9-16.2-64.1-8.2c-21.3,4.7-40.6,16.7-54.3,33.7l1.8,1.5l-10.9,13.5l14.9,12
		l11-13.6c21.7-27.2,60.1-35.6,91.3-20l5.2,2.6h45.5c5.9,0,10.7,4.8,10.7,10.7c0,5.9-4.8,10.7-10.7,10.7h-58.7v21.5h58.7
		c17.8,0,32.2-14.5,32.2-32.2C311.3,273.6,296.9,259.2,279.1,259.2z"/>
	<path class="st2" d="M338.1,227l-33.8-15.5c-2.5-1.1-5.3-1.1-7.8,0L262.6,227c-6.6,3-14-2.3-13.2-9.6l4.3-37
		c0.3-2.7-0.6-5.4-2.4-7.4l-25.2-27.4c-4.9-5.4-2.1-14.1,5-15.5l36.5-7.4c2.7-0.5,5-2.2,6.3-4.6l18.3-32.4c3.6-6.4,12.7-6.4,16.3,0
		l18.3,32.4c1.3,2.4,3.6,4,6.3,4.6l36.5,7.4c7.1,1.4,10,10.1,5,15.5L349.4,173c-1.8,2-2.7,4.7-2.4,7.4l4.3,37
		C352.1,224.7,344.7,230,338.1,227z"/>
	<path class="st3" d="M128.8,237.7H75.1v96.7l21.5,10.7l32.2-10.7V237.7z"/>
	<path class="st4" d="M75.1,334.3h53.7V431H75.1V334.3z"/>
</g>
</svg>
