<?xml version="1.0" encoding="utf-8"?>
<!-- Generator: Adobe Illustrator 24.2.3, SVG Export Plug-In . SVG Version: 6.00 Build 0)  -->
<svg version="1.1" id="Capa_1" xmlns="http://www.w3.org/2000/svg" xmlns:xlink="http://www.w3.org/1999/xlink" x="0px" y="0px"
	 viewBox="0 0 512 512" style="enable-background:new 0 0 512 512;" xml:space="preserve">
<style type="text/css">
	.st0{fill:#FFD93B;}
	.st1{fill:#3E4347;}
	.st2{fill:#F4C534;}
	.st3{fill:#FFFFFF;}
	.st4{fill:#E24B4B;}
	.st5{opacity:0.2;}
</style>
<g>
	<circle class="st0" cx="256" cy="256" r="175"/>
	<path id="SVGCleanerId_0" class="st1" d="M366.9,312.6c-17.6,44-60.6,75.1-110.9,75.1c-50.3,0-93.3-31.1-110.9-75.1
		c-2.5-6.2,1.9-13,8.6-13h204.6C365,299.6,369.3,306.4,366.9,312.6z"/>
	<g>
		<path id="SVGCleanerId_0_1_" class="st1" d="M366.9,312.6c-17.6,44-60.6,75.1-110.9,75.1c-50.3,0-93.3-31.1-110.9-75.1
			c-2.5-6.2,1.9-13,8.6-13h204.6C365,299.6,369.3,306.4,366.9,312.6z"/>
	</g>
	<path class="st2" d="M431,256c0,96.7-78.4,175-175,175c-55,0-104.1-25.4-136.2-65.1c30,24.3,68.2,38.8,109.9,38.8
		c96.6,0,175-78.3,175-175c0-41.6-14.5-79.8-38.8-109.9C405.6,151.9,431,201,431,256z"/>
	<g>
		<path class="st1" d="M160.7,250.4c-2.1-4-0.5-9,3.6-11l40-20.4l-31.7-16.2c-4-2.1-5.6-7-3.6-11c2.1-4,7-5.6,11-3.6l46,23.5
			c2.7,1.4,4.5,4.2,4.5,7.3s-1.7,5.9-4.5,7.3l-54.3,27.7C167.7,256,162.8,254.3,160.7,250.4z"/>
		<path class="st1" d="M340.2,253.9l-54.3-27.7c-2.7-1.4-4.5-4.2-4.5-7.3s1.7-5.9,4.5-7.3l46-23.5c4-2.1,9-0.5,11,3.6s0.5,9-3.6,11
			l-31.7,16.2l40,20.4c4,2.1,5.6,7,3.6,11C349.2,254.4,344.2,256,340.2,253.9z"/>
	</g>
	<path class="st3" d="M349.5,314.7l-0.3,0.5c-5.3,10.8-15.9,17.9-27.9,18.8c-43.6,3.5-87.1,3.4-130.7-0.2c-12-1-22.7-8.1-28-19
		l-0.1-0.2L349.5,314.7L349.5,314.7z"/>
	<path class="st4" d="M260.7,355.1c-4.6,2.3-10.1,3.6-16.4,3.6c-1.2,0-2.5-0.1-3.6-0.2c-7.8-0.7-15.8,2-20.3,8.5
		c-2.7,3.9-4.8,8.3-6.2,13c13,4.9,27.1,7.6,41.8,7.6c14.9,0,29.2-2.8,42.4-7.8c-2.5-8.6-7.5-16.1-14.3-21.6
		C277.5,352.9,268.3,351.4,260.7,355.1z"/>
	<g class="st5">
		
			<ellipse transform="matrix(0.6347 -0.7727 0.7727 0.6347 -180.6151 346.7818)" class="st3" cx="276.5" cy="364.4" rx="4" ry="6.9"/>
	</g>
</g>
</svg>
