<?xml version="1.0" encoding="utf-8"?>
<!-- Generator: Adobe Illustrator 24.2.3, SVG Export Plug-In . SVG Version: 6.00 Build 0)  -->
<svg version="1.1" id="Capa_1" xmlns="http://www.w3.org/2000/svg" xmlns:xlink="http://www.w3.org/1999/xlink" x="0px" y="0px"
	 viewBox="0 0 512 512" style="enable-background:new 0 0 512 512;" xml:space="preserve">
<style type="text/css">
	.st0{fill:#FFD93B;}
	.st1{fill:#F4C534;}
	.st2{opacity:0.3;}
	.st3{fill:#FFFFFF;}
	.st4{fill:#3E4347;}
	.st5{fill:#5A5F63;}
	.st6{fill:#65B1EF;}
	.st7{fill:#59A5E0;}
</style>
<g>
	<circle class="st0" cx="256" cy="256" r="175"/>
	<path class="st1" d="M431,256c0,96.7-78.4,175-175,175c-55,0-104.1-25.4-136.2-65.1c30,24.3,68.2,38.8,109.9,38.8
		c96.6,0,175-78.3,175-175c0-41.6-14.5-79.8-38.8-109.9C405.6,151.9,431,201,431,256z"/>
	<g class="st2">
		<path class="st3" d="M116,226.2c-3.3-0.9-5.3-4.3-4.4-7.6c13.3-50,52.3-90.4,101.8-105.6c3.3-1,6.7,0.8,7.7,4.1
			c1,3.3-0.8,6.7-4.1,7.7c-45.4,13.9-81.2,51.1-93.4,96.9C122.7,225.2,119.3,227.1,116,226.2z"/>
	</g>
	<path class="st4" d="M321.4,358.2c-8.2,6.2-31.8-21.7-65.6-20.5c-33.9-1.2-56.9,26.7-65.1,20.5c-9.6-5.4,6-58.1,65.4-58.3
		C315.4,300.1,331,352.8,321.4,358.2z"/>
	<path class="st3" d="M242.4,222.1c-2.5,20.2-16.7,38-36.1,44.7c-31.5,10.9-62.7-7.3-71.2-36.1c-1.3-4.3,1.2-8.6,5.6-9.8
		c31.2-8,54.8-25,70.9-46.8c2.7-3.5,7.8-4.3,11.1-1.4C236.4,183.7,244.8,201.6,242.4,222.1z"/>
	<ellipse class="st4" cx="192.4" cy="232.7" rx="23.3" ry="23.3"/>
	<path class="st5" d="M207.1,228.9c-1.8,1.6-5.6,0.4-8.5-2.5s-4-6.7-2.3-8.3c1.6-1.6,5.4-0.7,8.3,2.4
		C207.6,223.4,208.8,227.2,207.1,228.9z"/>
	<path class="st6" d="M206.3,266.8c9.9-3.4,18.5-9.8,24.9-17.9c-4.1-2.2-6.5-5.5-13.8-5.5c-10.9,0-10.9,7.4-21.8,7.4
		c-10.9,0-10.9-7.4-21.8-7.4c-10.9,0-10.9,7.4-21.8,7.4c-3.1,0-5.2-0.6-7.1-1.5C158.6,266.5,182.3,275,206.3,266.8z"/>
	<path class="st7" d="M212.7,243.8c-0.9,2-2.2,3.7-3.8,5.4c-9.1,9.1-23.8,9.1-33,0c-1.7-1.8-3.1-3.7-4-5.8c0.7-0.1,1.3-0.1,2-0.1
		c10.8,0,10.8,7.4,21.8,7.4C204.6,250.7,206.1,245.6,212.7,243.8z"/>
	<path class="st4" d="M146.1,198.8c14.6-7.6,26.1-18.6,37-29.3c4.1-3.8,29-29.5,33.7-33.1l1.4,0.8c-2.5,16.5-13,31.8-26.4,42.2
		c-12.9,10.6-34.1,19.2-45.1,21L146.1,198.8z"/>
	<path class="st7" d="M171.7,322.2c0-10.2-18.5-43-18.5-43s-18.5,32.8-18.5,43c0,10.2,8.3,18.5,18.5,18.5
		C163.5,340.7,171.7,332.4,171.7,322.2z"/>
	<path class="st3" d="M269.6,222.1c2.5,20.2,16.7,38,36.1,44.7c31.5,10.9,62.7-7.3,71.2-36.1c1.3-4.3-1.2-8.6-5.6-9.8
		c-31.2-8-54.8-25-70.9-46.8c-2.7-3.5-7.8-4.3-11.1-1.4C275.6,183.7,267.2,201.6,269.6,222.1z"/>
	<ellipse class="st4" cx="319.6" cy="232.7" rx="23.3" ry="23.3"/>
	<path class="st5" d="M304.9,228.9c1.7,1.6,5.6,0.4,8.5-2.5s4-6.7,2.3-8.3c-1.6-1.6-5.4-0.7-8.3,2.4
		C304.4,223.4,303.2,227.2,304.9,228.9z"/>
	<path class="st6" d="M305.7,266.8c-9.9-3.4-18.5-9.8-24.9-17.9c4.1-2.2,6.5-5.5,13.8-5.5c10.9,0,10.9,7.4,21.8,7.4
		c10.9,0,10.9-7.4,21.8-7.4c10.9,0,10.9,7.4,21.8,7.4c3.1,0,5.2-0.6,7.1-1.5C353.4,266.5,329.7,275,305.7,266.8z"/>
	<path class="st7" d="M299.3,243.8c0.9,2,2.2,3.7,3.8,5.4c9.1,9.1,23.8,9.1,33,0c1.8-1.8,3.1-3.7,4-5.8c-0.7-0.1-1.3-0.1-2-0.1
		c-10.8,0-10.8,7.4-21.8,7.4C307.4,250.7,305.9,245.6,299.3,243.8z"/>
	<path class="st4" d="M365.9,198.8c-14.6-7.6-26.1-18.6-37-29.3c-4.1-3.8-29-29.5-33.7-33.1l-1.4,0.8c2.5,16.5,13,31.8,26.4,42.2
		c12.9,10.6,34.1,19.2,45.1,21L365.9,198.8z"/>
	<path class="st7" d="M340.3,322.2c0-10.2,18.5-43,18.5-43s18.5,32.8,18.5,43c0,10.2-8.3,18.5-18.5,18.5
		C348.5,340.7,340.3,332.4,340.3,322.2z"/>
</g>
</svg>
