<?xml version="1.0" encoding="utf-8"?>
<!-- Generator: Adobe Illustrator 24.2.3, SVG Export Plug-In . SVG Version: 6.00 Build 0)  -->
<svg version="1.1" id="Capa_1" xmlns="http://www.w3.org/2000/svg" xmlns:xlink="http://www.w3.org/1999/xlink" x="0px" y="0px"
	 viewBox="0 0 512 512" style="enable-background:new 0 0 512 512;" xml:space="preserve">
<style type="text/css">
	.st0{fill:#0277BD;}
	.st1{fill:#01579B;}
	.st2{fill:#ECEFF1;}
	.st3{fill:#333333;}
</style>
<g>
	<rect x="81" y="240.8" class="st0" width="106.5" height="182.6"/>
	<path class="st1" d="M187.5,431H81c-4.2,0-7.6-3.4-7.6-7.6V240.8c0-4.2,3.4-7.6,7.6-7.6h106.5c4.2,0,7.6,3.4,7.6,7.6v182.6
		C195.1,427.6,191.7,431,187.5,431z M88.6,415.8h91.3V248.4H88.6C88.6,248.4,88.6,415.8,88.6,415.8z"/>
	<path class="st2" d="M187.5,393c13.3,9.7,29.2,15,45.7,15.2h140.8c14.7,0.1,26.6-11.8,26.7-26.5c0-7.4-3-14.4-8.4-19.5
		c14.5-1.6,25-14.6,23.5-29.2c-0.7-6.3-3.6-12.2-8.2-16.5c14.5-1.6,25.1-14.6,23.5-29.1c-1-8.9-6.4-16.8-14.4-20.8
		c14.3-8.9,18.7-27.6,9.8-41.9c-5.5-8.9-15.3-14.4-25.8-14.4H294c8.4-22,13.5-45,15.2-68.5c0-28.5-24.7-53.3-38-53.3
		c-8.2,0.1-16.2,2.8-22.8,7.6v53.3l-45.7,98.9l-15.2,7.6V393z"/>
	<path class="st1" d="M373.9,415.8H233.2c-18.4-0.1-36.4-6.3-51-17.4c-1.4-1.4-2.2-3.4-2.2-5.4V256c0-2.9,1.6-5.5,4.2-6.8l12.8-6.4
		l43.8-95V96.2c0-2.3,1-4.5,2.8-5.9c8-5.9,17.7-9.1,27.6-9.3c17.6,0,45.7,27.9,45.7,60.9c-1.1,20.8-5.2,41.3-12.2,60.9h95.9
		c21,0,38,17,38,38c0,9.4-3.5,18.5-9.9,25.5c13.2,13.3,13.2,34.9-0.2,48.1c-2.6,2.5-5.5,4.7-8.7,6.3c2.4,4.7,3.6,9.9,3.6,15.2
		c0,12.9-7.3,24.7-18.8,30.4c2.4,4.7,3.6,9.9,3.6,15.2C408.1,400.5,392.8,415.8,373.9,415.8z M195.1,389.5
		c11.5,6.9,24.6,10.7,38,11.1h140.8c10.5,0,19-8.5,19-19c0-5.2-2.2-10.2-6-13.8c-3.1-2.9-3.2-7.7-0.3-10.8c1.2-1.3,2.9-2.1,4.7-2.3
		c10.4-1.1,17.9-10.4,16.8-20.7c-0.5-4.5-2.6-8.7-5.9-11.8c-3.1-2.9-3.2-7.7-0.3-10.8c1.2-1.3,2.9-2.1,4.7-2.3
		c10.4-1.1,17.9-10.4,16.8-20.7c-0.7-6.4-4.6-12-10.3-14.9c-3.7-1.9-5.2-6.5-3.3-10.3c0.6-1.2,1.6-2.3,2.8-3
		c10.7-6.7,14-20.7,7.3-31.4c-4.1-6.6-11.4-10.7-19.2-10.8H294c-4.2,0-7.6-3.4-7.6-7.6c0-0.9,0.2-1.8,0.5-2.7
		c8-21.1,13-43.3,14.7-65.8c0-24.9-22.1-45.7-30.4-45.7c-5.3,0.1-10.6,1.5-15.2,4.1v49.1c0,1.1-0.2,2.2-0.7,3.2l-45.7,98.9
		c-0.7,1.6-2,2.8-3.5,3.6l-11,5.5L195.1,389.5L195.1,389.5z"/>
	<path class="st3" d="M187.5,431H81c-4.2,0-7.6-3.4-7.6-7.6V240.8c0-4.2,3.4-7.6,7.6-7.6h106.5c4.2,0,7.6,3.4,7.6,7.6v182.6
		C195.1,427.6,191.7,431,187.5,431z M88.6,415.8h91.3V248.4H88.6C88.6,248.4,88.6,415.8,88.6,415.8z"/>
	<path class="st3" d="M373.9,415.8H233.2c-18.4-0.1-36.4-6.3-51-17.4c-2.9-3-2.8-7.8,0.2-10.8c2.9-2.8,7.6-2.8,10.6,0
		c11.8,8.3,25.9,12.8,40.3,13h140.8c10.5,0,19-8.5,19-19c0-5.2-2.2-10.2-6-13.8c-3.1-2.9-3.2-7.7-0.3-10.8c1.2-1.3,2.9-2.1,4.7-2.3
		c10.4-1.1,17.9-10.4,16.8-20.7c-0.5-4.5-2.6-8.7-5.9-11.8c-3.1-2.9-3.2-7.7-0.3-10.8c1.2-1.3,2.9-2.1,4.7-2.3
		c10.4-1.1,17.9-10.4,16.8-20.7c-0.7-6.4-4.6-12-10.3-14.9c-3.7-1.9-5.2-6.5-3.3-10.3c0.6-1.2,1.6-2.3,2.8-3
		c10.7-6.7,14-20.7,7.3-31.4c-4.1-6.6-11.4-10.7-19.2-10.8H294c-4.2,0-7.6-3.4-7.6-7.6c0-0.9,0.2-1.8,0.5-2.7
		c8-21.1,13-43.3,14.7-65.8c0-24.9-22.1-45.7-30.4-45.7c-5.3,0.1-10.6,1.5-15.2,4.1v49.1c0,1.1-0.2,2.2-0.7,3.2l-45.7,98.9
		c-0.7,1.6-2,2.8-3.5,3.6l-15.2,7.6c-3.8,1.9-8.3,0.4-10.2-3.4c-1.9-3.8-0.4-8.3,3.4-10.2l12.8-6.4l43.8-94.9V96.2
		c0-2.3,1.1-4.5,2.9-5.9c8-5.9,17.6-9.1,27.6-9.3c17.6,0,45.7,27.9,45.7,60.9c-1.1,20.8-5.2,41.3-12.2,60.9h95.9c21,0,38,17,38,38
		c0,9.4-3.5,18.5-9.9,25.5c13.2,13.3,13.2,34.9-0.2,48.1c-2.6,2.5-5.5,4.7-8.7,6.3c8.4,16.8,1.6,37.2-15.2,45.7
		c2.4,4.7,3.6,9.9,3.6,15.2C408.1,400.5,392.8,415.8,373.9,415.8z"/>
</g>
</svg>
