<?xml version="1.0" encoding="utf-8"?>
<!-- Generator: Adobe Illustrator 24.2.3, SVG Export Plug-In . SVG Version: 6.00 Build 0)  -->
<svg version="1.1" id="Capa_1" xmlns="http://www.w3.org/2000/svg" xmlns:xlink="http://www.w3.org/1999/xlink" x="0px" y="0px"
	 viewBox="0 0 512 512" style="enable-background:new 0 0 512 512;" xml:space="preserve">
<style type="text/css">
	.st0{fill:#0277BD;}
	.st1{fill:#01579B;}
	.st2{fill:#ECEFF1;}
	.st3{fill:#333333;}
</style>
<g>
	<rect x="324.5" y="88.6" class="st0" width="106.5" height="182.6"/>
	<path class="st1" d="M324.5,81H431c4.2,0,7.6,3.4,7.6,7.6v182.6c0,4.2-3.4,7.6-7.6,7.6H324.5c-4.2,0-7.6-3.4-7.6-7.6V88.6
		C316.9,84.4,320.3,81,324.5,81z M423.4,96.2h-91.3v167.4h91.3V96.2z"/>
	<path class="st2" d="M324.5,119c-13.3-9.7-29.2-15-45.7-15.2H138c-14.7-0.1-26.6,11.8-26.7,26.5c0,7.4,3,14.4,8.4,19.5
		c-14.5,1.6-25,14.6-23.5,29.2c0.7,6.3,3.6,12.2,8.2,16.5c-14.5,1.6-25.1,14.6-23.5,29.1c1,8.9,6.4,16.8,14.4,20.8
		c-14.3,8.9-18.7,27.6-9.8,41.9c5.5,8.9,15.3,14.4,25.8,14.4H218c-8.4,22-13.5,45-15.2,68.5c0,28.5,24.7,53.3,38,53.3
		c8.2-0.1,16.2-2.8,22.8-7.6v-53.3l45.7-98.9l15.2-7.6V119L324.5,119z"/>
	<path class="st1" d="M138.1,96.2h140.7c18.4,0.1,36.4,6.3,51,17.4c1.4,1.4,2.2,3.4,2.2,5.4v137c0,2.9-1.6,5.5-4.2,6.8l-12.8,6.4
		l-43.8,95v51.6c0,2.3-1,4.5-2.8,5.9c-8,5.9-17.7,9.1-27.6,9.3c-17.6,0-45.7-27.9-45.7-60.9c1.1-20.8,5.2-41.3,12.2-60.9h-95.9
		c-21,0-38-17-38-38c0-9.4,3.5-18.5,9.9-25.5c-13.2-13.3-13.2-34.9,0.2-48.1c2.6-2.5,5.5-4.7,8.7-6.3c-2.4-4.7-3.6-9.9-3.6-15.2
		c0-12.9,7.3-24.7,18.8-30.4c-2.4-4.7-3.6-9.9-3.6-15.2C103.9,111.5,119.2,96.2,138.1,96.2z M316.9,122.5
		c-11.5-6.9-24.6-10.7-38-11.1H138.1c-10.5,0-19,8.5-19,19c0,5.2,2.2,10.2,6,13.8c3.1,2.9,3.2,7.7,0.3,10.8
		c-1.2,1.3-2.9,2.1-4.7,2.3c-10.4,1.1-17.9,10.4-16.8,20.7c0.5,4.5,2.6,8.7,5.9,11.8c3.1,2.9,3.2,7.7,0.3,10.8
		c-1.2,1.3-2.9,2.1-4.7,2.3C95,204,87.5,213.3,88.6,223.6c0.7,6.4,4.6,12,10.3,14.9c3.7,1.9,5.2,6.5,3.3,10.3
		c-0.6,1.2-1.6,2.3-2.8,3c-10.7,6.7-14,20.7-7.3,31.4c4.1,6.6,11.4,10.7,19.2,10.8H218c4.2,0,7.6,3.4,7.6,7.6c0,0.9-0.2,1.8-0.5,2.7
		c-8,21.1-13,43.3-14.7,65.8c0,24.9,22.1,45.7,30.4,45.7c5.3-0.1,10.6-1.5,15.2-4.1v-49.1c0-1.1,0.2-2.2,0.7-3.2l45.7-98.9
		c0.7-1.6,2-2.8,3.5-3.6l11-5.5V122.5L316.9,122.5z"/>
	<path class="st3" d="M324.5,81H431c4.2,0,7.6,3.4,7.6,7.6v182.6c0,4.2-3.4,7.6-7.6,7.6H324.5c-4.2,0-7.6-3.4-7.6-7.6V88.6
		C316.9,84.4,320.3,81,324.5,81z M423.4,96.2h-91.3v167.4h91.3V96.2z"/>
	<path class="st3" d="M138.1,96.2h140.7c18.4,0.1,36.4,6.3,51,17.4c2.9,3,2.8,7.8-0.2,10.8c-2.9,2.8-7.6,2.8-10.6,0
		c-11.8-8.3-25.9-12.8-40.3-13H137.9c-10.5,0-19,8.5-19,19c0,5.2,2.2,10.2,6,13.8c3.1,2.9,3.2,7.7,0.3,10.8
		c-1.2,1.3-2.9,2.1-4.7,2.3c-10.4,1.1-17.9,10.4-16.8,20.7c0.5,4.5,2.6,8.7,5.9,11.8c3.1,2.9,3.2,7.7,0.3,10.8
		c-1.2,1.3-2.9,2.1-4.7,2.3c-10.4,1.1-17.9,10.4-16.8,20.7c0.7,6.4,4.6,12,10.3,14.9c3.7,1.9,5.2,6.5,3.3,10.3
		c-0.6,1.2-1.6,2.3-2.8,3c-10.7,6.7-14,20.7-7.3,31.4c4.1,6.6,11.4,10.7,19.2,10.8H218c4.2,0,7.6,3.4,7.6,7.6c0,0.9-0.2,1.8-0.5,2.7
		c-8,21.1-13,43.3-14.7,65.8c0,24.9,22.1,45.7,30.4,45.7c5.3-0.1,10.6-1.5,15.2-4.1v-49.1c0-1.1,0.2-2.2,0.7-3.2l45.7-98.9
		c0.7-1.6,2-2.8,3.5-3.6l15.2-7.6c3.8-1.9,8.3-0.4,10.2,3.4s0.4,8.3-3.4,10.2l-12.8,6.4l-43.8,94.9v51.6c0,2.3-1.1,4.5-2.9,5.9
		c-8,5.9-17.6,9.1-27.6,9.3c-17.6,0-45.7-27.9-45.7-60.9c1.1-20.8,5.2-41.3,12.2-60.9h-95.9c-21,0-38-17-38-38
		c0-9.4,3.5-18.5,9.9-25.5c-13.2-13.3-13.2-34.9,0.2-48.1c2.6-2.5,5.5-4.7,8.7-6.3c-8.4-16.8-1.6-37.2,15.2-45.7
		c-2.4-4.7-3.6-9.9-3.6-15.2C103.9,111.5,119.2,96.2,138.1,96.2z"/>
</g>
</svg>
