<?xml version="1.0" encoding="utf-8"?>
<!-- Generator: Adobe Illustrator 24.2.3, SVG Export Plug-In . SVG Version: 6.00 Build 0)  -->
<svg version="1.1" id="Layer_1" xmlns="http://www.w3.org/2000/svg" xmlns:xlink="http://www.w3.org/1999/xlink" x="0px" y="0px"
	 viewBox="0 0 800 600" style="enable-background:new 0 0 800 600;" xml:space="preserve">
<style type="text/css">
	.st0{fill:url(#SVGID_2_);}
	.st1{fill:#FFD066;}
	.st2{fill:#AF8D5E;}
	.st3{clip-path:url(#SVGID_6_);}
	.st4{opacity:0.47;}
	.st5{fill:#EEBA71;}
	.st6{opacity:0.45;fill:#FFFFFF;}
	.st7{fill:#F19B50;}
	.st8{clip-path:url(#SVGID_12_);}
	.st9{opacity:0.64;}
	.st10{fill:#FFA969;}
	.st11{fill:#FAFBFB;}
	.st12{fill:#E0E0E0;}
	.st13{fill:#BDBDBD;}
	.st14{fill:#F5F5F5;}
	.st15{opacity:0.1;fill:#212121;}
	.st16{opacity:0.5;fill:url(#SVGID_14_);}
</style>
<radialGradient id="SVGID_2_" cx="960.3575" cy="-66.9667" r="658.1427" gradientTransform="matrix(0.8803 0 0 0.9936 0 -1.285387e-02)" gradientUnits="userSpaceOnUse">
	<stop  offset="6.800000e-07" style="stop-color:#00B7FF"/>
	<stop  offset="0.2093" style="stop-color:#0086BE"/>
	<stop  offset="0.4105" style="stop-color:#005D86"/>
	<stop  offset="0.5956" style="stop-color:#003C5B"/>
	<stop  offset="0.7613" style="stop-color:#00253D"/>
	<stop  offset="0.9017" style="stop-color:#00172A"/>
	<stop  offset="1" style="stop-color:#001223"/>
</radialGradient>
<rect y="-2" class="st0" width="800" height="602"/>
<g id="stars">
	<circle class="st1" cx="251" cy="173.2" r="1.2"/>
	<circle class="st1" cx="194.4" cy="376" r="1.2"/>
	<circle class="st1" cx="199.6" cy="73.7" r="1.2"/>
	<circle class="st1" cx="62.7" cy="329.2" r="1.2"/>
	<circle class="st1" cx="522.8" cy="224.7" r="1.2"/>
	<circle class="st1" cx="586.5" cy="249.9" r="1.2"/>
	<circle class="st1" cx="294.8" cy="210.5" r="1.2"/>
	<circle class="st1" cx="58.3" cy="202.4" r="1.2"/>
	<circle class="st1" cx="115.5" cy="408.4" r="1.2"/>
	<circle class="st1" cx="553.8" cy="179.2" r="1.2"/>
	<circle class="st1" cx="418.4" cy="248.7" r="1.2"/>
	<circle class="st1" cx="755.7" cy="123.4" r="1.2"/>
	<circle class="st1" cx="675" cy="135.1" r="1.2"/>
	<circle class="st1" cx="400" cy="362.2" r="1.2"/>
	<circle class="st1" cx="613.6" cy="324.2" r="1.2"/>
	<circle class="st1" cx="556.1" cy="493.3" r="1.2"/>
	<circle class="st1" cx="513.7" cy="374.8" r="1.2"/>
	<circle class="st1" cx="675" cy="377.2" r="1.2"/>
	<circle class="st1" cx="283.5" cy="535.2" r="1.2"/>
	<circle class="st1" cx="116.7" cy="232.6" r="1.2"/>
	<circle class="st1" cx="252.2" cy="340.5" r="1.2"/>
	<circle class="st1" cx="488.8" cy="114.9" r="1.2"/>
	<circle class="st1" cx="725.1" cy="275.6" r="1.2"/>
	<circle class="st1" cx="349" cy="393.3" r="1.2"/>
	<circle class="st1" cx="440.4" cy="452.3" r="1.2"/>
	<circle class="st1" cx="413.3" cy="547.3" r="1.2"/>
	<circle class="st1" cx="393.3" cy="189.5" r="1.2"/>
	<circle class="st1" cx="373.2" cy="50.3" r="1.2"/>
	<circle class="st1" cx="591" cy="78.4" r="1.2"/>
</g>
<g id="brightstars">
	<polygon class="st1" points="563.1,326.7 560.7,321.3 557.3,318.9 560.7,316.5 563.1,311.1 565.5,316.5 568.9,318.9 565.5,321.3 	
		"/>
	<polygon class="st1" points="701.9,103.5 699.5,98.1 696.1,95.7 699.5,93.3 701.9,87.9 704.3,93.3 707.7,95.7 704.3,98.1 	"/>
	<polygon class="st1" points="733.1,62.9 730.7,57.5 727.2,55.1 730.7,52.7 733.1,47.2 735.5,52.7 738.9,55.1 735.5,57.5 	"/>
	<polygon class="st1" points="85.3,284 82.9,278.6 79.5,276.2 82.9,273.8 85.3,268.4 87.7,273.8 91.1,276.2 87.7,278.6 	"/>
	<polygon class="st1" points="227.9,206.2 225.5,200.8 222.1,198.4 225.5,195.9 227.9,190.5 230.3,195.9 233.7,198.4 230.3,200.8 	
		"/>
	<polygon class="st1" points="223.6,58.1 221.2,52.7 217.8,50.3 221.2,47.9 223.6,42.5 226,47.9 229.5,50.3 226,52.7 	"/>
	<polygon class="st1" points="370,510 367.6,504.6 364.2,502.2 367.6,499.8 370,494.4 372.4,499.8 375.8,502.2 372.4,504.6 	"/>
	<polygon class="st1" points="540.1,280.7 537.7,275.3 534.3,272.9 537.7,270.5 540.1,265.1 542.5,270.5 545.9,272.9 542.5,275.3 	
		"/>
</g>
<g>
	<g>
		<g>
			<g>
				<defs>
					<path id="SVGID_1_" d="M142.4,107.9c7.6-2.2,15.5,2.2,17.7,9.7c2.2,7.6-2.2,15.5-9.7,17.7c-7.6,2.2-15.5-2.2-17.7-9.7
						C130.5,118,134.8,110.1,142.4,107.9z"/>
				</defs>
				<clipPath id="SVGID_4_">
					<use xlink:href="#SVGID_1_"  style="overflow:visible;"/>
				</clipPath>
			</g>
		</g>
		<g>
			<g>
				<path class="st2" d="M142.4,107.9c7.6-2.2,15.5,2.2,17.7,9.7c2.2,7.6-2.2,15.5-9.7,17.7c-7.6,2.2-15.5-2.2-17.7-9.7
					C130.5,118,134.8,110.1,142.4,107.9z"/>
			</g>
			<g>
				<defs>
					<path id="SVGID_3_" d="M142.4,107.9c7.6-2.2,15.5,2.2,17.7,9.7c2.2,7.6-2.2,15.5-9.7,17.7c-7.6,2.2-15.5-2.2-17.7-9.7
						C130.5,118,134.8,110.1,142.4,107.9z"/>
				</defs>
				<clipPath id="SVGID_6_">
					<use xlink:href="#SVGID_3_"  style="overflow:visible;"/>
				</clipPath>
				<g class="st3">
					<g class="st4">
						<path class="st5" d="M152.9,131.1c2-0.5,4.2-0.9,6.3-0.7c0.5,1.5-0.2,3.2-1.4,4.3s-2.7,1.7-4.2,2.2c-2.5,0.8-12.6,3.6-12.9-1
							c-0.2-2.4,2.2-2.3,4-2.7C147.5,132.7,150.2,131.8,152.9,131.1z"/>
					</g>
					<g class="st4">
						<path class="st5" d="M163.3,121.3c0.2-0.1,0.4-0.2,0.5-0.3c0.2-0.3,0-0.6-0.1-0.9c-0.4-0.8-0.8-1.6-1.3-2.4
							c-0.1-0.2-0.2-0.4-0.4-0.5c-0.2-0.1-0.4,0-0.5,0.1c-4.1,1.8-8.2,3.6-12.4,5.4c-3.7,1.6-7.5,3.3-11.2,5
							c-1.3,0.6-6.6,2.2-3.1,3.2c2.7,0.7,6-1.3,8.4-2.2C149.8,126.3,156.6,123.8,163.3,121.3z"/>
					</g>
					<g class="st4">
						<path class="st5" d="M162.3,113.8c-0.1-1.3-1-2.5-2.1-3.2c-1.1-0.7-2.4-1.1-3.7-1.5c-0.4-0.1-0.8-0.2-1.3-0.2
							c-0.5,0-1,0.3-1.4,0.5c-6.9,3.5-13.9,6.6-21.2,9.2c-1.5,0.5-5.4,1.9-4.5,4.2c0.7,1.6,3.8,1.4,5.1,1.1c2.9-0.7,5.7-2.5,8.4-3.6
							c3.1-1.3,6.3-2.4,9.5-3.4C154.8,115.6,158.5,114.6,162.3,113.8z"/>
					</g>
					<g class="st4">
						<path class="st5" d="M143.2,110.4c1.1-0.4,2.2-0.8,3.3-1.2c2.4-0.9,4.7-2.1,6.9-3.3c-0.9-0.6-2-0.6-3.1-0.6
							c-2.4,0-4.9,0-7.3,0c-1.2,0-2.3,0-3.5,0.3c-2.2,0.5-4,2-5.4,3.7c-1.1,1.4-5.8,8-1.2,6.7C136.7,114.9,139.7,111.9,143.2,110.4z
							"/>
					</g>
					<g>
						<path class="st5" d="M162.9,123.1c-7.2,1-13.2,5.4-19.9,7.9c-1.1,0.4-4.5,0.7-5.2,1.4c-1.4,1.5,1.9,0.7,2.6,0.5
							c3.8-1,7.5-2.2,11.1-3.7c2-0.9,4-1.8,5.9-2.8C158.9,125.6,161.4,123.3,162.9,123.1z"/>
					</g>
					<g>
						<path class="st5" d="M140,123.9c7.2-3,15.2-4.2,21.7-8.6c0.2-0.1,0.3-0.2,0.4-0.4c0.1-0.2,0.1-0.5,0.1-0.7
							c0-0.6,0.2-1.2,0.5-1.7c-1.9-0.6-3.9,0-5.8,0.7c-9.3,3.2-18.4,7-27.2,11.3c-0.2,0.1-0.5,0.2-0.6,0.5c-0.6,1,1.1,1.8,1.7,2.2
							c1.2,0.7,1.1,0.8,2.5,0C135.5,126.1,137.6,124.9,140,123.9z"/>
					</g>
					<g>
						<path class="st5" d="M143.3,114.3c3.7-1.4,7.6-3.1,10-6.3c-1.3-0.3-2.6,0.2-3.8,0.6c-3.9,1.5-7.9,2.9-11.8,4.4
							c-1.2,0.5-10.7,3.3-6.1,4.6C135.1,118.6,140.2,115.6,143.3,114.3z"/>
					</g>
				</g>
			</g>
		</g>
		<g>
			<g>
				<defs>
					<path id="SVGID_5_" d="M142.4,107.9c7.6-2.2,15.5,2.2,17.7,9.7c2.2,7.6-2.2,15.5-9.7,17.7c-7.6,2.2-15.5-2.2-17.7-9.7
						C130.5,118,134.8,110.1,142.4,107.9z"/>
				</defs>
				<clipPath id="SVGID_8_">
					<use xlink:href="#SVGID_5_"  style="overflow:visible;"/>
				</clipPath>
			</g>
		</g>
	</g>
	<g>
		<path class="st6" d="M155.4,110.5c0.2,0.2,0.4,0.4,0.6,0.6c6.1-2.1,10.5-2.7,11.1-1.3c0.7,1.3-2.2,4.2-7.2,7.5
			c-3.3,2.2-7.5,4.6-12.3,7c-4.7,2.3-9.2,4.2-13,5.4c-5.7,1.9-9.7,2.4-10.4,1.1c-0.7-1.4,2.5-4.5,7.9-8c0-0.3,0-0.6-0.1-0.8
			c-9.5,5.9-15.3,11.6-14,14.3c1.3,2.7,9.8,1.5,20.6-2.6c3.5-1.3,7.3-3,11.2-4.9c3.9-1.9,7.5-3.9,10.7-5.8c9.9-6.1,16-12,14.7-14.7
			C173.9,105.5,165.8,106.7,155.4,110.5z"/>
	</g>
</g>
<g>
	<g>
		<g>
			<defs>
				<path id="SVGID_7_" d="M672.9,217.6c3.9,4.8,3.2,11.9-1.6,15.8c-4.8,3.9-11.9,3.2-15.8-1.6c-3.9-4.8-3.2-11.9,1.6-15.8
					C661.9,212.1,669,212.8,672.9,217.6z"/>
			</defs>
			<clipPath id="SVGID_10_">
				<use xlink:href="#SVGID_7_"  style="overflow:visible;"/>
			</clipPath>
		</g>
	</g>
	<g>
		<g>
			<path class="st7" d="M672.9,217.6c3.9,4.8,3.2,11.9-1.6,15.8c-4.8,3.9-11.9,3.2-15.8-1.6c-3.9-4.8-3.2-11.9,1.6-15.8
				C661.9,212.1,669,212.8,672.9,217.6z"/>
		</g>
		<g>
			<defs>
				<path id="SVGID_9_" d="M672.9,217.6c3.9,4.8,3.2,11.9-1.6,15.8c-4.8,3.9-11.9,3.2-15.8-1.6c-3.9-4.8-3.2-11.9,1.6-15.8
					C661.9,212.1,669,212.8,672.9,217.6z"/>
			</defs>
			<clipPath id="SVGID_12_">
				<use xlink:href="#SVGID_9_"  style="overflow:visible;"/>
			</clipPath>
			<g class="st8">
				<g class="st9">
					<path class="st7" d="M659.3,232.4c1,1.3,2,2.7,2.4,4.3c-1,0.8-2.4,0.8-3.6,0.3c-1.2-0.5-2.1-1.4-2.9-2.4
						c-1.3-1.6-6.5-8-3.3-9.6c1.7-0.9,2.4,0.9,3.2,2C656.5,228.9,658,230.6,659.3,232.4z"/>
				</g>
				<g class="st9">
					<path class="st7" d="M669.6,236.9c0.1,0.1,0.2,0.3,0.4,0.3c0.2,0,0.4-0.2,0.6-0.4c0.4-0.6,0.9-1.1,1.3-1.7
						c0.1-0.1,0.2-0.3,0.2-0.5c0-0.1-0.1-0.3-0.2-0.4c-2.6-2.4-5.2-4.9-7.8-7.3c-2.3-2.2-4.7-4.4-7.1-6.5c-0.8-0.8-3.7-4.1-3.3-1.3
						c0.3,2.2,2.8,3.9,4.2,5.4C661.9,228.7,665.8,232.8,669.6,236.9z"/>
				</g>
				<g class="st9">
					<path class="st7" d="M674.8,233.8c0.9-0.5,1.5-1.5,1.7-2.6c0.2-1,0-2.1-0.1-3.2c0-0.3-0.1-0.7-0.3-1c-0.2-0.3-0.5-0.6-0.8-0.9
						c-4.7-3.9-9.1-8.1-13.2-12.5c-0.8-0.9-3.1-3.3-4.4-1.9c-1,1,0.2,3.2,0.8,4c1.4,1.9,3.6,3.3,5.2,5c1.9,1.9,3.7,3.8,5.4,5.8
						C671.2,228.9,673,231.3,674.8,233.8z"/>
				</g>
				<g class="st9">
					<path class="st7" d="M671.3,219c0.7,0.6,1.3,1.4,1.9,2c1.4,1.5,3,2.7,4.5,4c0.1-0.8-0.2-1.6-0.5-2.4c-0.8-1.8-1.5-3.5-2.3-5.3
						c-0.4-0.8-0.7-1.7-1.3-2.4c-1-1.4-2.7-2.3-4.3-2.7c-1.4-0.4-7.6-1.7-5.2,1.2C666,215.6,669.2,216.9,671.3,219z"/>
				</g>
				<g>
					<path class="st10" d="M668.2,237.2c-3-4.9-8-7.9-11.9-12c-0.6-0.7-1.9-3-2.7-3.3c-1.5-0.6,0.1,1.6,0.4,2.1
						c1.9,2.4,3.9,4.7,6.1,6.9c1.2,1.2,2.5,2.3,3.9,3.4C665.2,235.1,667.6,236.1,668.2,237.2z"/>
				</g>
				<g>
					<path class="st10" d="M660.5,220.8c4.4,4.3,7.8,9.7,12.9,13c0.1,0.1,0.3,0.2,0.4,0.2c0.2,0,0.4-0.1,0.5-0.2
						c0.4-0.2,0.9-0.3,1.4-0.2c-0.2-1.6-1.3-2.8-2.3-4c-5.2-5.7-10.8-11.1-16.7-16.2c-0.2-0.1-0.3-0.3-0.5-0.3c-0.9-0.1-1,1.3-1,1.9
						c-0.1,1.1-0.2,1,0.7,1.8C657.5,218.2,659.1,219.4,660.5,220.8z"/>
				</g>
				<g>
					<path class="st10" d="M668.5,220.2c2.2,2.3,4.6,4.5,7.7,5.3c-0.2-1-0.9-1.8-1.6-2.6c-2.3-2.4-4.6-4.8-6.9-7.2
						c-0.7-0.8-5.7-6.7-5.2-3C662.8,215.6,666.6,218.3,668.5,220.2z"/>
				</g>
			</g>
		</g>
	</g>
	<g>
		<g>
			<defs>
				<path id="SVGID_11_" d="M672.9,217.6c3.9,4.8,3.2,11.9-1.6,15.8c-4.8,3.9-11.9,3.2-15.8-1.6c-3.9-4.8-3.2-11.9,1.6-15.8
					C661.9,212.1,669,212.8,672.9,217.6z"/>
			</defs>
			<clipPath id="SVGID_13_">
				<use xlink:href="#SVGID_11_"  style="overflow:visible;"/>
			</clipPath>
		</g>
	</g>
</g>
<g>
	<g>
		<circle class="st11" cx="761.7" cy="46.7" r="92"/>
		<g>
			<circle class="st12" cx="703.9" cy="13.7" r="14.5"/>
			<path class="st13" d="M690.6,15c0-8,6.5-14.5,14.5-14.5c3.7,0,7,1.4,9.6,3.6c-2.7-3-6.5-4.9-10.8-4.9c-8,0-14.5,6.5-14.5,14.5
				c0,4.3,1.9,8.2,4.9,10.8C692,22,690.6,18.7,690.6,15z"/>
			<path class="st14" d="M704.5-0.7c-0.1,0-0.2,0-0.3,0c7.9,0.2,14.2,6.6,14.2,14.5c0,8-6.5,14.5-14.5,14.5
				c-7.9,0-14.3-6.3-14.5-14.2c0,0.1,0,0.2,0,0.3c0,8.3,6.7,15,15,15c8.3,0,15-6.7,15-15C719.5,6,712.8-0.7,704.5-0.7z"/>
		</g>
		<g>
			<circle class="st12" cx="800" cy="-11.6" r="7.2"/>
			<path class="st13" d="M793.4-11c0-4,3.2-7.2,7.2-7.2c1.8,0,3.5,0.7,4.8,1.8c-1.3-1.5-3.3-2.4-5.4-2.4c-4,0-7.2,3.2-7.2,7.2
				c0,2.2,0.9,4.1,2.4,5.4C794.1-7.5,793.4-9.2,793.4-11z"/>
			<path class="st14" d="M800.3-18.9c0,0-0.1,0-0.1,0c3.9,0.1,7.1,3.3,7.1,7.2c0,4-3.2,7.2-7.2,7.2c-3.9,0-7.2-3.2-7.2-7.1
				c0,0,0,0.1,0,0.1c0,4.2,3.4,7.5,7.5,7.5c4.2,0,7.5-3.4,7.5-7.5C807.8-15.5,804.5-18.9,800.3-18.9z"/>
		</g>
		<g>
			<circle class="st12" cx="825.4" cy="61.8" r="18.1"/>
			<path class="st13" d="M808.8,63.3c0-10,8.1-18.1,18.1-18.1c4.6,0,8.8,1.7,12,4.5c-3.3-3.7-8.1-6.1-13.5-6.1
				c-10,0-18.1,8.1-18.1,18.1c0,5.4,2.4,10.2,6.1,13.5C810.6,72.1,808.8,67.9,808.8,63.3z"/>
			<path class="st14" d="M826.1,43.7c-0.1,0-0.2,0-0.4,0c9.8,0.2,17.7,8.2,17.7,18.1c0,10-8.1,18.1-18.1,18.1
				c-9.9,0-17.9-7.9-18.1-17.7c0,0.1,0,0.2,0,0.4c0,10.4,8.4,18.8,18.8,18.8c10.4,0,18.8-8.4,18.8-18.8
				C844.8,52.1,836.4,43.7,826.1,43.7z"/>
		</g>
		<g>
			<circle class="st12" cx="777.1" cy="104" r="18.1"/>
			<path class="st13" d="M760.6,105.5c0-10,8.1-18.1,18.1-18.1c4.6,0,8.8,1.7,12,4.5c-3.3-3.7-8.1-6.1-13.5-6.1
				c-10,0-18.1,8.1-18.1,18.1c0,5.4,2.4,10.2,6.1,13.5C762.3,114.3,760.6,110.1,760.6,105.5z"/>
			<path class="st14" d="M777.8,85.9c-0.1,0-0.2,0-0.4,0c9.8,0.2,17.7,8.2,17.7,18.1c0,10-8.1,18.1-18.1,18.1
				c-9.9,0-17.9-7.9-18.1-17.7c0,0.1,0,0.2,0,0.4c0,10.4,8.4,18.8,18.8,18.8s18.8-8.4,18.8-18.8C796.6,94.3,788.2,85.9,777.8,85.9z"
				/>
		</g>
		<g>
			
				<ellipse transform="matrix(0.1602 -0.9871 0.9871 0.1602 530.7777 809.8782)" class="st12" cx="741.3" cy="93" rx="10.2" ry="10.2"/>
			<path class="st13" d="M732,93.9c0-5.6,4.6-10.2,10.2-10.2c2.6,0,4.9,1,6.7,2.6c-1.9-2.1-4.6-3.4-7.6-3.4
				c-5.6,0-10.2,4.6-10.2,10.2c0,3,1.3,5.7,3.4,7.6C733,98.8,732,96.5,732,93.9z"/>
			<path class="st14" d="M741.7,82.8c-0.1,0-0.1,0-0.2,0c5.5,0.1,10,4.6,10,10.2c0,5.6-4.6,10.2-10.2,10.2c-5.5,0-10.1-4.4-10.2-10
				c0,0.1,0,0.1,0,0.2c0,5.8,4.7,10.6,10.6,10.6s10.6-4.7,10.6-10.6C752.3,87.6,747.6,82.8,741.7,82.8z"/>
		</g>
		<g>
			
				<ellipse transform="matrix(0.1602 -0.9871 0.9871 0.1602 560.5496 816.7389)" class="st12" cx="760.3" cy="78.9" rx="6.2" ry="6.2"/>
			<path class="st13" d="M754.6,79.5c0-3.4,2.8-6.2,6.2-6.2c1.6,0,3,0.6,4.1,1.5c-1.1-1.3-2.8-2.1-4.6-2.1c-3.4,0-6.2,2.8-6.2,6.2
				c0,1.8,0.8,3.5,2.1,4.6C755.2,82.5,754.6,81,754.6,79.5z"/>
			<path class="st14" d="M760.5,72.8c0,0-0.1,0-0.1,0c3.3,0.1,6,2.8,6,6.2c0,3.4-2.8,6.2-6.2,6.2c-3.4,0-6.1-2.7-6.2-6
				c0,0,0,0.1,0,0.1c0,3.5,2.9,6.4,6.4,6.4c3.5,0,6.4-2.9,6.4-6.4S764,72.8,760.5,72.8z"/>
		</g>
		<g>
			<ellipse transform="matrix(0.9732 -0.2298 0.2298 0.9732 14.1915 194.4308)" class="st12" cx="842" cy="36.3" rx="7" ry="7"/>
			<path class="st13" d="M835.7,36.9c0-3.8,3.1-7,7-7c1.8,0,3.4,0.7,4.6,1.8c-1.3-1.4-3.1-2.3-5.2-2.3c-3.8,0-7,3.1-7,7
				c0,2.1,0.9,3.9,2.3,5.2C836.3,40.3,835.7,38.6,835.7,36.9z"/>
			<path class="st14" d="M842.3,29.3c0,0-0.1,0-0.1,0c3.8,0.1,6.8,3.2,6.8,7c0,3.8-3.1,7-7,7c-3.8,0-6.9-3-7-6.8c0,0,0,0.1,0,0.1
				c0,4,3.2,7.2,7.2,7.2c4,0,7.2-3.2,7.2-7.2S846.3,29.3,842.3,29.3z"/>
		</g>
		<g>
			<circle class="st12" cx="713.2" cy="44.9" r="9.2"/>
			<path class="st13" d="M704.8,45.7c0-5.1,4.1-9.2,9.2-9.2c2.3,0,4.5,0.9,6.1,2.3c-1.7-1.9-4.1-3.1-6.9-3.1c-5.1,0-9.2,4.1-9.2,9.2
				c0,2.7,1.2,5.2,3.1,6.9C705.6,50.1,704.8,48,704.8,45.7z"/>
			<path class="st14" d="M713.5,35.7c-0.1,0-0.1,0-0.2,0c5,0.1,9,4.2,9,9.2c0,5.1-4.1,9.2-9.2,9.2c-5,0-9.1-4-9.2-9
				c0,0.1,0,0.1,0,0.2c0,5.3,4.3,9.5,9.5,9.5c5.3,0,9.5-4.3,9.5-9.5C723.1,40,718.8,35.7,713.5,35.7z"/>
		</g>
		<g>
			<circle class="st12" cx="734" cy="11.4" r="7.7"/>
			<path class="st13" d="M727,12.1c0-4.2,3.4-7.7,7.7-7.7c2,0,3.7,0.7,5.1,1.9c-1.4-1.6-3.5-2.6-5.8-2.6c-4.2,0-7.7,3.4-7.7,7.7
				c0,2.3,1,4.3,2.6,5.8C727.7,15.8,727,14,727,12.1z"/>
			<path class="st14" d="M734.4,3.7c-0.1,0-0.1,0-0.2,0c4.2,0.1,7.5,3.5,7.5,7.7c0,4.2-3.4,7.7-7.7,7.7c-4.2,0-7.6-3.4-7.7-7.5
				c0,0.1,0,0.1,0,0.2c0,4.4,3.6,8,8,8c4.4,0,8-3.6,8-8C742.3,7.3,738.8,3.7,734.4,3.7z"/>
		</g>
		<g>
			
				<ellipse transform="matrix(0.7071 -0.7071 0.7071 0.7071 141.3662 538.067)" class="st12" cx="720.2" cy="98.4" rx="5.2" ry="5.2"/>
			<path class="st13" d="M715.4,98.8c0-2.9,2.3-5.2,5.2-5.2c1.3,0,2.5,0.5,3.4,1.3c-1-1.1-2.3-1.7-3.9-1.7c-2.9,0-5.2,2.3-5.2,5.2
				c0,1.5,0.7,2.9,1.7,3.9C715.9,101.4,715.4,100.2,715.4,98.8z"/>
			<path class="st14" d="M720.4,93.2c0,0-0.1,0-0.1,0c2.8,0.1,5.1,2.4,5.1,5.2c0,2.9-2.3,5.2-5.2,5.2c-2.8,0-5.1-2.3-5.2-5.1
				c0,0,0,0.1,0,0.1c0,3,2.4,5.4,5.4,5.4s5.4-2.4,5.4-5.4C725.8,95.6,723.4,93.2,720.4,93.2z"/>
		</g>
		<path class="st15" d="M761.7,99.4c-41.1,0-76.5-25-91.6-60.6c-0.2,2.6-0.3,5.2-0.3,7.8c0,50.8,41.2,92,92,92c50.8,0,92-41.2,92-92
			c0-2.6-0.1-5.2-0.3-7.8C838.2,74.4,802.9,99.4,761.7,99.4z"/>
		<path class="st15" d="M761.7,120.3c-38.5,0-72-21.2-89.5-52.5c9.6,40.6,46,70.8,89.5,70.8s80-30.2,89.5-70.8
			C833.7,99.1,800.2,120.3,761.7,120.3z"/>
	</g>
	<circle class="st11" cx="778.5" cy="-91.3" r="4.1"/>
	<radialGradient id="SVGID_14_" cx="761.7484" cy="46.6623" r="122.9425" gradientUnits="userSpaceOnUse">
		<stop  offset="0.6866" style="stop-color:#FFFFFF"/>
		<stop  offset="0.9696" style="stop-color:#FFFFFF;stop-opacity:0"/>
	</radialGradient>
	<circle class="st16" cx="761.7" cy="46.7" r="122.9"/>
</g>
</svg>
