<?xml version="1.0" encoding="utf-8"?>
<!-- Generator: Adobe Illustrator 24.2.3, SVG Export Plug-In . SVG Version: 6.00 Build 0)  -->
<svg version="1.1" xmlns="http://www.w3.org/2000/svg" xmlns:xlink="http://www.w3.org/1999/xlink" x="0px" y="0px"
   viewBox="0 0 800 600" style="enable-background:new 0 0 800 600;" xml:space="preserve">
<style type="text/css">
  .st0{fill:#002A3F;}
  .st1{fill:#002F42;}
  .st2{fill:#003444;}
  .st3{fill:#FFD788;}
  .st4{fill:#FFC022;}
  .st5{fill:none;stroke:#725B2E;stroke-linecap:round;stroke-miterlimit:10;}
  .st6{fill:#725B2E;}
  .st7{fill:none;stroke:#255568;stroke-width:2;stroke-linecap:round;stroke-miterlimit:10;}
  .st8{fill:#7C7C7C;}
  .st9{fill:#BABABA;}
	.st100{clip-path:url(#SVGID_2_);}
  .st10{fill:#247693;}
  .st11{clip-path:url(#mask_1_);}
  .st12{display:none;opacity:0.22;}
  .st13{fill:#CE9E34;}
  .st14{opacity:0.2;}
  .st15{fill:none;stroke:#2A4D59;stroke-width:2;stroke-miterlimit:10;}
  .st16{fill:#6B4605;}
  .st17{fill:#9E7C3F;}
  .st18{fill:#294F48;}
  .st19{fill:#266D5C;}
  .st20{fill:#488C7F;}
  .st21{fill:#FFD066;}
  .st22{fill:#5E5E5E;}
  .st23{fill:#0A171C;}
  .st24{fill:none;stroke:#808080;stroke-linecap:round;stroke-miterlimit:10;}
  .st25{fill:#808080;}
  .st26{fill:#FFB612;}
  .st27{fill:#FFDA8F;}
  .st28{fill:#AFAFAF;}
  .st29{fill:#727272;}
  .st30{fill:#898989;}
  .st31{fill:#565656;}
  .st32{fill:#FFFFFF;}
  .st33{fill:#3F2727;}
  .st34{fill:#683333;}
  .st370{clip-path:url(#SVGID_4_);}
  .st35{fill:none;stroke:url(#SVGID_1_);stroke-linecap:round;stroke-miterlimit:10;}
  .st36{fill:none;stroke:url(#SVGID_2_);stroke-linecap:round;stroke-miterlimit:10;}
  .st37{fill:none;stroke:url(#SVGID_3_);stroke-linecap:round;stroke-miterlimit:10;}
  .st38{fill:none;stroke:#FFFFFF;stroke-width:3;stroke-linecap:round;stroke-miterlimit:10;}
  .st39{fill:none;stroke:#FFFFFF;stroke-width:3;stroke-linecap:round;stroke-miterlimit:10;stroke-dasharray:1.0005,6.0031;}
  .st40{fill:none;}
  .st41{fill:#FF6357;}
  .st43{font-size:21.47px;}
  .st44{fill:#52D1C5;}
  .st45{font-size:22.1472px;}
  symbol{overflow: visible;}
</style>
<g id="stars">
    <circle class="st21" cx="251" cy="173.2" r="1.2"/>
    <circle class="st21" cx="194.4" cy="376" r="1.2"/>
    <circle class="st21" cx="199.6" cy="73.7" r="1.2"/>
    <circle class="st21" cx="62.7" cy="329.2" r="1.2"/>
    <circle class="st21" cx="522.8" cy="224.7" r="1.2"/>
    <circle class="st21" cx="586.5" cy="249.9" r="1.2"/>
    <circle class="st21" cx="294.8" cy="210.5" r="1.2"/>
    <circle class="st21" cx="58.3" cy="202.4" r="1.2"/>
    <circle class="st21" cx="115.5" cy="408.4" r="1.2"/>
    <circle class="st21" cx="553.8" cy="179.2" r="1.2"/>
    <circle class="st21" cx="418.4" cy="248.7" r="1.2"/>
    <circle class="st21" cx="755.7" cy="123.4" r="1.2"/>
    <circle class="st21" cx="675" cy="135.1" r="1.2"/>
    <circle class="st21" cx="400" cy="362.2" r="1.2"/>
    <circle class="st21" cx="613.6" cy="324.2" r="1.2"/>
    <circle class="st21" cx="556.1" cy="493.3" r="1.2"/>
    <circle class="st21" cx="513.7" cy="374.8" r="1.2"/>
    <circle class="st21" cx="675" cy="377.2" r="1.2"/>
    <circle class="st21" cx="283.5" cy="535.2" r="1.2"/>
    <circle class="st21" cx="116.7" cy="232.6" r="1.2"/>
    <circle class="st21" cx="252.2" cy="340.5" r="1.2"/>
    <circle class="st21" cx="488.8" cy="114.9" r="1.2"/>
    <circle class="st21" cx="725.1" cy="275.6" r="1.2"/>
    <circle class="st21" cx="349" cy="393.3" r="1.2"/>
    <circle class="st21" cx="440.4" cy="452.3" r="1.2"/>
    <circle class="st21" cx="413.3" cy="547.3" r="1.2"/>
    <circle class="st21" cx="393.3" cy="189.5" r="1.2"/>
    <circle class="st21" cx="373.2" cy="50.3" r="1.2"/>
    <circle class="st21" cx="591" cy="78.4" r="1.2"/>
  </g>
  <g id="brightstars">
    <polygon class="st21" points="563.1,326.7 560.7,321.3 557.3,318.9 560.7,316.5 563.1,311.1 565.5,316.5 568.9,318.9 565.5,321.3 
          "/>
    <polygon class="st21" points="701.9,103.5 699.5,98.1 696.1,95.7 699.5,93.3 701.9,87.9 704.3,93.3 707.7,95.7 704.3,98.1    "/>
    <polygon class="st21" points="733.1,62.9 730.7,57.5 727.2,55.1 730.7,52.7 733.1,47.2 735.5,52.7 738.9,55.1 735.5,57.5     "/>
    <polygon class="st21" points="85.3,284 82.9,278.6 79.5,276.2 82.9,273.8 85.3,268.4 87.7,273.8 91.1,276.2 87.7,278.6     "/>
    <polygon class="st21" points="227.9,206.2 225.5,200.8 222.1,198.4 225.5,195.9 227.9,190.5 230.3,195.9 233.7,198.4 230.3,200.8 
          "/>
    <polygon class="st21" points="223.6,58.1 221.2,52.7 217.8,50.3 221.2,47.9 223.6,42.5 226,47.9 229.5,50.3 226,52.7     "/>
    <polygon class="st21" points="370,510 367.6,504.6 364.2,502.2 367.6,499.8 370,494.4 372.4,499.8 375.8,502.2 372.4,504.6     "/>
    <polygon class="st21" points="540.1,280.7 537.7,275.3 534.3,272.9 537.7,270.5 540.1,265.1 542.5,270.5 545.9,272.9 542.5,275.3 
          "/>
  </g>
</svg>