<?xml version="1.0" encoding="utf-8"?>
<!-- Generator: Adobe Illustrator 24.2.3, SVG Export Plug-In . SVG Version: 6.00 Build 0)  -->
<svg version="1.1" id="Layer_1" xmlns="http://www.w3.org/2000/svg" xmlns:xlink="http://www.w3.org/1999/xlink" x="0px" y="0px"
	 viewBox="0 0 4000 4000" style="enable-background:new 0 0 4000 4000;" xml:space="preserve">
<style type="text/css">
	.st0{fill:#FFFFFF;}
	.st1{opacity:0.35;}
	.st2{fill:#371A45;}
	.st3{fill:#220F2D;}
	.st4{opacity:0.7;}
	.st5{opacity:0.2;enable-background:new    ;}
	.st6{fill:#F92323;}
	.st7{fill:#33AEF1;}
	.st8{opacity:0.6;enable-background:new    ;}
	.st9{opacity:0.25;enable-background:new    ;}
	.st10{fill:#DB2C2C;}
	.st11{fill:#22A7F0;}
	.st12{fill:#AFAFB2;}
</style>
<g>
	<g>
		<g>
			<path class="st0" d="M1631.6,1880c-13.6,0.1-315-80.3-500.9-43.9c-154.9,30.3-355.9,608.5-278.9,736.9
				c71.4,119,361.2,186.5,361.2,186.5L1631.6,1880z"/>
		</g>
		<g>
			<path class="st0" d="M1631.6,1880l-68,143L1213,2759.5c0,0-140.5-32.7-250-92.8c-47.7-26.2-89.5-57.5-111.2-93.7
				c-77.1-128.4,123.9-706.6,278.9-736.9C1316.6,1799.7,1618,1880.1,1631.6,1880z"/>
		</g>
		<g class="st1">
			<path class="st2" d="M1563.6,2023L1213,2759.5c0,0-0.1,0-0.2,0c-0.7-0.2-2.7-0.7-6-1.5c-0.7-0.2-1.4-0.3-2.2-0.6
				c-0.1,0-0.3,0-0.4-0.1c-0.7-0.2-1.5-0.4-2.3-0.6c-1.9-0.5-4-1-6.4-1.7c-0.6-0.2-1.2-0.3-1.8-0.5c-0.6-0.1-1.1-0.3-1.7-0.4
				c-0.7-0.2-1.4-0.4-2.2-0.6c-7.5-2-16.7-4.6-27.1-7.6c-1.3-0.3-2.6-0.7-3.9-1.1c-3.9-1.2-8-2.4-12.2-3.7c-1.4-0.4-2.8-0.9-4.3-1.3
				c-1.7-0.5-3.4-1-5.1-1.6c-2.1-0.7-4.2-1.3-6.4-2c-0.7-0.2-1.3-0.4-1.9-0.6c-1.6-0.5-3.1-1-4.7-1.5c-4.5-1.5-9.1-3-13.7-4.5
				c-0.1,0-0.3-0.1-0.5-0.2c-3.2-1.1-6.5-2.2-9.8-3.4c-0.1,0-0.2,0-0.3-0.1c-2.4-0.8-4.8-1.7-7.2-2.5c-1.5-0.5-3-1.1-4.6-1.7
				c-5.8-2.1-11.7-4.2-17.7-6.5c-3.8-1.4-7.7-3-11.6-4.5c-3.5-1.3-7.1-2.8-10.7-4.2c-3.6-1.4-7.1-2.9-10.7-4.4
				c-3.6-1.5-7.2-3-10.8-4.6c-3.6-1.6-7.2-3.1-10.7-4.7c-3.6-1.6-7.2-3.2-10.7-4.9c0,0,0,0,0,0c-3.6-1.7-7.1-3.4-10.7-5
				c-3.6-1.7-7.1-3.5-10.6-5.2c-0.6-0.3-1.1-0.6-1.7-0.8c-3-1.5-5.9-3-8.8-4.6c-3.5-1.8-6.9-3.7-10.4-5.6
				c-47.7-26.2-89.5-57.5-111.2-93.7c-40.2-67-4.7-256.5,60.5-426.7c-23.7,104.9-28.6,196.6-3.1,239.1c8.9,14.9,21.2,28.9,36,42.2
				c17.2,15.4,35.7,28.2,55,38.4c70.9-205.9,225.7-458.5,331.6-467c61.2-4.9,133.1,3.8,202.8,17.8
				C1544.3,2018.8,1554,2020.8,1563.6,2023z"/>
		</g>
		<g class="st1">
			<path class="st2" d="M1631.6,1880l-68,143c-9.6-2.1-19.3-4.2-29-6.1l67.8-142.6C1619,1877.8,1629.3,1880,1631.6,1880z"/>
		</g>
		<g>
			<path class="st2" d="M1222.1,2778.3l-12.8-3c-12.1-2.8-297.4-70.5-371.5-194c-50-83.3,5.1-324,87.2-508.6
				c38.8-87.1,116.6-235.9,202.6-252.7c158.3-31,399.4,21.1,478.7,38.2c11.7,2.5,22.8,4.9,25.9,5.3l25.3-0.2L1222.1,2778.3z
				 M1242.4,1843c-38.5,0-75.5,2.6-108.5,9.1c-51.4,10.1-118.4,97.5-179.1,234c-86.8,195.2-127.6,414.3-89,478.6
				c58.8,98,282.4,161.4,338.3,175.8l403.8-848.5c-2.5-0.5-5.3-1.1-8.4-1.8C1538.7,1877.1,1380.8,1843,1242.4,1843z M1631.6,1863.7
				c0,0-0.1,0-0.1,0H1631.6z"/>
		</g>
		<g>
			<path class="st2" d="M1116.1,1832.6c16.2,12.1,31.8,24.4,47.4,36.9c15.6,12.5,31,25.3,46.1,38.4c15.1,13.1,30.1,26.5,44.5,40.5
				c14.4,14.1,28.6,28.5,41.5,44.5c3.2,4,2.6,9.9-1.4,13.1c-3.9,3.1-9.5,2.6-12.8-1.1l-0.1-0.1c-12.7-14.4-27-27.8-41.6-40.9
				c-14.6-13.1-29.9-25.5-45.3-37.8c-15.4-12.3-31.1-24.2-47-35.9c-15.9-11.7-32-23.3-48.1-34.3l-0.1-0.1c-6.6-4.5-8.2-13.4-3.7-20
				c4.5-6.6,13.4-8.2,20-3.7C1115.8,1832.4,1116,1832.5,1116.1,1832.6z"/>
		</g>
		<g>
			<path class="st0" d="M897.8,2168.5l149.9,79c13.4,7.1,20.3,22.2,16.9,37c-12.7,53.9-48.5,176.9-113.8,194.3
				c-54.3,14.4-118.2-17.9-142.4-67.1c-27.1-55,18.4-171.2,43.7-227.5C859.9,2166.8,880.9,2159.6,897.8,2168.5z"/>
		</g>
		<g class="st1">
			<path class="st2" d="M1064.6,2284.5c-12.7,53.9-48.5,176.9-113.8,194.3c-54.3,14.4-118.1-17.8-142.4-67.1
				c-16.7-33.9-5.9-90.8,10.8-142.7c-3.8,27.9-1.6,52.8,6.2,72c45.1,109.9,142.3,45.7,142.3,45.7s0.7,26.1,8.2,30.9
				c31.5,19.8,70.4-88.8,89.3-145.4C1065.7,2276.2,1065.6,2280.4,1064.6,2284.5z"/>
		</g>
		<g>
			<path class="st2" d="M923.8,2498.5c-52.3,0-106.3-31.5-130-79.6c-28.1-57,8.1-162.7,43.4-241.3c5.6-12.4,16.2-22.1,29-26.5
				c12.9-4.4,27.2-3.3,39.2,3v0l149.9,79c20,10.5,30.3,33.2,25.1,55.1c-16.2,68.9-54.1,187.3-125.5,206.3
				C944.8,2497.2,934.3,2498.5,923.8,2498.5z M882.4,2181c-1.9,0-3.7,0.3-5.5,0.9c-4.5,1.5-8,4.8-9.9,9.1
				c-44.6,99.1-61,179-43.9,213.6c21.6,43.8,78.2,70.6,123.6,58.5c39.6-10.5,77.8-78.6,102.2-182.3c1.8-7.5-1.8-15.2-8.6-18.8
				l-149.9-79v0C887.8,2181.6,885.1,2181,882.4,2181z"/>
		</g>
		<g>
			<path class="st2" d="M863.7,2452.8c0.8,0,3.3-0.2,5.1-0.5c2-0.3,4-0.7,6-1.2c4.1-0.9,8.2-2.2,12.2-3.8c8-3.2,16-7,23.3-12
				c14.9-9.7,28.1-22.6,39.3-37.3c5.4-7.5,10.8-15.1,15.3-23.3c4.9-7.9,9.1-16.7,13.4-25.1c4.2-8.6,8.1-17.2,11.5-26.1
				c1.7-4.4,3.3-8.9,4.7-13.4c1.4-4.4,2.6-9.2,3.2-13.2l0.1-0.5c0.4-2.3,2.5-4,4.9-3.6c2.2,0.3,3.8,2.3,3.6,4.6
				c-0.8,10.8-3.3,20-6,29.6c-2.8,9.5-6,18.8-9.5,28c-3.7,9.2-7.1,18.2-11.6,27.2c-4.1,9.1-9.1,17.8-14.3,26.5
				c-10.7,17.1-24.2,32.9-40.7,45.9c-8.1,6.6-17.2,12.1-26.8,16.9c-4.8,2.4-9.8,4.4-15,6.1c-2.6,0.9-5.3,1.7-8,2.3
				c-2.9,0.7-5.2,1.2-9.2,1.7l-0.4,0c-7.9,0.8-15-4.9-15.9-12.8c-0.9-7.9,4.9-15,12.8-15.9C862.4,2452.8,863.1,2452.8,863.7,2452.8z
				"/>
		</g>
		<g>
			<path class="st0" d="M1325.1,2926.6c0,0,594.4-149.9,1132.3-35v-273.7l-1018.8-304.7L1325.1,2926.6z"/>
		</g>
		<g class="st1">
			<path class="st2" d="M2457.4,2754v137.6c-537.9-114.8-1132.3,35-1132.3,35l26.6-143.8C1472.8,2755.6,1986.7,2653.5,2457.4,2754z"
				/>
		</g>
		<g>
			<path class="st2" d="M1306.9,2946l120.5-651.2l1044.4,312.4v302.2l-17.4-3.7c-528.3-112.8-1119.8,33.4-1125.7,34.9L1306.9,2946z
				 M1449.8,2331.5l-106.6,576.1c110.8-24.9,627-129.5,1099.8-33.7v-245.4L1449.8,2331.5z"/>
		</g>
		<g>
			<path class="st0" d="M2635.9,2807.2c-26.8,104.4-151.2,134.7-216.9,112.5c-65.1-22-114.5-127.3-114.5-127.3
				s-153.4-7.3-294.9-186.1c-4.3-5.4-8.4-10.9-12.5-16.4c-109.2-149.1-146.1-351-156.1-420.8c-2.3-15.9-3.1-25-3.1-25l208.8-54.4
				l59.1-15.4c1.5,32.6,6.3,63,13.8,91.2c66.8,251.7,348.1,332.5,428.2,350.3C2637,2535.5,2664.2,2696.9,2635.9,2807.2z"/>
		</g>
		<g class="st1">
			<path class="st2" d="M2635.9,2807.2c-26.8,104.4-151.2,134.7-216.9,112.5c-65.1-22-114.5-127.3-114.5-127.3
				s-153.4-7.3-294.9-186.1c-4.3-5.4-8.4-10.9-12.5-16.4c-109.2-149.1-146.1-351-156.1-420.8c-2.3-15.9-3.1-25-3.1-25l30.5-7.9
				c23.2,87.8,62.8,197.1,128.7,287.1c4.1,5.6,8.3,11.1,12.5,16.4c141.5,178.8,294.9,186.1,294.9,186.1s49.4,105.4,114.5,127.3
				c65.8,22.2,190.2-8.1,216.9-112.5c0.6-2.2,1.1-4.4,1.6-6.6C2650.3,2689.3,2649.5,2754.1,2635.9,2807.2z"/>
		</g>
		<g>
			<path class="st2" d="M2464.6,2942.8c-18.2,0-35.6-2.5-50.9-7.7c-60.2-20.3-106.1-100.9-119.9-127.4
				c-37.1-4.7-171.5-32.5-297.1-191.3c-146.4-185-174-459.2-175.1-470.8c-0.9-9,5.7-16.9,14.7-17.8c8.9-0.8,16.9,5.7,17.8,14.7
				c0.3,2.7,27.9,276.4,168.2,453.7c134.7,170.2,281.5,179.8,283,179.9l9.7,0.5l4.2,8.8c0.5,1,47.3,99.4,105,118.8
				c35.5,12,87.9,5.5,127.3-15.8c24.8-13.5,56.9-39.2,68.7-85.3c20.1-78.2,10.3-174.7-23.3-229.3c-14.4-23.5-32.1-37.7-52.6-42.2
				c-42.8-9.5-153.3-39.2-254.5-109.1c-126.2-87.2-193.6-204.1-200.3-347.5c-0.4-9,6.5-16.6,15.5-17c9-0.3,16.6,6.5,17,15.5
				c14.5,310.3,332.3,404.8,429.3,426.3c29,6.5,54.3,26.1,73.3,57c37.7,61.5,49.1,168.5,27.1,254.5c-11.7,45.5-41,82.1-84.7,105.8
				C2536,2933.9,2498.9,2942.8,2464.6,2942.8z"/>
		</g>
		<g>
			<path class="st0" d="M2061.9,1966.7c-5.8,39.7-10.9,81.2-15.3,122.9c-3.1,29.7-5.9,59.5-8.4,89.1
				c-17.6,212.9-19.3,410.2-19.3,410.2l-21.9,0.8l-554.9,20.8c48.6,76.5,47.3,162.8,47.3,162.8l-70.8,435.1
				c0,0-56.1,49.5-146.4-21.9c-39.4-31.1-35.6-110.4-132.8-153.7c-194.3-86.8-151-412.2-105.7-532c17.3-47.2,37.9-92.9,60.9-136.8
				c23.5-45.1,49.5-88.3,76.8-129.3c89.6-134.9,193-245.5,268.8-318.5c64.1-61.7,108.5-96.5,108.5-96.5S2080,1844.1,2061.9,1966.7z"
				/>
		</g>
		<g class="st1">
			<path class="st2" d="M1489.5,2773.5l-70.8,435.1c0,0-56.1,49.5-146.4-21.9c-39.4-31.1-35.6-110.4-132.8-153.7
				c-129.4-57.8-153.4-221.5-141.6-359.7c10.2,101.6,48.8,196.8,141.6,237.3c68.8,30,79.2,148.8,158.5,48.8
				c71.5-90.2,120.7,126.9,120.7,126.9l62-381.2C1489.9,2744.4,1489.5,2773.5,1489.5,2773.5z"/>
		</g>
		<g>
			<path class="st2" d="M1113.1,2605.7c7-10.1,14.5-19.3,22.6-28.3c8-9,16.6-17.5,25.6-25.6c8.9-8.2,18.6-15.7,28.7-22.8l7.6-5.2
				l7.9-4.9c2.6-1.7,5.6-3.1,8.4-4.6c2.8-1.6,5.7-2.9,8.7-4.2c47.2-21.6,105-17.3,149.9,9c44.3,25.4,78.5,65.7,100.1,110.6
				c10.8,22.5,18.7,46.1,24.3,70.1c2.8,12,4.9,24.1,6.5,36.4c0.8,6.1,1.4,12.2,1.9,18.4c0.5,6.3,0.8,12.1,0.8,19.2l0,1.1l-0.2,1.3
				l-35.6,217.5l-35.4,217.5l-1,6l-4.3,3.6c-3.3,2.8-5.4,4-8,5.7c-2.5,1.4-5,3-7.6,4.1c-2.6,1.3-5.1,2.5-7.8,3.4
				c-2.6,1-5.3,2.1-8,2.7c-5.4,1.7-10.8,2.7-16.3,3.6c-5.5,0.4-11.1,1.3-16.5,0.9c-22-0.2-43-6.5-61.6-15.6l-7-3.4l-6.6-3.9
				c-4.3-2.7-9-5.1-13-8.1l-12.3-8.9c-1-0.8-2-1.4-3.1-2.3l-3.3-3c-2.1-2.1-4.6-4-6.3-6.2c-7.8-8.7-13-17.9-18.1-26.8
				c-4.6-8.8-8.9-17.6-13-25.8c-8.3-16.6-16.9-31.8-28-45c-10.9-13.2-24.2-24.3-39-33.2l-5.5-3.4l-5.9-2.9l-12-6l-13.7-6.9
				c-4.6-2.2-8.8-5.3-13.2-7.9l-6.5-4.1c-2.1-1.4-4.1-3.1-6.2-4.6c-4-3.2-8.2-6.1-12.1-9.5l-11.3-10.4c-3.8-3.4-7-7.4-10.5-11.1
				c-13.5-15.3-25.3-32-34.4-49.8c-9.3-17.8-17.2-36.2-22.9-55.2c-5.9-18.9-10.5-38.1-13.6-57.5c-1.8-9.7-2.8-19.4-4.1-29.1
				c-0.8-9.7-1.9-19.4-2.3-29.2c-2.3-38.9-0.8-77.7,3.2-116.2c4.2-38.5,10.8-76.6,20.8-114.2c4.9-18.7,11.1-37.8,18.2-55.6
				l10.4-26.9l11.4-26.5c15.6-35.1,32.4-69.7,51.1-103.2c37.1-67.2,79.7-131,126-192c46.4-60.8,96.3-118.8,149.3-173.9
				c26.5-27.5,53.6-54.4,81.6-80.4c28.1-26.1,56.3-51.3,86.7-75.7l4.7-3.8l6.1,0.3c49.9,2.6,99.1,6.7,148.5,12
				c49.3,5.4,98.6,12,147.7,21c24.5,4.5,49,9.7,73.4,15.9c24.4,6.2,48.6,13.4,72.5,23c11.9,4.8,23.8,10.2,35.4,16.8
				c11.6,6.6,23.1,14.5,33.3,25.5c5,5.6,9.8,11.9,13.1,19.6c3.4,7.7,5.2,16.4,5,25.1l-0.5,6.4l-0.6,4.6l-1.2,9.1l-2.5,18.2
				c-3.5,24.2-6,48.7-9,73c-2.4,24.4-5.2,48.8-7.2,73.3c-4.6,48.9-7.9,98-10.4,147.1c-2.3,49.1-4.4,98.3-7.7,147.4
				c-3.2,49.1-7.2,98.2-14.9,147.4c-0.5,3-3.3,5-6.3,4.6c-2.4-0.4-4.3-2.3-4.6-4.7c-3.4-24.8-5.2-49.5-6.2-74.3
				c-1-24.8-1.3-49.5-1-74.2c0.6-49.5,3.1-98.9,6.9-148.2c7.3-98.7,14.6-197.4,28.1-295.8l2.5-18.4l1.3-9.2l0.6-4.6
				c0-0.9,0.1-1.9,0.2-2.8c0.1-3.7-0.6-7.2-2.2-10.9c-1.5-3.6-4.3-7.3-7.4-10.9c-6.6-7.1-15.5-13.6-25.4-19.2
				c-9.8-5.6-20.4-10.5-31.4-14.9c-21.9-8.8-45-15.6-68.5-21.6c-23.4-6-47.3-11-71.2-15.4c-48-8.8-96.5-15.4-145.3-20.7
				c-48.7-5.2-97.8-9.3-146.5-11.9l10.8-3.4c-28.8,23.1-57.1,48.4-84.6,73.9c-27.5,25.6-54.3,52.1-80.3,79.2
				c-52.2,54.2-101.3,111.3-146.9,171c-45.4,59.8-87.2,122.4-123.4,188c-18.3,32.7-34.7,66.4-49.8,100.5l-11,25.8l-10.1,26.2
				c-6.9,17.4-12.4,34.4-17.2,52.4c-9.5,35.7-15.9,72.4-19.9,109.3c-3.8,36.9-5.3,74.1-3.1,110.9c0.4,9.2,1.4,18.4,2.2,27.5
				c1.2,9.1,2.1,18.2,3.8,27.2c2.8,18.1,7.2,35.8,12.5,53.1c5.2,17.4,12.3,33.9,20.5,49.7c8.1,15.9,18.4,30.3,30,43.5
				c3,3.2,5.7,6.6,9,9.6l9.6,8.9c3.3,2.9,6.9,5.3,10.3,8c1.8,1.3,3.4,2.7,5.2,3.9l5.5,3.5c3.8,2.2,7.2,4.9,11.2,6.7l11.7,5.9
				l13.4,6.7l6.8,3.4l6.6,4.1c17.6,10.6,33.9,24.2,47.1,40.2c13.3,15.9,23.4,33.9,32,51.2c4.4,8.7,8.4,17,12.6,25
				c4.3,7.6,8.6,15,13.6,20.4c1.1,1.6,2.6,2.5,3.8,3.8l1.9,1.8c0.7,0.6,1.7,1.3,2.6,1.9l10.7,7.8c3.5,2.7,7.4,4.6,11.1,7l5.6,3.4
				l5.8,2.8c15.3,7.6,31.6,12.2,47.6,12.4c4,0.3,7.9-0.4,11.8-0.6c3.8-0.7,7.7-1.3,11.4-2.6c1.9-0.4,3.7-1.2,5.5-1.9
				c1.8-0.6,3.5-1.5,5.2-2.3c1.8-0.8,3.3-1.8,4.9-2.7c1.3-0.9,3.3-2.2,3.6-2.5l-5.3,9.6l35.4-217.6l35.1-217.6l-0.2,2.4
				c0-4.7-0.4-10.7-0.8-16.1c-0.5-5.5-1.1-11.1-1.9-16.6c-1.5-11.1-3.7-22.1-6.3-33c-5.3-21.7-12.8-42.9-22.6-62.7
				c-4.9-9.9-10.4-19.5-16.4-28.6c-6.1-9.1-12.8-17.8-20-25.9c-7.4-8-15.1-15.7-23.5-22.6c-4.1-3.5-8.5-6.8-12.9-10
				c-4.5-3-9-6.3-13.5-8.8c-9-5.3-18.6-9.8-28.5-13.2c-10-3.3-20.3-5.4-30.8-6.4c-10.5-1-21-1-31.5,0.3c-10.5,1.4-20.8,3.9-30.8,7.5
				c-2.5,0.9-5,1.8-7.4,2.9c-2.4,1.1-4.9,2-7.4,3.4c-5,2.5-9.9,5-14.8,7.8c-9.8,5.5-19.3,11.7-28.8,18.1
				c-18.6,13.1-36.9,27.8-53.7,43.4l-0.2,0.2c-2.2,2-5.7,1.9-7.7-0.3C1111.8,2610.6,1111.6,2607.8,1113.1,2605.7z"/>
		</g>
		<g>
			<path class="st2" d="M2304.5,2806.7c-5.8,0-11.2-3.5-13.4-9.2c-7.7-20-26.8-54.4-45.1-61.6c-7.4-2.9-11-11.3-8.1-18.6
				s11.3-11,18.6-8.1c36,14.2,58.9,71.5,61.4,78c2.9,7.4-0.8,15.7-8.2,18.6C2307.9,2806.4,2306.2,2806.7,2304.5,2806.7z"/>
		</g>
		<g>
			<path class="st2" d="M1825.8,2806.7c-5.8,0-11.2-3.5-13.4-9.2c-7.7-20-26.8-54.4-45.1-61.6c-7.4-2.9-11-11.3-8.1-18.6
				c2.9-7.4,11.3-11,18.6-8.1c36,14.2,58.9,71.5,61.4,78c2.9,7.4-0.8,15.7-8.2,18.6C1829.3,2806.4,1827.5,2806.7,1825.8,2806.7z"/>
		</g>
		<g>
			<circle class="st0" cx="2054.3" cy="2400.1" r="66.2"/>
		</g>
		<g class="st1">
			<path class="st2" d="M2120.5,2400.1c0,36.6-29.7,66.2-66.2,66.2c-36.6,0-66.3-29.7-66.3-66.2c0-14.6,4.7-28.1,12.8-39
				c6.2,30.2,32.9,52.9,64.9,52.9c21.9,0,41.4-10.7,53.5-27.2C2120,2391.1,2120.5,2395.5,2120.5,2400.1z"/>
		</g>
		<g>
			<path class="st2" d="M2054.3,2480.7c-44.5,0-80.6-36.2-80.6-80.6s36.2-80.6,80.6-80.6s80.6,36.2,80.6,80.6
				S2098.7,2480.7,2054.3,2480.7z M2054.3,2348.2c-28.6,0-51.9,23.3-51.9,51.9s23.3,51.9,51.9,51.9s51.9-23.3,51.9-51.9
				S2082.9,2348.2,2054.3,2348.2z"/>
		</g>
		<g>
			<path class="st0" d="M2059.4,2262.4l-7,117.4l-5.4,91.3c-1.5,24.8-21.8,44.3-46.7,44.6c-16,0.2-35.9,0.3-58.6-0.1
				c-81-1.4-199.2-8.2-314.8-32.1c-24.8-5.1-41.2-29-37.1-54.1l39-237.6c4.4-26.8,30.3-44.4,56.8-38.6
				c80.2,17.4,240.2,50.6,331.2,59.4C2042.2,2214.9,2061,2237,2059.4,2262.4z"/>
		</g>
		<g>
			<path class="st0" d="M1682.1,2152.4l-95.9-7.9c-21-1.7-39.8,13-43.2,33.9l-37.5,236c-3.3,20.6,9.7,40.3,29.8,45.4l85.8,22"/>
		</g>
		<g>
			<path class="st2" d="M1976.1,2530.1c-82,0-218.4-5.1-352.1-32.7c-32.5-6.7-53.7-37.7-48.3-70.5l39-237.7
				c2.8-16.9,12.1-31.5,26.2-41.1c14.1-9.6,31.1-12.9,47.8-9.3c84.8,18.4,240.3,50.5,329.5,59.1c33.1,3.2,57.5,31.8,55.6,65.1
				l-12.4,208.7c-1.9,32.2-28.6,57.7-60.8,58.1C1993.1,2530.1,1984.9,2530.1,1976.1,2530.1z M1675.5,2166.3
				c-6.5,0-12.9,1.9-18.5,5.7c-7.6,5.1-12.5,12.9-14,22l-39,237.7c-2.9,17.6,8.4,34.1,25.8,37.7c145.4,30,294.5,32.9,370.4,31.9
				c17.2-0.2,31.5-13.9,32.5-31.1l12.4-208.7c1.1-17.8-12-33.1-29.6-34.8c-90.7-8.8-247.4-41.1-332.8-59.6l0,0
				C1680.3,2166.6,1677.9,2166.3,1675.5,2166.3z"/>
		</g>
		<g>
			<path class="st2" d="M1621.2,2496.2c-1.2,0-2.4-0.1-3.6-0.5l-85.8-22c-27.5-7-44.9-33.5-40.5-61.6l37.5-236
				c4.5-28.1,30.2-48.3,58.5-46l95.9,7.9c7.9,0.6,13.8,7.6,13.1,15.5c-0.6,7.9-7.6,13.7-15.5,13.1l-95.9-7.9
				c-13.4-1.1-25.7,8.5-27.8,21.8l-37.5,236c-2.1,13.3,6.1,25.9,19.2,29.2l85.8,22c7.7,2,12.3,9.8,10.4,17.5
				C1633.5,2491.9,1627.6,2496.2,1621.2,2496.2z"/>
		</g>
		<g class="st1">
			<path class="st2" d="M1590.7,2440c-4,56.2-36.4,90.8-194,71.7c-147.7-17.8-275.5-65.4-301.9-147.7
				c23.5-45.1,49.5-88.3,76.8-129.3c7.5,0.8,14.8,3,21.2,6.6c41.7,23.5,113.4,104.7,355.8,116.1
				C1548.6,2357.5,1594.8,2383.9,1590.7,2440z"/>
		</g>
		<g>
			<path class="st0" d="M1548.6,2305.3c0,0,46.2,26.4,42.1,82.5c-4.1,56.2-36.4,90.8-194,71.7s-292.5-71.9-305.8-164.7
				s60.2-129.2,101.9-105.7C1234.4,2212.6,1306.2,2293.8,1548.6,2305.3z"/>
		</g>
		<g class="st1">
			<path class="st2" d="M1589.9,2396.2c-6.8,51.1-43.6,81.4-193.2,63.3c-157.6-19.1-292.5-71.9-305.8-164.7
				c-7.8-54.1,14-89.1,41.8-104.1c-3,13.7-3.7,29.5-1.1,47.5c13.3,92.8,148.2,145.7,305.8,164.7
				C1514.3,2412.2,1561.3,2408.7,1589.9,2396.2z"/>
		</g>
		<g>
			<path class="st2" d="M1473.3,2481.1c-22.7,0-48.7-1.8-78.6-5.4c-190.4-23-307-88.1-320-178.6c-7.2-50.4,8.1-92.6,42.1-115.9
				c26.1-17.9,59-20.3,83.9-6.3c7.4,4.2,15.3,9.8,24.5,16.2c43.9,30.9,125.5,88.5,324.1,97.9l3.9,0.2l3.4,1.9
				c2.3,1.3,55,32.2,50.3,97.9c-1.4,18.8-5.9,46.1-29.9,65.8C1555.6,2472.5,1522.4,2481.1,1473.3,2481.1z M1165.2,2198.4
				c-10,0-20.6,3.3-30,9.7c-23.4,16-33.7,46.8-28.3,84.4c10.6,73.7,119.6,130.1,291.7,150.9c82.8,10,134.4,5.5,157.7-13.7
				c11-9.1,16.6-22.3,18.1-43c2.7-37.8-22.3-59-31.1-65.3c-204.9-10.5-290.7-71-336.9-103.6c-8.4-5.9-15.7-11.1-21.7-14.4
				C1178.9,2200,1172.2,2198.4,1165.2,2198.4z"/>
		</g>
		<g class="st1">
			<path class="st2" d="M2052.5,2379.7l-5.4,91.3c-1.5,24.8-21.8,44.3-46.7,44.6c-16,0.2-35.9,0.3-58.6-0.1
				c-15.1-17.1-24.1-47.7-22-81.3c3.1-49.5,29.2-86.9,58.3-83.6c16.3,1.9,34.7,3.9,40.4,4.6c0.3,0.1,0.5,0.1,0.8,0.1
				c0.3,0,0.7,0,1,0.1C2033,2356.8,2044.2,2365.8,2052.5,2379.7z"/>
		</g>
		<g class="st1">
			<path class="st2" d="M2020.2,2388.2c-0.3,0-0.7,0-1-0.1C2019.9,2388.1,2020.2,2388.2,2020.2,2388.2z"/>
		</g>
		<g>
			<path class="st2" d="M1821.1,2525.9c-0.6,0-1.2,0-1.9-0.1c-7.9-1-13.4-8.2-12.4-16.1l16.1-123.3l-54.4-54
				c-3.1-3.1-4.7-7.5-4.1-11.9l17.5-146.2c0.9-7.9,8.1-13.5,16-12.6c7.9,0.9,13.5,8.1,12.6,16l-16.7,139.2l54.4,54
				c3.2,3.2,4.7,7.6,4.1,12.1l-17,130.3C1834.4,2520.6,1828.2,2525.9,1821.1,2525.9z"/>
		</g>
		<g>
			<g class="st1">
				<path class="st2" d="M2119.6,2165.5c-21.7,5-43.3,8.7-65,11.4c-5.4,0.7-10.9,1.3-16.3,1.9c-24.3,2.5-48.6,3.6-72.6,3.4
					c-35.6-0.3-70.8-3.5-105.3-9.4c-6.5-1.1-13-2.4-19.4-3.7c-6-1.2-12.1-2.5-18.1-3.9c-151.7-35.2-288-122.9-382.5-248.9
					c64.1-61.7,108.5-96.5,108.5-96.5s531,24.3,513,147c-5.8,39.7-10.9,81.2-15.3,122.9l59.1-15.4
					C2107.3,2106.9,2112.1,2137.3,2119.6,2165.5z"/>
			</g>
			<g>
				<path class="st0" d="M2541.4,1830.7c-64.2,90.7-151.4,165.6-256.1,215.3c-21.4,10.1-43.4,19.2-66.1,27.1
					c-11,3.9-22.3,7.5-33.8,10.9c-34.5,10.1-69.1,17.2-103.7,21.5c-29.8,3.8-59.5,5.5-89,5.2c-35.6-0.3-70.7-3.5-105.3-9.4
					c-12.6-2.2-25.1-4.7-37.5-7.6c-226.6-52.5-419-222.6-488.7-461.8c-102.7-352.4,99.7-721.3,452-824.1
					c67.9-19.7,136.4-28.3,203.5-26.5c7.8,0.1,15.7,0.5,23.6,1c21,1.3,41.8,3.6,62.4,6.8c47.6,7.5,94,20.2,138.4,37.6
					c44.4,17.3,86.8,39.4,126.4,65.8c12.6,8.4,24.9,17.2,36.9,26.4c18,13.9,35.4,28.6,52,44.4c82.9,78.3,146.7,179,180.9,296.4
					C2696.5,1462.7,2654.7,1670.8,2541.4,1830.7z"/>
				<path class="st2" d="M1998.7,2112.4c-2,0-4,0-6,0c-35-0.3-70.5-3.5-105.5-9.4c-12.5-2.2-25.1-4.7-37.5-7.6
					c-234.9-54.4-422.6-231.8-489.9-462.9c-102.8-352.7,100.5-723.2,453.1-826.1c66.9-19.5,135.6-28.4,204-26.5
					c7.5,0.1,15.4,0.5,23.6,1c20.9,1.3,42,3.6,62.6,6.8c47.3,7.5,93.9,20.2,138.7,37.7c44.4,17.3,87,39.5,126.7,65.9
					c12.8,8.5,25.2,17.4,37,26.5c18.4,14.2,35.9,29.2,52.1,44.5c85.5,80.8,148.2,183.6,181.3,297.2
					c57.3,196.4,22.2,404.9-96.3,572.1l-1.3-0.9l1.3,0.9c-65.7,92.7-154.5,167.3-256.8,215.9c-21.7,10.3-44,19.4-66.3,27.2
					c-10.2,3.6-21.3,7.2-33.8,10.9c-34.1,9.9-69.1,17.2-103.9,21.5C2054.6,2110.6,2026.7,2112.4,1998.7,2112.4z M1999.1,782.8
					c-62.2,0-124.5,8.9-185.3,26.6c-350.9,102.3-553.2,471.1-450.9,822c67,230,253.8,406.5,487.5,460.7c12.4,2.8,24.9,5.4,37.4,7.5
					c34.8,5.9,70.1,9.1,105,9.4c29.7,0.3,59.6-1.5,88.7-5.2c34.7-4.3,69.5-11.5,103.4-21.4c12.5-3.7,23.5-7.3,33.7-10.8
					c22.2-7.8,44.4-16.9,65.9-27.1c101.8-48.3,190.1-122.6,255.5-214.8c117.9-166.4,152.8-373.9,95.8-569.3
					c-32.9-113-95.3-215.3-180.4-295.7c-16.1-15.3-33.5-30.2-51.9-44.3c-11.7-9-24.1-17.9-36.9-26.3
					c-39.5-26.3-81.9-48.4-126.1-65.6c-44.6-17.5-91-30.1-138-37.6c-20.5-3.2-41.4-5.5-62.3-6.8c-8.1-0.6-16-0.9-23.5-1
					C2011,782.9,2005,782.8,1999.1,782.8z"/>
			</g>
			<g class="st1">
				<path class="st2" d="M1361.4,1631.9c69.7,239.3,262.1,409.3,488.7,461.8c12.4,2.9,24.9,5.4,37.4,7.6
					c34.5,5.9,69.7,9.1,105.3,9.4c29.4,0.2,59.2-1.4,89-5.2c34.6-4.3,69.2-11.4,103.7-21.5c11.4-3.4,22.7-7,33.7-10.9
					c22.7-7.9,44.7-17.1,66.1-27.2c104.7-49.7,191.9-124.7,256.1-215.3c35.3-49.8,63.7-104.3,84.2-161.9
					c-63.3,85.1-147.2,155.5-247.1,202.9c-21.4,10.2-43.4,19.2-66.1,27.2c-11,3.9-22.3,7.5-33.7,10.9
					c-34.5,10.1-69.1,17.2-103.7,21.5c-29.8,3.8-59.5,5.4-89,5.2c-35.5-0.3-70.8-3.5-105.3-9.4c-12.6-2.2-25.1-4.7-37.5-7.6
					c-226.6-52.5-419-222.5-488.7-461.8c-40.7-139.6-33.5-281.7,11.9-408.9C1346.4,1210.2,1300.7,1423.9,1361.4,1631.9z"/>
			</g>
			<g>
				<path class="st2" d="M1998.7,2123.4c-2,0-4,0-6,0c-35.6-0.3-71.7-3.5-107.3-9.6c-12.7-2.2-25.6-4.8-38.1-7.7
					c-238.7-55.3-429.5-235.6-498-470.6c-104.5-358.5,102.1-735.2,460.6-839.7c68-19.8,137.8-28.8,207.4-27
					c7.6,0.1,15.7,0.5,24.1,1.1c21.2,1.3,42.6,3.6,63.5,6.9c48.1,7.6,95.5,20.5,141,38.4c45.1,17.6,88.4,40.2,128.8,67
					c13,8.6,25.6,17.7,37.6,26.9c18.7,14.4,36.5,29.6,53,45.3c86.9,82.1,150.7,186.6,184.3,302.1c58.2,199.6,22.5,411.6-97.9,581.5
					l-10.3-7.3l10.3,7.3c-66.8,94.2-157,170.1-261,219.4c-22,10.4-44.7,19.7-67.4,27.7c-10.4,3.7-21.6,7.3-34.3,11.1
					c-34.7,10.1-70.3,17.5-105.7,21.9C2055.6,2121.6,2027.1,2123.4,1998.7,2123.4z M1999.2,793.8c-61.3,0-122.5,8.8-182.3,26.2
					c-345.1,100.6-544,463.3-443.4,808.4c65.9,226.2,249.6,399.8,479.4,453c12.1,2.8,24.5,5.3,36.8,7.4c34.2,5.8,68.9,8.9,103.2,9.2
					c29.3,0.2,58.6-1.5,87.3-5.1c34.1-4.3,68.4-11.4,101.7-21.1c12.2-3.6,23.1-7.1,33.1-10.7c21.9-7.6,43.7-16.6,64.9-26.7
					c100.1-47.5,187-120.5,251.2-211.2c115.9-163.6,150.3-367.7,94.2-559.9c-32.4-111.2-93.7-211.7-177.4-290.8
					c-15.8-15-33-29.7-51-43.6c-11.5-8.9-23.7-17.6-36.2-25.9c-38.9-25.9-80.6-47.6-124-64.5c-43.8-17.2-89.5-29.6-135.8-36.9
					c-20.1-3.2-40.7-5.4-61.2-6.7c-8-0.6-15.8-0.9-23-1C2010.8,793.9,2005,793.8,1999.2,793.8z"/>
			</g>
			<g>
				<path class="st2" d="M1998.7,2127c-2,0-4.1,0-6.1,0c-35.8-0.3-72.1-3.5-107.9-9.6c-12.8-2.2-25.7-4.8-38.4-7.7
					c-240-55.6-431.9-236.9-500.7-473.1c-105.1-360.4,102.7-739.1,463.1-844.2c68.4-19.9,138.5-29,208.5-27.1
					c7.6,0.1,15.8,0.5,24.2,1.1c21.3,1.3,42.8,3.6,63.8,7c48.3,7.6,96,20.6,141.8,38.6c45.3,17.7,88.9,40.4,129.5,67.4
					c13,8.7,25.8,17.8,37.9,27.1c18.8,14.5,36.7,29.8,53.3,45.5c87.4,82.6,151.5,187.6,185.3,303.7
					c58.5,200.7,22.7,413.8-98.4,584.7c-67.1,94.7-157.9,171-262.4,220.6c-22.1,10.5-44.9,19.8-67.7,27.8
					c-10.4,3.7-21.7,7.3-34.5,11.1c-34.9,10.2-70.7,17.6-106.3,22C2055.9,2125.2,2027.3,2127,1998.7,2127z M1999.2,797.5
					c-60.9,0-121.8,8.7-181.3,26c-343.2,100.1-541,460.7-440.9,803.9c65.5,224.9,248.2,397.5,476.7,450.5
					c12.1,2.8,24.4,5.2,36.6,7.4c34,5.8,68.5,8.9,102.6,9.2c29.1,0.2,58.3-1.4,86.8-5.1c34-4.2,68-11.3,101.2-21
					c12.2-3.6,22.9-7.1,32.9-10.6c21.8-7.6,43.5-16.5,64.6-26.5c99.5-47.2,185.9-119.9,249.8-210l0,0
					c115.3-162.7,149.4-365.6,93.7-556.7c-32.2-110.5-93.2-210.5-176.4-289.2c-15.7-15-32.8-29.5-50.7-43.3
					c-11.5-8.8-23.6-17.5-36-25.8c-38.6-25.7-80.1-47.3-123.3-64.2c-43.6-17.1-89-29.4-135-36.7c-20-3.2-40.5-5.4-60.9-6.6
					c-8-0.5-15.7-0.9-22.9-1C2010.8,797.6,2005,797.5,1999.2,797.5z"/>
			</g>
			<g>
				<path class="st2" d="M2425.9,1955.9c-419.1,223.5-921.8-32.5-893.3-502.1c19.4-319.5,347.2-547.2,652.8-508.9
					c222.5,27.9,427.5,152.4,478.6,509.4c0,0-1.8,161.6-57.8,262.5s-127.6,189.7-127.6,189.7L2425.9,1955.9z"/>
			</g>
			<g>
				<path class="st3" d="M1532.7,1453.7c-28.5,469.6,474.1,725.6,893.2,502.1l10.7-10c-434.5,24.6-827.6-281.2-807.6-756.5
					C1574,1265.3,1538.7,1355.1,1532.7,1453.7z"/>
			</g>
			<g>
				<path class="st2" d="M2082.5,2121.8l-1.3,0c-186.7-6.3-361.3-84-479-213.3c-112.5-123.7-166.3-282.7-155.6-460
					c9.9-163.1,90.1-314.9,225.9-427.7c147.8-122.7,344.5-182.3,526.2-159.5c102,12.8,191.7,42.5,266.4,88.3l1.4,0.9l1.2,1.2
					c87.4,82.6,151.5,187.6,185.3,303.7c58.5,200.7,22.7,413.8-98.4,584.7c-67.1,94.7-157.9,171-262.4,220.6
					c-22.1,10.5-44.9,19.8-67.7,27.8c-10.4,3.7-21.7,7.3-34.5,11.1c-34.9,10.2-70.7,17.6-106.3,22L2082.5,2121.8z M2121.2,889.1
					c-151.2,0-306.8,56.2-428,156.8c-128.8,106.9-204.8,250.6-214.2,404.6c-10.2,168.3,40.7,319.1,147.2,436.1
					c111.5,122.5,277.2,196.3,454.7,202.6c33.5-4.2,67.1-11.2,99.9-20.8c12.2-3.6,22.9-7.1,32.9-10.6c21.8-7.6,43.5-16.5,64.6-26.5
					c99.5-47.2,185.9-119.9,249.8-210l0,0c115.3-162.7,149.4-365.6,93.7-556.7c-32-110-92.6-209.5-175.2-288
					c-70.5-42.9-155.3-70.8-252-82.9C2170.4,890.6,2145.9,889.1,2121.2,889.1z"/>
			</g>
			<g>
				<path class="st2" d="M2104,2054c-119.8,0-236.9-32.3-337.2-96.8c-171.9-110.4-263.1-294.2-250.4-504.5
					c8.8-145.6,80.4-281.2,201.6-381.7c131.8-109.4,307.3-162.6,469.5-142.3c282.3,35.3,448,211.4,492.7,523.3l0.2,1.2l0,1.2
					c-0.1,6.8-2.5,166.9-59.8,270.2c-56.1,101-126.2,188.3-129.1,192l-1.6,1.7l-54.4,50.8l-1.9,1
					C2328.7,2026.1,2215.2,2054,2104,2054z M2118.4,957c-134.1,0-272.1,49.8-379.6,139.1c-114.2,94.8-181.6,222.1-189.9,358.7
					c-12,198.1,73.8,371.3,235.5,475.1c183,117.5,424.9,122.3,632,12.7l50.4-47.1c7.5-9.4,73.6-93.2,125.3-186.5
					c50.9-91.7,55.4-238.8,55.7-253.6c-42.6-294.8-198.8-461.1-464.3-494.3C2162,958.3,2140.2,957,2118.4,957z M2425.9,1955.9
					L2425.9,1955.9L2425.9,1955.9z"/>
			</g>
			<g>
				
					<ellipse transform="matrix(0.1285 -0.9917 0.9917 0.1285 -185.8807 2645.4939)" class="st0" cx="1412.2" cy="1428.5" rx="237.7" ry="172.7"/>
			</g>
			<g>
				<path class="st0" d="M1582.2,1459.4c-0.4,2.7-0.9,5.5-1.4,8.2c-23.6,129-118.3,216-211.4,194.4
					c-75.4-17.5-126.7-100.9-130.9-200.5c-1-23.4,0.6-47.6,5.1-72.1c23.6-128.9,118.3-216,211.4-194.4
					C1546.1,1216.1,1602,1333.5,1582.2,1459.4z"/>
			</g>
			<g class="st1">
				<path class="st2" d="M1582.2,1459.4c-0.4,2.7-0.9,5.5-1.4,8.2c-23.6,129-118.3,216-211.4,194.4
					c-75.4-17.5-126.7-100.9-130.9-200.5l179.8-89.1c0,0,21.8,106.5,82.7,116.7C1541.6,1496,1568.7,1474.4,1582.2,1459.4z"/>
			</g>
			<g>
				<path class="st2" d="M1398.3,1681.6c-10.9,0-21.7-1.2-32.5-3.8c-101.3-23.5-163.3-154.2-138.2-291.4l0,0
					c14.6-79.8,55.1-146.7,111.1-183.4c38.1-25,79.6-33.3,120-23.9c101.3,23.5,163.3,154.2,138.2,291.4
					c-14.6,79.8-55.1,146.7-111,183.4C1457.8,1672.3,1428.1,1681.6,1398.3,1681.6z M1259.6,1392.3c-22,120.3,28.9,234.2,113.5,253.8
					c31.5,7.3,64.3,0.6,94.8-19.4c47.8-31.4,84.1-92,96.9-162c22-120.3-28.9-234.2-113.5-253.8c-31.5-7.3-64.3-0.6-94.8,19.4
					C1308.6,1261.7,1272.4,1322.3,1259.6,1392.3L1259.6,1392.3z"/>
			</g>
			<g>
				
					<ellipse transform="matrix(9.441184e-02 -0.9955 0.9955 9.441184e-02 -205.4921 2650.0171)" class="st0" cx="1353.9" cy="1438" rx="188.6" ry="140.7"/>
				<path class="st2" d="M1345.7,1628c-20.5,0-40.6-6-59.2-17.8c-38.9-24.8-65.6-71.7-73.3-128.7c-13.8-101.8,38-204.3,115.4-228.4
					c32-10,64.1-5.6,92.7,12.6c38.9,24.8,65.6,71.7,73.3,128.7c13.8,101.8-38,204.3-115.4,228.4
					C1368,1626.3,1356.7,1628,1345.7,1628z M1362,1251.3c-10.7,0-21.6,1.7-32.5,5.1c-75.9,23.7-126.6,124.5-113,224.7
					c7.6,56,33.7,102,71.8,126.2c27.7,17.7,58.8,21.9,89.8,12.2c75.9-23.7,126.6-124.5,113-224.7c-7.6-56-33.7-102-71.8-126.2
					C1401.4,1257.1,1381.9,1251.3,1362,1251.3z"/>
			</g>
			<g class="st1">
				<path class="st2" d="M1470.2,1540.5c14.8-32.5,20.8-69.2,18.8-105.1c-40,71.3-114.9,89.7-173.2,39.8
					c-37.7-32.2-59.7-85.5-62.7-141c-2.6,4.5-4.9,9.2-7.2,14.2c-37.7,82.8-18.1,193,43.9,246
					C1351.8,1647.5,1432.5,1623.3,1470.2,1540.5z"/>
			</g>
			<g>
				<path class="st2" d="M1340.7,1642.3c-8.2,0-16.5-1-24.6-2.9c-78.3-18.8-125.5-126.4-105.2-239.7l0,0
					c12.1-67.7,46.3-125.8,91.5-155.3c28.7-18.7,59.7-24.8,89.6-17.7c78.3,18.8,125.5,126.4,105.2,239.7
					c-12.1,67.7-46.3,125.8-91.5,155.3C1384.8,1635.3,1362.7,1642.3,1340.7,1642.3z M1367.5,1256.3c-15.8,0-31.9,5.1-47.4,15.2
					c-37.8,24.7-66.7,74.7-77.2,133.8l0,0c-17.3,96.7,18.9,187.5,80.8,202.3c21,5,43.2,0.5,64.2-13.3
					c37.8-24.7,66.7-74.7,77.2-133.8c17.3-96.7-18.9-187.5-80.8-202.3C1378.8,1257,1373.2,1256.3,1367.5,1256.3z M1226.9,1402.5
					L1226.9,1402.5L1226.9,1402.5z"/>
			</g>
			<g class="st4">
				<path class="st0" d="M2021.8,1050.4c0,0,282.6,53.8,418.7,237.4c0.1,0.2,0.3,0.4,0.4,0.6c28.6,38.7,46.3,84.4,51.4,132.2
					c6.8,63.3,2.2,107.8-3.3,146.9c-16.9,118.9-47.1,171.5-47.1,171.5c76.6-53.2,124.8-119.1,139.9-218c1.5-9.8,2.6-19.9,3.4-30.3
					c0.2-2.4,0.4-4.8,0.5-7.2c0.1,0,0-0.1,0-0.1c0.2-21.2-0.5-49.1-4-80.5c-10.4-94.7-45.3-221.2-152.1-292.8
					C2230.2,976.3,2013.8,1036.6,2021.8,1050.4z"/>
			</g>
			<g class="st4">
				
					<ellipse transform="matrix(0.3918 -0.92 0.92 0.3918 -133.3406 2418.8127)" class="st0" cx="1762.9" cy="1310.3" rx="97.1" ry="83.3"/>
			</g>
			<g class="st4">
				
					<ellipse transform="matrix(0.4681 -0.8837 0.8837 0.4681 -416.4518 2283.6729)" class="st0" cx="1688.7" cy="1487.8" rx="40.1" ry="34.4"/>
			</g>
		</g>
		<g>
			<g class="st5">
				<path class="st2" d="M3305.6,2384.7l-183,657l-1022.7,117.7l19.5-70.1l899.2-103.4c36.8-4.2,67.4-30.4,77.4-66.1l166.6-598
					c0.9-3.2,1.5-6.3,1.8-9.5C3294.5,2320.3,3314.7,2352,3305.6,2384.7z"/>
			</g>
			<g class="st5">
				<polygon class="st2" points="2099.5,3163.1 2065.4,3219.9 2120.8,3236.1 3036,3134.2 3087.4,3100.7 3102.3,3045.3 				"/>
			</g>
			<g>
				<path class="st6" d="M1461.6,2931.8v13.3c0,34.9,21.5,66.1,54.1,78.6L2010,3213c65.4,21,136,27.8,205.8,19.8l785.9-90.4
					c73-8.4,125.7-68.3,117-133l0,0l-629.3-195.8L1461.6,2931.8z"/>
			</g>
			<g class="st1">
				<path class="st2" d="M3001.7,3142.4l-785.9,90.4c-69.8,8.1-140.4,1.3-205.8-19.8l-494.4-189.3c-32.6-12.5-54-43.8-54-78.6v-13.3
					l3.5-0.4c7.3,24.7,25.7,45.1,50.6,54.6l494.4,189.3c65.4,21,135.9,27.8,205.8,19.8l785.9-90.4c58.7-6.7,104.3-46.7,115.3-95.8
					l1.7,0.5C3127.4,3074.1,3074.7,3134,3001.7,3142.4z"/>
			</g>
			<g>
				<polygon class="st7" points="3124.8,3042.4 2097,3160.7 1461.6,2931.8 1530,2924 2489.4,2813.6 2799.9,2925.4 				"/>
			</g>
			<g class="st8">
				<polygon class="st0" points="3124.8,3042.4 2097,3160.7 1461.6,2931.8 1530,2924 2489.4,2813.6 2799.9,2925.4 				"/>
			</g>
			<g class="st5">
				<path class="st2" d="M3124.8,3042.4L2097,3160.7l-635.4-228.9l68.4-7.8c225.4,50.9,787.2,149.5,1269.9,1.4L3124.8,3042.4z"/>
			</g>
			<g>
				<path class="st2" d="M2097,3177c-1.9,0-3.7-0.3-5.5-1l-635.4-228.9c-7.1-2.6-11.5-9.7-10.7-17.2c0.9-7.5,6.8-13.4,14.3-14.3
					l1027.8-118.2c2.5-0.3,5,0,7.4,0.9l635.4,228.9c7.1,2.6,11.5,9.7,10.7,17.2c-0.9,7.5-6.8,13.4-14.3,14.3l-1027.8,118.2
					C2098.2,3176.9,2097.6,3177,2097,3177z M1532.5,2940.1l566.4,204l955-109.9l-566.4-204L1532.5,2940.1z"/>
			</g>
			<g>
				<path class="st2" d="M2159,3252.3c-52.6,0-104.9-8-154-23.8c-0.3-0.1-0.6-0.2-0.8-0.3l-494.3-189.3
					c-38.6-14.8-64.5-52.5-64.5-93.8v-13.3c0-8.3,6.2-15.2,14.4-16.2l1027.8-118.2c2.3-0.3,4.5,0,6.7,0.6l629.3,195.8
					c6,1.9,10.5,7.1,11.3,13.4c4.4,33-4.9,66.4-26.4,94c-24.6,31.6-62.8,52.5-104.9,57.3l-785.9,90.4
					C2198.2,3251.2,2178.6,3252.3,2159,3252.3z M2015.4,3197.6c62.8,20.1,131.5,26.7,198.5,19l785.9-90.4
					c33.5-3.9,63.7-20.2,82.9-45c13.8-17.8,21-38.6,20.6-59.6l-615.5-191.5l-1010,116.2c0.5,27.5,17.9,52.3,43.6,62.2L2015.4,3197.6
					z"/>
			</g>
			<g>
				<path class="st7" d="M3305.6,2385.7l-183.1,657l-418.8,48.2l-143.4,16.5l-77.9,9l-148.3,17.1l-234.4,26.9l195.9-702.9
					c6.4-23,26.1-39.8,49.7-42.5l793.9-91.3l75.8-8.8l27.3-3.1c11.9-1.3,23.2,0.9,32.8,5.7c16.8,8.4,28.9,24.7,31.9,43.5
					C3308.4,2368.9,3308,2377.3,3305.6,2385.7z"/>
			</g>
			<g class="st9">
				<path class="st0" d="M3307.2,2361l-603.4,729.9l-143.4,16.5c216.5-238.7,573.9-632.9,714.9-789.9
					C3292.1,2325.9,3304.2,2342.1,3307.2,2361z"/>
			</g>
			<g class="st9">
				<path class="st0" d="M3215.1,2314.9l-732.7,801.5l-148.3,17.1c231.3-232.1,640.5-642.9,805.2-809.8L3215.1,2314.9z"/>
			</g>
			<g>
				<g>
					<path class="st2" d="M2930.2,2668.1c1.3-11.6,2.9-23.4,0.6-35.2c-1-1.3-1.9-2.6-3-3.9c-3.4-1.2-6.6-2.8-10.1-3.7
						c-24.6-6.4-49.6-8.9-75-6.7c-33.1,2.9-63.5,13.1-89.6,34.1c-9.5,7.6-18.1,16.2-26.9,24.5c-2.4,2.3-4.2,3.2-7.5,1.7
						c-7.8-3.6-16.2-5.1-24.8-5.6c-22.9-1-43.4,6.4-62.5,18.4c-20.7,13-37.4,30.5-52.9,49.1c-6.6,7.9-4,16.7,5.8,20
						c6.2,2,12.4,4,18.6,6c14.9,4.8,29.7,9.6,44.6,14.4c0,0.5,0,0.7-0.1,0.9c-0.1,0.3-0.3,0.6-0.4,0.9c-6.2,8-4.7,15.3,1.8,22.2
						c0.7,0.8,1.3,1.7,1.9,2.5c3.4,4.5,6.9,9,10.5,13.7c-4.9,3.8-9.8,7.1-14.1,11c-2.2,2-4.1,4.8-4.9,7.7c-1.4,4.6,1,9.3,5.1,11.7
						c4.3,2.6,8.8,2.5,12.8-0.4c5.1-3.6,10-7.6,15.2-11.6c4.9,6.5,9.6,12.6,14.2,18.7c5.4,6.9,9,8.1,17.4,5.8c1.5-0.5,3-0.8,4.8-1.2
						c0.1,1.8,0.3,3.2,0.3,4.5c1.1,21.5,2,43,3.2,64.4c0.5,10.1,8.6,14.9,17.7,10.6c8.3-3.9,16.5-8,24.7-12.4
						c18.7-10.2,35.7-22.6,49.3-39.2c17-20.9,26.4-44.1,22-71.6c-0.2-1.1,0.7-2.9,1.7-3.5c8.3-5.4,16.9-10.4,25.3-15.8
						c18.9-12.3,34-28.3,45.9-47.4C2917.9,2726.8,2926.8,2698.4,2930.2,2668.1z M2659.8,2761c-17.2-5.6-35-11.4-53.3-17.4
						c18.9-20.1,38.9-37.6,65.9-45.1c11.6-3.2,25.1-2.9,33,0.3C2690.3,2719.5,2675.2,2740.1,2659.8,2761z M2804.3,2849.3
						c-4.4,13.9-12.7,25.3-23,35.4c-12.8,12.4-27.6,21.7-43.7,30.2c-1-19.7-2-39-2.9-58c24.3-9.4,48-18.7,71.9-27.9
						C2807.5,2835.6,2806.4,2842.5,2804.3,2849.3z M2894,2717.2c-7.8,18.4-18.1,35.2-32.7,49.2c-11.3,10.7-24.1,19.2-37.6,26.8
						c-36.6,20.6-75.7,34.9-115.8,46.9c-2,0.6-3.2,0.5-4.4-1.3c-2.8-4-5.9-7.8-8.9-11.7c-0.2-0.2-0.3-0.6-0.5-1.3
						c1-0.8,2.1-1.6,3.2-2.5c22.9-17.5,45.8-35,68.7-52.6c6.6-5,6.9-13.6,0.8-18.6c-4.3-3.5-9.9-3.4-14.8,0.3
						c-13.8,10.5-27.5,21-41.2,31.5c-10.2,7.8-20.4,15.6-31,23.8c-3.7-4.8-7.2-9.1-10.3-13.7c-0.5-0.8,0-2.9,0.7-3.9
						c12.2-18.2,24.3-36.5,36.9-54.3c12.5-17.7,26.8-34.1,42.5-49.2c14.7-14.2,30.6-26.8,49.9-34.2c12.4-4.8,25.1-8.1,38.3-9.5
						c1.2-0.2,2.9,1,3.8,2.1c13.4,17.3,26.6,34.6,39.9,52c4,5.2,7.9,10.4,12,15.5C2894.6,2714,2894.8,2715.3,2894,2717.2z
						 M2901.9,2693c-13.2-17.3-26.1-34.2-39.1-51.1c0-0.4,0.1-0.8,0.2-1.3c15.1,1.8,30.2,3.6,45.4,5.5
						C2908.2,2662.5,2905.7,2677.5,2901.9,2693z"/>
				</g>
				<g>
					<path class="st0" d="M2893.4,2712.4c-4.1-5.1-8-10.4-12-15.5c-13.3-17.4-26.5-34.7-39.9-52c-0.8-1.1-2.6-2.3-3.8-2.1
						c-13.2,1.4-25.9,4.7-38.3,9.5c-19.3,7.5-35.2,20-49.9,34.2c-15.7,15-29.9,31.4-42.5,49.2c-12.7,17.9-24.8,36.1-36.9,54.3
						c-0.7,1-1.3,3.1-0.7,3.9c3.2,4.6,6.7,8.9,10.3,13.7c10.6-8.2,20.8-15.9,31-23.8c13.7-10.5,27.4-21,41.2-31.5
						c4.9-3.7,10.6-3.8,14.8-0.3c6.1,5,5.8,13.6-0.8,18.6c-22.9,17.6-45.8,35.1-68.7,52.6c-1.1,0.8-2.2,1.7-3.2,2.5
						c0.3,0.7,0.3,1.1,0.5,1.3c3,3.9,6.1,7.7,8.9,11.7c1.3,1.8,2.5,1.9,4.4,1.3c40.1-12,79.2-26.3,115.8-46.9
						c13.5-7.6,26.3-16.2,37.6-26.8c14.6-13.9,24.9-30.7,32.7-49.2C2894.8,2715.3,2894.6,2714,2893.4,2712.4z M2853.3,2738.9
						c-17.5,13.2-42.2,9.9-55.3-7.3c-13.2-17.2-9.9-41.9,7.4-55.3c17-13.1,41.7-9.7,55,7.5C2873.5,2701,2870.3,2726.1,2853.3,2738.9
						z"/>
				</g>
				<g>
					<path class="st10" d="M2901.9,2693c-13.2-17.3-26.2-34.2-39.1-51.1c0-0.4,0.1-0.8,0.2-1.3c15.1,1.8,30.2,3.7,45.4,5.5
						C2908.2,2662.5,2905.7,2677.5,2901.9,2693z"/>
				</g>
				<g>
					<path class="st10" d="M2705.4,2698.9c-15.1,20.6-30.2,41.2-45.6,62.1c-17.2-5.6-35-11.4-53.3-17.4
						c18.9-20.1,38.9-37.7,65.9-45.1C2684,2695.4,2697.4,2695.7,2705.4,2698.9z"/>
				</g>
				<g>
					<path class="st10" d="M2781.3,2884.7c-12.8,12.4-27.6,21.7-43.7,30.2c-1-19.7-2-39-2.9-58c24.3-9.4,48-18.7,71.9-28
						c0.9,6.6-0.2,13.5-2.3,20.4C2799.9,2863.3,2791.6,2874.6,2781.3,2884.7z"/>
				</g>
				<g>
					<path class="st2" d="M2860.4,2683.9c-13.2-17.2-38-20.6-55-7.5c-17.3,13.4-20.6,38.1-7.4,55.3c13.1,17.2,37.8,20.5,55.3,7.3
						C2870.3,2726.1,2873.5,2701,2860.4,2683.9z M2841.5,2724.4c-8.9,6.7-21.9,4.9-28.8-3.9c-7.1-9.1-5.2-22.5,4.3-29.5
						c8.8-6.6,22.1-4.7,28.8,4.2C2852.7,2704.4,2850.8,2717.3,2841.5,2724.4z"/>
				</g>
				<g>
					<path class="st11" d="M2841.5,2724.4c-8.9,6.7-21.9,4.9-28.8-3.9c-7.1-9.1-5.2-22.5,4.3-29.5c8.9-6.6,22.1-4.7,28.7,4.2
						C2852.7,2704.4,2850.8,2717.4,2841.5,2724.4z"/>
				</g>
			</g>
			<g class="st8">
				<path class="st0" d="M3302.1,2362c-4.8-0.7-9.9-0.8-15-0.2L2390,2465c-23.7,2.8-43.4,19.5-49.8,42.5l-178.2,639.4l-68,7.8
					l195.9-702.9c6.4-23,26.1-39.8,49.8-42.5l897.1-103.2C3271.9,2302.1,3300.9,2329.2,3302.1,2362z"/>
			</g>
			<g>
				<path class="st2" d="M2099.8,3176.7c-4.7,0-9.3-2.1-12.4-5.7c-3.5-4.1-4.8-9.7-3.3-14.9l195.9-702.9
					c8.2-29.5,33.2-50.8,63.6-54.3l897.1-103.2c24.8-2.9,49.3,6.8,65.5,25.8c16.2,19,21.9,44.7,15.2,68.7l-183.1,657
					c-1.8,6.4-7.2,11-13.8,11.8l-1022.7,117.7C2101.1,3176.6,2100.4,3176.7,2099.8,3176.7z M3249.4,2327.6c-1.7,0-3.4,0.1-5.1,0.3
					l-897.1,103.2c-17.2,2-31.3,14-35.9,30.7L2122,3141.4l987.8-113.6l180.1-646.5c3.8-13.8,0.7-27.9-8.6-38.8
					C3273.2,2332.9,3261.7,2327.6,3249.4,2327.6z M3122.6,3042.7L3122.6,3042.7L3122.6,3042.7z"/>
			</g>
		</g>
		<g>
			<path class="st0" d="M1359.2,2144.1c0,0,26.6,278.9,171.7,462.2c141.5,178.8,294.9,186.1,294.9,186.1s49.5,105.3,114.5,127.3
				c65.7,22.2,190.1-8.1,216.9-112.5c28.3-110.4,1-271.7-88.1-291.5c-89.1-19.8-427-117.4-442-441.5"/>
		</g>
		<g class="st1">
			<path class="st2" d="M2157.2,2807.2c-26.8,104.4-151.2,134.7-216.9,112.5c-65.1-22-114.5-127.3-114.5-127.3
				s-153.4-7.3-294.9-186.1c-94.2-119.1-138.5-278.4-157.9-375.5c25.6,87.9,67.1,191.5,133.3,275.2c141.5,178.8,295,186.1,295,186.1
				s49.4,105.4,114.5,127.3c65.7,22.2,190.2-8.1,216.9-112.5c9.6-37.6,12.8-81.1,9.3-122.9
				C2170.7,2645.9,2175.2,2736.9,2157.2,2807.2z"/>
		</g>
		<g>
			<path class="st2" d="M1364.6,2143.6c20.4,68.5,35,137.2,56.5,204.2l7.9,25.1l8.7,24.8c5.5,16.7,12.6,32.7,19,49
				c3.4,8.1,7.3,15.9,10.9,23.9l5.5,11.9l2.8,5.9l3.1,5.8c8.5,15.2,16.1,31,25.8,45.5l13.8,22.1l15.3,21
				c9.7,14.3,21.6,27.2,32.7,40.6c2.7,3.4,5.8,6.5,8.8,9.6l9,9.4c6,6.3,11.9,12.6,18.5,18.3l19.2,17.5l20.2,16.3
				c27.4,21,56.9,39.3,88.1,53.5c15.5,7.3,31.6,13.2,47.9,18.2l12.3,3.5l12.3,2.9c4.1,0.8,8.2,1.6,12.3,2.2c4,0.6,8.4,1.2,11.6,1.4
				l9.7,0.7l4.2,8.7c6.1,12.5,13.5,25.5,21.3,37.7c7.8,12.2,16.2,24.1,25.3,35.1c9.2,10.9,19,21,29.6,29.6l8.1,5.9
				c2.7,1.8,5.6,3.3,8.4,5c2.8,1.9,5.7,2.6,8.6,4c1.5,0.6,2.8,1.3,4.3,1.8l4.6,1.4c25.4,6.7,54.5,5.4,81.3-1.6
				c26.9-6.9,52.3-19.9,72.1-38.3c9.8-9.3,18.3-19.9,24.8-31.6c3.1-5.9,6.1-11.9,8.3-18.3c1.2-3.1,2.2-6.3,3.1-9.6
				c1-3.1,1.8-6.7,2.6-10.2c6.4-27.9,9-57.1,8.5-86.1c-0.6-29-4.3-58-12-85.4c-7.6-27.3-19.7-53.6-37.9-72.3
				c-9.1-9.1-19.6-16.1-31.3-19.5l-4.4-1.2l-5.5-1.3l-11.3-2.7c-7.5-1.9-15-3.8-22.4-6c-29.7-8.4-58.9-18.5-87.4-30.3
				c-57-23.7-111.7-53.9-160.4-92.9c-24.3-19.5-47-41.2-67.3-65c-20.3-23.9-38.1-50-53.2-77.6c-15.2-27.5-27.8-57-34.1-87.9
				c-6.7-30.7-8.6-62.6-2.7-93.5c0.6-3,3.5-5,6.5-4.4c2.1,0.4,3.7,1.9,4.3,3.8l0,0.1c9.3,29.4,15.9,57.7,24.2,85.5
				c2.3,6.9,4.5,13.8,6.6,20.7c2.6,6.7,5,13.6,7.4,20.4c5.3,13.4,10.6,26.9,17.3,39.7c13.1,25.8,29.6,49.9,48.5,72.1
				c18.8,22.2,40.1,42.4,62.9,60.7c45.8,36.7,97.9,65.6,152.5,88.2c27.3,11.3,55.4,21,83.9,29.1c7.1,2,14.3,3.9,21.4,5.7l10.7,2.6
				l5.5,1.3l6.6,1.8c17.5,5.1,32.8,15.6,44.9,27.8c24.1,25,37.3,55.8,46.1,86.4c8.6,30.8,12.5,62.2,13.2,93.7
				c0.5,31.4-2.2,63-9.3,94c-0.9,3.9-1.7,7.7-3,11.8c-1.1,4-2.4,8-3.9,11.9c-2.8,7.9-6.5,15.5-10.5,22.9c-8.2,14.7-18.9,28-31,39.4
				c-24.5,22.8-54.7,38-86.2,46.1c-15.8,4.1-32,6.4-48.4,6.9c-16.4,0.4-33.1-1-49.7-5.5l-6.2-1.9c-2.1-0.7-4.1-1.6-6.2-2.5
				c-4-1.8-8.4-3.2-12-5.6c-3.7-2.2-7.6-4.2-11.1-6.6l-10.2-7.4c-13-10.4-24.2-22.1-34.5-34.3c-10.2-12.3-19.3-25.2-27.7-38.4
				c-8.4-13.4-16.1-26.6-23.2-41.3l14,9.3c-5.8-0.4-10.1-1-15-1.8c-4.7-0.7-9.3-1.7-14-2.6l-13.7-3.2l-13.5-3.8
				c-17.8-5.5-35.3-11.9-52.1-19.8c-33.7-15.4-65.2-35-94.4-57.4l-21.5-17.3l-20.4-18.5c-6.9-6-13.2-12.8-19.5-19.4l-9.5-9.9
				c-3.2-3.3-6.4-6.6-9.3-10.1c-11.7-14.1-24.1-27.5-34.4-42.7l-16.2-22.2l-14.5-23.2c-38.4-62.3-67-129.6-89.4-198.4
				c-10.9-34.6-19.8-69.7-26-105.3c-1.7-8.9-3-17.8-4.1-26.8c-1.3-8.9-2.1-18-2.9-27c-1.4-18.1-2.1-36.1-0.7-54.5
				c0.2-3,2.9-5.3,5.9-5.1c2.3,0.2,4.2,1.8,4.9,3.9L1364.6,2143.6z"/>
		</g>
		<g>
			<path class="st2" d="M1825.8,2806.7c-5.8,0-11.3-3.6-13.5-9.3c-16.1-43-36.6-41-37.5-40.9l0.5-0.1l-5.8-28.2
				c1.8-0.4,44.4-8.3,69.6,59.1c2.8,7.4-1,15.7-8.4,18.5C1829.2,2806.5,1827.5,2806.7,1825.8,2806.7z"/>
		</g>
		<g>
			<path class="st0" d="M1249.6,2935.1c0,0-10.1-157.9,27.6-225.3c63.2-112.9,200.5-79.6,247.5-59.2
				c67.4,29.2-142.8,496.5-142.8,496.5"/>
		</g>
		<g>
			<path class="st2" d="M1198.9,2872.9c1.5-21.3,4.6-42.3,8.8-63.1c4.2-20.8,9.6-41.5,16.4-61.9c3.4-10.2,7.2-20.3,11.6-30.3
				c2.2-5,4.3-10,6.9-14.9c2.5-4.9,4.9-9.8,7.9-14.8c11.8-19.6,28.2-37.1,47.8-49.7c19.5-12.7,41.7-20.5,63.9-24.5
				c22.3-4,44.7-4.4,66.7-2.6c22,1.8,43.6,5.9,64.7,11.7c10.6,3,21,6.3,31.4,10.4l3.9,1.6l2,0.8c0.8,0.3,2.3,1.1,3.4,1.7
				c4.7,2.6,8.4,6.5,11,10.2c5.1,7.7,6.7,14.8,7.9,21.3c2,12.9,1.3,24.4,0.3,35.6c-1.1,11.2-2.9,22-5,32.6
				c-4.2,21.3-9.7,41.9-15.7,62.4c-11.9,40.8-25.8,80.7-40.4,120.3c-14.5,39.6-30.2,78.7-46.5,117.5
				c-16.3,38.8-32.9,77.4-50.8,115.7c-3.3,7.2-11.9,10.3-19.1,7c-7-3.3-10.2-11.5-7.2-18.6l0.1-0.1c16.3-38.3,32.4-77,48-115.8
				c15.5-38.8,30.5-77.8,45-116.9c14.3-39.1,27.9-78.5,39.4-118.2c5.7-19.8,10.9-39.8,14.9-59.6c2-9.9,3.7-19.8,4.8-29.5
				c1-9.6,1.4-19.3,0.2-27.2c-0.5-3.8-1.7-7.1-2.5-8.1c-0.4-0.6-0.4-0.5-0.3-0.5l-5.2-2.2c-9.1-3.6-18.6-6.8-28.2-9.5
				c-19.3-5.5-39-9.3-58.8-11.3c-19.8-1.9-39.6-1.7-58.7,1.5c-19.1,3.1-37.3,9.4-53.1,19.4c-15.9,9.9-29.1,23.6-39.2,39.7
				c-2.5,4-4.8,8.4-7.2,12.8c-2.5,4.3-4.6,8.9-6.8,13.4c-4.3,9.1-8.4,18.4-12.3,27.9c-15.4,37.9-27.9,77.7-40.3,117.6l0,0.1
				c-0.8,2.6-3.5,4-6.1,3.2C1200.2,2877.2,1198.8,2875.1,1198.9,2872.9z"/>
		</g>
		<g>
			<path class="st12" d="M1344.9,3224.4c0,0-52.9-5.7-76.9-84.8c-23.9-79.1,17-173.9,26.2-264.2c15.6-152.8,74.5-237.7,205.6-229.2
				c127.3,8.2,93.7,193.9,71.2,286.8C1537.7,3070.7,1487.9,3232.8,1344.9,3224.4z"/>
		</g>
		<g class="st1">
			<path class="st2" d="M1556.7,2988.8c-33.9,122-87.8,242.9-211.8,235.6c0,0-52.9-5.7-76.8-84.8c-19.7-65.2,4.6-141.1,18.9-216.4
				c-2,28.6-0.4,56.1,7.4,82.2c26.6,87.8,85.4,94.1,85.4,94.1C1463.2,3104.4,1518,3057.1,1556.7,2988.8z"/>
		</g>
		<g>
			<path class="st2" d="M1261.1,3112c-7,0-12.7-5.6-12.7-12.6c0-7,5.6-12.8,12.6-12.8l257.2-1.7c7.1-0.2,12.8,5.6,12.8,12.6
				c0,7-5.6,12.8-12.6,12.8L1261.1,3112C1261.1,3112,1261.1,3112,1261.1,3112z"/>
		</g>
		<g>
			<path class="st2" d="M1272.6,3004.6c-7,0-12.7-5.6-12.7-12.6c0-7,5.6-12.8,12.6-12.8l283.7-1.9c0,0,0.1,0,0.1,0
				c7,0,12.7,5.6,12.7,12.6c0,7-5.6,12.8-12.6,12.8L1272.6,3004.6C1272.7,3004.6,1272.7,3004.6,1272.6,3004.6z"/>
		</g>
		<g>
			<path class="st2" d="M1293.5,2894.6c-7,0-12.7-5.6-12.7-12.6c0-7,5.6-12.8,12.6-12.8l288.9-2c0,0,0.1,0,0.1,0
				c7,0,12.7,5.6,12.7,12.6c0,7-5.6,12.8-12.6,12.8L1293.5,2894.6C1293.6,2894.6,1293.5,2894.6,1293.5,2894.6z"/>
		</g>
		<g>
			<path class="st2" d="M1318.1,2776.4c-7,0-12.7-5.6-12.7-12.6c0-7,5.6-12.8,12.6-12.8l273.8-1.8c7.1-0.1,12.8,5.6,12.8,12.6
				c0,7-5.6,12.8-12.6,12.8L1318.1,2776.4C1318.1,2776.4,1318.1,2776.4,1318.1,2776.4z"/>
		</g>
		<g class="st4">
			<path class="st0" d="M1571.3,2932c16.9-96.2,20.1-220.9-83.7-227.7c-103.5-6.7-162.1,44.9-189.8,142
				c19.9-134.5,79.5-208.2,202-200.3C1626.7,2654.3,1593.8,2838.8,1571.3,2932z"/>
		</g>
		<g>
			<path class="st0" d="M1297.8,2846.4c-1.4,9.4-2.6,19-3.6,29c-3.7,36.7-12.7,74.2-20.5,111c3.5-17.7,6.4-35.3,8.2-52.8
				C1285.2,2901.4,1290.5,2872.3,1297.8,2846.4z"/>
		</g>
		<g class="st1">
			<path class="st2" d="M1312.4,2780.4c-5.2,25.6-11.1,51.1-16,76.2C1300.1,2828.7,1305.3,2803.2,1312.4,2780.4z"/>
		</g>
		<g class="st1">
			<path class="st2" d="M1296.4,2856.7c-0.8,6.1-1.5,12.4-2.2,18.7c-1.6,15.9-4.2,31.9-7.3,47.9
				C1288.5,2901.5,1292,2879.2,1296.4,2856.7z"/>
		</g>
		<g>
			<path class="st2" d="M1355.4,3241c-3.8,0-7.6-0.1-11.5-0.3l-0.8-0.1c-2.6-0.3-64-7.9-90.7-96.3c-17.2-56.7-3.5-120.1,9.6-181.3
				c6.4-29.5,12.9-60.1,15.9-89.3c17.6-172.6,90.5-252.4,222.9-243.8c34.3,2.2,61.1,16,79.5,41c35.9,48.8,38,135.7,6.5,265.9
				C1561,3043.9,1513.2,3241,1355.4,3241z M1346.5,3208.2c128.5,7.1,175.2-140.3,208.8-279c35.7-147.7,19.1-211.4-1.1-238.9
				c-12.6-17.1-30.7-26.2-55.3-27.8c-114.4-7.4-172.5,58.8-188.4,214.6c-3.2,31-9.9,62.5-16.5,92.9c-12.9,59.8-25,116.3-10.3,165
				C1303.1,3199.4,1343.2,3207.6,1346.5,3208.2z"/>
		</g>
		<g>
			<path class="st2" d="M1355.4,3237.4c-3.7,0-7.4-0.1-11.2-0.3l-0.6,0c-2.5-0.3-61.6-7.6-87.7-93.8c-16.9-55.9-3.4-118.7,9.7-179.5
				c6.4-29.6,13-60.3,16-89.7c17.4-170.3,89-249.1,219.1-240.6c33.2,2.1,59.1,15.5,76.8,39.6c34.7,47.2,36.7,135.6,5.9,262.9
				C1557.7,3042,1510.4,3237.4,1355.4,3237.4z M1346.1,3211.7c131.3,7.4,178.6-141.6,212.6-281.8c36.1-149,19-213.8-1.7-241.9
				c-13.3-18-32.2-27.6-58-29.3c-115.2-7.5-176.3,61.8-192.2,217.8c-3.1,30.8-9.9,62.2-16.4,92.5c-13,60.3-25.2,117.2-10.2,166.8
				C1300.5,3203,1342,3211.1,1346.1,3211.7z"/>
		</g>
		<g>
			<path class="st2" d="M1141.3,2986.8c9.2,4.9,17.5,11,25.5,17.5c7.9,6.6,15.4,13.9,22.3,21.7c6.9,7.8,13.4,16.1,18.7,25.3
				c5.4,9,9.7,19,12.3,29.4c1.7,6.8-2.4,13.8-9.3,15.5c-5.7,1.4-11.4-1.2-14.2-6l-0.4-0.7c-4.7-8.1-8.2-16.6-12.6-24.9
				c-4.3-8.3-8.4-16.8-13.2-25.2c-9.4-16.8-20.1-33.2-31.6-49.8l0-0.1c-0.6-0.8-0.4-2,0.5-2.6
				C1140,2986.5,1140.7,2986.5,1141.3,2986.8z"/>
		</g>
		<g>
			<path class="st11" d="M2024.9,2369.2c-0.6,7.4-16.1,66.3-16.1,66.3s-18.9-1.6-42.2-3.6c-29-2.5-50-34.5-46.9-71.6
				c3.1-37.1,29.2-65.2,58.3-62.7c19.6,1.7,42.2,3.6,42.2,3.6S2026,2357.1,2024.9,2369.2z"/>
		</g>
		<g>
			<path class="st0" d="M2024.9,2369.2c-0.6,7.4-16.1,66.3-16.1,66.3s-0.5,0-1.4-0.1c4.4-17,9.3-37.2,9.7-41.4c1-12.1-4.7-68-4.7-68
				s-22.6-1.9-42.2-3.6c-20.3-1.7-39.2,11.5-49.8,32.2c5.1-34.2,30-59.4,57.6-57c19.6,1.7,42.2,3.6,42.2,3.6
				S2026,2357.1,2024.9,2369.2z"/>
		</g>
		<g class="st1">
			<path class="st2" d="M2024.9,2369.2c-0.6,7.4-16.1,66.3-16.1,66.3s-18.9-1.6-42.2-3.6c-29.1-2.5-50-34.5-46.9-71.6
				c0.7-8.8,2.8-17.1,5.8-24.6c6.7,22.8,23.3,39.4,43.9,41.1c23.2,2,42.2,3.6,42.2,3.6s6.8-26.1,11.6-45.7
				C2024.5,2348.9,2025.4,2363.6,2024.9,2369.2z"/>
		</g>
		<g>
			<path class="st2" d="M1997.3,2446.6c-0.8,0-1.6,0-2.4-0.1l-29.3-2.5c-17.9-1.5-33.7-11.6-44.7-28.3
				c-10.3-15.8-15.1-35.9-13.3-56.5c1.7-20.6,9.8-39.6,22.6-53.5c13.6-14.7,31-21.9,48.8-20.4l29.4,2.5
				c13.3,1.1,23.8,11.6,25.1,24.9c2.9,31,4.1,50.3,3.5,57.4c-0.2,1.9-0.6,7-13.2,55.8C2020.8,2438.2,2009.8,2446.6,1997.3,2446.6z
				 M1974.5,2309.6c-9.4,0-18.7,4.5-26.4,12.8c-9.2,9.9-14.9,23.7-16.2,38.9c-1.3,15.2,2.1,29.8,9.4,41.1
				c6.8,10.3,16.1,16.5,26.3,17.3l29.3,2.5c1.5,0.2,2.9-0.8,3.3-2.3c8.7-33.8,12.2-49,12.5-51.8c0.2-2.1,0.4-12-3.5-53.1
				c-0.1-1.5-1.3-2.7-2.8-2.8l-29.4-2.5C1976.2,2309.7,1975.4,2309.6,1974.5,2309.6z M2024.9,2369.2L2024.9,2369.2L2024.9,2369.2z"
				/>
		</g>
		<g>
			
				<ellipse transform="matrix(8.434258e-02 -0.9964 0.9964 8.434258e-02 -515.2252 4175.9033)" class="st11" cx="2014.5" cy="2368.3" rx="67.4" ry="52.8"/>
		</g>
		<g>
			<path class="st0" d="M2067.1,2372.7c-0.4,4.5-1.1,8.8-2.1,13c-2.2-31.2-21.5-56.1-47-58.3c-25.5-2.1-48.8,19.3-56.1,49.7
				c-0.3-4.4-0.3-8.8,0.1-13.4c3.1-37.1,29.2-65.1,58.3-62.7C2049.3,2303.6,2070.2,2335.7,2067.1,2372.7z"/>
		</g>
		<g class="st1">
			<path class="st2" d="M2067.1,2372.7c-3.1,37.1-29.2,65.1-58.2,62.7c-29.1-2.5-50-34.5-46.9-71.6c0.8-9.1,3-17.8,6.2-25.5
				c5.8,25,23.2,43.6,45,45.5c21.8,1.8,42-13.6,52-37.3C2067.2,2354.8,2067.9,2363.6,2067.1,2372.7z"/>
		</g>
		<g>
			<path class="st2" d="M2012.3,2447.8c-1.5,0-3-0.1-4.5-0.2c-17.9-1.5-33.7-11.6-44.7-28.3c-10.3-15.8-15.1-35.9-13.3-56.5
				c1.7-20.6,9.8-39.6,22.6-53.5c13.6-14.7,31-21.9,48.8-20.4c17.9,1.5,33.7,11.6,44.7,28.3c10.3,15.8,15.1,35.9,13.3,56.5
				C2075.7,2415.6,2046.2,2447.8,2012.3,2447.8z M2016.7,2313.2c-9.4,0-18.7,4.5-26.4,12.8c-9.2,9.9-14.9,23.7-16.2,38.9
				c-1.3,15.2,2.1,29.8,9.4,41.1c6.8,10.3,16.1,16.5,26.3,17.3c22.3,1.9,42.5-21.2,45.1-51.6l0,0c1.3-15.2-2.1-29.8-9.4-41.1
				c-6.8-10.3-16.1-16.5-26.3-17.3C2018.4,2313.2,2017.5,2313.2,2016.7,2313.2z"/>
		</g>
	</g>
</g>
</svg>
