<?xml version="1.0" encoding="utf-8"?>
<!-- Generator: Adobe Illustrator 24.2.3, SVG Export Plug-In . SVG Version: 6.00 Build 0)  -->
<svg version="1.1" id="Capa_1" xmlns="http://www.w3.org/2000/svg" xmlns:xlink="http://www.w3.org/1999/xlink" x="0px" y="0px"
	 viewBox="0 0 512 512" style="enable-background:new 0 0 512 512;" xml:space="preserve">
<style type="text/css">
	.st0{fill:#313133;}
	.st1{fill:#3C3B40;}
	.st2{fill:#C8C6CB;}
	.st3{fill:#FFFFFF;}
	.st4{fill:#383838;}
	.st5{fill:#2B2B2B;}
	.st6{fill:#AEADB2;}
	.st7{fill:#99989B;}
	.st8{fill:#0076FF;}
	.st9{fill:#0092FF;}
	.st10{fill:#00B9FF;}
	.st11{fill:#FF3D3B;}
	.st12{fill:#EA005C;}
	.st13{fill:#BF005E;}
	.st14{fill:#FDD425;}
	.st15{fill:#FF9A01;}
	.st16{fill:url(#SVGID_1_);}
	.st17{fill:url(#SVGID_2_);}
	.st18{fill:url(#SVGID_3_);}
	.st19{fill:url(#SVGID_4_);}
	.st20{fill:url(#SVGID_5_);}
	.st21{fill:url(#SVGID_6_);}
	.st22{fill:url(#SVGID_7_);}
	.st23{fill:url(#SVGID_8_);}
	.st24{fill:url(#SVGID_9_);}
	.st25{fill:url(#SVGID_10_);}
	.st26{fill:url(#SVGID_11_);}
	.st27{fill:url(#SVGID_12_);}
	.st28{fill:url(#SVGID_13_);}
	.st29{fill:url(#SVGID_14_);}
	.st30{fill:url(#SVGID_15_);}
	.st31{fill:url(#SVGID_16_);}
	.st32{fill:url(#SVGID_17_);}
	.st33{fill:url(#SVGID_18_);}
	.st34{fill:url(#SVGID_19_);}
	.st35{fill:url(#SVGID_20_);}
	.st36{fill:url(#SVGID_21_);}
	.st37{fill:url(#SVGID_22_);}
	.st38{fill:url(#SVGID_23_);}
	.st39{fill:url(#SVGID_24_);}
	.st40{fill:url(#SVGID_25_);}
	.st41{fill:url(#SVGID_26_);}
	.st42{fill:url(#SVGID_27_);}
	.st43{fill:url(#SVGID_28_);}
	.st44{fill:url(#SVGID_29_);}
</style>
<g>
	<g>
		<g>
			<g>
				<g>
					<path class="st0" d="M240.1,329.5l28.8,28.8l27.4-30.2l-26-26L240.1,329.5z"/>
					<path class="st1" d="M240.1,329.5l14.4,14.4l28.8-28.8l-13-13L240.1,329.5z"/>
					<path class="st2" d="M237.3,324.5c-2.9,2.9-2.9,7.5,0,10.3l27.3,27.3c1.4,1.4,3.3,2.1,5.2,2.1c1.9,0,3.7-0.7,5.2-2.1
						c2.9-2.9,2.9-7.5,0-10.3l-27.3-27.3c-1.4-1.4-3.3-2.1-5.2-2.1C240.5,322.3,238.6,323,237.3,324.5z"/>
					<path class="st3" d="M237.3,324.5c-2.9,2.9-2.9,7.5,0,10.3l13.2,13.2l10.3-10.3l-13.2-13.2c-1.4-1.4-3.3-2.1-5.2-2.1
						S238.6,323,237.3,324.5L237.3,324.5z"/>
				</g>
				<g>
					<path class="st0" d="M153,242.4l28.8,28.8l27.4-30.2l-26-26L153,242.4z"/>
					<path class="st1" d="M153,242.4l14.4,14.4l28.8-28.8l-13-13L153,242.4z"/>
					<path class="st2" d="M150.2,237.4c-2.9,2.9-2.9,7.5,0,10.3l27.3,27.3c1.4,1.4,3.3,2.1,5.2,2.1s3.7-0.7,5.2-2.1
						c2.9-2.9,2.9-7.5,0-10.3l-27.3-27.3c-1.4-1.4-3.3-2.1-5.2-2.1C153.5,235.2,151.6,235.9,150.2,237.4z"/>
					<path class="st3" d="M150.2,237.4c-2.9,2.9-2.9,7.5,0,10.3l13.2,13.2l10.3-10.3l-13.2-13.2c-1.4-1.4-3.3-2.1-5.2-2.1
						C153.5,235.2,151.6,235.9,150.2,237.4z"/>
				</g>
			</g>
			<g>
				<path class="st0" d="M196.6,285.9l28.8,28.8l27.4-30.2l-26-26L196.6,285.9z"/>
				<path class="st1" d="M196.6,285.9l14.4,14.4l28.8-28.8l-13-13L196.6,285.9z"/>
				<path class="st2" d="M193.7,280.9c-2.9,2.9-2.9,7.5,0,10.3l27.3,27.3c1.4,1.4,3.3,2.1,5.2,2.1s3.7-0.7,5.2-2.1
					c2.9-2.9,2.9-7.5,0-10.3l-27.3-27.3c-1.4-1.4-3.3-2.1-5.2-2.1S195.2,279.5,193.7,280.9L193.7,280.9z"/>
				<path class="st3" d="M193.7,280.9c-2.9,2.9-2.9,7.5,0,10.3l13.2,13.2l10.3-10.3L204,280.9c-1.4-1.4-3.3-2.1-5.2-2.1
					C197,278.8,195.2,279.5,193.7,280.9z"/>
			</g>
		</g>
		<g>
			<path class="st4" d="M352.3,112.9l47,47l2.6-15.7c1.7-10-1.8-19.3-8.2-25.7c-6.4-6.4-15.7-9.9-25.7-8.2L352.3,112.9z"/>
			<path class="st0" d="M352.3,112.9l23.5,23.5l17.9-17.9c-6.4-6.4-15.7-9.9-25.7-8.2L352.3,112.9z"/>
			<path class="st5" d="M352.3,112.9l13,13l12-6.2c7.7-4,13.5-4,16.3-1.1c-6.4-6.4-15.7-9.9-25.7-8.2L352.3,112.9z"/>
			<g>
				<path class="st6" d="M247.1,150.1l-19.6-1.1l135.7,135.7l19.1-19.1c5.2-5.2,8.7-12,9.9-19.3l0.7-4l8.2-48.9l4.6-27.5
					c1-6.1-0.9-12.2-5.3-16.5l-37.9-37.9c-4.3-4.3-10,13.9-16,14.9L319,131l-48.9,8.2l-4,0.7C259,141.4,252.3,144.9,247.1,150.1
					L247.1,150.1z"/>
				<path class="st2" d="M246.6,130l-19.1,19.1l67.9,67.9l86.2-86.3l-18.9-18.9c-4.3-4.3-10.5-6.3-16.5-5.3l-27.5,10.9l-48.9,8.2
					l-4-5.6C258.5,121.2,251.7,124.7,246.6,130z"/>
				<path class="st3" d="M246.6,130l-19.1,19.1l33.9,33.9l19.1-19.1c5.2-5.2,11.2-9.5,16.9-12.3l3.2-1.5l38.7-18.4l21.8-10.4
					c4.8-2.2,8.9-2.3,11.1-0.2l-9.5-9.5c-4.3-4.3-10.5-6.3-16.5-5.3l-27.5,4.6l-14,13.2l-34.8-5l-4,0.7
					C258.5,121.2,251.7,124.7,246.6,130z"/>
				<path class="st7" d="M240,136.5L167.5,209c-4.1,4.1-4.1,10.8,0,14.9l120.8,120.8c4.1,4.1,10.8,4.1,14.9,0l6.4-6.4l13.5-37
					l39.4-15.9l13.2-13.2L240,136.5z"/>
				<path class="st6" d="M240,136.5l-65.8,79.2c-4.1,4.1-10.8,4.1-6.7,8.2l60.4,60.4l79.9-79.9L240,136.5z"/>
				<path class="st2" d="M240,136.5L221.5,155l-11.6,33.3l-32.6,11l-9.8,9.8c-4.1,4.1-4.1,10.8,0,14.9l26.5,26.5l79.9-79.9
					L240,136.5z"/>
				<g>
					<path class="st6" d="M273.5,195.1l-57.8,52.1l92.6,92.5l11-11l2.3-8.2l8.5-2.6l11.4-11.4l1.4-9l9-1.6l11.2-11.2L273.5,195.1z"
						/>
					<path class="st2" d="M190.7,222.2l54.9-54.9l49.7,49.7l-54.9,54.9L190.7,222.2z"/>
					<path class="st3" d="M227.5,149.1l-11.2,11.2l-2.2,9.4l-8.4,1.2l-11.3,11.3l0.7,9.7l-11.5,1.1l-11.1,11l33.9,33.9l54.9-54.9
						L227.5,149.1z"/>
				</g>
				<g>
					<g>
						<path class="st0" d="M314.8,280.4l11-11l26.3,26.3l-11,11L314.8,280.4z"/>
						<path class="st0" d="M292.9,302.4l11-11l26.3,26.3l-11,11L292.9,302.4z"/>
					</g>
					<g>
						<path class="st1" d="M205.5,171l11-11l26.3,26.3l-11,11L205.5,171z"/>
						<path class="st1" d="M183.5,193l11-11l26.3,26.3l-11,11L183.5,193z"/>
					</g>
				</g>
			</g>
			<path class="st8" d="M269.8,119.3L393,242.4l8.2-48.9L318.7,111l-15,17L269.8,119.3z"/>
			<path class="st9" d="M269.8,119.3l61.5,61.6l28.5-28.5l-41.2-41.2l-10.8,14.6L269.8,119.3z"/>
			<path class="st10" d="M269.8,119.3l30.8,30.8l38.7-18.4L318.6,111L269.8,119.3z"/>
		</g>
	</g>
	<g>
		<g>
			<path class="st11" d="M143.7,309.4c-8.5,2.1-17,4.2-25.3,6.9l-5.2,1.7c-2.1,0.7-4.2,0-5.6-1.4s-2-3.4-1.4-5.6l1.7-5.2
				c2.6-8.4,4.8-16.8,6.9-25.3c2.7-10.9,12.9-18.7,24.8-17.9c5.9,0.4,11.2,3,15.1,6.9c3.9,3.9,6.5,9.2,6.9,15.1
				C162.4,296.5,154.5,306.7,143.7,309.4L143.7,309.4z"/>
			<path class="st12" d="M143.7,309.4c-8.5,2.1-17,4.2-25.3,6.9l-5.2,1.7c-2.1,0.7-4.2,0-5.6-1.4l47-47c3.9,3.9,6.5,9.2,6.9,15.1
				C162.4,296.5,154.5,306.7,143.7,309.4z"/>
			<path class="st12" d="M144.4,299.1c-5.7,1.4-11.4,2.9-16.9,4.6l-3.5,1.1c-1.4,0.4-2.8,0-3.7-0.9c-0.9-0.9-1.4-2.3-0.9-3.7
				l1.1-3.5c1.7-5.6,3.2-11.2,4.6-16.9c1.8-7.2,8.6-12.5,16.5-12c3.9,0.2,7.5,2,10.1,4.6s4.4,6.2,4.6,10.1
				C157,290.5,151.7,297.3,144.4,299.1L144.4,299.1z"/>
			<path class="st13" d="M144.4,299.1c-5.7,1.4-11.4,2.9-16.9,4.6l-3.5,1.1c-1.4,0.4-2.8,0-3.7-0.9l31.5-31.5
				c2.6,2.6,4.4,6.2,4.6,10.1C157,290.5,151.7,297.3,144.4,299.1z"/>
			<path class="st14" d="M143.7,289.7c-2.7,0.7-5.3,1.3-7.9,2.2l-1.6,0.6c-0.7,0.2-1.3,0-1.7-0.4s-0.6-1.1-0.4-1.7l0.6-1.6
				c0.8-2.6,1.5-5.3,2.2-7.9c0.9-3.4,4.1-5.9,7.8-5.6c1.9,0.1,3.5,0.9,4.7,2.2c1.2,1.2,2.1,2.9,2.2,4.7
				C149.5,285.6,147,288.8,143.7,289.7L143.7,289.7z"/>
			<path class="st15" d="M143.7,289.7c-2.7,0.7-5.3,1.3-7.9,2.2l-1.6,0.6c-0.7,0.2-1.3,0-1.7-0.4l14.8-14.8c1.2,1.2,2.1,2.9,2.2,4.7
				C149.5,285.6,147,288.8,143.7,289.7L143.7,289.7z"/>
		</g>
	</g>
	<g>
		<g>
			<path class="st11" d="M187.7,353.4c-8.5,2.1-17,4.2-25.3,6.9l-5.2,1.7c-2.1,0.7-4.2,0-5.6-1.4s-2-3.4-1.4-5.6l1.7-5.2
				c2.6-8.4,4.8-16.8,6.9-25.3c2.7-10.9,12.9-18.7,24.8-17.9c5.9,0.4,11.2,3,15.1,6.9c3.9,3.9,6.5,9.2,6.9,15.1
				C206.5,340.5,198.6,350.7,187.7,353.4L187.7,353.4z"/>
			<path class="st12" d="M187.7,353.4c-8.5,2.1-17,4.2-25.3,6.9l-5.2,1.7c-2.1,0.7-4.2,0-5.6-1.4l47-47c3.9,3.9,6.5,9.2,6.9,15.1
				C206.5,340.5,198.6,350.7,187.7,353.4L187.7,353.4z"/>
			<path class="st12" d="M188.5,343.1c-5.7,1.4-11.4,2.9-16.9,4.6l-3.5,1.1c-1.4,0.4-2.8,0-3.7-0.9s-1.4-2.3-0.9-3.7l1.1-3.5
				c1.7-5.6,3.2-11.2,4.6-16.9c1.8-7.2,8.6-12.5,16.5-12c3.9,0.2,7.5,2,10.1,4.6s4.4,6.2,4.6,10.1
				C201,334.5,195.7,341.3,188.5,343.1z"/>
			<path class="st13" d="M188.5,343.1c-5.7,1.4-11.4,2.9-16.9,4.6l-3.5,1.1c-1.4,0.4-2.8,0-3.7-0.9l31.5-31.5
				c2.6,2.6,4.4,6.2,4.6,10.1C201,334.5,195.7,341.3,188.5,343.1z"/>
			<path class="st14" d="M187.7,333.6c-2.7,0.7-5.3,1.3-7.9,2.2l-1.6,0.6c-0.7,0.2-1.3,0-1.7-0.4s-0.6-1.1-0.4-1.7l0.6-1.6
				c0.8-2.6,1.5-5.3,2.2-7.9c0.9-3.4,4.1-5.9,7.8-5.6c1.9,0.1,3.5,0.9,4.7,2.2c1.2,1.2,2.1,2.9,2.2,4.7
				C193.6,329.6,191.1,332.8,187.7,333.6L187.7,333.6z"/>
			<path class="st15" d="M187.7,333.6c-2.7,0.7-5.3,1.3-7.9,2.2l-1.6,0.6c-0.7,0.2-1.3,0-1.7-0.4l14.8-14.8c1.2,1.2,2.1,2.9,2.2,4.7
				C193.6,329.6,191.1,332.8,187.7,333.6L187.7,333.6z"/>
		</g>
	</g>
	<g>
		<g>
			<path class="st11" d="M231.3,397c-8.5,2.1-17,4.2-25.3,6.9l-5.2,1.7c-2.1,0.7-4.2,0-5.6-1.4s-2-3.4-1.4-5.6l1.7-5.2
				c2.6-8.4,4.8-16.8,6.9-25.3c2.7-10.9,12.9-18.7,24.8-17.9c5.9,0.4,11.2,3,15.1,6.9c3.9,3.9,6.5,9.2,6.9,15.1
				C250,384.1,242.1,394.2,231.3,397z"/>
			<path class="st12" d="M231.3,397c-8.5,2.1-17,4.2-25.3,6.9l-5.2,1.7c-2.1,0.7-4.2,0-5.6-1.4l47-47c3.9,3.9,6.5,9.2,6.9,15.1
				C250,384.1,242.1,394.2,231.3,397L231.3,397z"/>
			<path class="st12" d="M232,386.7c-5.7,1.4-11.4,2.9-16.9,4.6l-3.5,1.1c-1.4,0.4-2.8,0-3.7-0.9s-1.4-2.3-0.9-3.7l1.1-3.5
				c1.7-5.6,3.2-11.2,4.6-16.9c1.8-7.2,8.6-12.5,16.5-12c3.9,0.2,7.5,2,10.1,4.6s4.4,6.2,4.6,10.1
				C244.5,378.1,239.3,384.9,232,386.7z"/>
			<path class="st13" d="M232,386.7c-5.7,1.4-11.4,2.9-16.9,4.6l-3.5,1.1c-1.4,0.4-2.8,0-3.7-0.9l31.5-31.5
				c2.6,2.6,4.4,6.2,4.6,10.1C244.5,378.1,239.3,384.9,232,386.7z"/>
			<path class="st14" d="M231.2,377.2c-2.7,0.7-5.3,1.3-7.9,2.2l-1.6,0.6c-0.7,0.2-1.3,0-1.7-0.4s-0.6-1.1-0.4-1.7l0.6-1.6
				c0.8-2.6,1.5-5.3,2.2-7.9c0.9-3.4,4.1-5.9,7.8-5.6c1.9,0.1,3.5,0.9,4.7,2.2c1.2,1.2,2.1,2.9,2.2,4.7
				C237.1,373.1,234.7,376.3,231.2,377.2L231.2,377.2z"/>
			<path class="st15" d="M231.2,377.2c-2.7,0.7-5.3,1.3-7.9,2.2l-1.6,0.6c-0.7,0.2-1.3,0-1.7-0.4l14.8-14.8c1.2,1.2,2.1,2.9,2.2,4.7
				C237.1,373.1,234.7,376.3,231.2,377.2L231.2,377.2z"/>
		</g>
	</g>
</g>
<g>
	<g>
		
			<linearGradient id="SVGID_1_" gradientUnits="userSpaceOnUse" x1="173.9578" y1="222.7852" x2="177.9946" y2="222.7852" gradientTransform="matrix(0.9909 -0.1345 -0.1345 -0.9909 30.9595 542.9263)">
			<stop  offset="9.183670e-02" style="stop-color:#CD0000"/>
			<stop  offset="0.8878" style="stop-color:#9A0201"/>
		</linearGradient>
		<path class="st16" d="M175.3,298.1c-0.6-0.1-1.2,0.2-1.8,0.5c-0.2,0.2-0.3,0.3-0.1,0.5c0.4,0.3,1,0.2,1.7-0.2
			c0.9-0.3,1.8-0.6,2.1-1.2h-0.4C176.4,298.1,176,298.4,175.3,298.1z"/>
		
			<linearGradient id="SVGID_2_" gradientUnits="userSpaceOnUse" x1="307.66" y1="285.1981" x2="311.7986" y2="285.1981" gradientTransform="matrix(0.9909 -0.1345 -0.1345 -0.9909 30.9595 542.9263)">
			<stop  offset="9.183670e-02" style="stop-color:#CD0000"/>
			<stop  offset="0.8878" style="stop-color:#9A0201"/>
		</linearGradient>
		<path class="st17" d="M301.5,218c-1.6,0.1-2.8,0.8-4,1.3l2.5-0.3C300.3,218.7,300.9,218.4,301.5,218z"/>
		
			<linearGradient id="SVGID_3_" gradientUnits="userSpaceOnUse" x1="241.0115" y1="222.853" x2="245.3948" y2="222.853" gradientTransform="matrix(0.9909 -0.1345 -0.1345 -0.9909 30.9595 542.9263)">
			<stop  offset="9.183670e-02" style="stop-color:#CD0000"/>
			<stop  offset="0.8878" style="stop-color:#9A0201"/>
		</linearGradient>
		<path class="st18" d="M240.1,289.4c1,0,2,0.1,3.2,0.2c0.3-0.1,1-0.1,0.7-0.6c-0.2,0-0.4-0.2-0.6-0.2l-3.7,0.5
			C239.9,289.3,239.9,289.4,240.1,289.4z"/>
		
			<linearGradient id="SVGID_4_" gradientUnits="userSpaceOnUse" x1="317.4147" y1="287.159" x2="340.1683" y2="287.159" gradientTransform="matrix(0.9909 -0.1345 -0.1345 -0.9909 30.9595 542.9263)">
			<stop  offset="9.183670e-02" style="stop-color:#CD0000"/>
			<stop  offset="0.8878" style="stop-color:#9A0201"/>
		</linearGradient>
		<path class="st19" d="M309.6,215.2c-1,0.1-1.7,0.2-2,0.8c-0.3,0.5-1,1.1-0.2,1.1c0.7,0,2-0.1,2.9-0.9c0.8-0.7,2-1.5,2.8-0.6
			c0.2,0.2,0.6,0,1.1,0c1.3-0.5,2.7-0.7,3.6-1.5c0.7-0.6,1.6-1.3,2.9-0.9c0.3,0.1,1,0,1.4-0.4c0.6-0.7,0.7-0.8,1.9-0.7
			c1.6,0.1,3.5-0.3,4.9-0.7c0.3-0.1,0.2-0.2,0.3-0.3l-13.8,1.9c-0.1,0.1-0.2,0.1-0.2,0.1C313.6,214.7,311.7,215.1,309.6,215.2z"/>
		
			<linearGradient id="SVGID_5_" gradientUnits="userSpaceOnUse" x1="352.8406" y1="222.6607" x2="359.0084" y2="222.6607" gradientTransform="matrix(0.9909 -0.1345 -0.1345 -0.9909 30.9595 542.9263)">
			<stop  offset="9.183670e-02" style="stop-color:#CD0000"/>
			<stop  offset="0.8878" style="stop-color:#9A0201"/>
		</linearGradient>
		<path class="st20" d="M351.6,274.6c-0.4,0.1-1,0.3-0.9,0.6c0,0.2,0.5,0.2,0.8,0.1c1.3-0.4,2.7-0.5,4-1c0.7-0.3,1-0.6,1.2-0.9
			l-3.5,0.5C352.9,274.2,352.6,274.5,351.6,274.6z"/>
		
			<linearGradient id="SVGID_6_" gradientUnits="userSpaceOnUse" x1="219.6234" y1="221.9085" x2="224.0632" y2="221.9085" gradientTransform="matrix(0.9909 -0.1345 -0.1345 -0.9909 30.9595 542.9263)">
			<stop  offset="9.183670e-02" style="stop-color:#CD0000"/>
			<stop  offset="0.8878" style="stop-color:#9A0201"/>
		</linearGradient>
		<path class="st21" d="M221.5,292c0.8,0.7,0.4,1,0.4,1.6c-0.3,0-0.7-0.2-0.9-0.1c-0.8,0.7-1.4,0.2-2.3-0.1c0,1,1.5,0.8,2.6,0.9
			c0.4,0.1,0.6-0.1,0.9-0.2c0.1,0.1,0.1,0.3,0.3,0.4c0.2-0.2,0.3-0.3,0.4-0.5h0.1v-0.1c0.3-0.5,0.3-1-0.4-1.8
			c-0.2-0.3-0.5-0.4-0.8-0.5h-0.3C221.5,291.8,221.4,291.9,221.5,292z"/>
		
			<linearGradient id="SVGID_7_" gradientUnits="userSpaceOnUse" x1="309.9397" y1="219.7252" x2="314.5765" y2="219.7252" gradientTransform="matrix(0.9909 -0.1345 -0.1345 -0.9909 30.9595 542.9263)">
			<stop  offset="9.183670e-02" style="stop-color:#CD0000"/>
			<stop  offset="0.8878" style="stop-color:#9A0201"/>
		</linearGradient>
		<path class="st22" d="M310.1,283.1c-0.2,0-0.6,0.1-1.6,0.1c0.6,0.2,0.6,0.3,0.8,0.5l3.8-0.5C312.7,283,311.8,283,310.1,283.1z"/>
		
			<linearGradient id="SVGID_8_" gradientUnits="userSpaceOnUse" x1="192.2261" y1="219.8775" x2="195.6623" y2="219.8775" gradientTransform="matrix(0.9909 -0.1345 -0.1345 -0.9909 30.9595 542.9263)">
			<stop  offset="9.183670e-02" style="stop-color:#CD0000"/>
			<stop  offset="0.8878" style="stop-color:#9A0201"/>
		</linearGradient>
		<path class="st23" d="M195.1,298.8c0.1-0.5,0-0.9-0.9-0.5c-0.7,0.2-1.8,0.6-2.1,1.2c0,0.1-0.1,0.2-0.2,0.3l3.3-0.4
			C195.3,299.1,195.3,298.9,195.1,298.8z"/>
		
			<linearGradient id="SVGID_9_" gradientUnits="userSpaceOnUse" x1="319.8719" y1="219.9168" x2="323.0615" y2="219.9168" gradientTransform="matrix(0.9909 -0.1345 -0.1345 -0.9909 30.9595 542.9263)">
			<stop  offset="9.183670e-02" style="stop-color:#CD0000"/>
			<stop  offset="0.8878" style="stop-color:#9A0201"/>
		</linearGradient>
		<path class="st24" d="M321.1,281.7c1-1.3-0.5-0.4-1.1-0.1c-0.6,0.2-1.1,0.6-1.6,0.9l2.5-0.3C321,282,321,281.9,321.1,281.7z"/>
		
			<linearGradient id="SVGID_10_" gradientUnits="userSpaceOnUse" x1="191.3964" y1="288.0548" x2="197.9076" y2="288.0548" gradientTransform="matrix(0.9909 -0.1345 -0.1345 -0.9909 30.9595 542.9263)">
			<stop  offset="9.183670e-02" style="stop-color:#CD0000"/>
			<stop  offset="0.8878" style="stop-color:#9A0201"/>
		</linearGradient>
		<path class="st25" d="M182.9,231.6c0.8,0.3,1.3,0.8,2.8,0.1c0-0.5-0.7-0.1-1.1-0.2c-0.5,0-0.9,0-0.7-0.4c0.1-0.2,0.7-0.3,1-0.3
			c1.3,0.3,2.2-0.4,3.3-0.5c-0.1,0-0.1,0-0.2,0l-6.3,0.8C182.1,231.3,182.4,231.5,182.9,231.6z"/>
		
			<linearGradient id="SVGID_11_" gradientUnits="userSpaceOnUse" x1="407.1174" y1="219.6706" x2="409.492" y2="219.6706" gradientTransform="matrix(0.9909 -0.1345 -0.1345 -0.9909 30.9595 542.9263)">
			<stop  offset="9.183670e-02" style="stop-color:#CD0000"/>
			<stop  offset="0.8878" style="stop-color:#9A0201"/>
		</linearGradient>
		<path class="st26" d="M407.1,270c0-0.4-0.7-0.1-1.1,0c-0.5,0-1.4,0.2-1.2,0.6c0.1,0.2,0.5,0.2,0.9,0.2l0.6-0.1
			C406.7,270.4,407.2,270.3,407.1,270z"/>
		
			<linearGradient id="SVGID_12_" gradientUnits="userSpaceOnUse" x1="152.1012" y1="285.7927" x2="163.5622" y2="285.7927" gradientTransform="matrix(0.9909 -0.1345 -0.1345 -0.9909 30.9595 542.9263)">
			<stop  offset="9.183670e-02" style="stop-color:#CD0000"/>
			<stop  offset="0.8878" style="stop-color:#9A0201"/>
		</linearGradient>
		<path class="st27" d="M154,238.6L154,238.6c-1.5-0.6-3-1.4-4.9-0.4c-0.1,0-0.5,0-0.7-0.1c-2-0.8-3.2,0-5.3,0.3
			c2.4,0.5,4.7,0.8,6.9,0.9c-0.1,0.1-0.2,0.1-0.4,0.2l5.1-0.7C154.5,238.7,154.2,238.7,154,238.6z"/>
		
			<linearGradient id="SVGID_13_" gradientUnits="userSpaceOnUse" x1="326.1143" y1="222.6128" x2="329.5281" y2="222.6128" gradientTransform="matrix(0.9909 -0.1345 -0.1345 -0.9909 30.9595 542.9263)">
			<stop  offset="9.183670e-02" style="stop-color:#CD0000"/>
			<stop  offset="0.8878" style="stop-color:#9A0201"/>
		</linearGradient>
		<path class="st28" d="M324.2,279.2c1.1-0.2,2.3-1,3.2-1.9l-1.4,0.2C325.4,278.1,324.8,278.7,324.2,279.2z"/>
		
			<linearGradient id="SVGID_14_" gradientUnits="userSpaceOnUse" x1="115.9672" y1="285.3922" x2="130.4957" y2="285.3922" gradientTransform="matrix(0.9909 -0.1345 -0.1345 -0.9909 30.9595 542.9263)">
			<stop  offset="9.183670e-02" style="stop-color:#CD0000"/>
			<stop  offset="0.8878" style="stop-color:#9A0201"/>
		</linearGradient>
		<path class="st29" d="M114.7,243.9c0.3-0.5,1.4-0.7,2-0.4c0.6,0.2,1.2,0.2,1.7,0.1l3.4-0.5c0.1-0.1-0.1-0.3-0.4-0.5
			c-0.4-0.4-1.4-0.2-2.1-0.1c-3.6,0.1-6.8,1.1-10.4,1.3c-0.9-0.1-1.5,0.3-1.6,0.6c0,0.6,1,0.2,1.5,0.3c1.1,0.2,2.2-0.5,3.4-0.2
			l1.9-0.3C114.4,244.1,114.6,244.1,114.7,243.9z"/>
		
			<linearGradient id="SVGID_15_" gradientUnits="userSpaceOnUse" x1="237.228" y1="288.6881" x2="238.2255" y2="288.6881" gradientTransform="matrix(0.9909 -0.1345 -0.1345 -0.9909 30.9595 542.9263)">
			<stop  offset="9.183670e-02" style="stop-color:#CD0000"/>
			<stop  offset="0.8878" style="stop-color:#9A0201"/>
		</linearGradient>
		<path class="st30" d="M228.2,224.8l-1,0.1C227.5,224.9,227.9,225,228.2,224.8C228.2,224.8,228.1,224.8,228.2,224.8z"/>
		
			<linearGradient id="SVGID_16_" gradientUnits="userSpaceOnUse" x1="205.2101" y1="286.7748" x2="227.9914" y2="286.7748" gradientTransform="matrix(0.9909 -0.1345 -0.1345 -0.9909 30.9595 542.9263)">
			<stop  offset="9.183670e-02" style="stop-color:#CD0000"/>
			<stop  offset="0.8878" style="stop-color:#9A0201"/>
		</linearGradient>
		<path class="st31" d="M215.1,230.5l3.5-0.5c-0.1-0.1-0.2-0.2-0.3-0.2c-0.5-0.5-1.2-0.5-2.2-0.2c-2.1,0.5-4,0.5-5.9-0.5
			c-1-0.6-2.9-0.7-4.2-1.3l-2.3,0.3c0,0.5,0.3,1-0.9,1.1c-2.2,0-4.4,1-6.6,0.5c-0.1-0.1-0.3-0.1-0.7,0c0.5,0.5-0.3,1.3,1,1.4
			c1.6,0,3.5-0.2,4.9-0.7c1.1-0.5,1.2-0.4,2,0.1c0.5,0.3,1.2,0.2,1.5,0c1.2-0.7,2.3-0.3,3.1,0.1c0.9,0.4,2,0.3,3.1,0.4l2.1-0.3
			C213.7,230.3,214.4,230.3,215.1,230.5z"/>
		
			<linearGradient id="SVGID_17_" gradientUnits="userSpaceOnUse" x1="315.1971" y1="221.3246" x2="317.5858" y2="221.3246" gradientTransform="matrix(0.9909 -0.1345 -0.1345 -0.9909 30.9595 542.9263)">
			<stop  offset="9.183670e-02" style="stop-color:#CD0000"/>
			<stop  offset="0.8878" style="stop-color:#9A0201"/>
		</linearGradient>
		<path class="st32" d="M313.5,281c0,0.3,0.4,0.5,1.2,0.5c0.5-0.1,1-0.3,1.2-0.6c0-0.4-0.8-0.3-1.3-0.2
			C314.1,280.7,313.3,280.7,313.5,281z"/>
		
			<linearGradient id="SVGID_18_" gradientUnits="userSpaceOnUse" x1="415.6922" y1="283.5347" x2="421.4774" y2="283.5347" gradientTransform="matrix(0.9909 -0.1345 -0.1345 -0.9909 30.9595 542.9263)">
			<stop  offset="9.183670e-02" style="stop-color:#CD0000"/>
			<stop  offset="0.8878" style="stop-color:#9A0201"/>
		</linearGradient>
		<path class="st33" d="M406.7,205.3c-0.7,0.2-1.7,0.2-2,0.7c0.4,0.1,0.7,0.3,1.1,0.5c1.3-0.2,2.6-0.3,3.8-1
			c0.2-0.2,0.6-0.3,0.9-0.3c-0.1-0.2-0.3-0.3-0.4-0.4C408.9,204.9,407.8,205,406.7,205.3z"/>
		
			<linearGradient id="SVGID_19_" gradientUnits="userSpaceOnUse" x1="383.0225" y1="285.8804" x2="394.4424" y2="285.8804" gradientTransform="matrix(0.9909 -0.1345 -0.1345 -0.9909 30.9595 542.9263)">
			<stop  offset="9.183670e-02" style="stop-color:#CD0000"/>
			<stop  offset="0.8878" style="stop-color:#9A0201"/>
		</linearGradient>
		<path class="st34" d="M382.7,207.5c-1.5-0.6-3-1.4-4.9-0.4c-0.1,0-0.5,0-0.6-0.1c-2.1-0.8-3.3,0-5.3,0.3c2.4,0.5,4.7,0.8,6.9,0.9
			c-0.1,0.1-0.2,0.1-0.4,0.1l5.1-0.7C383.2,207.6,383,207.6,382.7,207.5z"/>
		
			<linearGradient id="SVGID_20_" gradientUnits="userSpaceOnUse" x1="365.4861" y1="221.6875" x2="371.8271" y2="221.6875" gradientTransform="matrix(0.9909 -0.1345 -0.1345 -0.9909 30.9595 542.9263)">
			<stop  offset="9.183670e-02" style="stop-color:#CD0000"/>
			<stop  offset="0.8878" style="stop-color:#9A0201"/>
		</linearGradient>
		<path class="st35" d="M366.5,273.3c-0.4-0.5-1.6-0.6-2.3-0.6c-0.9-0.1-0.8,0.3-0.7,0.7c-0.7,0.6,0.2,1.1,1.4,1.3
			c1.3,0.1,2.7-0.1,4-0.1c0.4,0.1,0.8-0.1,0.8-0.2c0-0.3-0.7-0.4-1.1-0.4C367.2,274.2,366.9,273.8,366.5,273.3z"/>
		
			<linearGradient id="SVGID_21_" gradientUnits="userSpaceOnUse" x1="353.3343" y1="219.9925" x2="356.5303" y2="219.9925" gradientTransform="matrix(0.9909 -0.1345 -0.1345 -0.9909 30.9595 542.9263)">
			<stop  offset="9.183670e-02" style="stop-color:#CD0000"/>
			<stop  offset="0.8878" style="stop-color:#9A0201"/>
		</linearGradient>
		<path class="st36" d="M354.3,277.1c0.4-0.2,0.4-0.5,0.2-0.5c-0.9,0-1.9,0.5-2.9,0.9C352.4,277.9,353.3,277.6,354.3,277.1z"/>
		
			<linearGradient id="SVGID_22_" gradientUnits="userSpaceOnUse" x1="245.2675" y1="286.6865" x2="257.9261" y2="286.6865" gradientTransform="matrix(0.9909 -0.1345 -0.1345 -0.9909 30.9595 542.9263)">
			<stop  offset="9.183670e-02" style="stop-color:#CD0000"/>
			<stop  offset="0.8878" style="stop-color:#9A0201"/>
		</linearGradient>
		<path class="st37" d="M248.2,226.1c-1.6-0.4-3.2-0.8-4.9-1.2c-1.5-0.2-2.8-0.6-4.1-1.1c-0.4-0.1-0.7-0.2-1-0.3l-3.1,0.4
			c3.3,0.7,7.8,1.7,11.8,2.4L248.2,226.1z"/>
		
			<linearGradient id="SVGID_23_" gradientUnits="userSpaceOnUse" x1="283.5928" y1="286.7299" x2="295.8543" y2="286.7299" gradientTransform="matrix(0.9909 -0.1345 -0.1345 -0.9909 30.9595 542.9263)">
			<stop  offset="9.183670e-02" style="stop-color:#CD0000"/>
			<stop  offset="0.8878" style="stop-color:#9A0201"/>
		</linearGradient>
		<path class="st38" d="M273.6,222.6c2-0.8,7.1-3.2,11.6-5.5l-2.3,0.3c-0.3,0.2-0.5,0.3-0.8,0.5C279.2,219.4,276.4,221,273.6,222.6z
			"/>
		
			<linearGradient id="SVGID_24_" gradientUnits="userSpaceOnUse" x1="276.3032" y1="285.3692" x2="281.1159" y2="285.3692" gradientTransform="matrix(0.9909 -0.1345 -0.1345 -0.9909 30.9595 542.9263)">
			<stop  offset="9.183670e-02" style="stop-color:#CD0000"/>
			<stop  offset="0.8878" style="stop-color:#9A0201"/>
		</linearGradient>
		<path class="st39" d="M271.1,222.1c0-0.2-0.3-0.5-0.6-0.4c-0.7,0.1-1.3,0.3-2.2,0.8c-0.6,0.4-1.2,0.8-1.8,1.2l2.7-0.4
			c0.2-0.1,0.5-0.3,0.8-0.5C270.4,222.6,271.1,222.4,271.1,222.1z"/>
		
			<linearGradient id="SVGID_25_" gradientUnits="userSpaceOnUse" x1="346.8696" y1="285.2637" x2="361.4068" y2="285.2637" gradientTransform="matrix(0.9909 -0.1345 -0.1345 -0.9909 30.9595 542.9263)">
			<stop  offset="9.183670e-02" style="stop-color:#CD0000"/>
			<stop  offset="0.8878" style="stop-color:#9A0201"/>
		</linearGradient>
		<path class="st40" d="M343.5,212.9c0.3-0.5,1.5-0.7,2-0.4c0.6,0.2,1.2,0.2,1.8,0.1l3.4-0.5c0-0.1-0.2-0.4-0.4-0.5
			c-0.4-0.4-1.4-0.2-2.1-0.1c-3.5,0.1-6.8,1.1-10.3,1.3c-1,0-1.5,0.3-1.6,0.6c-0.1,0.6,1,0.2,1.5,0.3c1,0.1,2.2-0.5,3.4-0.2l1.9-0.2
			C343.2,213.1,343.4,213.1,343.5,212.9z"/>
		
			<linearGradient id="SVGID_26_" gradientUnits="userSpaceOnUse" x1="95.6487" y1="254.115" x2="427.6617" y2="254.115" gradientTransform="matrix(0.9909 -0.1345 -0.1345 -0.9909 30.9595 542.9263)">
			<stop  offset="9.183670e-02" style="stop-color:#CD0000"/>
			<stop  offset="0.8878" style="stop-color:#9A0201"/>
		</linearGradient>
		<path class="st41" d="M419.2,259.6c0.7,5-3.9,9.8-10.2,10.7l-2.7,0.4c-0.1,0.1-0.1,0.1-0.2,0.2c-0.2,0-0.2-0.1-0.4-0.1l-84.8,11.5
			c-0.3,0.8-0.4,1.8-2.2,2.4c-1,0.3-1.9,0.6-3.1,1.1c-0.1,0-0.2,0-0.4,0c-0.8,0.2-1.6,0.3-2.5,0.3c-1.1,0.2-1.6-0.1-1.5-0.6
			c0.1-0.6-0.8-0.5-2-0.3c0.3-0.5,0.4-0.9,0.1-1.3l-114.1,15.5c0,0.3-0.4,0.7-1.2,1c-1.3,0.5-2.6,0.7-3.9,1c-0.3,0.1-0.8,0.1-0.8,0
			c0-0.3,0.5-0.6,0.9-0.6c1.1-0.1,1.4-0.5,1.6-0.9l-79.5,10.8c-6.3,0.8-12.1-2.5-12.7-7.6l-6.9-50.5c-0.7-5,3.9-9.8,10.2-10.7
			l78.7-10.7c-0.8-0.4-1.5-0.9-2.9-0.9c-0.7,0-1.9,0.3-1.6-0.4c0.2-0.2,1.2-0.2,2-0.3c3.7-0.3,7.4-0.7,10.8-1.9
			c0.9,0.2-0.6,0.9,1,0.7c1-0.1,2.1-0.4,2.2,0.3c0.2,0.7-1.4,0.2-2,0.6c-0.8,0.3-2.1,1-2.8,0.6c-1.4-0.6-1.9,0.1-3,0.4
			c1,0.1,1.9,0,2.6,0.2l15.7-2.1c0-0.1,0-0.1,0-0.2c0.2-0.4,1-0.7,1.6-0.3c0.2,0.1,0.5,0.1,0.7,0.2l21.2-2.9c-0.6,0-1.3,0.1-2,0.2
			c-1.7,0.1-3.3-0.5-4.8-0.5c-1.7,0.1-3.1-0.2-4.7-0.3c-1,0-1.8-0.2-1.3-0.7c0.1-0.9,1.6-1.2,3.8-0.8c1.9,0.4,3.6,0.8,5.8,0.5
			c1-0.2,2.7,0.5,4,0.8c0.4,0.2,0.5,0.4,0.3,0.6l7-0.9c-0.8-0.2-1.8-0.4-2.4-0.6c2.7-0.6,3.2-0.7,5.5,0.1l44.8-6.1
			c1-0.5,2-1,2.9-1.7c2.8-2.1,2.9-2,6.1-2.1c-1.4,0.8-4,2.1-6.6,3.5l30.1-4.1c1-0.9,3.2-1.6,4.1-2.6c0.4-0.5,1.3-0.4,1.6-0.1
			c0.4,0.4-0.2,1.4,1.2,1.1c2.1-0.6,4.5-0.2,6.5-1.3c0.1-0.1,0.4-0.2,0.7-0.2c-0.3,0.5,0,0.9-0.3,1.3l70.5-9.6
			c4.2-0.6,7.9,0.8,10.3,3.2c2.1-0.3,4.2-0.5,6.3-0.9l-0.2-1.3c-0.2-1.1-0.6-2.1-1.1-3c-0.4,0.1-0.8,0.2-1.3,0.1c-0.4,0-0.9,0-1,0.2
			c-0.2,0.4,0.2,0.4,0.7,0.4c0.4,0.1,1.1-0.2,1,0.2c-1.5,0.8-2,0.2-2.8-0.1c-1.5-0.4-2.1-1.4-4-1.4c-0.7,0-1.9,0.3-1.7-0.4
			c0.2-0.2,1.2-0.3,2-0.4c1.7-0.2,3.4-0.3,5.1-0.6c-2-1.5-4.7-2.3-7.7-1.9l-2,0.3c-0.4,0.1-0.8,0.1-1.3,0.2
			c-0.5,0.2-0.9,0.2-1.2,0.1l-3.8,0.5c-0.7,0.2-1.7,0.4-2.4,0.8c-1,0.4-2.4,0.3-2.5-0.1l-80.9,11c0.2,0.2,0.5,0.5,0.6,0.6
			c0.4,0.5,0.5,0.7-0.2,0.7c-0.7-0.2-1.5-0.3-2.2-0.4c-0.2,0.2-0.6,0.3-1,0.5c-1.5,0.5-2.8,1.2-4.5,1.5c-1.5,0.4-2.8,1.4-4.5,1.7
			c-1,0.2-2.1,0.7-2.9,0.5c-0.3-0.2-0.3-0.4,0.1-0.7c1.2-0.7,2.6-1.7,3.6-1.8c2.1-0.2,3.6-1,5.1-1.8l-101.3,13.7
			c0.5,0.3,0.9,0.7,1.8,0.7c0.6,0,0.1,0.4-0.3,0.4c-0.9,0.2-1.9,0.4-2.9,0.3c-2.2,0-4.3-0.3-6.6,0c-2.8,0.3-5.7,0.5-8.5,0.7
			l-13.1,1.8c-0.4,0.1-0.9,0.1-1.3,0.3c-0.5,0.2-0.9,0.2-1.2,0.1l-3.8,0.5c-0.7,0.3-1.7,0.4-2.4,0.8c-1,0.4-2.4,0.3-2.5-0.1
			l-67.6,9.2c-3.5,0.5-6.2,2.5-7.6,5.1c0.9-0.5,1.9-1,2.4-1.6c0.4-0.5,1.3-0.4,1.6-0.1c0.4,0.4-0.1,1.4,1.2,1.1
			c2.2-0.6,4.5-0.2,6.5-1.3c0.1-0.2,0.3-0.2,0.7-0.2c-0.4,0.6,0.7,1.2-0.6,1.6c-1.5,0.4-3.4,0.7-4.9,0.7c-1.2-0.2-1.2-0.1-1.9,0.6
			c-0.4,0.5-1.1,0.6-1.5,0.4c-1.3-0.4-2.2,0.3-2.9,0.9c-0.4,0.3-0.9,0.5-1.4,0.7c0,0.5-0.2,0.9-0.1,1.4l0.2,1.4
			c0.9-0.2,1.8-0.4,2.7-0.7c-0.3,0.5-1.4,1-2.6,1.5l8.2,60.1c0.6,4.5,5.4,7.5,10.7,6.8l41.7-5.7c0.3-0.5,0.3-0.8-1.1-1.2
			c1,0,1.3-0.1,1.6-0.1c2.8-0.2,3.2-0.1,3.7,0.8l35.2-4.8c0.1,0,0.1-0.1,0.2-0.1c0.1,0,0.1,0,0.1,0l17.3-2.4c0,0-0.1-0.1,0-0.1
			s0.4,0,0.5,0l37.6-5.1c-0.8-0.4-1.6-0.8-1.4-1.2c0.3-0.4,1.6,0.1,2.8,0.5c0.4,0.1,0.7,0.2,1.1,0.3l91.2-12.4
			c-0.8-0.3-1.2-1-0.6-2.3c0.2-0.5,0.5-0.9,1-1c0.4-0.2,0.2,0.2,0.1,0.5c-0.9,1.4,0.6,1.2-0.4,2.8l11.3-1.5c1.5-0.3,2.8-0.7,4.3-1.1
			c-0.4,0.3-0.8,0.4-1.3,0.6l8.7-1.2c1.3-0.5,2.5-0.8,3.7-1.4c0.4-0.1,0.8-0.1,0.8,0.1c0,0.3-0.2,0.6-0.7,0.8l3.8-0.5
			c-1-0.1-1.3-0.6-1.8-0.9c-0.5-0.4-0.1-0.5,0.6-0.6c0.4,0,0.8-0.3,0.8-0.4c0-0.6,0.7-0.3,1.3-0.4c0.9-0.1,0.8,0.3,1,0.5
			c0.4,0.3,0.3,0.9,1.3,0.7c1.1-0.1,0.7-0.6,0.8-0.9c-0.4-0.5,0-1,0.7-1.1c1.1-0.3,2.3,0.2,3.2,0.4c1.2,0.2,0.2,0.5,0.1,0.9
			c-0.1,0.1-0.1,0.4,0.1,0.6c0,0,0,0,0,0.1l23.8-3.2c0,0-0.1,0-0.1-0.1c0.2-0.8,1.4-0.3,2.1-0.5c0.4-0.3,0.8-0.5,1.2-0.6
			c0.4-0.1,0.8-0.1,1,0c0.3,0.2,0,0.3-0.3,0.5c0,0,0,0-0.1,0.1l12.7-1.7c5.3-0.7,9.1-4.9,8.5-9.4l-7.4-54.7c-0.2,0-0.4,0-0.5-0.1
			c-0.2-0.2,0.1-0.3,0.4-0.4l-0.7-4.9c-0.8,0.1-1.6,0.1-2.4,0.5c-0.6,0.3-1.7,0.8-2.5,0.1c-0.2-0.2-0.6-0.3-1.1-0.2
			c1,1.1,1.7,2.4,1.9,3.9L419.2,259.6z M333.3,207.2c1.6-0.2,0-0.5,0.8-0.9c3.6,0.2,7.4-0.4,11-1.1c0.8-0.1,1.7-0.3,2-0.2
			c0.5,0.5-0.8,0.6-1.5,0.8c-1.8,0.6-2.1,1.7-3.5,2.5c-0.7,0.5-1,1.2-2.7,0.8c-0.2-0.4,0.6-0.3,1-0.5s0.9-0.3,0.5-0.6
			c-0.2-0.2-0.7-0.1-1,0c-1.2,0.6-2.2,0.2-3.3,0.3c0.6-0.5,1.5-0.5,2.6-0.9c-1.2,0-1.9-0.5-3,0.4c-0.6,0.5-2.1,0.3-2.9,0.2
			c-0.6-0.1-2.1,0.7-2.1,0C331.2,207.3,332.4,207.3,333.3,207.2z M104.5,238.3c1.6-0.2,0.1-0.5,0.8-0.9c3.6,0.2,7.3-0.4,11-1.1
			c0.8-0.1,1.7-0.3,2-0.2c0.5,0.6-0.8,0.6-1.5,0.8c-1.8,0.6-2.1,1.7-3.4,2.5c-0.7,0.4-1,1.1-2.7,0.8c-0.2-0.4,0.6-0.3,1-0.5
			s0.9-0.3,0.5-0.6c-0.2-0.2-0.7-0.1-1,0c-1.1,0.6-2.2,0.2-3.3,0.4c0.7-0.5,1.6-0.6,2.6-0.9c-1.2,0-1.8-0.5-3,0.4
			c-0.6,0.5-2,0.3-2.8,0.2c-0.7-0.1-2.1,0.7-2.1,0C102.4,238.4,103.6,238.4,104.5,238.3z M153.3,307.5c-0.8,0-1.2-0.1-1.2-0.5
			c-0.1-0.3,0.6-0.3,1.1-0.3c0.5-0.1,1.3-0.2,1.3,0.3C154.4,307.2,153.9,307.4,153.3,307.5z M192.9,303.1c-0.9,0.6-1.8,0.8-2.8,0.5
			c1-0.4,2-0.9,2.9-0.9C193.4,302.6,193.3,303,192.9,303.1z M207.6,300.7c-1.3,0-2.7,0.2-4,0.1c-1.2-0.2-2.1-0.7-1.4-1.3
			c-0.2-0.4-0.2-0.8,0.7-0.7c0.7,0,1.9,0.1,2.4,0.6c0.4,0.5,0.7,0.9,2.1,0.7c0.4,0,1,0.1,1.1,0.4
			C208.4,300.6,207.9,300.7,207.6,300.7z M244.7,296.8c-0.5,0.1-1.1,0-1.3-0.3c-0.2-0.4,0.7-0.5,1.2-0.6s1.2-0.3,1.2,0
			C245.8,296.3,245.4,296.6,244.7,296.8z M249.5,296.6c-1.7-0.6-3.9,0-5-2c1.3,0,2.8,0.7,4.3,1.1c0.6,0.1,1.1,0.4,1.1,0.7
			C250,296.7,249.8,296.8,249.5,296.6z M321.3,285.7c-0.2,0.3-0.1,0.5-0.2,0.7c-0.3,0.7-1.2,0.8-2.9,0.6c1.5-0.7,2.3-1.2,0.3-1.4
			c-0.2-0.1-0.6-0.2-0.4-0.4c0.2-0.2,0.6-0.3,0.9-0.3c0.4,0,0.9,0.1,1.3,0.3c0.8,0,1.8-0.8,2.2-0.1
			C323,285.4,321.6,285.4,321.3,285.7z M355.9,279.5c-0.4,0.5-0.4,1-1.6,1.5c-1.9,0.5-3.8,0.8-5.8,1.4c-1.3,0.3-2.4,0.4-2.1-0.5
			c0.1-0.2,0-0.6-0.1-0.6c-0.2-0.3-1.2-0.4-0.1-0.9c0.9-0.4,1.8-1.3,3-1.2c0.7-0.1,1.1,0.3,1,0.8c0.2,0.3-0.1,0.8,1,0.6
			c1.1-0.1,0.8-0.6,1.1-1c0.1-0.2-0.1-0.5,0.8-0.7c0.5-0.1,1.1-0.5,1.3,0c0,0.1,0.5,0.3,0.8,0.2
			C355.8,278.9,356.3,278.9,355.9,279.5z M366.7,277.1c-0.4,0-0.5-0.4-0.3-0.4c0.9-0.2,2,0,3.1,0.1
			C368.7,277.4,367.8,277.4,366.7,277.1z M412.3,272.8c-1.2,0-2.1,0.2-1.9,0.8c0.2,0.5-0.2,0.9-1.3,1c-1.1,0.4-2.4,0.6-3.3,0.3
			c-0.5-0.2-0.6-0.7,0.6-0.8c1-0.1,1.2-0.3,1.2-0.7c0.1-1.6,0.3-1.6,3.4-2.3c0.3,0,0.6-0.1,1.5-0.3
			C410.8,271.9,411.6,272.1,412.3,272.8z"/>
		
			<linearGradient id="SVGID_27_" gradientUnits="userSpaceOnUse" x1="314.5765" y1="218.4256" x2="319.8719" y2="218.4256" gradientTransform="matrix(0.9909 -0.1345 -0.1345 -0.9909 30.9595 542.9263)">
			<stop  offset="9.183670e-02" style="stop-color:#CD0000"/>
			<stop  offset="0.8878" style="stop-color:#9A0201"/>
		</linearGradient>
		<path class="st42" d="M313.9,284.4c0.2,0.4,0.4,0.5,1.3,0.4c0.1,0,0,0,0.1,0c1-0.7,2-1.5,3-2.2l-5.2,0.7
			C313.5,283.4,313.7,283.7,313.9,284.4z"/>
		
			<linearGradient id="SVGID_28_" gradientUnits="userSpaceOnUse" x1="104.6629" y1="253.872" x2="418.7292" y2="253.872" gradientTransform="matrix(0.9909 -0.1345 -0.1345 -0.9909 30.9595 542.9263)">
			<stop  offset="9.183670e-02" style="stop-color:#CD0000"/>
			<stop  offset="0.8878" style="stop-color:#9A0201"/>
		</linearGradient>
		<path class="st43" d="M383.5,207.7c0.6,0.2,1.1,0.4,1.7,0.4c-1.3,0.2-2.7,0.1-4,0.1c-1.1,0.5-2.1,1-3.2,1.4c0.8,0.1,1.9,0.3,2,0.5
			c0.1,0.5-1,0.3-1.9,0.2c-0.4,0-1-0.1-1.3-0.2c-1,0.4-2,0.6-3,0.8c1.4,0.1,2.8,0.2,4.2,0.2c0.6-0.3,1.3-0.5,1.3-0.1
			c0,0.1-0.1,0.1-0.1,0.2c0.5,0,0.9,0,1.4,0.1c0.4,0,0.6,0.2,0.7,0.5c0.4-0.2,0.9-0.3,1.3-0.4c-0.3,0.3-0.7,0.3-1,0.6l0,0
			c-1.8,1.2-4,1.7-5.9,2.7c-0.5,0.2-0.8,0.1-0.8-0.1c0-0.3,0.2-0.7,0.8-0.9c1.5-0.5,3-1,4.5-1.5c-0.6-0.1-1.3-0.1-2-0.2
			c-0.1,0.1-0.3,0.1-0.4,0.2c-0.8,0.3-1.9,0.8-1.9,0.2c0-0.2,0.4-0.4,0.8-0.6c-1-0.1-2.1-0.3-3-0.8c-1.1,0.3-2.3,0.7-3.4,0.8
			c2.5-0.6,3.6-3.6,6.9-2.9c0.1,0,0.5-0.1,0.6-0.3c0.2-0.2,0.5-0.2,0.7-0.3l-27.6,3.8c-0.1,0.2-0.6,0.1-1,0.2
			c-0.8,0.1-1.6,0.2-2.4,0.3l-4.3,0.6c-0.6,0.3-1.3,0.4-1.9,0.2l-41.2,5.6c-0.2,0.1-0.4,0.2-0.4,0.3c-0.7,1.4-1.6,1.6-3.1,1.4
			c-0.4-0.1-1.5,0.3-1.3-0.3c0.1-0.4,1-0.7,1.6-0.8c0.2-0.1,0.4-0.2,0.7-0.3l-23.8,3.2l-4.5,0.6c-2.1,1.3-4.2,2.6-6.2,3.9
			c0.7,0.2,1.4,0.4,2.1,0.6c0.5-0.2,0.9-0.4,1.3-0.7c0.2-0.3,0.5-0.2,0.5,0.1c0,0.3-0.4,0.6-0.8,0.9c0.1,0,0.2,0,0.2,0
			c1,0.5,2.7,1.1,2.5,1.6c-0.2,0.4-1.6-0.1-2.8-0.5c-0.4-0.1-0.7-0.2-1.1-0.3c-0.6,0.4-1.3,0.8-1.9,1.1c1.2,0.2,2.4,0.3,3.1,1.6
			c-1.3,0-2.8-0.7-4.3-1.1c-0.6-0.1-1.1-0.4-1.1-0.7c-0.1-0.2,0.1-0.4,0.4-0.2c0.5,0.2,0.9,0.2,1.4,0.3c0.3-0.6,0.7-1,1.2-1.4
			c-0.6-0.2-1.2-0.4-1.8-0.6c-0.1,0-0.1,0.1-0.2,0.1c-1,0.6-2.2,1.6-2.6,1.2c-0.3-0.4,0.6-1.1,1.4-1.7c-1.3-0.4-2.7-0.8-4-1.2
			c-0.5,0-1.2,0-1.3-0.4c-0.1-0.2,0.2-0.5,0.4-0.6c0.7-0.1,1.4-0.1,2.4,0.2c1.2,0.3,2.4,0.8,3.5,1.2c1.7-0.9,3.3-2.1,5-3.1
			l-18.2,2.5c1.5,0.3,3.1,0.7,4.5,1.1c-1.1-0.1-3.3-0.5-5.8-0.9l-28.4,3.9c0.4,0.3,0.8,0.6,0.3,0.8c-0.7,0.2-1.9,0.5-3-0.1
			c-0.2-0.1-0.5-0.1-0.7-0.2l-1.9,0.3c-0.1,0.1-0.2,0-0.3,0.1c-0.1,0.2-0.6,0.2-1,0.2c-0.3,0-0.5-0.1-0.8-0.1l-56.4,7.6
			c0.6,0.2,1.1,0.4,1.8,0.4c-1.3,0.2-2.7,0.1-4,0.1c-1.1,0.5-2.2,0.9-3.2,1.4c0.8,0.1,1.9,0.2,2,0.5c0.1,0.5-1,0.3-1.9,0.3
			c-0.5,0-0.9-0.1-1.4-0.3c-1,0.4-2,0.6-3,0.8c1.4,0.1,2.8,0.2,4.2,0.2c0.6-0.3,1.3-0.4,1.3-0.1c0,0.1-0.1,0.1-0.1,0.2
			c0.5,0,0.9,0,1.4,0.1c0.4,0,0.6,0.2,0.7,0.5c0.5-0.2,0.9-0.3,1.4-0.4c-0.3,0.3-0.7,0.4-1.1,0.6l0,0c-1.8,1.2-4,1.7-5.9,2.7
			c-0.5,0.2-0.8,0.1-0.8-0.1c-0.1-0.3,0.2-0.7,0.7-0.9c1.5-0.5,3-1,4.5-1.5c-0.7-0.1-1.4-0.2-2-0.2c-0.1,0-0.3,0.1-0.4,0.2
			c-0.8,0.3-1.9,0.8-1.9,0.3c0-0.2,0.4-0.4,0.8-0.6c-1.1-0.1-2.1-0.3-3-0.8c-1.1,0.3-2.2,0.7-3.4,0.9c2.5-0.6,3.6-3.6,6.9-2.9
			c0.1,0,0.5-0.2,0.6-0.3c0.2-0.2,0.5-0.2,0.7-0.3l-27.7,3.7c-0.1,0.2-0.6,0.2-1,0.2c-0.8,0.1-1.6,0.2-2.4,0.3l-4.3,0.6
			c-0.6,0.4-1.3,0.4-1.9,0.3l-8.8,1.2c-4,0.5-7,3.3-6.6,6.2l6.8,50.5c0.4,2.9,4,4.8,8,4.3l65.1-8.8c0.2-0.1,0.4-0.3,0.6-0.4
			c0,0.2-0.2,0.2-0.2,0.4l44.2-6c0-0.1-0.2-0.3,0-0.2c0.1,0,0.2,0.1,0.3,0.2l18-2.4c-1.6-0.2-1.9-1.2-2.7-1.9c-1.3-1,0.4-0.5,1-0.4
			c1.9,0,3.6,1.3,5.4,1.9l82.6-11.2c0.7-0.6,1.5-1.2,2-1.9c0.2-0.4,0.6-0.6,0.9-0.6c0.4,0,0.1,0.4-0.1,0.6c-0.2,0.6-0.8,1.2-1.4,1.8
			l25.7-3.5c0.1-0.2,0.2-0.3,0.3-0.5c0.3-0.6,1.5-1,2.1-1.2c0.8-0.3,0.9,0.1,0.9,0.5c0.4,0.2,0.3,0.4,0.2,0.6l51.8-7
			c4-0.5,6.9-3.3,6.5-6.3l-6.8-50.4c-0.2-1.3-1.1-2.4-2.4-3.2c-0.1,0-0.2,0-0.3,0c-0.4,0-0.9,0.2-1,0.1s0.1-0.4,0.2-0.6l0,0
			c-1.3-0.5-2.9-0.8-4.5-0.6L383.5,207.7z M99.5,254.9c-0.3,0-0.6,0.1-1.6,0.3c1.7-1,0.9-1.3,0.2-1.9c1.2,0,2.1-0.2,1.8-0.8
			c-0.2-0.5,0.2-0.9,1.3-1c1.2-0.4,2.5-0.7,3.3-0.3c0.5,0.1,0.6,0.7-0.6,0.7c-1,0.1-1.2,0.3-1.2,0.7
			C102.8,254.3,102.6,254.3,99.5,254.9z M104.5,256.2c-0.5,0.1-1.2,0.3-1.1-0.1c-0.1-0.3,0.3-0.6,1-0.8c0.5-0.1,1.1-0.1,1.3,0.3
			C105.8,256,105,256.1,104.5,256.2z M108.9,250.3c-0.4,0.3-0.8,0.5-1.2,0.6c-0.4,0.1-0.8,0.1-1,0c-0.4-0.2,0-0.4,0.2-0.5
			c1.9-0.7,1-1-0.6-1.2c1.6-0.6,2.5-0.8,2.9-0.2c0.2,0.2,0.2,0.4,0.4,0.6c0.3,0.2,1.7-0.2,1.4,0.3
			C110.9,250.5,109.7,250.1,108.9,250.3z M140.8,244.4c-2,0.1-3.9-0.1-5.7,0.2C135.8,243.6,138.5,243.4,140.8,244.4z M128.1,258.6
			c-0.5,0.3-1.2,0.2-1.8-0.1c-0.2-0.1-0.4-0.2-0.2-0.4c0.3-0.4,0.9-0.5,1.7-0.3c1.1,0,2.6-0.2,2.6,0.9
			C129.5,258.4,128.9,257.9,128.1,258.6z M138.9,247.4c0.3,0.5,0,0.9-0.7,1c-1.1,0.3-2.3-0.2-3.2-0.4c-1.2-0.2-0.2-0.5-0.1-0.9
			c0.1-0.1,0.1-0.4-0.1-0.6c-0.5-0.8,0.6-1,1.9-1c2,0.1,4-0.1,5.9-0.2c1.3,0.1,1.4,0.6,2,1c0.5,0.4,0.1,0.5-0.6,0.6
			c-0.3,0-0.8,0.4-0.7,0.5c0,0.6-0.8,0.3-1.3,0.4c-0.9,0-0.8-0.3-1-0.5c-0.4-0.3-0.3-0.9-1.3-0.7C138.6,246.6,139,247.1,138.9,247.4
			z M144,249.5c-0.9,0.2-2,0-3.1-0.1c0.8-0.6,1.8-0.6,2.8-0.3C144.1,249.1,144.3,249.4,144,249.5z M147,252.6
			c0.2,0.4,0.2,0.8-0.7,0.7c-0.7,0-1.9,0-2.4-0.6c-0.4-0.5-0.7-0.9-2.1-0.7c-0.4,0.1-1,0-1.1-0.4c0-0.1,0.5-0.3,0.8-0.2
			c1.3-0.1,2.7-0.2,4.1-0.1C146.8,251.5,147.7,252,147,252.6z M163.4,242.5c-1.9,0.2-3.6,0.8-5.6,1.3
			C159.8,242.3,162.4,241.7,163.4,242.5z M158.8,251.5c-1.4,0.2-1.6,0.7-1.8,1.2c-0.3,0.6-1.4,1-2.1,1.2c-0.8,0.3-0.9,0-0.8-0.5
			c-0.8-0.4-0.2-1.1,1-1.6s2.6-0.6,3.9-1c0.3-0.1,0.8-0.1,0.8,0C159.8,251.2,159.2,251.4,158.8,251.5z M156,249.6
			c-0.3,0-0.2-0.3,0.2-0.5c1-0.6,1.9-0.8,2.8-0.5C158,249,157,249.5,156,249.6z M164.4,245.8c-0.9,0.4-1.8,1.2-3,1.2
			c-0.7,0.1-1.1-0.3-0.9-0.9c-0.2-0.2,0.1-0.8-1-0.6c-1.1,0.2-0.8,0.7-1.1,1c-0.1,0.2,0.1,0.5-0.8,0.7c-0.5,0.1-1.1,0.5-1.3,0
			c0-0.1-0.5-0.3-0.9-0.2c-0.7,0.1-1.1,0.2-0.7-0.4c0.4-0.5,0.4-1,1.6-1.4c1.9-0.5,3.8-0.8,5.8-1.5c1.2-0.4,2.4-0.4,2.1,0.5
			c-0.1,0.3-0.1,0.6,0.1,0.7C164.5,245.3,165.5,245.3,164.4,245.8z M175.5,253.5c-0.5,0.4-1.2,0.7-1.8,0.5c-0.9-0.4-1.4,0.2-2.2,0.7
			c-0.2-1.1,1.3-1.3,2.3-1.6c0.7-0.3,1.3-0.4,1.7-0.1C175.9,253.2,175.7,253.4,175.5,253.5z M182.8,236.4c-0.4-0.4-1.6-0.2-2.1,0.2
			c-1.2,0.7-2.6,0.8-4.1,1c-0.4,0.1-0.9,0.3-1,0.1c-0.1-0.1,0.1-0.4,0.2-0.6c0.3-0.5,1.3-0.5,2-0.7c3.5-0.8,6.9-0.8,10.3-1.5
			c0.9-0.3,1.6-0.1,1.7,0.1c0.2,0.6-0.9,0.5-1.4,0.6c-1,0.5-2.2,0.1-3.3,0.7C184.6,236.7,183.6,237.1,182.8,236.4z M192,240.5
			c0.3,0.1,0.6,0.2,0.4,0.4c-0.2,0.2-0.6,0.2-1,0.3c-0.4,0-0.9,0-1.3-0.2c-0.8,0-1.9,0.7-2.2,0c-0.4-0.4,1-0.3,1.3-0.6
			c0.2-0.2,0.1-0.4,0.3-0.6c0.3-0.7,1.2-0.8,2.9-0.7C190.7,239.8,190,240.3,192,240.5z M195.9,245.5c-0.5,0.1-1.3,0.2-1.3-0.2
			c0.1-0.3,0.6-0.5,1.2-0.6c0.7,0,1.1,0.1,1.2,0.5C197.1,245.5,196.4,245.4,195.9,245.5z M200.4,243c-3.2,0.2-3.3,0.2-3.8-1.3
			c-0.1-0.4-0.4-0.5-1.3-0.4c-1.2,0.3-1.2-0.3-0.8-0.5c0.8-0.6,2.1-0.7,3.3-0.6c1.1-0.2,1.6,0.1,1.5,0.6c-0.1,0.7,0.8,0.6,2,0.3
			c-0.4,0.8-1.2,1.2,0.7,1.8C201,242.9,200.7,242.9,200.4,243z M207.5,233.7c3.2,0.2,6.4-0.9,9.6,0.5
			C214.1,234.9,208.5,234.7,207.5,233.7z M227.9,283.4c-0.2-0.1-0.6-0.5-0.2-0.5c0.2-0.1,0.7,0,1,0.3c1.3,1,3.1,1.7,4.6,2.5
			C231.5,285.9,228.8,284.7,227.9,283.4z M230.2,231.5c-1.4,0.6-2.3,0.6-3.3-0.5c-0.2-0.2-1.2-0.5-2.2-0.8c1.8-0.3,3.4,0.3,5,0.4
			c0.6,0,1.6,0,1.7,0.4C231.7,231.4,230.6,231.3,230.2,231.5z M241.6,238.5c-0.2,0.5-0.5,0.9-0.9,1s-0.2-0.2-0.1-0.5
			c0.9-1.4-0.7-1.1,0.3-2.8C241.8,236.5,242.3,237.1,241.6,238.5z M249.9,245.5c-0.2,0.4-0.6,0.6-0.9,0.6c-0.4,0-0.1-0.3,0.1-0.6
			c0.5-1.5,2.8-3.3,4.6-3.6C252.4,243.1,250.9,244.2,249.9,245.5z M257.9,239.5c-0.6,0.2-2.1,1.2-1.1-0.1c0.6-1,0.3-2.2,2.4-2.8
			c1-0.2,1.9-0.6,3.1-1.1c0.3,0.1,1-0.1,0.8,0.4C261.2,236.8,259.9,238.9,257.9,239.5z M272.4,239.3c-2,0-3.9-1.7-6-2.1
			c-0.4-0.5,0.4-0.5,0.6-0.6c1.3,0.1,2.3,0.3,3.3,0.2c2.2,0,2.3,1.3,3.1,2.1C274.8,239.8,273,239.3,272.4,239.3z M282.8,243.2
			c-0.2,0.1-0.7,0-1-0.3c-1.3-0.9-3.1-1.6-4.6-2.5c1.9-0.2,4.6,1,5.4,2.3C282.8,242.9,283.1,243.2,282.8,243.2z M289.1,234.6
			c-0.5,0-0.9-0.3-1.2-0.7c-1-1.2-0.7-1.9,0-2.4c1.5,1.3-0.2,1.5,1.1,2.6C289.2,234.4,289.5,234.7,289.1,234.6z M309.9,220
			c2.7-2.2,6.1-2,9.1-3.1C318.3,218.1,312.9,219.8,309.9,220z M327,222.3c1.2,0,2.1-0.2,1.9-0.8c-0.2-0.5,0.2-0.9,1.3-1
			c1.2-0.4,2.5-0.7,3.3-0.3c0.5,0.2,0.6,0.7-0.6,0.7c-1,0.1-1.2,0.2-1.2,0.7c-0.1,1.6-0.3,1.6-3.4,2.2c-0.2,0-0.6,0.1-1.6,0.3
			C328.4,223.2,327.6,222.9,327,222.3z M336.6,272.9c-0.7,0.4-1.3,0.4-1.7,0.1c-0.2-0.2-0.1-0.3,0.1-0.4c0.5-0.4,1.2-0.7,1.8-0.6
			c0.9,0.4,1.4-0.2,2.1-0.7C339.1,272.4,337.6,272.6,336.6,272.9z M333.3,225.1c-0.5,0.1-1.2,0.3-1.2,0c0-0.4,0.3-0.6,1-0.8
			c0.5-0.1,1.1-0.1,1.3,0.2C334.6,225,333.8,225.1,333.3,225.1z M337.7,219.2c-0.3,0.3-0.8,0.5-1.2,0.6c-0.4,0.1-0.8,0.1-1,0
			c-0.3-0.2,0-0.4,0.2-0.5c1.9-0.7,1-1-0.6-1.2c1.6-0.6,2.4-0.8,2.9-0.2c0.2,0.2,0.2,0.4,0.4,0.6c0.3,0.2,1.7-0.2,1.4,0.3
			C339.7,219.5,338.5,219,337.7,219.2z M392.1,211.5c-1.9,0.2-3.6,0.8-5.6,1.3C388.6,211.2,391.2,210.6,392.1,211.5z M369.6,213.4
			c-2,0-3.8-0.1-5.7,0.2C364.5,212.5,367.3,212.4,369.6,213.4z M356.9,227.5c-0.5,0.3-1.3,0.2-1.8,0c-0.2-0.1-0.4-0.2-0.2-0.4
			c0.4-0.4,0.9-0.5,1.7-0.3c1.1,0,2.6-0.2,2.7,0.9C358.3,227.3,357.7,226.8,356.9,227.5z M367.7,216.3c0.3,0.5,0,0.9-0.7,1.1
			c-1.1,0.3-2.3-0.2-3.2-0.4c-1.2-0.2-0.2-0.5-0.1-0.9c0.2-0.1,0.1-0.4-0.1-0.6c-0.4-0.8,0.7-1.1,2-1c2,0.1,4-0.1,5.9-0.1
			c1.3,0.1,1.4,0.5,2,0.9c0.5,0.4,0,0.5-0.6,0.6c-0.4,0.1-0.8,0.3-0.8,0.4c0,0.6-0.7,0.3-1.3,0.4c-0.9,0-0.8-0.4-1-0.5
			c-0.4-0.3-0.3-0.9-1.3-0.7C367.4,215.5,367.8,216,367.7,216.3z M372.8,218.4c-0.9,0.2-2,0-3.1-0.1c0.8-0.6,1.7-0.6,2.8-0.3
			C372.9,218,373.1,218.4,372.8,218.4z M370.6,221c-0.4,0.1-1,0-1.1-0.4c0-0.1,0.4-0.3,0.8-0.2c1.3,0,2.7-0.2,4.1-0.1
			c1.2,0.2,2.1,0.6,1.4,1.2c0.2,0.4,0.2,0.8-0.7,0.7c-0.7,0-1.9-0.1-2.3-0.6C372.3,221.3,372,220.8,370.6,221z M382.7,268.4
			c-1.1,0-2.6,0.2-2.7-0.9c0.9,0.3,1.5,0.8,2.3,0.1c0.5-0.3,1.2-0.1,1.8,0.1c0.2,0.1,0.4,0.2,0.2,0.4
			C384,268.5,383.5,268.5,382.7,268.4z M387.6,220.4c-1.4,0.2-1.6,0.7-1.8,1.2c-0.3,0.6-1.4,1-2.1,1.2c-0.8,0.3-0.9-0.1-0.8-0.5
			c-0.8-0.4-0.2-1.1,1-1.6s2.6-0.7,4-1c0.3-0.1,0.8-0.1,0.8,0C388.6,220.1,388,220.4,387.6,220.4z M384.8,218.5
			c-0.2,0-0.2-0.4,0.2-0.5c0.9-0.6,1.9-0.8,2.8-0.5C386.7,218,385.8,218.4,384.8,218.5z M393.2,214.7c-0.8,0.4-1.8,1.2-3,1.2
			c-0.7,0.1-1.1-0.3-1-0.9c-0.2-0.2,0.1-0.8-1-0.6c-1,0.1-0.8,0.6-1.1,1c-0.1,0.2,0.1,0.5-0.8,0.7c-0.5,0.1-1.1,0.5-1.3,0
			c0-0.1-0.5-0.3-0.9-0.2c-0.6,0.1-1.1,0.2-0.7-0.4c0.4-0.5,0.4-1,1.6-1.4c1.9-0.5,3.8-0.9,5.8-1.5c1.3-0.4,2.4-0.4,2.1,0.5
			c-0.1,0.2,0,0.6,0.1,0.6C393.3,214.2,394.3,214.3,393.2,214.7z M404.4,222c0.2,0.2,0.1,0.3-0.1,0.4c-0.5,0.4-1.2,0.7-1.7,0.5
			c-0.9-0.4-1.4,0.2-2.2,0.7c-0.3-1.1,1.2-1.3,2.3-1.6C403.4,221.8,404,221.7,404.4,222z"/>
		
			<linearGradient id="SVGID_29_" gradientUnits="userSpaceOnUse" x1="426.1052" y1="289.2179" x2="426.2287" y2="289.2179" gradientTransform="matrix(0.9909 -0.1345 -0.1345 -0.9909 30.9595 542.9263)">
			<stop  offset="9.183670e-02" style="stop-color:#CD0000"/>
			<stop  offset="0.8878" style="stop-color:#9A0201"/>
		</linearGradient>
		<path class="st44" d="M414.4,199h-0.1C414.3,199.1,414.3,199,414.4,199L414.4,199z"/>
	</g>
	<g>
		<path class="st3" d="M140.7,292.2c-0.4,0.1-0.7,0.1-0.9,0l-1.8-0.3c-0.2-0.1-0.4-0.1-0.5-0.1s-0.3,0-0.4-0.1l0.1,0.4l-0.3,0.2
			l-0.1-0.6c0,0-0.1-0.1-0.2-0.1c-0.1,0-0.2-0.1-0.3-0.1c0.3-0.2,0.4-0.5,0.4-0.8c0-0.1-0.1-0.3-0.1-0.4s-0.1-0.2-0.1-0.2
			c0-0.1-0.1-0.2-0.1-0.3c-0.1,0-0.2-0.1-0.3-0.2s-0.1-0.2-0.2-0.3c0-0.1,0-0.2,0.2-0.4c0.1,0,0.2-0.1,0.3-0.2s0.2-0.1,0.3-0.1
			c0.1-0.1,0.3-0.1,0.4-0.2c0.1-0.1,0.2-0.2,0.3-0.2c0.2-0.2,0.5-0.3,0.8-0.3c0.1,0,0.2,0,0.3-0.1c0.1,0,0.2-0.1,0.3-0.1
			c0-0.6-0.1-1.1-0.1-1.4c-0.1-0.3-0.2-0.7-0.4-1.1s-0.3-0.7-0.4-1c0-0.3-0.1-0.6,0-0.8l-0.1-0.4c-0.1-0.5-0.2-1-0.4-1.4
			s-0.3-0.8-0.4-1.3c0-0.2-0.1-0.6-0.2-1c0-0.2-0.1-0.5-0.2-0.7c-0.1-0.2-0.1-0.4-0.1-0.6s0-0.4-0.1-0.7c0-0.3-0.1-0.6-0.2-0.9
			c-0.1-0.3-0.1-0.5-0.2-0.7c-0.1-0.2-0.1-0.4,0-0.6c0-0.5,0-0.8,0-0.8c-0.1-0.7-0.1-1.3,0.1-1.9c0.1-0.2,0.1-0.4,0-0.8
			c0-0.3-0.2-0.5-0.6-0.6c-0.2,0-0.4-0.1-0.5-0.2c-0.1-0.3-0.1-0.5,0-0.6c0.1,0,0.1-0.2,0.1-0.4c0-0.2-0.1-0.5-0.2-0.8
			c-0.1-0.3-0.1-0.6-0.1-0.8v-0.1c0-0.1-0.1-0.3-0.2-0.5c-0.1-0.2-0.2-0.3-0.2-0.4c0-0.3,0-0.5,0-0.6c0.1-0.3,0.1-0.6,0.1-1
			s0-0.8,0-1c-0.2-0.2-0.3-0.3-0.3-0.5s0-0.3,0-0.5c0-0.1,0-0.3,0-0.4c0-0.3,0-0.7,0-1.3c-0.2,0-0.4,0-0.8,0c-0.4-0.1-0.7,0-1,0.1
			c-0.1,0-0.2,0-0.3,0c-0.3-0.1-0.5-0.1-0.8,0l-0.1,0.1c-0.1,0-0.1,0-0.1,0c-0.1,0-0.2-0.1-0.5-0.2s-0.5-0.3-0.6-0.6
			c-0.1-0.1-0.2-0.2-0.2-0.4c-0.1-0.2-0.1-0.3-0.1-0.4c0.2-0.1,0.3-0.3,0.4-0.6c0-0.3,0.1-0.5,0.1-0.7c0,0,0-0.1,0-0.2
			s0-0.2-0.1-0.2c-0.1-0.3,0-0.4,0.2-0.4s0.5-0.2,0.8-0.4c0.1-0.1,0.3-0.2,0.5-0.2c0.2-0.1,0.3-0.1,0.4-0.1h0.3
			c0.2-0.1,0.8-0.3,1.7-0.7c0.4-0.1,0.7-0.2,1-0.2s0.6,0,0.9-0.1c0.2-0.1,0.4-0.1,0.6-0.1c0.5-0.1,0.8-0.2,1.1-0.3
			c0.3,0,0.5,0,0.6,0h0.3c0.1,0,0.2-0.1,0.4-0.1c0.1,0,0.3,0,0.5,0s0.4,0,0.5,0.1l1.3,0.1c0.8,0.2,1.4,0.4,1.7,0.6
			c0,0.1,0,0.2-0.1,0.3c0,0.1,0,0.2-0.1,0.3c0,0.1,0,0.2,0,0.4c0,0.3,0.2,0.5,0.4,0.7c0.2,0.1,0.2,0.4,0.1,0.7L143,259
			c0,0.1-0.1,0.2-0.1,0.2l0.1-0.4c-0.1,0.3-0.2,0.6-0.5,0.8c-0.3,0.3-0.5,0.4-0.7,0.5c-0.1,0-0.3,0.1-0.5,0.1s-0.4,0.1-0.7,0.1h-0.2
			c-0.2,0-0.4,0.1-0.6,0.2c-0.2,0.1-0.3,0.2-0.4,0.3c0.1,0.3,0.1,0.7,0.1,1s0,0.7,0.1,1c0,0.2,0.1,0.5,0.2,0.7
			c0.1,0.3,0.1,0.5,0.2,0.7c0.1,0.9,0.2,1.6,0.2,2.1l0.1,0.4c0.2,0.4,0.3,0.9,0.4,1.4c0.1,0.4,0.1,1,0.2,1.9c0,0.1,0,0.3,0,0.5
			s0,0.4-0.1,0.5s-0.1,0.2-0.1,0.3c0.1,0.3,0.3,0.8,0.4,1.3l0.1,0.4c0,0,0,0.1,0,0.2s0,0.2,0.1,0.3c0.2,0.2,0.3,0.3,0.3,0.6
			c0,0.2,0,0.4,0,0.5c0.1,0.5,0.2,1,0.4,1.5l0.1,0.4c0,0.2,0,0.4-0.1,0.6c0,0.1,0,0.3,0,0.5s0.1,0.4,0.1,0.6
			c0.1,0.2,0.1,0.3,0.2,0.5c0.1,0.2,0.1,0.3,0.1,0.3c-0.1,0.1-0.1,0.3,0,0.5l0.2,0.7c0,0.2,0.1,0.4,0.3,0.7l0.1,0.8
			c0,0.3,0,0.5,0,0.6s0,0.3,0,0.6c0.1,0.3,0.2,0.7,0.4,1.2v0.2c0.2,0.1,0.3,0.3,0.3,0.5v0.6c-0.2,0.2-0.2,0.3-0.2,0.4
			s0.1,0.3,0.3,0.7c0,0,0.1,0,0.2,0c0.1,0,0.2,0,0.2-0.1c0.1-0.1,0.2-0.1,0.2-0.1c0.1,0,0.2,0,0.3,0s0.3,0,0.5,0s0.4,0,0.6-0.1
			c0.3-0.1,0.6-0.1,1-0.1s0.7,0,1,0c0,0,0.1,0,0.1,0.1s0.1,0.1,0.1,0.2c0.1,0.1,0.2,0.3,0.2,0.6c0,0.3,0.1,0.5,0.2,0.7
			c0.1,0.1,0.2,0.2,0.5,0.4c0,0.1,0,0.3-0.1,0.5s-0.1,0.4,0,0.5c0,0.1,0,0.3-0.1,0.5s0,0.4,0.1,0.6l-0.5-0.1c-0.1,0-0.2,0-0.3,0
			s-0.3,0.1-0.6,0.2c-0.2,0.3-0.6,0.5-1.1,0.6c-0.7,0.2-1.3,0.5-1.9,0.7c-0.1,0-0.3,0.1-0.5,0.1s-0.4,0.1-0.6,0.1l-1.1,0.2h-0.3
			C141.4,292.1,141,292.2,140.7,292.2z M143.5,290.1c0.1,0,0.3-0.2,0.5-0.4c0.1-0.2,0.2-0.3,0.2-0.4s-0.1-0.2-0.3-0.4
			c-0.2,0.2-0.4,0.4-0.6,0.6c-0.2,0.2-0.3,0.4-0.3,0.5C143.2,290.1,143.4,290.1,143.5,290.1z M145.5,289.5c0-0.2-0.1-0.4-0.3-0.3
			c-0.1,0-0.1,0-0.1,0.1l-0.1,0.1c0,0.1,0.1,0.1,0.2,0.2c0.1,0.1,0.1,0.1,0,0.3l0.3,0.4L145.5,289.5z"/>
		<path class="st3" d="M180.4,287c-0.1,0-0.3-0.1-0.5-0.2l-0.2-0.2c0.1-0.1,0.1-0.2,0.1-0.3c0-0.1-0.1-0.2-0.4-0.3
			c-0.3-0.1-0.5-0.3-0.6-0.7l-0.5,0.3c-0.4-0.1-0.9-0.4-1.5-0.9c0,0-0.1-0.1-0.1-0.3c-0.1-0.4-0.3-0.8-0.8-1.1
			c-0.1,0-0.1-0.1-0.2-0.1l-0.1-0.1c-0.1-0.1-0.1-0.3-0.1-0.6l-0.8-0.2c-0.3-0.1-0.7-0.3-1-0.6c-0.2-0.1-0.4-0.3-0.5-0.5
			c0-0.2-0.1-0.5-0.3-0.7v-0.1c0,0,0.1,0,0.2,0s0.2-0.1,0.3-0.2c0-0.1-0.1-0.2-0.2-0.3c-0.1-0.1-0.2-0.1-0.2-0.1h-0.1
			c-0.1,0-0.2,0-0.3-0.1s-0.1-0.2-0.2-0.2c-0.3,0-0.5,0-0.6-0.3l0.6-0.4c-0.1-0.1-0.2-0.2-0.4-0.5c-0.2-0.2-0.3-0.4-0.4-0.6
			c-0.1-0.2-0.2-0.4-0.5-0.6c-0.3-0.1-0.5-0.3-0.7-0.4l-0.2,0.3h-0.1c0.1-0.1,0.1-0.2,0.1-0.3c0-0.1,0.1-0.2,0.1-0.2
			c0-0.2-0.1-0.5-0.3-0.7s-0.3-0.3-0.5-0.4c-0.1,0-0.2,0.1-0.3,0.1c-0.1,0.1-0.1,0.1-0.2,0.2c-0.1,0-0.4-0.1-0.6-0.3
			c-0.2-0.2-0.3-0.3-0.3-0.4c0,0,0-0.2,0.1-0.5c0.1-0.2,0.1-0.3,0.1-0.3c0-0.1-0.1-0.1-0.2-0.3l-0.7,0.1c0-0.1,0.1-0.1,0.2-0.2
			c0.1-0.1,0.2-0.1,0.1-0.3c-0.6,0-1-0.2-1.3-0.9l-0.2-0.4c0-0.2,0-0.3,0.1-0.5c0.1,0,0.1-0.1,0.1-0.2s0-0.2-0.1-0.2
			c0-0.2-0.2-0.2-0.4-0.2l-0.2-0.2v-0.2c0-0.2-0.1-0.4-0.3-0.6s-0.3-0.4-0.4-0.5c0,0-0.1-0.1-0.2-0.3c-0.1-0.2-0.3-0.3-0.6-0.4
			c0,0.1,0,0.3-0.1,0.4H164c0,0-0.1-0.1-0.1-0.2s-0.1-0.2-0.2-0.3c0,0.1-0.1,0.1-0.1,0.2v0.1c0,0.1,0,0.3,0.1,0.6
			c0,0.3,0.1,0.5,0.1,0.7l0.1,0.4c0,0.3,0.1,0.5,0.1,0.7s0,0.4,0,0.5v0.5l0.1,0.5c0.1,0.2,0.2,0.4,0.2,0.6s0,0.3,0,0.4
			c0.1,0.9,0.3,2.1,0.5,3.8l0.2,1.2c0.1,0.7,0.3,1.6,0.5,2.7l0.8,5.4c0.1,0.5,0,1-0.2,1.4l-0.2,0.1c-0.2,0-0.3,0-0.4-0.2l-0.1-0.1
			c0-0.1,0-0.1-0.1-0.1l-0.2-0.1c-0.1,0.1-0.2,0.1-0.3,0.1s-0.3,0-0.6-0.1l-0.3-0.4c-0.1,0.3-0.2,0.4-0.3,0.4s-0.2,0-0.4-0.1
			c-0.1,0-0.2,0-0.4,0s-0.3,0-0.4-0.1c-0.2,0-0.4-0.1-0.6-0.2c-0.5-0.6-0.8-0.9-0.8-1c0,0-0.1-0.1-0.2-0.1c-0.1-0.1,0-0.2,0-0.3
			c0,0-0.1-0.1-0.2-0.2c-0.1-0.1-0.2-0.2-0.3-0.4c-0.1-0.2-0.2-0.3-0.3-0.4l0.1-0.1l0.4,0.4l-0.1-0.6c-0.1-0.5-0.2-0.9-0.3-1.1
			c-0.1-0.3-0.3-0.6-0.4-0.7c-0.2-0.1-0.3-0.4-0.5-0.9c0.3-0.2,0.5-0.4,0.4-0.7c0-0.5,0-1.1-0.1-1.7v-0.1c0,0,0-0.1,0-0.2l-0.3-0.6
			c0,0,0,0-0.1,0s-0.1,0-0.1,0c-0.1-0.4-0.2-0.8-0.4-1v-0.1c0-0.1,0-0.1,0-0.2c0.1-0.3,0.1-0.5,0-0.8c0-0.1,0-0.3,0-0.4v-0.1
			c0-0.1,0-0.1,0-0.1c-0.1-0.1-0.1-0.2-0.1-0.3c0,0,0-0.3,0.1-0.7c0-0.1,0-0.2,0-0.4l-0.2-1c0-0.1-0.1-0.1-0.2-0.2c0,0,0-0.1,0-0.2
			s0-0.1,0-0.2c0,0-0.1-0.1-0.2-0.1c-0.1,0-0.2-0.1-0.3-0.1c-0.1-0.4,0-0.7,0.1-1c0.2-0.3,0.2-0.6,0.2-1c0-0.3-0.2-0.6-0.4-0.9
			c0.2,0,0.4-0.1,0.3-0.3c-0.1-0.3-0.2-0.7-0.3-1.2v-0.4c0-0.2-0.1-0.3-0.2-0.4c0-0.1-0.1-0.2,0-0.3s0-0.2,0-0.2l-0.1-0.4
			c0,0,0-0.1,0-0.2s0-0.1,0-0.2c0,0,0-0.1,0-0.2c0,0-0.1-0.1-0.2-0.2c-0.1-0.1-0.1-0.2-0.1-0.2c0.1-0.3,0.2-0.5,0.2-0.6
			c-0.1-0.2-0.1-0.6-0.2-1.1c0-0.1-0.1-0.2-0.1-0.3c0-0.1,0-0.1,0-0.2v-0.4c0-0.2-0.1-0.3-0.4-0.3c0.2-0.4,0.3-0.9,0.2-1.3
			c0-0.3-0.1-0.6-0.3-1c-0.1-0.5-0.2-0.8-0.2-1c0-0.1-0.1-0.2-0.1-0.3c-0.1-0.1-0.1-0.1-0.1-0.3c0-0.1,0-0.2,0.1-0.2
			c0.2-0.1,0.3-0.2,0.3-0.3c0-0.1,0-0.2,0-0.3c0-0.1-0.1-0.2-0.1-0.3c0-0.1-0.1-0.3-0.2-0.5c-0.1-0.2-0.2-0.4-0.2-0.5
			c0.2-0.9,0.3-1.5,0.3-1.9c0.1-0.1,0.1-0.2,0.1-0.4v-0.2c-0.1-0.4,0.1-0.9,0.4-1.4c0.2,0,0.6,0,1.1,0.1l0.3-0.4
			c0.2-0.2,0.3-0.2,0.5,0c0.1,0.1,0.2,0.2,0.4,0.3c-0.1,0,0.2,0.1,1,0.1c0.1,0,0.2,0,0.3,0.1s0.3,0.1,0.6,0.2l0.1-0.1
			c0.4,0.9,0.8,1.5,1.1,2.1c0.1,0.3,0.4,0.6,0.8,1.1c0.2,0.3,0.5,0.6,0.7,0.8c0.2,0.2,0.3,0.3,0.4,0.4c0.3,0.2,0.5,0.4,0.6,0.8
			c0,0.1,0.1,0.2,0.2,0.2c0.1,0.1,0.1,0.1,0.2,0.2c0.1,0.2,0.2,0.4,0.3,0.6s0.3,0.5,0.5,0.8c0.1,0.2,0.3,0.5,0.6,0.8
			c0.1,0,0.1,0.1,0.2,0.1c0,0.1,0.1,0.1,0.1,0.1l0.7,0.9l1,1.3c0.3,0.4,0.5,0.8,0.8,1.3s0.4,0.8,0.5,1c0,0.1,0.1,0.2,0.2,0.3
			c0.1,0.1,0.2,0.2,0.3,0.3c0.3,0.3,0.6,0.6,0.9,1c0.3,0.4,0.5,0.7,0.7,0.9c0.8,1.1,1.3,1.9,1.7,2.3h0.1c0.9,1.2,1.5,2,1.9,2.5
			c0,0,0,0.1,0.1,0.1c0.3,0.1,0.5,0.3,0.7,0.5s0.2,0.4,0.2,0.4l0.3,0.3l0.8,0.8v-0.1l-0.2-0.9l-0.1-0.9v-0.3l-0.2-0.9
			c-0.2-1.7-0.3-2.9-0.4-3.8l-0.3-1.4l-0.6-5.1c-0.2-1.5-0.4-2.6-0.4-3.4l-0.1-0.9l-0.1-0.5c-0.1-0.6-0.1-1-0.1-1.3
			c0-0.4,0-1.1-0.1-2.1c0-0.2,0-0.6,0-0.9c0-0.4,0-0.7,0-0.9c0-0.1,0-0.3,0-0.4c0-0.2,0.1-0.3,0.1-0.4c0.1-0.2,0.2-0.2,0.4-0.1
			c0.1,0,0.3,0.1,0.4,0.2c0.1,0.1,0.2,0.1,0.4,0.2c0.1-0.1,0.4-0.2,0.9-0.3c0.4-0.1,0.7-0.3,0.9-0.5c0.3,0.1,0.6,0.3,0.9,0.6
			l0.3-0.8c0.4,0.4,0.6,0.9,0.7,1.5c0,0.3,0.2,0.6,0.4,1c0.1,0.3,0.2,0.7,0.3,1.2c0,0.4,0.1,1,0.2,1.7v0.3c0.2,0.2,0.3,0.5,0.4,0.9
			c0,0.1,0,0.3,0,0.6c0,0.2,0,0.5,0.1,0.6c0,0.2,0.1,0.3,0.1,0.4c0.2,0.6,0.4,1.4,0.6,2.6c0,0,0.1,0.1,0,0.1c0,0.1,0,0.1,0,0.1
			c0.1,0.1,0.1,0.2,0.2,0.4c0,0.2,0,0.4,0,0.5c0,0.2,0,0.3,0,0.5c0,0.4,0,0.7,0,0.9c0.1,0.4,0.2,0.7,0.5,0.9
			c-0.1,0.2-0.2,0.4-0.2,0.6s0.1,0.4,0.2,0.5c0.1,0,0.1,0.1,0.1,0.2c0,0.2,0.1,0.5,0.3,0.8s0.2,0.5,0.1,0.8c0,0,0,0.1,0,0.2
			s0,0.1,0,0.1c-0.2,0.3-0.4,0.5-0.5,0.5c0.1,0.2,0.1,0.4,0.1,0.6c0,0.3,0.1,0.5,0.2,0.6c0.1,0.2,0.3,0.3,0.6,0.4
			c-0.1,0.2-0.2,0.3-0.4,0.4c-0.2,0.2-0.3,0.4-0.3,0.5s0,0.2,0,0.4c0,0.2,0.1,0.4,0.2,0.5c0.2,0.3,0.3,0.6,0.4,0.9
			c-0.1,0-0.3,0.1-0.4,0.3c0,0,0,0.1,0,0.2v0.6c0,0.1,0,0.3,0,0.6c0,0.2,0,0.5,0,0.6c0.1,0.4,0.2,1.1,0.3,1.9c0.1,0.4,0.1,0.8,0.1,1
			v0.1l0.2,0.4c0-0.1,0-0.2,0.1-0.2c0.1-0.1,0.2-0.3,0.2-0.4s0-0.2,0-0.3c0-0.1,0-0.3,0-0.6c0.2,0.1,0.2,0.2,0.2,0.2l0.3,2.3
			c0.1,0.4,0,0.7-0.3,0.9c-0.2,0.1-0.3,0.2-0.3,0.4c0,0.2-0.1,0.3-0.1,0.3v0.2c0,0.1,0.1,0.3,0.1,0.4c0.1,0.1,0.1,0.3,0.1,0.5
			l0.3-0.3c0.2,0.1,0.3,0.4,0.4,0.6c0,0.1,0,0.4,0,0.7c0.1,0.5,0,0.8-0.3,0.9c0-0.1,0-0.2,0-0.4c0-0.2,0-0.4-0.1-0.5
			c0-0.1,0-0.2,0-0.4c0-0.2,0-0.3-0.1-0.5c-0.2,0.4-0.3,0.7-0.3,1c0,0.4-0.2,0.7-0.5,1l-0.7-0.5c0,0.3,0,0.5,0,0.5
			c-0.1,0.5-0.4,0.8-0.8,0.8c-0.1,0-0.1,0-0.2,0.1c-0.1,0.1-0.1,0.1-0.1,0.2c-0.2,0.3-0.5,0.6-0.8,0.9
			C180.7,286.9,180.6,287,180.4,287z M159.1,266.2c-0.1,0-0.2-0.1-0.2-0.2c0,0.1-0.1,0.2-0.2,0.2c0.1,0.1,0.2,0.2,0.3,0.2
			C159,266.3,159,266.2,159.1,266.2z M158.8,266.8L158.8,266.8h-0.1c0,0.1,0,0.1,0.1,0.1V266.8z M159.1,267.1L159.1,267.1
			c-0.1,0-0.1,0-0.2,0v0.1C159,267.2,159,267.1,159.1,267.1z M160.3,270.3h-0.1v0.1v0.1L160.3,270.3z M160.6,267L160.6,267
			L160.6,267L160.6,267L160.6,267L160.6,267z M162.3,268.9c0.1-0.1,0.1-0.2,0.2-0.3c-0.4,0-0.6-0.1-0.7-0.1c-0.1,0-0.1-0.1-0.1-0.3
			c0.2,0,0.3-0.1,0.4-0.2c-0.1-0.1-0.1-0.2-0.2-0.3c0-0.1,0-0.2-0.1-0.2c0-0.1,0-0.2-0.1-0.4s-0.2-0.3-0.3-0.3l-0.3,0.8
			c0.1,0,0.2,0.1,0.2,0.2c0,0.2,0,0.3,0,0.4c-0.1,0-0.1,0.1-0.2,0.1c-0.1,0-0.1,0-0.2,0l-0.3-0.1c-0.2,0.2-0.2,0.4,0,0.6
			c0.1,0.1,0.1,0.2,0.2,0.2c0,0,0.1,0,0.2-0.1c0.1-0.1,0.2-0.1,0.2-0.1c0.1,0.2,0.3,0.4,0.7,0.6C162.2,269.1,162.3,269,162.3,268.9z
			 M161,274.5L161,274.5h-0.2c0,0,0,0.1,0.1,0.1L161,274.5z M161.1,273.5h-0.2c0,0.1,0.1,0.2,0.1,0.3c0,0.1,0.1,0.1,0.2,0.2
			L161.1,273.5z M161.1,270.3H161l-0.1,0.1c0,0,0,0.1,0.1,0.1C161,270.5,161.1,270.4,161.1,270.3L161.1,270.3z M161.4,264.4
			c0-0.1-0.1-0.1-0.2-0.1v0.1l0.1,0.2L161.4,264.4z M161.4,265.6h-0.1H161.4c-0.1,0.1,0,0.1,0,0.2V265.6z M162.4,270.4
			c-0.1,0-0.1,0.1-0.2,0.2c-0.1,0.1-0.1,0.1-0.1,0.2c0,0,0.1,0.1,0.2,0.1c0.1,0.1,0.2,0.1,0.3,0.2L162.4,270.4z M164.1,261.8
			c0.1-0.1,0.2-0.2,0.3-0.1c0.2,0.1,0.4,0.1,0.5,0.1c-0.2-0.2-0.5-0.4-1-0.5s-0.9-0.2-1.2-0.1c0.2,0.2,0.4,0.4,0.6,0.6
			c0.2,0.2,0.4,0.3,0.7,0.3C164,262,164,261.9,164.1,261.8z M163.3,268.7c0-0.1-0.1-0.2-0.1-0.3v-0.1c0,0,0,0-0.1,0
			c0,0.2,0.1,0.3,0.1,0.4H163.3z M166,265c0.1-0.1,0.1-0.1,0.2-0.2c0-0.2,0-0.4,0-0.5h0.3c0.2,0,0.3-0.1,0.5-0.3
			c0-0.3-0.2-0.6-0.5-1c-0.3-0.3-0.6-0.6-0.7-0.7c0,0.1,0,0.2,0,0.4c0,0.2,0,0.3,0,0.3l0.2,0.4c0,0.1-0.1,0.3-0.4,0.5
			c0-0.2,0-0.4-0.1-0.7c-0.3-0.1-0.8-0.4-1.5-0.7l0.1,0.6c0.3,0,0.4-0.1,0.5-0.2c0.1,0.4,0.2,0.6,0.5,0.7c0.2,0.1,0.3,0.2,0.4,0.3
			c0.2,0.1,0.4,0.1,0.4,0.2s-0.2,0.3-0.3,0.4c-0.1,0.2-0.1,0.3-0.1,0.4s0.1,0.2,0.2,0.2C165.9,265.1,166,265,166,265z M165.4,262.2
			L165.4,262.2l-0.1-0.2c0,0.1,0,0.1-0.1,0.2c0,0,0,0.1,0.1,0.1C165.3,262.3,165.3,262.3,165.4,262.2
			C165.3,262.3,165.4,262.3,165.4,262.2z M167.1,266.4c-0.1-0.3-0.3-0.4-0.5-0.3c-0.1,0-0.2,0.1-0.3,0.2c0.1,0,0.1,0.1,0.1,0.1
			l0.1,0.1L167.1,266.4z M167.2,265.2c0-0.1-0.1-0.3-0.1-0.4c-0.1,0-0.2,0.1-0.4,0.2s-0.3,0.2-0.4,0.4L167.2,265.2z M168.1,270.2
			c0.3,0.1,0.6,0.2,1,0.1c0.2,0,0.3-0.1,0.4-0.2c0.3-0.4,0.4-0.9,0.2-1.4c-0.2,0-0.3,0-0.5,0s-0.3,0-0.5,0c0-0.2,0.1-0.3,0-0.4
			c0-0.2-0.3-0.3-0.7-0.1v-0.1h-0.2c-0.1-0.2-0.3-0.6-0.4-1.2c0.2-0.1,0.3-0.2,0.4-0.2c0.1,0,0.4,0,0.7,0.1c0.2,0.1,0.5,0.1,1,0.1
			c0-0.2-0.1-0.4-0.1-0.5l-0.3,0.1l-0.3,0.1c-0.2-0.1-0.2-0.2-0.1-0.4c0.1-0.2,0.1-0.4-0.1-0.5c-0.1,0-0.2,0.1-0.3,0.2
			c-0.1,0.3-0.3,0.5-0.7,0.4c-0.1,0-0.2,0-0.3-0.1c0,0.1-0.1,0.2-0.2,0.4c-0.1,0-0.1,0.1-0.2,0.1c-0.1,0-0.2,0-0.2,0.1s0,0.1,0,0.2
			s0,0.1,0,0.2c0.1-0.1,0.2-0.1,0.3-0.2c0.1,0,0.2,0,0.3,0.2c-0.1,0.1-0.3,0.2-0.4,0.2c-0.1,0.1-0.3,0.2-0.5,0.3
			c0,0.1,0,0.2,0.1,0.2c0.1,0.1,0.1,0.2,0,0.3l0.2,0.3c0.1,0.1,0.2,0.2,0.2,0.3c0.1,0.2,0.1,0.5,0.2,0.9c0.3,0,0.5,0.1,0.6,0.1
			c0,0.2,0.1,0.4,0.1,0.4s0.2,0.1,0.4,0.1L168.1,270.2z M168,266c0-0.1-0.1-0.2-0.1-0.2c-0.1-0.1-0.2-0.1-0.4,0
			c-0.1,0.2,0,0.3,0.2,0.4L168,266z M170.1,273.3c0.1,0.2,0.3,0.2,0.4,0H170.1z M171.4,274.5c0-0.1-0.1-0.1-0.2-0.2l0.1,0.6
			C171.3,274.7,171.4,274.6,171.4,274.5z M172.2,270.6c-0.2-0.1-0.3-0.1-0.4-0.1v0.2C171.9,270.6,172,270.6,172.2,270.6
			C172.1,270.6,172.1,270.6,172.2,270.6z M173.8,275.7c0-0.1,0-0.3,0.1-0.5s0-0.4-0.1-0.5c-0.3,0.2-0.5,0.3-0.5,0.4
			c0.1-0.2,0.1-0.4,0.1-0.5c-0.2-0.2-0.5-0.4-0.8-0.6v0.1l0.7,1.1l0.1-0.2c0.1,0.3,0.1,0.6,0.1,0.8L173.8,275.7z M173.1,275.7
			L173.1,275.7c-0.3,0-0.4,0.1-0.5,0.2C172.9,276,173,275.9,173.1,275.7z M173,272.2c0-0.1-0.1-0.2-0.2-0.4l-0.2,0.7
			c0.1,0.1,0.1,0.1,0.2,0.1C173,272.5,173,272.3,173,272.2z M175.3,276.2c0-0.1-0.1-0.3-0.2-0.4c-0.1-0.1-0.2-0.3-0.2-0.4
			c-0.1,0-0.2,0.1-0.4,0.3l0.4,0.4c0-0.1,0.1-0.1,0.1-0.1s0.1,0,0.1-0.1l0.3,0.5L175.3,276.2z M176.7,278.1
			c-0.4-0.3-0.6-0.5-0.7-0.6l0.7-0.7c0.1,0.2,0.2,0.2,0.3,0.1c0,0-0.1-0.1-0.2-0.1c-0.1,0-0.1,0-0.2,0l-0.2-0.1l-0.4,0.1
			c-0.1,0-0.2,0-0.3,0c-0.4,0.1-0.7,0.3-0.7,0.7v0.2c0,0.2,0.2,0.2,0.4,0.2c0,0,0.1,0,0.1,0.1c0.1,0,0.1,0.1,0.2,0.2l0.1,0.4
			L176.7,278.1z M176.1,278.7c0.2,0.1,0.4,0.1,0.7,0C176.5,278.5,176.3,278.5,176.1,278.7z M176.4,276.3v-0.1h-0.1c0,0,0,0-0.1,0
			l-0.1,0.1C176.2,276.3,176.3,276.3,176.4,276.3C176.3,276.3,176.3,276.3,176.4,276.3z M177,279.5l-0.1-0.1v0.2L177,279.5z
			 M177.9,264.1h0.1c0.1,0,0.1,0,0.1,0c0.1-0.1,0.1-0.2,0.2-0.3c0.1-0.1,0.2-0.2,0.3-0.2c0-0.2,0-0.3-0.1-0.3c0,0-0.1,0-0.3,0
			l-0.4,0.1c-0.3,0-0.4,0.1-0.4,0.3c0,0.3,0,0.4,0,0.5s0.1,0.2,0.2,0.2L177.9,264.1z M177.8,280.6c0.1-0.1,0.1-0.1,0.1-0.2
			c0-0.3,0-0.5-0.1-0.8c-0.1-0.2-0.1-0.4-0.1-0.6l-0.1,0.2c0,0.1,0,0.2,0,0.4c0,0.2-0.1,0.4-0.2,0.6c0,0.2,0.1,0.3,0.2,0.3
			C177.7,280.6,177.7,280.6,177.8,280.6z M178,265.5c0.2-0.2,0.3-0.4,0.2-0.6c-0.2,0.1-0.4,0.2-0.5,0.3v0.3L178,265.5z M177.8,262.2
			L177.8,262.2L177.8,262.2L177.8,262.2L177.8,262.2z M178.6,260.5c-0.1-0.1-0.2-0.2-0.2-0.2v0.1L178.6,260.5L178.6,260.5z
			 M178.8,261.4c0-0.1-0.1-0.2-0.3-0.4c-0.1,0.2-0.1,0.4-0.1,0.6s0,0.3,0,0.4C178.7,261.7,178.8,261.5,178.8,261.4z M178.6,258.4
			v0.1l0.3,0.1c0.2,0.1,0.2,0.1,0.3,0.1c0,0,0.1-0.1,0.2-0.2c-0.1,0.1-0.3,0.1-0.5,0.1C178.8,258.6,178.7,258.5,178.6,258.4z
			 M179.8,276.9c0.1-0.2,0.2-0.3,0.3-0.4c0-0.1,0.1-0.1,0.1-0.2c0.1-0.1,0.1-0.1,0.1-0.3c-0.1,0-0.2-0.1-0.3-0.1
			c-0.1-0.1-0.3-0.1-0.4-0.1l-0.3,0.4c0,0.1,0,0.2,0,0.3C179.4,276.6,179.6,276.8,179.8,276.9l0.1,0.1c0,0.1,0.1,0,0.1-0.1
			C180,277,179.9,276.9,179.8,276.9z M179.8,275.2L179.8,275.2h-0.1C179.7,275.2,179.7,275.2,179.8,275.2L179.8,275.2z M180.5,279.8
			l-0.2-1c-0.4,0.1-0.6,0.2-0.6,0.4c0.1,0.1,0.2,0.2,0.4,0.3c0.1,0.1,0.2,0.2,0.3,0.3L180.5,279.8z M180.5,258.8l-0.1-0.2h-0.1
			C180.4,258.7,180.4,258.8,180.5,258.8L180.5,258.8z M181.5,280.2c0-0.1-0.1-0.2-0.3-0.4c-0.1,0.1-0.1,0.2-0.1,0.3
			c0,0.1,0,0.2,0.1,0.2c0,0.1,0.1,0.1,0.1,0.2C181.4,280.5,181.5,280.3,181.5,280.2z M181.4,275.7L181.4,275.7h-0.2v0.1L181.4,275.7
			z M182.2,282.3l-0.1-0.4H182c0,0.1,0,0.1,0,0.2s0,0.1,0,0.2L182.2,282.3z M183.2,272.8L183.2,272.8
			C183.1,272.8,183.1,272.8,183.2,272.8c-0.1,0-0.1,0-0.2,0v0.2C183.1,273,183.1,272.9,183.2,272.8z"/>
		<path class="st3" d="M211.3,281.7L211.3,281.7c-0.3,0.3-0.7,0.5-1.1,0.6c-0.2,0-0.4,0-0.5,0c-0.2,0-0.3,0-0.4-0.1
			c-0.4-0.1-0.6-0.2-0.7-0.3c-0.1-0.2-0.2-0.3-0.4-0.5s-0.3-0.3-0.4-0.4c-0.4-0.3-0.6-0.7-0.8-1c-0.3-0.6-0.7-1-1.1-1.5
			c-0.2-0.2-0.5-0.6-0.6-1c-0.2-0.4-0.3-0.7-0.4-0.9c-0.1-0.3-0.4-0.7-0.7-1.3c-0.3-0.6-0.6-1.1-0.9-1.5c-0.1-0.1-0.1-0.2-0.1-0.3
			c-0.1-0.3-0.2-0.7-0.5-1.2c-0.2-0.5-0.4-0.8-0.5-1.1c-0.2-0.4-0.3-0.8-0.5-1.1c-0.2-0.3-0.3-0.6-0.4-0.9l-0.5-1.1
			c-0.4-0.7-0.6-1.3-0.8-1.7c-0.4-1.1-0.9-1.9-1.2-2.3c0-0.2-0.2-0.4-0.4-0.5s-0.4-0.2-0.4-0.3c-0.2-0.2-0.4-0.5-0.3-0.8
			c0-0.1,0-0.2,0-0.3c0-0.1,0-0.2-0.1-0.3v-0.4c0-0.2-0.1-0.4-0.2-0.6c-0.1-0.2-0.2-0.4-0.2-0.6c0-0.1-0.1-0.2-0.1-0.3
			c-0.2-0.2-0.4-0.4-0.5-0.8c-0.1-0.3-0.1-0.6-0.2-0.7c-0.1-0.3-0.2-0.7-0.4-1.3c-0.6-0.1-0.9-0.1-1-0.1l-0.9-1.4
			c-0.1-0.1-0.2-0.3-0.3-0.5l-0.1-0.2c0-0.2,0.1-0.3,0.5-0.2h0.1c0.1-0.1,0.1-0.2,0-0.4c0-0.2-0.1-0.4-0.2-0.7
			c0-0.1-0.1-0.3-0.1-0.4c-0.1-0.1-0.1-0.2-0.2-0.2c-0.3-0.1-0.5-0.2-0.5-0.4c0-0.1,0-0.3,0-0.5v-0.1c-0.1-0.1-0.3-0.3-0.4-0.7
			c-0.1-0.3-0.2-0.6-0.3-0.7c-0.1-0.2-0.2-0.3-0.2-0.5c0-0.1,0-0.3,0-0.5l0.2-0.5c0-0.1,0-0.2,0-0.3c0-0.1-0.1-0.2-0.1-0.3l0.8-0.3
			c0.2,0.1,0.4,0.2,0.5,0.1c0.1,0,0.2-0.1,0.2-0.3c0.1-0.2,0.2-0.3,0.2-0.4l1.5,0.1c0-0.3,0.1-0.5,0.1-0.7c0.1,0.1,0.3,0.2,0.5,0.3
			c0.3,0.1,0.5,0.3,0.6,0.5c0.1,0.1,0.2,0.2,0.2,0.2c0.3,0,0.6,0.2,0.7,0.7c0.1,0.3,0.3,0.5,0.5,0.8s0.3,0.5,0.4,0.5
			c0.1,0.2,0.2,0.4,0.4,0.7c0.2,0.3,0.4,0.5,0.6,0.7c0.1,0,0.1,0.1,0.1,0.3c0.1,0.2,0.2,0.5,0.4,0.9s0.3,0.7,0.5,0.9
			c0.1,0.2,0.3,0.7,0.7,1.3c0.3,0.7,0.6,1.3,0.7,1.9c0.1,0.3,0.2,0.6,0.4,1s0.4,0.7,0.5,0.9l0.7,1.7c0.1,0.1,0.2,0.4,0.4,0.8
			s0.4,0.7,0.7,1.1c0.1,0.2,0.3,0.4,0.4,0.7c0.1,0.3,0.2,0.5,0.3,0.7c0.2,0.7,0.4,1.2,0.5,1.5c0,0.1,0.1,0.2,0.1,0.5
			c0.1,0.3,0.2,0.5,0.4,0.6c0,0,0.1,0.1,0,0.1c0,0.1,0,0.1,0,0.1l0.1,0.8l0.3-0.2l0.1,0.1c0,0,0.1,0.1,0.1,0.2s0,0.2,0,0.4
			c0,0.2-0.1,0.3-0.1,0.4v0.3c0,0.3,0.1,0.6,0.3,0.9c0.1,0.1,0.2,0.3,0.3,0.6l0.4,0.7c0.1,0.1,0.2,0.2,0.2,0.4
			c0.1,0.2,0.2,0.3,0.4,0.5l0.7,0.9c0.2-0.3,0.3-0.6,0.3-0.9s0-0.5,0.1-0.7v-0.4l0.4-1.8l0.1-1.3c0-0.2,0.1-0.5,0.1-1v-0.1v-0.1
			c0.1-0.2,0.2-0.6,0.2-1s0-0.7,0.1-0.9l0.1-0.2c0-0.6,0.1-1.3,0.3-2c0-0.2,0.1-0.5,0.1-0.8s0.1-0.6,0.1-0.9c0-0.4,0.1-0.8,0.2-1.1
			c0.1-0.3,0.1-0.6,0.2-0.9c0.2-1.5,0.3-2.5,0.4-2.9c0.1-0.5,0.2-0.9,0.2-1v-0.1c0-0.5,0.1-1,0.3-1.5c0-0.1,0.1-0.4,0.1-0.8
			c0.1-0.4,0.1-0.8,0.1-1.1l0.1-0.6c0-0.1,0.1-0.2,0.1-0.4c0-0.2,0-0.3-0.1-0.5c0-0.1,0-0.2,0-0.2c0.2-0.2,0.3-0.6,0.4-1
			c0.1-0.4,0.1-0.7,0.2-1l0.7-2.2c0.2,0,0.4,0.1,0.4,0.2c0.1,0.1,0.1,0.3,0.2,0.3l0.6,0.5c0.3,0.4,0.7,0.5,1.1,0.3l0.7-0.1
			c0.1,0.1,0.2,0.3,0.3,0.4s0.2,0.3,0.4,0.5c0.3-0.2,0.4-0.3,0.6-0.5c0.2,0.2,0.3,0.5,0.4,0.7c0,0.1,0,0.3,0,0.6l-0.1,1.2l-0.3,1.7
			c-0.1,0.1-0.1,0.1-0.1,0.2v0.2c0,0.2,0,0.6-0.2,1.1c0,0.1,0,0.3-0.1,0.5c0,0.2-0.1,0.4-0.1,0.6c-0.1,1-0.2,1.7-0.4,2.2
			c-0.1,0.1-0.1,0.2-0.1,0.3c0,0.1,0,0.2-0.1,0.3v0.1v0.1v0.2c0,0.2,0,0.4,0,0.7c0,0.3-0.1,0.5-0.1,0.6c-0.1,0.4-0.2,1.1-0.4,2
			c0,0.1,0,0.1,0,0.2c-0.3,0.2-0.4,0.5-0.3,0.9l0.1,0.6v0.2c0.1,0.4-0.1,0.9-0.4,1.4c0,0-0.1,0.1-0.1,0.3c-0.1,0.1-0.1,0.2,0,0.3
			c0.1,0.2,0.2,0.3,0.2,0.4s0,0.3,0,0.6v0.2c0,0.2,0.2,0.4,0.4,0.4l-0.1,1l-0.7,0.1l0.2,0.3l0.2,0.1c-0.4,0.1-0.7,0.2-0.8,0.4
			c-0.1,0.2-0.2,0.4-0.1,0.8c0,0.3,0,0.6,0,1c-0.1,0.4-0.1,0.6-0.2,0.8c0,0.1,0,0.4-0.1,0.7c-0.1,0.3-0.1,0.6,0,0.8
			c-0.1,0.2-0.2,0.5-0.2,0.9s0,0.7-0.1,0.8c-0.1,0.2-0.1,0.3-0.1,0.5s0.1,0.4,0.3,0.5c-0.3,0.3-0.5,0.7-0.4,1.1c0,0.1,0,0.2-0.1,0.3
			c-0.2,0.2-0.2,0.3-0.3,0.5c0,0.2,0,0.3,0,0.5s0,0.3,0,0.4c0,0,0,0.1,0,0.3c0,0.2-0.1,0.3-0.1,0.4v0.1v0.1c0,0.2-0.1,0.6-0.2,0.9
			c-0.1,0.4-0.2,0.7-0.3,0.9l-0.1,0.7v0.9l-1-0.2c-0.1,0.1-0.3,0.3-0.6,0.4s-0.4,0.3-0.5,0.6L211.3,281.7z M194.4,255.5
			c0,0.2,0.1,0.3,0.1,0.4c0,0,0.1,0.1,0.3,0.1L194.4,255.5z M195,256.6l-0.1-0.1c-0.1,0-0.1,0.1-0.1,0.1l0.1,0.1
			C194.9,256.7,194.9,256.7,195,256.6z M197.4,258.2c0,0-0.1-0.1-0.2-0.3v0.5C197.3,258.3,197.4,258.2,197.4,258.2z M199,254.1
			c-0.1-0.1-0.1-0.1-0.2-0.1c0,0-0.1,0-0.1,0.1h0.1H199L199,254.1z M214.9,246.6c0.1-0.1,0.1-0.2,0-0.2c0-0.2-0.1-0.3-0.2-0.4
			c-0.1,0.1-0.1,0.2-0.1,0.3l0.2,0.4C214.8,246.8,214.8,246.7,214.9,246.6z"/>
		<path class="st3" d="M238.9,277.8c-0.2,0-0.5,0-0.7-0.2c-0.2-0.1-0.4-0.2-0.5-0.2s-0.2-0.1-0.3-0.1c-0.1-0.1-0.2-0.1-0.3-0.1
			c-0.2,0-0.3-0.1-0.4-0.1c-0.1-0.1-0.1-0.2-0.1-0.4l-0.2-1.1c0-0.2-0.1-0.4-0.1-0.6c-0.1-0.2-0.1-0.5-0.3-0.8l-0.1-0.3l-0.4-1.2
			l-0.2-0.8c-0.1-0.2-0.2-0.6-0.3-1.1c-0.1-0.4-0.2-0.7-0.4-1c-0.2-0.4-0.3-0.8-0.3-1.2v-0.2c0-0.2-0.1-0.4-0.1-0.6
			c-0.1-0.2-0.1-0.4-0.1-0.6l-0.2-1.2v-0.1v-0.1c0-0.1,0-0.2,0-0.4c0-0.1-0.1-0.3-0.1-0.5c-0.1-0.2-0.1-0.3-0.2-0.4
			c-0.1-0.1-0.1-0.3-0.2-0.6c-0.1-0.3-0.1-0.5-0.1-0.7c0-0.1,0-0.1,0-0.2s-0.1-0.1-0.2-0.2c0-0.1-0.1-0.2-0.2-0.4
			c-0.1-0.1-0.1-0.3-0.1-0.5s0-0.4,0-0.5v-0.5c-0.1-0.4-0.2-0.7-0.3-0.9c-0.1-0.3-0.2-0.4-0.2-0.6s0-0.4,0.1-0.6c0-0.1,0-0.2,0-0.3
			c0-0.1,0-0.1,0-0.2c-0.1-0.3-0.1-0.5-0.2-0.8c-0.1-0.3-0.1-0.5-0.2-0.8l-0.2-0.4c0-0.2,0-0.3,0.1-0.5s0.2-0.5,0-0.8
			c-0.1-0.6-0.1-1.1-0.2-1.4l-0.2-2c0-0.3-0.2-0.8-0.4-1.5c0-0.3,0-0.5,0-0.6s0-0.2,0-0.3c0-0.1-0.1-0.3-0.2-0.3v-0.2
			c0-0.1,0.1-0.5,0.1-1l0.1-1.5c-0.1-0.4,0-0.8,0.3-1.4c0.1-0.1,0.2-0.3,0.3-0.4c0.2-0.2,0.3-0.4,0.4-0.6c0.2-0.5,0.6-0.8,1.1-0.8
			c0.1,0,0.1,0,0.2-0.1c0.1-0.1,0.1-0.1,0.2-0.2c0.1-0.1,0.2-0.2,0.4-0.3c0.2-0.1,0.5-0.2,1-0.3c0.5-0.2,1-0.2,1.4-0.2l1.8-0.3
			c0.3-0.1,0.6-0.2,1.1-0.3c0.5-0.1,0.8-0.1,1.1-0.1c0.1,0,0.2,0,0.2,0c0.1,0,0.1,0,0.2-0.1c0.4-0.1,0.7-0.2,0.9-0.2
			c0.3,0,0.6,0,0.9,0.1c0.1,0.1,0.2,0.1,0.4,0l0.2-0.1c0.1,0,0.3,0,0.5,0.1s0.4,0.1,0.5,0.1c0.2,0.1,0.6,0.2,1,0.4
			c0.2,0,0.4,0.1,0.5,0.2s0.2,0.3,0.2,0.6v0.3c0,0.2,0.2,0.4,0.5,0.4c0,0.3,0.1,0.5,0.1,0.8s-0.1,0.5-0.2,0.8
			c-0.1,0-0.2,0.1-0.4,0.2s-0.3,0.1-0.4,0.2c-0.1,0.1-0.1,0.2-0.1,0.4l-1.3,0.1c-0.3,0-0.5,0.1-0.6,0.1c-0.3,0.1-0.6,0.2-0.8,0.3
			c-0.2,0.1-0.4,0.1-0.6,0.1c-0.2,0-0.5,0.1-0.7,0.3c-1,0.2-1.8,0.2-2.4,0.1c-0.2,0-0.6,0-1.2,0.1c-0.4,0.1-0.6,0.1-0.8,0.2
			c-0.2,0-0.3,0.1-0.4,0.2c0,0.1,0,0.2,0,0.4c0.2,1.2,0.5,2.2,0.6,2.8c0.2,1.2,0.5,2.1,0.6,2.7c0,0.2,0,0.4,0,0.5s0,0.2,0,0.3
			c0.1,0.2,0.2,0.4,0.2,0.8l0.1,1.1c0,0.2,0.1,0.4,0.1,0.6c0,0.1,0,0.3,0,0.4s0,0.3,0,0.4l0.1,0.4c0.1,0.3,0.2,0.4,0.5,0.2
			c0.2,0,0.3-0.1,0.4-0.1c0.5-0.1,0.8-0.2,1-0.2h0.2c0,0,0.4-0.1,1-0.3l0.5-0.1c0.2,0,0.5-0.1,0.9-0.1c0.3,0,0.6-0.1,0.8-0.1
			c0.3-0.1,0.8-0.1,1.5,0c0.5,0.1,0.9,0.1,1.1,0.1c0.2,0,0.5,0.1,0.7,0.3c0.2,0.1,0.3,0.3,0.3,0.6c0,0.1,0,0.4,0,0.7
			c0.1,0.4,0.2,0.8,0.4,1.1c0.1,0,0.1,0.1,0.2,0.1l0.2,1.3c-0.1,0-0.1,0-0.2,0c-0.1,0-0.1,0-0.2,0c-0.2,0-0.4-0.1-0.5,0
			c-0.1,0-0.3,0.1-0.4,0.2c-0.1,0.1-0.2,0.2-0.3,0.2c-0.3,0.1-0.7,0.2-1.2,0.2c-0.8,0.3-1.8,0.5-2.8,0.6l-1.4,0.3
			c-0.3,0.1-0.8,0.2-1.4,0.3c-0.1,0.2-0.1,0.4,0,0.7c0.2,0.7,0.3,1.2,0.3,1.5c0.1,0.3,0.1,0.6,0.1,0.7s0,0.1,0.1,0.2
			c0,0,0.1,0.1,0.1,0.2c0,0,0.1,0.1,0.1,0.2c0.1,0.4,0.1,0.8,0,1.3c0,0.2,0.1,0.3,0.1,0.5s0.1,0.3,0.2,0.4c0,0.2,0.1,0.5,0.2,0.7
			c0.1,0.3,0.1,0.5,0.1,0.7c0,0,0,0.1,0,0.2s0,0.1,0.1,0.2c0.2,0.4,0.3,0.9,0.3,1.6c-0.1,0.1-0.1,0.2,0,0.5c0,0.2,0.1,0.3,0.1,0.4
			c0.1,0.1,0.2,0.1,0.3,0.1l1.6-0.3c0.1,0,0.2,0,0.2-0.1c0.3-0.3,0.9-0.4,1.6-0.5c0.3-0.1,0.7-0.2,1.1-0.3c0.4-0.1,0.8-0.3,1.3-0.4
			c1-0.4,1.6-0.6,2-0.7h0.3c0.3,0,0.5-0.1,0.7,0c0.1,0,0.2,0,0.3,0s0.1,0,0.2,0c0.2,0,0.4,0,0.5,0c0.1,0.1,0.2,0.2,0.2,0.4
			c0,0.1,0.1,0.1,0.2,0.1c0.2,0,0.4,0,0.4,0.2s0.2,0.3,0.2,0.3l-0.5,0.1c0.1,0.1,0.3,0.3,0.6,0.5l0.1,0.5v0.2l-0.7,0.9h-0.1
			c0,0.2-0.1,0.4-0.3,0.6c-0.2,0.1-0.4,0.3-0.7,0.5s-0.5,0.3-0.6,0.5v0.1c0,0,0,0-0.1,0l-2.3,0.6c-0.1,0-0.2,0.1-0.5,0.1l-1.7,0.5
			l-3.4,0.7c-0.5,0.2-1.4,0.4-2.6,0.6L238.9,277.8z M234.3,251.9L234.3,251.9C234.3,251.8,234.3,251.8,234.3,251.9
			c-0.1-0.1-0.1-0.1-0.2,0v0.1L234.3,251.9z M236.7,245.8c0.2,0.1,0.3,0,0.4-0.2c0-0.2,0-0.3-0.1-0.4c0-0.2-0.1-0.4-0.2-0.5
			c0.3-0.1,0.7-0.1,1.1,0c0.4,0.1,0.7,0.2,0.9,0.2c0,0.2,0.1,0.4,0.2,0.5l0.5-0.9c0.2,0,0.4,0,0.6-0.1c0.2,0,0.4-0.1,0.5-0.1
			c0.2,0,0.3,0,0.4,0c0,0,0.1,0,0.1-0.1c0.1-0.1,0.1-0.1,0.2-0.1c0.1,0.2,0.2,0.2,0.4,0c0-0.1,0.1-0.2,0.2-0.2
			c0.1,0.2,0.3,0.2,0.4,0.1v-0.2c-0.2-0.2-0.3-0.1-0.4,0c0,0-0.1,0-0.2,0c0,0-0.1,0.1-0.3,0.2c-0.1-0.1-0.4-0.2-0.7-0.4l0.1-0.1
			c0,0,0.1-0.1,0.2-0.1c-0.2-0.1-0.3-0.2-0.4-0.2c-0.1,0-0.1,0.1-0.2,0.1c-0.1,0.1-0.2,0.1-0.3,0.1c0-0.1-0.1-0.1-0.1-0.2
			s-0.1-0.1-0.1-0.2c-0.1,0.1-0.2,0.2-0.2,0.3c-0.1,0-0.1-0.1-0.2-0.1c-0.1-0.1-0.1-0.1-0.2-0.1c-0.1,0-0.4-0.1-0.7-0.2
			s-0.5-0.2-0.8-0.2c-0.2,0-0.4-0.1-0.6-0.2c-0.1-0.2-0.2-0.3-0.3-0.3s-0.1,0.1-0.2,0.2c-0.1,0.1-0.1,0.1-0.2,0.2l0.9,0.5v0.2
			c-0.3-0.1-0.5,0-0.5,0.3c-0.2-0.1-0.5-0.1-0.9,0c-0.1,0.1-0.2,0.2-0.2,0.2s0,0.1,0.1,0.3c0.2,0.4,0.3,0.8,0.3,1.2v0.1l0.1,0.5
			C236.5,245.9,236.7,245.8,236.7,245.8z M241.3,260.5c0.2,0,0.4-0.1,0.4-0.2s0-0.3-0.1-0.5c0.1,0,0.1,0,0.2-0.1
			c0.1-0.1,0.1-0.1,0.2-0.2l-0.3-0.1c-0.1,0-0.1,0-0.1-0.1c0.1,0,0.1-0.1,0.2-0.1c0.1,0,0.2,0,0.4,0.2c0.1-0.1,0.1-0.2-0.1-0.4
			c0-0.1-0.1-0.1-0.2-0.2c-0.1,0-0.2,0-0.2,0l-1.6,0.9c0,0-0.1,0.1-0.2,0.2c-0.1,0.1-0.1,0.2,0,0.3c0.2,0.2,0.3,0.1,0.5-0.1l0.1,0.1
			l0.3,0.4L241.3,260.5z M240.6,275.9c-0.2-0.2-0.4-0.2-0.6,0.1L240.6,275.9z M241.7,242c-0.1,0-0.2-0.1-0.5-0.1
			c-0.2,0-0.5,0-0.7,0.1c0.3,0.1,0.7,0.1,1.2,0.1V242z M241.6,275.8c0.1,0,0.2-0.1,0.3-0.4l-0.5,0.1v0.1
			C241.4,275.7,241.5,275.8,241.6,275.8z M243.6,273.2c0.1-0.1,0.2-0.2,0.3-0.5c-0.1,0-0.2-0.1-0.3-0.1c-0.1-0.1-0.2-0.1-0.4-0.1
			c-0.1-0.1-0.2,0-0.3,0c-0.1,0.1-0.1,0.2,0,0.3c0,0.1,0.1,0.2,0.1,0.2h-0.6c0.1,0.3,0.2,0.5,0.5,0.3
			C243.3,273.3,243.5,273.3,243.6,273.2z M244.5,272.4c-0.2-0.1-0.3-0.1-0.4,0.1c0,0,0,0,0,0.1s0,0.1,0.1,0.1
			C244.3,272.8,244.4,272.7,244.5,272.4z M245,274.6c0-0.1-0.1-0.3-0.3-0.4l-0.2,0.8c0.1,0.1,0.1,0.1,0.2,0.1c0.1,0,0.1,0,0.2-0.1
			C245,274.8,245,274.7,245,274.6z M248,271.6c-0.1-0.1-0.2-0.1-0.4-0.2c-0.1-0.1-0.3-0.1-0.4-0.1s-0.3,0-0.4,0.2
			c-0.1,0.1-0.4,0.3-0.9,0.5l0.3,0.4c-0.2,0.1-0.2,0.2-0.2,0.3c0.1,0.1,0.1,0.2,0,0.3C246.3,272.8,247,272.4,248,271.6z M247.7,273
			c0-0.1,0-0.1-0.1-0.2c0,0-0.1-0.1-0.2-0.1l-0.2,0.2c0,0.1,0.1,0.1,0.2,0.2c0.1,0.1,0.1,0.1,0.2,0.2
			C247.6,273.2,247.7,273.1,247.7,273z M248.2,272.7c0-0.1-0.1-0.2-0.1-0.5l-0.5,0.1v0.1c0.2,0,0.4-0.1,0.5-0.1v0.5L248.2,272.7z
			 M248.4,270.9c-0.2-0.1-0.4,0-0.7,0.1c0.2,0.2,0.3,0.4,0.5,0.5s0.4,0.1,0.6,0C248.7,271.2,248.6,271,248.4,270.9z M248.2,273.9
			l-0.2-0.3h-0.1l0.1,0.4L248.2,273.9z M248.5,274.7c0,0-0.1,0-0.1-0.1c-0.1,0-0.1-0.1-0.1-0.1v0.2
			C248.3,274.8,248.4,274.8,248.5,274.7L248.5,274.7z"/>
		<path class="st3" d="M277,272.8c-0.2-0.1-0.5-0.1-0.8-0.1s-0.6,0-0.7,0c-1.1,0.1-1.9,0.1-2.5,0.1c-0.1,0-0.3,0.1-0.6,0.1
			s-0.5,0-0.7-0.1c0,0-0.1,0-0.2,0s-0.2,0.1-0.3,0.1c-0.1-0.2-0.3-0.3-0.7-0.2c-0.5,0-0.8-0.1-1-0.2s-0.4-0.2-0.8-0.3
			c-0.3-0.1-0.6-0.3-0.8-0.5h-0.1h-0.1c-0.8-0.2-1.3-0.6-1.6-1.1c-0.1-0.2-0.3-0.4-0.7-0.4l0.3-0.5c-0.1-0.1-0.2-0.1-0.3-0.1
			c-0.1,0.1-0.2,0.1-0.2,0.1l-0.5-1.3c0-0.2-0.1-0.3-0.2-0.4c-0.3-0.5-0.5-1-0.6-1.6c-0.1-0.4-0.1-0.8,0-1.3c0-0.1,0-0.4,0.1-0.9
			l0.1-0.1c0.2,0.1,0.3,0.2,0.3,0.3c0.5-0.1,0.8-0.4,0.8-0.8h0.2c0.5-0.1,0.8,0,0.9,0.3c0.1,0,0.2-0.1,0.2-0.1
			c0.1,0,0.1-0.1,0.2-0.1s0.2,0,0.3,0c0.2,0,0.4-0.2,0.5-0.4v-0.1l0.1-0.1c0.4,0.5,0.7,0.8,0.7,0.9c0.1,0.2,0.1,0.4,0.2,0.6
			c0.1,0.3,0.2,0.5,0.2,0.6s0.1,0.2,0.2,0.3c0.1,0.1,0.2,0.2,0.4,0.3c0,0,0.1,0,0.1,0.1s0.1,0.1,0.1,0.1c0.1,0.3,0.2,0.6,0.4,0.9
			c0.2,0.2,0.5,0.5,0.9,0.8c0,0.1,0.1,0.1,0.2,0.1c1,0.3,1.8,0.4,2.6,0.4c0.2,0,0.4,0,0.5,0c0.5,0.1,1,0.1,1.4,0h0.5l1.7-0.2
			l0.5-0.3c0.2-0.2,0.6-0.6,1.1-1.1c0.1-0.1,0.2-0.2,0.2-0.3s0.1-0.3,0.1-0.3c0.1-0.1,0.1-0.3,0.2-0.7v-0.2
			c-0.1-0.2-0.2-0.3-0.2-0.4c-0.2-1.2-0.5-2.2-0.8-3c-0.3-0.6-0.7-1-1.2-1.1c-0.2-0.2-0.3-0.3-0.4-0.3c-0.1-0.2-0.4-0.4-0.7-0.6
			c-0.3-0.1-0.5-0.2-0.6-0.3c-0.4-0.2-0.7-0.3-1-0.5c-0.3-0.1-0.6-0.3-0.8-0.4c-0.1,0-0.3-0.1-0.6-0.2c-0.3-0.1-0.6-0.1-0.8,0
			c-0.1,0-0.2,0-0.3-0.1c-0.2-0.1-0.4-0.3-0.5-0.4c-0.2-0.2-0.4-0.3-0.4-0.3c-0.4-0.2-0.8-0.3-1.1-0.5c-0.4-0.1-0.7-0.3-1-0.4
			c0,0-0.1,0-0.2,0c-0.2-0.2-0.5-0.4-1-0.7c-0.6-0.4-1-0.7-1.2-0.9c-0.1-0.1-0.3-0.2-0.5-0.4c-0.2-0.1-0.4-0.3-0.5-0.4
			c-0.5-0.7-1-1.2-1.4-1.5c-0.1-0.1-0.3-0.3-0.4-0.5c-0.2-0.2-0.3-0.4-0.4-0.4c-0.4-0.3-0.6-0.6-0.6-1.1c0-0.1,0-0.2-0.1-0.2
			c0,0-0.1-0.1-0.1-0.2c-0.4-0.6-0.6-1.2-0.7-1.7c0-0.3,0-0.7,0-1.3c0.3-1.6,0.6-2.8,0.8-3.6c0.1-0.5,0.3-1.1,0.6-1.7
			c0.2-0.4,0.4-0.8,0.7-1.2c0.3-0.4,0.5-0.8,0.7-1v-0.1c0.4-0.2,0.7-0.5,1-0.9s0.6-0.7,0.7-0.9l0.4-0.2c0.7-0.2,1.3-0.4,1.6-0.4
			c0.1-0.1,0.3-0.1,0.6-0.1l1.3-0.1c0,0,0.1,0,0.2,0s0.2,0,0.3-0.1c0.1,0,0.2-0.1,0.3-0.1c0.2,0,0.3,0,0.4,0s0.2,0,0.3,0.1
			c0.6,0.1,1.6,0.3,2.8,0.4c0.2,0,0.4,0.1,0.7,0.3c0.2,0.1,0.5,0.3,1.2,0.5c0.1,0,0.2,0.1,0.3,0.2c0.1,0.1,0.2,0.2,0.2,0.2l0.6,0.2
			c0,0,0.1,0.1,0.3,0.1c0.1,0.1,0.3,0.2,0.3,0.3c0,0.2,0.1,0.2,0.2,0.2c0.3,0.1,0.5,0.2,0.7,0.5s0.3,0.4,0.5,0.6
			c0.5,0.6,0.8,1,0.9,1.2s0.2,0.6,0.3,1.1c0.1,0,0.1,0.1-0.1,0.3c0,0.1-0.1,0.3-0.3,0.6c-0.2-0.1-0.3-0.1-0.5-0.1
			c0,0-0.1,0.2-0.1,0.4c-0.4-0.3-0.8-0.4-1.2-0.2h-0.1c-0.1,0-0.3,0-0.5,0s-0.5-0.1-0.7-0.1v0.1c-0.2,0.2-0.4,0.3-0.6,0.1l-1-0.8
			c-0.4-0.4-1-0.7-1.9-1c-0.3-0.1-0.7-0.1-1.3-0.2l-0.8-0.3c-0.1,0.2-0.3,0.3-0.6,0.2c-0.3-0.1-0.5-0.2-0.7-0.2s-0.4,0.1-0.6,0.3
			c-0.1,0-0.1,0.1-0.2,0.1s-0.2,0-0.2,0.1c-0.3,0.1-0.6,0.3-0.8,0.6c-0.2,0.3-0.3,0.6-0.2,0.9v0.2c0,0.2,0,0.4-0.2,0.5
			c-0.1,0-0.2,0.2-0.3,0.4c0,0.2-0.1,0.5-0.2,0.9s-0.1,0.8-0.1,1.1c0,0.2,0,0.5,0.1,0.9c0.1,0.9,0.4,1.7,0.9,2.2
			c0.1,0.1,0.1,0.3,0.2,0.4s0.2,0.3,0.3,0.5c0.3,0.5,0.8,1,1.6,1.5c0.5,0.3,1.2,0.8,2.2,1.2c0.1,0.1,0.2,0.1,0.3,0.1
			c0.1,0,0.1,0,0.2,0s0.3,0.1,0.5,0.1c0.2,0.2,0.6,0.3,1,0.4c0.6,0.3,0.9,0.4,1,0.5l1.2,0.5c0.5,0.2,0.9,0.4,1.1,0.5
			s0.5,0.3,0.8,0.4s0.6,0.3,0.8,0.4c0.2,0,0.4,0.1,0.5,0.2c0.3,0.2,0.5,0.5,0.8,0.7c0.2,0.2,0.4,0.5,0.6,0.6c0.4,0.5,0.7,0.9,1,1.3
			c0.2,0.2,0.3,0.5,0.4,0.8c0.1,0.4,0.3,0.7,0.4,0.9c0.1,0.2,0.2,0.4,0.2,0.5c0,0.2-0.1,0.4-0.2,0.6c0.3,0.4,0.3,0.7,0.1,0.9v0.2
			c0,0.2,0,0.8,0,1.7c-0.1,0.6-0.1,1-0.1,1.3c0,0.1-0.1,0.3-0.2,0.6c-0.2,0.4-0.2,0.8-0.1,1.1l-0.1,0.1c-0.1,0-0.1,0.1-0.1,0.2
			c-0.2,0.3-0.3,0.5-0.3,0.7c0,0-0.1,0.2-0.2,0.3c-0.1,0.2-0.3,0.3-0.6,0.3c-0.1,0-0.2,0.1-0.3,0.3c-0.1,0.2-0.3,0.5-0.6,0.7
			c-0.3,0.2-0.5,0.4-0.6,0.6c-0.3,0.1-0.5,0.2-0.5,0.3c-0.2,0.1-0.3,0.2-0.5,0.3c-0.2,0.1-0.3,0.2-0.5,0.3l-1.9,1
			C277.2,272.8,277.1,272.8,277,272.8z M265.1,243c0.1-0.1,0-0.2-0.2-0.3l0.1,0.5c0,0-0.1,0-0.3,0s-0.3,0-0.5,0.1
			c0.1,0,0.2,0,0.3,0.1c0.1,0,0.3,0,0.4-0.1C265,243.1,265,243,265.1,243z M267.4,250.1h-0.2c-0.2,0-0.3,0.1-0.4,0.3
			c-0.1,0.2-0.2,0.3-0.2,0.3c0.1,0,0.2,0,0.3,0c0.1,0,0.2,0,0.2,0C267.2,250.5,267.3,250.3,267.4,250.1z M267.1,241.7
			c0.1,0,0.2-0.1,0.4-0.2c0.2-0.1,0.1-0.3-0.2-0.5c-0.1,0.1-0.2,0.2-0.3,0.3c-0.1,0.1-0.2,0.2-0.3,0.3
			C266.8,241.7,267,241.8,267.1,241.7z M267.3,240C267.4,240,267.4,240,267.3,240C267.4,240,267.4,240,267.3,240
			C267.3,239.9,267.3,239.9,267.3,240h-0.1H267.3L267.3,240z M267.6,251.9l-0.1-0.5c-0.2,0.2-0.3,0.3-0.2,0.5c0,0,0,0.1,0.1,0.1
			s0.1,0,0.1,0.1L267.6,251.9z M268.8,251.8c0.1-0.1,0.2-0.2,0.2-0.3l-0.2-0.1c-0.1,0.1-0.1,0.2-0.2,0.3c-0.1,0.1-0.1,0.2-0.2,0.3
			h0.1C268.6,252,268.7,251.9,268.8,251.8z M270.1,238.2c-0.1,0-0.2-0.1-0.5-0.1l0.8,0.4C270.3,238.4,270.2,238.3,270.1,238.2z
			 M270.3,253L270.3,253h-0.2v0.1L270.3,253z M270.7,240.4c0,0-0.1-0.1-0.2-0.1v0.1l0.2,0.1V240.4z M273.2,240.3c0-0.1,0-0.1,0-0.2
			l-0.3,0.4C273.1,240.4,273.2,240.4,273.2,240.3z M274.2,239.9c0.1,0,0.1-0.1,0.1-0.2v-0.1v-0.1c-0.1,0.1-0.2,0.1-0.3,0.1
			c0-0.2,0.1-0.3,0.3-0.4c0.1,0.1,0.2,0.1,0.3,0c0.1,0,0.1-0.1,0.1-0.3c-0.2-0.1-0.4-0.2-0.6-0.1s-0.4,0.1-0.7,0.3
			c0,0-0.1,0-0.1,0.1s0,0.1,0,0.2s0.1,0.2,0.3,0.3c0.2,0,0.3,0.1,0.4,0.1C274,239.9,274.1,239.9,274.2,239.9z M274.6,240.4v-0.1
			c0,0-0.1,0-0.2,0l-0.1,0.1c0,0.1,0,0.2,0.1,0.1L274.6,240.4z M274.6,239.9C274.6,239.9,274.6,239.8,274.6,239.9
			c0.1-0.1,0.1-0.1,0-0.1h-0.1L274.6,239.9L274.6,239.9z"/>
		<path class="st3" d="M307.6,268.3c-0.3-0.4-0.5-0.8-0.5-1.2c0-0.1,0-0.3,0-0.5s0-0.4-0.1-0.7c-0.1-0.4-0.2-0.8-0.4-1
			c-0.1-0.2-0.2-0.5-0.3-0.9c-0.1-0.4-0.1-0.7-0.2-0.9c0-0.3-0.1-0.5-0.2-0.7s-0.1-0.4-0.2-0.6c0,0,0-0.1-0.1-0.2s-0.1-0.2,0-0.4
			l-0.1-0.4c0-0.2-0.1-0.6-0.3-1.2c-0.1-0.7-0.2-1.2-0.3-1.6c0-0.1,0-0.1,0-0.2s0-0.1-0.1-0.2c-0.2-0.2-0.4-0.6-0.5-1.2
			c0-0.1,0-0.2,0-0.3c0-0.1,0-0.3,0-0.4c0.1-0.1,0.1-0.3,0-0.5c0-0.5,0-0.9,0-1.4c0-0.1-0.1-0.2-0.1-0.3c-0.1-0.1-0.1-0.2-0.2-0.3
			c0-0.1,0-0.1-0.1-0.2s-0.1-0.1-0.1-0.2c0-0.4,0-0.9,0-1.4c0-0.4,0-0.6,0-0.8s-0.1-0.5-0.3-1c-0.1-0.3-0.2-0.7-0.2-1.3v-0.1
			c0.2-0.4,0.3-0.8,0.2-1.3c0-0.5-0.1-0.8-0.1-1.1c0,0,0-0.2,0-0.5c0-0.1,0-0.2,0-0.3c0-0.1,0-0.2,0-0.3c-0.1-0.8-0.2-1.4-0.4-1.8
			c0-0.1-0.1-0.2-0.3-0.5c0.1-0.1,0.2-0.3,0.2-0.4s0-0.3,0-0.5l-0.4-3.1l-0.6-0.4c-0.2-0.1-0.3-0.1-0.5,0c-0.3,0.1-0.6,0.1-1,0.1
			s-0.8,0-1.1,0.1c-0.4,0.1-0.6,0.1-0.8,0.3c-0.3,0.1-0.6,0.2-0.9,0.3c-0.4,0.1-0.9,0-1.4-0.1c-0.1,0-0.2,0-0.2-0.1
			c-0.1-0.1-0.2-0.1-0.3-0.1c-0.1,0.1-0.3,0.1-0.6,0.1c-0.2,0-0.6,0-0.9,0c-0.4,0-0.7,0-1,0c-0.1-0.1-0.3-0.2-0.5-0.3
			c-0.2-0.1-0.4-0.3-0.5-0.5c-0.2-0.4-0.5-0.6-0.8-0.6c0,0-0.1-0.1-0.3-0.1c0-0.1,0.1-0.2,0.1-0.2c0-0.1,0.1-0.2,0.1-0.3
			c-0.2,0-0.6,0-0.9,0.1l-0.1-0.1c0.3-0.2,0.6-0.3,0.7-0.4c-0.1-0.1-0.2-0.1-0.2-0.1c-0.1,0-0.2-0.1-0.2-0.1
			c0.1-0.1,0.1-0.2,0.2-0.3s0.2-0.3,0.3-0.5c0-0.2,0-0.3,0-0.4s0.2-0.2,0.4-0.4c0.7-0.6,1.6-0.9,2.5-1.1c0.4-0.1,0.7-0.1,0.9-0.1
			h0.7c0.4-0.1,0.8-0.2,1.2-0.4c0.2-0.1,0.4-0.1,0.6-0.1s0.3,0,0.4,0c0.3,0,0.6-0.1,1-0.1s0.8-0.1,1.4-0.1l1.8-0.2
			c0.2,0,0.5,0,0.9,0c0.3,0,0.6,0,0.8-0.1c0.9-0.1,1.5-0.2,2-0.1h0.2c0.1,0,0.2,0,0.2-0.1c0.1,0,0.2-0.1,0.2-0.1l2.4-0.1
			c0.4-0.1,0.7-0.1,0.8-0.1l1.5-0.3l2.6-0.4c0.1,0,0.2-0.1,0.3-0.1c0.2-0.1,0.5-0.2,0.9-0.3c0.4-0.1,0.8-0.1,1.3,0h0.7
			c0.1-0.1,0.3-0.1,0.6-0.1c0.6-0.1,1.2,0,1.9,0.4c0.2,0.1,0.4,0.2,0.8,0.2c0.1,0,0.1,0,0.2,0s0.2,0,0.3,0.1c-0.1,0-0.1,0.1-0.3,0.2
			c-0.1,0.1-0.2,0.2-0.4,0.2l0.5,0.3c0,0.2,0,0.5,0,0.9s0,0.7,0.1,1c0,0.2,0,0.3-0.2,0.4c-0.4,0.6-1,1-1.7,1.2
			c-0.5,0.1-0.8,0.2-1,0.3l-1.2,0.1c-0.2,0-0.5,0.1-0.9,0.2c-0.8,0.3-1.3,0.4-1.6,0.5c0,0-0.1,0-0.2,0.1s-0.2,0.1-0.3,0
			c-0.3,0-0.9,0.1-1.5,0.3c-0.5,0.1-0.8,0.2-1.1,0.3s-0.4,0-0.6,0s-0.3,0-0.5,0c-0.1,0-0.3,0-0.4-0.1l-0.9-0.1c0,0.7,0,1.4,0.1,1.9
			c0,0.2,0.1,0.4,0.1,0.6s0.1,0.4,0.1,0.7c0.2,1.3,0.3,2.6,0.4,4c0,0.3,0.1,0.5,0.2,0.8c0.1,0.2,0.1,0.5,0.2,0.7
			c0.1,1.6,0.3,3.1,0.5,4.6l0.2,3l0.2,1.2l0.1,1.1c0,0.2,0.1,0.4,0.2,0.6s0.1,0.4,0.2,0.7c0.1,0.3,0.2,0.9,0.3,1.7
			c0,0.3,0.1,0.9,0.2,1.6c0.1,0.6,0.2,1,0.3,1.3c0,0,0.1,0.1,0.1,0.2l0.1,1.1c0.1,0.4,0.2,0.7,0.4,1.1c0.1,0.2,0.2,0.4,0.2,0.7
			c0,0.3,0.1,0.4,0.1,0.5s0,0.3,0,0.6c0,0.2,0,0.4-0.1,0.5l-0.8,0.4c-0.1,0-0.3,0.1-0.5,0.1s-0.3,0-0.4,0s-0.2,0-0.2,0
			c-0.1,0-0.2,0-0.2,0.1c-0.3,0-0.6,0-0.7,0h-0.2c-0.3,0-0.4,0.2-0.5,0.4c-0.3-0.1-0.4-0.1-0.5-0.1s-0.2,0.2-0.3,0.4
			c0,0.2-0.1,0.5-0.2,0.8l-0.2,0.1L307.6,268.3z M291.7,235.9c0,0-0.1,0-0.1-0.1l-0.1,0.2L291.7,235.9z M299.6,236.9l-0.3,0.2
			c0,0-0.2-0.1-0.4-0.2c-0.1,0-0.3,0.1-0.5,0.3c-0.2,0.2-0.4,0.2-0.6,0.2c0.1-0.3,0.2-0.5,0.2-0.6s0-0.3-0.2-0.4
			c-0.1,0-0.2,0.1-0.3,0.1c-0.1,0.1-0.2,0.1-0.3,0.1l-0.8-1.3c0.1,0,0.2-0.1,0.5-0.1c0.2,0,0.6,0,0.9,0.1c0.4,0.1,0.7,0.2,0.9,0.1
			c-0.1,0.3-0.1,0.7-0.3,1.1h0.3c0.3,0,0.4-0.2,0.4-0.4v-0.2c0-0.3,0.1-0.5,0.4-0.7c0.1-0.1,0.3-0.2,0.5-0.3
			c0.2-0.1,0.3-0.1,0.4-0.2h0.1l0.1,0.1l1.1-0.1c0.1,0,0.2,0,0.3-0.1s0.2,0,0.3,0c0.2,0,0.3-0.1,0.3-0.2c0,0,0-0.1-0.1-0.1
			c0-0.1-0.1-0.1-0.2-0.1c0,0-0.1,0-0.2,0s-0.2-0.1-0.2-0.2s-0.1-0.1-0.2-0.1s-0.2,0.1-0.2,0.2v0.4l-0.8-0.2
			c-0.2-0.1-0.3-0.2-0.3-0.4c0.1,0,0.2,0,0.3,0.1c0,0-0.1-0.1-0.1-0.2s-0.1-0.1-0.2,0.1l-0.5,0.2c0-0.2-0.1-0.4-0.1-0.5
			c-0.1-0.1-0.1-0.2-0.2-0.1c0,0.1,0,0.2-0.1,0.3c0,0.1-0.1,0.2-0.1,0.2c-0.4-0.4-0.7-0.5-1-0.3c-0.1,0.2-0.3,0.3-0.5,0.3
			s-0.4,0-0.7-0.2c-0.1,0-0.2,0-0.3,0c-0.1,0-0.2,0-0.3,0.1c-0.2,0.2-0.5,0.4-0.7,0.4c-0.1,0-0.3,0-0.5,0c0-0.1-0.1,0-0.3,0.1
			c0,0.1,0,0.2,0.1,0.2c0,0.1,0.1,0.1,0.2,0.2s0.1,0.2,0.2,0.3c0,0.1,0,0.3,0,0.4s-0.1,0.2-0.1,0.4c0,0.1,0,0.2-0.2,0.3
			c-0.2,0.2-0.2,0.5,0.1,0.7c0,0.1,0.1,0.2,0.2,0.3c0.1,0.1,0.2,0.2,0.2,0.3c0.3,0.5,0.8,0.7,1.3,0.5l0.6-0.1c0.2,0,0.6,0,1.1-0.1
			C299.2,237.6,299.5,237.3,299.6,236.9z M306.6,234.1c0.1,0,0.2-0.1,0.4-0.1c-0.1-0.3-0.1-0.4-0.1-0.5c0.1-0.1,0.1-0.1,0-0.2
			c0-0.1-0.1-0.1-0.1-0.1c-0.2-0.2-0.4-0.4-0.5-0.5c-0.2-0.1-0.3-0.1-0.6,0c0,0-0.1,0-0.2-0.1c-0.2-0.1-0.4-0.1-0.6,0.1
			c-0.1,0.1-0.3,0.2-0.5,0.4c0,0-0.2,0.2-0.6,0.6l0.4-0.1l0.1-0.1c0.1,0,0.1-0.1,0.2-0.1h0.2c0.3,0,0.6,0.1,0.7,0.4
			c0.2,0.5,0.5,0.6,1,0.5C306.4,234.2,306.5,234.1,306.6,234.1z M307.1,232.5L307.1,232.5l-0.2,0.1c0,0,0.1,0,0.2,0.1
			C307,232.5,307,232.5,307.1,232.5z M308.3,232.3L308.3,232.3c-0.1,0-0.1,0-0.1,0s0,0-0.1,0C308.1,232.3,308.2,232.3,308.3,232.3
			L308.3,232.3z M308.7,233.6c0-0.2,0-0.4,0.1-0.5c0.1,0,0.1-0.1,0.1-0.3c0-0.1,0-0.2,0.1-0.3c-0.2,0.1-0.4,0.3-0.6,0.4
			s-0.2,0.3-0.2,0.5v0.1c0,0.2,0.3,0.5,0.7,0.6C308.8,233.9,308.7,233.8,308.7,233.6z M310,234.7c-0.1,0-0.2,0-0.3,0
			c-0.1,0-0.2,0-0.3,0v0.1c0.2,0,0.4,0.1,0.4,0.1C309.9,234.8,310,234.7,310,234.7z M310.6,232.9l-0.1-0.1h-0.1v0.2h0.1L310.6,232.9
			z M310.7,233.5L310.7,233.5c-0.1,0-0.1,0-0.1,0s0,0-0.1,0.1l0.1,0.1L310.7,233.5z M312.9,232.7c0-0.1,0-0.2-0.2-0.4
			c-0.2,0.2-0.4,0.4-0.5,0.5s0,0.2,0.1,0.4C312.7,232.9,312.9,232.8,312.9,232.7z"/>
		<path class="st3" d="M341.1,262.8c-0.2,0-0.5,0-0.7-0.2c-0.2-0.1-0.4-0.2-0.5-0.2s-0.2-0.1-0.3-0.1c-0.1-0.1-0.2-0.1-0.3-0.1
			c-0.2,0-0.3-0.1-0.4-0.1c-0.1-0.1-0.1-0.2-0.1-0.4l-0.2-1.1c0-0.2-0.1-0.4-0.1-0.6c-0.1-0.2-0.1-0.5-0.3-0.8l-0.1-0.3l-0.4-1.2
			l-0.2-0.8c-0.1-0.2-0.2-0.6-0.3-1.1c-0.1-0.4-0.2-0.7-0.4-1c-0.2-0.4-0.3-0.8-0.3-1.2v-0.2c0-0.2-0.1-0.4-0.1-0.6
			s-0.1-0.4-0.1-0.6l-0.2-1.2v-0.1c0,0,0-0.1,0-0.2s0-0.2,0-0.4c0-0.1-0.1-0.3-0.1-0.5c-0.1-0.2-0.1-0.3-0.2-0.4s-0.1-0.3-0.2-0.6
			c-0.1-0.2-0.1-0.5-0.1-0.7c0-0.1,0-0.1,0-0.2s-0.1-0.1-0.2-0.2c0-0.1-0.1-0.2-0.2-0.4s-0.1-0.3-0.1-0.5s0-0.4,0-0.5v-0.5
			c-0.1-0.4-0.2-0.7-0.3-0.9c-0.1-0.3-0.2-0.4-0.2-0.6s0-0.4,0.1-0.6c0-0.1,0-0.2,0-0.3c0-0.1,0-0.1,0-0.2c-0.1-0.3-0.1-0.5-0.2-0.8
			s-0.1-0.5-0.2-0.8l-0.2-0.4c0-0.2,0-0.3,0.1-0.5s0.2-0.5,0-0.8c-0.1-0.6-0.1-1.1-0.2-1.4l-0.2-2c0-0.3-0.2-0.8-0.4-1.5
			c0-0.3,0-0.5,0-0.6s0-0.2,0-0.3c0-0.1-0.1-0.3-0.2-0.3v-0.2c0-0.1,0.1-0.5,0.1-1l0.1-1.5c-0.1-0.4,0-0.8,0.3-1.4
			c0.1-0.1,0.2-0.3,0.3-0.4c0.2-0.2,0.3-0.4,0.4-0.6c0.2-0.5,0.6-0.8,1.1-0.8c0.1,0,0.1,0,0.2-0.1s0.1-0.1,0.2-0.2s0.2-0.2,0.4-0.3
			c0.2-0.1,0.5-0.2,1-0.3c0.5-0.2,1-0.2,1.4-0.2l1.8-0.3c0.3-0.1,0.6-0.2,1.1-0.3c0.5-0.1,0.8-0.1,1.1-0.1c0.1,0,0.2,0,0.2,0
			c0.1,0,0.1,0,0.2-0.1c0.4-0.1,0.7-0.2,0.9-0.2c0.3,0,0.6,0,0.9,0.1c0.1,0.1,0.2,0.1,0.4,0l0.2-0.1c0.1,0,0.3,0,0.5,0.1
			s0.4,0.1,0.5,0.1c0.2,0.1,0.6,0.2,1,0.4c0.2,0,0.4,0.1,0.5,0.2s0.2,0.3,0.2,0.6v0.3c0,0.2,0.2,0.4,0.5,0.4c0,0.3,0.1,0.5,0.1,0.8
			s-0.1,0.5-0.2,0.8c-0.1,0-0.2,0.1-0.4,0.2c-0.2,0.1-0.3,0.1-0.4,0.2s-0.1,0.2-0.1,0.4l-1.3,0.1c-0.3,0-0.5,0.1-0.6,0.1
			c-0.3,0.1-0.6,0.2-0.8,0.3c-0.2,0.1-0.4,0.1-0.6,0.1s-0.5,0.1-0.7,0.3c-1,0.2-1.8,0.2-2.4,0.1c-0.2,0-0.6,0-1.2,0.1
			c-0.4,0.1-0.6,0.1-0.8,0.2c-0.2,0-0.3,0.1-0.4,0.2c0,0.1,0,0.2,0,0.4c0.2,1.2,0.5,2.2,0.6,2.8c0.2,1.2,0.5,2.1,0.6,2.7
			c0,0.2,0,0.4,0,0.5s0,0.2,0,0.3c0.1,0.2,0.2,0.4,0.2,0.8l0.1,1.1c0,0.2,0.1,0.4,0.1,0.6c0,0.1,0,0.3,0,0.4s0,0.3,0,0.4l0.1,0.4
			c0.1,0.3,0.2,0.4,0.5,0.2c0.2,0,0.3-0.1,0.4-0.1c0.5-0.1,0.8-0.2,1-0.2h0.2c0,0,0.4-0.1,1-0.3l0.5-0.1c0.2,0,0.5-0.1,0.9-0.1
			c0.3,0,0.6-0.1,0.8-0.1c0.3-0.1,0.8-0.1,1.5,0c0.5,0.1,0.9,0.1,1.1,0.1s0.5,0.1,0.7,0.3c0.2,0.1,0.3,0.3,0.3,0.6
			c0,0.1,0,0.4,0,0.7c0.1,0.4,0.2,0.8,0.4,1.1c0.1,0,0.1,0.1,0.2,0.1l0.2,1.3c-0.1,0-0.1,0-0.2,0s-0.1,0-0.2,0c-0.2,0-0.4,0-0.5,0
			s-0.3,0.1-0.4,0.2s-0.2,0.2-0.3,0.2c-0.3,0.1-0.7,0.2-1.2,0.2c-0.8,0.3-1.7,0.5-2.8,0.6l-1.4,0.3c-0.3,0.1-0.8,0.2-1.4,0.3
			c-0.1,0.2-0.1,0.4,0,0.7c0.2,0.7,0.3,1.2,0.3,1.5s0.1,0.6,0.1,0.7s0,0.1,0.1,0.2c0,0,0.1,0.1,0.1,0.2c0,0,0.1,0.1,0.1,0.2
			c0.1,0.4,0.1,0.8,0,1.3c0,0.2,0.1,0.3,0.1,0.5c0.1,0.1,0.1,0.3,0.2,0.4c0,0.2,0.1,0.5,0.2,0.7c0.1,0.3,0.1,0.5,0.1,0.7
			c0,0,0,0.1,0,0.2s0,0.1,0.1,0.2c0.2,0.4,0.3,0.9,0.3,1.6c-0.1,0.1-0.1,0.2,0,0.5c0,0.2,0.1,0.3,0.1,0.4c0.1,0.1,0.2,0.1,0.3,0.1
			l1.6-0.3c0.1,0,0.2,0,0.2-0.1c0.3-0.3,0.9-0.4,1.6-0.5c0.3-0.1,0.7-0.2,1.1-0.3c0.4-0.1,0.8-0.3,1.3-0.4c1-0.4,1.6-0.6,1.9-0.7
			h0.3c0.3,0,0.5-0.1,0.7,0c0.1,0,0.2,0,0.3,0c0.1,0,0.1,0,0.2,0c0.2,0,0.4,0,0.5,0c0.1,0.1,0.2,0.2,0.2,0.4c0,0.1,0.1,0.1,0.2,0.1
			c0.2,0,0.4,0,0.4,0.2c0.1,0.2,0.2,0.3,0.2,0.3l-0.5,0.1c0.1,0.1,0.3,0.3,0.6,0.5l0.1,0.5v0.2l-0.7,0.9H354c0,0.2-0.1,0.4-0.3,0.6
			c-0.2,0.1-0.4,0.3-0.7,0.5c-0.3,0.2-0.5,0.3-0.6,0.5v0.1c0,0,0,0-0.1,0l-2.3,0.6c-0.1,0-0.2,0.1-0.5,0.1l-1.7,0.5l-3.4,0.7
			c-0.5,0.2-1.4,0.4-2.6,0.6L341.1,262.8z M336.5,236.9L336.5,236.9C336.5,236.9,336.4,236.8,336.5,236.9c-0.1-0.1-0.1-0.1-0.2,0
			v0.1L336.5,236.9z M338.9,230.8c0.2,0.1,0.3,0,0.4-0.2c0-0.2,0-0.3-0.1-0.4c0-0.2-0.1-0.4-0.2-0.5c0.3-0.1,0.7-0.1,1.1,0
			s0.7,0.2,0.9,0.2c0,0.2,0.1,0.4,0.2,0.5l0.5-0.9c0.2,0,0.4,0,0.6-0.1c0.2,0,0.4-0.1,0.5-0.1c0.2,0,0.3,0,0.4,0c0,0,0.1,0,0.1-0.1
			s0.1-0.1,0.2-0.1c0.1,0.2,0.2,0.2,0.4,0c0-0.1,0.1-0.2,0.2-0.2c0.1,0.2,0.3,0.2,0.4,0.1v-0.2c-0.2-0.2-0.3-0.1-0.4,0
			c0,0-0.1,0-0.2,0c0,0-0.1,0.1-0.3,0.2c-0.1-0.1-0.4-0.2-0.7-0.4l0.1-0.1c0,0,0.1-0.1,0.2-0.1c-0.2-0.1-0.3-0.2-0.4-0.2
			s-0.1,0.1-0.2,0.1s-0.2,0.1-0.3,0.1c0-0.1-0.1-0.1-0.1-0.2s-0.1-0.1-0.1-0.2c-0.1,0.1-0.2,0.2-0.2,0.3c-0.1,0-0.1-0.1-0.2-0.1
			c-0.1-0.1-0.1-0.1-0.2-0.1s-0.4-0.1-0.7-0.2c-0.3-0.1-0.5-0.2-0.8-0.2c-0.2,0-0.4-0.1-0.6-0.2c-0.1-0.2-0.2-0.3-0.3-0.3
			c-0.1,0-0.1,0.1-0.2,0.2s-0.1,0.1-0.2,0.2l0.9,0.5v0.2c-0.3-0.1-0.5,0-0.5,0.3c-0.2-0.1-0.5-0.1-0.9,0c-0.1,0.1-0.2,0.2-0.2,0.2
			s0,0.1,0.1,0.3c0.2,0.4,0.3,0.8,0.3,1.2v0.1l0.1,0.5C338.7,230.9,338.8,230.8,338.9,230.8z M343.4,245.5c0.2,0,0.4-0.1,0.4-0.2
			s0-0.3-0.1-0.5c0.1,0,0.1,0,0.2-0.1s0.1-0.1,0.2-0.2l-0.3-0.1c-0.1,0-0.1,0-0.1-0.1c0.1,0,0.1-0.1,0.2-0.1s0.2,0,0.4,0.2
			c0.1-0.1,0.1-0.2-0.1-0.4c0-0.1-0.1-0.1-0.2-0.2c-0.1,0-0.2,0-0.2,0l-1.6,0.9c0,0-0.1,0.1-0.2,0.2s-0.1,0.2,0,0.3
			c0.2,0.2,0.3,0.1,0.5-0.1l0.1,0.1l0.3,0.4L343.4,245.5z M342.8,260.9c-0.2-0.2-0.4-0.2-0.6,0.1L342.8,260.9z M343.9,227
			c-0.1,0-0.2-0.1-0.5-0.1c-0.2,0-0.5,0-0.7,0.1c0.3,0.1,0.7,0.1,1.2,0.1V227z M343.7,260.8c0.1,0,0.2-0.1,0.3-0.4l-0.5,0.1v0.1
			C343.6,260.8,343.7,260.8,343.7,260.8z M345.8,258.2c0.1-0.1,0.2-0.2,0.3-0.5c-0.1,0-0.2-0.1-0.3-0.1c-0.1-0.1-0.2-0.1-0.4-0.1
			c-0.1-0.1-0.2,0-0.3,0c-0.1,0.1-0.1,0.2,0,0.3c0,0.1,0.1,0.2,0.1,0.2h-0.6c0.1,0.3,0.2,0.5,0.5,0.3
			C345.4,258.4,345.6,258.3,345.8,258.2z M346.7,257.4c-0.2-0.1-0.3-0.1-0.4,0.1c0,0,0,0,0,0.1s0,0.1,0.1,0.1
			C346.5,257.8,346.6,257.7,346.7,257.4z M347.2,259.6c0-0.1-0.1-0.3-0.3-0.4l-0.2,0.8c0.1,0.1,0.1,0.1,0.2,0.1s0.1,0,0.2-0.1
			C347.2,259.8,347.2,259.7,347.2,259.6z M350.2,256.6c-0.1-0.1-0.2-0.1-0.4-0.2c-0.2-0.1-0.3-0.1-0.4-0.1s-0.3,0-0.4,0.2
			c-0.1,0.1-0.4,0.3-0.9,0.5l0.3,0.4c-0.2,0.1-0.2,0.2-0.2,0.3c0.1,0.1,0.1,0.2,0,0.3C348.5,257.9,349.1,257.4,350.2,256.6z
			 M349.8,258c0-0.1,0-0.1-0.1-0.2c0,0-0.1-0.1-0.2-0.1l-0.2,0.2c0,0.1,0.1,0.1,0.2,0.2s0.1,0.1,0.2,0.2
			C349.8,258.2,349.8,258.1,349.8,258z M350.4,257.7c0-0.1-0.1-0.2-0.1-0.5l-0.5,0.1v0.1c0.2,0,0.4-0.1,0.5-0.1v0.5L350.4,257.7z
			 M350.5,255.9c-0.2-0.1-0.4,0-0.7,0.1c0.2,0.2,0.3,0.4,0.5,0.5s0.4,0.1,0.6,0C350.9,256.2,350.7,256,350.5,255.9z M350.4,258.9
			l-0.2-0.3h-0.1l0.1,0.4L350.4,258.9z M350.7,259.7c0,0-0.1,0-0.1-0.1s-0.1-0.1-0.1-0.1v0.2C350.5,259.8,350.6,259.8,350.7,259.7
			L350.7,259.7z"/>
		<path class="st3" d="M371.4,258.1c-0.2-0.1-0.4-0.2-0.7-0.3c-0.2-0.1-0.3-0.3-0.4-0.7v-0.2c0-0.2-0.2-0.4-0.4-0.4
			c-0.1,0-0.3-0.2-0.6-0.7c-0.1,0.1-0.2,0.2-0.2,0.2c0,0.1-0.1,0.2-0.1,0.3c-0.1,0-0.2,0-0.3,0c-0.1,0-0.2-0.1-0.2-0.2
			c-0.1-0.1-0.1-0.2-0.1-0.2c0-0.1,0-0.2,0-0.3c0-0.2-0.1-0.4-0.4-0.6c0,0-0.1-0.2-0.1-0.4l-0.6-3.8c0-0.2-0.1-0.4-0.2-0.7
			c-0.1-0.3-0.2-0.5-0.2-0.6c-0.1-0.2-0.2-0.3-0.2-0.4s-0.1-0.2-0.1-0.3c0-0.2-0.1-0.4-0.1-0.6c-0.1-0.2-0.1-0.4-0.1-0.6l-0.3-1.7
			c-0.1-1.1-0.2-2-0.3-2.7c0-0.3-0.1-0.7-0.2-1.2s-0.2-0.9-0.2-1.3c-0.1-0.9-0.3-1.9-0.7-3.2c0-0.1,0-0.2-0.1-0.3
			c0-0.1-0.1-0.3-0.2-0.5l-0.1-0.5c0-0.2,0-0.5,0-0.8c0-0.1,0-0.3,0-0.5s0-0.4,0-0.6c0-0.3-0.1-0.5-0.2-0.6c0-0.1-0.1-0.1-0.1-0.2
			s0-0.1,0-0.1c0.1-0.1,0.1-0.2,0.1-0.3c0-0.1-0.1-0.3-0.1-0.5s-0.1-0.5-0.1-0.9c0-0.3,0-0.6-0.1-0.8c-0.1-0.2-0.1-0.4-0.1-0.7
			c0-0.3-0.1-0.5-0.1-0.7c-0.1-0.4-0.2-0.8-0.3-1.1l-0.1-0.5c0-0.5,0.1-1.3,0.2-2.4c0.1-0.4,0.1-0.9,0.2-1.4
			c0.8-0.1,1.3-0.4,1.6-0.9c0.1-0.2,0.4-0.4,0.7-0.4s0.5,0,0.6-0.1c0.1,0,0.2,0,0.3,0s0.2,0,0.2-0.1c0.2-0.2,0.4-0.3,0.7-0.3
			c0.3,0,0.4-0.1,0.4-0.1l1.7-0.3c0.4-0.1,0.8-0.1,1.1,0l1.3,0.1c0.2,0,0.4,0.1,0.8,0.1s0.6,0.1,0.9,0.1c0.7,0.1,1.2,0.3,1.7,0.5
			c0.1,0,0.4,0.1,0.9,0.3c0.3,0.2,0.7,0.4,1.3,0.6c0.6,0.3,1,0.5,1.4,0.8c0.2,0.2,0.3,0.3,0.5,0.5s0.4,0.4,0.5,0.5s0.4,0.4,1,1
			l0.8,0.8l0.4,0.8c0,0,0.1,0.1,0.1,0.2s0.1,0.2,0.1,0.2c0.2,0.1,0.3,0.2,0.5,0.4c0.1,0.2,0.2,0.4,0.3,0.6c0.1,0.2,0.1,0.3,0.2,0.4
			c0.4,1,0.7,1.8,0.8,2.4c0,0.2,0.1,0.4,0.2,0.8s0.2,0.7,0.2,1c0.1,0.4,0.1,0.9,0,1.3v0.3c0,0.3,0.1,0.6,0.2,0.7
			c0.1,0.3,0.2,0.4,0.2,0.5c0,0.2,0,0.6-0.2,1.1c0,0.1,0,0.1,0,0.2s0,0.1,0,0.2c0.1,0.4,0.1,0.9-0.1,1.5s-0.3,1-0.4,1.3
			c0,0.4-0.1,0.9,0,1.6c0,0.1,0,0.2,0,0.4c0,0.2,0,0.3,0,0.4c0,0.3,0,0.4-0.1,0.4c-0.3,0.2-0.4,0.4-0.5,0.6s-0.1,0.5-0.1,0.7
			s0,0.4,0,0.5c0,0.5-0.1,0.8-0.3,1.1c-0.5,0.6-0.8,1.2-0.9,1.8c-0.2,0.6-0.6,1.2-1.2,1.8c-0.1,0-0.2,0.1-0.3,0.2
			c-0.1,0.1-0.1,0.2-0.1,0.3c-0.2,0.4-0.5,0.8-0.9,1.1c-0.5,0.4-1,1-1.4,1.7c-0.2,0.3-0.3,0.5-0.5,0.7c-0.1,0.2-0.4,0.3-0.7,0.3
			l-0.3,0.2c-0.6,0.6-1.6,1.2-2.9,1.8c-0.2,0.1-0.4,0.2-0.7,0.3c-0.3,0.1-0.5,0.1-0.7,0.2c-0.1,0-0.2,0-0.3,0.1
			c-0.1,0-0.1,0.1-0.2,0.1c-0.2,0.2-0.5,0.3-0.9,0.3C371.8,258.2,371.6,258.1,371.4,258.1z M369.4,255.4c-0.2-0.2-0.3-0.2-0.3-0.2
			c-0.1,0-0.1,0-0.2,0.1c0,0.1-0.1,0.1-0.1,0.1c0,0.1,0.1,0.2,0.1,0.2C369.1,255.5,369.2,255.4,369.4,255.4z M373.1,252.8
			c0.1,0,0.3-0.1,0.4-0.3c0,0,0.4-0.4,1.4-1.2c0.2-0.2,0.4-0.4,0.7-0.7c0.3-0.3,0.5-0.5,0.7-0.7c0.1-0.1,0.2-0.2,0.3-0.4
			c0.1-0.2,0.2-0.3,0.3-0.3c0.4-0.3,0.7-0.8,0.9-1.2c0.1-0.3,0.2-0.5,0.4-0.7c0.7-0.8,1-1.6,1.1-2.4c0-0.1,0-0.2,0.1-0.3
			c0-0.1,0-0.2,0.1-0.3c0.1-0.4,0.1-0.8,0.1-1.2c0-0.4,0-0.7,0-0.8c0-0.1,0-0.9,0-2.3c0-1.3-0.1-2.2-0.1-2.8l-0.3-1.8
			c0-0.1,0-0.1-0.1-0.2c0-0.1,0-0.1,0-0.2c0.1-0.3,0.2-0.6,0.1-0.9c0-0.2-0.1-0.5-0.2-0.8c-0.2-0.4-0.3-0.7-0.4-1
			c-0.1-0.7-0.3-1.2-0.6-1.5c-0.1-0.2-0.4-0.5-0.7-0.9c-0.4-0.5-0.7-0.8-1.1-1.1c0,0-0.1-0.2-0.2-0.4c-0.1-0.1-0.1-0.1-0.2-0.2
			c-0.1,0-0.1-0.1-0.1-0.1c-1-0.7-2.2-1-3.4-1V227c0-0.2-0.1-0.3-0.2-0.3c-0.1-0.1-0.3-0.1-0.5-0.1c-0.1,0-0.3,0-0.6,0
			c-0.3,0-0.5,0-0.7,0c-0.1,0-0.3,0-0.5,0s-0.3,0.1-0.3,0.2c-0.1,0.1,0,0.3,0,0.6l0.3,1.6c0,0.2,0.1,0.5,0.1,0.7
			c0.1,0.2,0.1,0.4,0.1,0.7l0.1,0.9c0,0.3,0.1,0.5,0.1,0.8c0,0.2,0,0.5,0.1,0.7c0,0.1,0.1,0.4,0.2,0.7c0,0.2,0,0.3,0,0.4
			c-0.1,0.4-0.1,0.8,0,1.3c0,0.2,0.1,0.5,0.3,1c0.1,0.3,0.2,0.7,0.2,1.1s0.1,0.7,0.1,0.9c0.1,0.7,0.3,1.2,0.4,1.6
			c0.1,0.2,0.1,0.4,0.2,0.8l0.2,1.9c0,0.2,0,0.5,0.1,0.9s0,0.7-0.2,0.9c0,0,0,0.1,0,0.3c0.2,0.8,0.5,2,0.9,3.4c0,0.1,0,0.2-0.1,0.3
			c-0.1,0.2-0.1,0.3-0.1,0.6c0,0.2,0.1,0.4,0.2,0.8c0.2,0.4,0.2,0.7,0.2,0.9c0,0.1,0,0.3,0,0.6c0,0.2,0,0.4,0.1,0.6v0.1
			c0,0.1,0,0.2-0.1,0.2c-0.1,0.1-0.1,0.2-0.1,0.3l0.2,0.5C372.9,252.8,373,252.8,373.1,252.8z M372.9,224.8c0,0.1-0.1,0.1-0.1,0.1
			l0.2,0.2L372.9,224.8z M373.6,225.2c-0.1,0-0.2,0-0.3,0.1c-0.1,0-0.2,0.1-0.3,0.1c0.2,0,0.4,0,0.6,0L373.6,225.2z M373.4,224h-0.1
			c-0.1,0.1-0.1,0.1-0.2,0.1c0,0,0,0.1,0.1,0.1c0,0,0.1,0,0.1,0.1C373.2,224.2,373.3,224.1,373.4,224z M373.6,225.8
			c0.1,0,0.2-0.1,0.3-0.2c-0.1,0-0.1,0-0.2,0s-0.1,0-0.2,0l-0.2,0.3C373.5,226,373.6,225.9,373.6,225.8z M375.8,252.2
			c0.2,0,0.4-0.1,0.4-0.2s0.1-0.3,0.1-0.5c-0.5,0.4-0.8,0.7-0.9,0.8L375.8,252.2z M378.3,226.5c0.1-0.1,0.1-0.2,0-0.4
			c0-0.1-0.1-0.2-0.1-0.3c-0.1,0-0.2,0-0.3,0.1c-0.1,0.1-0.3,0.2-0.4,0.3c-0.2,0.2-0.4,0.3-0.7,0.3v-0.3c-0.1,0-0.1,0.1-0.1,0.1
			l0.1,0.2c-0.1,0-0.2-0.1-0.3-0.1c-0.1-0.1-0.2-0.1-0.3-0.1c-0.1,0-0.1,0-0.2,0.2l0.3,0.6c0,0.1,0.1,0.2,0.1,0.3
			c0,0.2,0.2,0.3,0.4,0.3h-0.1c0,0,0.1,0.1,0.2,0.1s0.2,0,0.3,0s0.2-0.1,0.2-0.2L378.3,226.5z M378.6,253.3c0.1-0.1,0.2-0.2,0.3-0.3
			c0.1-0.1,0.2-0.2,0.2-0.4c0-0.1,0-0.5,0-1.3c0.6-0.2,0.9-0.6,0.8-1.3c0-0.2-0.1-0.4-0.1-0.5c0.2,0,0.3-0.1,0.4-0.1
			s0.1-0.1,0.1-0.2l-0.2-0.7c-0.2,0.1-0.4,0.2-0.6,0.3c-0.2,0.1-0.4,0.2-0.6,0.3c-0.1,0.1-0.2,0.2-0.3,0.4c-0.1,0.2-0.1,0.3-0.1,0.4
			c-0.2-0.2-0.3-0.2-0.4-0.2s-0.3,0.1-0.6,0.3c0,0.2,0.1,0.5,0.2,0.9l0.1,0.2c0,0.2-0.1,0.4-0.4,0.5c-0.2,0.1-0.4,0.2-0.4,0.3
			c-0.1,0.1,0,0.2,0.1,0.4c0.2,0.4,0.6,0.8,1,1.2c0,0.1,0.1,0.1,0.3,0.1C378.3,253.5,378.4,253.4,378.6,253.3z M377.2,250.6
			c0-0.1-0.1-0.3-0.3-0.4c0,0.1,0,0.2,0,0.3c0,0.2,0.1,0.3,0.3,0.5V250.6z M377.9,225.3l-0.2-0.1l-0.2,0.3c0,0.1,0.1,0.1,0.2,0.1
			C377.8,225.5,377.9,225.4,377.9,225.3z M378.6,229.1c0.1,0,0.2-0.1,0.2-0.1c0-0.1,0-0.2,0-0.3c0-0.2-0.1-0.3-0.2-0.4
			s-0.3-0.1-0.6-0.1c-0.1,0.1-0.1,0.3,0,0.5c0,0.2,0.2,0.4,0.5,0.4H378.6z M378.3,227.6C378.3,227.6,378.2,227.6,378.3,227.6
			c-0.1-0.1-0.1-0.1-0.2-0.1v0.1l0.2,0.1V227.6z M380.2,228c-0.2-0.2-0.4-0.2-0.5,0.2L380.2,228z"/>
	</g>
</g>
</svg>
