<?xml version="1.0" encoding="utf-8"?>
<!-- Generator: Adobe Illustrator 24.2.3, SVG Export Plug-In . SVG Version: 6.00 Build 0)  -->
<svg version="1.1" id="Layer_1" xmlns="http://www.w3.org/2000/svg" xmlns:xlink="http://www.w3.org/1999/xlink" x="0px" y="0px"
	 viewBox="0 0 500 500" style="enable-background:new 0 0 500 500;" xml:space="preserve">
<style type="text/css">
	.st0{fill:#D1C5BD;}
	.st1{fill:#F7F4F2;}
	.st2{fill:#EA7B6C;}
	.st3{fill:#878584;}
	.st4{fill:#A3978E;}
	.st5{fill:#635952;}
	.st6{fill:url(#SVGID_1_);}
	.st7{fill:url(#SVGID_2_);}
	.st8{fill:url(#SVGID_3_);}
	.st9{fill:url(#SVGID_4_);}
	.st10{fill:url(#SVGID_5_);}
	.st11{fill:url(#SVGID_6_);}
	.st12{fill:url(#SVGID_7_);}
	.st13{fill:url(#SVGID_8_);}
	.st14{fill:url(#SVGID_9_);}
	.st15{fill:url(#SVGID_10_);}
	.st16{fill:url(#SVGID_11_);}
	.st17{fill:url(#SVGID_12_);}
	.st18{fill:url(#SVGID_13_);}
	.st19{fill:url(#SVGID_14_);}
	.st20{fill:url(#SVGID_15_);}
	.st21{fill:url(#SVGID_16_);}
	.st22{fill:url(#SVGID_17_);}
	.st23{fill:url(#SVGID_18_);}
	.st24{fill:url(#SVGID_19_);}
	.st25{fill:url(#SVGID_20_);}
	.st26{fill:url(#SVGID_21_);}
	.st27{fill:url(#SVGID_22_);}
	.st28{fill:url(#SVGID_23_);}
	.st29{fill:url(#SVGID_24_);}
	.st30{fill:url(#SVGID_25_);}
	.st31{fill:url(#SVGID_26_);}
	.st32{fill:url(#SVGID_27_);}
	.st33{fill:url(#SVGID_28_);}
	.st34{fill:url(#SVGID_29_);}
	.st35{fill:#FFFFFF;}
</style>
<g>
	<g>
		<path class="st0" d="M207.2,347.5l145.2-145.2c7.6-7.6,7.6-19.9,0-27.5l-29-29c-7.6-7.6-19.9-7.6-27.5,0L150.7,291.1L207.2,347.5z
			"/>
		<path class="st1" d="M202.6,343l140.6-140.6c7.6-7.6,7.6-19.9,0-27.5L323.4,155c-7.5-7.6-19.9-7.6-27.5,0L155.2,295.6L202.6,343z"
			/>
		<path class="st2" d="M287.9,257.7l55.3-55.3c7.6-7.6,7.6-19.9,0-27.5L323.4,155c-7.5-7.6-19.9-7.6-27.5,0l-55.3,55.3L287.9,257.7z
			"/>
		<polygon class="st3" points="414.6,79.5 343.8,150.2 348,154.4 425.5,76.9 		"/>
		<polygon class="st0" points="343.3,144.4 329.4,156.3 341.9,168.9 353.8,154.9 		"/>
		
			<rect x="77.1" y="289.7" transform="matrix(0.7071 -0.7071 0.7071 0.7071 -166.7054 222.806)" class="st0" width="217" height="45.9"/>
		
			<rect x="101.2" y="348.5" transform="matrix(0.7071 -0.7071 0.7071 0.7071 -242.5492 191.3831)" class="st0" width="17" height="79.9"/>
		<polygon class="st4" points="233.5,217.4 280.8,264.7 292.8,252.7 245.5,205.4 		"/>
		<g>
			
				<rect x="323.5" y="154.4" transform="matrix(0.7072 -0.707 0.707 0.7072 -27.3255 280.5112)" class="st5" width="3.1" height="37.8"/>
			<polygon class="st5" points="328.2,189.2 309,170 311.1,167.9 330.4,187.1 			"/>
			
				<rect x="312.8" y="170.3" transform="matrix(0.7071 -0.7071 0.7071 0.7071 -37.967 276.1313)" class="st5" width="3.1" height="27.2"/>
			
				<rect x="307.5" y="175.6" transform="matrix(0.7071 -0.7071 0.7071 0.7071 -43.2984 273.9259)" class="st5" width="3.1" height="27.2"/>
			
				<rect x="302.1" y="181" transform="matrix(0.7071 -0.7071 0.7071 0.7071 -48.6381 271.7131)" class="st5" width="3.1" height="27.2"/>
			
				<rect x="296.8" y="181" transform="matrix(0.7072 -0.7071 0.7071 0.7072 -53.9581 269.4927)" class="st5" width="3.1" height="37.8"/>
			<polygon class="st5" points="301.5,215.9 282.3,196.7 284.5,194.5 303.7,213.8 			"/>
			
				<rect x="286.1" y="197" transform="matrix(0.7071 -0.7071 0.7071 0.7071 -64.6235 265.0839)" class="st5" width="3.1" height="27.2"/>
			
				<rect x="280.8" y="202.3" transform="matrix(0.7071 -0.7071 0.7071 0.7071 -69.9675 262.8775)" class="st5" width="3.1" height="27.2"/>
			
				<rect x="275.5" y="207.6" transform="matrix(0.7071 -0.7071 0.7071 0.7071 -75.2946 260.6656)" class="st5" width="3.1" height="27.2"/>
			
				<rect x="270.1" y="207.7" transform="matrix(0.7071 -0.7071 0.7071 0.7071 -80.6289 258.4633)" class="st5" width="3.1" height="37.8"/>
			<polygon class="st5" points="274.9,242.6 255.6,223.4 257.8,221.2 277,240.4 			"/>
			
				<rect x="259.5" y="223.6" transform="matrix(0.7072 -0.707 0.707 0.7072 -91.2997 253.9916)" class="st5" width="3.1" height="27.2"/>
			
				<rect x="254.1" y="229" transform="matrix(0.7071 -0.7071 0.7071 0.7071 -96.6307 251.8363)" class="st5" width="3.1" height="27.2"/>
			
				<rect x="248.8" y="234.3" transform="matrix(0.7072 -0.707 0.707 0.7072 -101.9661 249.5764)" class="st5" width="3.1" height="27.2"/>
			
				<rect x="243.5" y="234.3" transform="matrix(0.7071 -0.7071 0.7071 0.7071 -107.2943 247.4119)" class="st5" width="3.1" height="37.8"/>
			
				<rect x="238.1" y="245" transform="matrix(0.7071 -0.7071 0.7071 0.7071 -112.6253 245.207)" class="st5" width="3.1" height="27.2"/>
			
				<rect x="232.8" y="250.3" transform="matrix(0.7071 -0.7071 0.7071 0.7071 -117.958 242.9991)" class="st5" width="3.1" height="27.2"/>
			
				<rect x="227.5" y="255.6" transform="matrix(0.7071 -0.7071 0.7071 0.7071 -123.2881 240.7903)" class="st5" width="3.1" height="27.2"/>
			
				<rect x="222.1" y="260.9" transform="matrix(0.7069 -0.7073 0.7073 0.7069 -128.6161 238.6745)" class="st5" width="3.1" height="27.2"/>
			
				<rect x="216.8" y="261" transform="matrix(0.7071 -0.7071 0.7071 0.7071 -133.9536 236.3671)" class="st5" width="3.1" height="37.8"/>
			
				<rect x="211.5" y="271.6" transform="matrix(0.7072 -0.707 0.707 0.7072 -139.2832 234.1144)" class="st5" width="3.1" height="27.2"/>
			<polygon class="st5" points="216.2,301.2 197,282 199.2,279.9 218.4,299.1 			"/>
			
				<rect x="200.8" y="282.3" transform="matrix(0.7071 -0.7071 0.7071 0.7071 -149.9532 229.7431)" class="st5" width="3.1" height="27.2"/>
			
				<rect x="195.5" y="287.6" transform="matrix(0.7072 -0.707 0.707 0.7072 -155.2822 227.4875)" class="st5" width="3.1" height="27.2"/>
			
				<rect x="190.2" y="287.7" transform="matrix(0.7071 -0.7072 0.7072 0.7071 -160.6279 225.3691)" class="st5" width="3.1" height="37.8"/>
		</g>
		
			<rect x="165.6" y="273.4" transform="matrix(0.7071 -0.7071 0.7071 0.7071 -176.3335 218.8084)" class="st0" width="20.8" height="97.7"/>
		<polygon class="st4" points="138.8,290.3 134.1,295.1 203.1,364.2 207.9,359.4 		"/>
	</g>
</g>
<g>
	<g>
		
			<linearGradient id="SVGID_1_" gradientUnits="userSpaceOnUse" x1="167.9578" y1="216.7852" x2="171.9946" y2="216.7852" gradientTransform="matrix(0.9909 -0.1345 -0.1345 -0.9909 30.0979 530.1739)">
			<stop  offset="9.183670e-02" style="stop-color:#CD0000"/>
			<stop  offset="0.8878" style="stop-color:#9A0201"/>
		</linearGradient>
		<path class="st6" d="M169.3,292.1c-0.6-0.1-1.2,0.2-1.8,0.5c-0.2,0.2-0.3,0.3-0.1,0.5c0.4,0.3,1,0.2,1.7-0.2
			c0.9-0.3,1.8-0.6,2.1-1.2h-0.4C170.4,292.1,170,292.4,169.3,292.1z"/>
		
			<linearGradient id="SVGID_2_" gradientUnits="userSpaceOnUse" x1="301.66" y1="279.1981" x2="305.7986" y2="279.1981" gradientTransform="matrix(0.9909 -0.1345 -0.1345 -0.9909 30.0979 530.1739)">
			<stop  offset="9.183670e-02" style="stop-color:#CD0000"/>
			<stop  offset="0.8878" style="stop-color:#9A0201"/>
		</linearGradient>
		<path class="st7" d="M295.5,212c-1.6,0.1-2.8,0.8-4,1.3l2.5-0.3C294.3,212.7,294.9,212.4,295.5,212z"/>
		
			<linearGradient id="SVGID_3_" gradientUnits="userSpaceOnUse" x1="235.0115" y1="216.853" x2="239.3948" y2="216.853" gradientTransform="matrix(0.9909 -0.1345 -0.1345 -0.9909 30.0979 530.1739)">
			<stop  offset="9.183670e-02" style="stop-color:#CD0000"/>
			<stop  offset="0.8878" style="stop-color:#9A0201"/>
		</linearGradient>
		<path class="st8" d="M234.1,283.4c1,0,2,0.1,3.2,0.2c0.3-0.1,1-0.1,0.7-0.6c-0.2,0-0.4-0.2-0.6-0.2l-3.7,0.5
			C233.9,283.3,233.9,283.4,234.1,283.4z"/>
		
			<linearGradient id="SVGID_4_" gradientUnits="userSpaceOnUse" x1="311.4147" y1="281.159" x2="334.1683" y2="281.159" gradientTransform="matrix(0.9909 -0.1345 -0.1345 -0.9909 30.0979 530.1739)">
			<stop  offset="9.183670e-02" style="stop-color:#CD0000"/>
			<stop  offset="0.8878" style="stop-color:#9A0201"/>
		</linearGradient>
		<path class="st9" d="M303.6,209.2c-1,0.1-1.7,0.2-2,0.8c-0.3,0.5-1,1.1-0.2,1.1c0.7,0,2-0.1,2.9-0.9c0.8-0.7,2-1.5,2.8-0.6
			c0.2,0.2,0.6,0,1.1,0c1.3-0.5,2.7-0.7,3.6-1.5c0.7-0.6,1.6-1.3,2.9-0.9c0.3,0.1,1,0,1.4-0.4c0.6-0.7,0.7-0.8,1.9-0.7
			c1.6,0.1,3.5-0.3,4.9-0.7c0.3-0.1,0.2-0.2,0.3-0.3l-13.8,1.9c-0.1,0.1-0.2,0.1-0.2,0.1C307.6,208.7,305.7,209.1,303.6,209.2z"/>
		
			<linearGradient id="SVGID_5_" gradientUnits="userSpaceOnUse" x1="346.8406" y1="216.6607" x2="353.0084" y2="216.6607" gradientTransform="matrix(0.9909 -0.1345 -0.1345 -0.9909 30.0979 530.1739)">
			<stop  offset="9.183670e-02" style="stop-color:#CD0000"/>
			<stop  offset="0.8878" style="stop-color:#9A0201"/>
		</linearGradient>
		<path class="st10" d="M345.6,268.6c-0.4,0.1-1,0.3-0.9,0.6c0,0.2,0.5,0.2,0.8,0.1c1.3-0.4,2.7-0.5,4-1c0.7-0.3,1-0.6,1.2-0.9
			l-3.5,0.5C346.9,268.2,346.6,268.5,345.6,268.6z"/>
		
			<linearGradient id="SVGID_6_" gradientUnits="userSpaceOnUse" x1="213.6234" y1="215.9085" x2="218.0632" y2="215.9085" gradientTransform="matrix(0.9909 -0.1345 -0.1345 -0.9909 30.0979 530.1739)">
			<stop  offset="9.183670e-02" style="stop-color:#CD0000"/>
			<stop  offset="0.8878" style="stop-color:#9A0201"/>
		</linearGradient>
		<path class="st11" d="M215.5,286c0.8,0.7,0.4,1,0.4,1.6c-0.3,0-0.7-0.2-0.9-0.1c-0.8,0.7-1.4,0.2-2.3-0.1c0,1,1.5,0.8,2.6,0.9
			c0.4,0.1,0.6-0.1,0.9-0.2c0.1,0.1,0.1,0.3,0.3,0.4c0.2-0.2,0.3-0.3,0.4-0.5h0.1v-0.1c0.3-0.5,0.3-1-0.4-1.8
			c-0.2-0.3-0.5-0.4-0.8-0.5h-0.3C215.5,285.8,215.4,285.9,215.5,286z"/>
		
			<linearGradient id="SVGID_7_" gradientUnits="userSpaceOnUse" x1="303.9397" y1="213.7252" x2="308.5765" y2="213.7252" gradientTransform="matrix(0.9909 -0.1345 -0.1345 -0.9909 30.0979 530.1739)">
			<stop  offset="9.183670e-02" style="stop-color:#CD0000"/>
			<stop  offset="0.8878" style="stop-color:#9A0201"/>
		</linearGradient>
		<path class="st12" d="M304.1,277.1c-0.2,0-0.6,0.1-1.6,0.1c0.6,0.2,0.6,0.3,0.8,0.5l3.8-0.5C306.7,277,305.8,277,304.1,277.1z"/>
		
			<linearGradient id="SVGID_8_" gradientUnits="userSpaceOnUse" x1="186.2261" y1="213.8775" x2="189.6623" y2="213.8775" gradientTransform="matrix(0.9909 -0.1345 -0.1345 -0.9909 30.0979 530.1739)">
			<stop  offset="9.183670e-02" style="stop-color:#CD0000"/>
			<stop  offset="0.8878" style="stop-color:#9A0201"/>
		</linearGradient>
		<path class="st13" d="M189.1,292.8c0.1-0.5,0-0.9-0.9-0.5c-0.7,0.2-1.8,0.6-2.1,1.2c0,0.1-0.1,0.2-0.2,0.3l3.3-0.4
			C189.3,293.1,189.3,292.9,189.1,292.8z"/>
		
			<linearGradient id="SVGID_9_" gradientUnits="userSpaceOnUse" x1="313.8719" y1="213.9168" x2="317.0615" y2="213.9168" gradientTransform="matrix(0.9909 -0.1345 -0.1345 -0.9909 30.0979 530.1739)">
			<stop  offset="9.183670e-02" style="stop-color:#CD0000"/>
			<stop  offset="0.8878" style="stop-color:#9A0201"/>
		</linearGradient>
		<path class="st14" d="M315.1,275.7c1-1.3-0.5-0.4-1.1-0.1c-0.6,0.2-1.1,0.6-1.6,0.9l2.5-0.3C315,276,315,275.9,315.1,275.7z"/>
		
			<linearGradient id="SVGID_10_" gradientUnits="userSpaceOnUse" x1="185.3964" y1="282.0548" x2="191.9076" y2="282.0548" gradientTransform="matrix(0.9909 -0.1345 -0.1345 -0.9909 30.0979 530.1739)">
			<stop  offset="9.183670e-02" style="stop-color:#CD0000"/>
			<stop  offset="0.8878" style="stop-color:#9A0201"/>
		</linearGradient>
		<path class="st15" d="M176.9,225.6c0.8,0.3,1.3,0.8,2.8,0.1c0-0.5-0.7-0.1-1.1-0.2c-0.5,0-0.9,0-0.7-0.4c0.1-0.2,0.7-0.3,1-0.3
			c1.3,0.3,2.2-0.4,3.3-0.5c-0.1,0-0.1,0-0.2,0l-6.3,0.8C176.1,225.3,176.4,225.5,176.9,225.6z"/>
		
			<linearGradient id="SVGID_11_" gradientUnits="userSpaceOnUse" x1="401.1174" y1="213.6706" x2="403.492" y2="213.6706" gradientTransform="matrix(0.9909 -0.1345 -0.1345 -0.9909 30.0979 530.1739)">
			<stop  offset="9.183670e-02" style="stop-color:#CD0000"/>
			<stop  offset="0.8878" style="stop-color:#9A0201"/>
		</linearGradient>
		<path class="st16" d="M401.1,264c0-0.4-0.7-0.1-1.1,0c-0.5,0-1.4,0.2-1.2,0.6c0.1,0.2,0.5,0.2,0.9,0.2l0.6-0.1
			C400.7,264.4,401.2,264.3,401.1,264z"/>
		
			<linearGradient id="SVGID_12_" gradientUnits="userSpaceOnUse" x1="146.1012" y1="279.7927" x2="157.5622" y2="279.7927" gradientTransform="matrix(0.9909 -0.1345 -0.1345 -0.9909 30.0979 530.1739)">
			<stop  offset="9.183670e-02" style="stop-color:#CD0000"/>
			<stop  offset="0.8878" style="stop-color:#9A0201"/>
		</linearGradient>
		<path class="st17" d="M148,232.6L148,232.6c-1.5-0.6-3-1.4-4.9-0.4c-0.1,0-0.5,0-0.7-0.1c-2-0.8-3.2,0-5.3,0.3
			c2.4,0.5,4.7,0.8,6.9,0.9c-0.1,0.1-0.2,0.1-0.4,0.2l5.1-0.7C148.5,232.7,148.2,232.7,148,232.6z"/>
		
			<linearGradient id="SVGID_13_" gradientUnits="userSpaceOnUse" x1="320.1143" y1="216.6128" x2="323.5281" y2="216.6128" gradientTransform="matrix(0.9909 -0.1345 -0.1345 -0.9909 30.0979 530.1739)">
			<stop  offset="9.183670e-02" style="stop-color:#CD0000"/>
			<stop  offset="0.8878" style="stop-color:#9A0201"/>
		</linearGradient>
		<path class="st18" d="M318.2,273.2c1.1-0.2,2.3-1,3.2-1.9l-1.4,0.2C319.4,272.1,318.8,272.7,318.2,273.2z"/>
		
			<linearGradient id="SVGID_14_" gradientUnits="userSpaceOnUse" x1="109.9672" y1="279.3922" x2="124.4957" y2="279.3922" gradientTransform="matrix(0.9909 -0.1345 -0.1345 -0.9909 30.0979 530.1739)">
			<stop  offset="9.183670e-02" style="stop-color:#CD0000"/>
			<stop  offset="0.8878" style="stop-color:#9A0201"/>
		</linearGradient>
		<path class="st19" d="M108.7,237.9c0.3-0.5,1.4-0.7,2-0.4c0.6,0.2,1.2,0.2,1.7,0.1l3.4-0.5c0.1-0.1-0.1-0.3-0.4-0.5
			c-0.4-0.4-1.4-0.2-2.1-0.1c-3.6,0.1-6.8,1.1-10.4,1.3c-0.9-0.1-1.5,0.3-1.6,0.6c0,0.6,1,0.2,1.5,0.3c1.1,0.2,2.2-0.5,3.4-0.2
			l1.9-0.3C108.4,238.1,108.6,238.1,108.7,237.9z"/>
		
			<linearGradient id="SVGID_15_" gradientUnits="userSpaceOnUse" x1="231.228" y1="282.6881" x2="232.2255" y2="282.6881" gradientTransform="matrix(0.9909 -0.1345 -0.1345 -0.9909 30.0979 530.1739)">
			<stop  offset="9.183670e-02" style="stop-color:#CD0000"/>
			<stop  offset="0.8878" style="stop-color:#9A0201"/>
		</linearGradient>
		<path class="st20" d="M222.2,218.8l-1,0.1C221.5,218.9,221.9,219,222.2,218.8C222.2,218.8,222.1,218.8,222.2,218.8z"/>
		
			<linearGradient id="SVGID_16_" gradientUnits="userSpaceOnUse" x1="199.2101" y1="280.7748" x2="221.9914" y2="280.7748" gradientTransform="matrix(0.9909 -0.1345 -0.1345 -0.9909 30.0979 530.1739)">
			<stop  offset="9.183670e-02" style="stop-color:#CD0000"/>
			<stop  offset="0.8878" style="stop-color:#9A0201"/>
		</linearGradient>
		<path class="st21" d="M209.1,224.5l3.5-0.5c-0.1-0.1-0.2-0.2-0.3-0.2c-0.5-0.5-1.2-0.5-2.2-0.2c-2.1,0.5-4,0.5-5.9-0.5
			c-1-0.6-2.9-0.7-4.2-1.3l-2.3,0.3c0,0.5,0.3,1-0.9,1.1c-2.2,0-4.4,1-6.6,0.5c-0.1-0.1-0.3-0.1-0.7,0c0.5,0.5-0.3,1.3,1,1.4
			c1.6,0,3.5-0.2,4.9-0.7c1.1-0.5,1.2-0.4,2,0.1c0.5,0.3,1.2,0.2,1.5,0c1.2-0.7,2.3-0.3,3.1,0.1c0.9,0.4,2,0.3,3.1,0.4l2.1-0.3
			C207.7,224.3,208.4,224.3,209.1,224.5z"/>
		
			<linearGradient id="SVGID_17_" gradientUnits="userSpaceOnUse" x1="309.1971" y1="215.3246" x2="311.5858" y2="215.3246" gradientTransform="matrix(0.9909 -0.1345 -0.1345 -0.9909 30.0979 530.1739)">
			<stop  offset="9.183670e-02" style="stop-color:#CD0000"/>
			<stop  offset="0.8878" style="stop-color:#9A0201"/>
		</linearGradient>
		<path class="st22" d="M307.5,275c0,0.3,0.4,0.5,1.2,0.5c0.5-0.1,1-0.3,1.2-0.6c0-0.4-0.8-0.3-1.3-0.2
			C308.1,274.7,307.3,274.7,307.5,275z"/>
		
			<linearGradient id="SVGID_18_" gradientUnits="userSpaceOnUse" x1="409.6922" y1="277.5347" x2="415.4774" y2="277.5347" gradientTransform="matrix(0.9909 -0.1345 -0.1345 -0.9909 30.0979 530.1739)">
			<stop  offset="9.183670e-02" style="stop-color:#CD0000"/>
			<stop  offset="0.8878" style="stop-color:#9A0201"/>
		</linearGradient>
		<path class="st23" d="M400.7,199.3c-0.7,0.2-1.7,0.2-2,0.7c0.4,0.1,0.7,0.3,1.1,0.5c1.3-0.2,2.6-0.3,3.8-1
			c0.2-0.2,0.6-0.3,0.9-0.3c-0.1-0.2-0.3-0.3-0.4-0.4C402.9,198.9,401.8,199,400.7,199.3z"/>
		
			<linearGradient id="SVGID_19_" gradientUnits="userSpaceOnUse" x1="377.0225" y1="279.8804" x2="388.4424" y2="279.8804" gradientTransform="matrix(0.9909 -0.1345 -0.1345 -0.9909 30.0979 530.1739)">
			<stop  offset="9.183670e-02" style="stop-color:#CD0000"/>
			<stop  offset="0.8878" style="stop-color:#9A0201"/>
		</linearGradient>
		<path class="st24" d="M376.7,201.5c-1.5-0.6-3-1.4-4.9-0.4c-0.1,0-0.5,0-0.6-0.1c-2.1-0.8-3.3,0-5.3,0.3c2.4,0.5,4.7,0.8,6.9,0.9
			c-0.1,0.1-0.2,0.1-0.4,0.1l5.1-0.7C377.2,201.6,377,201.6,376.7,201.5z"/>
		
			<linearGradient id="SVGID_20_" gradientUnits="userSpaceOnUse" x1="359.4861" y1="215.6875" x2="365.8271" y2="215.6875" gradientTransform="matrix(0.9909 -0.1345 -0.1345 -0.9909 30.0979 530.1739)">
			<stop  offset="9.183670e-02" style="stop-color:#CD0000"/>
			<stop  offset="0.8878" style="stop-color:#9A0201"/>
		</linearGradient>
		<path class="st25" d="M360.5,267.3c-0.4-0.5-1.6-0.6-2.3-0.6c-0.9-0.1-0.8,0.3-0.7,0.7c-0.7,0.6,0.2,1.1,1.4,1.3
			c1.3,0.1,2.7-0.1,4-0.1c0.4,0.1,0.8-0.1,0.8-0.2c0-0.3-0.7-0.4-1.1-0.4C361.2,268.2,360.9,267.8,360.5,267.3z"/>
		
			<linearGradient id="SVGID_21_" gradientUnits="userSpaceOnUse" x1="347.3343" y1="213.9925" x2="350.5303" y2="213.9925" gradientTransform="matrix(0.9909 -0.1345 -0.1345 -0.9909 30.0979 530.1739)">
			<stop  offset="9.183670e-02" style="stop-color:#CD0000"/>
			<stop  offset="0.8878" style="stop-color:#9A0201"/>
		</linearGradient>
		<path class="st26" d="M348.3,271.1c0.4-0.2,0.4-0.5,0.2-0.5c-0.9,0-1.9,0.5-2.9,0.9C346.4,271.9,347.3,271.6,348.3,271.1z"/>
		
			<linearGradient id="SVGID_22_" gradientUnits="userSpaceOnUse" x1="239.2675" y1="280.6865" x2="251.9261" y2="280.6865" gradientTransform="matrix(0.9909 -0.1345 -0.1345 -0.9909 30.0979 530.1739)">
			<stop  offset="9.183670e-02" style="stop-color:#CD0000"/>
			<stop  offset="0.8878" style="stop-color:#9A0201"/>
		</linearGradient>
		<path class="st27" d="M242.2,220.1c-1.6-0.4-3.2-0.8-4.9-1.2c-1.5-0.2-2.8-0.6-4.1-1.1c-0.4-0.1-0.7-0.2-1-0.3l-3.1,0.4
			c3.3,0.7,7.8,1.7,11.8,2.4L242.2,220.1z"/>
		
			<linearGradient id="SVGID_23_" gradientUnits="userSpaceOnUse" x1="277.5928" y1="280.7299" x2="289.8543" y2="280.7299" gradientTransform="matrix(0.9909 -0.1345 -0.1345 -0.9909 30.0979 530.1739)">
			<stop  offset="9.183670e-02" style="stop-color:#CD0000"/>
			<stop  offset="0.8878" style="stop-color:#9A0201"/>
		</linearGradient>
		<path class="st28" d="M267.6,216.6c2-0.8,7.1-3.2,11.6-5.5l-2.3,0.3c-0.3,0.2-0.5,0.3-0.8,0.5C273.2,213.4,270.4,215,267.6,216.6z
			"/>
		
			<linearGradient id="SVGID_24_" gradientUnits="userSpaceOnUse" x1="270.3032" y1="279.3692" x2="275.1159" y2="279.3692" gradientTransform="matrix(0.9909 -0.1345 -0.1345 -0.9909 30.0979 530.1739)">
			<stop  offset="9.183670e-02" style="stop-color:#CD0000"/>
			<stop  offset="0.8878" style="stop-color:#9A0201"/>
		</linearGradient>
		<path class="st29" d="M265.1,216.1c0-0.2-0.3-0.5-0.6-0.4c-0.7,0.1-1.3,0.3-2.2,0.8c-0.6,0.4-1.2,0.8-1.8,1.2l2.7-0.4
			c0.2-0.1,0.5-0.3,0.8-0.5C264.4,216.6,265.1,216.4,265.1,216.1z"/>
		
			<linearGradient id="SVGID_25_" gradientUnits="userSpaceOnUse" x1="340.8696" y1="279.2637" x2="355.4068" y2="279.2637" gradientTransform="matrix(0.9909 -0.1345 -0.1345 -0.9909 30.0979 530.1739)">
			<stop  offset="9.183670e-02" style="stop-color:#CD0000"/>
			<stop  offset="0.8878" style="stop-color:#9A0201"/>
		</linearGradient>
		<path class="st30" d="M337.5,206.9c0.3-0.5,1.5-0.7,2-0.4c0.6,0.2,1.2,0.2,1.8,0.1l3.4-0.5c0-0.1-0.2-0.4-0.4-0.5
			c-0.4-0.4-1.4-0.2-2.1-0.1c-3.5,0.1-6.8,1.1-10.3,1.3c-1,0-1.5,0.3-1.6,0.6c-0.1,0.6,1,0.2,1.5,0.3c1,0.1,2.2-0.5,3.4-0.2l1.9-0.2
			C337.2,207.1,337.4,207.1,337.5,206.9z"/>
		
			<linearGradient id="SVGID_26_" gradientUnits="userSpaceOnUse" x1="89.6487" y1="248.115" x2="421.6617" y2="248.115" gradientTransform="matrix(0.9909 -0.1345 -0.1345 -0.9909 30.0979 530.1739)">
			<stop  offset="9.183670e-02" style="stop-color:#CD0000"/>
			<stop  offset="0.8878" style="stop-color:#9A0201"/>
		</linearGradient>
		<path class="st31" d="M413.2,253.6c0.7,5-3.9,9.8-10.2,10.7l-2.7,0.4c-0.1,0.1-0.1,0.1-0.2,0.2c-0.2,0-0.2-0.1-0.4-0.1l-84.8,11.5
			c-0.3,0.8-0.4,1.8-2.2,2.4c-1,0.3-1.9,0.6-3.1,1.1c-0.1,0-0.2,0-0.4,0c-0.8,0.2-1.6,0.3-2.5,0.3c-1.1,0.2-1.6-0.1-1.5-0.6
			c0.1-0.6-0.8-0.5-2-0.3c0.3-0.5,0.4-0.9,0.1-1.3l-114.1,15.5c0,0.3-0.4,0.7-1.2,1c-1.3,0.5-2.6,0.7-3.9,1c-0.3,0.1-0.8,0.1-0.8,0
			c0-0.3,0.5-0.6,0.9-0.6c1.1-0.1,1.4-0.5,1.6-0.9l-79.5,10.8c-6.3,0.8-12.1-2.5-12.7-7.6l-6.9-50.5c-0.7-5,3.9-9.8,10.2-10.7
			l78.7-10.7c-0.8-0.4-1.5-0.9-2.9-0.9c-0.7,0-1.9,0.3-1.6-0.4c0.2-0.2,1.2-0.2,2-0.3c3.7-0.3,7.4-0.7,10.8-1.9
			c0.9,0.2-0.6,0.9,1,0.7c1-0.1,2.1-0.4,2.2,0.3c0.2,0.7-1.4,0.2-2,0.6c-0.8,0.3-2.1,1-2.8,0.6c-1.4-0.6-1.9,0.1-3,0.4
			c1,0.1,1.9,0,2.6,0.2l15.7-2.1c0-0.1,0-0.1,0-0.2c0.2-0.4,1-0.7,1.6-0.3c0.2,0.1,0.5,0.1,0.7,0.2l21.2-2.9c-0.6,0-1.3,0.1-2,0.2
			c-1.7,0.1-3.3-0.5-4.8-0.5c-1.7,0.1-3.1-0.2-4.7-0.3c-1,0-1.8-0.2-1.3-0.7c0.1-0.9,1.6-1.2,3.8-0.8c1.9,0.4,3.6,0.8,5.8,0.5
			c1-0.2,2.7,0.5,4,0.8c0.4,0.2,0.5,0.4,0.3,0.6l7-0.9c-0.8-0.2-1.8-0.4-2.4-0.6c2.7-0.6,3.2-0.7,5.5,0.1l44.8-6.1
			c1-0.5,2-1,2.9-1.7c2.8-2.1,2.9-2,6.1-2.1c-1.4,0.8-4,2.1-6.6,3.5l30.1-4.1c1-0.9,3.2-1.6,4.1-2.6c0.4-0.5,1.3-0.4,1.6-0.1
			c0.4,0.4-0.2,1.4,1.2,1.1c2.1-0.6,4.5-0.2,6.5-1.3c0.1-0.1,0.4-0.2,0.7-0.2c-0.3,0.5,0,0.9-0.3,1.3l70.5-9.6
			c4.2-0.6,7.9,0.8,10.3,3.2c2.1-0.3,4.2-0.5,6.3-0.9l-0.2-1.3c-0.2-1.1-0.6-2.1-1.1-3c-0.4,0.1-0.8,0.2-1.3,0.1c-0.4,0-0.9,0-1,0.2
			c-0.2,0.4,0.2,0.4,0.7,0.4c0.4,0.1,1.1-0.2,1,0.2c-1.5,0.8-2,0.2-2.8-0.1c-1.5-0.4-2.1-1.4-4-1.4c-0.7,0-1.9,0.3-1.7-0.4
			c0.2-0.2,1.2-0.3,2-0.4c1.7-0.2,3.4-0.3,5.1-0.6c-2-1.5-4.7-2.3-7.7-1.9l-2,0.3c-0.4,0.1-0.8,0.1-1.3,0.2
			c-0.5,0.2-0.9,0.2-1.2,0.1l-3.8,0.5c-0.7,0.2-1.7,0.4-2.4,0.8c-1,0.4-2.4,0.3-2.5-0.1l-80.9,11c0.2,0.2,0.5,0.5,0.6,0.6
			c0.4,0.5,0.5,0.7-0.2,0.7c-0.7-0.2-1.5-0.3-2.2-0.4c-0.2,0.2-0.6,0.3-1,0.5c-1.5,0.5-2.8,1.2-4.5,1.5c-1.5,0.4-2.8,1.4-4.5,1.7
			c-1,0.2-2.1,0.7-2.9,0.5c-0.3-0.2-0.3-0.4,0.1-0.7c1.2-0.7,2.6-1.7,3.6-1.8c2.1-0.2,3.6-1,5.1-1.8l-101.3,13.7
			c0.5,0.3,0.9,0.7,1.8,0.7c0.6,0,0.1,0.4-0.3,0.4c-0.9,0.2-1.9,0.4-2.9,0.3c-2.2,0-4.3-0.3-6.6,0c-2.8,0.3-5.7,0.5-8.5,0.7
			l-13.1,1.8c-0.4,0.1-0.9,0.1-1.3,0.3c-0.5,0.2-0.9,0.2-1.2,0.1l-3.8,0.5c-0.7,0.3-1.7,0.4-2.4,0.8c-1,0.4-2.4,0.3-2.5-0.1
			l-67.6,9.2c-3.5,0.5-6.2,2.5-7.6,5.1c0.9-0.5,1.9-1,2.4-1.6c0.4-0.5,1.3-0.4,1.6-0.1c0.4,0.4-0.1,1.4,1.2,1.1
			c2.2-0.6,4.5-0.2,6.5-1.3c0.1-0.2,0.3-0.2,0.7-0.2c-0.4,0.6,0.7,1.2-0.6,1.6c-1.5,0.4-3.4,0.7-4.9,0.7c-1.2-0.2-1.2-0.1-1.9,0.6
			c-0.4,0.5-1.1,0.6-1.5,0.4c-1.3-0.4-2.2,0.3-2.9,0.9c-0.4,0.3-0.9,0.5-1.4,0.7c0,0.5-0.2,0.9-0.1,1.4l0.2,1.4
			c0.9-0.2,1.8-0.4,2.7-0.7c-0.3,0.5-1.4,1-2.6,1.5l8.2,60.1c0.6,4.5,5.4,7.5,10.7,6.8l41.7-5.7c0.3-0.5,0.3-0.8-1.1-1.2
			c1,0,1.3-0.1,1.6-0.1c2.8-0.2,3.2-0.1,3.7,0.8l35.2-4.8c0.1,0,0.1-0.1,0.2-0.1c0.1,0,0.1,0,0.1,0l17.3-2.4c0,0-0.1-0.1,0-0.1
			s0.4,0,0.5,0l37.6-5.1c-0.8-0.4-1.6-0.8-1.4-1.2c0.3-0.4,1.6,0.1,2.8,0.5c0.4,0.1,0.7,0.2,1.1,0.3l91.2-12.4
			c-0.8-0.3-1.2-1-0.6-2.3c0.2-0.5,0.5-0.9,1-1c0.4-0.2,0.2,0.2,0.1,0.5c-0.9,1.4,0.6,1.2-0.4,2.8l11.3-1.5c1.5-0.3,2.8-0.7,4.3-1.1
			c-0.4,0.3-0.8,0.4-1.3,0.6l8.7-1.2c1.3-0.5,2.5-0.8,3.7-1.4c0.4-0.1,0.8-0.1,0.8,0.1c0,0.3-0.2,0.6-0.7,0.8l3.8-0.5
			c-1-0.1-1.3-0.6-1.8-0.9c-0.5-0.4-0.1-0.5,0.6-0.6c0.4,0,0.8-0.3,0.8-0.4c0-0.6,0.7-0.3,1.3-0.4c0.9-0.1,0.8,0.3,1,0.5
			c0.4,0.3,0.3,0.9,1.3,0.7c1.1-0.1,0.7-0.6,0.8-0.9c-0.4-0.5,0-1,0.7-1.1c1.1-0.3,2.3,0.2,3.2,0.4c1.2,0.2,0.2,0.5,0.1,0.9
			c-0.1,0.1-0.1,0.4,0.1,0.6c0,0,0,0,0,0.1l23.8-3.2c0,0-0.1,0-0.1-0.1c0.2-0.8,1.4-0.3,2.1-0.5c0.4-0.3,0.8-0.5,1.2-0.6
			c0.4-0.1,0.8-0.1,1,0c0.3,0.2,0,0.3-0.3,0.5c0,0,0,0-0.1,0.1l12.7-1.7c5.3-0.7,9.1-4.9,8.5-9.4l-7.4-54.7c-0.2,0-0.4,0-0.5-0.1
			c-0.2-0.2,0.1-0.3,0.4-0.4l-0.7-4.9c-0.8,0.1-1.6,0.1-2.4,0.5c-0.6,0.3-1.7,0.8-2.5,0.1c-0.2-0.2-0.6-0.3-1.1-0.2
			c1,1.1,1.7,2.4,1.9,3.9L413.2,253.6z M327.3,201.2c1.6-0.2,0-0.5,0.8-0.9c3.6,0.2,7.4-0.4,11-1.1c0.8-0.1,1.7-0.3,2-0.2
			c0.5,0.5-0.8,0.6-1.5,0.8c-1.8,0.6-2.1,1.7-3.5,2.5c-0.7,0.5-1,1.2-2.7,0.8c-0.2-0.4,0.6-0.3,1-0.5s0.9-0.3,0.5-0.6
			c-0.2-0.2-0.7-0.1-1,0c-1.2,0.6-2.2,0.2-3.3,0.3c0.6-0.5,1.5-0.5,2.6-0.9c-1.2,0-1.9-0.5-3,0.4c-0.6,0.5-2.1,0.3-2.9,0.2
			c-0.6-0.1-2.1,0.7-2.1,0C325.2,201.3,326.4,201.3,327.3,201.2z M98.5,232.3c1.6-0.2,0.1-0.5,0.8-0.9c3.6,0.2,7.3-0.4,11-1.1
			c0.8-0.1,1.7-0.3,2-0.2c0.5,0.6-0.8,0.6-1.5,0.8c-1.8,0.6-2.1,1.7-3.4,2.5c-0.7,0.4-1,1.1-2.7,0.8c-0.2-0.4,0.6-0.3,1-0.5
			s0.9-0.3,0.5-0.6c-0.2-0.2-0.7-0.1-1,0c-1.1,0.6-2.2,0.2-3.3,0.4c0.7-0.5,1.6-0.6,2.6-0.9c-1.2,0-1.8-0.5-3,0.4
			c-0.6,0.5-2,0.3-2.8,0.2c-0.7-0.1-2.1,0.7-2.1,0C96.4,232.4,97.6,232.4,98.5,232.3z M147.3,301.5c-0.8,0-1.2-0.1-1.2-0.5
			c-0.1-0.3,0.6-0.3,1.1-0.3c0.5-0.1,1.3-0.2,1.3,0.3C148.4,301.2,147.9,301.4,147.3,301.5z M186.9,297.1c-0.9,0.6-1.8,0.8-2.8,0.5
			c1-0.4,2-0.9,2.9-0.9C187.4,296.6,187.3,297,186.9,297.1z M201.6,294.7c-1.3,0-2.7,0.2-4,0.1c-1.2-0.2-2.1-0.7-1.4-1.3
			c-0.2-0.4-0.2-0.8,0.7-0.7c0.7,0,1.9,0.1,2.4,0.6c0.4,0.5,0.7,0.9,2.1,0.7c0.4,0,1,0.1,1.1,0.4
			C202.4,294.6,201.9,294.7,201.6,294.7z M238.7,290.8c-0.5,0.1-1.1,0-1.3-0.3c-0.2-0.4,0.7-0.5,1.2-0.6s1.2-0.3,1.2,0
			C239.8,290.3,239.4,290.6,238.7,290.8z M243.5,290.6c-1.7-0.6-3.9,0-5-2c1.3,0,2.8,0.7,4.3,1.1c0.6,0.1,1.1,0.4,1.1,0.7
			C244,290.7,243.8,290.8,243.5,290.6z M315.3,279.7c-0.2,0.3-0.1,0.5-0.2,0.7c-0.3,0.7-1.2,0.8-2.9,0.6c1.5-0.7,2.3-1.2,0.3-1.4
			c-0.2-0.1-0.6-0.2-0.4-0.4c0.2-0.2,0.6-0.3,0.9-0.3c0.4,0,0.9,0.1,1.3,0.3c0.8,0,1.8-0.8,2.2-0.1
			C317,279.4,315.6,279.4,315.3,279.7z M349.9,273.5c-0.4,0.5-0.4,1-1.6,1.5c-1.9,0.5-3.8,0.8-5.8,1.4c-1.3,0.3-2.4,0.4-2.1-0.5
			c0.1-0.2,0-0.6-0.1-0.6c-0.2-0.3-1.2-0.4-0.1-0.9c0.9-0.4,1.8-1.3,3-1.2c0.7-0.1,1.1,0.3,1,0.8c0.2,0.3-0.1,0.8,1,0.6
			c1.1-0.1,0.8-0.6,1.1-1c0.1-0.2-0.1-0.5,0.8-0.7c0.5-0.1,1.1-0.5,1.3,0c0,0.1,0.5,0.3,0.8,0.2
			C349.8,272.9,350.3,272.9,349.9,273.5z M360.7,271.1c-0.4,0-0.5-0.4-0.3-0.4c0.9-0.2,2,0,3.1,0.1
			C362.7,271.4,361.8,271.4,360.7,271.1z M406.3,266.8c-1.2,0-2.1,0.2-1.9,0.8c0.2,0.5-0.2,0.9-1.3,1c-1.1,0.4-2.4,0.6-3.3,0.3
			c-0.5-0.2-0.6-0.7,0.6-0.8c1-0.1,1.2-0.3,1.2-0.7c0.1-1.6,0.3-1.6,3.4-2.3c0.3,0,0.6-0.1,1.5-0.3
			C404.8,265.9,405.6,266.1,406.3,266.8z"/>
		
			<linearGradient id="SVGID_27_" gradientUnits="userSpaceOnUse" x1="308.5765" y1="212.4256" x2="313.8719" y2="212.4256" gradientTransform="matrix(0.9909 -0.1345 -0.1345 -0.9909 30.0979 530.1739)">
			<stop  offset="9.183670e-02" style="stop-color:#CD0000"/>
			<stop  offset="0.8878" style="stop-color:#9A0201"/>
		</linearGradient>
		<path class="st32" d="M307.9,278.4c0.2,0.4,0.4,0.5,1.3,0.4c0.1,0,0,0,0.1,0c1-0.7,2-1.5,3-2.2l-5.2,0.7
			C307.5,277.4,307.7,277.7,307.9,278.4z"/>
		
			<linearGradient id="SVGID_28_" gradientUnits="userSpaceOnUse" x1="98.6629" y1="247.872" x2="412.7292" y2="247.872" gradientTransform="matrix(0.9909 -0.1345 -0.1345 -0.9909 30.0979 530.1739)">
			<stop  offset="9.183670e-02" style="stop-color:#CD0000"/>
			<stop  offset="0.8878" style="stop-color:#9A0201"/>
		</linearGradient>
		<path class="st33" d="M377.5,201.7c0.6,0.2,1.1,0.4,1.7,0.4c-1.3,0.2-2.7,0.1-4,0.1c-1.1,0.5-2.1,1-3.2,1.4c0.8,0.1,1.9,0.3,2,0.5
			c0.1,0.5-1,0.3-1.9,0.2c-0.4,0-1-0.1-1.3-0.2c-1,0.4-2,0.6-3,0.8c1.4,0.1,2.8,0.2,4.2,0.2c0.6-0.3,1.3-0.5,1.3-0.1
			c0,0.1-0.1,0.1-0.1,0.2c0.5,0,0.9,0,1.4,0.1c0.4,0,0.6,0.2,0.7,0.5c0.4-0.2,0.9-0.3,1.3-0.4c-0.3,0.3-0.7,0.3-1,0.6l0,0
			c-1.8,1.2-4,1.7-5.9,2.7c-0.5,0.2-0.8,0.1-0.8-0.1c0-0.3,0.2-0.7,0.8-0.9c1.5-0.5,3-1,4.5-1.5c-0.6-0.1-1.3-0.1-2-0.2
			c-0.1,0.1-0.3,0.1-0.4,0.2c-0.8,0.3-1.9,0.8-1.9,0.2c0-0.2,0.4-0.4,0.8-0.6c-1-0.1-2.1-0.3-3-0.8c-1.1,0.3-2.3,0.7-3.4,0.8
			c2.5-0.6,3.6-3.6,6.9-2.9c0.1,0,0.5-0.1,0.6-0.3c0.2-0.2,0.5-0.2,0.7-0.3l-27.6,3.8c-0.1,0.2-0.6,0.1-1,0.2
			c-0.8,0.1-1.6,0.2-2.4,0.3l-4.3,0.6c-0.6,0.3-1.3,0.4-1.9,0.2l-41.2,5.6c-0.2,0.1-0.4,0.2-0.4,0.3c-0.7,1.4-1.6,1.6-3.1,1.4
			c-0.4-0.1-1.5,0.3-1.3-0.3c0.1-0.4,1-0.7,1.6-0.8c0.2-0.1,0.4-0.2,0.7-0.3l-23.8,3.2l-4.5,0.6c-2.1,1.3-4.2,2.6-6.2,3.9
			c0.7,0.2,1.4,0.4,2.1,0.6c0.5-0.2,0.9-0.4,1.3-0.7c0.2-0.3,0.5-0.2,0.5,0.1c0,0.3-0.4,0.6-0.8,0.9c0.1,0,0.2,0,0.2,0
			c1,0.5,2.7,1.1,2.5,1.6c-0.2,0.4-1.6-0.1-2.8-0.5c-0.4-0.1-0.7-0.2-1.1-0.3c-0.6,0.4-1.3,0.8-1.9,1.1c1.2,0.2,2.4,0.3,3.1,1.6
			c-1.3,0-2.8-0.7-4.3-1.1c-0.6-0.1-1.1-0.4-1.1-0.7c-0.1-0.2,0.1-0.4,0.4-0.2c0.5,0.2,0.9,0.2,1.4,0.3c0.3-0.6,0.7-1,1.2-1.4
			c-0.6-0.2-1.2-0.4-1.8-0.6c-0.1,0-0.1,0.1-0.2,0.1c-1,0.6-2.2,1.6-2.6,1.2c-0.3-0.4,0.6-1.1,1.4-1.7c-1.3-0.4-2.7-0.8-4-1.2
			c-0.5,0-1.2,0-1.3-0.4c-0.1-0.2,0.2-0.5,0.4-0.6c0.7-0.1,1.4-0.1,2.4,0.2c1.2,0.3,2.4,0.8,3.5,1.2c1.7-0.9,3.3-2.1,5-3.1
			l-18.2,2.5c1.5,0.3,3.1,0.7,4.5,1.1c-1.1-0.1-3.3-0.5-5.8-0.9l-28.4,3.9c0.4,0.3,0.8,0.6,0.3,0.8c-0.7,0.2-1.9,0.5-3-0.1
			c-0.2-0.1-0.5-0.1-0.7-0.2l-1.9,0.3c-0.1,0.1-0.2,0-0.3,0.1c-0.1,0.2-0.6,0.2-1,0.2c-0.3,0-0.5-0.1-0.8-0.1l-56.4,7.6
			c0.6,0.2,1.1,0.4,1.8,0.4c-1.3,0.2-2.7,0.1-4,0.1c-1.1,0.5-2.2,0.9-3.2,1.4c0.8,0.1,1.9,0.2,2,0.5c0.1,0.5-1,0.3-1.9,0.3
			c-0.5,0-0.9-0.1-1.4-0.3c-1,0.4-2,0.6-3,0.8c1.4,0.1,2.8,0.2,4.2,0.2c0.6-0.3,1.3-0.4,1.3-0.1c0,0.1-0.1,0.1-0.1,0.2
			c0.5,0,0.9,0,1.4,0.1c0.4,0,0.6,0.2,0.7,0.5c0.5-0.2,0.9-0.3,1.4-0.4c-0.3,0.3-0.7,0.4-1.1,0.6l0,0c-1.8,1.2-4,1.7-5.9,2.7
			c-0.5,0.2-0.8,0.1-0.8-0.1c-0.1-0.3,0.2-0.7,0.7-0.9c1.5-0.5,3-1,4.5-1.5c-0.7-0.1-1.4-0.2-2-0.2c-0.1,0-0.3,0.1-0.4,0.2
			c-0.8,0.3-1.9,0.8-1.9,0.3c0-0.2,0.4-0.4,0.8-0.6c-1.1-0.1-2.1-0.3-3-0.8c-1.1,0.3-2.2,0.7-3.4,0.9c2.5-0.6,3.6-3.6,6.9-2.9
			c0.1,0,0.5-0.2,0.6-0.3c0.2-0.2,0.5-0.2,0.7-0.3l-27.7,3.7c-0.1,0.2-0.6,0.2-1,0.2c-0.8,0.1-1.6,0.2-2.4,0.3l-4.3,0.6
			c-0.6,0.4-1.3,0.4-1.9,0.3l-8.8,1.2c-4,0.5-7,3.3-6.6,6.2l6.8,50.5c0.4,2.9,4,4.8,8,4.3l65.1-8.8c0.2-0.1,0.4-0.3,0.6-0.4
			c0,0.2-0.2,0.2-0.2,0.4l44.2-6c0-0.1-0.2-0.3,0-0.2c0.1,0,0.2,0.1,0.3,0.2l18-2.4c-1.6-0.2-1.9-1.2-2.7-1.9c-1.3-1,0.4-0.5,1-0.4
			c1.9,0,3.6,1.3,5.4,1.9l82.6-11.2c0.7-0.6,1.5-1.2,2-1.9c0.2-0.4,0.6-0.6,0.9-0.6c0.4,0,0.1,0.4-0.1,0.6c-0.2,0.6-0.8,1.2-1.4,1.8
			l25.7-3.5c0.1-0.2,0.2-0.3,0.3-0.5c0.3-0.6,1.5-1,2.1-1.2c0.8-0.3,0.9,0.1,0.9,0.5c0.4,0.2,0.3,0.4,0.2,0.6l51.8-7
			c4-0.5,6.9-3.3,6.5-6.3l-6.8-50.4c-0.2-1.3-1.1-2.4-2.4-3.2c-0.1,0-0.2,0-0.3,0c-0.4,0-0.9,0.2-1,0.1s0.1-0.4,0.2-0.6l0,0
			c-1.3-0.5-2.9-0.8-4.5-0.6L377.5,201.7z M93.5,248.9c-0.3,0-0.6,0.1-1.6,0.3c1.7-1,0.9-1.3,0.2-1.9c1.2,0,2.1-0.2,1.8-0.8
			c-0.2-0.5,0.2-0.9,1.3-1c1.2-0.4,2.5-0.7,3.3-0.3c0.5,0.1,0.6,0.7-0.6,0.7c-1,0.1-1.2,0.3-1.2,0.7
			C96.8,248.3,96.6,248.3,93.5,248.9z M98.5,250.2c-0.5,0.1-1.2,0.3-1.1-0.1c-0.1-0.3,0.3-0.6,1-0.8c0.5-0.1,1.1-0.1,1.3,0.3
			C99.8,250,99,250.1,98.5,250.2z M102.9,244.3c-0.4,0.3-0.8,0.5-1.2,0.6c-0.4,0.1-0.8,0.1-1,0c-0.4-0.2,0-0.4,0.2-0.5
			c1.9-0.7,1-1-0.6-1.2c1.6-0.6,2.5-0.8,2.9-0.2c0.2,0.2,0.2,0.4,0.4,0.6c0.3,0.2,1.7-0.2,1.4,0.3
			C104.9,244.5,103.7,244.1,102.9,244.3z M134.8,238.4c-2,0.1-3.9-0.1-5.7,0.2C129.8,237.6,132.5,237.4,134.8,238.4z M122.1,252.6
			c-0.5,0.3-1.2,0.2-1.8-0.1c-0.2-0.1-0.4-0.2-0.2-0.4c0.3-0.4,0.9-0.5,1.7-0.3c1.1,0,2.6-0.2,2.6,0.9
			C123.5,252.4,122.9,251.9,122.1,252.6z M132.9,241.4c0.3,0.5,0,0.9-0.7,1c-1.1,0.3-2.3-0.2-3.2-0.4c-1.2-0.2-0.2-0.5-0.1-0.9
			c0.1-0.1,0.1-0.4-0.1-0.6c-0.5-0.8,0.6-1,1.9-1c2,0.1,4-0.1,5.9-0.2c1.3,0.1,1.4,0.6,2,1c0.5,0.4,0.1,0.5-0.6,0.6
			c-0.3,0-0.8,0.4-0.7,0.5c0,0.6-0.8,0.3-1.3,0.4c-0.9,0-0.8-0.3-1-0.5c-0.4-0.3-0.3-0.9-1.3-0.7C132.6,240.6,133,241.1,132.9,241.4
			z M138,243.5c-0.9,0.2-2,0-3.1-0.1c0.8-0.6,1.8-0.6,2.8-0.3C138.1,243.1,138.3,243.4,138,243.5z M141,246.6
			c0.2,0.4,0.2,0.8-0.7,0.7c-0.7,0-1.9,0-2.4-0.6c-0.4-0.5-0.7-0.9-2.1-0.7c-0.4,0.1-1,0-1.1-0.4c0-0.1,0.5-0.3,0.8-0.2
			c1.3-0.1,2.7-0.2,4.1-0.1C140.8,245.5,141.7,246,141,246.6z M157.4,236.5c-1.9,0.2-3.6,0.8-5.6,1.3
			C153.8,236.3,156.4,235.7,157.4,236.5z M152.8,245.5c-1.4,0.2-1.6,0.7-1.8,1.2c-0.3,0.6-1.4,1-2.1,1.2c-0.8,0.3-0.9,0-0.8-0.5
			c-0.8-0.4-0.2-1.1,1-1.6s2.6-0.6,3.9-1c0.3-0.1,0.8-0.1,0.8,0C153.8,245.2,153.2,245.4,152.8,245.5z M150,243.6
			c-0.3,0-0.2-0.3,0.2-0.5c1-0.6,1.9-0.8,2.8-0.5C152,243,151,243.5,150,243.6z M158.4,239.8c-0.9,0.4-1.8,1.2-3,1.2
			c-0.7,0.1-1.1-0.3-0.9-0.9c-0.2-0.2,0.1-0.8-1-0.6c-1.1,0.2-0.8,0.7-1.1,1c-0.1,0.2,0.1,0.5-0.8,0.7c-0.5,0.1-1.1,0.5-1.3,0
			c0-0.1-0.5-0.3-0.9-0.2c-0.7,0.1-1.1,0.2-0.7-0.4c0.4-0.5,0.4-1,1.6-1.4c1.9-0.5,3.8-0.8,5.8-1.5c1.2-0.4,2.4-0.4,2.1,0.5
			c-0.1,0.3-0.1,0.6,0.1,0.7C158.5,239.3,159.5,239.3,158.4,239.8z M169.5,247.5c-0.5,0.4-1.2,0.7-1.8,0.5c-0.9-0.4-1.4,0.2-2.2,0.7
			c-0.2-1.1,1.3-1.3,2.3-1.6c0.7-0.3,1.3-0.4,1.7-0.1C169.9,247.2,169.7,247.4,169.5,247.5z M176.8,230.4c-0.4-0.4-1.6-0.2-2.1,0.2
			c-1.2,0.7-2.6,0.8-4.1,1c-0.4,0.1-0.9,0.3-1,0.1c-0.1-0.1,0.1-0.4,0.2-0.6c0.3-0.5,1.3-0.5,2-0.7c3.5-0.8,6.9-0.8,10.3-1.5
			c0.9-0.3,1.6-0.1,1.7,0.1c0.2,0.6-0.9,0.5-1.4,0.6c-1,0.5-2.2,0.1-3.3,0.7C178.6,230.7,177.6,231.1,176.8,230.4z M186,234.5
			c0.3,0.1,0.6,0.2,0.4,0.4c-0.2,0.2-0.6,0.2-1,0.3c-0.4,0-0.9,0-1.3-0.2c-0.8,0-1.9,0.7-2.2,0c-0.4-0.4,1-0.3,1.3-0.6
			c0.2-0.2,0.1-0.4,0.3-0.6c0.3-0.7,1.2-0.8,2.9-0.7C184.7,233.8,184,234.3,186,234.5z M189.9,239.5c-0.5,0.1-1.3,0.2-1.3-0.2
			c0.1-0.3,0.6-0.5,1.2-0.6c0.7,0,1.1,0.1,1.2,0.5C191.1,239.5,190.4,239.4,189.9,239.5z M194.4,237c-3.2,0.2-3.3,0.2-3.8-1.3
			c-0.1-0.4-0.4-0.5-1.3-0.4c-1.2,0.3-1.2-0.3-0.8-0.5c0.8-0.6,2.1-0.7,3.3-0.6c1.1-0.2,1.6,0.1,1.5,0.6c-0.1,0.7,0.8,0.6,2,0.3
			c-0.4,0.8-1.2,1.2,0.7,1.8C195,236.9,194.7,236.9,194.4,237z M201.5,227.7c3.2,0.2,6.4-0.9,9.6,0.5
			C208.1,228.9,202.5,228.7,201.5,227.7z M221.9,277.4c-0.2-0.1-0.6-0.5-0.2-0.5c0.2-0.1,0.7,0,1,0.3c1.3,1,3.1,1.7,4.6,2.5
			C225.5,279.9,222.8,278.7,221.9,277.4z M224.2,225.5c-1.4,0.6-2.3,0.6-3.3-0.5c-0.2-0.2-1.2-0.5-2.2-0.8c1.8-0.3,3.4,0.3,5,0.4
			c0.6,0,1.6,0,1.7,0.4C225.7,225.4,224.6,225.3,224.2,225.5z M235.6,232.5c-0.2,0.5-0.5,0.9-0.9,1s-0.2-0.2-0.1-0.5
			c0.9-1.4-0.7-1.1,0.3-2.8C235.8,230.5,236.3,231.1,235.6,232.5z M243.9,239.5c-0.2,0.4-0.6,0.6-0.9,0.6c-0.4,0-0.1-0.3,0.1-0.6
			c0.5-1.5,2.8-3.3,4.6-3.6C246.4,237.1,244.9,238.2,243.9,239.5z M251.9,233.5c-0.6,0.2-2.1,1.2-1.1-0.1c0.6-1,0.3-2.2,2.4-2.8
			c1-0.2,1.9-0.6,3.1-1.1c0.3,0.1,1-0.1,0.8,0.4C255.2,230.8,253.9,232.9,251.9,233.5z M266.4,233.3c-2,0-3.9-1.7-6-2.1
			c-0.4-0.5,0.4-0.5,0.6-0.6c1.3,0.1,2.3,0.3,3.3,0.2c2.2,0,2.3,1.3,3.1,2.1C268.8,233.8,267,233.3,266.4,233.3z M276.8,237.2
			c-0.2,0.1-0.7,0-1-0.3c-1.3-0.9-3.1-1.6-4.6-2.5c1.9-0.2,4.6,1,5.4,2.3C276.8,236.9,277.1,237.2,276.8,237.2z M283.1,228.6
			c-0.5,0-0.9-0.3-1.2-0.7c-1-1.2-0.7-1.9,0-2.4c1.5,1.3-0.2,1.5,1.1,2.6C283.2,228.4,283.5,228.7,283.1,228.6z M303.9,214
			c2.7-2.2,6.1-2,9.1-3.1C312.3,212.1,306.9,213.8,303.9,214z M321,216.3c1.2,0,2.1-0.2,1.9-0.8c-0.2-0.5,0.2-0.9,1.3-1
			c1.2-0.4,2.5-0.7,3.3-0.3c0.5,0.2,0.6,0.7-0.6,0.7c-1,0.1-1.2,0.2-1.2,0.7c-0.1,1.6-0.3,1.6-3.4,2.2c-0.2,0-0.6,0.1-1.6,0.3
			C322.4,217.2,321.6,216.9,321,216.3z M330.6,266.9c-0.7,0.4-1.3,0.4-1.7,0.1c-0.2-0.2-0.1-0.3,0.1-0.4c0.5-0.4,1.2-0.7,1.8-0.6
			c0.9,0.4,1.4-0.2,2.1-0.7C333.1,266.4,331.6,266.6,330.6,266.9z M327.3,219.1c-0.5,0.1-1.2,0.3-1.2,0c0-0.4,0.3-0.6,1-0.8
			c0.5-0.1,1.1-0.1,1.3,0.2C328.6,219,327.8,219.1,327.3,219.1z M331.7,213.2c-0.3,0.3-0.8,0.5-1.2,0.6c-0.4,0.1-0.8,0.1-1,0
			c-0.3-0.2,0-0.4,0.2-0.5c1.9-0.7,1-1-0.6-1.2c1.6-0.6,2.4-0.8,2.9-0.2c0.2,0.2,0.2,0.4,0.4,0.6c0.3,0.2,1.7-0.2,1.4,0.3
			C333.7,213.5,332.5,213,331.7,213.2z M386.1,205.5c-1.9,0.2-3.6,0.8-5.6,1.3C382.6,205.2,385.2,204.6,386.1,205.5z M363.6,207.4
			c-2,0-3.8-0.1-5.7,0.2C358.5,206.5,361.3,206.4,363.6,207.4z M350.9,221.5c-0.5,0.3-1.3,0.2-1.8,0c-0.2-0.1-0.4-0.2-0.2-0.4
			c0.4-0.4,0.9-0.5,1.7-0.3c1.1,0,2.6-0.2,2.7,0.9C352.3,221.3,351.7,220.8,350.9,221.5z M361.7,210.3c0.3,0.5,0,0.9-0.7,1.1
			c-1.1,0.3-2.3-0.2-3.2-0.4c-1.2-0.2-0.2-0.5-0.1-0.9c0.2-0.1,0.1-0.4-0.1-0.6c-0.4-0.8,0.7-1.1,2-1c2,0.1,4-0.1,5.9-0.1
			c1.3,0.1,1.4,0.5,2,0.9c0.5,0.4,0,0.5-0.6,0.6c-0.4,0.1-0.8,0.3-0.8,0.4c0,0.6-0.7,0.3-1.3,0.4c-0.9,0-0.8-0.4-1-0.5
			c-0.4-0.3-0.3-0.9-1.3-0.7C361.4,209.5,361.8,210,361.7,210.3z M366.8,212.4c-0.9,0.2-2,0-3.1-0.1c0.8-0.6,1.7-0.6,2.8-0.3
			C366.9,212,367.1,212.4,366.8,212.4z M364.6,215c-0.4,0.1-1,0-1.1-0.4c0-0.1,0.4-0.3,0.8-0.2c1.3,0,2.7-0.2,4.1-0.1
			c1.2,0.2,2.1,0.6,1.4,1.2c0.2,0.4,0.2,0.8-0.7,0.7c-0.7,0-1.9-0.1-2.3-0.6C366.3,215.3,366,214.8,364.6,215z M376.7,262.4
			c-1.1,0-2.6,0.2-2.7-0.9c0.9,0.3,1.5,0.8,2.3,0.1c0.5-0.3,1.2-0.1,1.8,0.1c0.2,0.1,0.4,0.2,0.2,0.4
			C378,262.5,377.5,262.5,376.7,262.4z M381.6,214.4c-1.4,0.2-1.6,0.7-1.8,1.2c-0.3,0.6-1.4,1-2.1,1.2c-0.8,0.3-0.9-0.1-0.8-0.5
			c-0.8-0.4-0.2-1.1,1-1.6s2.6-0.7,4-1c0.3-0.1,0.8-0.1,0.8,0C382.6,214.1,382,214.4,381.6,214.4z M378.8,212.5
			c-0.2,0-0.2-0.4,0.2-0.5c0.9-0.6,1.9-0.8,2.8-0.5C380.7,212,379.8,212.4,378.8,212.5z M387.2,208.7c-0.8,0.4-1.8,1.2-3,1.2
			c-0.7,0.1-1.1-0.3-1-0.9c-0.2-0.2,0.1-0.8-1-0.6c-1,0.1-0.8,0.6-1.1,1c-0.1,0.2,0.1,0.5-0.8,0.7c-0.5,0.1-1.1,0.5-1.3,0
			c0-0.1-0.5-0.3-0.9-0.2c-0.6,0.1-1.1,0.2-0.7-0.4c0.4-0.5,0.4-1,1.6-1.4c1.9-0.5,3.8-0.9,5.8-1.5c1.3-0.4,2.4-0.4,2.1,0.5
			c-0.1,0.2,0,0.6,0.1,0.6C387.3,208.2,388.3,208.3,387.2,208.7z M398.4,216c0.2,0.2,0.1,0.3-0.1,0.4c-0.5,0.4-1.2,0.7-1.7,0.5
			c-0.9-0.4-1.4,0.2-2.2,0.7c-0.3-1.1,1.2-1.3,2.3-1.6C397.4,215.8,398,215.7,398.4,216z"/>
		
			<linearGradient id="SVGID_29_" gradientUnits="userSpaceOnUse" x1="420.1052" y1="283.2179" x2="420.2287" y2="283.2179" gradientTransform="matrix(0.9909 -0.1345 -0.1345 -0.9909 30.0979 530.1739)">
			<stop  offset="9.183670e-02" style="stop-color:#CD0000"/>
			<stop  offset="0.8878" style="stop-color:#9A0201"/>
		</linearGradient>
		<path class="st34" d="M408.4,193h-0.1C408.3,193.1,408.3,193,408.4,193L408.4,193z"/>
	</g>
	<g>
		<path class="st35" d="M134.7,286.2c-0.4,0.1-0.7,0.1-0.9,0l-1.8-0.3c-0.2-0.1-0.4-0.1-0.5-0.1s-0.3,0-0.4-0.1l0.1,0.4l-0.3,0.2
			l-0.1-0.6c0,0-0.1-0.1-0.2-0.1c-0.1,0-0.2-0.1-0.3-0.1c0.3-0.2,0.4-0.5,0.4-0.8c0-0.1-0.1-0.3-0.1-0.4s-0.1-0.2-0.1-0.2
			c0-0.1-0.1-0.2-0.1-0.3c-0.1,0-0.2-0.1-0.3-0.2s-0.1-0.2-0.2-0.3c0-0.1,0-0.2,0.2-0.4c0.1,0,0.2-0.1,0.3-0.2s0.2-0.1,0.3-0.1
			c0.1-0.1,0.3-0.1,0.4-0.2c0.1-0.1,0.2-0.2,0.3-0.2c0.2-0.2,0.5-0.3,0.8-0.3c0.1,0,0.2,0,0.3-0.1c0.1,0,0.2-0.1,0.3-0.1
			c0-0.6-0.1-1.1-0.1-1.4c-0.1-0.3-0.2-0.7-0.4-1.1s-0.3-0.7-0.4-1c0-0.3-0.1-0.6,0-0.8l-0.1-0.4c-0.1-0.5-0.2-1-0.4-1.4
			s-0.3-0.8-0.4-1.3c0-0.2-0.1-0.6-0.2-1c0-0.2-0.1-0.5-0.2-0.7c-0.1-0.2-0.1-0.4-0.1-0.6s0-0.4-0.1-0.7c0-0.3-0.1-0.6-0.2-0.9
			c-0.1-0.3-0.1-0.5-0.2-0.7c-0.1-0.2-0.1-0.4,0-0.6c0-0.5,0-0.8,0-0.8c-0.1-0.7-0.1-1.3,0.1-1.9c0.1-0.2,0.1-0.4,0-0.8
			c0-0.3-0.2-0.5-0.6-0.6c-0.2,0-0.4-0.1-0.5-0.2c-0.1-0.3-0.1-0.5,0-0.6c0.1,0,0.1-0.2,0.1-0.4c0-0.2-0.1-0.5-0.2-0.8
			c-0.1-0.3-0.1-0.6-0.1-0.8v-0.1c0-0.1-0.1-0.3-0.2-0.5c-0.1-0.2-0.2-0.3-0.2-0.4c0-0.3,0-0.5,0-0.6c0.1-0.3,0.1-0.6,0.1-1
			s0-0.8,0-1c-0.2-0.2-0.3-0.3-0.3-0.5s0-0.3,0-0.5c0-0.1,0-0.3,0-0.4c0-0.3,0-0.7,0-1.3c-0.2,0-0.4,0-0.8,0c-0.4-0.1-0.7,0-1,0.1
			c-0.1,0-0.2,0-0.3,0c-0.3-0.1-0.5-0.1-0.8,0l-0.1,0.1c-0.1,0-0.1,0-0.1,0c-0.1,0-0.2-0.1-0.5-0.2s-0.5-0.3-0.6-0.6
			c-0.1-0.1-0.2-0.2-0.2-0.4c-0.1-0.2-0.1-0.3-0.1-0.4c0.2-0.1,0.3-0.3,0.4-0.6c0-0.3,0.1-0.5,0.1-0.7c0,0,0-0.1,0-0.2
			s0-0.2-0.1-0.2c-0.1-0.3,0-0.4,0.2-0.4s0.5-0.2,0.8-0.4c0.1-0.1,0.3-0.2,0.5-0.2c0.2-0.1,0.3-0.1,0.4-0.1h0.3
			c0.2-0.1,0.8-0.3,1.7-0.7c0.4-0.1,0.7-0.2,1-0.2s0.6,0,0.9-0.1c0.2-0.1,0.4-0.1,0.6-0.1c0.5-0.1,0.8-0.2,1.1-0.3
			c0.3,0,0.5,0,0.6,0h0.3c0.1,0,0.2-0.1,0.4-0.1c0.1,0,0.3,0,0.5,0s0.4,0,0.5,0.1l1.3,0.1c0.8,0.2,1.4,0.4,1.7,0.6
			c0,0.1,0,0.2-0.1,0.3c0,0.1,0,0.2-0.1,0.3c0,0.1,0,0.2,0,0.4c0,0.3,0.2,0.5,0.4,0.7c0.2,0.1,0.2,0.4,0.1,0.7L137,253
			c0,0.1-0.1,0.2-0.1,0.2l0.1-0.4c-0.1,0.3-0.2,0.6-0.5,0.8c-0.3,0.3-0.5,0.4-0.7,0.5c-0.1,0-0.3,0.1-0.5,0.1s-0.4,0.1-0.7,0.1h-0.2
			c-0.2,0-0.4,0.1-0.6,0.2c-0.2,0.1-0.3,0.2-0.4,0.3c0.1,0.3,0.1,0.7,0.1,1s0,0.7,0.1,1c0,0.2,0.1,0.5,0.2,0.7
			c0.1,0.3,0.1,0.5,0.2,0.7c0.1,0.9,0.2,1.6,0.2,2.1l0.1,0.4c0.2,0.4,0.3,0.9,0.4,1.4c0.1,0.4,0.1,1,0.2,1.9c0,0.1,0,0.3,0,0.5
			s0,0.4-0.1,0.5s-0.1,0.2-0.1,0.3c0.1,0.3,0.3,0.8,0.4,1.3l0.1,0.4c0,0,0,0.1,0,0.2s0,0.2,0.1,0.3c0.2,0.2,0.3,0.3,0.3,0.6
			c0,0.2,0,0.4,0,0.5c0.1,0.5,0.2,1,0.4,1.5l0.1,0.4c0,0.2,0,0.4-0.1,0.6c0,0.1,0,0.3,0,0.5s0.1,0.4,0.1,0.6
			c0.1,0.2,0.1,0.3,0.2,0.5c0.1,0.2,0.1,0.3,0.1,0.3c-0.1,0.1-0.1,0.3,0,0.5l0.2,0.7c0,0.2,0.1,0.4,0.3,0.7l0.1,0.8
			c0,0.3,0,0.5,0,0.6s0,0.3,0,0.6c0.1,0.3,0.2,0.7,0.4,1.2v0.2c0.2,0.1,0.3,0.3,0.3,0.5v0.6c-0.2,0.2-0.2,0.3-0.2,0.4
			s0.1,0.3,0.3,0.7c0,0,0.1,0,0.2,0c0.1,0,0.2,0,0.2-0.1c0.1-0.1,0.2-0.1,0.2-0.1c0.1,0,0.2,0,0.3,0s0.3,0,0.5,0s0.4,0,0.6-0.1
			c0.3-0.1,0.6-0.1,1-0.1s0.7,0,1,0c0,0,0.1,0,0.1,0.1s0.1,0.1,0.1,0.2c0.1,0.1,0.2,0.3,0.2,0.6c0,0.3,0.1,0.5,0.2,0.7
			c0.1,0.1,0.2,0.2,0.5,0.4c0,0.1,0,0.3-0.1,0.5s-0.1,0.4,0,0.5c0,0.1,0,0.3-0.1,0.5s0,0.4,0.1,0.6l-0.5-0.1c-0.1,0-0.2,0-0.3,0
			s-0.3,0.1-0.6,0.2c-0.2,0.3-0.6,0.5-1.1,0.6c-0.7,0.2-1.3,0.5-1.9,0.7c-0.1,0-0.3,0.1-0.5,0.1s-0.4,0.1-0.6,0.1l-1.1,0.2h-0.3
			C135.4,286.1,135,286.2,134.7,286.2z M137.5,284.1c0.1,0,0.3-0.2,0.5-0.4c0.1-0.2,0.2-0.3,0.2-0.4s-0.1-0.2-0.3-0.4
			c-0.2,0.2-0.4,0.4-0.6,0.6c-0.2,0.2-0.3,0.4-0.3,0.5C137.2,284.1,137.4,284.1,137.5,284.1z M139.5,283.5c0-0.2-0.1-0.4-0.3-0.3
			c-0.1,0-0.1,0-0.1,0.1l-0.1,0.1c0,0.1,0.1,0.1,0.2,0.2c0.1,0.1,0.1,0.1,0,0.3l0.3,0.4L139.5,283.5z"/>
		<path class="st35" d="M174.4,281c-0.1,0-0.3-0.1-0.5-0.2l-0.2-0.2c0.1-0.1,0.1-0.2,0.1-0.3c0-0.1-0.1-0.2-0.4-0.3
			c-0.3-0.1-0.5-0.3-0.6-0.7l-0.5,0.3c-0.4-0.1-0.9-0.4-1.5-0.9c0,0-0.1-0.1-0.1-0.3c-0.1-0.4-0.3-0.8-0.8-1.1
			c-0.1,0-0.1-0.1-0.2-0.1l-0.1-0.1c-0.1-0.1-0.1-0.3-0.1-0.6l-0.8-0.2c-0.3-0.1-0.7-0.3-1-0.6c-0.2-0.1-0.4-0.3-0.5-0.5
			c0-0.2-0.1-0.5-0.3-0.7v-0.1c0,0,0.1,0,0.2,0s0.2-0.1,0.3-0.2c0-0.1-0.1-0.2-0.2-0.3c-0.1-0.1-0.2-0.1-0.2-0.1h-0.1
			c-0.1,0-0.2,0-0.3-0.1s-0.1-0.2-0.2-0.2c-0.3,0-0.5,0-0.6-0.3l0.6-0.4c-0.1-0.1-0.2-0.2-0.4-0.5c-0.2-0.2-0.3-0.4-0.4-0.6
			c-0.1-0.2-0.2-0.4-0.5-0.6c-0.3-0.1-0.5-0.3-0.7-0.4l-0.2,0.3h-0.1c0.1-0.1,0.1-0.2,0.1-0.3c0-0.1,0.1-0.2,0.1-0.2
			c0-0.2-0.1-0.5-0.3-0.7s-0.3-0.3-0.5-0.4c-0.1,0-0.2,0.1-0.3,0.1c-0.1,0.1-0.1,0.1-0.2,0.2c-0.1,0-0.4-0.1-0.6-0.3
			c-0.2-0.2-0.3-0.3-0.3-0.4c0,0,0-0.2,0.1-0.5c0.1-0.2,0.1-0.3,0.1-0.3c0-0.1-0.1-0.1-0.2-0.3l-0.7,0.1c0-0.1,0.1-0.1,0.2-0.2
			c0.1-0.1,0.2-0.1,0.1-0.3c-0.6,0-1-0.2-1.3-0.9l-0.2-0.4c0-0.2,0-0.3,0.1-0.5c0.1,0,0.1-0.1,0.1-0.2s0-0.2-0.1-0.2
			c0-0.2-0.2-0.2-0.4-0.2l-0.2-0.2v-0.2c0-0.2-0.1-0.4-0.3-0.6s-0.3-0.4-0.4-0.5c0,0-0.1-0.1-0.2-0.3c-0.1-0.2-0.3-0.3-0.6-0.4
			c0,0.1,0,0.3-0.1,0.4H158c0,0-0.1-0.1-0.1-0.2s-0.1-0.2-0.2-0.3c0,0.1-0.1,0.1-0.1,0.2v0.1c0,0.1,0,0.3,0.1,0.6
			c0,0.3,0.1,0.5,0.1,0.7l0.1,0.4c0,0.3,0.1,0.5,0.1,0.7s0,0.4,0,0.5v0.5l0.1,0.5c0.1,0.2,0.2,0.4,0.2,0.6s0,0.3,0,0.4
			c0.1,0.9,0.3,2.1,0.5,3.8l0.2,1.2c0.1,0.7,0.3,1.6,0.5,2.7l0.8,5.4c0.1,0.5,0,1-0.2,1.4l-0.2,0.1c-0.2,0-0.3,0-0.4-0.2l-0.1-0.1
			c0-0.1,0-0.1-0.1-0.1l-0.2-0.1c-0.1,0.1-0.2,0.1-0.3,0.1s-0.3,0-0.6-0.1l-0.3-0.4c-0.1,0.3-0.2,0.4-0.3,0.4s-0.2,0-0.4-0.1
			c-0.1,0-0.2,0-0.4,0s-0.3,0-0.4-0.1c-0.2,0-0.4-0.1-0.6-0.2c-0.5-0.6-0.8-0.9-0.8-1c0,0-0.1-0.1-0.2-0.1c-0.1-0.1,0-0.2,0-0.3
			c0,0-0.1-0.1-0.2-0.2c-0.1-0.1-0.2-0.2-0.3-0.4c-0.1-0.2-0.2-0.3-0.3-0.4l0.1-0.1l0.4,0.4l-0.1-0.6c-0.1-0.5-0.2-0.9-0.3-1.1
			c-0.1-0.3-0.3-0.6-0.4-0.7c-0.2-0.1-0.3-0.4-0.5-0.9c0.3-0.2,0.5-0.4,0.4-0.7c0-0.5,0-1.1-0.1-1.7v-0.1c0,0,0-0.1,0-0.2l-0.3-0.6
			c0,0,0,0-0.1,0s-0.1,0-0.1,0c-0.1-0.4-0.2-0.8-0.4-1v-0.1c0-0.1,0-0.1,0-0.2c0.1-0.3,0.1-0.5,0-0.8c0-0.1,0-0.3,0-0.4v-0.1
			c0-0.1,0-0.1,0-0.1c-0.1-0.1-0.1-0.2-0.1-0.3c0,0,0-0.3,0.1-0.7c0-0.1,0-0.2,0-0.4l-0.2-1c0-0.1-0.1-0.1-0.2-0.2c0,0,0-0.1,0-0.2
			s0-0.1,0-0.2c0,0-0.1-0.1-0.2-0.1c-0.1,0-0.2-0.1-0.3-0.1c-0.1-0.4,0-0.7,0.1-1c0.2-0.3,0.2-0.6,0.2-1c0-0.3-0.2-0.6-0.4-0.9
			c0.2,0,0.4-0.1,0.3-0.3c-0.1-0.3-0.2-0.7-0.3-1.2v-0.4c0-0.2-0.1-0.3-0.2-0.4c0-0.1-0.1-0.2,0-0.3s0-0.2,0-0.2l-0.1-0.4
			c0,0,0-0.1,0-0.2s0-0.1,0-0.2c0,0,0-0.1,0-0.2c0,0-0.1-0.1-0.2-0.2c-0.1-0.1-0.1-0.2-0.1-0.2c0.1-0.3,0.2-0.5,0.2-0.6
			c-0.1-0.2-0.1-0.6-0.2-1.1c0-0.1-0.1-0.2-0.1-0.3c0-0.1,0-0.1,0-0.2v-0.4c0-0.2-0.1-0.3-0.4-0.3c0.2-0.4,0.3-0.9,0.2-1.3
			c0-0.3-0.1-0.6-0.3-1c-0.1-0.5-0.2-0.8-0.2-1c0-0.1-0.1-0.2-0.1-0.3c-0.1-0.1-0.1-0.1-0.1-0.3c0-0.1,0-0.2,0.1-0.2
			c0.2-0.1,0.3-0.2,0.3-0.3c0-0.1,0-0.2,0-0.3c0-0.1-0.1-0.2-0.1-0.3c0-0.1-0.1-0.3-0.2-0.5c-0.1-0.2-0.2-0.4-0.2-0.5
			c0.2-0.9,0.3-1.5,0.3-1.9c0.1-0.1,0.1-0.2,0.1-0.4v-0.2c-0.1-0.4,0.1-0.9,0.4-1.4c0.2,0,0.6,0,1.1,0.1l0.3-0.4
			c0.2-0.2,0.3-0.2,0.5,0c0.1,0.1,0.2,0.2,0.4,0.3c-0.1,0,0.2,0.1,1,0.1c0.1,0,0.2,0,0.3,0.1s0.3,0.1,0.6,0.2l0.1-0.1
			c0.4,0.9,0.8,1.5,1.1,2.1c0.1,0.3,0.4,0.6,0.8,1.1c0.2,0.3,0.5,0.6,0.7,0.8c0.2,0.2,0.3,0.3,0.4,0.4c0.3,0.2,0.5,0.4,0.6,0.8
			c0,0.1,0.1,0.2,0.2,0.2c0.1,0.1,0.1,0.1,0.2,0.2c0.1,0.2,0.2,0.4,0.3,0.6s0.3,0.5,0.5,0.8c0.1,0.2,0.3,0.5,0.6,0.8
			c0.1,0,0.1,0.1,0.2,0.1c0,0.1,0.1,0.1,0.1,0.1l0.7,0.9l1,1.3c0.3,0.4,0.5,0.8,0.8,1.3s0.4,0.8,0.5,1c0,0.1,0.1,0.2,0.2,0.3
			c0.1,0.1,0.2,0.2,0.3,0.3c0.3,0.3,0.6,0.6,0.9,1c0.3,0.4,0.5,0.7,0.7,0.9c0.8,1.1,1.3,1.9,1.7,2.3h0.1c0.9,1.2,1.5,2,1.9,2.5
			c0,0,0,0.1,0.1,0.1c0.3,0.1,0.5,0.3,0.7,0.5s0.2,0.4,0.2,0.4l0.3,0.3l0.8,0.8v-0.1l-0.2-0.9l-0.1-0.9v-0.3l-0.2-0.9
			c-0.2-1.7-0.3-2.9-0.4-3.8l-0.3-1.4l-0.6-5.1c-0.2-1.5-0.4-2.6-0.4-3.4l-0.1-0.9l-0.1-0.5c-0.1-0.6-0.1-1-0.1-1.3
			c0-0.4,0-1.1-0.1-2.1c0-0.2,0-0.6,0-0.9c0-0.4,0-0.7,0-0.9c0-0.1,0-0.3,0-0.4c0-0.2,0.1-0.3,0.1-0.4c0.1-0.2,0.2-0.2,0.4-0.1
			c0.1,0,0.3,0.1,0.4,0.2c0.1,0.1,0.2,0.1,0.4,0.2c0.1-0.1,0.4-0.2,0.9-0.3c0.4-0.1,0.7-0.3,0.9-0.5c0.3,0.1,0.6,0.3,0.9,0.6
			l0.3-0.8c0.4,0.4,0.6,0.9,0.7,1.5c0,0.3,0.2,0.6,0.4,1c0.1,0.3,0.2,0.7,0.3,1.2c0,0.4,0.1,1,0.2,1.7v0.3c0.2,0.2,0.3,0.5,0.4,0.9
			c0,0.1,0,0.3,0,0.6c0,0.2,0,0.5,0.1,0.6c0,0.2,0.1,0.3,0.1,0.4c0.2,0.6,0.4,1.4,0.6,2.6c0,0,0.1,0.1,0,0.1c0,0.1,0,0.1,0,0.1
			c0.1,0.1,0.1,0.2,0.2,0.4c0,0.2,0,0.4,0,0.5c0,0.2,0,0.3,0,0.5c0,0.4,0,0.7,0,0.9c0.1,0.4,0.2,0.7,0.5,0.9
			c-0.1,0.2-0.2,0.4-0.2,0.6s0.1,0.4,0.2,0.5c0.1,0,0.1,0.1,0.1,0.2c0,0.2,0.1,0.5,0.3,0.8s0.2,0.5,0.1,0.8c0,0,0,0.1,0,0.2
			s0,0.1,0,0.1c-0.2,0.3-0.4,0.5-0.5,0.5c0.1,0.2,0.1,0.4,0.1,0.6c0,0.3,0.1,0.5,0.2,0.6c0.1,0.2,0.3,0.3,0.6,0.4
			c-0.1,0.2-0.2,0.3-0.4,0.4c-0.2,0.2-0.3,0.4-0.3,0.5s0,0.2,0,0.4c0,0.2,0.1,0.4,0.2,0.5c0.2,0.3,0.3,0.6,0.4,0.9
			c-0.1,0-0.3,0.1-0.4,0.3c0,0,0,0.1,0,0.2v0.6c0,0.1,0,0.3,0,0.6c0,0.2,0,0.5,0,0.6c0.1,0.4,0.2,1.1,0.3,1.9c0.1,0.4,0.1,0.8,0.1,1
			v0.1l0.2,0.4c0-0.1,0-0.2,0.1-0.2c0.1-0.1,0.2-0.3,0.2-0.4s0-0.2,0-0.3c0-0.1,0-0.3,0-0.6c0.2,0.1,0.2,0.2,0.2,0.2l0.3,2.3
			c0.1,0.4,0,0.7-0.3,0.9c-0.2,0.1-0.3,0.2-0.3,0.4c0,0.2-0.1,0.3-0.1,0.3v0.2c0,0.1,0.1,0.3,0.1,0.4c0.1,0.1,0.1,0.3,0.1,0.5
			l0.3-0.3c0.2,0.1,0.3,0.4,0.4,0.6c0,0.1,0,0.4,0,0.7c0.1,0.5,0,0.8-0.3,0.9c0-0.1,0-0.2,0-0.4c0-0.2,0-0.4-0.1-0.5
			c0-0.1,0-0.2,0-0.4c0-0.2,0-0.3-0.1-0.5c-0.2,0.4-0.3,0.7-0.3,1c0,0.4-0.2,0.7-0.5,1l-0.7-0.5c0,0.3,0,0.5,0,0.5
			c-0.1,0.5-0.4,0.8-0.8,0.8c-0.1,0-0.1,0-0.2,0.1c-0.1,0.1-0.1,0.1-0.1,0.2c-0.2,0.3-0.5,0.6-0.8,0.9
			C174.7,280.9,174.6,281,174.4,281z M153.1,260.2c-0.1,0-0.2-0.1-0.2-0.2c0,0.1-0.1,0.2-0.2,0.2c0.1,0.1,0.2,0.2,0.3,0.2
			C153,260.3,153,260.2,153.1,260.2z M152.8,260.8L152.8,260.8h-0.1c0,0.1,0,0.1,0.1,0.1V260.8z M153.1,261.1L153.1,261.1
			c-0.1,0-0.1,0-0.2,0v0.1C153,261.2,153,261.1,153.1,261.1z M154.3,264.3h-0.1v0.1v0.1L154.3,264.3z M154.6,261L154.6,261
			L154.6,261L154.6,261L154.6,261L154.6,261z M156.3,262.9c0.1-0.1,0.1-0.2,0.2-0.3c-0.4,0-0.6-0.1-0.7-0.1c-0.1,0-0.1-0.1-0.1-0.3
			c0.2,0,0.3-0.1,0.4-0.2c-0.1-0.1-0.1-0.2-0.2-0.3c0-0.1,0-0.2-0.1-0.2c0-0.1,0-0.2-0.1-0.4s-0.2-0.3-0.3-0.3l-0.3,0.8
			c0.1,0,0.2,0.1,0.2,0.2c0,0.2,0,0.3,0,0.4c-0.1,0-0.1,0.1-0.2,0.1c-0.1,0-0.1,0-0.2,0l-0.3-0.1c-0.2,0.2-0.2,0.4,0,0.6
			c0.1,0.1,0.1,0.2,0.2,0.2c0,0,0.1,0,0.2-0.1c0.1-0.1,0.2-0.1,0.2-0.1c0.1,0.2,0.3,0.4,0.7,0.6C156.2,263.1,156.3,263,156.3,262.9z
			 M155,268.5L155,268.5h-0.2c0,0,0,0.1,0.1,0.1L155,268.5z M155.1,267.5h-0.2c0,0.1,0.1,0.2,0.1,0.3c0,0.1,0.1,0.1,0.2,0.2
			L155.1,267.5z M155.1,264.3H155l-0.1,0.1c0,0,0,0.1,0.1,0.1C155,264.5,155.1,264.4,155.1,264.3L155.1,264.3z M155.4,258.4
			c0-0.1-0.1-0.1-0.2-0.1v0.1l0.1,0.2L155.4,258.4z M155.4,259.6h-0.1H155.4c-0.1,0.1,0,0.1,0,0.2V259.6z M156.4,264.4
			c-0.1,0-0.1,0.1-0.2,0.2c-0.1,0.1-0.1,0.1-0.1,0.2c0,0,0.1,0.1,0.2,0.1c0.1,0.1,0.2,0.1,0.3,0.2L156.4,264.4z M158.1,255.8
			c0.1-0.1,0.2-0.2,0.3-0.1c0.2,0.1,0.4,0.1,0.5,0.1c-0.2-0.2-0.5-0.4-1-0.5s-0.9-0.2-1.2-0.1c0.2,0.2,0.4,0.4,0.6,0.6
			c0.2,0.2,0.4,0.3,0.7,0.3C158,256,158,255.9,158.1,255.8z M157.3,262.7c0-0.1-0.1-0.2-0.1-0.3v-0.1c0,0,0,0-0.1,0
			c0,0.2,0.1,0.3,0.1,0.4H157.3z M160,259c0.1-0.1,0.1-0.1,0.2-0.2c0-0.2,0-0.4,0-0.5h0.3c0.2,0,0.3-0.1,0.5-0.3
			c0-0.3-0.2-0.6-0.5-1c-0.3-0.3-0.6-0.6-0.7-0.7c0,0.1,0,0.2,0,0.4c0,0.2,0,0.3,0,0.3l0.2,0.4c0,0.1-0.1,0.3-0.4,0.5
			c0-0.2,0-0.4-0.1-0.7c-0.3-0.1-0.8-0.4-1.5-0.7l0.1,0.6c0.3,0,0.4-0.1,0.5-0.2c0.1,0.4,0.2,0.6,0.5,0.7c0.2,0.1,0.3,0.2,0.4,0.3
			c0.2,0.1,0.4,0.1,0.4,0.2s-0.2,0.3-0.3,0.4c-0.1,0.2-0.1,0.3-0.1,0.4s0.1,0.2,0.2,0.2C159.9,259.1,160,259,160,259z M159.4,256.2
			L159.4,256.2l-0.1-0.2c0,0.1,0,0.1-0.1,0.2c0,0,0,0.1,0.1,0.1C159.3,256.3,159.3,256.3,159.4,256.2
			C159.3,256.3,159.4,256.3,159.4,256.2z M161.1,260.4c-0.1-0.3-0.3-0.4-0.5-0.3c-0.1,0-0.2,0.1-0.3,0.2c0.1,0,0.1,0.1,0.1,0.1
			l0.1,0.1L161.1,260.4z M161.2,259.2c0-0.1-0.1-0.3-0.1-0.4c-0.1,0-0.2,0.1-0.4,0.2s-0.3,0.2-0.4,0.4L161.2,259.2z M162.1,264.2
			c0.3,0.1,0.6,0.2,1,0.1c0.2,0,0.3-0.1,0.4-0.2c0.3-0.4,0.4-0.9,0.2-1.4c-0.2,0-0.3,0-0.5,0s-0.3,0-0.5,0c0-0.2,0.1-0.3,0-0.4
			c0-0.2-0.3-0.3-0.7-0.1v-0.1h-0.2c-0.1-0.2-0.3-0.6-0.4-1.2c0.2-0.1,0.3-0.2,0.4-0.2c0.1,0,0.4,0,0.7,0.1c0.2,0.1,0.5,0.1,1,0.1
			c0-0.2-0.1-0.4-0.1-0.5l-0.3,0.1l-0.3,0.1c-0.2-0.1-0.2-0.2-0.1-0.4c0.1-0.2,0.1-0.4-0.1-0.5c-0.1,0-0.2,0.1-0.3,0.2
			c-0.1,0.3-0.3,0.5-0.7,0.4c-0.1,0-0.2,0-0.3-0.1c0,0.1-0.1,0.2-0.2,0.4c-0.1,0-0.1,0.1-0.2,0.1c-0.1,0-0.2,0-0.2,0.1s0,0.1,0,0.2
			s0,0.1,0,0.2c0.1-0.1,0.2-0.1,0.3-0.2c0.1,0,0.2,0,0.3,0.2c-0.1,0.1-0.3,0.2-0.4,0.2c-0.1,0.1-0.3,0.2-0.5,0.3
			c0,0.1,0,0.2,0.1,0.2c0.1,0.1,0.1,0.2,0,0.3l0.2,0.3c0.1,0.1,0.2,0.2,0.2,0.3c0.1,0.2,0.1,0.5,0.2,0.9c0.3,0,0.5,0.1,0.6,0.1
			c0,0.2,0.1,0.4,0.1,0.4s0.2,0.1,0.4,0.1L162.1,264.2z M162,260c0-0.1-0.1-0.2-0.1-0.2c-0.1-0.1-0.2-0.1-0.4,0
			c-0.1,0.2,0,0.3,0.2,0.4L162,260z M164.1,267.3c0.1,0.2,0.3,0.2,0.4,0H164.1z M165.4,268.5c0-0.1-0.1-0.1-0.2-0.2l0.1,0.6
			C165.3,268.7,165.4,268.6,165.4,268.5z M166.2,264.6c-0.2-0.1-0.3-0.1-0.4-0.1v0.2C165.9,264.6,166,264.6,166.2,264.6
			C166.1,264.6,166.1,264.6,166.2,264.6z M167.8,269.7c0-0.1,0-0.3,0.1-0.5s0-0.4-0.1-0.5c-0.3,0.2-0.5,0.3-0.5,0.4
			c0.1-0.2,0.1-0.4,0.1-0.5c-0.2-0.2-0.5-0.4-0.8-0.6v0.1l0.7,1.1l0.1-0.2c0.1,0.3,0.1,0.6,0.1,0.8L167.8,269.7z M167.1,269.7
			L167.1,269.7c-0.3,0-0.4,0.1-0.5,0.2C166.9,270,167,269.9,167.1,269.7z M167,266.2c0-0.1-0.1-0.2-0.2-0.4l-0.2,0.7
			c0.1,0.1,0.1,0.1,0.2,0.1C167,266.5,167,266.3,167,266.2z M169.3,270.2c0-0.1-0.1-0.3-0.2-0.4c-0.1-0.1-0.2-0.3-0.2-0.4
			c-0.1,0-0.2,0.1-0.4,0.3l0.4,0.4c0-0.1,0.1-0.1,0.1-0.1s0.1,0,0.1-0.1l0.3,0.5L169.3,270.2z M170.7,272.1
			c-0.4-0.3-0.6-0.5-0.7-0.6l0.7-0.7c0.1,0.2,0.2,0.2,0.3,0.1c0,0-0.1-0.1-0.2-0.1c-0.1,0-0.1,0-0.2,0l-0.2-0.1l-0.4,0.1
			c-0.1,0-0.2,0-0.3,0c-0.4,0.1-0.7,0.3-0.7,0.7v0.2c0,0.2,0.2,0.2,0.4,0.2c0,0,0.1,0,0.1,0.1c0.1,0,0.1,0.1,0.2,0.2l0.1,0.4
			L170.7,272.1z M170.1,272.7c0.2,0.1,0.4,0.1,0.7,0C170.5,272.5,170.3,272.5,170.1,272.7z M170.4,270.3v-0.1h-0.1c0,0,0,0-0.1,0
			l-0.1,0.1C170.2,270.3,170.3,270.3,170.4,270.3C170.3,270.3,170.3,270.3,170.4,270.3z M171,273.5l-0.1-0.1v0.2L171,273.5z
			 M171.9,258.1h0.1c0.1,0,0.1,0,0.1,0c0.1-0.1,0.1-0.2,0.2-0.3c0.1-0.1,0.2-0.2,0.3-0.2c0-0.2,0-0.3-0.1-0.3c0,0-0.1,0-0.3,0
			l-0.4,0.1c-0.3,0-0.4,0.1-0.4,0.3c0,0.3,0,0.4,0,0.5s0.1,0.2,0.2,0.2L171.9,258.1z M171.8,274.6c0.1-0.1,0.1-0.1,0.1-0.2
			c0-0.3,0-0.5-0.1-0.8c-0.1-0.2-0.1-0.4-0.1-0.6l-0.1,0.2c0,0.1,0,0.2,0,0.4c0,0.2-0.1,0.4-0.2,0.6c0,0.2,0.1,0.3,0.2,0.3
			C171.7,274.6,171.7,274.6,171.8,274.6z M172,259.5c0.2-0.2,0.3-0.4,0.2-0.6c-0.2,0.1-0.4,0.2-0.5,0.3v0.3L172,259.5z M171.8,256.2
			L171.8,256.2L171.8,256.2L171.8,256.2L171.8,256.2z M172.6,254.5c-0.1-0.1-0.2-0.2-0.2-0.2v0.1L172.6,254.5L172.6,254.5z
			 M172.8,255.4c0-0.1-0.1-0.2-0.3-0.4c-0.1,0.2-0.1,0.4-0.1,0.6s0,0.3,0,0.4C172.7,255.7,172.8,255.5,172.8,255.4z M172.6,252.4
			v0.1l0.3,0.1c0.2,0.1,0.2,0.1,0.3,0.1c0,0,0.1-0.1,0.2-0.2c-0.1,0.1-0.3,0.1-0.5,0.1C172.8,252.6,172.7,252.5,172.6,252.4z
			 M173.8,270.9c0.1-0.2,0.2-0.3,0.3-0.4c0-0.1,0.1-0.1,0.1-0.2c0.1-0.1,0.1-0.1,0.1-0.3c-0.1,0-0.2-0.1-0.3-0.1
			c-0.1-0.1-0.3-0.1-0.4-0.1l-0.3,0.4c0,0.1,0,0.2,0,0.3C173.4,270.6,173.6,270.8,173.8,270.9l0.1,0.1c0,0.1,0.1,0,0.1-0.1
			C174,271,173.9,270.9,173.8,270.9z M173.8,269.2L173.8,269.2h-0.1C173.7,269.2,173.7,269.2,173.8,269.2L173.8,269.2z M174.5,273.8
			l-0.2-1c-0.4,0.1-0.6,0.2-0.6,0.4c0.1,0.1,0.2,0.2,0.4,0.3c0.1,0.1,0.2,0.2,0.3,0.3L174.5,273.8z M174.5,252.8l-0.1-0.2h-0.1
			C174.4,252.7,174.4,252.8,174.5,252.8L174.5,252.8z M175.5,274.2c0-0.1-0.1-0.2-0.3-0.4c-0.1,0.1-0.1,0.2-0.1,0.3
			c0,0.1,0,0.2,0.1,0.2c0,0.1,0.1,0.1,0.1,0.2C175.4,274.5,175.5,274.3,175.5,274.2z M175.4,269.7L175.4,269.7h-0.2v0.1L175.4,269.7
			z M176.2,276.3l-0.1-0.4H176c0,0.1,0,0.1,0,0.2s0,0.1,0,0.2L176.2,276.3z M177.2,266.8L177.2,266.8
			C177.1,266.8,177.1,266.8,177.2,266.8c-0.1,0-0.1,0-0.2,0v0.2C177.1,267,177.1,266.9,177.2,266.8z"/>
		<path class="st35" d="M205.3,275.7L205.3,275.7c-0.3,0.3-0.7,0.5-1.1,0.6c-0.2,0-0.4,0-0.5,0c-0.2,0-0.3,0-0.4-0.1
			c-0.4-0.1-0.6-0.2-0.7-0.3c-0.1-0.2-0.2-0.3-0.4-0.5s-0.3-0.3-0.4-0.4c-0.4-0.3-0.6-0.7-0.8-1c-0.3-0.6-0.7-1-1.1-1.5
			c-0.2-0.2-0.5-0.6-0.6-1c-0.2-0.4-0.3-0.7-0.4-0.9c-0.1-0.3-0.4-0.7-0.7-1.3c-0.3-0.6-0.6-1.1-0.9-1.5c-0.1-0.1-0.1-0.2-0.1-0.3
			c-0.1-0.3-0.2-0.7-0.5-1.2c-0.2-0.5-0.4-0.8-0.5-1.1c-0.2-0.4-0.3-0.8-0.5-1.1c-0.2-0.3-0.3-0.6-0.4-0.9l-0.5-1.1
			c-0.4-0.7-0.6-1.3-0.8-1.7c-0.4-1.1-0.9-1.9-1.2-2.3c0-0.2-0.2-0.4-0.4-0.5s-0.4-0.2-0.4-0.3c-0.2-0.2-0.4-0.5-0.3-0.8
			c0-0.1,0-0.2,0-0.3c0-0.1,0-0.2-0.1-0.3v-0.4c0-0.2-0.1-0.4-0.2-0.6c-0.1-0.2-0.2-0.4-0.2-0.6c0-0.1-0.1-0.2-0.1-0.3
			c-0.2-0.2-0.4-0.4-0.5-0.8c-0.1-0.3-0.1-0.6-0.2-0.7c-0.1-0.3-0.2-0.7-0.4-1.3c-0.6-0.1-0.9-0.1-1-0.1l-0.9-1.4
			c-0.1-0.1-0.2-0.3-0.3-0.5l-0.1-0.2c0-0.2,0.1-0.3,0.5-0.2h0.1c0.1-0.1,0.1-0.2,0-0.4c0-0.2-0.1-0.4-0.2-0.7
			c0-0.1-0.1-0.3-0.1-0.4c-0.1-0.1-0.1-0.2-0.2-0.2c-0.3-0.1-0.5-0.2-0.5-0.4c0-0.1,0-0.3,0-0.5v-0.1c-0.1-0.1-0.3-0.3-0.4-0.7
			c-0.1-0.3-0.2-0.6-0.3-0.7c-0.1-0.2-0.2-0.3-0.2-0.5c0-0.1,0-0.3,0-0.5l0.2-0.5c0-0.1,0-0.2,0-0.3c0-0.1-0.1-0.2-0.1-0.3l0.8-0.3
			c0.2,0.1,0.4,0.2,0.5,0.1c0.1,0,0.2-0.1,0.2-0.3c0.1-0.2,0.2-0.3,0.2-0.4l1.5,0.1c0-0.3,0.1-0.5,0.1-0.7c0.1,0.1,0.3,0.2,0.5,0.3
			c0.3,0.1,0.5,0.3,0.6,0.5c0.1,0.1,0.2,0.2,0.2,0.2c0.3,0,0.6,0.2,0.7,0.7c0.1,0.3,0.3,0.5,0.5,0.8s0.3,0.5,0.4,0.5
			c0.1,0.2,0.2,0.4,0.4,0.7c0.2,0.3,0.4,0.5,0.6,0.7c0.1,0,0.1,0.1,0.1,0.3c0.1,0.2,0.2,0.5,0.4,0.9s0.3,0.7,0.5,0.9
			c0.1,0.2,0.3,0.7,0.7,1.3c0.3,0.7,0.6,1.3,0.7,1.9c0.1,0.3,0.2,0.6,0.4,1s0.4,0.7,0.5,0.9l0.7,1.7c0.1,0.1,0.2,0.4,0.4,0.8
			s0.4,0.7,0.7,1.1c0.1,0.2,0.3,0.4,0.4,0.7c0.1,0.3,0.2,0.5,0.3,0.7c0.2,0.7,0.4,1.2,0.5,1.5c0,0.1,0.1,0.2,0.1,0.5
			c0.1,0.3,0.2,0.5,0.4,0.6c0,0,0.1,0.1,0,0.1c0,0.1,0,0.1,0,0.1l0.1,0.8l0.3-0.2l0.1,0.1c0,0,0.1,0.1,0.1,0.2s0,0.2,0,0.4
			c0,0.2-0.1,0.3-0.1,0.4v0.3c0,0.3,0.1,0.6,0.3,0.9c0.1,0.1,0.2,0.3,0.3,0.6l0.4,0.7c0.1,0.1,0.2,0.2,0.2,0.4
			c0.1,0.2,0.2,0.3,0.4,0.5l0.7,0.9c0.2-0.3,0.3-0.6,0.3-0.9s0-0.5,0.1-0.7v-0.4l0.4-1.8l0.1-1.3c0-0.2,0.1-0.5,0.1-1v-0.1v-0.1
			c0.1-0.2,0.2-0.6,0.2-1s0-0.7,0.1-0.9l0.1-0.2c0-0.6,0.1-1.3,0.3-2c0-0.2,0.1-0.5,0.1-0.8s0.1-0.6,0.1-0.9c0-0.4,0.1-0.8,0.2-1.1
			c0.1-0.3,0.1-0.6,0.2-0.9c0.2-1.5,0.3-2.5,0.4-2.9c0.1-0.5,0.2-0.9,0.2-1v-0.1c0-0.5,0.1-1,0.3-1.5c0-0.1,0.1-0.4,0.1-0.8
			c0.1-0.4,0.1-0.8,0.1-1.1l0.1-0.6c0-0.1,0.1-0.2,0.1-0.4c0-0.2,0-0.3-0.1-0.5c0-0.1,0-0.2,0-0.2c0.2-0.2,0.3-0.6,0.4-1
			c0.1-0.4,0.1-0.7,0.2-1l0.7-2.2c0.2,0,0.4,0.1,0.4,0.2c0.1,0.1,0.1,0.3,0.2,0.3l0.6,0.5c0.3,0.4,0.7,0.5,1.1,0.3l0.7-0.1
			c0.1,0.1,0.2,0.3,0.3,0.4s0.2,0.3,0.4,0.5c0.3-0.2,0.4-0.3,0.6-0.5c0.2,0.2,0.3,0.5,0.4,0.7c0,0.1,0,0.3,0,0.6l-0.1,1.2l-0.3,1.7
			c-0.1,0.1-0.1,0.1-0.1,0.2v0.2c0,0.2,0,0.6-0.2,1.1c0,0.1,0,0.3-0.1,0.5c0,0.2-0.1,0.4-0.1,0.6c-0.1,1-0.2,1.7-0.4,2.2
			c-0.1,0.1-0.1,0.2-0.1,0.3c0,0.1,0,0.2-0.1,0.3v0.1v0.1v0.2c0,0.2,0,0.4,0,0.7c0,0.3-0.1,0.5-0.1,0.6c-0.1,0.4-0.2,1.1-0.4,2
			c0,0.1,0,0.1,0,0.2c-0.3,0.2-0.4,0.5-0.3,0.9l0.1,0.6v0.2c0.1,0.4-0.1,0.9-0.4,1.4c0,0-0.1,0.1-0.1,0.3c-0.1,0.1-0.1,0.2,0,0.3
			c0.1,0.2,0.2,0.3,0.2,0.4s0,0.3,0,0.6v0.2c0,0.2,0.2,0.4,0.4,0.4l-0.1,1l-0.7,0.1l0.2,0.3l0.2,0.1c-0.4,0.1-0.7,0.2-0.8,0.4
			c-0.1,0.2-0.2,0.4-0.1,0.8c0,0.3,0,0.6,0,1c-0.1,0.4-0.1,0.6-0.2,0.8c0,0.1,0,0.4-0.1,0.7c-0.1,0.3-0.1,0.6,0,0.8
			c-0.1,0.2-0.2,0.5-0.2,0.9s0,0.7-0.1,0.8c-0.1,0.2-0.1,0.3-0.1,0.5s0.1,0.4,0.3,0.5c-0.3,0.3-0.5,0.7-0.4,1.1c0,0.1,0,0.2-0.1,0.3
			c-0.2,0.2-0.2,0.3-0.3,0.5c0,0.2,0,0.3,0,0.5s0,0.3,0,0.4c0,0,0,0.1,0,0.3c0,0.2-0.1,0.3-0.1,0.4v0.1v0.1c0,0.2-0.1,0.6-0.2,0.9
			c-0.1,0.4-0.2,0.7-0.3,0.9l-0.1,0.7v0.9l-1-0.2c-0.1,0.1-0.3,0.3-0.6,0.4s-0.4,0.3-0.5,0.6L205.3,275.7z M188.4,249.5
			c0,0.2,0.1,0.3,0.1,0.4c0,0,0.1,0.1,0.3,0.1L188.4,249.5z M189,250.6l-0.1-0.1c-0.1,0-0.1,0.1-0.1,0.1l0.1,0.1
			C188.9,250.7,188.9,250.7,189,250.6z M191.4,252.2c0,0-0.1-0.1-0.2-0.3v0.5C191.3,252.3,191.4,252.2,191.4,252.2z M193,248.1
			c-0.1-0.1-0.1-0.1-0.2-0.1c0,0-0.1,0-0.1,0.1h0.1H193L193,248.1z M208.9,240.6c0.1-0.1,0.1-0.2,0-0.2c0-0.2-0.1-0.3-0.2-0.4
			c-0.1,0.1-0.1,0.2-0.1,0.3l0.2,0.4C208.8,240.8,208.8,240.7,208.9,240.6z"/>
		<path class="st35" d="M232.9,271.8c-0.2,0-0.5,0-0.7-0.2c-0.2-0.1-0.4-0.2-0.5-0.2s-0.2-0.1-0.3-0.1c-0.1-0.1-0.2-0.1-0.3-0.1
			c-0.2,0-0.3-0.1-0.4-0.1c-0.1-0.1-0.1-0.2-0.1-0.4l-0.2-1.1c0-0.2-0.1-0.4-0.1-0.6c-0.1-0.2-0.1-0.5-0.3-0.8l-0.1-0.3l-0.4-1.2
			l-0.2-0.8c-0.1-0.2-0.2-0.6-0.3-1.1c-0.1-0.4-0.2-0.7-0.4-1c-0.2-0.4-0.3-0.8-0.3-1.2v-0.2c0-0.2-0.1-0.4-0.1-0.6
			c-0.1-0.2-0.1-0.4-0.1-0.6l-0.2-1.2v-0.1v-0.1c0-0.1,0-0.2,0-0.4c0-0.1-0.1-0.3-0.1-0.5c-0.1-0.2-0.1-0.3-0.2-0.4
			c-0.1-0.1-0.1-0.3-0.2-0.6c-0.1-0.3-0.1-0.5-0.1-0.7c0-0.1,0-0.1,0-0.2s-0.1-0.1-0.2-0.2c0-0.1-0.1-0.2-0.2-0.4
			c-0.1-0.1-0.1-0.3-0.1-0.5s0-0.4,0-0.5v-0.5c-0.1-0.4-0.2-0.7-0.3-0.9c-0.1-0.3-0.2-0.4-0.2-0.6s0-0.4,0.1-0.6c0-0.1,0-0.2,0-0.3
			c0-0.1,0-0.1,0-0.2c-0.1-0.3-0.1-0.5-0.2-0.8c-0.1-0.3-0.1-0.5-0.2-0.8l-0.2-0.4c0-0.2,0-0.3,0.1-0.5s0.2-0.5,0-0.8
			c-0.1-0.6-0.1-1.1-0.2-1.4l-0.2-2c0-0.3-0.2-0.8-0.4-1.5c0-0.3,0-0.5,0-0.6s0-0.2,0-0.3c0-0.1-0.1-0.3-0.2-0.3v-0.2
			c0-0.1,0.1-0.5,0.1-1l0.1-1.5c-0.1-0.4,0-0.8,0.3-1.4c0.1-0.1,0.2-0.3,0.3-0.4c0.2-0.2,0.3-0.4,0.4-0.6c0.2-0.5,0.6-0.8,1.1-0.8
			c0.1,0,0.1,0,0.2-0.1c0.1-0.1,0.1-0.1,0.2-0.2c0.1-0.1,0.2-0.2,0.4-0.3c0.2-0.1,0.5-0.2,1-0.3c0.5-0.2,1-0.2,1.4-0.2l1.8-0.3
			c0.3-0.1,0.6-0.2,1.1-0.3c0.5-0.1,0.8-0.1,1.1-0.1c0.1,0,0.2,0,0.2,0c0.1,0,0.1,0,0.2-0.1c0.4-0.1,0.7-0.2,0.9-0.2
			c0.3,0,0.6,0,0.9,0.1c0.1,0.1,0.2,0.1,0.4,0l0.2-0.1c0.1,0,0.3,0,0.5,0.1s0.4,0.1,0.5,0.1c0.2,0.1,0.6,0.2,1,0.4
			c0.2,0,0.4,0.1,0.5,0.2s0.2,0.3,0.2,0.6v0.3c0,0.2,0.2,0.4,0.5,0.4c0,0.3,0.1,0.5,0.1,0.8s-0.1,0.5-0.2,0.8
			c-0.1,0-0.2,0.1-0.4,0.2s-0.3,0.1-0.4,0.2c-0.1,0.1-0.1,0.2-0.1,0.4l-1.3,0.1c-0.3,0-0.5,0.1-0.6,0.1c-0.3,0.1-0.6,0.2-0.8,0.3
			c-0.2,0.1-0.4,0.1-0.6,0.1c-0.2,0-0.5,0.1-0.7,0.3c-1,0.2-1.8,0.2-2.4,0.1c-0.2,0-0.6,0-1.2,0.1c-0.4,0.1-0.6,0.1-0.8,0.2
			c-0.2,0-0.3,0.1-0.4,0.2c0,0.1,0,0.2,0,0.4c0.2,1.2,0.5,2.2,0.6,2.8c0.2,1.2,0.5,2.1,0.6,2.7c0,0.2,0,0.4,0,0.5s0,0.2,0,0.3
			c0.1,0.2,0.2,0.4,0.2,0.8l0.1,1.1c0,0.2,0.1,0.4,0.1,0.6c0,0.1,0,0.3,0,0.4s0,0.3,0,0.4l0.1,0.4c0.1,0.3,0.2,0.4,0.5,0.2
			c0.2,0,0.3-0.1,0.4-0.1c0.5-0.1,0.8-0.2,1-0.2h0.2c0,0,0.4-0.1,1-0.3l0.5-0.1c0.2,0,0.5-0.1,0.9-0.1c0.3,0,0.6-0.1,0.8-0.1
			c0.3-0.1,0.8-0.1,1.5,0c0.5,0.1,0.9,0.1,1.1,0.1c0.2,0,0.5,0.1,0.7,0.3c0.2,0.1,0.3,0.3,0.3,0.6c0,0.1,0,0.4,0,0.7
			c0.1,0.4,0.2,0.8,0.4,1.1c0.1,0,0.1,0.1,0.2,0.1l0.2,1.3c-0.1,0-0.1,0-0.2,0c-0.1,0-0.1,0-0.2,0c-0.2,0-0.4-0.1-0.5,0
			c-0.1,0-0.3,0.1-0.4,0.2c-0.1,0.1-0.2,0.2-0.3,0.2c-0.3,0.1-0.7,0.2-1.2,0.2c-0.8,0.3-1.8,0.5-2.8,0.6l-1.4,0.3
			c-0.3,0.1-0.8,0.2-1.4,0.3c-0.1,0.2-0.1,0.4,0,0.7c0.2,0.7,0.3,1.2,0.3,1.5c0.1,0.3,0.1,0.6,0.1,0.7s0,0.1,0.1,0.2
			c0,0,0.1,0.1,0.1,0.2c0,0,0.1,0.1,0.1,0.2c0.1,0.4,0.1,0.8,0,1.3c0,0.2,0.1,0.3,0.1,0.5s0.1,0.3,0.2,0.4c0,0.2,0.1,0.5,0.2,0.7
			c0.1,0.3,0.1,0.5,0.1,0.7c0,0,0,0.1,0,0.2s0,0.1,0.1,0.2c0.2,0.4,0.3,0.9,0.3,1.6c-0.1,0.1-0.1,0.2,0,0.5c0,0.2,0.1,0.3,0.1,0.4
			c0.1,0.1,0.2,0.1,0.3,0.1l1.6-0.3c0.1,0,0.2,0,0.2-0.1c0.3-0.3,0.9-0.4,1.6-0.5c0.3-0.1,0.7-0.2,1.1-0.3c0.4-0.1,0.8-0.3,1.3-0.4
			c1-0.4,1.6-0.6,2-0.7h0.3c0.3,0,0.5-0.1,0.7,0c0.1,0,0.2,0,0.3,0s0.1,0,0.2,0c0.2,0,0.4,0,0.5,0c0.1,0.1,0.2,0.2,0.2,0.4
			c0,0.1,0.1,0.1,0.2,0.1c0.2,0,0.4,0,0.4,0.2s0.2,0.3,0.2,0.3l-0.5,0.1c0.1,0.1,0.3,0.3,0.6,0.5l0.1,0.5v0.2l-0.7,0.9h-0.1
			c0,0.2-0.1,0.4-0.3,0.6c-0.2,0.1-0.4,0.3-0.7,0.5s-0.5,0.3-0.6,0.5v0.1c0,0,0,0-0.1,0l-2.3,0.6c-0.1,0-0.2,0.1-0.5,0.1l-1.7,0.5
			l-3.4,0.7c-0.5,0.2-1.4,0.4-2.6,0.6L232.9,271.8z M228.3,245.9L228.3,245.9C228.3,245.8,228.3,245.8,228.3,245.9
			c-0.1-0.1-0.1-0.1-0.2,0v0.1L228.3,245.9z M230.7,239.8c0.2,0.1,0.3,0,0.4-0.2c0-0.2,0-0.3-0.1-0.4c0-0.2-0.1-0.4-0.2-0.5
			c0.3-0.1,0.7-0.1,1.1,0c0.4,0.1,0.7,0.2,0.9,0.2c0,0.2,0.1,0.4,0.2,0.5l0.5-0.9c0.2,0,0.4,0,0.6-0.1c0.2,0,0.4-0.1,0.5-0.1
			c0.2,0,0.3,0,0.4,0c0,0,0.1,0,0.1-0.1c0.1-0.1,0.1-0.1,0.2-0.1c0.1,0.2,0.2,0.2,0.4,0c0-0.1,0.1-0.2,0.2-0.2
			c0.1,0.2,0.3,0.2,0.4,0.1v-0.2c-0.2-0.2-0.3-0.1-0.4,0c0,0-0.1,0-0.2,0c0,0-0.1,0.1-0.3,0.2c-0.1-0.1-0.4-0.2-0.7-0.4l0.1-0.1
			c0,0,0.1-0.1,0.2-0.1c-0.2-0.1-0.3-0.2-0.4-0.2c-0.1,0-0.1,0.1-0.2,0.1c-0.1,0.1-0.2,0.1-0.3,0.1c0-0.1-0.1-0.1-0.1-0.2
			s-0.1-0.1-0.1-0.2c-0.1,0.1-0.2,0.2-0.2,0.3c-0.1,0-0.1-0.1-0.2-0.1c-0.1-0.1-0.1-0.1-0.2-0.1c-0.1,0-0.4-0.1-0.7-0.2
			s-0.5-0.2-0.8-0.2c-0.2,0-0.4-0.1-0.6-0.2c-0.1-0.2-0.2-0.3-0.3-0.3s-0.1,0.1-0.2,0.2c-0.1,0.1-0.1,0.1-0.2,0.2l0.9,0.5v0.2
			c-0.3-0.1-0.5,0-0.5,0.3c-0.2-0.1-0.5-0.1-0.9,0c-0.1,0.1-0.2,0.2-0.2,0.2s0,0.1,0.1,0.3c0.2,0.4,0.3,0.8,0.3,1.2v0.1l0.1,0.5
			C230.5,239.9,230.7,239.8,230.7,239.8z M235.3,254.5c0.2,0,0.4-0.1,0.4-0.2s0-0.3-0.1-0.5c0.1,0,0.1,0,0.2-0.1
			c0.1-0.1,0.1-0.1,0.2-0.2l-0.3-0.1c-0.1,0-0.1,0-0.1-0.1c0.1,0,0.1-0.1,0.2-0.1c0.1,0,0.2,0,0.4,0.2c0.1-0.1,0.1-0.2-0.1-0.4
			c0-0.1-0.1-0.1-0.2-0.2c-0.1,0-0.2,0-0.2,0l-1.6,0.9c0,0-0.1,0.1-0.2,0.2c-0.1,0.1-0.1,0.2,0,0.3c0.2,0.2,0.3,0.1,0.5-0.1l0.1,0.1
			l0.3,0.4L235.3,254.5z M234.6,269.9c-0.2-0.2-0.4-0.2-0.6,0.1L234.6,269.9z M235.7,236c-0.1,0-0.2-0.1-0.5-0.1
			c-0.2,0-0.5,0-0.7,0.1c0.3,0.1,0.7,0.1,1.2,0.1V236z M235.6,269.8c0.1,0,0.2-0.1,0.3-0.4l-0.5,0.1v0.1
			C235.4,269.7,235.5,269.8,235.6,269.8z M237.6,267.2c0.1-0.1,0.2-0.2,0.3-0.5c-0.1,0-0.2-0.1-0.3-0.1c-0.1-0.1-0.2-0.1-0.4-0.1
			c-0.1-0.1-0.2,0-0.3,0c-0.1,0.1-0.1,0.2,0,0.3c0,0.1,0.1,0.2,0.1,0.2h-0.6c0.1,0.3,0.2,0.5,0.5,0.3
			C237.3,267.3,237.5,267.3,237.6,267.2z M238.5,266.4c-0.2-0.1-0.3-0.1-0.4,0.1c0,0,0,0,0,0.1s0,0.1,0.1,0.1
			C238.3,266.8,238.4,266.7,238.5,266.4z M239,268.6c0-0.1-0.1-0.3-0.3-0.4l-0.2,0.8c0.1,0.1,0.1,0.1,0.2,0.1c0.1,0,0.1,0,0.2-0.1
			C239,268.8,239,268.7,239,268.6z M242,265.6c-0.1-0.1-0.2-0.1-0.4-0.2c-0.1-0.1-0.3-0.1-0.4-0.1s-0.3,0-0.4,0.2
			c-0.1,0.1-0.4,0.3-0.9,0.5l0.3,0.4c-0.2,0.1-0.2,0.2-0.2,0.3c0.1,0.1,0.1,0.2,0,0.3C240.3,266.8,241,266.4,242,265.6z M241.7,267
			c0-0.1,0-0.1-0.1-0.2c0,0-0.1-0.1-0.2-0.1l-0.2,0.2c0,0.1,0.1,0.1,0.2,0.2c0.1,0.1,0.1,0.1,0.2,0.2
			C241.6,267.2,241.7,267.1,241.7,267z M242.2,266.7c0-0.1-0.1-0.2-0.1-0.5l-0.5,0.1v0.1c0.2,0,0.4-0.1,0.5-0.1v0.5L242.2,266.7z
			 M242.4,264.9c-0.2-0.1-0.4,0-0.7,0.1c0.2,0.2,0.3,0.4,0.5,0.5s0.4,0.1,0.6,0C242.7,265.2,242.6,265,242.4,264.9z M242.2,267.9
			l-0.2-0.3h-0.1l0.1,0.4L242.2,267.9z M242.5,268.7c0,0-0.1,0-0.1-0.1c-0.1,0-0.1-0.1-0.1-0.1v0.2
			C242.3,268.8,242.4,268.8,242.5,268.7L242.5,268.7z"/>
		<path class="st35" d="M271,266.8c-0.2-0.1-0.5-0.1-0.8-0.1s-0.6,0-0.7,0c-1.1,0.1-1.9,0.1-2.5,0.1c-0.1,0-0.3,0.1-0.6,0.1
			s-0.5,0-0.7-0.1c0,0-0.1,0-0.2,0s-0.2,0.1-0.3,0.1c-0.1-0.2-0.3-0.3-0.7-0.2c-0.5,0-0.8-0.1-1-0.2s-0.4-0.2-0.8-0.3
			c-0.3-0.1-0.6-0.3-0.8-0.5h-0.1h-0.1c-0.8-0.2-1.3-0.6-1.6-1.1c-0.1-0.2-0.3-0.4-0.7-0.4l0.3-0.5c-0.1-0.1-0.2-0.1-0.3-0.1
			c-0.1,0.1-0.2,0.1-0.2,0.1l-0.5-1.3c0-0.2-0.1-0.3-0.2-0.4c-0.3-0.5-0.5-1-0.6-1.6c-0.1-0.4-0.1-0.8,0-1.3c0-0.1,0-0.4,0.1-0.9
			l0.1-0.1c0.2,0.1,0.3,0.2,0.3,0.3c0.5-0.1,0.8-0.4,0.8-0.8h0.2c0.5-0.1,0.8,0,0.9,0.3c0.1,0,0.2-0.1,0.2-0.1
			c0.1,0,0.1-0.1,0.2-0.1s0.2,0,0.3,0c0.2,0,0.4-0.2,0.5-0.4v-0.1l0.1-0.1c0.4,0.5,0.7,0.8,0.7,0.9c0.1,0.2,0.1,0.4,0.2,0.6
			c0.1,0.3,0.2,0.5,0.2,0.6s0.1,0.2,0.2,0.3c0.1,0.1,0.2,0.2,0.4,0.3c0,0,0.1,0,0.1,0.1s0.1,0.1,0.1,0.1c0.1,0.3,0.2,0.6,0.4,0.9
			c0.2,0.2,0.5,0.5,0.9,0.8c0,0.1,0.1,0.1,0.2,0.1c1,0.3,1.8,0.4,2.6,0.4c0.2,0,0.4,0,0.5,0c0.5,0.1,1,0.1,1.4,0h0.5l1.7-0.2
			l0.5-0.3c0.2-0.2,0.6-0.6,1.1-1.1c0.1-0.1,0.2-0.2,0.2-0.3s0.1-0.3,0.1-0.3c0.1-0.1,0.1-0.3,0.2-0.7v-0.2
			c-0.1-0.2-0.2-0.3-0.2-0.4c-0.2-1.2-0.5-2.2-0.8-3c-0.3-0.6-0.7-1-1.2-1.1c-0.2-0.2-0.3-0.3-0.4-0.3c-0.1-0.2-0.4-0.4-0.7-0.6
			c-0.3-0.1-0.5-0.2-0.6-0.3c-0.4-0.2-0.7-0.3-1-0.5c-0.3-0.1-0.6-0.3-0.8-0.4c-0.1,0-0.3-0.1-0.6-0.2c-0.3-0.1-0.6-0.1-0.8,0
			c-0.1,0-0.2,0-0.3-0.1c-0.2-0.1-0.4-0.3-0.5-0.4c-0.2-0.2-0.4-0.3-0.4-0.3c-0.4-0.2-0.8-0.3-1.1-0.5c-0.4-0.1-0.7-0.3-1-0.4
			c0,0-0.1,0-0.2,0c-0.2-0.2-0.5-0.4-1-0.7c-0.6-0.4-1-0.7-1.2-0.9c-0.1-0.1-0.3-0.2-0.5-0.4c-0.2-0.1-0.4-0.3-0.5-0.4
			c-0.5-0.7-1-1.2-1.4-1.5c-0.1-0.1-0.3-0.3-0.4-0.5c-0.2-0.2-0.3-0.4-0.4-0.4c-0.4-0.3-0.6-0.6-0.6-1.1c0-0.1,0-0.2-0.1-0.2
			c0,0-0.1-0.1-0.1-0.2c-0.4-0.6-0.6-1.2-0.7-1.7c0-0.3,0-0.7,0-1.3c0.3-1.6,0.6-2.8,0.8-3.6c0.1-0.5,0.3-1.1,0.6-1.7
			c0.2-0.4,0.4-0.8,0.7-1.2c0.3-0.4,0.5-0.8,0.7-1v-0.1c0.4-0.2,0.7-0.5,1-0.9s0.6-0.7,0.7-0.9l0.4-0.2c0.7-0.2,1.3-0.4,1.6-0.4
			c0.1-0.1,0.3-0.1,0.6-0.1l1.3-0.1c0,0,0.1,0,0.2,0s0.2,0,0.3-0.1c0.1,0,0.2-0.1,0.3-0.1c0.2,0,0.3,0,0.4,0s0.2,0,0.3,0.1
			c0.6,0.1,1.6,0.3,2.8,0.4c0.2,0,0.4,0.1,0.7,0.3c0.2,0.1,0.5,0.3,1.2,0.5c0.1,0,0.2,0.1,0.3,0.2c0.1,0.1,0.2,0.2,0.2,0.2l0.6,0.2
			c0,0,0.1,0.1,0.3,0.1c0.1,0.1,0.3,0.2,0.3,0.3c0,0.2,0.1,0.2,0.2,0.2c0.3,0.1,0.5,0.2,0.7,0.5s0.3,0.4,0.5,0.6
			c0.5,0.6,0.8,1,0.9,1.2s0.2,0.6,0.3,1.1c0.1,0,0.1,0.1-0.1,0.3c0,0.1-0.1,0.3-0.3,0.6c-0.2-0.1-0.3-0.1-0.5-0.1
			c0,0-0.1,0.2-0.1,0.4c-0.4-0.3-0.8-0.4-1.2-0.2h-0.1c-0.1,0-0.3,0-0.5,0s-0.5-0.1-0.7-0.1v0.1c-0.2,0.2-0.4,0.3-0.6,0.1l-1-0.8
			c-0.4-0.4-1-0.7-1.9-1c-0.3-0.1-0.7-0.1-1.3-0.2l-0.8-0.3c-0.1,0.2-0.3,0.3-0.6,0.2c-0.3-0.1-0.5-0.2-0.7-0.2s-0.4,0.1-0.6,0.3
			c-0.1,0-0.1,0.1-0.2,0.1s-0.2,0-0.2,0.1c-0.3,0.1-0.6,0.3-0.8,0.6c-0.2,0.3-0.3,0.6-0.2,0.9v0.2c0,0.2,0,0.4-0.2,0.5
			c-0.1,0-0.2,0.2-0.3,0.4c0,0.2-0.1,0.5-0.2,0.9s-0.1,0.8-0.1,1.1c0,0.2,0,0.5,0.1,0.9c0.1,0.9,0.4,1.7,0.9,2.2
			c0.1,0.1,0.1,0.3,0.2,0.4s0.2,0.3,0.3,0.5c0.3,0.5,0.8,1,1.6,1.5c0.5,0.3,1.2,0.8,2.2,1.2c0.1,0.1,0.2,0.1,0.3,0.1
			c0.1,0,0.1,0,0.2,0s0.3,0.1,0.5,0.1c0.2,0.2,0.6,0.3,1,0.4c0.6,0.3,0.9,0.4,1,0.5l1.2,0.5c0.5,0.2,0.9,0.4,1.1,0.5
			s0.5,0.3,0.8,0.4s0.6,0.3,0.8,0.4c0.2,0,0.4,0.1,0.5,0.2c0.3,0.2,0.5,0.5,0.8,0.7c0.2,0.2,0.4,0.5,0.6,0.6c0.4,0.5,0.7,0.9,1,1.3
			c0.2,0.2,0.3,0.5,0.4,0.8c0.1,0.4,0.3,0.7,0.4,0.9c0.1,0.2,0.2,0.4,0.2,0.5c0,0.2-0.1,0.4-0.2,0.6c0.3,0.4,0.3,0.7,0.1,0.9v0.2
			c0,0.2,0,0.8,0,1.7c-0.1,0.6-0.1,1-0.1,1.3c0,0.1-0.1,0.3-0.2,0.6c-0.2,0.4-0.2,0.8-0.1,1.1l-0.1,0.1c-0.1,0-0.1,0.1-0.1,0.2
			c-0.2,0.3-0.3,0.5-0.3,0.7c0,0-0.1,0.2-0.2,0.3c-0.1,0.2-0.3,0.3-0.6,0.3c-0.1,0-0.2,0.1-0.3,0.3c-0.1,0.2-0.3,0.5-0.6,0.7
			c-0.3,0.2-0.5,0.4-0.6,0.6c-0.3,0.1-0.5,0.2-0.5,0.3c-0.2,0.1-0.3,0.2-0.5,0.3c-0.2,0.1-0.3,0.2-0.5,0.3l-1.9,1
			C271.2,266.8,271.1,266.8,271,266.8z M259.1,237c0.1-0.1,0-0.2-0.2-0.3l0.1,0.5c0,0-0.1,0-0.3,0s-0.3,0-0.5,0.1
			c0.1,0,0.2,0,0.3,0.1c0.1,0,0.3,0,0.4-0.1C259,237.1,259,237,259.1,237z M261.4,244.1h-0.2c-0.2,0-0.3,0.1-0.4,0.3
			c-0.1,0.2-0.2,0.3-0.2,0.3c0.1,0,0.2,0,0.3,0c0.1,0,0.2,0,0.2,0C261.2,244.5,261.3,244.3,261.4,244.1z M261.1,235.7
			c0.1,0,0.2-0.1,0.4-0.2c0.2-0.1,0.1-0.3-0.2-0.5c-0.1,0.1-0.2,0.2-0.3,0.3c-0.1,0.1-0.2,0.2-0.3,0.3
			C260.8,235.7,261,235.8,261.1,235.7z M261.3,234C261.4,234,261.4,234,261.3,234C261.4,234,261.4,234,261.3,234
			C261.3,233.9,261.3,233.9,261.3,234h-0.1H261.3L261.3,234z M261.6,245.9l-0.1-0.5c-0.2,0.2-0.3,0.3-0.2,0.5c0,0,0,0.1,0.1,0.1
			s0.1,0,0.1,0.1L261.6,245.9z M262.8,245.8c0.1-0.1,0.2-0.2,0.2-0.3l-0.2-0.1c-0.1,0.1-0.1,0.2-0.2,0.3c-0.1,0.1-0.1,0.2-0.2,0.3
			h0.1C262.6,246,262.7,245.9,262.8,245.8z M264.1,232.2c-0.1,0-0.2-0.1-0.5-0.1l0.8,0.4C264.3,232.4,264.2,232.3,264.1,232.2z
			 M264.3,247L264.3,247h-0.2v0.1L264.3,247z M264.7,234.4c0,0-0.1-0.1-0.2-0.1v0.1l0.2,0.1V234.4z M267.2,234.3c0-0.1,0-0.1,0-0.2
			l-0.3,0.4C267.1,234.4,267.2,234.4,267.2,234.3z M268.2,233.9c0.1,0,0.1-0.1,0.1-0.2v-0.1v-0.1c-0.1,0.1-0.2,0.1-0.3,0.1
			c0-0.2,0.1-0.3,0.3-0.4c0.1,0.1,0.2,0.1,0.3,0c0.1,0,0.1-0.1,0.1-0.3c-0.2-0.1-0.4-0.2-0.6-0.1s-0.4,0.1-0.7,0.3
			c0,0-0.1,0-0.1,0.1s0,0.1,0,0.2s0.1,0.2,0.3,0.3c0.2,0,0.3,0.1,0.4,0.1C268,233.9,268.1,233.9,268.2,233.9z M268.6,234.4v-0.1
			c0,0-0.1,0-0.2,0l-0.1,0.1c0,0.1,0,0.2,0.1,0.1L268.6,234.4z M268.6,233.9C268.6,233.9,268.6,233.8,268.6,233.9
			c0.1-0.1,0.1-0.1,0-0.1h-0.1L268.6,233.9L268.6,233.9z"/>
		<path class="st35" d="M301.6,262.3c-0.3-0.4-0.5-0.8-0.5-1.2c0-0.1,0-0.3,0-0.5s0-0.4-0.1-0.7c-0.1-0.4-0.2-0.8-0.4-1
			c-0.1-0.2-0.2-0.5-0.3-0.9c-0.1-0.4-0.1-0.7-0.2-0.9c0-0.3-0.1-0.5-0.2-0.7s-0.1-0.4-0.2-0.6c0,0,0-0.1-0.1-0.2s-0.1-0.2,0-0.4
			l-0.1-0.4c0-0.2-0.1-0.6-0.3-1.2c-0.1-0.7-0.2-1.2-0.3-1.6c0-0.1,0-0.1,0-0.2s0-0.1-0.1-0.2c-0.2-0.2-0.4-0.6-0.5-1.2
			c0-0.1,0-0.2,0-0.3c0-0.1,0-0.3,0-0.4c0.1-0.1,0.1-0.3,0-0.5c0-0.5,0-0.9,0-1.4c0-0.1-0.1-0.2-0.1-0.3c-0.1-0.1-0.1-0.2-0.2-0.3
			c0-0.1,0-0.1-0.1-0.2s-0.1-0.1-0.1-0.2c0-0.4,0-0.9,0-1.4c0-0.4,0-0.6,0-0.8s-0.1-0.5-0.3-1c-0.1-0.3-0.2-0.7-0.2-1.3v-0.1
			c0.2-0.4,0.3-0.8,0.2-1.3c0-0.5-0.1-0.8-0.1-1.1c0,0,0-0.2,0-0.5c0-0.1,0-0.2,0-0.3c0-0.1,0-0.2,0-0.3c-0.1-0.8-0.2-1.4-0.4-1.8
			c0-0.1-0.1-0.2-0.3-0.5c0.1-0.1,0.2-0.3,0.2-0.4s0-0.3,0-0.5l-0.4-3.1l-0.6-0.4c-0.2-0.1-0.3-0.1-0.5,0c-0.3,0.1-0.6,0.1-1,0.1
			s-0.8,0-1.1,0.1c-0.4,0.1-0.6,0.1-0.8,0.3c-0.3,0.1-0.6,0.2-0.9,0.3c-0.4,0.1-0.9,0-1.4-0.1c-0.1,0-0.2,0-0.2-0.1
			c-0.1-0.1-0.2-0.1-0.3-0.1c-0.1,0.1-0.3,0.1-0.6,0.1c-0.2,0-0.6,0-0.9,0c-0.4,0-0.7,0-1,0c-0.1-0.1-0.3-0.2-0.5-0.3
			c-0.2-0.1-0.4-0.3-0.5-0.5c-0.2-0.4-0.5-0.6-0.8-0.6c0,0-0.1-0.1-0.3-0.1c0-0.1,0.1-0.2,0.1-0.2c0-0.1,0.1-0.2,0.1-0.3
			c-0.2,0-0.6,0-0.9,0.1l-0.1-0.1c0.3-0.2,0.6-0.3,0.7-0.4c-0.1-0.1-0.2-0.1-0.2-0.1c-0.1,0-0.2-0.1-0.2-0.1
			c0.1-0.1,0.1-0.2,0.2-0.3s0.2-0.3,0.3-0.5c0-0.2,0-0.3,0-0.4s0.2-0.2,0.4-0.4c0.7-0.6,1.6-0.9,2.5-1.1c0.4-0.1,0.7-0.1,0.9-0.1
			h0.7c0.4-0.1,0.8-0.2,1.2-0.4c0.2-0.1,0.4-0.1,0.6-0.1s0.3,0,0.4,0c0.3,0,0.6-0.1,1-0.1s0.8-0.1,1.4-0.1l1.8-0.2
			c0.2,0,0.5,0,0.9,0c0.3,0,0.6,0,0.8-0.1c0.9-0.1,1.5-0.2,2-0.1h0.2c0.1,0,0.2,0,0.2-0.1c0.1,0,0.2-0.1,0.2-0.1l2.4-0.1
			c0.4-0.1,0.7-0.1,0.8-0.1l1.5-0.3l2.6-0.4c0.1,0,0.2-0.1,0.3-0.1c0.2-0.1,0.5-0.2,0.9-0.3c0.4-0.1,0.8-0.1,1.3,0h0.7
			c0.1-0.1,0.3-0.1,0.6-0.1c0.6-0.1,1.2,0,1.9,0.4c0.2,0.1,0.4,0.2,0.8,0.2c0.1,0,0.1,0,0.2,0s0.2,0,0.3,0.1c-0.1,0-0.1,0.1-0.3,0.2
			c-0.1,0.1-0.2,0.2-0.4,0.2l0.5,0.3c0,0.2,0,0.5,0,0.9s0,0.7,0.1,1c0,0.2,0,0.3-0.2,0.4c-0.4,0.6-1,1-1.7,1.2
			c-0.5,0.1-0.8,0.2-1,0.3l-1.2,0.1c-0.2,0-0.5,0.1-0.9,0.2c-0.8,0.3-1.3,0.4-1.6,0.5c0,0-0.1,0-0.2,0.1s-0.2,0.1-0.3,0
			c-0.3,0-0.9,0.1-1.5,0.3c-0.5,0.1-0.8,0.2-1.1,0.3s-0.4,0-0.6,0s-0.3,0-0.5,0c-0.1,0-0.3,0-0.4-0.1l-0.9-0.1c0,0.7,0,1.4,0.1,1.9
			c0,0.2,0.1,0.4,0.1,0.6s0.1,0.4,0.1,0.7c0.2,1.3,0.3,2.6,0.4,4c0,0.3,0.1,0.5,0.2,0.8c0.1,0.2,0.1,0.5,0.2,0.7
			c0.1,1.6,0.3,3.1,0.5,4.6l0.2,3l0.2,1.2l0.1,1.1c0,0.2,0.1,0.4,0.2,0.6s0.1,0.4,0.2,0.7c0.1,0.3,0.2,0.9,0.3,1.7
			c0,0.3,0.1,0.9,0.2,1.6c0.1,0.6,0.2,1,0.3,1.3c0,0,0.1,0.1,0.1,0.2l0.1,1.1c0.1,0.4,0.2,0.7,0.4,1.1c0.1,0.2,0.2,0.4,0.2,0.7
			c0,0.3,0.1,0.4,0.1,0.5s0,0.3,0,0.6c0,0.2,0,0.4-0.1,0.5l-0.8,0.4c-0.1,0-0.3,0.1-0.5,0.1s-0.3,0-0.4,0s-0.2,0-0.2,0
			c-0.1,0-0.2,0-0.2,0.1c-0.3,0-0.6,0-0.7,0h-0.2c-0.3,0-0.4,0.2-0.5,0.4c-0.3-0.1-0.4-0.1-0.5-0.1s-0.2,0.2-0.3,0.4
			c0,0.2-0.1,0.5-0.2,0.8l-0.2,0.1L301.6,262.3z M285.7,229.9c0,0-0.1,0-0.1-0.1l-0.1,0.2L285.7,229.9z M293.6,230.9l-0.3,0.2
			c0,0-0.2-0.1-0.4-0.2c-0.1,0-0.3,0.1-0.5,0.3c-0.2,0.2-0.4,0.2-0.6,0.2c0.1-0.3,0.2-0.5,0.2-0.6s0-0.3-0.2-0.4
			c-0.1,0-0.2,0.1-0.3,0.1c-0.1,0.1-0.2,0.1-0.3,0.1l-0.8-1.3c0.1,0,0.2-0.1,0.5-0.1c0.2,0,0.6,0,0.9,0.1c0.4,0.1,0.7,0.2,0.9,0.1
			c-0.1,0.3-0.1,0.7-0.3,1.1h0.3c0.3,0,0.4-0.2,0.4-0.4v-0.2c0-0.3,0.1-0.5,0.4-0.7c0.1-0.1,0.3-0.2,0.5-0.3
			c0.2-0.1,0.3-0.1,0.4-0.2h0.1l0.1,0.1l1.1-0.1c0.1,0,0.2,0,0.3-0.1s0.2,0,0.3,0c0.2,0,0.3-0.1,0.3-0.2c0,0,0-0.1-0.1-0.1
			c0-0.1-0.1-0.1-0.2-0.1c0,0-0.1,0-0.2,0s-0.2-0.1-0.2-0.2s-0.1-0.1-0.2-0.1s-0.2,0.1-0.2,0.2v0.4l-0.8-0.2
			c-0.2-0.1-0.3-0.2-0.3-0.4c0.1,0,0.2,0,0.3,0.1c0,0-0.1-0.1-0.1-0.2s-0.1-0.1-0.2,0.1l-0.5,0.2c0-0.2-0.1-0.4-0.1-0.5
			c-0.1-0.1-0.1-0.2-0.2-0.1c0,0.1,0,0.2-0.1,0.3c0,0.1-0.1,0.2-0.1,0.2c-0.4-0.4-0.7-0.5-1-0.3c-0.1,0.2-0.3,0.3-0.5,0.3
			s-0.4,0-0.7-0.2c-0.1,0-0.2,0-0.3,0c-0.1,0-0.2,0-0.3,0.1c-0.2,0.2-0.5,0.4-0.7,0.4c-0.1,0-0.3,0-0.5,0c0-0.1-0.1,0-0.3,0.1
			c0,0.1,0,0.2,0.1,0.2c0,0.1,0.1,0.1,0.2,0.2s0.1,0.2,0.2,0.3c0,0.1,0,0.3,0,0.4s-0.1,0.2-0.1,0.4c0,0.1,0,0.2-0.2,0.3
			c-0.2,0.2-0.2,0.5,0.1,0.7c0,0.1,0.1,0.2,0.2,0.3c0.1,0.1,0.2,0.2,0.2,0.3c0.3,0.5,0.8,0.7,1.3,0.5l0.6-0.1c0.2,0,0.6,0,1.1-0.1
			C293.2,231.6,293.5,231.3,293.6,230.9z M300.6,228.1c0.1,0,0.2-0.1,0.4-0.1c-0.1-0.3-0.1-0.4-0.1-0.5c0.1-0.1,0.1-0.1,0-0.2
			c0-0.1-0.1-0.1-0.1-0.1c-0.2-0.2-0.4-0.4-0.5-0.5c-0.2-0.1-0.3-0.1-0.6,0c0,0-0.1,0-0.2-0.1c-0.2-0.1-0.4-0.1-0.6,0.1
			c-0.1,0.1-0.3,0.2-0.5,0.4c0,0-0.2,0.2-0.6,0.6l0.4-0.1l0.1-0.1c0.1,0,0.1-0.1,0.2-0.1h0.2c0.3,0,0.6,0.1,0.7,0.4
			c0.2,0.5,0.5,0.6,1,0.5C300.4,228.2,300.5,228.1,300.6,228.1z M301.1,226.5L301.1,226.5l-0.2,0.1c0,0,0.1,0,0.2,0.1
			C301,226.5,301,226.5,301.1,226.5z M302.3,226.3L302.3,226.3c-0.1,0-0.1,0-0.1,0s0,0-0.1,0C302.1,226.3,302.2,226.3,302.3,226.3
			L302.3,226.3z M302.7,227.6c0-0.2,0-0.4,0.1-0.5c0.1,0,0.1-0.1,0.1-0.3c0-0.1,0-0.2,0.1-0.3c-0.2,0.1-0.4,0.3-0.6,0.4
			s-0.2,0.3-0.2,0.5v0.1c0,0.2,0.3,0.5,0.7,0.6C302.8,227.9,302.7,227.8,302.7,227.6z M304,228.7c-0.1,0-0.2,0-0.3,0
			c-0.1,0-0.2,0-0.3,0v0.1c0.2,0,0.4,0.1,0.4,0.1C303.9,228.8,304,228.7,304,228.7z M304.6,226.9l-0.1-0.1h-0.1v0.2h0.1L304.6,226.9
			z M304.7,227.5L304.7,227.5c-0.1,0-0.1,0-0.1,0s0,0-0.1,0.1l0.1,0.1L304.7,227.5z M306.9,226.7c0-0.1,0-0.2-0.2-0.4
			c-0.2,0.2-0.4,0.4-0.5,0.5s0,0.2,0.1,0.4C306.7,226.9,306.9,226.8,306.9,226.7z"/>
		<path class="st35" d="M335.1,256.8c-0.2,0-0.5,0-0.7-0.2c-0.2-0.1-0.4-0.2-0.5-0.2s-0.2-0.1-0.3-0.1c-0.1-0.1-0.2-0.1-0.3-0.1
			c-0.2,0-0.3-0.1-0.4-0.1c-0.1-0.1-0.1-0.2-0.1-0.4l-0.2-1.1c0-0.2-0.1-0.4-0.1-0.6c-0.1-0.2-0.1-0.5-0.3-0.8l-0.1-0.3l-0.4-1.2
			l-0.2-0.8c-0.1-0.2-0.2-0.6-0.3-1.1c-0.1-0.4-0.2-0.7-0.4-1c-0.2-0.4-0.3-0.8-0.3-1.2v-0.2c0-0.2-0.1-0.4-0.1-0.6
			s-0.1-0.4-0.1-0.6l-0.2-1.2v-0.1c0,0,0-0.1,0-0.2s0-0.2,0-0.4c0-0.1-0.1-0.3-0.1-0.5c-0.1-0.2-0.1-0.3-0.2-0.4s-0.1-0.3-0.2-0.6
			c-0.1-0.2-0.1-0.5-0.1-0.7c0-0.1,0-0.1,0-0.2s-0.1-0.1-0.2-0.2c0-0.1-0.1-0.2-0.2-0.4s-0.1-0.3-0.1-0.5s0-0.4,0-0.5v-0.5
			c-0.1-0.4-0.2-0.7-0.3-0.9c-0.1-0.3-0.2-0.4-0.2-0.6s0-0.4,0.1-0.6c0-0.1,0-0.2,0-0.3c0-0.1,0-0.1,0-0.2c-0.1-0.3-0.1-0.5-0.2-0.8
			s-0.1-0.5-0.2-0.8l-0.2-0.4c0-0.2,0-0.3,0.1-0.5s0.2-0.5,0-0.8c-0.1-0.6-0.1-1.1-0.2-1.4l-0.2-2c0-0.3-0.2-0.8-0.4-1.5
			c0-0.3,0-0.5,0-0.6s0-0.2,0-0.3c0-0.1-0.1-0.3-0.2-0.3v-0.2c0-0.1,0.1-0.5,0.1-1l0.1-1.5c-0.1-0.4,0-0.8,0.3-1.4
			c0.1-0.1,0.2-0.3,0.3-0.4c0.2-0.2,0.3-0.4,0.4-0.6c0.2-0.5,0.6-0.8,1.1-0.8c0.1,0,0.1,0,0.2-0.1s0.1-0.1,0.2-0.2s0.2-0.2,0.4-0.3
			c0.2-0.1,0.5-0.2,1-0.3c0.5-0.2,1-0.2,1.4-0.2l1.8-0.3c0.3-0.1,0.6-0.2,1.1-0.3c0.5-0.1,0.8-0.1,1.1-0.1c0.1,0,0.2,0,0.2,0
			c0.1,0,0.1,0,0.2-0.1c0.4-0.1,0.7-0.2,0.9-0.2c0.3,0,0.6,0,0.9,0.1c0.1,0.1,0.2,0.1,0.4,0l0.2-0.1c0.1,0,0.3,0,0.5,0.1
			s0.4,0.1,0.5,0.1c0.2,0.1,0.6,0.2,1,0.4c0.2,0,0.4,0.1,0.5,0.2s0.2,0.3,0.2,0.6v0.3c0,0.2,0.2,0.4,0.5,0.4c0,0.3,0.1,0.5,0.1,0.8
			s-0.1,0.5-0.2,0.8c-0.1,0-0.2,0.1-0.4,0.2c-0.2,0.1-0.3,0.1-0.4,0.2s-0.1,0.2-0.1,0.4l-1.3,0.1c-0.3,0-0.5,0.1-0.6,0.1
			c-0.3,0.1-0.6,0.2-0.8,0.3c-0.2,0.1-0.4,0.1-0.6,0.1s-0.5,0.1-0.7,0.3c-1,0.2-1.8,0.2-2.4,0.1c-0.2,0-0.6,0-1.2,0.1
			c-0.4,0.1-0.6,0.1-0.8,0.2c-0.2,0-0.3,0.1-0.4,0.2c0,0.1,0,0.2,0,0.4c0.2,1.2,0.5,2.2,0.6,2.8c0.2,1.2,0.5,2.1,0.6,2.7
			c0,0.2,0,0.4,0,0.5s0,0.2,0,0.3c0.1,0.2,0.2,0.4,0.2,0.8l0.1,1.1c0,0.2,0.1,0.4,0.1,0.6c0,0.1,0,0.3,0,0.4s0,0.3,0,0.4l0.1,0.4
			c0.1,0.3,0.2,0.4,0.5,0.2c0.2,0,0.3-0.1,0.4-0.1c0.5-0.1,0.8-0.2,1-0.2h0.2c0,0,0.4-0.1,1-0.3l0.5-0.1c0.2,0,0.5-0.1,0.9-0.1
			c0.3,0,0.6-0.1,0.8-0.1c0.3-0.1,0.8-0.1,1.5,0c0.5,0.1,0.9,0.1,1.1,0.1s0.5,0.1,0.7,0.3c0.2,0.1,0.3,0.3,0.3,0.6
			c0,0.1,0,0.4,0,0.7c0.1,0.4,0.2,0.8,0.4,1.1c0.1,0,0.1,0.1,0.2,0.1l0.2,1.3c-0.1,0-0.1,0-0.2,0s-0.1,0-0.2,0c-0.2,0-0.4,0-0.5,0
			s-0.3,0.1-0.4,0.2s-0.2,0.2-0.3,0.2c-0.3,0.1-0.7,0.2-1.2,0.2c-0.8,0.3-1.7,0.5-2.8,0.6l-1.4,0.3c-0.3,0.1-0.8,0.2-1.4,0.3
			c-0.1,0.2-0.1,0.4,0,0.7c0.2,0.7,0.3,1.2,0.3,1.5s0.1,0.6,0.1,0.7s0,0.1,0.1,0.2c0,0,0.1,0.1,0.1,0.2c0,0,0.1,0.1,0.1,0.2
			c0.1,0.4,0.1,0.8,0,1.3c0,0.2,0.1,0.3,0.1,0.5c0.1,0.1,0.1,0.3,0.2,0.4c0,0.2,0.1,0.5,0.2,0.7c0.1,0.3,0.1,0.5,0.1,0.7
			c0,0,0,0.1,0,0.2s0,0.1,0.1,0.2c0.2,0.4,0.3,0.9,0.3,1.6c-0.1,0.1-0.1,0.2,0,0.5c0,0.2,0.1,0.3,0.1,0.4c0.1,0.1,0.2,0.1,0.3,0.1
			l1.6-0.3c0.1,0,0.2,0,0.2-0.1c0.3-0.3,0.9-0.4,1.6-0.5c0.3-0.1,0.7-0.2,1.1-0.3c0.4-0.1,0.8-0.3,1.3-0.4c1-0.4,1.6-0.6,1.9-0.7
			h0.3c0.3,0,0.5-0.1,0.7,0c0.1,0,0.2,0,0.3,0c0.1,0,0.1,0,0.2,0c0.2,0,0.4,0,0.5,0c0.1,0.1,0.2,0.2,0.2,0.4c0,0.1,0.1,0.1,0.2,0.1
			c0.2,0,0.4,0,0.4,0.2c0.1,0.2,0.2,0.3,0.2,0.3l-0.5,0.1c0.1,0.1,0.3,0.3,0.6,0.5l0.1,0.5v0.2l-0.7,0.9H348c0,0.2-0.1,0.4-0.3,0.6
			c-0.2,0.1-0.4,0.3-0.7,0.5c-0.3,0.2-0.5,0.3-0.6,0.5v0.1c0,0,0,0-0.1,0l-2.3,0.6c-0.1,0-0.2,0.1-0.5,0.1l-1.7,0.5l-3.4,0.7
			c-0.5,0.2-1.4,0.4-2.6,0.6L335.1,256.8z M330.5,230.9L330.5,230.9C330.5,230.9,330.4,230.8,330.5,230.9c-0.1-0.1-0.1-0.1-0.2,0
			v0.1L330.5,230.9z M332.9,224.8c0.2,0.1,0.3,0,0.4-0.2c0-0.2,0-0.3-0.1-0.4c0-0.2-0.1-0.4-0.2-0.5c0.3-0.1,0.7-0.1,1.1,0
			s0.7,0.2,0.9,0.2c0,0.2,0.1,0.4,0.2,0.5l0.5-0.9c0.2,0,0.4,0,0.6-0.1c0.2,0,0.4-0.1,0.5-0.1c0.2,0,0.3,0,0.4,0c0,0,0.1,0,0.1-0.1
			s0.1-0.1,0.2-0.1c0.1,0.2,0.2,0.2,0.4,0c0-0.1,0.1-0.2,0.2-0.2c0.1,0.2,0.3,0.2,0.4,0.1v-0.2c-0.2-0.2-0.3-0.1-0.4,0
			c0,0-0.1,0-0.2,0c0,0-0.1,0.1-0.3,0.2c-0.1-0.1-0.4-0.2-0.7-0.4l0.1-0.1c0,0,0.1-0.1,0.2-0.1c-0.2-0.1-0.3-0.2-0.4-0.2
			s-0.1,0.1-0.2,0.1s-0.2,0.1-0.3,0.1c0-0.1-0.1-0.1-0.1-0.2s-0.1-0.1-0.1-0.2c-0.1,0.1-0.2,0.2-0.2,0.3c-0.1,0-0.1-0.1-0.2-0.1
			c-0.1-0.1-0.1-0.1-0.2-0.1s-0.4-0.1-0.7-0.2c-0.3-0.1-0.5-0.2-0.8-0.2c-0.2,0-0.4-0.1-0.6-0.2c-0.1-0.2-0.2-0.3-0.3-0.3
			c-0.1,0-0.1,0.1-0.2,0.2s-0.1,0.1-0.2,0.2l0.9,0.5v0.2c-0.3-0.1-0.5,0-0.5,0.3c-0.2-0.1-0.5-0.1-0.9,0c-0.1,0.1-0.2,0.2-0.2,0.2
			s0,0.1,0.1,0.3c0.2,0.4,0.3,0.8,0.3,1.2v0.1l0.1,0.5C332.7,224.9,332.8,224.8,332.9,224.8z M337.4,239.5c0.2,0,0.4-0.1,0.4-0.2
			s0-0.3-0.1-0.5c0.1,0,0.1,0,0.2-0.1s0.1-0.1,0.2-0.2l-0.3-0.1c-0.1,0-0.1,0-0.1-0.1c0.1,0,0.1-0.1,0.2-0.1s0.2,0,0.4,0.2
			c0.1-0.1,0.1-0.2-0.1-0.4c0-0.1-0.1-0.1-0.2-0.2c-0.1,0-0.2,0-0.2,0l-1.6,0.9c0,0-0.1,0.1-0.2,0.2s-0.1,0.2,0,0.3
			c0.2,0.2,0.3,0.1,0.5-0.1l0.1,0.1l0.3,0.4L337.4,239.5z M336.8,254.9c-0.2-0.2-0.4-0.2-0.6,0.1L336.8,254.9z M337.9,221
			c-0.1,0-0.2-0.1-0.5-0.1c-0.2,0-0.5,0-0.7,0.1c0.3,0.1,0.7,0.1,1.2,0.1V221z M337.7,254.8c0.1,0,0.2-0.1,0.3-0.4l-0.5,0.1v0.1
			C337.6,254.8,337.7,254.8,337.7,254.8z M339.8,252.2c0.1-0.1,0.2-0.2,0.3-0.5c-0.1,0-0.2-0.1-0.3-0.1c-0.1-0.1-0.2-0.1-0.4-0.1
			c-0.1-0.1-0.2,0-0.3,0c-0.1,0.1-0.1,0.2,0,0.3c0,0.1,0.1,0.2,0.1,0.2h-0.6c0.1,0.3,0.2,0.5,0.5,0.3
			C339.4,252.4,339.6,252.3,339.8,252.2z M340.7,251.4c-0.2-0.1-0.3-0.1-0.4,0.1c0,0,0,0,0,0.1s0,0.1,0.1,0.1
			C340.5,251.8,340.6,251.7,340.7,251.4z M341.2,253.6c0-0.1-0.1-0.3-0.3-0.4l-0.2,0.8c0.1,0.1,0.1,0.1,0.2,0.1s0.1,0,0.2-0.1
			C341.2,253.8,341.2,253.7,341.2,253.6z M344.2,250.6c-0.1-0.1-0.2-0.1-0.4-0.2c-0.2-0.1-0.3-0.1-0.4-0.1s-0.3,0-0.4,0.2
			c-0.1,0.1-0.4,0.3-0.9,0.5l0.3,0.4c-0.2,0.1-0.2,0.2-0.2,0.3c0.1,0.1,0.1,0.2,0,0.3C342.5,251.9,343.1,251.4,344.2,250.6z
			 M343.8,252c0-0.1,0-0.1-0.1-0.2c0,0-0.1-0.1-0.2-0.1l-0.2,0.2c0,0.1,0.1,0.1,0.2,0.2s0.1,0.1,0.2,0.2
			C343.8,252.2,343.8,252.1,343.8,252z M344.4,251.7c0-0.1-0.1-0.2-0.1-0.5l-0.5,0.1v0.1c0.2,0,0.4-0.1,0.5-0.1v0.5L344.4,251.7z
			 M344.5,249.9c-0.2-0.1-0.4,0-0.7,0.1c0.2,0.2,0.3,0.4,0.5,0.5s0.4,0.1,0.6,0C344.9,250.2,344.7,250,344.5,249.9z M344.4,252.9
			l-0.2-0.3h-0.1l0.1,0.4L344.4,252.9z M344.7,253.7c0,0-0.1,0-0.1-0.1s-0.1-0.1-0.1-0.1v0.2C344.5,253.8,344.6,253.8,344.7,253.7
			L344.7,253.7z"/>
		<path class="st35" d="M365.4,252.1c-0.2-0.1-0.4-0.2-0.7-0.3c-0.2-0.1-0.3-0.3-0.4-0.7v-0.2c0-0.2-0.2-0.4-0.4-0.4
			c-0.1,0-0.3-0.2-0.6-0.7c-0.1,0.1-0.2,0.2-0.2,0.2c0,0.1-0.1,0.2-0.1,0.3c-0.1,0-0.2,0-0.3,0c-0.1,0-0.2-0.1-0.2-0.2
			c-0.1-0.1-0.1-0.2-0.1-0.2c0-0.1,0-0.2,0-0.3c0-0.2-0.1-0.4-0.4-0.6c0,0-0.1-0.2-0.1-0.4l-0.6-3.8c0-0.2-0.1-0.4-0.2-0.7
			c-0.1-0.3-0.2-0.5-0.2-0.6c-0.1-0.2-0.2-0.3-0.2-0.4s-0.1-0.2-0.1-0.3c0-0.2-0.1-0.4-0.1-0.6c-0.1-0.2-0.1-0.4-0.1-0.6l-0.3-1.7
			c-0.1-1.1-0.2-2-0.3-2.7c0-0.3-0.1-0.7-0.2-1.2s-0.2-0.9-0.2-1.3c-0.1-0.9-0.3-1.9-0.7-3.2c0-0.1,0-0.2-0.1-0.3
			c0-0.1-0.1-0.3-0.2-0.5l-0.1-0.5c0-0.2,0-0.5,0-0.8c0-0.1,0-0.3,0-0.5s0-0.4,0-0.6c0-0.3-0.1-0.5-0.2-0.6c0-0.1-0.1-0.1-0.1-0.2
			s0-0.1,0-0.1c0.1-0.1,0.1-0.2,0.1-0.3c0-0.1-0.1-0.3-0.1-0.5s-0.1-0.5-0.1-0.9c0-0.3,0-0.6-0.1-0.8c-0.1-0.2-0.1-0.4-0.1-0.7
			c0-0.3-0.1-0.5-0.1-0.7c-0.1-0.4-0.2-0.8-0.3-1.1l-0.1-0.5c0-0.5,0.1-1.3,0.2-2.4c0.1-0.4,0.1-0.9,0.2-1.4
			c0.8-0.1,1.3-0.4,1.6-0.9c0.1-0.2,0.4-0.4,0.7-0.4s0.5,0,0.6-0.1c0.1,0,0.2,0,0.3,0s0.2,0,0.2-0.1c0.2-0.2,0.4-0.3,0.7-0.3
			c0.3,0,0.4-0.1,0.4-0.1l1.7-0.3c0.4-0.1,0.8-0.1,1.1,0l1.3,0.1c0.2,0,0.4,0.1,0.8,0.1s0.6,0.1,0.9,0.1c0.7,0.1,1.2,0.3,1.7,0.5
			c0.1,0,0.4,0.1,0.9,0.3c0.3,0.2,0.7,0.4,1.3,0.6c0.6,0.3,1,0.5,1.4,0.8c0.2,0.2,0.3,0.3,0.5,0.5s0.4,0.4,0.5,0.5s0.4,0.4,1,1
			l0.8,0.8l0.4,0.8c0,0,0.1,0.1,0.1,0.2s0.1,0.2,0.1,0.2c0.2,0.1,0.3,0.2,0.5,0.4c0.1,0.2,0.2,0.4,0.3,0.6c0.1,0.2,0.1,0.3,0.2,0.4
			c0.4,1,0.7,1.8,0.8,2.4c0,0.2,0.1,0.4,0.2,0.8s0.2,0.7,0.2,1c0.1,0.4,0.1,0.9,0,1.3v0.3c0,0.3,0.1,0.6,0.2,0.7
			c0.1,0.3,0.2,0.4,0.2,0.5c0,0.2,0,0.6-0.2,1.1c0,0.1,0,0.1,0,0.2s0,0.1,0,0.2c0.1,0.4,0.1,0.9-0.1,1.5s-0.3,1-0.4,1.3
			c0,0.4-0.1,0.9,0,1.6c0,0.1,0,0.2,0,0.4c0,0.2,0,0.3,0,0.4c0,0.3,0,0.4-0.1,0.4c-0.3,0.2-0.4,0.4-0.5,0.6s-0.1,0.5-0.1,0.7
			s0,0.4,0,0.5c0,0.5-0.1,0.8-0.3,1.1c-0.5,0.6-0.8,1.2-0.9,1.8c-0.2,0.6-0.6,1.2-1.2,1.8c-0.1,0-0.2,0.1-0.3,0.2
			c-0.1,0.1-0.1,0.2-0.1,0.3c-0.2,0.4-0.5,0.8-0.9,1.1c-0.5,0.4-1,1-1.4,1.7c-0.2,0.3-0.3,0.5-0.5,0.7c-0.1,0.2-0.4,0.3-0.7,0.3
			l-0.3,0.2c-0.6,0.6-1.6,1.2-2.9,1.8c-0.2,0.1-0.4,0.2-0.7,0.3c-0.3,0.1-0.5,0.1-0.7,0.2c-0.1,0-0.2,0-0.3,0.1
			c-0.1,0-0.1,0.1-0.2,0.1c-0.2,0.2-0.5,0.3-0.9,0.3C365.8,252.2,365.6,252.1,365.4,252.1z M363.4,249.4c-0.2-0.2-0.3-0.2-0.3-0.2
			c-0.1,0-0.1,0-0.2,0.1c0,0.1-0.1,0.1-0.1,0.1c0,0.1,0.1,0.2,0.1,0.2C363.1,249.5,363.2,249.4,363.4,249.4z M367.1,246.8
			c0.1,0,0.3-0.1,0.4-0.3c0,0,0.4-0.4,1.4-1.2c0.2-0.2,0.4-0.4,0.7-0.7c0.3-0.3,0.5-0.5,0.7-0.7c0.1-0.1,0.2-0.2,0.3-0.4
			c0.1-0.2,0.2-0.3,0.3-0.3c0.4-0.3,0.7-0.8,0.9-1.2c0.1-0.3,0.2-0.5,0.4-0.7c0.7-0.8,1-1.6,1.1-2.4c0-0.1,0-0.2,0.1-0.3
			c0-0.1,0-0.2,0.1-0.3c0.1-0.4,0.1-0.8,0.1-1.2c0-0.4,0-0.7,0-0.8c0-0.1,0-0.9,0-2.3c0-1.3-0.1-2.2-0.1-2.8l-0.3-1.8
			c0-0.1,0-0.1-0.1-0.2c0-0.1,0-0.1,0-0.2c0.1-0.3,0.2-0.6,0.1-0.9c0-0.2-0.1-0.5-0.2-0.8c-0.2-0.4-0.3-0.7-0.4-1
			c-0.1-0.7-0.3-1.2-0.6-1.5c-0.1-0.2-0.4-0.5-0.7-0.9c-0.4-0.5-0.7-0.8-1.1-1.1c0,0-0.1-0.2-0.2-0.4c-0.1-0.1-0.1-0.1-0.2-0.2
			c-0.1,0-0.1-0.1-0.1-0.1c-1-0.7-2.2-1-3.4-1V221c0-0.2-0.1-0.3-0.2-0.3c-0.1-0.1-0.3-0.1-0.5-0.1c-0.1,0-0.3,0-0.6,0
			c-0.3,0-0.5,0-0.7,0c-0.1,0-0.3,0-0.5,0s-0.3,0.1-0.3,0.2c-0.1,0.1,0,0.3,0,0.6l0.3,1.6c0,0.2,0.1,0.5,0.1,0.7
			c0.1,0.2,0.1,0.4,0.1,0.7l0.1,0.9c0,0.3,0.1,0.5,0.1,0.8c0,0.2,0,0.5,0.1,0.7c0,0.1,0.1,0.4,0.2,0.7c0,0.2,0,0.3,0,0.4
			c-0.1,0.4-0.1,0.8,0,1.3c0,0.2,0.1,0.5,0.3,1c0.1,0.3,0.2,0.7,0.2,1.1s0.1,0.7,0.1,0.9c0.1,0.7,0.3,1.2,0.4,1.6
			c0.1,0.2,0.1,0.4,0.2,0.8l0.2,1.9c0,0.2,0,0.5,0.1,0.9s0,0.7-0.2,0.9c0,0,0,0.1,0,0.3c0.2,0.8,0.5,2,0.9,3.4c0,0.1,0,0.2-0.1,0.3
			c-0.1,0.2-0.1,0.3-0.1,0.6c0,0.2,0.1,0.4,0.2,0.8c0.2,0.4,0.2,0.7,0.2,0.9c0,0.1,0,0.3,0,0.6c0,0.2,0,0.4,0.1,0.6v0.1
			c0,0.1,0,0.2-0.1,0.2c-0.1,0.1-0.1,0.2-0.1,0.3l0.2,0.5C366.9,246.8,367,246.8,367.1,246.8z M366.9,218.8c0,0.1-0.1,0.1-0.1,0.1
			l0.2,0.2L366.9,218.8z M367.6,219.2c-0.1,0-0.2,0-0.3,0.1c-0.1,0-0.2,0.1-0.3,0.1c0.2,0,0.4,0,0.6,0L367.6,219.2z M367.4,218h-0.1
			c-0.1,0.1-0.1,0.1-0.2,0.1c0,0,0,0.1,0.1,0.1c0,0,0.1,0,0.1,0.1C367.2,218.2,367.3,218.1,367.4,218z M367.6,219.8
			c0.1,0,0.2-0.1,0.3-0.2c-0.1,0-0.1,0-0.2,0s-0.1,0-0.2,0l-0.2,0.3C367.5,220,367.6,219.9,367.6,219.8z M369.8,246.2
			c0.2,0,0.4-0.1,0.4-0.2s0.1-0.3,0.1-0.5c-0.5,0.4-0.8,0.7-0.9,0.8L369.8,246.2z M372.3,220.5c0.1-0.1,0.1-0.2,0-0.4
			c0-0.1-0.1-0.2-0.1-0.3c-0.1,0-0.2,0-0.3,0.1c-0.1,0.1-0.3,0.2-0.4,0.3c-0.2,0.2-0.4,0.3-0.7,0.3v-0.3c-0.1,0-0.1,0.1-0.1,0.1
			l0.1,0.2c-0.1,0-0.2-0.1-0.3-0.1c-0.1-0.1-0.2-0.1-0.3-0.1c-0.1,0-0.1,0-0.2,0.2l0.3,0.6c0,0.1,0.1,0.2,0.1,0.3
			c0,0.2,0.2,0.3,0.4,0.3h-0.1c0,0,0.1,0.1,0.2,0.1s0.2,0,0.3,0s0.2-0.1,0.2-0.2L372.3,220.5z M372.6,247.3c0.1-0.1,0.2-0.2,0.3-0.3
			c0.1-0.1,0.2-0.2,0.2-0.4c0-0.1,0-0.5,0-1.3c0.6-0.2,0.9-0.6,0.8-1.3c0-0.2-0.1-0.4-0.1-0.5c0.2,0,0.3-0.1,0.4-0.1
			s0.1-0.1,0.1-0.2l-0.2-0.7c-0.2,0.1-0.4,0.2-0.6,0.3c-0.2,0.1-0.4,0.2-0.6,0.3c-0.1,0.1-0.2,0.2-0.3,0.4c-0.1,0.2-0.1,0.3-0.1,0.4
			c-0.2-0.2-0.3-0.2-0.4-0.2s-0.3,0.1-0.6,0.3c0,0.2,0.1,0.5,0.2,0.9l0.1,0.2c0,0.2-0.1,0.4-0.4,0.5c-0.2,0.1-0.4,0.2-0.4,0.3
			c-0.1,0.1,0,0.2,0.1,0.4c0.2,0.4,0.6,0.8,1,1.2c0,0.1,0.1,0.1,0.3,0.1C372.3,247.5,372.4,247.4,372.6,247.3z M371.2,244.6
			c0-0.1-0.1-0.3-0.3-0.4c0,0.1,0,0.2,0,0.3c0,0.2,0.1,0.3,0.3,0.5V244.6z M371.9,219.3l-0.2-0.1l-0.2,0.3c0,0.1,0.1,0.1,0.2,0.1
			C371.8,219.5,371.9,219.4,371.9,219.3z M372.6,223.1c0.1,0,0.2-0.1,0.2-0.1c0-0.1,0-0.2,0-0.3c0-0.2-0.1-0.3-0.2-0.4
			s-0.3-0.1-0.6-0.1c-0.1,0.1-0.1,0.3,0,0.5c0,0.2,0.2,0.4,0.5,0.4H372.6z M372.3,221.6C372.3,221.6,372.2,221.6,372.3,221.6
			c-0.1-0.1-0.1-0.1-0.2-0.1v0.1l0.2,0.1V221.6z M374.2,222c-0.2-0.2-0.4-0.2-0.5,0.2L374.2,222z"/>
	</g>
</g>
</svg>
