<svg id="Layer_1" height="512" viewBox="0 0 128 128" width="512" xmlns="http://www.w3.org/2000/svg" data-name="Layer 1"><path d="m6.5 64.117c0-12.952.389-33.866 20.841-37.709s26.873-8.5 34.516-13.727 16.357-10.447 33.5-.74c6.766 4.772 11.81 7.345 16.81 23.368s9.333 18.181 9.333 27.646-4.644 21.816-12.375 27.184a28.026 28.026 0 0 0 -11.743 17.561c-1.132 5.242-3.507 12.839-9.882 13.711s-9.268-4.572-15.2-5.026-13.149 8.393-29.538-.451-18.119-21.074-24.262-26.54-12-15.394-12-25.277z" fill="#7d6599"/><path d="m104.66 19.7c-4.79 3.97-12.3 5.59-20 3.72-8.56-2.08-14.93-7.89-16.75-14.42 6.48-3.23 14.59-4.34 27.45 2.94 3.48 2.45 6.5 4.33 9.3 7.76z" fill="#67537e"/><ellipse cx="81.186" cy="44.573" fill="#67537e" rx="8.846" ry="11.33" transform="matrix(.236 -.972 .972 .236 18.717 112.951)"/><ellipse cx="95.108" cy="79.168" fill="#67537e" rx="7.997" ry="6.244" transform="matrix(.707 -.707 .707 .707 -28.124 90.439)"/><ellipse cx="39.411" cy="92.67" fill="#67537e" rx="5.047" ry="6" transform="matrix(.905 -.426 .426 .905 -35.744 25.642)"/><ellipse cx="61.756" cy="71.861" fill="#67537e" rx="6.336" ry="4.579" transform="matrix(.905 -.426 .426 .905 -24.741 33.182)"/><g fill="#2d1d40"><path d="m119.527 49.2a103.851 103.851 0 0 1 -5.689-14.413c-4.833-15.487-9.807-18.943-16.1-23.319-.449-.312-.905-.629-1.37-.957-.048-.033-.1-.064-.146-.092-13.09-7.413-21.607-6.563-28.791-3.1a1.7 1.7 0 0 0 -.524.257 52.907 52.907 0 0 0 -6.035 3.66l-.564.385c-7.355 5.039-13.708 9.389-33.29 13.069-10.918 2.051-17.867 9.041-20.661 20.775a1.75 1.75 0 0 0 3.4.81c2.48-10.412 8.336-16.348 17.9-18.145 20.31-3.816 27.261-8.578 34.619-13.618l.562-.385c1.312-.9 2.657-1.817 4.087-2.655 2.677 6.442 9.237 11.688 17.315 13.651a28.594 28.594 0 0 0 6.737.81 23.938 23.938 0 0 0 13.337-3.8c2.139 3 4.14 7.176 6.175 13.7a107.207 107.207 0 0 0 5.86 14.853c2.117 4.524 3.394 7.255 3.394 12.272 0 8.689-4.348 20.7-11.623 25.747a29.642 29.642 0 0 0 -12.455 18.624c-1.678 7.763-4.428 11.8-8.409 12.346-2.921.4-4.976-.809-7.354-2.206a16.969 16.969 0 0 0 -7.472-2.831c-2.14-.16-4.171.58-6.535 1.44-5.1 1.857-11.455 4.169-22.306-1.686-10.45-5.64-14.727-12.752-18.163-18.465-1.878-3.123-3.5-5.82-5.765-7.837-5.676-5.061-11.411-14.435-11.411-23.97a1.75 1.75 0 1 0 -3.5 0c0 10.619 6.324 21 12.591 26.583 1.867 1.663 3.362 4.148 5.092 7.026 3.656 6.08 8.207 13.647 19.5 19.742 12.234 6.6 19.709 3.883 25.165 1.895 1.983-.721 3.7-1.348 5.071-1.239a13.789 13.789 0 0 1 5.966 2.358c2.224 1.308 4.706 2.767 8.011 2.767a11.759 11.759 0 0 0 1.59-.11c8.345-1.142 10.612-11.629 11.357-15.075a26.244 26.244 0 0 1 11.029-16.488c8.526-5.92 13.127-19.165 13.127-28.622.001-5.795-1.561-9.134-3.722-13.757zm-34.454-27.479c-7.119-1.729-12.848-6.3-15.018-11.841 5.687-2.44 12.973-2.886 24.365 3.544.446.315.886.62 1.318.921a39.746 39.746 0 0 1 6.337 5.074c-4.502 2.908-10.829 3.803-17.002 2.302z"/><path d="m6.562 58.253h.092a1.75 1.75 0 0 0 1.746-1.653c.066-1.276.158-2.509.275-3.666a1.75 1.75 0 0 0 -3.483-.351c-.122 1.213-.219 2.5-.287 3.838a1.749 1.749 0 0 0 1.657 1.832z"/><path d="m82.859 37.679a1.75 1.75 0 0 0 .827-3.4c-7.007-1.7-13.832 1.535-15.211 7.212s3.2 11.681 10.211 13.383a16.127 16.127 0 0 0 3.788.459 13.95 13.95 0 0 0 5.743-1.193 9.659 9.659 0 0 0 5.683-6.479 9.916 9.916 0 0 0 -2.7-9.088 1.75 1.75 0 1 0 -2.57 2.375 6.5 6.5 0 0 1 1.87 5.888 6.244 6.244 0 0 1 -3.722 4.114 11.272 11.272 0 0 1 -7.262.521c-5.134-1.246-8.56-5.354-7.637-9.155s5.85-5.882 10.98-4.637z"/><path d="m100.761 84.823c3.8-3.8 4.356-9.428 1.239-12.545a7.315 7.315 0 0 0 -6.229-1.965 10.944 10.944 0 0 0 -6.315 3.2c-3.8 3.8-4.357 9.428-1.24 12.545a7.142 7.142 0 0 0 5.14 2.018 10.67 10.67 0 0 0 7.405-3.253zm-10.071-1.235c-1.722-1.723-1.154-5.2 1.241-7.6a7.451 7.451 0 0 1 4.269-2.202 5.5 5.5 0 0 1 .656-.041 3.686 3.686 0 0 1 2.67 1.008c1.723 1.722 1.156 5.2-1.239 7.595s-5.875 2.961-7.597 1.24z"/><path d="m32.683 89.907a8.324 8.324 0 0 0 .58 5.663 7.834 7.834 0 0 0 6.862 4.688 6.055 6.055 0 0 0 2.59-.575c3.39-1.6 4.666-6.043 2.845-9.908a8.331 8.331 0 0 0 -4-4.052 6.249 6.249 0 0 0 -8.879 4.184zm4.917-1.079a2.6 2.6 0 0 1 1.117-.245 3.322 3.322 0 0 1 1.383.32 4.828 4.828 0 0 1 2.294 2.364c1 2.119.473 4.475-1.171 5.25s-3.8-.319-4.794-2.44a4.821 4.821 0 0 1 -.363-3.273 2.928 2.928 0 0 1 1.534-1.976z"/><path d="m59.058 66.138c-4.1 1.933-6.13 5.962-4.617 9.172a6.138 6.138 0 0 0 5.8 3.261 9.926 9.926 0 0 0 4.209-.983c4.1-1.933 6.129-5.962 4.616-9.172s-5.908-4.216-10.008-2.278zm3.9 8.284c-2.445 1.151-4.784.606-5.355-.6s.5-3.362 2.943-4.514a6.338 6.338 0 0 1 2.676-.634 2.851 2.851 0 0 1 2.678 1.234c.575 1.21-.494 3.362-2.938 4.514z"/><path d="m53.418 27.867c-2.284 2.681-10.773 4.125-13.588 4.012a1.75 1.75 0 0 0 -.16 3.5c.118.006.248.009.392.009 3.234 0 12.734-1.39 16.02-5.247a1.75 1.75 0 1 0 -2.664-2.27z"/><path d="m17.3 58.261a1.743 1.743 0 0 0 -1.915 1.567c-.24 2.4.177 9.856 3.64 12.66a1.75 1.75 0 0 0 2.2-2.721c-1.874-1.518-2.6-7.151-2.36-9.59a1.75 1.75 0 0 0 -1.565-1.916z"/><path d="m109.775 67.314h.059a1.75 1.75 0 0 0 1.748-1.693 39.21 39.21 0 0 0 -2.118-14.088 1.75 1.75 0 0 0 -3.264 1.267 35.954 35.954 0 0 1 1.882 12.7 1.751 1.751 0 0 0 1.693 1.814z"/><path d="m88.555 94.6c-4.071 4.208-4.918 13.148-4.952 13.527a1.749 1.749 0 0 0 1.584 1.9c.054 0 .108.007.161.007a1.751 1.751 0 0 0 1.741-1.591c.2-2.24 1.318-8.655 3.981-11.409a1.75 1.75 0 1 0 -2.515-2.434z"/><path d="m38.087 65.018a1.75 1.75 0 0 0 1.113 2.209 1.732 1.732 0 0 0 .546.088 1.752 1.752 0 0 0 1.663-1.2c1.3-3.946 7.176-7.348 9.174-7.008a1.75 1.75 0 1 0 .576-3.452c-3.905-.667-11.334 4.078-13.072 9.363z"/></g></svg>