<svg height="512" viewBox="0 0 61 60" width="512" xmlns="http://www.w3.org/2000/svg"><g id="014---Astronaut" fill="none"><g id="Icons" transform="translate(0 1)"><path id="Shape" d="m28.81 18c-.018463 2.3846879-1.4474314 4.5320661-3.64 5.47l-.16.06h-.06-.1l-4.19 1.47c-.8086062-.7510268-1.902499-1.1156578-3-1-1.6667418.1919278-3.0239531 1.4283192-3.37 3.07-4.8113594.8826101-9.52706148-1.9553851-11-6.62l-1.54-4.66c-1.95430792-5.6973 1.03678762-11.90683217 6.71-13.93l3.68-1.28c4.9190216-1.68472654 10.3324183.46196526 12.76 5.06l-9 3.14c-1.0340448.36376418-1.5826012 1.4920956-1.23 2.53l1.53 4.69c.4646627 1.4906021 1.5106777 2.7309079 2.9014976 3.4404331s3.0089638.8283369 4.4885024.3295669l5.21-1.77z" fill="#f5f5f5"/><path id="Shape" d="m21.9 5.64-9 3.14c-1.0340448.36376418-1.5826012 1.4920956-1.23 2.53l1.53 4.69c.92852 2.9504661 4.0058499 4.6561861 7 3.88-1.8976735-.5440949-3.3983737-1.999774-4-3.88l-1.56-4.73c-.3526012-1.0379044.1959552-2.16623582 1.23-2.53l9-3.14c-2.1012737-3.91511895-6.4195668-6.10619372-10.82-5.49 3.3451272.49525708 6.2574685 2.546881 7.85 5.53z" fill="#cfd8dc"/><path id="Shape" d="m28.8 18-3.12 1.08c-.3698471 1.954747-1.684555 3.5990682-3.51 4.39l-.16.06h-.06-.1l-2.27.79c.3922656.1665563.7565363.3925391 1.08.67l4.19-1.46h.1.06l.16-.06c2.1925686-.9379339 3.621537-3.0853121 3.64-5.47z" fill="#cfd8dc"/><path id="Shape" d="m28.81 18-5.21 1.81c-1.4861249.5003592-3.111524.3776508-4.5056845-.3401534-1.3941606-.7178043-2.4382677-1.9695309-2.8943155-3.4698466l-1.56-4.73c-.3526012-1.0379044.1959552-2.16623582 1.23-2.53l9-3.14c.325121.58622713.5930245 1.20240524.8 1.84l2.83 8.56c.2158369.6443036.3206612 1.3205892.31 2z" fill="#ff9801"/><path id="Shape" d="m28.5 16-2.8-8.52c-.2069755-.63759476-.474879-1.25377287-.8-1.84l-2.56.89c.13.31.25.62.36 1l2.8 8.47c.2158369.6443036.3206612 1.3205892.31 2l-5.21 1.81-.37.11c1.1088689.3027753 2.2832361.2644428 3.37-.11l5.2-1.81c.0138838-.6788389-.0875569-1.3551101-.3-2z" fill="#f57c00"/><path id="Shape" d="m14.28 27.25c-3.8662363 1.6607157-5.80438562 6.0161075-4.45 10 2.78 8.48 3.15 10 3.94 11.25l-.21.11-3.69 1.26c-.98636481.3327334-2.06518415.2540687-2.99284803-.2182308-.92766388-.4722994-1.6259409-1.2984038-1.93715197-2.2917692l-3.73-11.36c-.70712661-2.0701118.37987126-4.3242959 2.44-5.06z" fill="#607d8b"/><path id="Shape" d="m50.46 48.45-9.22 3.19-1.24-3.78c-.155661-.4979648-.5053319-.9122439-.9700822-1.149323s-1.005403-.2769732-1.4999178-.110677l-14.74 5.11c-3.168738 1.0842389-6.6745817-.0128554-8.66-2.71-.1333286-.1694743-.2568633-.3464295-.37-.53-.76-1.21-1.16-2.76-3.94-11.24-1.35438562-3.9838925.5837637-8.3392843 4.45-10-.0803035.3946977-.1005317.7992605-.06 1.2l1 9.15c.145445 1.4508745 1.0688749 2.7076587 2.41 3.28l6.12 2.54 2.2.91c.8566886.3548388 1.8137384.3833013 2.69.08 1.1491911-.4315142 2.0422379-1.3586507 2.4304189-2.5231937s.2300254-2.4420802-.4304189-3.4768063h.1l7.37-2.56c.3064813-.1097656.6206748-.1966702.94-.26l1.22 3.73c.3109349.9931735 1.0097356 1.8187129 1.9379229 2.2893961.9281872.4706832 2.0071082.5466254 2.9920771.2106039l2.77-1 .07.22 2.39 7.27z" fill="#f5f5f5"/><path id="Shape" d="m50.43 48.36-2.39-7.27-.07-.22-2.7.93 2.16 6.56.03.09-6.53 2.26.31.93 9.22-3.19z" fill="#cfd8dc"/><path id="Shape" d="m55.4 54.11-11.06 3.89c-.5124971.152648-1.0543937-.1249088-1.23-.63l-1.87-5.68 9.22-3.19c.9836263-.335768 2.0612223-.2595761 2.9878177.2112548.9265953.470831 1.6234625 1.2962973 1.9321823 2.2887452l.63 1.9c.1425775.5006229-.122736 1.0269005-.61 1.21z" fill="#607d8b"/><path id="Shape" d="m48 40.87-2.77 1c-.9849689.3360215-2.0638899.2600793-2.9920771-.2106039-.9281873-.4706832-1.626988-1.2962226-1.9379229-2.2893961l-1.25-3.77c3.8932763-.7979613 7.7591863 1.4783902 8.95 5.27z" fill="#f5f5f5"/><path id="Shape" d="m51.68 36.63-3.68 4.46v-.22c-1.1897543-3.7779996-5.0368279-6.0508783-8.92-5.27-.3193252.0633298-.6335187.1502344-.94.26l-7.37 2.56-.25-.74 4.28-5.21c1.3006323-1.6297158 3.2101329-2.6579191 5.2866641-2.8466946 2.0765312-.1887756 4.1401423.4782357 5.7133359 1.8466946z" fill="#f5f5f5"/><path id="Shape" d="m58.77 38.84-7.51 9.16c-.2054822.2417238-.5134772.3716012-.83.35l-2.43-7.26 3.64-4.46c.6524341-.8091025 1.6056902-1.3182942 2.640958-1.4106951 1.0352677-.092401 2.0636319.2399247 2.849042.9206951l1.49 1.29c.2074797.1666732.3399622.4091759.3681156.6738175.0281533.2646416-.0503451.5295891-.2181156.7361825z" fill="#607d8b"/><path id="Shape" d="m28.6 44.43c-.8762616.3033013-1.8333114.2748388-2.69-.08l-2.2-.91 3.46-7.17 1.65.68c.752898.3052029 1.3899544.8407504 1.82 1.53.6395489 1.0365378.781273 2.3050186.386258 3.4571456s-1.285247 2.0667942-2.426258 2.4928544z" fill="#f5f5f5"/><path id="Shape" d="m27.17 36.25-3.46 7.17-6.12-2.52c-1.3411251-.5723413-2.264555-1.8291255-2.41-3.28l-1-9.15c-.0405317-.4007395-.0203035-.8053023.06-1.2-.0056349-.0364502-.0056349-.0735498 0-.11.3460469-1.6416808 1.7032582-2.8780722 3.37-3.07 1.097501-.1156578 2.1913938.2489732 3 1 .7599352.638455 1.2553621 1.536639 1.39 2.52l.68 6.63v.15z" fill="#f5f5f5"/><path id="Shape" d="m22.66 34.39v-.15l-.66-6.63c-.0999675-1.0083188-.5788789-1.941124-1.34-2.61-.8086062-.7510268-1.902499-1.1156578-3-1-.3801181.0417599-.7513125.1429947-1.1.3.3969292.1634018.7649696.3896284 1.09.67.7715934.6745552 1.2548281 1.6195475 1.35 2.64l.68 6.63v.15l4.51 1.86-3 6.14 2.5 1 3.46-7.17z" fill="#cfd8dc"/><path id="Shape" d="m30.74 38.42h-.1c-.4300456-.6892496-1.067102-1.2247971-1.82-1.53l-1.65-.68-4.51-1.86v-.15l-.66-6.59c-.0999675-1.0083188-.5788789-1.941124-1.34-2.61l4.19-1.46h.1.06l.16-.06.59-.2 1.87 5.72 2.86 8.72z" fill="#f5f5f5"/><path id="Shape" d="m41.51 29.66c-2.57632-.2713857-5.1143495.7829886-6.74 2.8l-4.28 5.21-2.86-8.67c1-.35 1.49-.2 4.44.08.3081435.0075728.6025606-.1273825.7979604-.3657702.1953997-.2383877.2699447-.5535661.2020396-.8542298l-.36-1.6 7.58-1.79z" fill="#607d8b"/><path id="Shape" d="m40.33 24.42-7.58 1.79-.32-1.45c-.4785074-2.1159753.8169147-4.2276908 2.92-4.76 1.0152168-.2280491 2.0794885-.0387773 2.9538298.5253138.8743413.5640912 1.4854753 1.4557263 1.6961702 2.4746862z" fill="#f5f5f5"/></g><g id="Stroke" fill="#000" transform="translate(-1)"><path id="Shape" d="m14.77 18.94c-.1797945-.521642-.7481157-.7990902-1.27-.62l-.92.32c-.2426508.080329-.507667.0572479-.7327775-.0638199-.2251106-.1210679-.3904696-.329449-.4572225-.5761801l-.62-1.89c-.1875381-.5191367.0810135-1.0920467.6-1.28l.92-.32c.4727147-.2135632.7036541-.7531241.5318316-1.2425579-.1718226-.4894338-.6893563-.7662329-1.1918316-.6374421l-.92.37c-1.54646165.5477023-2.36614497 2.2360718-1.84 3.79l.62 1.9c.41900435 1.185453 1.5327797 1.9838583 2.79 2 .6479056-.0413995 1.2822545-.2042271 1.87-.48.521642-.1797945.7990902-.7481157.62-1.27z"/><path id="Shape" d="m58.82 36.39c-1.759172-1.5345897-4.3673303-1.5810132-6.18-.11l-5.25-4.55c-1.1531922-1.0131695-2.5539237-1.7031851-4.06-2l-1.34-6c-.2893829-1.3044497-1.0888344-2.4388066-2.22-3.15-1.7083507-1.0364694-3.8738925-.936767-5.479779.2522911-1.6058866 1.189058-2.3331195 3.2312736-1.840221 5.1677089.87 3.71-.92-3.92.72 3.06-3-.28-3.18-.34-3.88-.25l-1.36-4.17c2.4578697-1.8264069 3.4726652-5.0197914 2.52-7.93-3-9.25-2.93-9.1-3.59-10.37-2.6098699-5.10574696-8.5727617-7.52071817-14-5.67l-3.73 1.24c-6.15881884 2.2375667-9.41404885 8.9742076-7.34 15.19l1.56 4.73c1.10387082 3.356799 3.77055432 5.9675381 7.15 7l-6.18 2.17c-2.57652433.9155562-3.93970581 3.731016-3.06 6.32l3.74 11.35c.39305027 1.24973 1.273998 2.287847 2.443123 2.8789988s2.52739544.6852643 3.766877.2610012l3.21-1.11c1.6466601 2.147827 4.1936386 3.4139336 6.9 3.43 1.91 0 1.36 0 17.54-5.58.2412781-.0812156.5051799-.061094.7313555.0557635.2261757.1168574.395281.3204561.4686445.5642365l3.11 9.46c.3514583 1.035608 1.4695604 1.5968864 2.51 1.26l11-3.83c.5110416-.1564528.9382049-.5109378 1.1861953-.9843739.2479903-.4734361.296175-1.0264338.1338047-1.5356261-.71-2.16-1.14-4.3-3.94-5.11l6.52-8c.7088335-.8406314.6060955-2.0958219-.23-2.81zm-7.53 1.36-2 2.42c-1.7924729-3.4907545-5.7019532-5.3471429-9.54-4.53-1.45.4.9-.39-6.21 2.09l3-3.64c1.1312523-1.4064951 2.7863448-2.2918461 4.58419-2.4521996 1.7978451-.1603534 3.5834982.4181105 4.94581 1.6021996zm-3.65 3.53-1.76.61c-.7357831.2468678-1.5401793.1852268-2.2297573-.1708668-.689578-.3560935-1.2055453-.9762796-1.4302427-1.7191332l-.84-2.57c2.6636369-.0646448 5.11607 1.4436408 6.26 3.85zm-28.86-15.22c.7815988-.0834955 1.5638513.1516535 2.1698626.6522715.6060114.5006181.9845941 1.2244199 1.0501374 2.0077285l.63 6-2.14 1.43c-.4021248.3239123-.4915129.9007244-.206288 1.3311547s.8512619.5729246 1.306288.3288453l2.07-1.38 3.19 1.32-2.59 5.38-5.26-2.13c-1.0068167-.4285452-1.7004487-1.3712716-1.81-2.46l-1-9.16c-.1887774-1.6284341.9645749-3.1068625 2.59-3.32zm11.07 10.81-5.25-2.18c-.69-6.55-.58-6.91-1.29-8.16l2.82-1c1.92 5.87 1.11 3.47 3.72 11.34zm-1.19 1.67.77.32c1.5045298.6546866 2.2039794 2.3966281 1.57 3.91-.267913.7243388-.8183163 1.3089382-1.5252121 1.6199724-.7068959.3110342-1.5097551.3218703-2.2247879.0300276l-1.22-.5zm7.92-16.6c.752269-.1592556 1.5369858-.0110693 2.1793726.4115536.6423869.4226229 1.0890939 1.0845839 1.2406274 1.8384464l.11.48-5.6 1.33-.11-.47c-.3718985-1.5906036.5971413-3.1864077 2.18-3.59zm-3.58 9.06c.6345811.0536055 1.2567574-.1982067 1.6754208-.6780897s.5837602-1.1304641.4445792-1.7519103l-.18-.57 5.64-1.34.68 3c-2.4431149.1161072-4.7205465 1.2693753-6.26 3.17l-3.12 3.8-1.94-5.88c.34.01-.47-.06 3.06.25zm-4.45-13.69c.1073605.3249266.1810803.6600165.22 1l-4.5 1.56c-1.2262984.4136805-2.5676848.3146389-3.7199278-.2746619-1.1522431-.5893008-2.0176964-1.6189206-2.4000722-2.8553381l-1.56-4.74c-.1875381-.5191367.0810135-1.0920467.6-1.28l8.21-2.84c.31.71.22.52 3.15 9.43zm-23.3 3.9-1.55-4.74c-1.74136605-5.1759961.96028729-10.79667716 6.09-12.67l3.68-1.27c4.0369159-1.38892587 8.5051413.07325389 10.94 3.58l-7.87 2.72c-1.5504443.54360831-2.3751887 2.2332199-1.85 3.79l1.56 4.74c.9063491 2.8188795 3.519076 4.7381048 6.48 4.76 1.43 0 1.95-.28 5.81-1.62-.4589659 1.4552521-1.5671794 2.6151822-3 3.14l-3.71 1.28c-1.2267238-.8573201-2.7831316-1.0933942-4.2089054-.6384018-1.4257738.4549925-2.5577335 1.5489775-3.0610946 2.9584018-4.1446343.4690716-8.04313392-2.0559502-9.31-6.03zm5.29 28.71c-.7317134.2503188-1.53373656.1925365-2.22201068-.1600861s-1.20369942-.9698071-1.42798932-1.7099139l-3.73-11.36c-.53262147-1.5569301.2883035-3.2523186 1.84-3.8l5.81-2c-1.41382777 2.299373-1.74653676 5.1036346-.91 7.67 3.17 9.73 3.1 9.63 3.45 10.44zm27.66-3.26-14.74 5.11c-2.756096.9383543-5.8025021-.016429-7.53-2.36-1-1.28-.95-1.71-4.16-11.49-.9554068-2.902928.0511351-6.0916527 2.5-7.92l.91 8.75c.1794636 1.8107367 1.3284575 3.3810283 3 4.1 9.1 3.77 8.88 3.81 10.15 3.81 1.6013254-.020358 3.0960038-.8065293 4.0200796-2.1144824.9240757-1.3079531 1.1657182-2.9794009.6499204-4.4955176l6.43-2.23.92 2.82c.3954188 1.2480828 1.2767072 2.2843901 2.4450666 2.8751548 1.1683595.5907647 2.5253744.6862243 3.7649334.2648452l1.81-.63 1.86 5.68-7.33 2.53-.9-2.82c-.2410685-.7628262-.7825913-1.3944722-1.4996462-1.7492257-.717055-.3547535-1.5477135-.4019761-2.3003538-.1307743zm17.23 5.61.63 1.89-11 3.84-1.56-4.74 8.29-2.87c.7318388-.243853 1.5311505-.1817372 2.2165302.1722501.6853796.3539873 1.1987027.9698257 1.4234698 1.7077499zm-3.43-4.48-1.8-5.49 3.3-4c.4793267-.6025253 1.1841682-.9828679 1.9509199-1.0527442.7667517-.0698764 1.5287343.17679 2.1090801.6827442l1.44 1.27z"/><path id="Shape" d="m21.31 11.71c-.2386162-.1171894-.5140741-.1345442-.7655117-.0482298-.2514377.0863144-.4581586.2691933-.5744883.5082298l-.61 1.27c-.1473495.3093717-.12603.6726478.0564953.9626603.1825254.2900125.5008361.466371.8435047.4673397.3823951.0007653.7317466-.216609.9-.56l.61-1.31c.2113833-.4840053.0099321-1.0489444-.46-1.29z"/><path id="Shape" d="m24.69 12.64c-.4971358-.2359653-1.0915024-.0259259-1.33.47l-1.83 3.8c-.18509.3253853-.172946.7268982.0314706 1.0405027.2044166.3136044.5668689.4867761.9392789.4487665.37241-.0380095.6924041-.2808342.8292505-.6292692l1.83-3.77c.1229515-.2418744.1423388-.5233275.0537132-.7797759-.0886255-.2564484-.2776551-.4658751-.5237132-.5802241z"/><path id="Shape" d="m39 6c.5522847 0 1-.44771525 1-1v-1h1c.5522847 0 1-.44771525 1-1s-.4477153-1-1-1h-1v-1c0-.55228475-.4477153-1-1-1s-1 .44771525-1 1v1h-1c-.5522847 0-1 .44771525-1 1s.4477153 1 1 1h1v1c0 .55228475.4477153 1 1 1z"/><path id="Shape" d="m53 26c.5522847 0 1-.4477153 1-1v-1h1c.5522847 0 1-.4477153 1-1s-.4477153-1-1-1h-1v-1c0-.5522847-.4477153-1-1-1s-1 .4477153-1 1v1h-1c-.5522847 0-1 .4477153-1 1s.4477153 1 1 1h1v1c0 .5522847.4477153 1 1 1z"/><path id="Shape" d="m6 56h-1v-1c0-.5522847-.44771525-1-1-1s-1 .4477153-1 1v1h-1c-.55228475 0-1 .4477153-1 1s.44771525 1 1 1h1v1c0 .5522847.44771525 1 1 1s1-.4477153 1-1v-1h1c.55228475 0 1-.4477153 1-1s-.44771525-1-1-1z"/></g></g></svg>