<svg id="Layer_1" enable-background="new 0 0 512 512" height="512" viewBox="0 0 512 512" width="512" xmlns="http://www.w3.org/2000/svg"><g><circle cx="256" cy="172.5" fill="#b9f5ff" r="165"/><path d="m256 7.5c-5.058 0-10.058.24-15 .686 84.096 7.58 150 78.245 150 164.314s-65.904 156.734-150 164.314c4.942.445 9.942.686 15 .686 91.127 0 165-73.873 165-165s-73.873-165-165-165z" fill="#8aeeff"/><g fill="#f59a7e"><ellipse cx="166" cy="231" rx="20" ry="28"/><ellipse cx="346" cy="231" rx="20" ry="28"/></g><path d="m176 252.224v-59.79c0-41.697 33.802-75.498 75.498-75.498h9.004c41.697 0 75.498 33.802 75.498 75.498v59.79c0 44.183-35.817 80-80 80-44.183 0-80-35.817-80-80z" fill="#fdc19a"/><path d="m260.502 116.936h-9.004c-3.564 0-7.065.265-10.498.743 36.725 5.112 65 36.623 65 74.755v59.79c0 39.053-27.99 71.551-65 78.575 4.861.922 9.871 1.425 15 1.425 44.183 0 80-35.817 80-80v-59.79c0-41.697-33.802-75.498-75.498-75.498z" fill="#fba88d"/><path d="m315.715 165.708c5.538 3.747-7.298 49.793 17.078 51.756 1.422.115 2.74-.747 3.255-2.078 4.214-10.904 58.785-139.886-80.894-139.886s-87.39 122.721-81.233 138.997c.66 1.745 2.485 1.735 4.348 1.838 16.81.925 10.849-46.367 15.915-50.136 7.627-5.674 115.572-4.523 121.531-.491z" fill="#497285"/><g><path d="m255.154 75.5c-5.343 0-10.402.181-15.196.528 81.823 6.038 85.016 62.945 77.276 102.346-.344 14.951-1.428 37.723 15.558 39.091 1.422.115 2.74-.747 3.255-2.078 4.215-10.905 58.786-139.887-80.893-139.887z" fill="#426778"/></g><path d="m171 331.579v30.577c0 5.713 4.631 10.344 10.344 10.344h149.311c5.713 0 10.344-4.631 10.344-10.344v-30.577c0-5.713-4.631-10.344-10.344-10.344h-149.311c-5.713-.001-10.344 4.631-10.344 10.344z" fill="#e2e2e2"/><path d="m330.656 321.234h-30c5.713 0 10.344 4.631 10.344 10.344v30.577c0 5.713-4.631 10.344-10.344 10.344h30c5.713 0 10.344-4.631 10.344-10.344v-30.577c0-5.712-4.631-10.344-10.344-10.344z" fill="#d0d0d0"/><path d="m416 504.5h-320v-58c0-40.869 33.131-74 74-74h172c40.869 0 74 33.131 74 74z" fill="#f1f1f1"/><path d="m342 372.5h-30c40.869 0 74 33.131 74 74v58h30v-58c0-40.869-33.131-74-74-74z" fill="#e2e2e2"/><path d="m225.803 468.077h-52c-3.314 0-6-2.686-6-6v-32c0-3.314 2.686-6 6-6h52c3.314 0 6 2.686 6 6v32c0 3.314-2.686 6-6 6z" fill="#f55632"/><g><path d="m350.97 497h-247.47v-50.5c0-14.077 4.342-27.528 12.556-38.898 2.426-3.357 1.67-8.046-1.688-10.472-3.357-2.425-8.046-1.67-10.472 1.688-10.072 13.943-15.396 30.431-15.396 47.682v58c0 4.142 3.358 7.5 7.5 7.5h254.97c4.142 0 7.5-3.358 7.5-7.5s-3.358-7.5-7.5-7.5z"/><path d="m348.211 365.261c.178-1.01.289-2.044.289-3.105v-30.577c0-4.184-1.458-8.029-3.879-11.075 22.815-13.678 42.236-32.46 56.7-55.022 17.781-27.735 27.179-59.888 27.179-92.981 0-46.371-18.139-89.886-51.076-122.527-2.942-2.916-7.691-2.895-10.606.048-2.916 2.942-2.895 7.69.048 10.606 30.072 29.802 46.634 69.533 46.634 111.872 0 30.219-8.578 59.572-24.807 84.886-15.511 24.196-37.257 43.639-62.941 56.348h-7.566c12.719-12.907 21.238-29.565 24.175-47.549 1.2.201 2.414.314 3.639.314 15.42 0 27.5-15.593 27.5-35.5 0-17.841-9.705-32.208-22.819-35 14.54-50.033 2.845-78.89-6.301-92.339-16.094-23.662-46.114-35.66-89.226-35.66-43.972 0-74.43 11.922-90.527 35.434-15.341 22.407-16.993 53.635-4.987 92.994-12.255 3.614-21.14 17.502-21.14 34.572 0 19.907 12.08 35.5 27.5 35.5 1.219 0 2.427-.113 3.621-.312 2.856 17.903 11.18 34.418 24.164 47.546h-7.538c-25.684-12.709-47.43-32.152-62.941-56.348-16.228-25.314-24.806-54.667-24.806-84.886 0-86.846 70.654-157.5 157.5-157.5 31.564 0 62.013 9.3 88.056 26.894 3.433 2.319 8.096 1.416 10.414-2.017 2.319-3.432 1.416-8.094-2.016-10.413-28.533-19.276-61.886-29.464-96.454-29.464-95.117 0-172.5 77.383-172.5 172.5 0 33.094 9.398 65.247 27.179 92.981 14.464 22.562 33.885 41.343 56.7 55.022-2.421 3.046-3.879 6.891-3.879 11.075v30.577c0 1.056.11 2.085.287 3.091-11.89.908-23.479 4.403-33.839 10.258-3.605 2.039-4.876 6.614-2.838 10.22 2.039 3.605 6.615 4.875 10.22 2.838 9.91-5.601 21.208-8.562 32.67-8.562h172c36.668 0 66.5 29.832 66.5 66.5v50.5h-26.119c-4.142 0-7.5 3.358-7.5 7.5s3.358 7.5 7.5 7.5h33.619c4.142 0 7.5-3.358 7.5-7.5v-58c0-42.848-33.243-78.052-75.289-81.239zm-2.211-154.761c7.366 0 12.5 10.804 12.5 20.5s-5.134 20.5-12.5 20.5c-.841 0-1.676-.159-2.5-.463v-34.117c.857-2.174 1.66-4.308 2.427-6.416.025 0 .049-.004.073-.004zm-168.996-98.592c13.133-19.182 39.427-28.908 78.15-28.908 37.844 0 63.69 9.79 76.822 29.097 14.513 21.338 13.919 56.623-1.56 97.086-4.058-2.158-6.201-9.197-5.717-29.245.246-10.195.409-16.93-4.782-20.442-1.816-1.229-3.875-2.622-24.237-3.7-11.174-.591-25.409-.94-40.084-.982-1.234-.004-2.443-.005-3.631-.005-55.035 0-60.078 3.751-62.258 5.373-4.549 3.384-4.964 9.798-5.717 21.442-.397 6.149-.849 13.12-1.997 18.814-.871 4.321-1.876 6.496-2.542 7.545-20.092-52.915-12.472-81.434-2.447-96.075zm-23.504 119.092c0-8.996 4.421-18.94 10.942-20.329.565 1.532 1.148 3.075 1.751 4.629.28.721.521 1.34.714 1.852.421 1.112.97 2.029 1.593 2.797v31.088c-.824.304-1.659.463-2.5.463-7.366 0-12.5-10.804-12.5-20.5zm51.233 72.487c-13.692-13.693-21.233-31.899-21.233-51.267v-29.109c7.525-2.489 10.924-10.747 12.362-16.113 2.003-7.479 2.585-16.472 3.098-24.407.221-3.417.504-7.795.893-10.402 6.096-1.143 23.746-2.478 55.565-2.376 26.001.071 46.548 1.083 54.348 2.138.07 2.168-.003 5.194-.062 7.624-.189 7.838-.425 17.593 1.714 25.989 3.195 12.539 10.466 17.26 17.082 18.804v27.851c0 24.943-13.031 48.327-34.133 61.514h-76.746c-4.67-2.921-9-6.359-12.888-10.246zm-26.233 58.669v-30.577c0-1.568 1.276-2.844 2.844-2.844h67.156v36.265h-67.156c-1.568 0-2.844-1.276-2.844-2.844zm85 2.844v-36.266h67.156c1.568 0 2.844 1.276 2.844 2.844v30.577c0 1.568-1.276 2.844-2.844 2.844h-67.156z"/><path d="m225.803 475.577c7.444 0 13.5-6.056 13.5-13.5v-32c0-7.444-6.056-13.5-13.5-13.5h-52c-7.444 0-13.5 6.056-13.5 13.5v32c0 7.444 6.056 13.5 13.5 13.5zm-50.5-44h49v29h-49z"/><path d="m224.282 221.929c-4.142 0-7.5 3.358-7.5 7.5v4.617c0 4.142 3.358 7.5 7.5 7.5s7.5-3.358 7.5-7.5v-4.617c0-4.142-3.358-7.5-7.5-7.5z"/><path d="m287.718 241.546c4.142 0 7.5-3.358 7.5-7.5v-4.617c0-4.142-3.358-7.5-7.5-7.5s-7.5 3.358-7.5 7.5v4.617c0 4.142 3.358 7.5 7.5 7.5z"/><path d="m273.012 296.596c3.99-1.114 6.321-5.251 5.207-9.241s-5.25-6.321-9.241-5.207c-7.763 2.168-18.193 2.168-25.956 0-3.992-1.114-8.126 1.217-9.241 5.207s1.217 8.126 5.207 9.241c5.247 1.465 11.129 2.198 17.012 2.198s11.766-.732 17.012-2.198z"/></g></g></svg>