<svg id="Capa_1" enable-background="new 0 0 511.99 511.99" height="512" viewBox="0 0 511.99 511.99" width="512" xmlns="http://www.w3.org/2000/svg"><g><path d="m168.915 261.166c59.293 0 114.07 148.507 172.101 190.01 13.22 9.455 31.363 7.866 42.855-3.627l115.158-115.158c8.436-8.436 6.891-22.577-3.246-28.868-59.619-36.999-115.621-192.86-176.365-192.86z" fill="#fbf1cf"/><path d="m319.417 110.663-150.502 150.503c55.787 0 107.576 131.451 161.838 181.566-46.526-82.724-21.084-270.884 16.041-322.241-9.036-6.228-18.151-9.828-27.377-9.828z" fill="#fae0bd"/><g fill="#616a84"><path d="m410.86 320.225-50.167 50.167c19.369 24.188 38.954 41.276 59.06 41.275l50.167-50.167c-20.105.001-39.69-17.087-59.06-41.275z"/><path d="m328.309 202.106-50.168 50.167c13.832 17.273 27.554 38.159 41.276 59.059l50.167-50.167c-13.721-20.899-27.443-41.786-41.275-59.059z"/><path d="m461.028 270.058c-13.832-17.273-27.554-38.159-41.275-59.059l-50.168 50.167c13.721 20.9 27.444 41.787 41.276 59.059z"/><path d="m328.309 202.106 50.168-50.167c-19.369-24.188-38.954-41.275-59.06-41.275l-50.167 50.167c20.105 0 39.69 17.088 59.059 41.275z"/><path d="m360.693 370.393c-13.832-17.273-27.554-38.159-41.276-59.059l-50.167 50.167c13.721 20.9 27.444 41.787 41.275 59.059z"/></g><path d="m227.974 302.441 50.168-50.167c-19.369-24.188-38.955-41.275-59.06-41.275l-50.167 50.167c20.105 0 39.69 17.088 59.059 41.275z" fill="#4b5165"/><path d="m27.618 373.602-14.155-14.155c-7.97-7.97-7.97-20.891 0-28.86l269.964-269.963c7.97-7.969 20.891-7.969 28.86 0l14.155 14.155c7.97 7.97 7.97 20.891 0 28.86l-269.963 269.963c-7.97 7.969-20.891 7.969-28.861 0z" fill="#efd176"/><path d="m100.008 330.072 226.433-226.433c7.97-7.969 7.97-20.891 0-28.86l-14.155-14.155c-7.97-7.969-20.891-7.969-28.86 0l-226.433 226.433z" fill="#b0da87"/><path d="m146.168 197.883-89.175 89.174 43.015 43.015 56.94-56.94c-14.497-17.139-15.264-56.046-10.78-75.249z" fill="#89d47f"/><path d="m305.704 325.046-36.454 36.454c13.721 20.9 27.444 41.787 41.275 59.059l7.698-7.698c-7.939-25.575-11.801-56.099-12.519-87.815z" fill="#4b5165"/><path d="m314.374 216.041-36.232 36.232c9.351 11.677 18.652 25.008 27.936 38.876 1.113-25.777 4.039-51.463 8.296-75.108z" fill="#4b5165"/><path d="m319.417 110.663-50.167 50.167c17.037 0 33.701 12.273 50.177 30.737 7.27-30.997 16.848-56.521 27.363-71.071-9.035-6.228-18.149-9.833-27.373-9.833z" fill="#4b5165"/><path d="m499.737 297.151c-53.57-33.244-106.223-171.498-165.233-191.419 8.027-10.913 7.107-26.39-2.76-36.256l-14.154-14.155c-10.906-10.906-28.56-10.908-39.467 0l-11.614 11.614c-2.929 2.929-2.929 7.678 0 10.606 2.929 2.93 7.678 2.929 10.606 0l11.614-11.614c5.044-5.044 13.209-5.045 18.254 0l14.155 14.155c5.033 5.033 5.033 13.221 0 18.254-12.373 12.373-211.394 211.394-221.13 221.13l-32.408-32.409 184.116-184.116c2.929-2.929 2.929-7.678 0-10.606-2.929-2.929-7.678-2.929-10.606 0l-232.95 232.949c-10.88 10.881-10.88 28.586 0 39.467l14.155 14.155c10.881 10.881 28.586 10.881 39.467 0l110.085-110.086c52.305 5.359 107.793 147.695 164.786 188.456 13.184 9.429 30.734 10.123 44.715 1.689 3.547-2.139 4.688-6.749 2.548-10.296-2.139-3.547-6.749-4.688-10.296-2.548-8.824 5.323-19.909 4.913-28.242-1.046-8.194-5.86-16.461-14.18-24.739-24.024l39.477-39.477c14.328 16.887 28.893 29.627 44.211 34.911l-6.524 6.524c-2.929 2.929-2.929 7.678 0 10.606 2.929 2.929 7.678 2.929 10.606 0 11.303-11.303 85.628-85.628 95.922-95.922 11.889-11.886 9.615-31.725-4.594-40.542zm-448.562 71.148c-5.033 5.032-13.221 5.032-18.254 0l-14.155-14.155c-5.032-5.033-5.032-13.221 0-18.254l38.227-38.227 32.409 32.409zm399.866-98.86-39.493 39.493c-10.813-14.22-21.633-30.488-32.342-46.78l39.338-39.338c10.666 16.201 21.49 32.341 32.497 46.625zm-40.909-59.426-39.337 39.337c-10.896-16.554-21.638-32.594-32.45-46.673l39.444-39.444c10.813 14.22 21.633 30.488 32.343 46.78zm-50.168 50.167-39.337 39.337c-10.896-16.554-21.638-32.595-32.45-46.673l39.444-39.444c10.813 14.221 21.634 30.488 32.343 46.78zm-37.595-141.862c15.011 1.538 30.468 14.591 46.014 33.108l-39.498 39.498c-14.328-16.887-28.894-29.627-44.211-34.911zm-50.167 50.167c15.011 1.538 30.468 14.591 46.014 33.108l-39.498 39.498c-14.328-16.887-28.893-29.627-44.211-34.911zm-87.862 87.863 37.695-37.695c15.011 1.538 30.468 14.591 46.014 33.108l-39.498 39.498c-14.329-16.888-28.894-29.627-44.211-34.911zm53.67 46.664 39.444-39.444c10.813 14.22 21.633 30.488 32.342 46.78l-39.337 39.337c-10.896-16.555-21.637-32.595-32.449-46.673zm73.217 106.24c-10.849-14.249-21.679-30.523-32.356-46.765l39.337-39.337c10.896 16.554 21.638 32.594 32.45 46.672zm17.811-96.933 39.337-39.337c10.896 16.554 21.638 32.594 32.45 46.673l-39.444 39.444c-10.813-14.22-21.634-30.488-32.343-46.78zm87.762 91.695c-15.011-1.539-30.468-14.592-46.014-33.108l39.498-39.498c14.328 16.887 28.893 29.627 44.21 34.911zm76.926-76.926-26.758 26.758c-15.011-1.538-30.468-14.591-46.014-33.108l39.563-39.563c10.268 12.078 20.698 22.133 31.312 28.72 6.004 3.727 6.94 12.15 1.897 17.193z"/></g></svg>