<?xml version="1.0" encoding="iso-8859-1"?>
<!-- Generator: Adobe Illustrator 19.0.0, SVG Export Plug-In . SVG Version: 6.00 Build 0)  -->
<svg version="1.1" id="Layer_1" xmlns="http://www.w3.org/2000/svg" xmlns:xlink="http://www.w3.org/1999/xlink" x="0px" y="0px"
	 viewBox="0 0 512 512" style="enable-background:new 0 0 512 512;" xml:space="preserve">
<polygon style="fill:#F9B233;" points="503.742,272.516 437.677,294.538 437.677,217.462 503.742,239.484 "/>
<polygon style="fill:#FBC566;" points="470.71,294.538 371.613,272.516 371.613,239.484 470.71,217.462 "/>
<polygon style="fill:#0E3759;" points="503.742,107.355 503.742,173.419 448.688,195.441 470.71,107.355 "/>
<polygon style="fill:#134A79;" points="470.71,107.355 470.71,173.419 415.656,195.441 437.677,107.355 "/>
<polygon style="fill:#0E3759;" points="437.677,107.355 437.677,173.419 382.624,195.441 404.645,107.355 "/>
<g>
	<polygon style="fill:#134A79;" points="404.645,107.355 404.645,195.441 371.613,173.419 371.613,107.355 	"/>
	<polygon style="fill:#134A79;" points="503.742,173.419 503.742,239.484 470.71,239.484 448.688,206.452 470.71,173.419 	"/>
</g>
<polygon style="fill:#0E3759;" points="470.71,173.419 470.71,239.484 437.677,239.484 415.656,206.452 437.677,173.419 "/>
<polygon style="fill:#134A79;" points="437.677,173.419 437.677,239.484 404.645,239.484 382.624,206.452 404.645,173.419 "/>
<g>
	<rect x="371.613" y="173.419" style="fill:#0E3759;" width="33.032" height="66.065"/>
	<polygon style="fill:#0E3759;" points="503.742,404.645 503.742,338.581 448.688,316.559 470.71,404.645 	"/>
</g>
<polygon style="fill:#134A79;" points="470.71,404.645 470.71,338.581 415.656,316.559 437.677,404.645 "/>
<polygon style="fill:#0E3759;" points="437.677,404.645 437.677,338.581 382.624,316.559 404.645,404.645 "/>
<g>
	<polygon style="fill:#134A79;" points="404.645,404.645 404.645,316.559 371.613,338.581 371.613,404.645 	"/>
	<polygon style="fill:#134A79;" points="503.742,338.581 503.742,272.516 470.71,272.516 448.688,305.548 470.71,338.581 	"/>
</g>
<polygon style="fill:#0E3759;" points="470.71,338.581 470.71,272.516 437.677,272.516 415.656,305.548 437.677,338.581 "/>
<polygon style="fill:#134A79;" points="437.677,338.581 437.677,272.516 404.645,272.516 382.624,305.548 404.645,338.581 "/>
<rect x="371.613" y="272.516" style="fill:#0E3759;" width="33.032" height="66.065"/>
<polygon style="fill:#F9B233;" points="8.258,272.516 74.323,294.538 74.323,217.462 8.258,239.484 "/>
<polygon style="fill:#FBC566;" points="41.29,294.538 140.387,272.516 140.387,239.484 41.29,217.462 "/>
<polygon style="fill:#0E3759;" points="8.258,107.355 8.258,173.419 63.312,195.441 41.29,107.355 "/>
<polygon style="fill:#134A79;" points="41.29,107.355 41.29,173.419 96.344,195.441 74.323,107.355 "/>
<polygon style="fill:#0E3759;" points="74.323,107.355 74.323,173.419 129.376,195.441 107.355,107.355 "/>
<g>
	<polygon style="fill:#134A79;" points="107.355,107.355 107.355,195.441 140.387,173.419 140.387,107.355 	"/>
	<polygon style="fill:#134A79;" points="8.258,173.419 8.258,239.484 41.29,239.484 63.312,206.452 41.29,173.419 	"/>
</g>
<polygon style="fill:#0E3759;" points="41.29,173.419 41.29,239.484 74.323,239.484 96.344,206.452 74.323,173.419 "/>
<polygon style="fill:#134A79;" points="74.323,173.419 74.323,239.484 107.355,239.484 129.376,206.452 107.355,173.419 "/>
<g>
	<rect x="107.355" y="173.419" style="fill:#0E3759;" width="33.032" height="66.065"/>
	<polygon style="fill:#0E3759;" points="8.258,404.645 8.258,338.581 63.312,316.559 41.29,404.645 	"/>
</g>
<polygon style="fill:#134A79;" points="41.29,404.645 41.29,338.581 96.344,316.559 74.323,404.645 "/>
<polygon style="fill:#0E3759;" points="74.323,404.645 74.323,338.581 129.376,316.559 107.355,404.645 "/>
<g>
	<polygon style="fill:#134A79;" points="107.355,404.645 107.355,316.559 140.387,338.581 140.387,404.645 	"/>
	<polygon style="fill:#134A79;" points="8.258,338.581 8.258,272.516 41.29,272.516 63.312,305.548 41.29,338.581 	"/>
</g>
<polygon style="fill:#0E3759;" points="41.29,338.581 41.29,272.516 74.323,272.516 96.344,305.548 74.323,338.581 "/>
<polygon style="fill:#134A79;" points="74.323,338.581 74.323,272.516 107.355,272.516 129.376,305.548 107.355,338.581 "/>
<rect x="107.355" y="272.516" style="fill:#0E3759;" width="33.032" height="66.065"/>
<path style="fill:#D2E3F1;" d="M294.538,8.258h-33.032v132.129l66.065-33.032V41.29C327.57,23.123,312.705,8.258,294.538,8.258z"/>
<path style="fill:#FFFFFF;" d="M261.505,8.258h-44.043c-18.168,0-33.032,14.865-33.032,33.032v66.065l33.032,33.032l77.075-66.065
	V41.29C294.538,23.123,279.673,8.258,261.505,8.258z"/>
<g>
	<rect x="217.462" y="74.323" style="fill:#A5C6E3;" width="77.075" height="66.065"/>
	<polygon style="fill:#A5C6E3;" points="294.538,107.355 261.505,338.581 327.57,338.581 327.57,107.355 	"/>
</g>
<rect x="184.43" y="107.355" style="fill:#D2E3F1;" width="110.108" height="231.226"/>
<polygon style="fill:#4A8DC6;" points="338.581,305.548 338.581,404.645 272.516,437.677 305.548,305.548 327.57,305.548 "/>
<polygon style="fill:#77AAD4;" points="256,305.548 222.968,437.677 305.548,404.645 305.548,305.548 "/>
<g>
	<polygon style="fill:#A5C6E3;" points="173.419,305.548 173.419,404.645 256,437.677 256,305.548 	"/>
	<polygon style="fill:#A5C6E3;" points="305.548,404.645 272.516,454.194 305.548,503.742 338.581,503.742 338.581,404.645 	"/>
</g>
<rect x="173.419" y="404.645" style="fill:#D2E3F1;" width="132.129" height="99.097"/>
<path d="M503.742,99.097H371.613c-4.561,0-8.258,3.696-8.258,8.258v140.387h-27.527V41.29c0-22.768-18.522-41.29-41.29-41.29
	h-77.075c-22.768,0-41.29,18.522-41.29,41.29v206.452h-27.527V107.355c0-4.562-3.697-8.258-8.258-8.258H8.258
	c-4.561,0-8.258,3.696-8.258,8.258v297.29c0,4.562,3.697,8.258,8.258,8.258h132.129c4.561,0,8.258-3.696,8.258-8.258V264.258h27.527
	v33.032h-2.753c-4.561,0-8.258,3.696-8.258,8.258v189.935h-2.753c-4.561,0-8.258,3.696-8.258,8.258s3.697,8.258,8.258,8.258h187.183
	c4.561,0,8.258-3.696,8.258-8.258s-3.697-8.258-8.258-8.258h-2.753V305.548c0-4.562-3.697-8.258-8.258-8.258h-2.753v-33.032h27.527
	v140.387c0,4.562,3.697,8.258,8.258,8.258h132.129c4.561,0,8.258-3.696,8.258-8.258v-297.29
	C512,102.793,508.303,99.097,503.742,99.097z M82.581,330.323v-49.548h16.516v49.548H82.581z M99.097,346.839v49.548H82.581v-49.548
	H99.097z M16.516,330.323v-49.548h16.516v49.548H16.516z M132.129,231.226h-16.516v-24.774c0-4.562-3.697-8.258-8.258-8.258
	c-4.561,0-8.258,3.696-8.258,8.258v24.774H82.581v-49.548h49.548V231.226z M82.581,165.161v-49.548h16.516v49.548H82.581z
	 M66.065,165.161H49.548v-49.548h16.516V165.161z M66.065,181.677v49.548H49.548v-49.548H66.065z M33.032,231.226H16.516v-49.548
	h16.516V231.226z M49.548,280.774h16.516v49.548H49.548V280.774z M115.613,280.774h16.516v49.548h-16.516V280.774z M16.516,264.258
	v-16.516h115.613v16.516H16.516z M132.129,165.161h-16.516v-49.548h16.516V165.161z M33.032,115.613v49.548H16.516v-49.548H33.032z
	 M16.516,346.839h49.548v49.548H49.548v-24.774c0-4.562-3.697-8.258-8.258-8.258s-8.258,3.696-8.258,8.258v24.774H16.516V346.839z
	 M115.613,396.387v-49.548h16.516v49.548H115.613z M217.462,16.516h77.075c13.661,0,24.774,11.114,24.774,24.774v57.806H192.688
	V41.29C192.688,27.63,203.801,16.516,217.462,16.516z M181.677,495.484v-82.581h16.516c4.561,0,8.258-3.696,8.258-8.258
	s-3.697-8.258-8.258-8.258h-16.516v-82.581h66.065v82.581h-16.516c-4.561,0-8.258,3.696-8.258,8.258s3.697,8.258,8.258,8.258h99.097
	v82.581H181.677z M330.323,313.806v82.581h-66.065v-82.581H330.323z M192.688,297.29V115.613h126.624V297.29H192.688z
	 M379.871,280.774h16.516v49.548h-16.516V280.774z M429.419,165.161h-16.516v-49.548h16.516V165.161z M445.935,115.613h16.516
	v49.548h-16.516V115.613z M462.452,181.677v49.548h-16.516v-24.774c0-4.562-3.697-8.258-8.258-8.258s-8.258,3.696-8.258,8.258
	v24.774h-16.516v-49.548H462.452z M478.968,181.677h16.516v49.548h-16.516V181.677z M396.387,231.226h-16.516v-49.548h16.516
	V231.226z M379.871,247.742h115.613v16.516H379.871V247.742z M412.903,280.774h16.516v49.548h-16.516V280.774z M429.419,346.839
	v49.548h-16.516v-49.548H429.419z M445.935,346.839h16.516v49.548h-16.516V346.839z M445.935,330.323v-49.548h16.516v49.548H445.935
	z M478.968,280.774h16.516v49.548h-16.516V280.774z M495.484,165.161h-16.516v-49.548h16.516V165.161z M396.387,115.613v49.548
	h-16.516v-49.548H396.387z M379.871,346.839h16.516v49.548h-16.516V346.839z M478.968,396.387v-49.548h16.516v49.548H478.968z"/>
<circle cx="297.29" cy="335.828" r="8.258"/>
<circle cx="297.29" cy="374.366" r="8.258"/>
<path d="M217.462,82.581h77.075c4.561,0,8.258-3.696,8.258-8.258c0-4.562-3.697-8.258-8.258-8.258h-77.075
	c-4.561,0-8.258,3.696-8.258,8.258C209.204,78.884,212.902,82.581,217.462,82.581z"/>
<g>
</g>
<g>
</g>
<g>
</g>
<g>
</g>
<g>
</g>
<g>
</g>
<g>
</g>
<g>
</g>
<g>
</g>
<g>
</g>
<g>
</g>
<g>
</g>
<g>
</g>
<g>
</g>
<g>
</g>
</svg>
