<?xml version="1.0" encoding="iso-8859-1"?>
<!-- Generator: Adobe Illustrator 19.0.0, SVG Export Plug-In . SVG Version: 6.00 Build 0)  -->
<svg version="1.1" id="Capa_1" xmlns="http://www.w3.org/2000/svg" xmlns:xlink="http://www.w3.org/1999/xlink" x="0px" y="0px"
	 viewBox="0 0 512.002 512.002" style="enable-background:new 0 0 512.002 512.002;" xml:space="preserve">
<path style="fill:#FFC98C;" d="M178.79,270.496c-0.063,1.191-0.101,2.385-0.092,3.584v63.668c0,16.568,13.431,30,30,30h13.908
	V260.496L178.79,270.496z"/>
<path style="fill:#F7A16E;" d="M222.607,260.496V367.75h80.697c16.569,0,30-13.432,30-30v-63.918c0-1.115-0.035-2.227-0.095-3.334
	L222.607,260.496z"/>
<path style="fill:#1A3E6E;" d="M303.7,478.287v-207.79h29.509c-0.951-17.623-9.425-34.186-24.11-46.948
	c-14.639-12.722-33.911-20.054-52.875-20.116h-0.243c-11.265,0-22.725,2.576-33.374,7.46l33.468,179.359
	c9.734,0,17.625,7.891,17.625,17.625V497h0.204c-0.126,0.965-0.199,1.945-0.203,2.938c-0.011,2.505,1.974,4.562,4.479,4.562h36.06
	c2.464,0,4.461-1.997,4.461-4.461V499.5C318.7,489.705,312.438,481.376,303.7,478.287z"/>
<path style="fill:#3F5F94;" d="M222.607,210.785l-3.431,1.766c-23.948,12.324-39.145,34.306-40.386,57.945h29.657v207.816
	c-8.818,3.203-15.015,11.891-15,21.761c0.004,2.448,2.012,4.426,4.461,4.426h36.079c2.464,0,4.461-1.997,4.461-4.461V499.5
	c0-0.846-0.05-1.679-0.141-2.5h0.141v-89.123c0-9.734,7.891-17.625,17.625-17.625V220.996L222.607,210.785z"/>
<path style="fill:#FFC98C;" d="M303.81,57.742c-13.994-9.957-30.249-15.998-47.589-15.998c-47.302,0-86.521,44.957-93.801,91.721
	c-2.681-1.128-5.63-1.752-8.722-1.752c-12.426,0-22.5,10.074-22.5,22.5c0,12.426,10.074,22.5,22.5,22.5
	c4.034,0,7.816-1.067,11.09-2.926c2.748,9.39,6.967,18.168,12.335,26.191c2.631,3.933,17.707,15.729,39.199,20.227l51.213,10.717
	l45.96-45.073C350.805,149.262,346.482,88.102,303.81,57.742z"/>
<path style="fill:#F7A16E;" d="M358.305,131.713c-2.89,0-5.654,0.552-8.193,1.545c-0.1-0.671-0.202-1.342-0.315-2.01
	c-5.037-29.67-21.492-56.7-45.987-73.506c13.955,19.248,21.004,41.232,21.004,64.241c0,51.75-42.544,93.701-95.023,93.701
	c-19.482,0-37.592-5.785-52.668-15.703c14.491,21.418,37.691,36.613,64.608,40.676c9.541,1.44,19.405,1.429,28.946-0.009
	c36.838-5.553,66.759-31.967,76.874-66.681c3.197,1.744,6.855,2.748,10.753,2.748c12.427,0,22.5-10.074,22.5-22.5
	C380.805,141.788,370.732,131.713,358.305,131.713z"/>
<path style="fill:#3F5F94;" d="M357.703,85.775C337.744,46.007,300.709,7.493,256.351,7.493c-8.187,0-18.809,1.197-28.399,3.039
	c-11.969,2.298-20.654,12.712-20.654,24.9c-13.622-0.007-26.457,6.395-34.634,17.289c-2.45,3.265-4.756,6.534-6.885,9.829
	c-13.724,21.244-15.024,48.214-3.625,70.792l0,0l64.958-51.892l92.127,38.982l40.465-8.532
	C361.344,103.237,360.695,94.214,357.703,85.775z"/>
<path style="fill:#1A3E6E;" d="M353.081,76.128c-8.983-14.512-20.239-28.283-27.008-35.196c7.966,10.51,11.378,30.208,11.378,43.202
	c0,19.188-7.929,25.42-25.59,21.594c-24.375-5.28-61.162-24.816-85.3-60.444c-4.474-6.603-11.84-10.055-19.262-9.853
	c0,12.312,1.727,15.155-2.156,41.179c-4.376,19.906-22.342,34.355-42.719,34.355c-0.614,0-3.253,0.025-7.264,0.073
	c1.08,7.657,3.407,15.195,6.993,22.299c0.078,0.045,0.142,0.082,0.22,0.128c31.7,0.021,58.2-22.284,64.74-52.016
	c31.995,32.909,75.867,51.809,123.001,51.809l0,0C362.9,116.691,364.097,93.924,353.081,76.128z"/>
<circle cx="221.704" cy="155.062" r="7.501"/>
<circle cx="288.896" cy="155.062" r="7.501"/>
<path d="M261.502,156.29c-1.416,1.417-3.3,2.197-5.303,2.197c-2.003,0-3.887-0.78-5.303-2.197c-2.929-2.929-7.678-2.929-10.606,0
	c-2.93,2.93-2.93,7.68-0.001,10.609c4.25,4.25,9.9,6.592,15.91,6.592s11.66-2.341,15.91-6.592c2.929-2.93,2.929-7.68-0.001-10.609
	C269.181,153.359,264.432,153.36,261.502,156.29z"/>
<path d="M375.207,129.352c-3.53-2.41-7.471-3.991-11.55-4.733c3.448-8.295,4.945-17.34,4.267-26.462
	c-0.002-0.021-0.003-0.042-0.005-0.063c-0.693-9.192-3.619-18.187-8.461-26.011c-10.362-16.745-23.451-32.285-28.256-36.729
	C293.14-3.386,258.403-3.072,226.536,3.05c-13.118,2.521-23.19,12.638-25.971,25.223c-21.255,2.867-31.945,15.945-41.086,30.104
	c-12.605,19.518-15.758,44.203-9.06,65.936c-4.717,0.524-9.318,2.164-13.402,4.895c-8.34,5.578-13.319,14.896-13.319,24.923
	c0,10.792,5.573,20.479,14.909,25.913c6.695,3.896,14.328,5.035,21.563,3.414c6.19,16.14,16.329,30.558,30.089,41.97
	c-11.433,12.828-18.106,28.386-18.958,44.62c0,0,0,0,0,0.001c-0.078,1.479-0.111,2.798-0.103,3.978v63.683
	c0,17.961,12.796,33.096,29.749,36.692v99.185c-9.163,5.401-15.017,15.469-15,26.499c0.011,6.57,5.376,11.915,11.961,11.915h36.079
	c6.596,0,11.961-5.366,11.961-11.962v-0.539c0-146.661,0-65.893,0-91.182c0-5.637,4.584-10.678,10.321-10.59
	c5.476,0.103,9.93,4.646,9.93,10.127c0,0.004,0,92.049,0,92.049c-0.015,3.241,1.231,6.287,3.51,8.576
	c2.26,2.271,5.268,3.521,8.47,3.521h36.061c6.596,0,11.961-5.366,11.961-11.962v-0.539c0-10.828-5.852-20.694-15-25.984v-99.15
	c16.87-3.658,29.604-18.78,29.604-36.656c0.007-67.002,0.031-65.36-0.087-67.347l-0.019-0.323c0,0,0-0.001,0-0.002
	c-0.871-16.12-7.496-31.597-18.825-44.39c13.62-11.234,24.123-25.79,30.345-42.118c7.216,1.521,14.793,0.304,21.398-3.617
	c9.196-5.457,14.687-15.096,14.687-25.781C388.305,144.213,383.408,134.95,375.207,129.352z M172.08,66.516
	c1.951-3.023,4.104-6.098,6.582-9.399c6.717-8.951,17.412-14.294,28.613-14.294c0.008,0,0.019,0.001,0.021,0
	c1.988,0,3.896-0.79,5.302-2.195c1.407-1.406,2.198-3.314,2.198-5.305c0-8.542,6.127-15.919,14.568-17.541
	c25.923-4.98,56.503-7.307,91.366,28.319c9.36,9.616,19.038,22.674,25.97,33.876c3.572,5.771,5.734,12.406,6.255,19.192
	c0.001,0.019,0.002,0.036,0.004,0.055c0.704,9.346-1.658,18.586-6.688,26.392c-43.823-0.998-83.976-18.828-113.785-49.493
	c-1.924-1.979-4.776-2.744-7.432-1.985c-2.654,0.755-4.679,2.907-5.271,5.603c-5.507,25.063-27.221,43.972-52.921,45.957
	C158.816,106.871,160.712,84.117,172.08,66.516z M186.198,337.709v-59.767l14.749,0.001v80.882
	C192.356,355.651,186.198,347.361,186.198,337.709z M325.804,337.709c0,9.578-6.092,17.838-14.604,21.059v-13.732
	c0-0.013,0.002-0.025,0.002-0.039c0-0.013-0.002-0.025-0.002-0.039v-67.017h14.606C325.812,282.501,325.81,283.823,325.804,337.709z
	 M365.963,167.014c-4.604,2.733-10.144,2.843-14.818,0.292c-1.995-1.09-4.375-1.214-6.471-0.343
	c-2.098,0.872-3.688,2.647-4.322,4.828c-5.499,18.875-17.589,35.513-34.043,46.849c-10.928,7.528-23.635,12.552-36.75,14.529
	c-4.096,0.617-6.915,4.438-6.298,8.534c0.617,4.097,4.443,6.917,8.534,6.298c13.295-2.004,26.23-6.688,37.769-13.63
	c7.901,8.449,13.046,18.15,15.152,28.57H311.2c-8.271,0-15,6.729-15,15.002v59.554h-57.749c-4.141,0-7.5,3.37-7.5,7.5
	c0,4.14,3.359,7.5,7.5,7.5H296.2V478.28c0,3.178,2.003,6.012,4.999,7.071c5.184,1.833,8.894,6.347,9.791,11.648h-29.587
	c0-0.588-0.068-1.17-0.203-1.735v-87.41c0-13.599-11.058-24.87-24.648-25.125c-14.353-0.28-25.603,11.807-25.603,25.588v87.235
	c-0.093,0.475-0.141,0.959-0.141,1.447h-29.569c1.025-5.316,4.694-9.8,9.771-11.645c2.965-1.077,4.938-3.895,4.938-7.049V345.055
	c0-0.02,0.003-0.038,0.003-0.058s-0.003-0.038-0.003-0.058v-66.995c0-8.272-6.729-15.002-15-15.002h-13.655
	c2.137-10.432,7.385-20.325,15.259-28.745c16.226,9.843,34.707,13.898,39.19,13.898c3.646,0,6.846-2.665,7.406-6.382
	c0.618-4.096-2.201-7.917-6.297-8.535c-13.223-1.996-26.015-7.082-36.996-14.708c-16.716-11.611-28.429-28.276-33.868-46.865
	c-0.644-2.2-2.258-3.984-4.383-4.845c-2.125-0.861-4.525-0.704-6.52,0.43c-4.671,2.652-10.254,2.614-14.931-0.108
	c-4.668-2.718-7.455-7.559-7.455-12.949c0-5.085,2.427-9.624,6.659-12.454c7.571-5.068,14.122-1.185,15.797-0.91
	c2.923,0.481,26.927,0.556,47.779-16.443c9.567-7.801,17.023-17.903,21.685-29.199c32.788,29.462,74.764,45.548,119.494,45.548
	c0.93,0,1.939-0.208,2.732-0.516c4.68-1.83,9.747-1.252,13.906,1.586c4.165,2.843,6.554,7.358,6.554,12.39
	C373.305,159.47,370.561,164.286,365.963,167.014z"/>
<g>
</g>
<g>
</g>
<g>
</g>
<g>
</g>
<g>
</g>
<g>
</g>
<g>
</g>
<g>
</g>
<g>
</g>
<g>
</g>
<g>
</g>
<g>
</g>
<g>
</g>
<g>
</g>
<g>
</g>
</svg>
