<svg id="Layer_1" height="512" viewBox="0 0 512 512" width="512" xmlns="http://www.w3.org/2000/svg" data-name="Layer 1"><path d="m482.98 321.11-175.56-128.02h-.59v183.99h192.58v-23.65a40.014 40.014 0 0 0 -16.43-32.32z" fill="#75967a"/><path d="m204.58 193.09-175.56 128.02a40.014 40.014 0 0 0 -16.43 32.32v23.65h192.58v-183.99z" fill="#75967a"/><path d="m277.53 62.85-21.53-35.15-21.53 35.15a199.013 199.013 0 0 0 -29.3 103.94v317.51h101.66v-317.51a199.013 199.013 0 0 0 -29.3-103.94z" fill="#88aa8c"/><path d="m234.47 62.85a199.013 199.013 0 0 0 -29.3 103.94v317.51h30v-317.51a199.013 199.013 0 0 1 29.3-103.94l6.53-10.661-15-24.489z" fill="#6f8e71"/><path d="m307.42 417.53h-.59v66.77h.59 65.67v-25.77z" fill="#75967a"/><path d="m204.58 417.53-65.67 41v25.77h65.67.59v-66.77z" fill="#75967a"/><path d="m204.58 193.09-175.56 128.02a40.014 40.014 0 0 0 -16.43 32.32v23.65h192.58v-183.99z" fill="#75967a"/><path d="m378.09 405.64h49.5v28.79h-49.5z" fill="#6a6930"/><path d="m423.99 354.64a82.851 82.851 0 0 0 -12.19-43.25l-8.96-14.63-8.96 14.63a82.851 82.851 0 0 0 -12.19 43.25v51h42.3" fill="#7c7e38"/><path d="m84.41 405.64h49.5v28.79h-49.5z" fill="#6a6930"/><path d="m118.12 311.39-8.96-14.63-8.96 14.63a82.851 82.851 0 0 0 -12.19 43.25v51h42.3v-51a82.851 82.851 0 0 0 -12.19-43.25z" fill="#7c7e38"/><path d="m284 359.3v70h22.83v-11.77-58.23z" fill="#6a6930"/><path d="m256 359.3h28v70h-28z" fill="#7c7e38"/><path d="m228 359.3h28v70h-28z" fill="#6a6930"/><path d="m205.17 359.3v58.23 11.77h22.83v-70z" fill="#7c7e38"/><path d="m288.65 158.18v55.31a48.242 48.242 0 0 0 -65.3 0v-55.31a48.263 48.263 0 0 1 65.3 0z" fill="#d4e1f4"/><path d="m204.58 193.09-175.56 128.02a40.014 40.014 0 0 0 -16.43 32.32v23.65h30v-23.65a40.014 40.014 0 0 1 16.43-32.32l146.15-106.574v-21.446z" fill="#8caf90"/><path d="m223.35 213.49a48.086 48.086 0 0 1 30-12.647v-55.3a48.1 48.1 0 0 0 -30 12.639z" fill="#b6c7dd"/><g fill="#284268"><path d="m486.511 316.26-173.68-126.652v-22.816a204.932 204.932 0 0 0 -30.185-107.078l-21.529-35.153a6 6 0 0 0 -10.234 0l-21.529 35.153a204.932 204.932 0 0 0 -30.185 107.078v22.816l-173.68 126.652a46.142 46.142 0 0 0 -18.9 37.167v23.649a6 6 0 0 0 6 6h69.418v17.065a6 6 0 0 0 -3.6 5.5v28.793a6 6 0 0 0 6 6h49.5a6 6 0 0 0 6-6v-28.796a6 6 0 0 0 -3.6-5.5v-17.062h62.859v30.759l-63.436 39.607a6 6 0 0 0 -2.822 5.09v25.773a6 6 0 0 0 6 6h234.184a6 6 0 0 0 6-6v-25.773a6 6 0 0 0 -2.822-5.09l-63.439-39.607v-30.759h62.859v17.065a6 6 0 0 0 -3.6 5.5v28.793a6 6 0 0 0 6 6h49.5a6 6 0 0 0 6-6v-28.796a6 6 0 0 0 -3.6-5.5v-17.062h69.415a6 6 0 0 0 6-6v-23.649a46.142 46.142 0 0 0 -18.894-37.167zm-287.342 162.045h-54.261v-16.446l54.261-33.877zm-71.26-49.874h-37.5v-16.793h37.5zm-33.9-28.793v-44.993a76.787 76.787 0 0 1 11.309-40.119l3.843-6.274 3.839 6.274a76.779 76.779 0 0 1 11.31 40.119v44.993zm105.162-28.562h-62.861v-16.431a88.785 88.785 0 0 0 -13.076-46.387l-8.959-14.627a6 6 0 0 0 -10.233 0l-8.959 14.627a88.785 88.785 0 0 0 -13.076 46.387v16.431h-63.415v-17.649a34.1 34.1 0 0 1 13.967-27.471l166.61-121.5zm12-5.771h10.829v58h-10.831zm89.662 113h-89.664v-43h89.662zm-66.831-55v-58h16v58zm28 0v-58h16v58zm38.831 0h-10.833v-58h10.831zm0-70h-89.664v-186.513a192.941 192.941 0 0 1 28.418-100.811l16.413-26.798 16.413 26.8a192.941 192.941 0 0 1 28.418 100.811zm66.261 108.554v16.446h-54.263v-50.323zm54.5-33.428h-37.5v-16.793h37.5zm-33.9-28.793v-44.993a76.779 76.779 0 0 1 11.306-40.119l3.841-6.274 3.843 6.274a76.787 76.787 0 0 1 11.309 40.119v44.993zm105.718-28.562h-63.419v-16.431a88.785 88.785 0 0 0 -13.076-46.387l-8.959-14.627a6 6 0 0 0 -10.233 0l-8.959 14.627a88.785 88.785 0 0 0 -13.076 46.387v16.431h-62.859v-166.616l166.61 121.5a34.1 34.1 0 0 1 13.967 27.471z"/><path d="m219.29 153.765a6 6 0 0 0 -1.941 4.418v55.3a6 6 0 0 0 10.059 4.419 42.006 42.006 0 0 1 57.184 0 6 6 0 0 0 10.059-4.419v-55.3a6 6 0 0 0 -1.941-4.418 54.256 54.256 0 0 0 -73.42 0zm63.361 47.985a54.322 54.322 0 0 0 -53.3 0v-40.83a41.958 41.958 0 0 1 53.3 0z"/><path d="m230.169 230.124a6 6 0 0 0 -6 6v6.876a6 6 0 0 0 12 0v-6.876a6 6 0 0 0 -6-6z"/><path d="m230.169 256.194a6 6 0 0 0 -6 6v70.279a6 6 0 0 0 12 0v-70.279a6 6 0 0 0 -6-6z"/></g></svg>