<svg id="Capa_1" enable-background="new 0 0 512 512" height="512" viewBox="0 0 512 512" width="512" xmlns="http://www.w3.org/2000/svg"><circle cx="256" cy="256" fill="#ff6c52" r="248.5"/><path d="m336 424.5c-137.243 0-248.5-111.257-248.5-248.5 0-48.13 13.698-93.054 37.386-131.114-70.47 43.858-117.386 122.001-117.386 211.114 0 137.243 111.257 248.5 248.5 248.5 89.113 0 167.256-46.916 211.114-117.386-38.06 23.688-82.984 37.386-131.114 37.386z" fill="#ff583e"/><path d="m421.544 363.286c-16.761 12.687-37.644 20.214-60.287 20.214s-43.526-7.527-60.287-20.214c-26.088-19.748-57.736-30.763-90.456-30.763h-190.989c32.271 99.795 125.936 171.977 236.475 171.977 110.029 0 203.342-71.517 236.027-170.596-25.503 3.517-49.75 13.688-70.483 29.382z" fill="#ff8870"/><path d="m256 504.5c89.113 0 167.256-46.916 211.114-117.386-38.06 23.688-82.984 37.386-131.114 37.386-77.912 0-147.438-35.866-193-91.977h-123.475c32.271 99.795 125.936 171.977 236.475 171.977z" fill="#ff6c52"/><path d="m210.526 234.477c32.719 0 64.367-11.015 90.456-30.763 16.761-12.687 37.644-20.214 60.287-20.214s43.526 7.527 60.287 20.214c23.832 18.04 52.305 28.787 81.995 30.511-11.031-127.042-117.636-226.725-247.54-226.725-129.99 0-236.65 99.814-247.562 226.977z" fill="#ff8870"/><path d="m94.438 234.477c-4.524-18.755-6.938-38.333-6.938-58.477 0-48.13 13.698-93.054 37.386-131.114-64.735 40.289-109.589 109.512-116.461 189.591z" fill="#ff6c52"/><ellipse cx="176.355" cy="127.44" fill="#f2f6fc" rx="29.387" ry="23.403"/><ellipse cx="335.645" cy="127.44" fill="#f2f6fc" rx="29.387" ry="23.403"/><path d="m279.694 109.459c0-14.643-10.608-16.019-23.693-16.019-13.086 0-23.694 1.376-23.694 16.019s10.608 26.513 23.694 26.513c13.085 0 23.693-11.871 23.693-26.513z" fill="#555a66"/><path d="m181.268 107c-4.143 0-7.5-3.358-7.5-7.5v-12c0-4.142 3.357-7.5 7.5-7.5s7.5 3.358 7.5 7.5v12c0 4.142-3.358 7.5-7.5 7.5z"/><path d="m256 143.472c-17.2 0-31.193-15.258-31.193-34.013 0-23.519 21.859-23.519 31.193-23.519s31.193 0 31.193 23.519c0 18.754-13.993 34.013-31.193 34.013zm0-42.532c-15.538 0-16.193 2.611-16.193 8.519 0 10.484 7.265 19.013 16.193 19.013s16.193-8.529 16.193-19.013c0-5.908-.655-8.519-16.193-8.519z"/><path d="m330.732 107c-4.143 0-7.5-3.358-7.5-7.5v-12c0-4.142 3.357-7.5 7.5-7.5s7.5 3.358 7.5 7.5v12c0 4.142-3.357 7.5-7.5 7.5z"/><g fill="#ff8870"><circle cx="361.257" cy="283.5" r="50"/><circle cx="262.443" cy="423" r="40"/><circle cx="124.886" cy="398.512" r="20"/></g><path d="m437.02 74.98c-48.352-48.351-112.64-74.98-181.02-74.98s-132.668 26.629-181.02 74.98c-48.351 48.353-74.98 112.64-74.98 181.02s26.629 132.667 74.98 181.02c48.352 48.351 112.64 74.98 181.02 74.98s132.668-26.629 181.02-74.98c48.351-48.353 74.98-112.64 74.98-181.02s-26.629-132.667-74.98-181.02zm-181.02-59.98c122.702 0 224.275 92.176 239.126 210.919-24.843-3.036-48.554-12.675-69.044-28.185-18.784-14.218-41.196-21.734-64.813-21.734s-46.03 7.516-64.813 21.734c-24.912 18.857-55.429 29.243-85.929 29.243h-51.641c-4.143 0-7.5 3.358-7.5 7.5s3.357 7.5 7.5 7.5h51.641c33.748 0 67.479-11.465 94.981-32.283 16.156-12.23 35.438-18.694 55.761-18.694s39.604 6.464 55.761 18.694c23.496 17.785 50.858 28.591 79.501 31.482.299 4.905.469 9.845.469 14.824 0 24.778-3.763 48.692-10.74 71.207-24.893 4.23-48.741 14.58-69.242 30.098-16.157 12.231-35.438 18.695-55.76 18.695s-39.604-6.464-55.761-18.694c-27.502-20.817-61.234-32.282-94.982-32.282h-185.426c-6.552-21.878-10.089-45.044-10.089-69.024 0-4.708.151-9.381.418-14.023h115.467c4.143 0 7.5-3.358 7.5-7.5s-3.357-7.5-7.5-7.5h-114.132c14.38-119.252 116.182-211.977 239.247-211.977zm0 482c-103.349 0-191.701-65.396-225.878-156.977h180.393c30.5 0 61.017 10.385 85.93 29.242 18.783 14.219 41.195 21.735 64.813 21.735 23.617 0 46.029-7.516 64.813-21.734 16.292-12.332 34.901-21.051 54.419-25.595-35.14 89.665-122.517 153.329-224.49 153.329z"/><path d="m361.258 341c31.706 0 57.5-25.794 57.5-57.5 0-9.668-2.448-19.233-7.081-27.661-1.994-3.63-6.557-4.954-10.185-2.96-3.63 1.995-4.955 6.555-2.96 10.186 3.419 6.22 5.226 13.287 5.226 20.436 0 23.435-19.065 42.5-42.5 42.5s-42.5-19.065-42.5-42.5 19.065-42.5 42.5-42.5c7.148 0 14.214 1.806 20.431 5.223 3.631 1.995 8.19.669 10.186-2.96 1.994-3.63.669-8.19-2.961-10.185-8.425-4.63-17.988-7.077-27.655-7.077-31.706 0-57.5 25.794-57.5 57.5s25.793 57.498 57.499 57.498z"/><path d="m262.443 375.5c-26.191 0-47.5 21.309-47.5 47.5s21.309 47.5 47.5 47.5 47.5-21.309 47.5-47.5-21.308-47.5-47.5-47.5zm0 80c-17.921 0-32.5-14.58-32.5-32.5s14.579-32.5 32.5-32.5 32.5 14.58 32.5 32.5-14.579 32.5-32.5 32.5z"/><path d="m124.886 371.012c-15.163 0-27.5 12.336-27.5 27.5s12.337 27.5 27.5 27.5 27.5-12.336 27.5-27.5-12.337-27.5-27.5-27.5zm0 40c-6.893 0-12.5-5.607-12.5-12.5s5.607-12.5 12.5-12.5 12.5 5.607 12.5 12.5-5.608 12.5-12.5 12.5z"/></svg>