<?xml version="1.0" encoding="iso-8859-1"?>
<!-- Generator: Adobe Illustrator 19.0.0, SVG Export Plug-In . SVG Version: 6.00 Build 0)  -->
<svg version="1.1" id="Capa_1" xmlns="http://www.w3.org/2000/svg" xmlns:xlink="http://www.w3.org/1999/xlink" x="0px" y="0px"
	 viewBox="0 0 455.6 455.6" style="enable-background:new 0 0 455.6 455.6;" xml:space="preserve">
<path style="fill:#ED664C;" d="M227.8,10c120.3,0,217.8,97.5,217.8,217.8s-97.5,217.9-217.8,217.9S10,348.1,10,227.8
	S107.5,10,227.8,10z M392.2,227.8c0-90.8-73.6-164.4-164.4-164.4S63.4,137,63.4,227.8S137,392.2,227.8,392.2
	S392.2,318.6,392.2,227.8z"/>
<circle style="fill:#FDC75B;" cx="227.8" cy="227.8" r="164.4"/>
<path d="M227.8,155.3c15.6,0,28.4,12.7,28.4,28.4c0,5.5,4.5,10,10,10s10-4.5,10-10c0-23.3-16.5-42.7-38.4-47.4v-12.8
	c0-5.5-4.5-10-10-10s-10,4.5-10,10v12.8c-21.9,4.6-38.4,24.1-38.4,47.4c0,26.7,21.7,48.4,48.4,48.4c15.6,0,28.4,12.7,28.4,28.4
	c0,15.6-12.7,28.4-28.4,28.4s-28.4-12.7-28.4-28.4c0-5.5-4.5-10-10-10s-10,4.5-10,10c0,23.2,16.5,42.7,38.4,47.3v19
	c0,5.5,4.5,10,10,10s10-4.5,10-10v-19c21.9-4.6,38.4-24.1,38.4-47.3c0-26.7-21.7-48.4-48.4-48.4c-15.6,0-28.4-12.7-28.4-28.4
	C199.4,168.1,212.2,155.3,227.8,155.3z"/>
<path d="M227.8,0C166.9,0,109.7,23.7,66.7,66.7S0,167,0,227.8s23.7,118.1,66.7,161.1s100.3,66.7,161.1,66.7s118.1-23.7,161.1-66.7
	s66.7-100.3,66.7-161.1s-23.7-118.1-66.7-161.1S288.7,0,227.8,0z M227.8,435.7C113.2,435.7,20,342.5,20,227.9S113.2,20,227.8,20
	s207.8,93.2,207.8,207.8S342.4,435.7,227.8,435.7z"/>
<path d="M227.8,53.4c-96.2,0-174.4,78.2-174.4,174.4s78.2,174.4,174.4,174.4S402.2,324,402.2,227.8S324,53.4,227.8,53.4z
	 M227.8,382.2c-85.1,0-154.4-69.3-154.4-154.4S142.7,73.4,227.8,73.4s154.4,69.3,154.4,154.4S312.9,382.2,227.8,382.2z"/>
<g>
</g>
<g>
</g>
<g>
</g>
<g>
</g>
<g>
</g>
<g>
</g>
<g>
</g>
<g>
</g>
<g>
</g>
<g>
</g>
<g>
</g>
<g>
</g>
<g>
</g>
<g>
</g>
<g>
</g>
</svg>
