<?xml version="1.0" encoding="utf-8"?>
<!-- Generator: Adobe Illustrator 24.2.3, SVG Export Plug-In . SVG Version: 6.00 Build 0)  -->
<svg version="1.1" id="Capa_1" xmlns="http://www.w3.org/2000/svg" xmlns:xlink="http://www.w3.org/1999/xlink" x="0px" y="0px"
	 viewBox="0 0 455.6 455.6" style="enable-background:new 0 0 455.6 455.6;" xml:space="preserve">
<style type="text/css">
	.st0{fill:#FAA515;}
	.st1{fill:#FDC75B;}
	.st2{fill:#ED664C;}
</style>
<path class="st0" d="M227.8,10.8c120.3,0,217.8,97.5,217.8,217.8s-97.5,217.9-217.8,217.9S10,348.9,10,228.6S107.5,10.8,227.8,10.8z
	 M392.2,228.6c0-90.8-73.6-164.4-164.4-164.4S63.4,137.8,63.4,228.6S137,393,227.8,393S392.2,319.4,392.2,228.6z"/>
<circle class="st1" cx="227.8" cy="228.7" r="164.4"/>
<path d="M227.8,0.9c-60.9,0-118.1,23.7-161.1,66.7S0,167.9,0,228.7s23.7,118.1,66.7,161.1s100.3,66.7,161.1,66.7
	s118.1-23.7,161.1-66.7c43-43,66.7-100.3,66.7-161.1s-23.7-118.1-66.7-161.1S288.7,0.9,227.8,0.9z M227.8,436.6
	C113.2,436.6,20,343.4,20,228.8S113.2,20.9,227.8,20.9s207.8,93.2,207.8,207.8S342.4,436.6,227.8,436.6z"/>
<path d="M227.8,54.3c-96.2,0-174.4,78.2-174.4,174.4s78.2,174.4,174.4,174.4s174.4-78.2,174.4-174.4S324,54.3,227.8,54.3z
	 M227.8,383.1c-85.1,0-154.4-69.3-154.4-154.4S142.7,74.3,227.8,74.3s154.4,69.3,154.4,154.4S312.9,383.1,227.8,383.1z"/>
<path class="st2" d="M232.3,164l17.9,36.5c0.7,1.5,2.1,2.5,3.8,2.8l40.1,5.8c4.1,0.6,5.8,5.6,2.8,8.5l-29.1,28.3
	c-1.2,1.2-1.7,2.8-1.4,4.4l6.9,40.1c0.7,4.1-3.6,7.2-7.3,5.3l-35.8-19c-1.5-0.8-3.2-0.8-4.7,0l-35.8,19c-3.7,1.9-8-1.2-7.3-5.3
	l6.9-40.1c0.3-1.6-0.3-3.3-1.4-4.4l-29.1-28.3c-3-2.9-1.3-7.9,2.8-8.5l40.1-5.8c1.6-0.2,3.1-1.3,3.8-2.8l17.9-36.5
	C225.1,160.2,230.5,160.2,232.3,164L232.3,164z"/>
<path d="M311.2,209.1c-0.9-2.7-3.2-4.7-6.1-5.1l-48.9-7l-21.8-44.5c-2.5-5.5-11-5.5-13.5,0L199.3,197l-48.9,7
	c-6,0.7-8.6,8.8-4.2,12.8l35.4,34.5l-8.4,48.8c-1.2,5.9,5.6,10.9,10.9,7.9l43.7-23.1l43.7,23.1c5.3,3,12.1-2,10.9-7.9l-8.4-48.8
	l35.4-34.5C311.4,214.9,312.1,211.9,311.2,209.1L311.2,209.1z M260.6,243.3c-1.8,1.7-2.6,4.2-2.2,6.7l6.5,37.6l-33.7-17.8
	c-2.2-1.2-4.8-1.2-7,0l-33.7,17.8l6.5-37.6c0.4-2.5-0.4-5-2.2-6.7l-27.3-26.6l37.7-5.4c2.5-0.4,4.6-1.9,5.7-4.1l16.8-34.3l16.8,34.3
	c1.1,2.2,3.2,3.8,5.7,4.1l37.7,5.4L260.6,243.3z"/>
</svg>
