<svg id="Capa_1" enable-background="new 0 0 512 512" height="512" viewBox="0 0 512 512" width="512" xmlns="http://www.w3.org/2000/svg"><g><g><path d="m213.31 239.812v-14.981c0-27.898 14.71-52.512 36.749-66.51 3.613-2.295 8.27-2.295 11.883 0 22.039 13.998 36.749 38.612 36.749 66.51v14.981l17.138 34.638v-158.687c0-40.069-21.653-85.954-53.824-106.519-3.651-2.334-8.358-2.334-12.009 0-32.171 20.565-53.824 66.45-53.824 106.519v158.687z" fill="#fe646f"/><g><path d="m205.81 224.831c0-20.688 7.348-40.208 20.362-55.553v-53.515c0-8.506.98-17.273 2.828-26.004v-12.812h-18.742c-4.207 12.711-6.586 25.997-6.586 38.816v126.615l2.138-4.321z" fill="#fd4755"/></g><path d="m236.5 69.447v22.547c0 2.761 2.239 5 5 5h29c2.761 0 5-2.239 5-5v-22.547z" fill="#fff"/><g><path d="m307.118 69.447c-9.196-24.864-25.121-47.423-45.113-60.203-3.651-2.334-8.358-2.334-12.009 0-19.992 12.78-35.917 35.339-45.113 60.203z" fill="#fd8087"/></g><g><path d="m271 15.867c-2.894-2.424-5.896-4.641-8.995-6.623-3.651-2.334-8.358-2.334-12.009 0-19.992 12.78-35.917 35.339-45.113 60.203h30c7.77-21.009 20.345-40.371 36.117-53.58z" fill="#fe646f"/></g></g><g><g><g fill="#acacac"><path d="m345.178 333.77c1.992 4.025 4.915 7.517 8.528 10.186l32.846 24.26v-181.15c0-5.215-1.036-10.378-3.048-15.189l-13.944-33.347c-1.712-4.095-7.514-4.095-9.226 0l-13.945 33.346c-2.012 4.811-3.048 9.974-3.048 15.189v142.993z"/><path d="m386.552 422.283-43.21 11.16v42.836h43.21z"/></g><g fill="#9c9c9c"><path d="m363.342 428.278-20 5.165v42.836h20z"/><path d="m345.178 333.77c1.992 4.025 4.915 7.517 8.528 10.186l9.636 7.117v-164.008c0-5.215 1.036-10.378 3.048-15.189l8.557-20.464-5.387-12.882c-1.712-4.095-7.514-4.095-9.226 0l-13.945 33.346c-2.012 4.811-3.048 9.974-3.048 15.189v142.993z"/></g><g><path d="m343.342 215.519h43.21v75.632h-43.21z" fill="#fe646f"/></g><g><path d="m343.342 215.519h20v75.632h-20z" fill="#fd4755"/></g><g><path d="m386.917 504.5h-43.939c-3.728 0-6.431-3.549-5.441-7.143l5.806-21.078h43.21l5.806 21.078c.989 3.594-1.715 7.143-5.442 7.143z" fill="#838383"/></g><g><path d="m357.536 497.357 5.806-21.078h-20l-5.806 21.078c-.99 3.594 1.714 7.143 5.441 7.143h20c-3.727 0-6.431-3.549-5.441-7.143z" fill="#5a5a5a"/></g></g><g><g fill="#acacac"><path d="m158.294 343.955c3.613-2.668 6.536-6.16 8.528-10.186l1.837-3.712v-142.992c0-5.215-1.036-10.378-3.048-15.189l-13.945-33.346c-1.712-4.095-7.514-4.095-9.226 0l-13.944 33.346c-2.012 4.811-3.048 9.974-3.048 15.189v181.15z"/><path d="m168.659 433.443-43.211-11.16v53.996h43.211z"/></g><g fill="#9c9c9c"><path d="m145.448 353.443v-166.378c0-5.215 1.036-10.378 3.048-15.189l8.557-20.464-5.387-12.882c-1.712-4.095-7.514-4.095-9.226 0l-13.944 33.346c-2.012 4.811-3.048 9.974-3.048 15.189v181.15z"/><path d="m145.448 427.448-20-5.165v53.996h20z"/></g><g><path d="m125.448 215.519h43.21v75.632h-43.21z" fill="#fe646f"/></g><g><path d="m125.448 215.519h20v75.632h-20z" fill="#fd4755"/></g><g><path d="m169.023 504.5h-43.939c-3.728 0-6.431-3.549-5.442-7.143l5.806-21.078h43.21l5.806 21.078c.99 3.594-1.714 7.143-5.441 7.143z" fill="#838383"/></g><g><path d="m139.642 497.357 5.806-21.078h-20l-5.806 21.078c-.99 3.594 1.714 7.143 5.442 7.143h20c-3.728 0-6.432-3.549-5.442-7.143z" fill="#5a5a5a"/></g></g></g><g fill="#eaf6ff"><path d="m198.43 430.966c0-5.523 4.477-10 10-10h4.88v-181.154l-46.488 93.958c-1.992 4.025-4.915 7.517-8.528 10.186l-49.544 36.593c-1.276.943-2.029 2.435-2.029 4.022v29.004c0 2.28 1.542 4.271 3.75 4.841l87.959 22.717z"/><path d="m403.25 380.548-49.544-36.593c-3.613-2.668-6.536-6.16-8.528-10.186l-46.488-93.958v181.155h4.88c5.523 0 10 4.477 10 10v10.165l87.959-22.717c2.207-.57 3.75-2.561 3.75-4.841v-29.003c.001-1.587-.752-3.079-2.029-4.022z"/></g><g><path d="m213.31 239.812-46.488 93.958c-1.992 4.025-4.915 7.517-8.528 10.186l-49.544 36.593c-1.276.943-2.029 2.435-2.029 4.022v29.004c0 2.28 1.542 4.271 3.75 4.841l16.25 4.197v-28.043c0-1.587.753-3.079 2.029-4.022l49.544-36.593c3.613-2.668 6.536-6.16 8.528-10.186l26.488-53.535z" fill="#d8ecfe"/></g><path d="m298.691 421.966v-197.135c0-27.898-14.71-52.512-36.749-66.51-3.613-2.295-8.27-2.295-11.883 0-22.039 13.998-36.749 38.612-36.749 66.51v197.135z" fill="#9c9c9c"/><path d="m243.31 421.966v-197.135c0-23.87 10.775-45.33 27.69-59.799-2.854-2.441-5.877-4.69-9.058-6.71-3.613-2.295-8.27-2.295-11.883 0-22.039 13.998-36.749 38.612-36.749 66.51v197.135h30z" fill="#838383"/><g><path d="m250.059 158.322c-17.781 11.293-30.785 29.499-35.149 50.762h82.181c-4.364-21.263-17.368-39.469-35.149-50.762-3.613-2.295-8.27-2.295-11.883 0z" fill="#26a6fe"/></g><g><path d="m214.91 209.084h30c3.585-17.457 12.995-32.85 26.09-44.052-2.854-2.441-5.877-4.69-9.058-6.71-3.613-2.295-8.27-2.295-11.883 0-17.781 11.293-30.786 29.499-35.149 50.762z" fill="#0593fc"/></g><g><path d="m216.491 469.056v30.444c0 2.761 2.239 5 5 5h69.018c2.761 0 5-2.239 5-5v-30.444z" fill="#838383"/><path d="m246.491 499.5v-30.444h-30v30.444c0 2.761 2.239 5 5 5h30c-2.761 0-5-2.239-5-5z" fill="#5a5a5a"/><g><path d="m308.571 469.056h-105.141c-2.761 0-5-2.239-5-5v-33.09c0-5.523 4.477-10 10-10h95.141c5.523 0 10 4.477 10 10v33.09c0 2.762-2.239 5-5 5z" fill="#26a6fe"/></g><g><path d="m228.43 464.056v-33.09c0-5.523 4.477-10 10-10h-30c-5.523 0-10 4.477-10 10v33.09c0 2.761 2.239 5 5 5h30c-2.762 0-5-2.239-5-5z" fill="#0593fc"/></g></g><g><path d="m407.706 374.515-13.654-10.085v-95.763c0-4.143-3.357-7.5-7.5-7.5s-7.5 3.357-7.5 7.5v14.983h-28.21v-60.632h28.21v9.982c0 4.143 3.357 7.5 7.5 7.5s7.5-3.357 7.5-7.5v-45.935c0-6.241-1.221-12.324-3.629-18.082l-13.943-33.346c-1.95-4.665-6.478-7.679-11.533-7.679s-9.582 3.014-11.531 7.678l-13.944 33.347c-2.408 5.758-3.629 11.841-3.629 18.082v110.921l-12.514-25.292v-106.367c0-4.143-3.357-7.5-7.5-7.5s-7.5 3.357-7.5 7.5v76.05l-2.138-4.321v-13.225c0-29.611-15.038-56.842-40.228-72.841h-.001c-6.051-3.844-13.872-3.844-19.924 0-25.189 15.999-40.228 43.229-40.228 72.841v13.226l-2.138 4.321v-126.615c0-12.819 2.379-26.105 6.586-38.816h18.742v15.047c0 6.893 5.607 12.5 12.5 12.5h29c6.893 0 12.5-5.607 12.5-12.5v-15.047h18.742c4.207 12.711 6.586 25.998 6.586 38.816v15.897c0 4.143 3.357 7.5 7.5 7.5s7.5-3.357 7.5-7.5v-15.897c0-44.164-24.091-91.619-57.285-112.84-6.102-3.898-13.986-3.897-20.087.001-33.193 21.219-57.284 68.674-57.284 112.839v156.932l-12.514 25.292v-110.922c0-6.242-1.221-12.326-3.628-18.082l-13.944-33.347c-1.951-4.664-6.478-7.678-11.533-7.678s-9.582 3.015-11.531 7.678l-13.945 33.347c-2.408 5.758-3.628 11.841-3.628 18.082v177.365l-13.656 10.086c-3.176 2.347-5.072 6.105-5.072 10.054v29.004c0 5.7 3.854 10.677 9.375 12.103l9.353 2.416v47.173l-5.536 20.1c-1.099 3.989-.291 8.164 2.216 11.456 2.507 3.291 6.318 5.179 10.456 5.179h43.939c4.138 0 7.949-1.888 10.456-5.18 2.507-3.291 3.315-7.467 2.216-11.455l-5.537-20.1v-32.14l14.771 3.815v17.115c0 6.893 5.607 12.5 12.5 12.5h5.561v22.944c0 6.893 5.607 12.5 12.5 12.5h69.018c6.893 0 12.5-5.607 12.5-12.5v-22.944h5.562c6.893 0 12.5-5.607 12.5-12.5v-17.115l14.771-3.815v32.141l-5.536 20.098c-1.1 3.989-.292 8.164 2.215 11.456 2.508 3.292 6.319 5.18 10.457 5.18h43.938c4.138 0 7.948-1.888 10.456-5.179 2.507-3.291 3.315-7.467 2.217-11.456l-5.537-20.1v-47.173l9.354-2.416c5.519-1.426 9.373-6.403 9.373-12.103v-29.004c.001-3.948-1.895-7.707-5.073-10.055zm-56.864-187.45c0-4.243.83-8.38 2.467-12.295l11.639-27.831 11.638 27.831c1.637 3.915 2.467 8.052 2.467 12.295v20.953h-28.21v-20.953zm-82.842-97.571h-24v-12.547h24zm-13.965-73.931c1.193-.761 2.739-.765 3.93 0 15.397 9.843 28.758 26.799 37.844 46.384h-79.618c9.086-19.585 22.447-36.541 37.844-46.384zm-121.087 171.502c0-4.243.83-8.38 2.467-12.295l11.638-27.831 11.638 27.832c1.637 3.913 2.467 8.05 2.467 12.294v20.953h-28.21zm0 35.954h28.21v60.632h-28.21zm0 75.631h28.21v29.653l-1.059 2.14c-1.456 2.942-3.621 5.528-6.262 7.479l-20.89 15.429v-54.701zm-5.428 198.35 3.641-13.221h31.784l3.642 13.221zm5.428-28.221v-36.813l28.21 7.286v29.527zm72.862-55.094c-8.408 1.271-14.88 8.525-14.88 17.282v.482l-76.709-19.811v-25.807l48.529-35.843c4.552-3.362 8.285-7.82 10.794-12.893l32.266-65.213zm145.032-115.035h28.21v54.7l-20.89-15.429c-2.641-1.95-4.806-4.536-6.262-7.479l-1.059-2.14v-29.652zm-96.763-133.998c1.168-.74 2.675-.74 3.841 0 13.975 8.876 24.164 21.924 29.363 36.932h-62.566c5.199-15.007 15.388-28.056 29.362-36.932zm33.93 332.348h-64.018v-20.444h64.018zm18.062-35.444h-100.141v-30.589c0-1.379 1.122-2.5 2.5-2.5h38.57c4.142 0 7.5-3.357 7.5-7.5s-3.358-7.5-7.5-7.5h-26.19v-188.636c0-2.778.169-5.53.484-8.247h69.413c.315 2.717.484 5.469.484 8.247v188.636h-8.191c-4.143 0-7.5 3.357-7.5 7.5s3.357 7.5 7.5 7.5h20.57c1.379 0 2.5 1.121 2.5 2.5v30.589zm39.343 35.444 3.642-13.221h31.783l3.642 13.221zm5.428-28.221v-29.527l28.21-7.285v36.813h-28.21zm46.938-57.141-76.709 19.811v-.482c0-8.757-6.472-16.011-14.88-17.282v-141.802l32.266 65.214c2.51 5.072 6.243 9.529 10.794 12.892l48.529 35.843z"/><path d="m279.5 250c0-4.143-3.357-7.5-7.5-7.5h-32c-4.142 0-7.5 3.357-7.5 7.5s3.358 7.5 7.5 7.5h32c4.143 0 7.5-3.357 7.5-7.5z"/><path d="m162.298 372.983v29.017c0 4.143 3.358 7.5 7.5 7.5s7.5-3.357 7.5-7.5v-29.017c0-4.143-3.358-7.5-7.5-7.5s-7.5 3.358-7.5 7.5z"/><path d="m342.203 365.483c-4.143 0-7.5 3.357-7.5 7.5v29.017c0 4.143 3.357 7.5 7.5 7.5s7.5-3.357 7.5-7.5v-29.017c0-4.142-3.357-7.5-7.5-7.5z"/></g></g></svg>