<?xml version="1.0" encoding="iso-8859-1"?>
<!-- Generator: Adobe Illustrator 19.0.0, SVG Export Plug-In . SVG Version: 6.00 Build 0)  -->
<svg version="1.1" id="Capa_1" xmlns="http://www.w3.org/2000/svg" xmlns:xlink="http://www.w3.org/1999/xlink" x="0px" y="0px"
	 viewBox="0 0 512 512" style="enable-background:new 0 0 512 512;" xml:space="preserve">
<polygon style="fill:#C0E5FF;" points="247.377,163.87 211.257,163.87 179.665,461.671 278.969,461.671 "/>
<path style="fill:#B5E0FF;" d="M246.762,461.671c-39.352-49.902-33.028-173.894-27.348-231.922c0.285-2.914,2.908-5.017,5.814-4.662
	c1.34,0.163,2.704,0.248,4.089,0.248c9.164,0,17.471-3.647,23.566-9.561l-5.506-51.903h-36.12l-31.592,297.801H246.762z"/>
<path style="fill:#E0F7FF;" d="M271.206,388.488c-35.34,4.827-61.9-4.457-82.97-7.609l-8.571,80.791h99.305L271.206,388.488z"/>
<path style="fill:#BDECFF;" d="M188.236,380.879l-8.571,80.791h67.097c-13.939-17.677-22.143-44.653-26.678-74.698
	C208.176,384.921,197.655,382.289,188.236,380.879z"/>
<g>
	<path style="fill:#7FAFE3;" d="M343.764,11.022l-87.071,68.578c-7.43,5.852-10.945,15.38-9.095,24.655l0,0
		c1.029,5.162,0.412,10.516-1.765,15.308l-6.973,15.35l-9.544,28.956l28.544-7.109c32.81-8.171,61.932-27.111,82.707-53.789
		l41.71-53.563c5.095-6.544,4.518-15.858-1.346-21.722l-15.375-15.375C359.669,6.423,350.307,5.869,343.764,11.022z"/>
	<path style="fill:#7FAFE3;" d="M39.723,141.181l102.926,41.116c8.783,3.508,18.792,1.788,25.9-4.451l0,0
		c3.955-3.472,8.901-5.615,14.14-6.126l16.78-1.636l29.849-6.213l-20.429-21.166c-23.482-24.329-54.445-40.079-87.937-44.732
		l-67.242-9.34c-8.215-1.141-15.992,4.016-18.139,12.027l-5.628,21.003C27.788,129.706,31.989,138.091,39.723,141.181z"/>
	<path style="fill:#7FAFE3;" d="M304.465,339.408l-15.855-109.694c-1.353-9.36-7.847-17.168-16.805-20.204l0,0
		c-4.985-1.689-9.313-4.901-12.375-9.182l-9.807-13.714l-20.305-22.743l-8.116,28.275c-9.329,32.5-7.487,67.19,5.229,98.521
		l25.532,62.903c3.119,7.684,11.474,11.842,19.485,9.695l21.003-5.628C300.494,355.482,305.655,347.651,304.465,339.408z"/>
</g>
<g>
	<path style="fill:#73A3D6;" d="M216.891,212.27c3.974,1.021,8.137,1.565,12.425,1.565c12.063,0,23.141-4.297,31.784-11.441
		c-0.587-0.661-1.154-1.342-1.672-2.066l-9.807-13.714l-20.305-22.743l-8.116,28.275
		C219.298,198.777,217.867,205.502,216.891,212.27z"/>
	<path style="fill:#73A3D6;" d="M246.793,117.067c-0.28,0.845-0.588,1.681-0.959,2.497l-6.973,15.35l-9.544,28.957l28.544-7.109
		c6.691-1.666,13.226-3.788,19.571-6.325C273.128,135.041,261.627,122.624,246.793,117.067z"/>
	<path style="fill:#73A3D6;" d="M229.317,163.87l-20.428-21.166c-4.783-4.956-9.882-9.549-15.244-13.772
		c-8.832,9.016-14.292,21.349-14.292,34.938c0,2.817,0.246,5.576,0.696,8.267c0.87-0.18,1.748-0.331,2.639-0.418l16.78-1.636
		L229.317,163.87z"/>
</g>
<circle style="fill:#E0F7FF;" cx="229.321" cy="163.871" r="33.851"/>
<path style="fill:#7FAFE3;" d="M297.631,504.5H161.003c-5.443,0-9.855-4.412-9.855-9.855v-23.118c0-5.443,4.412-9.855,9.855-9.855
	h136.629c5.443,0,9.855,4.413,9.855,9.855v23.118C307.488,500.088,303.074,504.5,297.631,504.5z"/>
<path style="fill:#73A3D6;" d="M161.003,461.671c-5.443,0-9.855,4.413-9.855,9.855v23.118c0,5.443,4.413,9.855,9.855,9.855h84.043
	c-19.912-11.07-22.029-32.918-19.031-42.829L161.003,461.671L161.003,461.671z"/>
<path d="M433.29,223.394h31.816c4.142,0,7.5-3.358,7.5-7.5s-3.358-7.5-7.5-7.5H433.29c-4.142,0-7.5,3.358-7.5,7.5
	S429.148,223.394,433.29,223.394z M431.329,167.957c0-4.142-3.357-7.5-7.5-7.5h-31.817c-4.143,0-7.5,3.358-7.5,7.5
	c0,4.142,3.357,7.5,7.5,7.5h31.816C427.971,175.457,431.329,172.099,431.329,167.957z M430.802,138.228h34.304
	c4.142,0,7.5-3.358,7.5-7.5c0-4.142-3.358-7.5-7.5-7.5h-34.304c-5.618,0-10.189-4.57-10.189-10.188
	c0-5.617,4.57-10.188,10.189-10.188c4.142,0,7.5-3.358,7.5-7.5c0-4.142-3.358-7.5-7.5-7.5c-13.889,0-25.189,11.299-25.189,25.188
	S416.914,138.228,430.802,138.228z M394.779,208.46c4.143,0,7.5-3.358,7.5-7.5c0-4.142-3.357-7.5-7.5-7.5h-39.125
	c-6.988,0-12.674-5.686-12.674-12.674c0-6.988,5.685-12.673,12.674-12.673c4.143,0,7.5-3.358,7.5-7.5c0-4.142-3.357-7.5-7.5-7.5
	c-15.26,0-27.674,12.414-27.674,27.673s12.414,27.674,27.674,27.674H394.779z M297.631,454.172h-11.916l-0.744-7.016
	c-0.436-4.118-4.127-7.112-8.249-6.667c-4.119,0.437-7.104,4.13-6.667,8.249l0.576,5.433h-82.629l21.21-199.933
	c1.731,13.443,5.162,26.668,10.268,39.249l25.532,62.903c3.01,7.416,9.4,12.579,16.762,14.301l4.607,43.424
	c0.408,3.851,3.662,6.71,7.449,6.71c0.264,0,0.531-0.014,0.8-0.043c4.119-0.437,7.105-4.13,6.667-8.249l-4.553-42.923l17.646-4.728
	c11.708-3.137,19.23-14.549,17.495-26.546l-15.853-109.695c-1.767-12.219-10.128-22.271-21.82-26.234
	c-3.518-1.192-6.521-3.42-8.682-6.442l-4.23-5.915c5.851-7.135,9.369-16.253,9.369-26.179c0-0.997-0.048-1.983-0.118-2.963
	c30.182-9.817,56.332-28.154,75.934-53.327l41.71-53.562c7.406-9.51,6.565-23.11-1.959-31.633L370.862,7.008
	c-8.571-8.571-22.217-9.379-31.738-1.879l-87.07,68.578c-9.699,7.639-14.225,19.906-11.81,32.016
	c0.727,3.643,0.299,7.355-1.238,10.738l-3.001,6.606c-2.178-0.356-4.41-0.549-6.688-0.549c-8.584,0-16.564,2.631-23.18,7.126
	c-23.594-21.232-52.55-34.711-84.152-39.101l-14.372-1.996c-4.108-0.575-7.892,2.294-8.461,6.397
	c-0.569,4.103,2.294,7.891,6.397,8.46l14.372,1.996c28.313,3.933,54.27,15.937,75.51,34.813c-4.661,6.657-7.417,14.739-7.46,23.455
	l-6.01,0.586c-6.845,0.667-13.193,3.417-18.36,7.954c-5.013,4.4-11.973,5.598-18.169,3.123L42.505,134.216
	c-4.203-1.679-6.489-6.241-5.317-10.613l5.627-21.002c1.165-4.347,5.406-7.157,9.862-6.539l17.764,2.467
	c4.104,0.572,7.891-2.294,8.461-6.397c0.569-4.103-2.294-7.891-6.397-8.46l-17.764-2.467c-11.943-1.659-23.296,5.871-26.415,17.515
	l-5.626,21c-3.139,11.708,2.984,23.929,14.241,28.426l102.926,41.116c3.951,1.578,8.069,2.35,12.152,2.35
	c7.765-0.001,15.396-2.792,21.478-8.13c2.791-2.451,6.222-3.937,9.919-4.297l7.224-0.704c2.176,5.742,5.595,10.872,9.928,15.07
	L172.92,454.172h-11.916c-9.57,0-17.355,7.785-17.355,17.355v23.118c0,9.57,7.785,17.355,17.355,17.355h136.628
	c9.57,0,17.355-7.786,17.355-17.355v-23.118C314.988,461.957,307.203,454.172,297.631,454.172z M269.397,216.613
	c6.317,2.141,10.835,7.572,11.789,14.174l15.854,109.694c0.647,4.48-2.16,8.74-6.532,9.911l-21.003,5.628
	c-4.34,1.164-8.9-1.101-10.594-5.271l-25.532-62.903c-10.586-26.079-13.222-55.214-7.611-82.785c1.171,0.1,2.352,0.162,3.549,0.162
	c7.453,0,14.445-1.992,20.49-5.456l3.522,4.924C257.329,210.283,262.884,214.406,269.397,216.613z M252.662,122.667
	c2.845-6.261,3.638-13.135,2.292-19.878c-1.305-6.542,1.141-13.169,6.381-17.296l87.069-68.578c3.556-2.799,8.649-2.498,11.85,0.702
	l15.375,15.375c3.183,3.183,3.497,8.26,0.732,11.811l-41.711,53.563c-17.559,22.55-40.93,39.026-67.89,47.982
	c-3.573-7.604-9.393-13.944-16.602-18.169L252.662,122.667z M229.317,137.519c14.53,0,26.352,11.821,26.352,26.352
	c0,14.53-11.821,26.352-26.352,26.352c-14.531,0-26.352-11.821-26.352-26.352C202.965,149.34,214.787,137.519,229.317,137.519z
	 M299.987,494.645c0,1.299-1.057,2.355-2.355,2.355H161.002c-1.299,0-2.355-1.057-2.355-2.355v-23.118
	c0-1.298,1.057-2.355,2.355-2.355h18.662c0.003,0,0.006,0,0.009,0s0.007,0,0.01,0h99.267c0.003,0,0.007,0,0.01,0
	c0.003,0,0.006,0,0.009,0h18.662c1.299,0,2.355,1.057,2.355,2.355v23.118H299.987z M482.62,254.326h-58.79
	c-4.143,0-7.5,3.358-7.5,7.5s3.357,7.5,7.5,7.5h58.79c4.142,0,7.5-3.358,7.5-7.5S486.762,254.326,482.62,254.326z M445.663,290.14
	h-58.551c-12.512,0-22.69-10.179-22.69-22.69c0-12.512,10.179-22.69,22.69-22.69c4.143,0,7.5-3.358,7.5-7.5
	c0-4.142-3.357-7.5-7.5-7.5c-20.782,0-37.69,16.908-37.69,37.69s16.908,37.69,37.69,37.69h58.551c4.143,0,7.5-3.358,7.5-7.5
	C453.163,293.498,449.805,290.14,445.663,290.14z"/>
<g>
</g>
<g>
</g>
<g>
</g>
<g>
</g>
<g>
</g>
<g>
</g>
<g>
</g>
<g>
</g>
<g>
</g>
<g>
</g>
<g>
</g>
<g>
</g>
<g>
</g>
<g>
</g>
<g>
</g>
</svg>
