<?xml version="1.0" encoding="utf-8"?>
<!-- Generator: Adobe Illustrator 24.2.3, SVG Export Plug-In . SVG Version: 6.00 Build 0)  -->
<svg version="1.1" id="Capa_1" xmlns="http://www.w3.org/2000/svg" xmlns:xlink="http://www.w3.org/1999/xlink" x="0px" y="0px"
	 viewBox="0 0 455.6 455.6" style="enable-background:new 0 0 455.6 455.6;" xml:space="preserve">
<style type="text/css">
	.st0{fill:#FAA515;}
	.st1{fill:#FDC75B;}
	.st2{fill:#333333;}
	.st3{fill:#ED664C;}
</style>
<g>
	<path class="st0" d="M227.8,12.6c118.8,0,215.1,96.3,215.1,215.1S346.6,443,227.8,443S12.7,346.6,12.7,227.8S109,12.6,227.8,12.6z
		 M390.2,227.8c0-89.7-72.7-162.4-162.4-162.4S65.4,138.1,65.4,227.8s72.7,162.4,162.4,162.4S390.2,317.4,390.2,227.8z"/>
	<circle class="st1" cx="227.8" cy="227.8" r="162.4"/>
	<path class="st2" d="M227.8,2.8c-60.2,0-116.6,23.4-159.1,65.9S2.8,167.7,2.8,227.8s23.4,116.6,65.9,159.1s99.1,65.9,159.1,65.9
		s116.6-23.4,159.1-65.9s65.9-99.1,65.9-159.1s-23.4-116.6-65.9-159.1S288,2.8,227.8,2.8z M227.8,433.1
		c-113.2,0-205.2-92.1-205.2-205.2S114.6,22.6,227.8,22.6S433,114.6,433,227.8S341,433.1,227.8,433.1z"/>
	<path class="st2" d="M227.8,55.5c-95,0-172.3,77.2-172.3,172.3s77.2,172.3,172.3,172.3s172.3-77.2,172.3-172.3
		S322.8,55.5,227.8,55.5z M227.8,380.3c-84.1,0-152.5-68.4-152.5-152.5S143.7,75.3,227.8,75.3s152.5,68.4,152.5,152.5
		S311.9,380.3,227.8,380.3z"/>
	<path class="st3" d="M232.2,163.9l17.7,36.1c0.7,1.5,2.1,2.5,3.8,2.8l39.6,5.7c4,0.6,5.7,5.5,2.8,8.4l-28.7,28
		c-1.2,1.2-1.7,2.8-1.4,4.3l6.8,39.6c0.7,4-3.6,7.1-7.2,5.2l-35.4-18.8c-1.5-0.8-3.2-0.8-4.6,0L190.1,294c-3.7,1.9-7.9-1.2-7.2-5.2
		l6.8-39.6c0.3-1.6-0.3-3.3-1.4-4.3l-28.7-28c-3-2.9-1.3-7.8,2.8-8.4l39.6-5.7c1.6-0.2,3.1-1.3,3.8-2.8l17.7-36.1
		C225.1,160.1,230.4,160.1,232.2,163.9L232.2,163.9z"/>
	<path class="st2" d="M310.2,208.5c-0.9-2.7-3.2-4.6-6-5l-48.3-6.9l-21.5-44c-2.5-5.4-10.9-5.4-13.3,0l-21.3,44l-48.3,6.9
		c-5.9,0.7-8.5,8.7-4.1,12.6l35,34.1l-8.3,48.2c-1.2,5.8,5.5,10.8,10.8,7.8l43.2-22.8l43.2,22.8c5.2,3,12-2,10.8-7.8l-8.3-48.2
		l35-34.1C310.4,214.2,311.1,211.3,310.2,208.5L310.2,208.5z M260.2,242.3c-1.8,1.7-2.6,4.1-2.2,6.6l6.4,37.1l-33.3-17.6
		c-2.2-1.2-4.7-1.2-6.9,0L191,286l6.4-37.1c0.4-2.5-0.4-4.9-2.2-6.6l-27-26.3l37.2-5.3c2.5-0.4,4.5-1.9,5.6-4l16.6-33.9l16.6,33.9
		c1.1,2.2,3.2,3.8,5.6,4l37.2,5.3L260.2,242.3z"/>
</g>
</svg>
