<?xml version="1.0" encoding="utf-8"?>
<!-- Generator: Adobe Illustrator 24.2.3, SVG Export Plug-In . SVG Version: 6.00 Build 0)  -->
<svg version="1.1" id="Capa_1" xmlns="http://www.w3.org/2000/svg" xmlns:xlink="http://www.w3.org/1999/xlink" x="0px" y="0px"
	 viewBox="0 0 455.6 455.6" style="enable-background:new 0 0 455.6 455.6;" xml:space="preserve">
<style type="text/css">
	.st0{fill:url(#SVGID_1_);}
	.st1{fill:url(#SVGID_2_);}
	.st2{opacity:0.3;fill:#FFEA83;}
	.st3{fill:#FFEA83;}
	.st4{opacity:0.5;fill:url(#SVGID_3_);}
	.st5{fill:url(#SVGID_4_);}
	.st6{fill:#D68738;}
	.st7{fill:url(#SVGID_5_);}
	.st8{opacity:0.2;fill:#FFEA83;}
	.st9{opacity:0.1;fill:#FFEA83;}
	.st10{fill:url(#SVGID_6_);}
	.st11{opacity:0.1;fill:#D37F24;}
	.st12{fill:url(#SVGID_7_);}
	.st13{opacity:0.8;fill:url(#SVGID_8_);}
	.st14{opacity:0.6;fill:url(#SVGID_9_);}
</style>
<g>
	<linearGradient id="SVGID_1_" gradientUnits="userSpaceOnUse" x1="227.8" y1="0" x2="227.8" y2="455.6">
		<stop  offset="0" style="stop-color:#F8BE4F"/>
		<stop  offset="0.1103" style="stop-color:#FBC450"/>
		<stop  offset="0.3031" style="stop-color:#FFCB52"/>
		<stop  offset="1" style="stop-color:#D17D3D"/>
	</linearGradient>
	<circle class="st0" cx="227.8" cy="227.8" r="227.8"/>
	<radialGradient id="SVGID_2_" cx="225.5267" cy="-31.3322" r="181.423" gradientUnits="userSpaceOnUse">
		<stop  offset="0" style="stop-color:#FFDF7D"/>
		<stop  offset="1" style="stop-color:#000000"/>
	</radialGradient>
	<circle class="st1" cx="227.8" cy="227.8" r="226.7"/>
	<path class="st2" d="M227.8,448.7C103.1,448.7,1.9,348.6,0,224.4c0,1.1,0,2.3,0,3.4c0,125.8,102,227.8,227.8,227.8
		c125.8,0,227.8-102,227.8-227.8c0-1.1,0-2.3,0-3.4C453.7,348.6,352.5,448.7,227.8,448.7z"/>
	<path class="st3" d="M227.8,8.6c124.4,0,225.5,99.7,227.7,223.5c0-1.4,0.1-2.9,0.1-4.3C455.6,102,353.6,0,227.8,0
		C102,0,0,102,0,227.8c0,1.4,0,2.9,0.1,4.3C2.3,108.2,103.4,8.6,227.8,8.6z"/>
	<linearGradient id="SVGID_3_" gradientUnits="userSpaceOnUse" x1="227.8028" y1="451.5793" x2="227.8028" y2="120.9997">
		<stop  offset="0" style="stop-color:#FFCA85"/>
		<stop  offset="1" style="stop-color:#000000"/>
	</linearGradient>
	<path class="st4" d="M227.8,0.9C104.6,0.9,4.3,99.1,1.1,221.5c25.1,14.9,64.5,3,90.3-9.9c22.2-10.2,49.5-6.8,73.3-5.1
		c59.7,5.1,117.7,30.7,177.4,15.3c11.9-3.4,29-18.8,40.9-8.5c21,17.5,49.3,19,71.5,8.4C451.4,99.2,351.1,0.9,227.8,0.9z"/>
	<linearGradient id="SVGID_4_" gradientUnits="userSpaceOnUse" x1="227.7999" y1="404.2166" x2="227.7999" y2="-29.2672">
		<stop  offset="0" style="stop-color:#FBC450"/>
		<stop  offset="1" style="stop-color:#E09744"/>
	</linearGradient>
	<circle class="st5" cx="227.8" cy="227.8" r="176.4"/>
	<circle class="st6" cx="227.8" cy="227.8" r="167.9"/>
	<radialGradient id="SVGID_5_" cx="226.3873" cy="137.3864" r="313.6231" gradientUnits="userSpaceOnUse">
		<stop  offset="0.3031" style="stop-color:#FFCB52"/>
		<stop  offset="1" style="stop-color:#D17D3D"/>
	</radialGradient>
	<circle class="st7" cx="227.8" cy="227.8" r="161"/>
	<path class="st8" d="M227.8,376.8c-87.5,0-158.7-66.4-160.9-153.3c0,1.4-0.1,2.9-0.1,4.3c0,88.9,72.1,161,161,161
		c88.9,0,161-72.1,161-161c0-1.4,0-2.9-0.1-4.3C386.5,310.5,315.3,376.8,227.8,376.8z"/>
	<path class="st9" d="M328.5,205.6L328.5,205.6c-1.7-5.2-6.1-8.9-11.5-9.7l-52.8-7.7l-23.6-47.8c-2.4-4.9-7.3-8-12.8-8
		c-5.5,0-10.4,3-12.8,8l-23.6,47.8l-52.8,7.7c-5.4,0.8-9.8,4.5-11.5,9.7c-1.7,5.2-0.3,10.8,3.6,14.6l38.2,37.2l-9,52.6
		c-0.9,5.4,1.3,10.7,5.7,13.9c4.3,3.2,10.3,3.6,15,1.1l47.2-24.8L275,325c2.1,1.1,4.4,1.7,6.7,1.7c2.9,0,5.9-0.9,8.4-2.7
		c4.4-3.2,6.6-8.6,5.7-13.9l-9-52.6l38.2-37.2C328.8,216.4,330.2,210.8,328.5,205.6z"/>
	<linearGradient id="SVGID_6_" gradientUnits="userSpaceOnUse" x1="227.7996" y1="182.24" x2="227.7996" y2="322.1628">
		<stop  offset="0" style="stop-color:#F2A746"/>
		<stop  offset="0.3083" style="stop-color:#E89A43"/>
		<stop  offset="1" style="stop-color:#D17D3D"/>
	</linearGradient>
	<path class="st10" d="M325.2,205c-1.3-4-4.6-6.8-8.7-7.4l-54.6-7.9l-24.4-49.4v0c-1.8-3.7-5.6-6-9.7-6c-4.2,0-7.9,2.3-9.7,6
		l-24.4,49.4l-54.6,7.9c-4.1,0.6-7.5,3.4-8.7,7.4c-1.3,4-0.2,8.2,2.7,11.1l36,36.8l-9.3,54.3c-0.7,4.1,0.9,8.8,4.3,11.2
		c1.9,1.4,7.7,4.6,14.9,1.9l48.8-25.7l48.8,25.7c3.7,1.9,9.8,2,13.2-0.5c3.4-2.4,6.7-8.6,6-12.7l-9.3-54.3l36-36.8
		C325.4,213.2,326.5,208.9,325.2,205z"/>
	<path class="st11" d="M325.2,194.7c-1.3-4-4.6-6.8-8.7-7.4l-54.6-7.9L237.5,130v0c-1.8-3.7-5.6-6-9.7-6c-4.2,0-7.9,2.3-9.7,6
		l-24.4,49.4l-54.6,7.9c-4.1,0.6-7.5,3.4-8.7,7.4c-1.3,4-0.2,8.2,2.7,11.1l39.5,38.5l-9.3,54.3c-0.7,4.1,1,8.2,4.3,10.6
		c1.9,1.4,4.1,2.1,6.4,2.1c1.7,0,3.5-0.4,5.1-1.3l48.8-25.7l48.8,25.7c3.7,1.9,8.1,1.6,11.4-0.8c3.4-2.4,5-6.5,4.3-10.6l-9.3-54.3
		l39.5-38.5C325.4,202.9,326.5,198.6,325.2,194.7z"/>
	<linearGradient id="SVGID_7_" gradientUnits="userSpaceOnUse" x1="227.8" y1="129.9077" x2="227.8" y2="448.135">
		<stop  offset="0" style="stop-color:#FFD863"/>
		<stop  offset="0.7065" style="stop-color:#ECAB49"/>
		<stop  offset="1" style="stop-color:#FCC550"/>
	</linearGradient>
	<path class="st12" d="M235.2,134.5l25,50.6l55.9,8.1c6.8,1,9.5,9.3,4.6,14.1l-40.4,39.4l9.5,55.7c1.2,6.8-5.9,11.9-12,8.7l-50-26.3
		l-50,26.3c-6.1,3.2-13.2-2-12-8.7l9.5-55.7l-40.4-39.4c-4.9-4.8-2.2-13.1,4.6-14.1l55.9-8.1l25-50.6
		C223.4,128.4,232.2,128.4,235.2,134.5z"/>
	<g>
		<path class="st2" d="M174.6,251.2l-8.8,51.3c-0.2,1.3-0.1,2.6,0.2,3.8l9.3-54.3L174.6,251.2z"/>
		<path class="st3" d="M139.5,198.4l59.3-8.1l25-50.6c3-6.1,4.9-6.1,8,0l25,50.6l59.3,8.1c3.4,0.5,5.8,2.8,6.7,5.6
			c1.5-4.6-1.3-10-6.7-10.8l-55.9-8.1l-25-50.6c-3-6.1-11.8-6.1-14.8,0l-25,50.6l-55.9,8.1c-5.4,0.8-8.2,6.2-6.7,10.8
			C133.7,201.2,136.1,198.9,139.5,198.4z"/>
		<path class="st2" d="M281,251.2l-0.8,0.7l9.3,54.3c0.4-1.2,0.5-2.4,0.2-3.8L281,251.2z"/>
	</g>
	<radialGradient id="SVGID_8_" cx="226.0872" cy="92.2851" r="161.0023" gradientUnits="userSpaceOnUse">
		<stop  offset="0" style="stop-color:#FFE06E"/>
		<stop  offset="1" style="stop-color:#000000"/>
	</radialGradient>
	<path class="st13" d="M235.2,134.5l25,50.6l55.9,8.1c6.8,1,9.5,9.3,4.6,14.1l-40.4,39.4l9.5,55.7c1.2,6.8-5.9,11.9-12,8.7l-50-26.3
		l-50,26.3c-6.1,3.2-13.2-2-12-8.7l9.5-55.7l-40.4-39.4c-4.9-4.8-2.2-13.1,4.6-14.1l55.9-8.1l25-50.6
		C223.4,128.4,232.2,128.4,235.2,134.5z"/>
	<linearGradient id="SVGID_9_" gradientUnits="userSpaceOnUse" x1="227.235" y1="310.206" x2="227.235" y2="197.0162">
		<stop  offset="0" style="stop-color:#FFDD8F"/>
		<stop  offset="1" style="stop-color:#000000"/>
	</linearGradient>
	<path class="st14" d="M316.1,193.3l-55.9-8.1l-25-50.6c-3-6.1-11.8-6.1-14.8,0l-25,50.6l-55.9,8.1c-2.9,0.4-5,2.2-6.1,4.4
		c7.1,8.8,9.8,10.4,21.4,18.6c35.4,20,123.9,16.6,148.4-3.4c9.1-7.4,12.4-8.4,18-16.8C319.9,194.6,318.2,193.6,316.1,193.3z"/>
</g>
</svg>
