<?xml version="1.0" encoding="utf-8"?>
<!-- Generator: Adobe Illustrator 24.2.3, SVG Export Plug-In . SVG Version: 6.00 Build 0)  -->
<svg version="1.1" id="Layer_1" xmlns="http://www.w3.org/2000/svg" xmlns:xlink="http://www.w3.org/1999/xlink" x="0px" y="0px"
	 viewBox="0 0 246.6 142" style="enable-background:new 0 0 246.6 142;" xml:space="preserve">
<style type="text/css">
	.st0{fill:#EEF6FF;}
	.st1{fill:#D9EAFC;}
	.st2{fill:#999999;}
	.st3{fill:#666666;}
	.st4{fill:#F7B030;}
	.st5{fill:#FFD33A;}
	.st6{fill:#333333;}
</style>
<g id="Layer_2_1_">
	<g id="Board_Game">
		<path class="st0" d="M133.5,78c14.5-5.4,41.4,26.1,59.4,31c4.1,1.1,8.4-0.9,10.2-4.8l17.8-38.6c1.1-2.4,0-5.3-2.4-6.4
			c-0.3-0.1-0.7-0.3-1-0.3c-18-3.7-45.8-36.8-60.7-31.3L133.5,78z"/>
		<path class="st1" d="M156.8,27.5L133.5,78c13.7-5.1,38.3,22.5,56.1,29.8c-18.9-16.1-29.7-64.5-25.3-80.4
			C161.9,26.7,159.2,26.7,156.8,27.5z"/>
		<path class="st2" d="M198.2,70.5l-7.7,16.8c6.9,4.2,13.3,6.6,18.2,4.8l7.7-16.8C211.5,77.1,205.1,74.7,198.2,70.5z"/>
		<path class="st2" d="M167.2,49.1l-7.7,16.8c4.9,3,10.2,6.8,15.5,10.7l7.7-16.8C177.5,56,172.2,52.1,167.2,49.1L167.2,49.1z"/>
		<path class="st2" d="M205.9,53.7c-5-3-10.2-6.9-15.5-10.7l-7.7,16.8c5.3,3.9,10.5,7.8,15.5,10.7L205.9,53.7z"/>
		<path class="st2" d="M167.2,49.1l7.7-16.9c-6.9-4.2-13.3-6.6-18.2-4.8L149,44.3C153.9,42.5,160.3,44.9,167.2,49.1L167.2,49.1z"/>
		<path class="st2" d="M190.4,87.4c-5-3-10.2-6.9-15.4-10.7l-7.7,16.8c5.3,3.9,10.5,7.8,15.5,10.7L190.4,87.4z"/>
		<path class="st3" d="M151.7,82.7l7.7-16.8c-6.9-4.2-13.3-6.6-18.2-4.8L133.5,78C138.5,76.2,144.8,78.6,151.7,82.7z"/>
		<path class="st4" d="M109.1,118.3l-4.7-2.2c-2.7-1.2-3.8-4.4-2.6-7.1l41.7-90.6c1.2-2.7,4.4-3.9,7.1-2.6l4.7,2.2
			c2.7,1.2,3.8,4.4,2.6,7.1l-41.7,90.6C114.9,118.4,111.8,119.5,109.1,118.3L109.1,118.3z"/>
		<path class="st5" d="M122.9,101.1l35-76c1.2-2.7,0.1-5.8-2.6-7.1l-4.7-2.2c-2.7-1.2-5.8-0.1-7.1,2.6l-35,76L122.9,101.1z"/>
		<path class="st4" d="M122.2,64.5l-13.8,30l14.4,6.6l8.8-19.1C126.6,79.1,122.9,69.7,122.2,64.5z"/>
		<path class="st3" d="M172.8,81.2l-5.6,12.2c5.3,3.9,10.5,7.8,15.5,10.7l1.2-2.6C179.6,96.1,175.9,89,172.8,81.2L172.8,81.2z"/>
		<path class="st3" d="M165.1,53.8l-5.6,12.2c3.3,2,6.8,4.4,10.4,7C167.8,66.6,166.2,60.2,165.1,53.8z"/>
		<path class="st3" d="M156.8,27.5L149,44.3c4.2-1.5,9.4,0,15.1,3c-1-8.3-1-15.4,0.3-19.9C161.9,26.7,159.2,26.7,156.8,27.5
			L156.8,27.5z"/>
		<path class="st6" d="M217.8,56.8c-16.1-3.3-41.6-32.4-57.8-31.9c1-3.5-0.7-7.1-4-8.6l-4.7-2.2c-3.7-1.7-8-0.1-9.7,3.6l-1.8,3.9
			c-0.4,1,0.2,2.1,1.2,2.5c0.9,0.3,1.9-0.1,2.4-0.9l1.8-3.9c0.8-1.7,2.8-2.4,4.5-1.6l4.7,2.2c1.7,0.8,2.4,2.8,1.6,4.5
			c-1.9,4.2-32.6,70.9-34.1,74.2l-10.8-5l28.4-61.8c0.5-0.9,0.2-2.1-0.8-2.7c-0.9-0.5-2.1-0.2-2.7,0.8c-0.1,0.1-0.1,0.2-0.1,0.3
			l-36,78.2c-1.7,3.7-0.1,8,3.6,9.7l4.7,2.2c3.7,1.7,8,0.1,9.7-3.6l17-36.9c13.3-3.4,39.8,26.4,57.4,31.2c4.1,1.1,8.5-0.3,11.1-3.6
			c0.6-0.9,0.4-2.1-0.5-2.7c-0.8-0.5-1.9-0.4-2.5,0.3c-1.7,2.1-4.4,3-7,2.3c-2.9-0.9-5.6-2.1-8.2-3.6l6.1-13.2c5,2.8,9.7,4.6,14,4.5
			l-1,2.2c-0.4,1,0,2.1,1,2.6c1,0.5,2.1,0,2.6-1c0,0,0,0,0,0l14.8-32.2c1.6-3.4,0.1-7.5-3.3-9C218.9,57.1,218.4,56.9,217.8,56.8
			L217.8,56.8z M114.4,114.9c-0.8,1.7-2.8,2.4-4.5,1.6l-4.7-2.1c-1.7-0.8-2.4-2.8-1.6-4.5l5.9-12.8l10.9,5L114.4,114.9z M203.4,54.5
			l-6.1,13.3c-3.9-2.5-8.1-5.5-12.2-8.5l6.1-13.2C195.3,49,199.4,52,203.4,54.5z M188,43.6l-6.1,13.2c-4.2-3.1-8.3-6-12.2-8.5
			l6.1-13.2C179.8,37.6,183.9,40.6,188,43.6L188,43.6z M180.3,60.5l-6.1,13.2c-4.2-3.1-8.3-6-12.2-8.5l6.1-13.2
			C172,54.4,176.1,57.4,180.3,60.5L180.3,60.5z M158.2,29.1c3.8-1,8.8,0.8,14.3,3.9l-6.1,13.3c-5-2.8-9.7-4.6-14-4.5L158.2,29.1z
			 M150.4,45.9c3.8-1,8.8,0.8,14.3,3.9l-6.1,13.3c-5-2.8-9.7-4.6-14-4.5L150.4,45.9z M136.8,75.4l5.8-12.6c3.8-1,8.8,0.8,14.3,3.9
			l-6.1,13.2C145.8,77.1,141.1,75.3,136.8,75.4L136.8,75.4z M154.2,82l6.1-13.2c3.9,2.5,8.1,5.5,12.2,8.5l-6.1,13.2
			C162.3,87.4,158.2,84.4,154.2,82L154.2,82z M181.8,101.4c-3.9-2.5-8.1-5.5-12.2-8.5l6.1-13.2c4.2,3.1,8.2,6,12.2,8.5L181.8,101.4z
			 M177.4,76l6.1-13.2c4.2,3.1,8.2,6,12.2,8.5l-6.1,13.2C185.6,82,181.5,79,177.4,76z M207.2,90.5c-3.8,1-8.8-0.8-14.3-3.9l6.1-13.3
			c5,2.8,9.7,4.6,14,4.5L207.2,90.5z M219.1,64.7l-4.1,9c-3.8,1-8.8-0.8-14.3-3.9l6.1-13.3c3.2,1.9,6.7,3.3,10.3,4.2
			c1.6,0.3,2.6,1.9,2.2,3.4C219.2,64.3,219.2,64.5,219.1,64.7z"/>
		<path class="st0" d="M113,85.8c-14.5-5.4-41.4,26.1-59.4,31c-4.1,1.1-8.4-0.9-10.2-4.8L25.7,73.4c-1.1-2.4,0-5.3,2.4-6.4
			c0.3-0.1,0.7-0.3,1-0.3c17.9-3.7,45.8-36.8,60.7-31.3L113,85.8z"/>
		<path class="st1" d="M89.8,35.3L113,85.8c-13.7-5.1-38.3,22.5-56.1,29.8c18.9-16,29.7-64.4,25.3-80.4
			C84.7,34.5,87.3,34.5,89.8,35.3z"/>
		<path class="st3" d="M48.4,78.4l7.7,16.8c-6.9,4.2-13.3,6.6-18.2,4.8l-7.7-16.8C35.1,85,41.5,82.5,48.4,78.4z"/>
		<path class="st3" d="M79.3,56.9l7.7,16.8c-5,3-10.2,6.9-15.5,10.7l-7.8-16.8C69.1,63.8,74.4,59.9,79.3,56.9z"/>
		<path class="st3" d="M40.7,61.5c5-3,10.2-6.9,15.5-10.7l7.7,16.8c-5.3,3.9-10.5,7.8-15.5,10.7L40.7,61.5z"/>
		<path class="st3" d="M79.3,56.9l-7.7-16.8c6.9-4.2,13.3-6.6,18.2-4.8l7.7,16.8C92.6,50.3,86.3,52.7,79.3,56.9L79.3,56.9z"/>
		<path class="st3" d="M56.2,95.2c5-3,10.2-6.9,15.5-10.7l7.7,16.8c-5.3,3.9-10.5,7.8-15.5,10.7L56.2,95.2z"/>
		<path class="st2" d="M94.8,90.6l-7.7-16.8c6.9-4.2,13.3-6.6,18.2-4.8l7.7,16.8C108.1,84,101.8,86.4,94.8,90.6z"/>
		<path class="st4" d="M137.5,126.2l4.7-2.2c2.7-1.2,3.8-4.4,2.6-7.1l-41.7-90.6c-1.2-2.7-4.4-3.8-7.1-2.6l-4.7,2.2
			c-2.7,1.2-3.8,4.4-2.6,7.1l41.7,90.6C131.6,126.2,134.8,127.4,137.5,126.2L137.5,126.2z"/>
		<path class="st5" d="M123.7,108.9l-35-76c-1.2-2.7-0.1-5.8,2.6-7.1l4.7-2.2c2.7-1.2,5.8-0.1,7.1,2.6l35,76L123.7,108.9z"/>
		<path class="st4" d="M124.3,72.4l13.8,29.9l-14.4,6.6l-8.8-19.1C120,86.9,123.7,77.5,124.3,72.4z"/>
		<path class="st2" d="M73.7,89.1l5.6,12.2c-5.3,3.9-10.5,7.8-15.5,10.7l-1.2-2.6C67,103.9,70.7,96.8,73.7,89.1z"/>
		<path class="st2" d="M81.5,61.6l5.6,12.2c-3.3,2-6.8,4.4-10.4,7C78.7,74.5,80.3,68.1,81.5,61.6z"/>
		<path class="st2" d="M89.8,35.3l7.7,16.8c-4.2-1.6-9.4-0.1-15,3c1-8.3,1-15.4-0.3-19.9C84.7,34.5,87.3,34.5,89.8,35.3z"/>
		<path class="st6" d="M28.7,64.7c16.1-3.3,41.6-32.4,57.8-31.9c-1-3.5,0.7-7.1,4-8.6l4.7-2.2c3.7-1.7,8-0.1,9.7,3.6l1.8,3.9
			c0.4,1-0.2,2.1-1.2,2.5c-0.9,0.3-1.9-0.1-2.4-0.9l-1.8-3.9c-0.8-1.7-2.8-2.4-4.5-1.6c0,0,0,0,0,0l-4.7,2.2
			c-1.7,0.8-2.4,2.8-1.6,4.5c1.9,4.2,32.6,70.9,34.1,74.2l10.9-5l-28.5-61.8c-0.5-0.9-0.2-2.1,0.8-2.7c0.9-0.5,2.1-0.2,2.7,0.8
			c0.1,0.1,0.1,0.2,0.1,0.3l35.9,78.2c1.7,3.7,0.1,8-3.6,9.7l-4.7,2.2c-3.7,1.7-8,0.1-9.7-3.6l-17-36.9
			c-13.3-3.4-39.8,26.4-57.4,31.2c-4.1,1.1-8.5-0.3-11.1-3.6c-0.6-0.9-0.4-2.1,0.5-2.7c0.8-0.5,1.9-0.4,2.5,0.3c1.7,2.1,4.4,3,7,2.3
			c2.9-0.9,5.7-2.1,8.3-3.7L55.3,98c-5,2.8-9.7,4.6-14,4.5l1,2.2c0.4,1,0,2.1-1,2.6c-1,0.4-2.1,0-2.6-1l0,0L23.9,74.2
			c-1.6-3.4-0.1-7.5,3.3-9C27.7,64.9,28.2,64.8,28.7,64.7z M132.2,122.7c0.8,1.7,2.8,2.4,4.5,1.6l4.7-2.2c1.7-0.8,2.4-2.8,1.6-4.5
			l-5.9-12.8l-10.8,5.1L132.2,122.7z M43.2,62.3l6.1,13.3C53.2,73,57.4,70,61.4,67l-6.1-13.2C51.3,56.8,47.2,59.8,43.2,62.3z
			 M58.6,51.4l6.1,13.2c4.2-3.1,8.3-6,12.2-8.5l-6.1-13.2C66.8,45.4,62.7,48.4,58.6,51.4L58.6,51.4z M66.3,68.3l6.1,13.2
			c4.2-3.1,8.3-6,12.2-8.5l-6.1-13.2C74.5,62.2,70.4,65.2,66.3,68.3z M88.4,36.9c-3.8-1-8.8,0.8-14.3,3.9l6.1,13.3
			c5-2.8,9.7-4.6,14-4.5L88.4,36.9z M96.1,53.8c-3.8-1-8.8,0.8-14.3,3.9L88,71c5-2.8,9.7-4.6,14-4.5L96.1,53.8z M109.7,83.3
			l-5.8-12.7c-3.8-1-8.8,0.8-14.3,3.9l6.1,13.3C100.7,84.9,105.4,83.1,109.7,83.3L109.7,83.3z M92.3,89.8l-6.1-13.2
			c-3.9,2.5-8.1,5.5-12.2,8.5l6.1,13.2C84.3,95.2,88.4,92.3,92.3,89.8L92.3,89.8z M64.7,109.2c3.9-2.5,8.1-5.5,12.2-8.5l-6.1-13.2
			c-4.2,3.1-8.2,6-12.2,8.5L64.7,109.2z M69.2,83.8l-6.1-13.2c-4.2,3.1-8.2,6-12.2,8.5L57,92.3C60.9,89.8,65.1,86.8,69.2,83.8
			L69.2,83.8z M39.4,98.4c3.8,1,8.8-0.8,14.3-3.9l-6.1-13.3c-5,2.8-9.7,4.6-14,4.5L39.4,98.4z M27.5,72.5l4.1,9
			c3.8,1,8.8-0.8,14.3-3.9l-6.1-13.3c-3.2,1.9-6.7,3.3-10.3,4.2c-1.6,0.3-2.6,1.9-2.2,3.4C27.3,72.1,27.4,72.3,27.5,72.5z"/>
	</g>
</g>
</svg>
