<?xml version="1.0" encoding="utf-8"?>
<!-- Generator: Adobe Illustrator 24.2.3, SVG Export Plug-In . SVG Version: 6.00 Build 0)  -->
<svg version="1.1" id="Layer_1" xmlns="http://www.w3.org/2000/svg" xmlns:xlink="http://www.w3.org/1999/xlink" x="0px" y="0px"
	 viewBox="0 0 197.8 158.8" style="enable-background:new 0 0 197.8 158.8;" xml:space="preserve">
<style type="text/css">
	.st0{fill:#445EA0;}
	.st1{fill:#FFD33A;}
	.st2{fill:#1A2B63;}
	.st3{fill:#F7B030;}
	.st4{fill:#333333;}
</style>
<g id="Layer_2_1_">
	<g id="Board_Game">
		<polygon class="st0" points="41.9,70.7 41.9,137.4 32.9,137.4 32.9,69.7 		"/>
		<polygon class="st0" points="164.8,69.7 164.8,137.4 155.9,137.4 155.9,70.7 		"/>
		<path class="st1" d="M171.7,21.4v47.3c-20.2,2.9-40.6,4.6-61,5c-28.3,0.6-56.5-1.1-84.5-5V21.4c6.9,1,13.8,1.8,20.7,2.5l0,0
			C88.4,28.1,130.3,27.3,171.7,21.4z"/>
		<path class="st2" d="M32.9,69.7l8.9,1.1V81c-3-0.3-5.9-0.7-8.9-1.1L32.9,69.7z"/>
		<path class="st2" d="M164.8,69.7v10.2c-3,0.4-5.9,0.7-8.9,1.1V70.8L164.8,69.7z"/>
		<path class="st3" d="M110.7,73.8c-28.3,0.6-56.5-1-84.5-5V21.4c6.9,1,13.8,1.8,20.7,2.5C57.2,25,65.3,70.7,110.7,73.8L110.7,73.8z
			"/>
		<path class="st4" d="M77.2,61.6c1.2,0,2.2-1,2.2-2.2V42.4c1.6,0.1,3.2,0.2,4.8,0.2h0.1c1.2,0,2.2-1.1,2.2-2.3
			c0-1.1-0.9-2.1-2.1-2.1c-4.7-0.2-9.5-0.5-14.1-0.9c-1.2-0.1-2.3,0.8-2.4,2c-0.1,1.2,0.8,2.3,2,2.4c0,0,0,0,0.1,0
			c1.7,0.1,3.4,0.3,5.1,0.4v17.2C75,60.6,75.9,61.6,77.2,61.6z"/>
		<path class="st4" d="M139.2,59.9c1.2,0,2.2-1,2.2-2.2c0,0,0,0,0,0V40.4c1.7-0.2,3.4-0.4,5.2-0.7c1.2-0.2,2-1.4,1.8-2.6
			c-0.2-1.1-1.2-1.9-2.4-1.8c-4.7,0.6-9.4,1.2-14.1,1.6c-1.2,0.1-2.1,1.2-2,2.5c0.1,1.1,1.1,1.9,2.2,2h0.2c1.5-0.1,3.1-0.3,4.6-0.5
			v16.8C137,58.9,138,59.9,139.2,59.9z"/>
		<path class="st4" d="M124.8,45.5v-0.7c0-1.9-0.8-3.7-2.1-5c-1.4-1.3-3.3-2-5.2-1.9c-1.9,0.1-3.7,0.2-5.6,0.3c-1.2,0-2.1,1-2.1,2.2
			v19.3c0,1.2,1,2.2,2.2,2.2c1.2,0,2.2-1,2.2-2.2v-6.6c1.6,0,3.1,0.6,4.3,1.7c1.2,1.1,1.8,2.7,1.8,4.3c0,1.2,1,2.2,2.2,2.2
			c1.2,0,2.2-1,2.2-2.2l0,0c0-2.9-1.1-5.6-3.2-7.6l0,0C123.6,50.2,124.7,48,124.8,45.5z M114.2,42.6c1.2,0,2.3-0.1,3.5-0.2
			c0.7,0,1.4,0.2,1.9,0.7c0.5,0.5,0.8,1.1,0.8,1.8v0.7c0,1.6-1.2,2.9-2.8,3l0,0l-3.3,0.2L114.2,42.6z"/>
		<path class="st4" d="M102.1,62.2c1.2,0,2.2-1,2.2-2.2V45.9c0-4.1-3.4-7.4-7.4-7.3c-1.9,0-3.8,0.8-5.1,2.1
			c-1.4,1.4-2.1,3.2-2.1,5.1v14.1c0,1.2,1,2.2,2.2,2.2c1.2,0,2.2-1,2.2-2.2c0,0,0,0,0,0v-6.6c1.6,0,3.2,0,4.9,0h0.9V60
			C99.8,61.3,100.8,62.2,102.1,62.2z M94,48.8v-3c0-0.7,0.3-1.5,0.8-2c1.2-1.1,3-1.1,4.1,0c0.5,0.5,0.8,1.3,0.8,2v3
			C97.9,48.9,95.9,48.9,94,48.8z"/>
		<path class="st4" d="M54.3,40.8c0.5-0.4,1.1-0.6,1.7-0.5c1.8,0.2,3.6,0.4,5.4,0.6c1.2,0.1,2.3-0.9,2.4-2.1
			c0.1-1.1-0.7-2.2-1.9-2.3c-1.8-0.2-3.6-0.4-5.4-0.6c-1.9-0.3-3.7,0.3-5.2,1.5c-1.4,1.2-2.2,3-2.1,4.9c0,3.9,2.9,7.1,6.8,7.6
			l0.6,0.1c1.6,0.2,2.8,1.6,2.8,3.2c0.1,1.1-0.8,2-1.9,2.1c-0.1,0-0.3,0-0.4,0c-1.8-0.2-3.6-0.4-5.4-0.7c-1.2-0.2-2.3,0.7-2.5,1.9
			s0.7,2.3,1.9,2.5l0,0c1.8,0.2,3.6,0.5,5.4,0.7c0.3,0,0.6,0.1,0.8,0.1c1.6,0,3.1-0.6,4.3-1.6c1.4-1.3,2.2-3.1,2.2-4.9
			c0-3.9-2.9-7.1-6.8-7.6l-0.6-0.1c-1.6-0.3-2.8-1.6-2.8-3.2C53.7,41.8,53.9,41.2,54.3,40.8z"/>
		<path class="st4" d="M173.1,19.7c-0.5-0.4-1.1-0.6-1.8-0.5C130.2,25,88.4,25.9,47,21.7c-1.2-0.2-2.3,0.7-2.5,1.9
			c-0.2,1.2,0.7,2.3,1.9,2.5c0.1,0,0.1,0,0.2,0c40.9,4.1,82.1,3.4,122.9-2.2v42.8c-46.8,6.5-94.3,6.5-141.1,0V24
			c3.3,0.5,6.8,0.9,10.2,1.3c1.2,0.1,2.3-0.7,2.5-2c0.1-1.2-0.7-2.3-2-2.5c-4.2-0.5-8.5-1-12.7-1.6c-1.2-0.2-2.3,0.7-2.5,1.9
			c0,0.1,0,0.2,0,0.3v47.3c0,1.1,0.8,2.1,1.9,2.2c1.6,0.2,3.3,0.5,4.9,0.7v65.8c0,1.2,1,2.2,2.2,2.2c0,0,0,0,0,0h8.9
			c1.2,0,2.2-1,2.2-2.2c0,0,0,0,0,0V73.2c18.2,1.9,36.5,2.9,54.8,2.9c18.3,0,36.6-1,54.8-2.9V93c0.1,1.2,1.1,2.2,2.4,2.1
			c1.1-0.1,2-1,2.1-2.1V72.7c1.5-0.2,3-0.3,4.5-0.5v63h-4.5v-34.8c0.1-1.2-0.9-2.3-2.1-2.4c-1.2-0.1-2.3,0.9-2.4,2.1
			c0,0.1,0,0.2,0,0.3v37c0,1.2,1,2.2,2.2,2.2c0,0,0,0,0,0h8.9c1.2,0,2.2-1,2.2-2.2c0,0,0,0,0,0V71.6c1.6-0.2,3.3-0.4,4.9-0.7
			c1.1-0.2,1.9-1.1,1.9-2.2V21.4C173.9,20.8,173.6,20.2,173.1,19.7z M39.6,135.2h-4.5v-63c1.5,0.2,3,0.4,4.5,0.5V135.2z"/>
	</g>
</g>
</svg>
