<svg height="512" viewBox="0 0 60 60" width="512" xmlns="http://www.w3.org/2000/svg"><g id="Page-1" fill="none" fill-rule="evenodd"><g id="028---Dice" fill-rule="nonzero"><path id="Shape" d="m40.94 19.51c.038633.3098011-.0684658.6200185-.29.84l-5.53 5.53h-.01l-5.22-.32v-.01l-2.89-11.55 11.82-9.85c.1501036.15522844.2449794.35552171.27.57l1.73 13.87z" fill="#009688"/><path id="Shape" d="m38.82 4.15-11.82 9.85-15.82-2.97c.0569935-.1689863.1610775-.3181735.3-.43l11.16-9.3c.2272463-.19091954.5289581-.26818718.82-.21l14.82 2.78c.2038421.03754841.3918546.13503639.54.28z" fill="#00bcd4"/><path id="Shape" d="m29.89 25.55-8.31-.51c-.1727031-.0134757-.3457647.0211366-.5.1-.1649904.069721-.3046093.1883971-.4.34l-1.53 2.3-3.52-.66c-.384095-.0735005-.6915788-.3615234-.79-.74l-.99-3.97-2.7-10.8c-.0453361-.1922545-.0349295-.3934489.03-.58l15.82 2.97z" fill="#00695c"/><path id="Shape" d="m50 42.13v8.19c.0075332 2.845098-1.713957 5.4095248-4.35 6.48-3.76 1.5-10.26 2.91-20.65 1.8-19-2.02-19-10.43-19-12.46v-12.14c-.06971469 2.6460393 1.05384631 5.1832309 3.06 6.91v.01c1.72 1.59 4.4 3.12 8.6 4.23v.01c2.1162714.5487239 4.2681235.9496901 6.44 1.2.3.03.6.07.9.1 4.7853787.5848643 9.6268971.537794 14.4-.14 7.81-1.25 10.6-4.19 10.6-4.19z" fill="#f44335"/><path id="Shape" d="m47 44.074v6.246c.0075332 2.845098-1.713957 5.4095248-4.35 6.48-3.85632 1.4262127-7.9334195 2.1631032-12.045 2.177 7.2.181 12.013-.968 15.045-2.177 2.636043-1.0704752 4.3575332-3.634902 4.35-6.48l.0000246-8.19c-.8878407.806589-1.9011068 1.4631854-3.0000246 1.944z" fill="#c81e1e"/><path id="Shape" d="m29 39-4.9 7.36c-2.1718765-.2503099-4.3237286-.6512761-6.44-1.2v-.01l-4.35-7.61c-.1908535-.3271334-.1792202-.7342973.03-1.05l3.04-4.56 2.77-4.15 1.53-2.3c.0953907-.1516029.2350096-.270279.4-.34z" fill="#ff9801"/><path id="Shape" d="m19.15 27.78-2.77 4.15c-2.0122891-.146807-3.985081.6122411-5.38 2.07-1.7521775 1.8393129-2.47881354 4.4274856-1.94 6.91-2.00615369-1.7267691-3.12971469-4.2639607-3.06-6.91 0-2.74.84-9.66 7.85-11.59l.99 3.97c.0984212.3784766.405905.6664995.79.74z" fill="#c81e1e"/><path id="Shape" d="m57 18s-5.77 7.93-18.53 10.93l-1.21-2.42c-.1652271-.3124662-.4778461-.5196234-.83-.55l-1.31-.08 5.53-5.53c.2215342-.2199815.328633-.5301989.29-.84l-.12-.92c4.5535783-1.0224313 8.5493448-3.7351207 11.18-7.59l-1 7z" fill="#f44335"/><path id="Shape" d="m48 18h3l1-7c-1.003972 1.4425756-2.1988494 2.7424085-3.552 3.864z" fill="#c81e1e"/><path id="Shape" d="m54 18s-4.979 6.824-15.893 10.2l.363.726c12.76-2.996 18.53-10.926 18.53-10.926z" fill="#c81e1e"/><path id="Shape" d="m43.83 39.99-14.83-.99-7.92-13.86c.1542353-.0788634.3272969-.1134757.5-.1l8.31.51v.01l5.22.32h.01l1.31.08c.3521539.0303766.6647729.2375338.83.55l1.21 2.42 4.03 8.08h.01l1.22 2.45c.0827669.1636607.1174408.3474322.1.53z" fill="#ffeb3a"/><path id="Shape" d="m43.83 39.99c-.0132926.1816127-.0793285.3553913-.19.5l-4.24 5.83c-4.7731029.677794-9.6146213.7248643-14.4.14-.3-.03-.6-.07-.9-.1l4.9-7.36z" fill="#fec108"/><path id="Shape" d="m50 42.1v.02s-2.79 2.95-10.6 4.2l4.24-5.83c.1106715-.1446087.1767074-.3183873.19-.5.0174408-.1825678-.0172331-.3663393-.1-.53l-1.22-2.45c5.6.16 7.49 3.05 7.49 5.09z" fill="#c81e1e"/><g fill="#000"><path id="Shape" d="m58.758 31.03-2.758.689v-2.719c0-.5522847-.4477153-1-1-1s-1 .4477153-1 1v2.719l-2.758-.689c-.3498693-.0959435-.72426.0051249-.9783171.2641012-.2540571.2589762-.3479281.635236-.2452935.9832013.1026346.3479652.385675.6130526.7396106.6926975l2.542.63-2.1 2.8c-.3313708.4418278-.2418278 1.0686292.2 1.4s1.0686292.2418278 1.4-.2l2.2-2.934 2.2 2.934c.2143594.2858125.5649147.4355547.9196152.3928203.3547006-.0427344.6596589-.2714531.8-.6.1403412-.3285469.0947442-.7070078-.1196152-.9928203l-2.1-2.8 2.538-.635c.3539356-.0796449.636976-.3447323.7396106-.6926975.1026346-.3479653.0087636-.7242251-.2452935-.9832013-.2540571-.2589763-.6284478-.3600447-.9783171-.2641012z"/><path id="Shape" d="m.03 3.757c-.06440874.25739753-.02388135.52984064.11265929.75734587.13654065.22750522.35789967.39141954.61534071.45565413l2.542.635-2.1 2.795c-.21435936.28581247-.25995644.66427345-.11961526.99282033.14034119.32854689.44529947.5572656.80000001.60000001.35470055.04273436.7052559-.10700786.91961525-.39282034l2.2-2.934 2.2 2.934c.33137085.4418278.9581722.5313708 1.4.2.4418278-.33137085.53137085-.9581722.2-1.4l-2.1-2.795 2.542-.635c.35393556-.0796449.63697601-.34473226.73961059-.69269754.10263461-.34796528.00876358-.72422508-.24529352-.9832013s-.62844776-.36004469-.97831707-.26410116l-2.758.689v-2.719c0-.55228475-.44771525-1-1-1s-1 .44771525-1 1v2.719l-2.758-.689c-.53538451-.13355582-1.07776782.19178466-1.212.727z"/><path id="Shape" d="m22 .533-11.157 9.297c-.5878419.4923856-.84393522 1.2765743-.66 2.021l2.476 9.907c-7.071 2.542-7.659 9.949-7.659 12.242v12.144c0 7.415 6.879 12.067 19.894 13.456 2.3765948.2596237 4.7652762.3931442 7.156.4 4.758633.1347063 9.4995766-.6352601 13.971-2.269 3.0270511-1.2120223 5.0027937-4.1544064 4.979-7.415v-8.223c-.005-2.712-2.476-5.683-7.858-6.045l-3.233-6.467c12.116-3.243 17.663-10.667 17.9-10.993.2211537-.304222.2529042-.7068054.0821743-1.0419342-.17073-.3351287-.5150626-.5461181-.8911743-.5460658h-4.847l.837-5.858c.0650441-.4576593-.1920705-.9002553-.6218543-1.0704573-.4297838-.17020195-.9202128-.0236465-1.1861457.3544573-2.2756342 3.3328229-5.6354052 5.774558-9.508 6.91l-1.591-12.736c-.108153-.86276813-.7613636-1.55680444-1.616-1.717l-14.819-2.783c-.5865048-.11106637-1.1918381.04798055-1.648.433zm1.28 1.537 13.45 2.521-10.008 8.339-13.446-2.524zm13.083 24.892 5.963 11.926-12.726-.85-6.812-11.924zm-10.514 18.574 3.662-5.5 12.613.842-3.27 4.494c-4.3120514.5853487-8.679559.6404253-13.005.164zm-15.843-5.125c-.39395961-2.0633992.240139-4.1894947 1.7-5.7.7363695-.7610665 1.6626065-1.3116993 2.683-1.595l-1.879 2.819c-.4225113.6288992-.4508207 1.4432798-.073 2.1l3.095 5.419c-2.0147799-.6628441-3.8886613-1.6947335-5.526-3.043zm8.31 3.881-4.141-7.251 6.76-10.14 6.891 12.059-4.214 6.328c-1.7831715-.2289092-3.5514985-.5614722-5.296-.996zm3.323-20.254c-.7114716-.0388338-1.3912167.2981922-1.791.888l-1.166 1.748-2.868-.539-3.466-13.868 13.838 2.6 2.4 9.607zm-8.493-.338.729 2.917c.1895344.7575244.8026177 1.3354628 1.57 1.48l2.031.382-1.628 2.443c-2.0945645.0101984-4.0967971.8633549-5.555 2.367-1.27033282 1.2634899-2.07478319 2.9203333-2.282 4.7-.67729503-1.2194654-1.02570452-2.5941494-1.011-3.989 0-1.928.471-8.11 6.146-10.3zm35.854 26.616c.0195849 2.4405997-1.4572022 4.644274-3.722 5.554-3.5 1.4-9.846 2.839-20.173 1.739-8.259-.88-18.105-3.583-18.105-11.465v-6.007c2.909 3.872 8.953 6.365 17.9 7.317 13.964 1.49 21.123-1.493 24.1-3.354zm-.044-8.633c-2.1559014 1.5486702-4.6190094 2.6167104-7.223 3.132l2.718-3.735c.4417575-.6033088.5078205-1.403405.171-2.071l-.42-.841c3.341.541 4.535 2.3 4.754 3.515zm-7.6-20.629c.4357457-.4387115.6455653-1.0534205.569-1.667l-.006-.046c3.2534802-.8843057 6.2163594-2.6106398 8.59-5.005l-.5 3.522c-.0412074.2872507.0443983.5782354.2345922.7974094.190194.2191741.4662166.3449195.7564078.3445906h3.777c-4.3787346 4.2815833-9.827836 7.3074803-15.777 8.761l-.848-1.7c-.2007655-.3876159-.523297-.6985531-.918-.885zm-1.41-1.414-5.216 5.216-4.049-.256-2.559-10.233 10.113-8.427z"/><circle id="Oval" cx="36" cy="12" r="1"/><circle id="Oval" cx="33" cy="22" r="1"/><circle id="Oval" cx="35" cy="29" r="1"/><circle id="Oval" cx="38" cy="36" r="1"/><circle id="Oval" cx="32" cy="36" r="1"/><circle id="Oval" cx="37" cy="43" r="1"/><circle id="Oval" cx="21" cy="32" r="1"/><circle id="Oval" cx="21" cy="37" r="1"/><circle id="Oval" cx="21" cy="42" r="1"/><circle id="Oval" cx="28" cy="29" r="1"/><circle id="Oval" cx="31" cy="6" r="1"/><circle id="Oval" cx="24" cy="5" r="1"/><circle id="Oval" cx="26" cy="10" r="1"/><circle id="Oval" cx="19" cy="9" r="1"/><circle id="Oval" cx="16" cy="16" r="1"/><circle id="Oval" cx="20" cy="20" r="1"/></g></g></g></svg>