<svg id="Layer_1_1_" enable-background="new 0 0 64 64" height="512" viewBox="0 0 64 64" width="512" xmlns="http://www.w3.org/2000/svg"><path d="m19 53h43v-44l-7-7h-36z" fill="#50b6cf"/><path d="m62 27c-3.62069 10-29.35714 23.39606-43 23.95081v2.04919h43z" fill="#3cadc9"/><path d="m62 9h-7v-7z" fill="#3cadc9"/><path d="m52 18h10v35h-10z" fill="#e34e4b"/><path d="m39 52-2-19 2-6h4l2 6-2 19z" fill="#e34e4b"/><path d="m37.47223 37.48615 1.52777 14.51385h4l2-19-.43463-1.30396c-1.49091 2.76215-4.03369 4.86786-7.09314 5.79011z" fill="#de4542"/><path d="m43 27 3-5-5-8-5 8 3 5z" fill="#ded8d0"/><path d="m24 40v-26l3-6 3 6v26z" fill="#e34e4b"/><path d="m30 17-6 6v17h6z" fill="#de4542"/><path d="m54 62h-52v-52zm-21-9-22-22v22z" fill="#f5a947"/><path d="m30 14h-6l3-6z" fill="#f5a947"/><path d="m52 39v14h10v-24.00006z" fill="#de4542"/><g fill="#223b5a"><path d="m40 22h2v-6.40002l-1-1.59998-1 1.59998z"/><path d="m7.586 18h2.828v2h-2.828z" transform="matrix(.707 -.707 .707 .707 -10.799 11.929)"/><path d="m10.586 21h2.828v2h-2.828z" transform="matrix(.707 -.707 .707 .707 -12.042 14.929)"/><path d="m13.586 24h2.828v2h-2.828z" transform="matrix(.707 -.707 .707 .707 -13.284 17.929)"/><path d="m16.586 27h2.828v2h-2.828z" transform="matrix(.707 -.707 .707 .707 -14.527 20.929)"/><path d="m19.586 30h2.828v2h-2.828z" transform="matrix(.707 -.707 .707 .707 -15.77 23.929)"/><path d="m22.586 33h2.828v2h-2.828z" transform="matrix(.707 -.707 .707 .707 -17.012 26.929)"/><path d="m25.586 36h2.828v2h-2.828z" transform="matrix(.707 -.707 .707 .707 -18.255 29.929)"/><path d="m28.586 39h2.828v2h-2.828z" transform="matrix(.707 -.707 .707 .707 -19.497 32.929)"/><path d="m31.586 42h2.828v2h-2.828z" transform="matrix(.707 -.707 .707 .707 -20.74 35.929)"/><path d="m34.586 45h2.828v2h-2.828z" transform="matrix(.707 -.707 .707 .707 -21.983 38.929)"/><path d="m37.586 48h2.828v2h-2.828z" transform="matrix(.707 -.707 .707 .707 -23.225 41.929)"/><path d="m40.586 51h2.828v2h-2.828z" transform="matrix(.707 -.707 .707 .707 -24.468 44.929)"/><path d="m43.586 54h2.828v2h-2.828z" transform="matrix(.707 -.707 .707 .707 -25.711 47.929)"/><path d="m59 22h3v2h-3z"/><path d="m59 27h3v2h-3z"/><path d="m59 32h3v2h-3z"/><path d="m59 37h3v2h-3z"/><path d="m59 42h3v2h-3z"/><path d="m59 47h3v2h-3z"/><path d="m6 56h2v2h-2z"/><path d="m10 56h2v2h-2z"/><path d="m14 56h2v2h-2z"/></g></svg>