<svg id="Flat" height="512" viewBox="0 0 512 512" width="512" xmlns="http://www.w3.org/2000/svg"><path d="m280 104h-56v384h56c106.039 0 192-85.961 192-192s-85.961-192-192-192z" fill="#f7b030"/><g fill="#eba72e"><path d="m472 296h-56a8 8 0 0 1 0-16h55.34q.66 7.92.66 16z"/><path d="m461.07 232h-61.07a8 8 0 0 1 0-16h54.58q3.6 7.815 6.49 16z"/><path d="m423.1 168h-63.1a8 8 0 0 1 0-16h46.99a191.522 191.522 0 0 1 16.11 16z"/><path d="m465.95 344q-2.1 8.145-4.88 16h-53.07a8 8 0 0 1 0-16z"/><path d="m435.96 408a190.671 190.671 0 0 1 -12.86 16h-55.1a8 8 0 0 1 0-16z"/></g><circle cx="232" cy="296" fill="#ffd33a" r="192"/><path d="m39 72c19.01-11.79 22.946-29.344 24-48-.164 17.638 6.346 37.835 24 48-16.486 11.341-22.478 33.146-24 48-1.522-14.854-7.514-36.659-24-48z" fill="#eb423f"/><path d="m288 104c19.01-11.79 22.946-29.344 24-48-.164 17.638 6.346 37.835 24 48-16.486 11.341-22.478 33.146-24 48-1.522-14.854-7.514-36.659-24-48z" fill="#eb423f"/><path d="m88 440c19.01-11.79 22.946-29.344 24-48-.164 17.638 6.346 37.835 24 48-16.486 11.341-22.478 33.146-24 48-1.522-14.854-7.514-36.659-24-48z" fill="#eb423f"/><path d="m232 288a24 24 0 1 1 24-24 8 8 0 0 0 16 0 40.067 40.067 0 0 0 -32-39.195v-16.805a8 8 0 0 0 -16 0v16.805a40 40 0 0 0 8 79.195 24 24 0 1 1 -24 24 8 8 0 0 0 -16 0 40.067 40.067 0 0 0 32 39.2v16.8a8 8 0 0 0 16 0v-16.8a40 40 0 0 0 -8-79.2z" fill="#eba72e"/><path d="m232 448a151.058 151.058 0 0 1 -59.113-11.925 8 8 0 0 1 6.226-14.739 135.149 135.149 0 0 0 52.887 10.664c74.99 0 136-61.009 136-136a135.347 135.347 0 0 0 -22.9-75.55 8 8 0 0 1 13.3-8.9 151.3 151.3 0 0 1 25.6 84.45c0 83.813-68.187 152-152 152z" fill="#eba72e"/><path d="m93.625 344a8 8 0 0 1 -7.683-5.784 152.217 152.217 0 0 1 -5.942-42.216c0-83.813 68.187-152 152-152a153.43 153.43 0 0 1 25.324 2.1 8 8 0 1 1 -2.648 15.779 137.445 137.445 0 0 0 -22.676-1.879c-74.991 0-136 61.009-136 136a136.215 136.215 0 0 0 5.315 37.782 8.005 8.005 0 0 1 -7.69 10.218z" fill="#eba72e"/></svg>