<?xml version="1.0" encoding="utf-8"?>
<!-- Generator: Adobe Illustrator 24.2.3, SVG Export Plug-In . SVG Version: 6.00 Build 0)  -->
<svg version="1.1" id="Layer_1" xmlns="http://www.w3.org/2000/svg" xmlns:xlink="http://www.w3.org/1999/xlink" x="0px" y="0px"
	 viewBox="0 0 2225.4 3553.7" style="enable-background:new 0 0 2225.4 3553.7;" xml:space="preserve">
<style type="text/css">
	.st0{fill:#371A45;}
	.st1{fill:#FFFFFF;}
	.st2{fill:#00BDFF;}
	.st3{clip-path:url(#SVGID_2_);}
	.st4{fill:#77E236;}
	.st5{fill:#428E11;}
	.st6{opacity:0.6;}
	.st7{fill:none;}
	.st8{opacity:0.3;}
	.st9{fill:#17172B;}
	.st10{fill:#32B1D1;}
	.st11{opacity:0.35;}
	.st12{opacity:0.7;}
	.st13{fill:#111A28;}
	.st14{fill:#D66D27;}
	.st15{opacity:0.5;}
	.st16{fill:#BC9D86;}
	.st17{fill:#FFB200;}
	.st18{fill:none;stroke:#371A45;stroke-width:30.8201;stroke-linecap:round;stroke-miterlimit:10;}
</style>
<g>
	<g>
		<g>
			<path class="st0" d="M1561.7,2643c-0.9,0-1.9-0.1-2.8-0.3c-8.4-1.5-13.9-9.6-12.3-18l161.1-869.5c1.6-8.4,9.6-13.9,18-12.3
				c8.4,1.5,13.9,9.6,12.3,18l-161.1,869.5C1575.5,2637.8,1569,2643,1561.7,2643z"/>
		</g>
	</g>
	<g>
		<g>
			<path class="st0" d="M674.1,2643c-7.3,0-13.8-5.2-15.1-12.6l-161.1-869.5c-1.6-8.4,4-16.4,12.3-18c8.4-1.5,16.4,4,18,12.3
				l161.1,869.5c1.6,8.4-4,16.4-12.3,18C676,2642.9,675,2643,674.1,2643z"/>
		</g>
	</g>
	<g>
		<g>
			<path class="st1" d="M1533.7,2701.3H681.4c24.8-116.2,93.2-198.7,168.1-256.4c120.6-92.9,258.1-121.1,258.1-121.1
				s140.8,28.9,262.4,124.5C1443.2,2505.7,1509.4,2587.3,1533.7,2701.3z"/>
		</g>
	</g>
	<g>
		<g>
			<path class="st0" d="M1552.8,2716.7H662.4l4-18.6c27.4-128.4,112.1-236.5,244.8-312.6c99.4-57.1,189.6-76,193.3-76.8l3.1-0.6
				l3.1,0.6c3.8,0.8,93.9,19.7,193.3,76.8c132.7,76.1,217.3,184.2,244.8,312.6L1552.8,2716.7z M700.9,2685.9h813.3
				c-29.6-112.5-105.1-204.4-224.8-273.3c-85.2-49-165.3-69.2-181.9-73.1c-16.6,3.8-96.7,24-181.9,73.1
				C806,2481.5,730.5,2573.3,700.9,2685.9z"/>
		</g>
	</g>
	<g>
		<g>
			<g>
				<path class="st2" d="M2108.9,1207.8c0,10.1-0.1,20.1-0.4,30.1c-15.9,536.3-455.6,966.1-995.8,966.1
					c-540.1,0-979.8-429.8-995.8-966.1c-0.3-10-0.4-20.1-0.4-30.1c0-126,23.4-246.5,66.1-357.4c141.9-369.1,497.2-632.3,914.7-638.6
					c5.1-0.1,10.2-0.1,15.4-0.1s10.4,0,15.5,0.1c417.6,6.4,772.7,269.6,914.6,638.6C2085.5,961.3,2108.9,1081.8,2108.9,1207.8z"/>
			</g>
		</g>
		<g>
			<defs>
				<circle id="SVGID_1_" cx="1112.7" cy="1207.8" r="996.2"/>
			</defs>
			<clipPath id="SVGID_2_">
				<use xlink:href="#SVGID_1_"  style="overflow:visible;"/>
			</clipPath>
			<g class="st3">
				<g>
					<g>
						<path class="st4" d="M1637.4,1761.1c-4.6-49.1-32.1-95.2-72.9-122.4c-52.4-34.9-64.3-111.3-71.6-166.2
							c-5.9-44.2-33.7-78.6-76.8-48.1c-99.1,70.1-242.9-36.5-271.1-138.8c-24.6-109.4,1.3-205.1,56.9-298.1
							c38.6-64.6,119.7-84,184.8-52.1c76.8,37.6,196.4-78.7,208.9-154.6c1.4-8.7,2.3-20.4-0.7-27.3c-31.1-69.8-137.5-74.3-173-9.5
							c-23,41.9-70.6,57.2-113.2,34.5c-78.2-41.7-102.8-6.9-129.4,69.8c-8.6,24.7-8.7,69.5-39.3,50.5c-30.1-18.7-56-56-40.3-91.4
							c38.2-86.5,73.7-178.4,96.5-271.6c1.5-6.1,7.6-14.3,11.8-14.8c97-10.2,86.9-135.3,105.9-205c6.7-24.6,1.6-35.8-14.3-45.6
							c-16.2-9.9-23.7,1.3-30,18.6c-10.5,29-20.8,58.1-31.5,87c-5.5,14.8-7.5,37.4-24,34.9c-19.3-2.9-29.3-26.4-28.1-47.8
							c3.2-61.2,19.5-129.6,56.8-179.2c28.2-37.5,82.7-64.6,126-35.8c53.7,35.8,95.6,32.1,154.5,1.9c24.7-12.7,51.3-26.4,77.4-34.3
							c44.2-13.3,75.7-48.9,86.9-93.8c11.9-44.8,47.9-77.1,92.8-85.6c28.3-5.4,46.6-21,54.9-55.2c14.7-60.8,62.7-106.7,120.5-126.2
							c86-29,157-24.2,219.4,40c17,17.5,34.8,10.7,51.4,7.1c43.5-9.4,89.9-16.5,131.2-26.8c31.3-7.8,76.2,7,96.4,32.1
							c13.6,16.9,29.5,18.8,45.1,16.6c21.5-3.1,44.6-3.5,64.9-5.8c49-5.7,69.9,4.4,95.7,48.6c10.2,43.3-18.6,101.2-59.2,111.7
							c-11.8,3.1-26,5.1-39.6,5.3c-37.9,0.6-44.2,24.5-31.5,72.4c27.3,102.9-6.8,254.4-116.6,292.6c-26.6,9.3-41.4,19.7-28.9,62
							c6.5,22.1,10.2,48.3-0.7,71.1c-25,52.4-38.5,111.6-22.3,168c12.7,44.3-29.9,77.8-69.7,54.4c-43.3-25.4-85.6-54.4-125.9-85
							c-31.1-23.7-48.9-16.2-62.1,25.4c-11.4,35.9-30.2,72.3-38.9,106.9c-11.1,44.1-48.1,74.7-88.7,40.8
							c-46.3-29.5-71.1-40.7-118.9-28.7c-16.9,4.3-35.9-2.3-52.2-14.7c-16.6-12.6-35.9-26.6-44.6,7.6c-8.2,32.2,18.4,30.2,30.4,40
							c21.7,17.8,45.4,31.8,68.2,46.3c39.9,25.4,44.4,65.8,18.4,103.6c-25.4,36.9-73.1,67.2-117.2,36.7
							c-29.8-18.9-59-38.7-88.6-57.6c-14-9-27.3-24.9-40.1,7.5c-13.6,34.3,6.1,36.9,19.1,45.7c51.8,35,103.9,69.6,156.9,102.7
							c45.6,28.5,60.9,86.4,36.7,133.7c-49.9,97.5-40.6,202.9-5.1,312.4c14.5,44.8,25.4,89.1,35.2,135.4
							c20,91.9-23.2,228.9-124.7,253.7c-40.4,9-73.7-19.1-85.4-56.2C1653.8,1828.3,1645.7,1794.1,1637.4,1761.1z"/>
					</g>
				</g>
				<g>
					<g>
						<path class="st4" d="M-273.7,1131.9c-42.3-87.1-35.9-155.3,61.3-192.8C-69,876.7,72.7,810.1,212.2,739.8
							c23.5-11.9,47.7-26.1,68.6-0.2c17.7,21.9,16.5,49.5,7.5,78.7c-16,51.8,22.5,64.8,58.7,82.4c30.5,14.8,64.1-4.2,89.2-29.4
							c22.1-22.1-0.5-49.6-5-74.2c-3.1-17.2-13-35.5,0.1-50.6c13.5-15.6,27.4-0.8,39,7.2c23.2,16.1,45.3,18.6,71.1,3.9
							c22.6-12.8,46.7-12.1,64,13.9c17.1,25.7,14.5,57.3,4.1,86c-42.1,116.7-89.5,235.1-130.6,348.6
							c-17.7,48.8-71.9,65.4-115.2,83.5c-43.4,18.1-44.5,66.3-25.7,102.7c7.7,15,16.3,25.9,30.1,20.4c54.8-22.1,100.6,17.9,141.1,46
							c31,21.6,73.7,35.1,110.9,15.6c44.6-23.3,81.1-20.7,125.1,5.7c34.5,20.7,83,51.9,126,39.7c56-15.9,85.3,146.3,74,188.1
							c-30.9,114.5-72.9,236.8-116,349.4c-23.4,61.2-27.3,122.9-7.2,182.9c10,30,18,65.3,25.4,98.6c4.6,20.6,19.4,45.7,8.4,61.7
							c-13.8,20-34.3-1-50.3-10.4c-53.9-32.4-87.7-93.1-103.5-151.9c-11.7-43.6-25.5-88.4-34.5-132.3
							c-17.9-87.3-48.9-179.9-129.5-230.6c-72.9-50.2-99.6-204-77.5-281.2c5.8-20.2,31.9-41.8,11.8-64.4
							c-20.9-23.6-48.9-54.3-77.2-43.1c-58,23-121.7-13.2-166.5-47.8c-43.7-33.7-87.8-67.5-136.4-94.4
							c-71.5-38.8-91.5-122.8-116.1-191.7c-20.9-58.5-106.3-123.8-168.8-115.8C-238.5,1042.8-253.3,1095-273.7,1131.9z"/>
					</g>
				</g>
				<g>
					<g>
						<path class="st4" d="M2936.3,1068c0.6,1.8,1.5,3.5,1.6,5.3c2.3,27.6,33.6,55.8,8.7,80.2c-23.7,23.3-71.4,47.3-105.3,29
							c-51.6-16.5-72-13.2-116.6,11.5c-35.9,19.9-82.2,19.2-109.9-15.9c-32-38.1-29.1-90.5-12.9-134.3
							c25.3-68.3,91.9-139.5,168.3-135.2C2846,912.7,2913.7,999.6,2936.3,1068z"/>
					</g>
				</g>
				<g>
					<g>
						<path class="st4" d="M696.7,241.5c18-9.9,37.1-20.4,54-29.3c36.2-19.1,98.9-73,131.9-15.2c47.2,82.7,57.4,159.8,27.2,244.6
							c-25.7,72.2-57,149.8-81.5,226.1c-20.6,64-46.1,72.1-87.8,35.9c-24-20.8-51.7-39.9-61.2-73.4
							c-15.6-54.8-55.7-95.9-104.6-122.4c-27-14.7-56.1-36.6-46.8-86.9c8-43.5,17.5-98.2,61.1-120.3c35.4-18,71.8-39,107.8-58.7
							C696.8,241.7,696.7,241.6,696.7,241.5z"/>
					</g>
				</g>
				<g>
					<g>
						<path class="st4" d="M407.1,649.4c-30.9,18.8-57.4,32.2-86,20.3c-12.1-5-22.2-14.9-24.6-29.6c-3.3-20.3,12.8-24.1,23.5-30.5
							c17.9-10.7,36.4-19.5,54.6-29.7c32.3-18.1,69-27.9,79.7,20.7C464.2,645.2,418.5,631.6,407.1,649.4z"/>
					</g>
				</g>
				<g>
					<g>
						<path class="st4" d="M2354.6,821.9c44.1-3.8,109.1,29.3,130.5,62.3c13.6,21.1-5.7,33.3-16.8,35.2
							c-33.1,5.8-110.9-35.3-130.5-65.6C2330.7,842.8,2336.8,829.4,2354.6,821.9z"/>
					</g>
				</g>
				<g>
					<g>
						<path class="st4" d="M1885.3,1531.6c-7.2-37.8-10.3-87,25.5-111c26.8-17.9,30.5,21.4,35.8,43.3c9.1,37.5,12.9,86.8-24.4,111
							C1892.3,1594.3,1895.7,1551.1,1885.3,1531.6z"/>
					</g>
				</g>
				<g>
					<g>
						<path class="st4" d="M2653.8,161.6c6.8,46.2-35.7,134.2-71.3,143.2c-9.4,2.4-25.5-8.5-20.5-20.9
							c15.4-43.2,28.2-95.7,66.4-122.6C2635.3,156.5,2650.5,149.3,2653.8,161.6z"/>
					</g>
				</g>
				<g>
					<g>
						<path class="st4" d="M2635,863.2c-13.4-0.6-38.2,31.8-46.7-10.6c-9-45.3,20.5-61.8,50.6-68.2c16.1-3.4,40.5-27.7,48.7,3.3
							C2700.3,826.8,2671.8,856.8,2635,863.2z"/>
					</g>
				</g>
				<g>
					<g>
						<path class="st4" d="M3040.1,1085c-2.2,14.4,27.5,34.1-1.8,41.8c-30.5,8-46.3-19.9-53.3-49.3c-4-16.9-25.2-43.8-1.3-51.2
							C3025.1,1013.6,3026.8,1058.8,3040.1,1085z"/>
					</g>
				</g>
				<g>
					<g>
						<path class="st4" d="M1115,497.8c8.3,31.7,22.9,79.1-11.5,100.4c-21.6,13.4-24.7-21.1-28.1-39.2
							c-6.1-32.1-23.8-80.6,7.6-104.4C1110.1,434.1,1102.5,489.1,1115,497.8z"/>
					</g>
				</g>
				<g>
					<g>
						<path class="st4" d="M2509.8,691.5c8,32.6,16.6,65.5-16.1,76.3c-26.1,8.6-23.7-25-30.3-42.5c-11.5-30.5-5.2-60.1,17-71.1
							C2507.4,640.9,2501.5,679,2509.8,691.5z"/>
					</g>
				</g>
				<g>
					<g>
						<path class="st4" d="M1057.1,579.3c4.9,21,2.4,37.7-15,45.7c-11.9,5.5-21,1.7-25.3-14.6c-5.4-20.3-1.4-38.3,12.6-49.4
							C1044.5,549.1,1052,562.5,1057.1,579.3z"/>
					</g>
				</g>
				<g>
					<g>
						<g>
							<g>
								<path class="st5" d="M1734.1,1928.1c-39.2,0-69.1-30.5-79.8-64.9c-8.3-26.4-15.3-54.5-22-81.6c-1.5-6.1-3-12.1-4.5-18.1
									l-0.3-1.5c-4.4-46.4-30-89.4-68.5-115c-53.7-35.7-67.4-108.1-76-173.2c-3.2-24.5-13.4-43.4-26.6-49.1
									c-9.7-4.2-21.3-1.6-34.6,7.8c-38.1,26.9-84.6,31.7-134.4,13.9c-69.7-24.9-133.6-91.4-152.1-158.2
									c-23.3-103.6-4.9-200.7,58-305.9c40.3-67.4,125.3-91.5,197.8-56c27.2,13.3,58.5,2.9,79.9-8.1
									c54.4-28.1,106.9-91.8,114.7-139.1c1.9-11.6,1.2-18.9,0-21.6c-12.9-29-42.4-47.9-77-49.3c-33.7-1.4-63.6,14.1-78.1,40.6
									c-26.1,47.5-79.4,63.7-126.6,38.5c-29.1-15.5-50.7-20.1-66.2-14c-21,8.2-34.8,37.2-49,78.3c-1.7,5-3.1,11.2-4.6,17.7
									c-4.1,17.9-8.3,36.5-22.5,42.4c-7.9,3.3-16.9,1.8-26.9-4.4c-35.1-21.8-61.6-64.5-44.2-104c45.8-103.8,76.3-189.5,96-270
									c1.8-7.2,9.6-21.2,20.4-22.3c66.9-7,77-75.3,86.8-141.4c3-20.4,5.9-39.6,10.4-56.4c5.7-20.9,1.8-27.3-9.9-34.4
									c-3.3-2-5.5-2.4-6.4-2.1c-1.1,0.4-4.3,2.7-9,15.6c-3.6,9.9-7.2,19.9-10.8,29.8c-6.9,19.1-13.7,38.2-20.8,57.2
									c-1,2.7-1.9,5.9-2.9,9.3c-3.8,13.2-10.2,35.3-31.9,32.1c-25.6-3.8-38-32.8-36.6-58.2c2.3-42.8,12.9-123.7,58.7-184.6
									c31.8-42.3,91.6-70.1,139.5-38.1c47.3,31.5,85,31.8,144.4,1.4l1.1-0.6c25.2-13,51.4-26.4,78-34.4
									c39.6-11.9,69.5-44.3,80.1-86.6c12.7-48,51.3-83.6,100.7-93c26.1-5,40.1-19.2,47-47.7c14.9-61.7,62.4-111.5,127.1-133.3
									c98.2-33.1,169.1-20,229.8,42.5c10.7,11,20.3,9.4,36.4,5.6c1.9-0.4,3.8-0.9,5.7-1.3c17.6-3.8,35.8-7.2,53.5-10.6
									c26-4.9,53-10,77.4-16.1c35.2-8.8,84,7.5,106.6,35.5c9.3,11.5,19.7,15.3,35.9,12.9c12.5-1.8,25.4-2.7,37.9-3.6
									c9.6-0.7,18.7-1.3,27.3-2.3c53.3-6.2,77.9,6.3,105.5,53.5l0.8,1.3l0.3,1.5c11.7,49.7-21.8,112.1-66.4,123.7
									c-13,3.4-27.9,5.4-41.9,5.6c-11.8,0.2-19.4,2.8-23.3,8c-6.2,8.2-5.8,25.2,1.3,51.9c14.5,54.6,11.8,120.5-7.1,176.3
									c-21.8,64.3-63,109.8-115.9,128.2c-22.2,7.7-33.3,13.4-22.6,49.7c9.2,31.5,8.8,57.1-1.3,78.3
									c-28.1,59-35.4,113.1-21.7,160.9c7.1,24.6-0.1,48.9-18.8,63.3c-18.5,14.4-43.7,15.3-65.6,2.4c-41.2-24.2-83.9-53-126.9-85.7
									c-11.9-9.1-21.1-12.7-27.1-10.8c-7,2.2-13.6,12.7-19.4,31.2c-5.1,15.9-11.6,32-17.9,47.6c-8.3,20.5-16.1,39.8-20.9,58.8
									c-7.7,30.5-25.6,53-48,60.3c-12.9,4.2-33.1,5.2-56.2-13.9c-44-28-66.4-38.2-110.6-27.1c-18.9,4.8-40.5-1.1-60.7-16.5
									c-5.6-4.3-17.4-13.2-21.8-11.7c-1.8,0.6-4.8,4.6-7.1,13.8c-3.9,15.2,1,17.2,12.7,22c4.9,2,10,4.2,14.4,7.7
									c17.5,14.3,36.8,26.5,55.4,38.2c3.9,2.5,7.9,5,11.8,7.4c20.7,13.2,33.8,30.8,37.9,51.1c4.4,21.4-1.4,44.4-16.6,66.6
									c-19.1,27.8-46.5,47.4-73.2,52.3c-20.3,3.7-40.3-0.8-58-13c-15.3-9.7-31.1-20.1-46.3-30.1c-14-9.2-28-18.4-42.1-27.4
									c-2-1.3-4.1-2.7-6.1-4.2c-3.3-2.3-9.3-6.7-11.2-6.1c0,0-3.5,1.1-8.2,13.1c-8.1,20.4-3.1,23.2,7.8,29.2
									c2.5,1.4,5.1,2.8,7.6,4.5c42.5,28.7,98.7,66.3,156.6,102.5c49.8,31.2,67.1,94.2,40.3,146.7c-43.2,84.3-44.6,181.2-4.5,304.8
									c13,40.2,24.3,83.5,35.5,136.4c20.1,92.5-20.4,238.2-132.1,265.5C1745.5,1927.5,1739.7,1928.1,1734.1,1928.1z
									 M1647.3,1759.4c1.5,5.8,2.9,11.6,4.3,17.4c6.7,26.8,13.6,54.6,21.7,80.4c9.3,29.7,36.3,57.8,73.6,49.4
									c98.3-24,135.1-159.2,117.1-241.8c-11.2-52.9-22-94.4-35-134.4c-41.9-129-40.1-230.7,5.7-320.1c22.1-43.2,7.9-95-33.1-120.6
									c-58.2-36.4-114.5-74.1-157.2-102.9c-1.8-1.2-3.9-2.3-6-3.5c-11.7-6.5-31.4-17.3-16.8-54.1c3.6-9.1,9.7-21.5,21.1-24.9
									c11.1-3.3,20.7,3.5,28.4,9c1.7,1.2,3.5,2.5,5.2,3.6c14.1,9,28.2,18.3,42.3,27.5c15.2,10,30.8,20.3,46.3,30.1
									c13.7,9.5,28.2,12.8,43.3,10c21.6-4,44.1-20.4,60.3-44c12.1-17.6,16.7-35.3,13.5-51.2c-3.1-15-12.8-27.9-29.1-38.2
									c-3.9-2.5-7.8-4.9-11.7-7.4c-19.2-12-39-24.5-57.5-39.6c-2.1-1.7-5.6-3.2-9.4-4.7c-12.2-5.1-32.5-13.5-24.4-45.5
									c3.9-15.3,10.4-24.4,19.9-27.7c14.5-5.1,28.9,5.8,40.5,14.6c15.1,11.5,31,16.2,43.8,13c51.5-13,79.4-0.2,126.7,29.9l1,0.8
									c13.1,10.9,25.8,14.5,37.7,10.6c15.6-5.1,29-22.8,34.8-46.2c5.1-20.3,13.6-41.2,21.7-61.4c6.2-15.2,12.5-30.9,17.3-46.1
									c8.2-25.8,18.5-39.8,32.5-44.3c17-5.4,34,5.4,45.2,13.9c42.4,32.2,84.4,60.6,124.9,84.4c15,8.8,31.2,8.4,43.3-1
									c12-9.3,16.6-25.4,11.8-42c-15.1-52.6-7.4-111.5,22.9-175c7.9-16.5,7.9-37.5,0.1-64c-13.8-46.8,3.3-63.1,35.2-74.2
									c99.6-34.6,138-175.7,110.2-280.6c-9-34-8.4-55.3,2.1-69.1c7.9-10.4,20.6-15.6,39-15.9c12.3-0.2,25.8-2,37.2-5
									c34.2-8.9,60.6-59,52.3-98.3c-23.2-39.2-40.2-47.6-85.1-42.4c-9.1,1-18.8,1.7-28.2,2.4c-12.1,0.8-24.7,1.7-36.5,3.4
									c-14.6,2.1-36.2,2.3-54.3-20.2c-17.6-21.9-58.7-35.5-86.2-28.7c-25,6.2-52.2,11.4-78.5,16.4c-17.5,3.3-35.7,6.8-53,10.5
									c-1.8,0.4-3.5,0.8-5.3,1.2c-15.3,3.6-36.2,8.5-55.3-11.2c-54.6-56.3-119.1-67.8-209-37.5c-58.1,19.6-100.7,64.1-114,119.1
									c-8.8,36.3-28.7,56.2-62.7,62.7c-41.8,7.9-74.3,37.9-85,78.3c-12.2,49.1-47.2,86.8-93.7,100.8c-24.9,7.5-50.2,20.5-74.6,33
									l-1.1,0.6c-56,28.8-103.1,38.4-164.6-2.5c-37.8-25.1-86.1-1.5-112.5,33.5c-42.7,56.7-52.6,133.1-54.8,173.7
									c-0.9,16.4,6.4,35.4,19.6,37.3c3.4,0.5,5.6-3.5,9.8-17.8c1-3.6,2.1-7.2,3.4-10.7c7-19,13.9-38,20.7-57.1
									c3.6-10,7.2-19.9,10.8-29.9c4.2-11.5,9.9-23.8,21.2-27.7c7.2-2.5,15-1.2,23.4,4c20.8,12.7,26.2,29.2,18.7,56.7
									c-4.2,15.6-7,34.3-10,54c-9.9,66.3-22.1,148.8-103.2,158.2c-1.5,1.3-3.9,4.9-4.5,7.4c-20,81.6-50.8,168.4-97.1,273.3
									c-12.8,29,8.6,61.7,36.4,78.9c4.6,2.9,7.6,3.4,8.7,2.9c4.7-2,8.5-18.5,10.7-28.4c1.5-6.7,3.1-13.7,5.2-19.8
									c16.5-47.6,32.4-79.3,60.6-90.3c21.6-8.5,47.9-3.7,82.9,14.9c37.2,19.8,79.1,7,99.7-30.5c18.2-33.1,55.2-52.6,96.5-50.9
									c42.3,1.8,78.4,25.2,94.5,61.2c3.3,7.5,3.8,18.6,1.4,33c-8.8,53.6-65,122.5-125.3,153.6c-36.6,18.9-70.4,21.8-97.9,8.3
									c-63.1-30.9-137-10.1-171.8,48.3c-60.1,100.5-77.8,192.9-55.7,290.8c16.7,60.5,75.4,121.4,139.4,144.2
									c30.3,10.8,75.1,17.6,116.2-11.4c24.2-17.1,42.8-14.8,54.2-9.8c19.8,8.6,34.2,32.9,38.4,64.8c8,60.7,20.5,128.1,67.2,159.2
									C1613.3,1659.2,1642.2,1707.4,1647.3,1759.4z M1210.9,530.3C1210.9,530.3,1210.9,530.3,1210.9,530.3
									S1210.9,530.3,1210.9,530.3z"/>
							</g>
						</g>
						<g>
							<g>
								<path class="st5" d="M841.7,2418.8c-11.7,0-22.7-7.6-32.6-14.4c-3.1-2.2-6.1-4.2-8.7-5.8c-49.7-29.8-89.1-87.4-108.1-157.9
									c-3.2-11.7-6.4-23.5-9.8-35.3c-9-32-18.2-65.2-24.9-97.6c-16-77.8-44.6-173.6-125.1-224.1c-79-54.4-104-214.8-81.8-292.4
									c2-7.1,5.9-13.9,9.6-20.4c9.7-17.1,12.9-25,4.3-34.6c-22.1-24.9-45.4-48.6-66-40.4c-49.3,19.6-108.6,3-176.3-49.1
									c-42.5-32.8-86.5-66.7-135.1-93.5C21.7,1317.5-2.6,1246-24,1183c-3.1-9.1-6.2-18.2-9.3-26.9
									c-19.4-54.1-99.5-116.7-158.2-109.2c-31.5,4-46.8,35.8-61.7,66.5c-3.8,7.9-7.7,16-11.9,23.4l-9.3,16.9l-8.4-17.3
									c-26.4-54.4-32.5-98.1-18.6-133.4c12.4-31.4,41.1-56,85.3-73.1c140.5-61.1,283.2-128,423.8-198.8l3.6-1.8
									c22.1-11.2,52.3-26.6,77.3,4.3c17.7,21.9,20.7,50.7,9.3,88c-11.6,37.5,8.4,49.1,44.6,66.2c3,1.4,5.9,2.8,8.9,4.2
									c29.5,14.3,61.4-11,77.7-27.5c10.7-10.7,6.8-23-0.5-42.1c-2.9-7.5-5.8-15.3-7.3-23.2c-0.6-3.5-1.6-7.1-2.6-10.9
									c-3.8-14.4-8.6-32.3,5-48c17.7-20.5,37.8-5.3,47.4,2c1.6,1.2,3.2,2.4,4.8,3.5c21,14.6,39.1,15.6,60.5,3.5
									c30-17,58.9-10.7,77.3,17.1c16.7,25.1,18.5,58,5.2,94.9c-21.7,60.2-45.1,121.5-67.7,180.9c-21.1,55.4-43,112.8-62.9,167.8
									c-17.3,47.6-64.5,66.6-106.2,83.4c-4.9,2-9.8,3.9-14.5,5.9c-13.7,5.7-23.1,15.1-27.7,28c-6.3,17.3-3.7,40.1,7.1,61
									c9.7,18.8,14.2,17,17.5,15.7c54.2-21.9,100.5,11.3,137.8,38c4.3,3.1,8.6,6.1,12.7,9.1c13,9.1,58.7,36.9,100.6,15
									c46.9-24.5,87.2-22.7,134.9,6l4.7,2.8c32.3,19.5,76.5,46.2,113.4,35.8c9.9-2.8,24.9-2.9,40.4,12.3
									c39.4,38.9,55.4,152.8,46,188c-27.9,103.4-68.1,224.5-116.3,350.3c-23.4,61-25.8,120.3-7.1,176.1
									c10.5,31.5,18.9,69.2,25.7,99.6c1.2,5.2,3.1,10.8,5.1,16.8c5.9,17.4,12.6,37,1.8,52.8c-4.7,6.9-10.7,11-17.7,12.3
									C844.8,2418.6,843.2,2418.8,841.7,2418.8z M407.6,1474.1c28.8,0,54.3,28.8,72.1,48.9c18.9,21.3,6.9,42.4-1.9,57.8
									c-3.3,5.8-6.4,11.2-7.8,16c-20.7,72.5,4,222.3,73.5,270.2c86.5,54.4,116.9,155.1,133.7,236.8c6.5,31.7,15.7,64.5,24.5,96.2
									c3.3,11.9,6.6,23.7,9.8,35.5c17.7,65.6,53.7,118.7,99,145.9c3.2,1.9,6.6,4.2,9.8,6.5c7.6,5.2,17,11.8,22.3,10.8
									c0.6-0.1,2.4-0.4,4.8-3.9c5.1-7.5,0.4-21.5-4.2-35c-2.1-6.2-4.3-12.7-5.7-18.9c-6.6-29.9-14.9-67-25.1-97.6
									c-20.2-60.4-17.7-124.2,7.4-189.6c48-125.2,88-245.6,115.7-348.4c8.1-30.2-8.2-136.6-40.7-168.6c-9.3-9.2-16.4-8.6-20.9-7.3
									c-45.2,12.8-93.7-16.5-129.2-37.9l-4.7-2.8c-42-25.3-74.4-26.8-115.3-5.4c-35,18.3-80.3,12.2-121.2-16.3
									c-4.3-3-8.6-6.1-13-9.2c-36.7-26.3-74.6-53.5-118.6-35.7c-24.7,10-37.8-15.5-42.7-25c-13.3-25.7-16.3-54.5-8.1-77
									c6.6-18,20-31.7,38.8-39.6c4.8-2,9.7-4,14.7-6c39.7-16,80.7-32.5,94.9-71.6c20-55.2,41.9-112.6,63-168.1
									c22.6-59.3,45.9-120.5,67.6-180.5c7.7-21.4,13.5-52.2-3-77.1c-12.7-19.1-29.8-22.7-50.8-10.8c-28.2,16.1-54.2,14.7-81.7-4.4
									c-1.8-1.2-3.6-2.6-5.5-4c-13.4-10.1-15.9-9.9-20.3-4.9c-6.4,7.3-4.4,16.1-0.8,29.8c1.1,4.1,2.2,8.2,3,12.5
									c1.1,6.1,3.6,12.7,6.3,19.7c7.2,19.1,16.3,42.9-4.1,63.3c-34.2,34.3-70.9,45.7-100.6,31.3c-2.9-1.4-5.8-2.8-8.7-4.2
									c-32.3-15.3-72.4-34.2-55.2-90.2c9.5-30.8,7.7-52.9-5.7-69.5c-14.1-17.4-28.5-11.3-52.6,1l-3.7,1.9
									c-140.9,71-284,138.1-425.2,199.5c-39.7,15.3-63.9,35.5-74.2,61.9c-10.2,26-7.1,58.4,9.5,98.7c0.7-1.4,1.4-2.8,2-4.2
									c16.4-33.8,34.9-72.2,77.1-77.6c68.7-8.8,157.6,61.1,179.5,122.3c3.2,8.9,6.3,18,9.4,27.2c21.2,62.5,43.2,127.1,102.1,159
									c50,27.6,94.6,62,137.7,95.2c61.7,47.6,114.4,63.2,156.7,46.4C396.9,1475.1,402.3,1474.1,407.6,1474.1z"/>
							</g>
						</g>
						<g>
							<g>
								<path class="st5" d="M2675.3,1217.2c-24.9,0-49.8-9.4-68.3-33c-29.8-35.4-35.2-88-14.5-144
									c27.3-73.9,97.3-146.3,178.2-141.8c84.4,4.7,153.2,100.2,175.1,166.4l0,0.1c0.1,0.4,0.3,0.7,0.4,1.1
									c0.6,1.6,1.4,3.7,1.7,6.4c0.7,7.8,4.4,16.3,8.4,25.3c8.3,18.7,18.6,42-2.7,62.8c-23.7,23.2-76,52-116.2,31.1
									c-49.4-15.7-66.5-12-107.9,10.9C2713.3,1211.7,2694.3,1217.2,2675.3,1217.2z M2763.7,918.3c-68.1,0-129,65.4-152.5,128.9
									c-8.6,23.2-24.7,81.8,11.2,124.4c25.7,32.6,67.4,30.2,97.4,13.6c45.5-25.2,68.6-30.1,124.5-12.2l1.7,0.7
									c29.2,15.8,72.3-6.5,93.5-27.3c10.8-10.6,6.7-21.7-1.6-40.5c-4.5-10.1-9.1-20.6-10-31.7c-0.1-0.1-0.2-0.5-0.4-0.9
									c-0.3-0.7-0.5-1.4-0.8-2.2c-23.4-70.5-90.1-148.9-157.2-152.7C2767.6,918.3,2765.6,918.3,2763.7,918.3z"/>
							</g>
						</g>
						<g>
							<g>
								<path class="st5" d="M782.3,735.1c-14.2,0-29.8-7.8-48.4-23.9c-3.3-2.9-6.7-5.8-10.2-8.6c-22.2-18.6-45.1-37.9-54.1-69.5
									c-17.3-60.8-63.8-96.9-99.7-116.4c-29.5-16-62.1-41.6-51.8-97.5l0.4-1.9c8.3-45.2,18.7-101.4,66.1-125.5
									c24.7-12.6,50.5-26.9,75.3-40.7c8.4-4.7,16.9-9.4,25.3-14l-0.1-0.3l12.9-7.1c16.3-8.9,33.1-18.2,48.2-26.2
									c5.7-3,12.3-7.1,19.3-11.4c26.9-16.5,60.4-37,90.5-29.3c14.5,3.7,26.4,13.6,35.4,29.4c49.6,86.8,58.4,167.2,27.9,252.9
									c-9.3,26.3-19.2,52.6-29.6,80.5c-17.8,47.6-36.2,96.9-51.8,145.3c-12.1,37.7-26.5,57.7-45.3,62.9
									C789.1,734.6,785.8,735.1,782.3,735.1z M708.4,246.4L708.4,246.4l-6.8,4.1c-10.7,5.8-21.4,11.8-32.1,17.8
									c-25.1,13.9-51,28.4-76,41.1c-38.5,19.6-47.9,70.4-55.4,111.3l-0.4,1.9c-7.5,40.5,11.3,59.8,41.7,76.3
									c39.3,21.4,90.2,61,109.4,128.5c7.3,25.8,27,42.3,47.7,59.7c3.5,2.9,7,5.9,10.4,8.8c17.3,15.1,30.5,21.1,40.1,18.4
									c11.4-3.2,22.1-19.9,31.7-49.8c15.7-48.9,34.2-98.4,52.1-146.2c10.4-27.8,20.2-54.1,29.5-80.2c28.4-79.9,20-155-26.4-236.3
									c-6.3-11-13.8-17.6-23-19.9c-21.9-5.6-51.4,12.5-75.1,27c-7.3,4.5-14.1,8.7-20.4,12C740.7,228.7,724.3,237.7,708.4,246.4z"
									/>
							</g>
						</g>
						<g>
							<g>
								<path class="st5" d="M343.2,684.2c-8.5,0-17.1-1.6-26-5.3c-16.7-7-27.9-20.6-30.6-37.3c-3.9-24,13-32.7,23.1-37.9
									c1.8-0.9,3.5-1.8,5.1-2.8c10.6-6.3,21.6-12.1,32.1-17.7c7.5-3.9,15.2-8,22.7-12.2c28.3-15.9,50.3-20,67.1-12.5
									c13.7,6.1,22.8,19.5,27.3,39.7c8.4,38-17.6,45.2-33.1,49.5c-6.6,1.8-13.5,3.8-15.5,6.9l-1.2,1.9l-2,1.2
									C389.4,671.9,366.8,684.2,343.2,684.2z M418.7,575c-10,0-23.1,4.5-39.2,13.6c-7.7,4.3-15.6,8.5-23.2,12.5
									c-10.3,5.4-21,11.1-31.2,17.1c-2,1.2-4.1,2.3-6.2,3.4c-10.6,5.5-13.9,8-12.5,16.9c2.2,13.3,12.5,19.5,18.5,22
									c22.1,9.2,42.9,1.1,75.2-18.5c6.3-7.9,16.5-10.8,25.5-13.3c15.9-4.4,23.2-6.5,18.9-25.9c-3-13.7-8.4-22.4-16-25.8
									C425.7,575.6,422.4,575,418.7,575z"/>
							</g>
						</g>
						<g>
							<g>
								<path class="st5" d="M2461.8,929.9c-40.3,0-112.9-40.6-132.4-70.6c-4.5-7-5.7-15.1-3.4-22.8c3.1-10,11.8-18.5,24.6-23.9
									l1.4-0.6l1.6-0.1c46.1-4,115.3,29.1,139.7,66.8c8.5,13.1,6.9,23.7,4,30.2c-5.1,11.6-17.4,18.5-27.5,20.3
									C2467.5,929.7,2464.7,929.9,2461.8,929.9z M2357.1,831.7c-6.3,2.9-10.7,6.8-11.9,10.7c-0.6,2-0.3,3.9,1,6
									c18.3,28.3,92.5,66,120.3,61.1c4.6-0.8,10.7-4.3,12.6-8.6c0.5-1.1,2-4.5-2.5-11.4C2458.4,861.5,2398.9,829,2357.1,831.7z"/>
							</g>
						</g>
						<g>
							<g>
								<path class="st5" d="M1909.2,1589.8c-2.6,0-5.2-0.5-7.6-1.5c-12.3-4.9-15.9-19.5-19.4-33.7c-1.7-6.8-3.4-13.8-5.8-18.3
									l-0.7-1.3l-0.3-1.5c-4.2-22.2-17.2-89.8,29.7-121.2c9.4-6.3,18.1-7.8,25.9-4.7c15,6.1,19.4,26.7,23.2,44.9
									c0.7,3.2,1.3,6.2,2,9c18,73.6-5.7,106.8-28.7,121.8C1920.9,1587.6,1914.8,1589.8,1909.2,1589.8z M1894.9,1528.4
									c3.1,6.4,5,14.1,6.8,21.5c1.5,6,4.6,18.6,7.3,19.9c0,0,2.1,0.4,7.7-3.3c25.6-16.6,32.3-50.3,20.1-100.2
									c-0.7-2.9-1.4-6.2-2.1-9.6c-2-9.2-6-28.4-11.2-30.5c-1-0.4-3.6,0.3-7.2,2.7C1892.4,1445,1885.4,1477.5,1894.9,1528.4z"/>
							</g>
						</g>
						<g>
							<g>
								<path class="st5" d="M2579.7,315.1c-7.9,0-16.5-4-22.3-10.6c-6.3-7.2-8-16-4.7-24.3c2.1-5.8,4.2-12.2,6.4-18.7
									c13.2-39.1,28.1-83.5,63.6-108.4c3.9-2.8,17.6-11.4,29.4-7.2c5.7,2,9.7,6.7,11.4,13l0.2,1.1c7.3,49.3-35.5,143.5-78.8,154.4
									C2583.3,314.9,2581.5,315.1,2579.7,315.1z M2644.2,164.9c-2.2,0.4-6.3,2-10,4.6c-30.1,21.2-43.3,60.4-56.1,98.4
									c-2.2,6.6-4.4,13.1-6.7,19.4c-0.3,0.9-0.8,1.9,0.9,3.9c2.4,2.9,6.5,4.1,7.7,3.9C2609.7,287.6,2649,207.2,2644.2,164.9z"/>
							</g>
						</g>
						<g>
							<g>
								<path class="st5" d="M2604.3,884.5c-3,0-6.1-0.6-9.1-2c-8.3-3.9-13.7-13-16.7-27.9c-5.9-29.5-0.5-67.4,58.4-80
									c3-0.6,7.4-2.8,11.6-4.8c10-4.8,22.3-10.9,33.7-5.7c7.1,3.3,12.2,10.2,15,20.7c6,18.8,4.2,37.1-5.3,52.9
									c-11,18.3-31.1,31.1-55.3,35.4l-1.1,0.2l-1,0c-1.6,0.2-5.9,2.5-8.7,4C2619.9,880.4,2612.2,884.5,2604.3,884.5z
									 M2672.5,782.1c-3.6,0-10.8,3.5-15.3,5.7c-5.3,2.6-10.8,5.3-16.2,6.4c-36,7.7-49.2,25.1-42.9,56.5
									c2.4,12.1,5.6,13.7,5.6,13.7c1.9,0.9,9.2-3,12.7-4.9c5.7-3,11.5-6.2,17.6-6.3c17.8-3.3,33-12.9,40.8-25.8
									c6.5-10.7,7.6-23.4,3.3-36.6l-0.1-0.5c-1.4-5.1-3.1-7.5-4.1-7.9C2673.5,782.2,2673.1,782.1,2672.5,782.1z"/>
							</g>
						</g>
						<g>
							<g>
								<path class="st5" d="M3028.1,1138.2c-7.7,0-14.8-2-21.4-5.9c-18.2-10.9-27.1-34.6-31.4-52.5c-0.8-3.5-2.8-8.1-4.9-13
									c-5.2-11.9-11.1-25.4-5.7-37c2.8-6.2,8.3-10.6,16.2-13c40.9-12.7,52.8,21.7,60.7,44.4c2.4,7.1,4.8,13.8,7.6,19.3l1.4,2.8
									l-0.4,3.3c-0.2,1.8,2.9,7.3,4.5,10.2c4.2,7.4,9.4,16.7,5.4,26.2c-2.8,6.5-9,10.9-19,13.6
									C3036.5,1137.7,3032.2,1138.2,3028.1,1138.2z M2997,1034.1c-3,0-6.4,0.6-10.3,1.8c-2.1,0.6-3.5,1.5-3.9,2.3
									c-1.6,3.5,3.1,14.3,5.9,20.7c2.4,5.4,4.8,11.1,6.1,16.3c4.8,20,12.6,34.2,22.2,39.9c5.4,3.2,11.6,3.9,18.9,2
									c3.1-0.8,4.7-1.6,5.4-2.1c-0.5-2-2.7-6-4.1-8.5c-3.3-5.8-6.9-12.4-7.1-19.5c-2.9-6.1-5.2-12.8-7.4-19.4
									C3014.7,1045,3009.5,1034.1,2997,1034.1z"/>
							</g>
						</g>
						<g>
							<g>
								<path class="st5" d="M1094.6,611.3c-3.2,0-5.9-0.8-8-1.7c-13.8-6.2-17.2-26.4-20-42.6c-0.4-2.1-0.7-4.2-1.1-6
									c-0.9-4.8-2.1-10.1-3.3-15.5c-7.2-31.5-17-74.7,14.8-98.7c8.2-6.2,15.8-8,22.5-5.4c11.5,4.4,14.2,18.5,16.9,32.1
									c1.1,5.4,2.8,14.6,4.7,16.6l3,2.1l0.6,3.3l1.3,4.9c8.7,32.8,21.8,82.4-17.2,106.6C1103.3,610.1,1098.6,611.3,1094.6,611.3z
									 M1092.4,460.5c-0.7,0.3-1.8,1-3.3,2.1c-21.5,16.2-14,49.2-7.3,78.3c1.3,5.7,2.5,11.2,3.5,16.2c0.4,2,0.7,4.1,1.1,6.4
									c1.2,7,4.4,25.5,8.5,27.7c0,0,1.1-0.1,3.4-1.6c24.4-15.1,18.3-47.2,8.4-84.5l-0.6-2.1c-5.4-6.1-7.3-15.8-9.3-26
									C1095.8,472.3,1094.2,463.8,1092.4,460.5z"/>
							</g>
						</g>
						<g>
							<g>
								<path class="st5" d="M2486,779.2c-4.3,0-8.3-1-11.8-3.1c-11.3-6.5-14.2-20.9-16.7-33.7c-1-5.2-2-10-3.4-13.7
									c-13.6-36.1-4.5-70.4,22-83.5c8.9-4.4,16.7-5,23.2-1.8c10.7,5.3,13.2,18.2,15.3,29.5c0.9,4.8,2.1,10.8,3.5,13.1l1,1.4
									l0.7,2.9c8.1,32.7,18.1,73.4-23,86.9C2493,778.5,2489.4,779.2,2486,779.2z M2490.3,661.3c0,0.1-1.6,0-5.4,1.8
									c-17,8.4-21.9,32.5-12.1,58.6c1.9,5.1,3.1,11,4.3,16.7c1.5,7.3,3.7,18.3,7.2,20.3c1.1,0.6,3.4,0.5,6.3-0.5
									c21.1-7,19.1-25.4,9.9-62.9c-2.9-5.3-4.2-12.1-5.5-18.7C2494,671.9,2492.3,662.9,2490.3,661.3z"/>
							</g>
						</g>
						<g>
							<g>
								<path class="st5" d="M1032.8,637.4c-4.1,0-7.4-1-9.9-2.2c-7.5-3.5-12.8-11-15.7-22.3c-6.5-24.7-0.6-46.5,16.1-59.8
									c7.7-6.1,15.3-8.1,22.5-5.8c11.8,3.7,17.4,17.5,20.9,29.1l0.2,0.7c6.7,28.5-0.3,47.7-20.6,57.1
									C1041.1,636.5,1036.6,637.4,1032.8,637.4z M1039.8,566.4c0,0-1.3,0.2-4.1,2.4c-14,11.1-11.8,29.2-9.2,39
									c1.5,5.8,3.6,8.6,4.9,9.3c1.2,0.6,3.6,0.2,6.5-1.2c7.8-3.6,15-10.4,9.6-34C1043.2,568.3,1040.1,566.6,1039.8,566.4z"/>
							</g>
						</g>
					</g>
				</g>
			</g>
		</g>
		<g class="st6">
			<g>
				<g>
					<path class="st1" d="M117,1228.9c3.3-115.5,26.2-226.1,65.6-328.6c141.9-369.1,497.2-632.3,914.7-638.6
						c5.1-0.1,10.2-0.1,15.4-0.1s10.4,0,15.5,0.1c417.6,6.4,772.7,269.6,914.6,638.6c39.4,102.4,62.3,213,65.6,328.6
						c0-0.3,0-0.7,0-1c0.3-10,0.4-20.1,0.4-30.1c0-126-23.4-246.5-66.1-357.4c-141.9-369-497-632.2-914.6-638.6
						c-5.2-0.1-10.4-0.1-15.5-0.1s-10.3,0-15.4,0.1c-417.5,6.3-772.8,269.6-914.7,638.6c-42.7,110.9-66.1,231.4-66.1,357.4
						c0,10.1,0.1,20.1,0.4,30.1C117,1228.2,117,1228.6,117,1228.9z"/>
				</g>
			</g>
		</g>
		<g>
			<g>
				<circle class="st7" cx="1112.7" cy="1207.8" r="996.2"/>
			</g>
		</g>
		<g>
			<g class="st8">
				<g>
					<path class="st9" d="M118,1213.1c28.7,524.5,463.1,940.9,994.7,940.9c531.6,0,966-416.5,994.7-940.9c0.4,8.3,0.8,16.5,1.1,24.8
						l0,0c-1.6-56-7.9-110.8-18.4-164.1c-33.8,171.5-179.7,300.5-348.9,394.8c-390,217.3-866.9,217.3-1256.9,0
						c-169.2-94.2-315.1-223.2-348.9-394.8c-10.5,53.3-16.8,108.1-18.4,164.1l0,0C117.2,1229.6,117.6,1221.3,118,1213.1z"/>
				</g>
			</g>
		</g>
		<g>
			<g>
				<path class="st10" d="M897.6,1269.6"/>
			</g>
		</g>
		<g>
			<g>
				<path class="st0" d="M1112.7,2219.4c-264.9,0-515.3-101.7-705.2-286.3c-189.5-184.3-298.2-431-306-694.7
					c-0.3-9.6-0.4-19.6-0.4-30.6c0-125.1,22.6-247.2,67.1-362.9c71.7-186.4,196-346.3,359.5-462.4c167.1-118.7,364-183,569.4-186.1
					c10.2-0.2,21-0.2,31.5,0c205.3,3.1,402.2,67.5,569.2,186.2c163.5,116.1,287.7,276,359.4,462.3c44.5,115.7,67.1,237.8,67.1,362.9
					c0,11-0.1,21-0.4,30.6c-7.8,263.8-116.5,510.5-306,694.7C1628.1,2117.7,1377.6,2219.4,1112.7,2219.4z M1112.4,227
					c-4.9,0-9.8,0-14.7,0.1C695,233.2,341.5,480,197,855.9c-43.2,112.2-65,230.6-65,351.9c0,10.7,0.1,20.4,0.4,29.7
					c15.8,533.3,446.5,951.1,980.3,951.1c533.9,0,964.5-417.8,980.4-951.1c0.3-9.3,0.4-19,0.4-29.7c0-121.3-21.9-239.7-65-351.9
					C1884,480.1,1530.5,233.3,1128,227.1C1122.7,227,1117.5,227,1112.4,227z"/>
			</g>
		</g>
	</g>
	<g>
		<g>
			<g>
				<path class="st1" d="M1472.4,2215L1472.4,2215c-4.1,0.3-7.7-2.8-8-6.9l-16-213.6c-0.3-4.1,2.8-7.7,6.9-8h0
					c43-3.2,80.4,29,83.6,72l5.4,72.8C1547.6,2174.4,1515.4,2211.8,1472.4,2215z"/>
			</g>
			<g>
				<path class="st0" d="M1471.8,2217.8c-5.3,0-9.8-4.1-10.2-9.4l-16-213.6c-0.4-5.6,3.8-10.5,9.4-10.9
					c44.4-3.4,83.3,30.1,86.6,74.5l5.4,72.8c3.3,44.4-30.1,83.3-74.5,86.6h0C1472.3,2217.8,1472.1,2217.8,1471.8,2217.8z
					 M1461.2,1989.1c-1.9,0-3.8,0.1-5.7,0.2c-2.6,0.2-4.5,2.4-4.3,5l16,213.6c0.2,2.6,2.5,4.4,5,4.3c41.4-3.1,72.5-39.3,69.4-80.6
					l-5.4-72.8C1533.2,2019.3,1500.2,1989.1,1461.2,1989.1z"/>
			</g>
		</g>
		<g class="st11">
			<g>
				<path class="st0" d="M1541.8,2097.3l2.6,34.2c3.2,43-29,80.4-72,83.6c-4.1,0.3-7.7-2.8-8-6.9l-4.3-56.8c1.3,2.5,4.1,4.1,7.1,3.9
					l5.1-0.4C1506.3,2152.4,1533.5,2128.4,1541.8,2097.3z"/>
			</g>
		</g>
		<g>
			<g>
				<path class="st0" d="M1471.8,2230.5c-11.8,0-21.9-9.2-22.8-21.1l-16-213.6c-0.9-12.6,8.5-23.5,21.1-24.5
					c51.4-3.9,96.3,34.8,100.1,86.2l5.4,72.8c3.8,51.4-34.8,96.3-86.2,100.1h0C1473,2230.4,1472.4,2230.5,1471.8,2230.5z
					 M1464.5,2001.9l14.7,196.7c30.4-6.2,52.2-34.3,49.9-66l-5.4-72.8C1521.2,2028,1495.4,2003.5,1464.5,2001.9z"/>
			</g>
		</g>
		<g>
			<g>
				<path class="st1" d="M750.3,2039.3L750.3,2039.3c4.1-0.3,7.7,2.8,8,6.9l16,213.6c0.3,4.1-2.8,7.7-6.9,8h0
					c-43,3.2-80.4-29-83.6-72l-5.4-72.8C675.1,2079.9,707.3,2042.5,750.3,2039.3z"/>
			</g>
			<g>
				<path class="st0" d="M761.4,2270.7c-19.3,0-37.8-6.8-52.6-19.6c-16.4-14.1-26.2-33.7-27.9-55.2l-5.4-72.8
					c-1.6-21.5,5.3-42.4,19.3-58.7c14.1-16.4,33.7-26.2,55.2-27.8c2.7-0.2,5.4,0.7,7.4,2.4c2.1,1.8,3.3,4.3,3.5,7l16,213.6
					c0.2,2.7-0.7,5.4-2.4,7.4c-1.8,2.1-4.3,3.3-7,3.5C765.5,2270.6,763.4,2270.7,761.4,2270.7z M750.8,2042c-0.1,0-0.2,0-0.4,0h0
					c-20,1.5-38.3,10.7-51.4,25.9c-13.1,15.2-19.5,34.7-18,54.7l5.4,72.8c1.5,20,10.7,38.3,25.9,51.4c15.2,13.1,34.7,19.5,54.7,18
					c1.2-0.1,2.4-0.7,3.2-1.6c0.8-0.9,1.2-2.2,1.1-3.4l-16-213.6c-0.1-1.2-0.7-2.4-1.6-3.2C753,2042.4,751.9,2042,750.8,2042z"/>
			</g>
		</g>
		<g class="st11">
			<g>
				<path class="st0" d="M769.8,2200.5l4.4,59.3c0.3,4.1-2.8,7.7-6.9,8c-22.6,1.7-43.6-6.4-59-20.7c-13.9-12.9-23.1-30.9-24.6-51.3
					l-2.3-30.7c14.2,26,42.8,42.7,74.3,40.4l7.8-0.6C766.4,2204.6,768.7,2202.9,769.8,2200.5z"/>
			</g>
		</g>
		<g>
			<g>
				<path class="st0" d="M761.4,2283.3c-22.3,0-43.7-7.9-60.8-22.6c-18.9-16.3-30.4-39-32.2-63.8l-5.4-72.8
					c-1.9-24.9,6.1-49,22.4-67.9c16.3-18.9,39-30.3,63.8-32.2l0,0c6.1-0.5,12,1.5,16.6,5.5c4.6,4,7.4,9.5,7.9,15.6l16,213.6
					c0.5,6.1-1.5,12-5.5,16.6c-4,4.6-9.5,7.4-15.6,7.9C766.1,2283.2,763.7,2283.3,761.4,2283.3z M743.5,2055.7
					c-13.5,2.7-25.7,9.9-34.9,20.5c-10.9,12.7-16.2,28.8-15,45.5l5.4,72.8c1.2,16.7,8.9,31.9,21.6,42.8
					c10.6,9.2,23.7,14.4,37.5,15.1L743.5,2055.7z"/>
			</g>
		</g>
		<g class="st11">
			<g>
				<path class="st0" d="M1370,2448.2c-65.8,66.1-156.7,107.1-257.3,107.4c-103.2,0.4-196.5-42.1-263.2-110.8
					c120.6-92.9,258.1-121.1,258.1-121.1S1248.4,2352.7,1370,2448.2z"/>
			</g>
		</g>
		<g>
			<g>
				<circle class="st1" cx="1111.4" cy="2127.1" r="365"/>
			</g>
			<g>
				<path class="st0" d="M1111.3,2494.9c-97.7,0-189.7-37.9-259.1-106.8c-69.7-69.2-108.3-161.4-108.6-259.7
					c-0.4-98.2,37.6-190.7,106.8-260.4c69.2-69.7,161.4-108.3,259.7-108.6c0.4,0,0.9,0,1.4,0c97.7,0,189.7,37.9,259.1,106.8
					c69.7,69.2,108.3,161.4,108.6,259.7s-37.6,190.7-106.8,260.4s-161.4,108.3-259.7,108.6
					C1112.2,2494.9,1111.8,2494.9,1111.3,2494.9z M1111.4,1764.9c-0.4,0-0.9,0-1.3,0c-96.8,0.3-187.6,38.3-255.8,107
					s-105.5,159.8-105.2,256.5c0.3,96.8,38.3,187.6,107,255.8c68.3,67.9,158.9,105.2,255.2,105.2c0.4,0,0.9,0,1.3,0
					c96.8-0.3,187.6-38.3,255.8-107c68.2-68.7,105.5-159.8,105.2-256.5s-38.3-187.6-107-255.8
					C1298.3,1802.2,1207.7,1764.9,1111.4,1764.9z"/>
			</g>
		</g>
		<g class="st11">
			<g>
				<path class="st0" d="M1472.7,2075.3c2.4,16.5,3.6,33.4,3.7,50.5c0.7,201.6-162.1,365.6-363.7,366.3
					c-201.6,0.7-365.6-162.1-366.3-363.7c0-5.8,0.1-11.6,0.3-17.3c25.2,177.6,178.2,313.9,362.6,313.2
					C1305.1,2423.6,1464.3,2268.9,1472.7,2075.3z"/>
			</g>
		</g>
		<g>
			<g>
				<path class="st0" d="M1111.3,2507.6c-101.1,0-196.2-39.2-268-110.5c-72.1-71.6-112-167-112.4-268.6
					c-0.4-101.6,38.9-197.3,110.5-269.4c71.6-72.1,167-112,268.6-112.4c0.5,0,0.9,0,1.4,0c101.1,0,196.2,39.2,268,110.5
					c72.1,71.6,112,167,112.4,268.6c0.4,101.6-38.9,197.3-110.5,269.4c-71.6,72.1-167,112-268.6,112.4
					C1112.3,2507.6,1111.8,2507.6,1111.3,2507.6z M1111.4,1777.5c-0.4,0-0.9,0-1.3,0c-93.4,0.3-181,37-246.8,103.3
					c-65.8,66.3-101.8,154.2-101.5,247.6c0.3,93.4,37,181,103.3,246.8c66,65.5,153.4,101.5,246.3,101.5c0.4,0,0.9,0,1.3,0
					c93.4-0.3,181-37,246.8-103.3s101.8-154.2,101.5-247.6c-0.3-93.4-37-181-103.3-246.8C1291.7,1813.6,1204.3,1777.5,1111.4,1777.5
					z"/>
			</g>
		</g>
		<g>
			<g>
				<path class="st0" d="M1475.3,2135.2c1.3,71.4-20.6,138.2-59.2,193.7c-29,41.7-149.8,115.9-300.7,120.1
					c-139.9,3.9-268.6-68.3-299-108.9c-40.7-54.1-65.1-120-66.4-191.4c-3.5-189,157.4-270.4,357.7-274.1
					C1307.9,1870.9,1471.7,1946.2,1475.3,2135.2z"/>
			</g>
		</g>
		<g class="st12">
			<g>
				
					<ellipse transform="matrix(0.1599 -0.9871 0.9871 0.1599 -944.6265 3113.5339)" class="st1" cx="1356.9" cy="2111.7" rx="64.6" ry="46.8"/>
			</g>
		</g>
		<g class="st12">
			<g>
				
					<ellipse transform="matrix(0.2948 -0.9556 0.9556 0.2948 -1222.999 2824.374)" class="st1" cx="1302" cy="2240.7" rx="29.6" ry="25.4"/>
			</g>
		</g>
		<g class="st11">
			<g>
				<path class="st13" d="M1401.4,1960.2c45.1,41.5,72.4,99.1,73.8,175c1.3,71.4-20.6,138.2-59.2,193.8
					c-29,41.7-149.8,115.9-300.7,120.1c-53.3,1.5-104.9-8.1-150.1-22.7c185.3-9.1,332.5-100.2,368.4-151.9
					c49-70.6,76.9-155.3,75.2-245.9C1408.4,2004.3,1405.8,1981.6,1401.4,1960.2z"/>
			</g>
		</g>
		<g>
			<g>
				<path class="st0" d="M774.2,2002.1c-2.2,0-4.4-0.7-6.2-2.2c-4.2-3.3-5-9.3-1.9-13.6c62.4-95.4,185.8-151.7,338.6-154.6
					c151.8-2.7,277.2,47.1,344.1,137.1c2.8,3.5,2.9,8.6,0.1,12.3c-3.3,4.3-9.4,5.2-13.8,2c-0.1-0.1-0.3-0.2-0.4-0.3l-1-0.8l-0.8-1
					c-62.9-84.9-182.5-132.2-327.9-129.3c-146.2,2.7-263.7,55.9-322.4,145.8l-0.9,1.1C779.8,2000.9,777,2002.1,774.2,2002.1z"/>
			</g>
		</g>
		<g class="st12">
			<g>
				<path class="st1" d="M833.4,2259.7c0,0-62-185.3,37.1-261.5s243.7-78.6,240.4-69.2c0,0-159.3,41.7-219.6,169.4
					C844.9,2196.8,833.4,2259.7,833.4,2259.7z"/>
			</g>
		</g>
	</g>
	<g>
		<g>
			<path class="st1" d="M957.9,2544.3c0,0,58.9,4.7,76.5,35.5c12.2,21.5,12.7,59.2,12.7,59.2l-94.6-20.7L957.9,2544.3z"/>
		</g>
	</g>
	<g>
		<g>
			<path class="st0" d="M1059.8,2654.6l-120.6-26.4l7.2-97.3l12.5,1c6.7,0.5,66.1,6.2,86.3,41.7c13.7,24,14.3,63.5,14.3,65.2
				L1059.8,2654.6z M965.7,2608.4l67.7,14.8c-1.4-12.2-4.3-27.4-9.9-37.2c-9.1-15.9-36.1-24.1-54.1-27.4L965.7,2608.4z"/>
		</g>
	</g>
	<g>
		<g>
			<path class="st1" d="M1276.8,2544.3c0,0-58.9,4.7-76.5,35.5c-12.2,21.5-12.7,59.2-12.7,59.2l94.6-20.7L1276.8,2544.3z"/>
		</g>
	</g>
	<g>
		<g>
			<path class="st0" d="M1175,2654.6l0.2-15.7c0-1.7,0.7-41.2,14.3-65.2c20.2-35.5,79.6-41.2,86.3-41.7l12.5-1l7.2,97.3L1175,2654.6
				z M1265.3,2558.5c-18.2,3.3-45,11.4-54.1,27.5c-5.6,9.9-8.5,25.1-9.9,37.2l67.7-14.8L1265.3,2558.5z"/>
		</g>
	</g>
	<g>
		<g>
			<path class="st14" d="M1615.3,2614.9l-6,59.4l-62.1,613.5c-286,72.7-585.7,72.7-871.7,0l-7.4-72.7l-60.8-600.1
				c167,26.2,335.5,39.2,504,39.2C1279.8,2654.1,1448.3,2641.1,1615.3,2614.9z"/>
		</g>
	</g>
	<g class="st15">
		<g>
			<g>
				<path class="st1" d="M1585.1,2847.7l-0.3,0.1c-77.4,17.3-156.6,30.1-235.8,39.2c-39.6,4.9-79.4,8.1-119.2,10.9
					c-19.9,1.2-39.8,2.4-59.8,3c-10,0.3-19.9,0.8-29.9,1l-29.9,0.4c-79.8,0.5-159.6-4.4-238.9-13.5c-68.7-7.8-137.4-18.9-204.6-33.9
					l-23.8-234.7c-11.9-1.7-23.7-3.5-35.5-5.3l23.5,232.5c-6.9,0.5-12.8,5.6-14,12.7c-1.4,8.4,4.2,16.3,12.6,17.7
					c1.5,0.3,3,0.5,4.6,0.7l13,128.3c-7.4-0.1-13.9,5.1-15.3,12.6c-1.5,8.4,4,16.4,12.4,18c2.1,0.4,4.1,0.7,6.1,1.1l12,118.6
					c-7,0.2-13.2,5.2-14.6,12.3c-1.7,8.4,3.7,16.5,12.1,18.2c1.9,0.4,3.8,0.7,5.7,1.1l2.7,26.2l7.4,72.7
					c148.7,37.8,301.1,55.9,453.4,54.4c-140.6-1.4-281-19.5-418.4-54.4l-7.4-72.7l-2-19.9c5,0.8,10.1,1.7,15.1,2.5
					c18.7,2.9,37.5,5.7,56.3,8c37.5,5,75.1,9.1,112.8,12.5c37.7,3,75.3,6,113.1,7.3c18.9,1,37.7,1.3,56.6,1.9
					c18.9,0.1,37.8,0.5,56.7,0.3c75.5-0.4,151-4.4,226.2-11.2c37.6-3.4,75.2-7.4,112.7-12.2c37.6-4.5,74.8-10.1,112.7-16.5
					c0.4-0.1,0.9-0.2,1.4-0.3c8.2-2.2,13.2-10.6,11-18.8c-2.2-8.2-10.6-13.2-18.8-11l-0.3,0.1c-35.7,9.4-72.7,16.5-109.5,23.4
					c-36.9,6.6-74,12.1-111.2,16.5c-74.4,9.2-149.4,13.9-224.3,14.7c-75,0.7-149.9-4-224.4-12.6c-37.2-4.4-74.2-10.1-111-16.8
					c-18.4-3.4-36.7-7.3-54.9-11.4c-7.7-1.7-15.4-3.5-23-5.4l-12.3-121.6c5.6,0.9,11.1,1.7,16.7,2.6c19.4,2.9,38.8,5.5,58.2,7.9
					c19.4,2.6,38.8,4.8,58.3,6.8l29.2,3l29.2,2.7c39,3.1,77.9,6.3,117,7.6c19.5,1.2,39,1.3,58.6,2.1c19.5,0.1,39.1,0.5,58.6,0.3
					c78.1-0.4,156.2-4.7,234-11.6c38.9-3.5,77.8-7.4,116.6-12.2c38.9-4.4,77.4-10,116.6-16.1c0.4-0.1,0.8-0.1,1.2-0.2
					c8.3-2,13.4-10.3,11.5-18.6c-2-8.3-10.3-13.4-18.6-11.5l-0.4,0.1c-74.9,17.7-151.9,30.5-228.8,39.6c-77,9.3-154.6,14.3-232.1,15
					c-77.5,0.6-155.1-4.2-232.2-13.1c-38.5-4.4-76.9-10.2-115-16.9c-19.1-3.4-38-7.3-57-11.2c-8.1-1.8-16.3-3.5-24.3-5.4
					l-13.3-131.3l19.9,3c20,2.8,39.9,5.4,59.9,7.7c39.9,4.9,79.9,9.2,120,12.6c40.1,3.2,80.1,6.4,120.3,7.9
					c20.1,1.2,40.2,1.5,60.2,2.2c20.1,0.2,40.2,0.6,60.3,0.4c80.4-0.4,160.7-5,240.7-11.9c40-3.6,80-7.5,119.9-12.2
					c40-4.4,79.7-9.9,119.9-15.7c0.4-0.1,0.8-0.1,1.2-0.2c8.3-1.9,13.5-10.1,11.6-18.4C1601.6,2851.1,1593.4,2845.9,1585.1,2847.7z"
					/>
			</g>
		</g>
		<g>
			<g>
				<path class="st1" d="M1128.8,2654c5.8,0,11.7,0.1,17.5,0.1c156.6,0,313.1-11.3,468.5-33.8l0.5-5.3
					C1454.1,2640.2,1291.5,2653.2,1128.8,2654z"/>
			</g>
		</g>
	</g>
	<g class="st11">
		<g>
			<path class="st0" d="M1609.3,2674.3l-62.1,613.5c-286,72.7-585.7,72.7-871.7,0l-7.4-72.7c155.9,20.8,386.4,38.6,555-4.9
				c171-44.1,223.3-197.9,238.8-302.8c7.5-50.6-35.4-94.4-86.3-88.6c-405.2,46.4-722.4-98.3-722.4-98.3L1609.3,2674.3z"/>
		</g>
	</g>
	<g>
		<g>
			<path class="st0" d="M1111.3,3357.5c-147.9,0-295.8-18.3-439.6-54.8c-6.3-1.6-10.9-6.9-11.5-13.4L592,2616.5
				c-0.5-4.8,1.3-9.5,4.7-12.7c3.5-3.3,8.2-4.8,13-4c332.8,52.1,670.4,52.1,1003.2,0c4.7-0.7,9.5,0.8,13,4c3.5,3.3,5.2,8,4.7,12.7
				l-68.1,672.8c-0.7,6.4-5.3,11.8-11.5,13.4C1407.2,3339.3,1259.3,3357.5,1111.3,3357.5z M689.7,3275.5
				c276.1,68.3,567.2,68.3,843.2,0l65-642.3c-323,48.6-650.2,48.6-973.3,0L689.7,3275.5z M1547.2,3287.8L1547.2,3287.8
				L1547.2,3287.8z"/>
		</g>
	</g>
	<g>
		<g>
			<path class="st16" d="M1635.6,2722.7L1635.6,2722.7c-347,59.5-701.6,59.5-1048.6,0h0l-19.8-163.6l0,0
				c360.5,57.3,727.8,57.3,1088.3,0l0,0L1635.6,2722.7z"/>
		</g>
	</g>
	<g>
		<g>
			<path class="st17" d="M1655.5,2559.1l-19.9,163.6c-347,59.5-701.6,59.5-1048.6,0l-2.6-21.5l-0.2-1.7l-3.5-29.2l-13.5-111.3
				c62.4,9.9,125,18.1,187.8,24.6c92.9,9.6,186.1,15.4,279.4,17.5c25.7,0.6,51.3,0.9,77,0.9c28.8,0,57.6-0.4,86.4-1.1
				c93.2-2.3,186.4-8.4,279.3-18.3c31.2-3.3,62.3-7.1,93.4-11.2c4.8-0.6,9.7-1.3,14.5-2c5.1-0.7,10.3-1.4,15.4-2.2
				C1618.7,2564.8,1637.1,2562,1655.5,2559.1z"/>
		</g>
	</g>
	<g class="st6">
		<g>
			<g>
				<path class="st1" d="M599.7,2646.9c-2.3,18.5-6.8,38.6-15.3,54.4l-3.8-30.9l-13.5-111.3c62.4,9.9,125,18.1,187.8,24.6
					c92.9,9.6,186.1,15.4,279.4,17.5c25.6,0.6,51.3,0.9,77,0.9c28.8,0,57.6-0.4,86.4-1.1c93.2-2.3,186.4-8.4,279.2-18.2
					c36.1-3.9,72-8.2,107.9-13.2c-289.6,102.3-768.1,53.7-928.6,33.3C628.5,2599.3,603.3,2619,599.7,2646.9z"/>
			</g>
		</g>
	</g>
	<g>
		<g>
			<path class="st0" d="M1111.3,2782.9c-176,0-352.1-15-526.9-44.9c-6.7-1.2-11.9-6.6-12.7-13.3L551.9,2561
				c-0.6-4.8,1.1-9.6,4.6-12.9c3.5-3.4,8.3-4.9,13.1-4.1c359.5,57.1,724,57.1,1083.4,0c4.8-0.8,9.6,0.8,13.1,4.1
				c3.5,3.4,5.2,8.2,4.6,13l-19.8,163.6c-0.8,6.8-6,12.2-12.7,13.3C1463.4,2767.9,1287.4,2782.9,1111.3,2782.9z M600.9,2709.5
				c338.8,56.8,682,56.8,1020.8,0l16-132c-349.4,53.4-703.4,53.4-1052.8,0L600.9,2709.5z M1635.6,2722.7L1635.6,2722.7
				L1635.6,2722.7z"/>
		</g>
	</g>
	<g>
		<g>
			<path class="st0" d="M636,2837.9c76.9,18.7,156.1,32,235.2,41c79.3,9.1,159.1,14.1,238.9,13.5l29.9-0.4c10-0.1,19.9-0.7,29.9-1
				c19.9-0.6,39.9-1.8,59.8-3c39.8-2.9,79.6-6.1,119.2-10.9c79.2-9.2,158.4-21.9,235.8-39.2l0.3-0.1c8.3-1.9,16.5,3.4,18.4,11.6
				c1.9,8.3-3.4,16.5-11.6,18.4c-0.4,0.1-0.8,0.2-1.2,0.2c-40.2,5.8-79.9,11.3-119.9,15.7c-39.9,4.7-79.9,8.6-119.9,12.2
				c-80,6.9-160.3,11.6-240.7,11.9c-20.1,0.2-40.2-0.2-60.3-0.4c-20.1-0.7-40.2-1-60.2-2.2c-40.2-1.5-80.2-4.7-120.3-7.9
				c-40-3.4-80-7.7-120-12.6c-20-2.3-39.9-4.9-59.9-7.7l-29.9-4.5c-10-1.4-19.9-3-30.1-4.7c-8.4-1.4-14-9.3-12.6-17.7
				c1.4-8.4,9.3-14,17.7-12.6c0.3,0.1,0.7,0.1,1,0.2L636,2837.9z"/>
		</g>
	</g>
	<g>
		<g>
			<path class="st0" d="M651.1,2997.5c9,2.4,18.5,4.8,27.8,7.1c9.4,2.2,18.8,4.2,28.3,6.3c18.9,4,37.9,7.8,57,11.2
				c38.2,6.7,76.5,12.5,115,16.9c77,8.9,154.6,13.7,232.2,13.1c77.5-0.7,155.1-5.7,232.1-15c76.9-9,153.9-21.9,228.8-39.6l0.4-0.1
				c8.3-2,16.6,3.2,18.6,11.5c2,8.3-3.2,16.6-11.5,18.6c-0.4,0.1-0.8,0.2-1.2,0.2c-39.1,6.1-77.6,11.6-116.6,16.1
				c-38.8,4.8-77.7,8.7-116.6,12.2c-77.8,6.9-155.9,11.2-234,11.6c-19.5,0.2-39.1-0.2-58.6-0.3c-19.5-0.7-39.1-0.9-58.6-2.1
				c-39.1-1.3-78-4.5-117-7.6l-29.2-2.7l-29.2-3c-19.4-2.1-38.9-4.3-58.3-6.8c-19.4-2.3-38.8-5-58.2-7.9c-9.7-1.5-19.4-2.9-29.1-4.6
				c-9.8-1.5-19.3-3.1-29.3-4.9c-8.4-1.5-13.9-9.6-12.4-18c1.5-8.4,9.6-13.9,18-12.4c0.4,0.1,0.8,0.2,1.2,0.3L651.1,2997.5z"/>
		</g>
	</g>
	<g>
		<g>
			<path class="st0" d="M667.3,3147.8c8.6,2.5,17.7,4.9,26.7,7.2c9,2.2,18.1,4.3,27.2,6.4c18.2,4,36.5,7.9,54.9,11.4
				c36.8,6.7,73.8,12.4,111,16.8c74.4,8.6,149.4,13.3,224.4,12.6c74.9-0.7,149.9-5.4,224.3-14.7c37.2-4.4,74.3-10,111.2-16.5
				c36.7-6.8,73.8-14,109.5-23.4l0.3-0.1c8.2-2.2,16.7,2.8,18.8,11c2.2,8.2-2.8,16.7-11,18.8c-0.4,0.1-0.9,0.2-1.4,0.3
				c-37.9,6.4-75.1,12-112.7,16.5c-37.5,4.8-75.1,8.8-112.7,12.2c-75.2,6.8-150.7,10.8-226.2,11.2c-18.9,0.2-37.8-0.2-56.7-0.3
				c-18.9-0.6-37.8-0.9-56.6-1.9c-37.8-1.3-75.4-4.3-113.1-7.3c-37.6-3.4-75.2-7.5-112.8-12.5c-18.8-2.3-37.5-5.1-56.3-8
				c-9.4-1.5-18.7-3.1-28.1-4.7c-9.4-1.6-18.7-3.2-28.4-5.2c-8.4-1.7-13.8-9.8-12.1-18.2s9.8-13.8,18.2-12.1
				c0.4,0.1,0.8,0.2,1.2,0.3L667.3,3147.8z"/>
		</g>
	</g>
	<g>
		<g>
			<path class="st0" d="M830.6,2876.6c0,0,27.3,2.1,34.9-10.5c13.7-22.9,10.7-76.6,14.8-76.6s-9.3,90.5,39.4,96.1L830.6,2876.6z"/>
		</g>
	</g>
	<g>
		<g>
			<path class="st0" d="M1381.1,2876.6c0,0-27.3,2.1-34.9-10.5c-13.7-22.9-10.7-76.6-14.8-76.6s9.3,90.5-39.4,96.1L1381.1,2876.6z"
				/>
		</g>
	</g>
	<g>
		<g>
			<path class="st0" d="M830.6,3189.8c0,0,27.3,2.1,34.9-10.5c13.7-22.9,10.7-76.6,14.8-76.6s-9.3,90.5,39.4,96.1L830.6,3189.8z"/>
		</g>
	</g>
	<g>
		<g>
			<path class="st0" d="M1381.1,3189.8c0,0-27.3,2.1-34.9-10.5c-13.7-22.9-10.7-76.6-14.8-76.6s9.3,90.5-39.4,96.1L1381.1,3189.8z"
				/>
		</g>
	</g>
	<g>
		<g>
			<path class="st0" d="M1157.2,3056.6c0,0-25.4-5.6-37.2-14.5c-14.3-10.8,1.6-100.6-8.7-101.3c-7.4-0.5,11.1,115.7-45.2,116.6
				L1157.2,3056.6z"/>
		</g>
	</g>
	<g>
		<g>
			<path class="st0" d="M1157.2,3329.1c0,0-27.7-3.2-37.2-14.5c-11.5-13.7-2.3-91-12.3-88.3c-4.9,1.4,14.7,102.7-41.6,103.6
				L1157.2,3329.1z"/>
		</g>
	</g>
	<g>
		<g>
			<path class="st0" d="M1578.3,3012.5c0,0-9.7-10.9-19.9-9.3c-3.6,0.5-8.8,1.9-11.7-1.5c-9.9-11.7-5.8-78.8-14.5-77.3
				c-5.8,1,10.6,83.9-28.2,90.4c-5.9,1-7.2,8-14.9,8.4L1578.3,3012.5z"/>
		</g>
	</g>
	<g>
		<g>
			<path class="st0" d="M656.9,3016.5c0,0,9.7-10.9,19.9-9.3c3.6,0.5,7.8-1.1,10.5-4.7c12.1-16.2,7.1-76.6,11.3-76.6
				c3.6,0-6.2,86.4,32.6,92.9c5.9,1,7.2,8,14.9,8.4L656.9,3016.5z"/>
		</g>
	</g>
	<g class="st11">
		<g>
			<path class="st0" d="M1655.5,2559.1l-19.9,163.6c-347,59.5-701.6,59.5-1048.6,0l-2.6-21.5l-0.2-1.7
				c72.5,5.1,139.7,8.8,202.1,11.1c-64.2-21.7-50.3-96.1-50.3-96.1c4.1-32,57-46.9,127.5-50c125.2-5.5,149.9,68.8,116.1,117.9
				c-9.6,13.9-32,24.8-60,31.3c146,1.2,260.1-5.8,349.2-17.8c-6.3-4.1-11.3-8.6-14.7-13.6c-33.8-49-9.1-123.4,116.1-117.9
				c70.5,3.1,123.5,18,127.5,50c0,0,1.4,7.7,1.2,19c39.3-20.7,60.4-42.7,71.4-62.1c4.8-0.6,9.7-1.3,14.5-2
				c5.1-0.7,10.3-1.4,15.4-2.2C1618.7,2564.8,1637.1,2562,1655.5,2559.1z"/>
		</g>
	</g>
	<g>
		<g>
			<path class="st1" d="M736.1,2580.4c0,0-14.8,78.8,56.1,97.8c70.8,19.1,164.9,2.9,187.5-29.9c33.8-49,9.1-123.4-116.1-117.9
				C793.1,2533.6,740.1,2548.4,736.1,2580.4z"/>
		</g>
	</g>
	<g class="st11">
		<g>
			<path class="st0" d="M979.7,2648.3c-22.6,32.8-116.7,49-187.5,29.9c-70.9-19-56.1-97.8-56.1-97.8c0.3-2.3,0.9-4.6,1.6-6.7
				c5.3,21.9,19.4,46,54.5,55.4c70.8,19,164.9,2.9,187.5-29.9c3.7-5.4,6.8-11.2,9-17.1C997.6,2603.5,993.6,2628.1,979.7,2648.3z"/>
		</g>
	</g>
	<g>
		<g>
			<path class="st0" d="M857.5,2701.3c-23.6,0-47.4-2.7-69.3-8.6c-66.4-17.8-72.9-82.6-67-114.7c5.2-37.6,52.8-58.7,141.7-62.6
				c90.4-4,123.9,31.5,135.8,53c14.9,26.9,12.3,60.7-6.7,88.3C973,2684.4,916.2,2701.3,857.5,2701.3z M750.8,2583.1
				c-0.5,3-11,65.5,45.2,80.6c67.3,18.1,153.5,1.8,171.3-23.9c12.7-18.5,14.7-39.7,5.2-56.8c-14.6-26.3-54-40-108.3-37.6
				c-80.5,3.6-111.3,21.4-113.3,36.9L750.8,2583.1z M736.1,2580.4L736.1,2580.4L736.1,2580.4z"/>
		</g>
	</g>
	<g>
		<g>
			<path class="st1" d="M1497.8,2580.4c0,0,14.8,78.8-56.1,97.8c-70.8,19.1-164.9,2.9-187.5-29.9c-33.8-49-9.1-123.4,116.1-117.9
				C1440.7,2533.6,1493.7,2548.4,1497.8,2580.4z"/>
		</g>
	</g>
	<g class="st11">
		<g>
			<path class="st0" d="M1441.7,2678.2c-70.8,19-164.9,2.9-187.5-29.9c-13.9-20.2-17.9-44.8-9-66.3c2.2,5.9,5.3,11.7,9,17.1
				c22.6,32.8,116.7,49,187.5,29.9c35.1-9.4,49.2-33.5,54.5-55.4c0.8,2.2,1.3,4.4,1.6,6.7
				C1497.8,2580.4,1512.5,2659.2,1441.7,2678.2z"/>
		</g>
	</g>
	<g>
		<g>
			<path class="st0" d="M1376.3,2701.3c-58.7,0-115.5-16.9-134.5-44.5c-19-27.6-21.6-61.5-6.7-88.3c11.9-21.5,45.4-57,135.8-53
				c88.9,3.9,136.5,25,141.7,62.6c5.9,32.1-0.7,96.8-67,114.7C1423.7,2698.6,1399.9,2701.3,1376.3,2701.3z M1357.6,2545.1
				c-48,0-82.8,13.5-96.3,37.9c-9.5,17.1-7.5,38.3,5.2,56.8c17.8,25.8,104,42.1,171.3,23.9c56.8-15.3,45.7-77.9,45.2-80.6l-0.1-0.9
				c-2-15.5-32.8-33.3-113.3-36.9C1365.5,2545.2,1361.5,2545.1,1357.6,2545.1z"/>
		</g>
	</g>
	<g>
		<g>
			<path class="st18" d="M253.5,1712.3"/>
		</g>
	</g>
	<g>
		<g>
			<path class="st18" d="M567.2,2559.1"/>
		</g>
	</g>
	<g class="st8">
		<g>
			<path class="st1" d="M1097.4,352.9c314.7-18.5,547,144.4,608.6,349.3c51.8,172.3-144.3,150.2-257.8,80.2
				c-113.4-70-205.9-166.8-388.2-200.1C747,525.1,913.5,363.7,1097.4,352.9z"/>
		</g>
	</g>
	<g class="st8">
		<g>
			<path class="st1" d="M1870.6,893.3c126.5,100.7,115.2,220.4,82.9,293.5c-30.8,69.8-104.6,20.6-125.9-31.8s-28.5-108.7-82.5-165.8
				C1652.5,891.1,1809.5,844.7,1870.6,893.3z"/>
		</g>
	</g>
</g>
</svg>
