<svg xmlns="http://www.w3.org/2000/svg" viewBox="0 0 2225.45 3553.67"><defs><style>.cls-1{fill:#d73c2c;}.cls-2{fill:#371a45;}.cls-3{fill:#e5a900;}.cls-4{fill:#ff0;}.cls-5{fill:#f92323;}.cls-6{opacity:0.35;}.cls-7{opacity:0.7;}.cls-8{fill:#fff;}.cls-9{fill:#ee346a;}.cls-10{fill:#22a7f0;}.cls-11{opacity:0.42;}.cls-12{fill:#293856;}.cls-13{fill:#ff9d00;}.cls-14{fill:#111a28;}.cls-15{fill:#db2c2c;}.cls-16{fill:#eb423f;}.cls-17{fill:#ffe1d6;}</style></defs><g id="Layer_2" data-name="Layer 2"><g id="Layer_1-2" data-name="Layer 1"><path class="cls-1" d="M402.86,2920.18c107.21-26,213.24,31.7,236.83,128.91s-44.19,197.12-151.4,223.13c-85.86,20.84-355-25.92-458.82-45.37-16.88-3.17-22.61-24.45-9.59-35.65C101.26,3121.19,316.72,2941.08,402.86,2920.18Z"/><path class="cls-2" d="M427.73,3279.17c-114,0-308.46-33.77-398.57-50.65a22.17,22.17,0,0,1-10.39-38.61c86.8-74.67,298-250.58,383.69-271.39,108-26.2,215.11,32.2,238.89,130.17s-44.71,199-152.66,225.19C473.44,3277.58,452.47,3279.17,427.73,3279.17Zm-24.47-357.34C318.24,2942.46,107.6,3118,21,3192.49a18.77,18.77,0,0,0,8.79,32.68c109.46,20.52,373.21,66,458.11,45.4C594,3244.82,661.37,3145.64,638,3049.5s-128.65-153.42-234.78-127.67Z"/><path class="cls-3" d="M459.3,2960.44c74.05-18,147.29,21.9,163.58,89s-30.53,136.15-104.58,154.12c-54.33,13.18-217.85-16.45-301.07-33.17-20.11-4-26.35-29.71-10.32-42.53C273.21,3074.92,405,2973.63,459.3,2960.44Z"/><path class="cls-4" d="M516.43,2998.81c46-11.16,91.5,13.61,101.62,55.32s-19,84.58-65,95.74c-29.87,7.25-112.88-6.34-167.41-16.76-20.33-3.88-26.64-29.9-10.35-42.67C419,3056.18,486.55,3006.06,516.43,2998.81Z"/><path class="cls-2" d="M415.79,3283.63c-117.41,0-299.87-27.36-387-41.63a34.26,34.26,0,0,1-17.08-59.55C97.12,3107.36,305.12,2930,391,2905.4h0c54.06-15.5,110.41-11,158.7,12.79,48.66,23.94,83.31,64.49,97.56,114.17s6.37,102.43-22.2,148.53c-28.35,45.73-73.73,79.46-127.79,95C478,3281.36,449.62,3283.63,415.79,3283.63Zm-18.45-356C313.72,2951.63,92.7,3142,27,3199.83a11.13,11.13,0,0,0,5.55,19.35c86.39,14.14,374.75,58.44,458.36,34.44,48.52-13.92,89.18-44.08,114.5-84.92,25.09-40.48,32.06-86.63,19.63-130S582.18,2960,539.45,2939c-43.12-21.21-93.58-25.23-142.11-11.31Z"/><path class="cls-5" d="M1145.26,3240.92c-7.56,28.18-28.15,77-84.51,130.63-60.29,57.3-161.43,120.08-331.13,169-21.52,6.19-38.14-19.13-23.7-36.27,39.35-46.79,91.13-117.91,117.14-193.72,12-35,18.5-71,15.72-106.09a22.74,22.74,0,0,1,25.37-24.59l262,33A22.59,22.59,0,0,1,1145.26,3240.92Z"/><g class="cls-6"><path class="cls-2" d="M1145.26,3240.92c-7.56,28.18-10.45,26.33-49.35,88.39-61.4,14.86-183.74,7.92-272.85-18.79,12-35,18.5-71,15.72-106.09a22.74,22.74,0,0,1,25.37-24.59l262,33A22.59,22.59,0,0,1,1145.26,3240.92Z"/></g><path class="cls-2" d="M720.88,3553.67a33.6,33.6,0,0,1-25.25-55.2c59.24-70.08,154.58-204.81,127.5-319.71l-3.82-16.21,342,43-.12,10.31c0,2.26-1.24,56.08-56.18,124.74-72,89.94-198,161.17-374.55,211.7A34.77,34.77,0,0,1,720.88,3553.67Zm127.84-364.1c17.86,120.67-76,253.57-135.42,323.83a10.39,10.39,0,0,0,10.75,16.68c212.41-60.79,313.74-143.42,361.34-202,37.33-46,48.2-84.63,51.36-102.26Z"/><path class="cls-5" d="M1032.33,2681.1a22.46,22.46,0,0,1-10.72,14.34L793,2827.54a22.72,22.72,0,0,1-32.91-12.81c-28.32-85.62-115.33-153.3-189.66-197.52-17.39-10.39-34.12-19.47-49.2-27.18-19.94-10.21-14.46-40,7.78-42.64,339.48-40.33,462.36,67,499.34,114.75A22.09,22.09,0,0,1,1032.33,2681.1Z"/><path class="cls-2" d="M781.72,2832.27a24.25,24.25,0,0,1-8.61-1.59,24.72,24.72,0,0,1-14.68-15.41c-28.65-86.64-118.54-154.73-188.91-196.6-15.65-9.34-32.16-18.47-49.11-27.13a24.35,24.35,0,0,1,8.36-45.84c340-40.4,463.56,67.24,500.89,115.39a23.78,23.78,0,0,1,4.32,20.41,24.33,24.33,0,0,1-11.52,15.42L793.81,2829A24.13,24.13,0,0,1,781.72,2832.27ZM670.09,2540.2c-42.22,0-89,2.71-140.92,8.88a20.94,20.94,0,0,0-7.21,39.43c17,8.69,33.6,17.86,49.3,27.24,70.86,42.16,161.43,110.81,190.41,198.45a21.32,21.32,0,0,0,12.65,13.3,20.72,20.72,0,0,0,17.79-1.43L1020.76,2694a21,21,0,0,0,9.91-13.26h0a20.44,20.44,0,0,0-3.71-17.52C995.67,2622.8,903,2540.2,670.09,2540.2Z"/><g class="cls-7"><path class="cls-8" d="M1032.33,2681.1c-189.69-135.53-431.75-101.82-453.7-97.79-21.12,3.89-14.79,22.22-8.24,33.9-17.39-10.39-34.12-19.47-49.2-27.18-19.94-10.21-14.46-40,7.78-42.64,339.48-40.33,462.36,67,499.34,114.75A22.09,22.09,0,0,1,1032.33,2681.1Z"/></g><path class="cls-2" d="M758.36,2860.89l-2.77-16.42c-19.65-116.4-159.82-203.55-241.62-245.14a33.51,33.51,0,0,1,11.15-63.12c182.34-22,326.12-5.27,427.36,49.67,77.28,41.94,99.3,91.07,100.2,93.14l4.11,9.46ZM669,2550.17c-42,0-88.89,2.71-141.09,9a10.39,10.39,0,0,0-3.44,19.54c82,41.7,220.14,127.72,250.53,245.86l251.36-145.21c-9.74-15-34.78-46.43-87-74.3C888.55,2578,803.58,2550.17,669,2550.17Z"/><path class="cls-8" d="M1926,2997.69c-122.11,81-278.5,156.91-457.15,196.5-109.37,24.23-215.53,38.92-314,44.74q-46.3,2.78-90.17,2.88c-31.55.12-62.11-.76-91.42-2.6-32.56-2.05-63.64-5.3-92.94-9.7-40.66-6.16-78-14.51-111.31-25q-20.81-6.51-39.45-14.16-10.5-4.3-20.26-8.92c-62.48-29.64-102.8-69.71-113.74-119.15s8.63-102.77,52.75-156a462.91,462.91,0,0,1,45.26-46.95q12.39-11.36,26.17-22.55,28.78-23.5,63.25-46.37,37.1-24.53,80.14-48,38.72-21.09,81.78-41,35.22-16.26,73.09-31.56,4.88-2,9.83-3.93c91.7-36.29,194.13-67.85,303.51-92.09,178.64-39.58,352.35-37.36,497.16-15.91,2.55.38,5.07.75,7.58,1.15,211.27,32.39,359.35,105.3,368.53,146.69C2213.5,2745.76,2107.58,2877.33,1926,2997.69Z"/><path class="cls-2" d="M1059,3243.53c-29.41,0-58.27-.89-85.87-2.62-32.39-2-63.71-5.31-93.1-9.72-40.91-6.19-78.44-14.63-111.57-25.08-13.78-4.31-27.1-9.1-39.57-14.21-6.82-2.79-13.66-5.8-20.35-9-65.27-31-103.85-71.45-114.67-120.32s7-101.85,53.1-157.5A465.13,465.13,0,0,1,692.43,2858c8-7.32,16.8-14.92,26.24-22.61,19.16-15.65,40.49-31.28,63.37-46.46,24.82-16.41,51.82-32.6,80.28-48.12,25.9-14.12,53.45-27.94,81.87-41.06,23.86-11,48.48-21.64,73.17-31.59,3.26-1.31,6.53-2.62,9.85-3.93,94.69-37.48,196.89-68.49,303.76-92.17,200.44-44.42,381.33-33.18,497.78-15.93,2.56.37,5.08.75,7.6,1.15,205.65,31.53,360,103.3,369.92,148,8.77,39.56-93.26,170.48-279.35,293.81h0c-98.47,65.31-257.81,152.45-457.72,196.75-107,23.72-212.75,38.78-314.25,44.78-30.4,1.82-60.77,2.79-90.26,2.88Zm562.12-699.18c-87.05,0-185.61,8-289.45,31.05C1225,2599,1123,2630,1028.46,2667.4l-9.83,3.92c-24.64,9.94-49.2,20.55-73,31.53-28.36,13.09-55.83,26.87-81.67,41-28.37,15.47-55.3,31.61-80,48-22.79,15.13-44,30.69-63.1,46.27-9.39,7.64-18.17,15.21-26.1,22.48a462.73,462.73,0,0,0-45.1,46.79c-45.38,54.79-63,106.8-52.4,154.58s48.53,87.49,112.81,118c6.63,3.13,13.42,6.12,20.18,8.88,12.38,5.08,25.61,9.83,39.31,14.12,33,10.39,70.32,18.79,111.05,25,29.29,4.4,60.51,7.66,92.8,9.69,29.3,1.85,60,2.72,91.3,2.6,29.44-.09,59.74-1.06,90.07-2.88,101.33-6,206.88-21,313.73-44.71,199.39-44.18,358.34-131.11,456.57-196.25h0C2109.92,2873.73,2211.51,2744.64,2203,2706s-152.34-112.45-367.12-145.37c-2.52-.41-5-.78-7.57-1.15A1421.09,1421.09,0,0,0,1621.15,2544.35Z"/><g class="cls-6"><path d="M770.11,3200.14c-.36,1.47-.71,2.91-1.1,4.35q-20.81-6.51-39.45-14.16c-6.57-2.71-13-5.5-19.1-8.38l6.46-2.62,0-.16A456.09,456.09,0,0,0,770.11,3200.14Z"/><path class="cls-2" d="M770.19,3206.64l-1.69-.53c-13.79-4.31-27.11-9.1-39.58-14.21-6.76-2.78-13.21-5.61-19.18-8.41l-3.53-1.66,8.79-3.56-.35-1.9,3,1.27a456.48,456.48,0,0,0,53,20.88l1.5.49-.38,1.53c-.36,1.48-.72,2.94-1.11,4.39Zm-55.45-24.59c4.9,2.24,10.09,4.49,15.47,6.7,11.87,4.87,24.51,9.43,37.6,13.58l.27-1.07A457.37,457.37,0,0,1,717,3181.12Z"/></g><g class="cls-6"><path class="cls-2" d="M1933.35,2994.13c-122,81.1-278.32,157.19-456.94,197-109.34,24.36-215.48,39.18-313.93,45.08q-46.26,2.84-90.14,3-47.37.23-91.45-2.51c-32.56-2-63.61-5.24-92.94-9.61-43.37-6.5-82.88-15.53-117.84-27a456.09,456.09,0,0,1-53.22-21l0,.16-6.46,2.62h0c-44.75-21.06-78.25-47.4-97.85-78.71a128.65,128.65,0,0,1-17-41c-11-49.44,8.63-102.77,52.75-156a462.91,462.91,0,0,1,45.26-46.95c30.94,37.88,57.89,95.63,72.95,163q3.33,14.91,5.71,29.56c4.58,28.17,26.49,50.43,54.72,54.58,252,37,474.39,18.31,663.19-26.77,12.41-3,13.38-20.21,1.42-24.65a192.28,192.28,0,0,1-121.13-138.71c-23.15-103.76,42.25-206.64,146-229.76s206.65,42.25,229.76,146a192,192,0,0,1-28.78,150.19c-7.09,10.45,3.92,23.8,15.64,19a1694.49,1694.49,0,0,0,182.59-87.14c192.32-106.31,296-212.88,296-212.88C2220.57,2741.86,2114.8,2873.52,1933.35,2994.13Z"/></g><g class="cls-6"><path d="M710.46,3182l-73.69,29.86-24.18-108.57c19.43,31,52.53,57.2,96.71,78.17Z"/><path class="cls-2" d="M635.55,3214.14l-26.78-120.21,5.26,8.4c18.9,30.2,51.2,56.28,96,77.54l4.65,2.2Zm-19.33-102.43L638,3209.48l68.23-27.66C665.78,3162.29,635.56,3138.74,616.22,3111.71Z"/></g><path class="cls-5" d="M2212.55,2711.8c-.19.85-.45,1.74-.71,2.66-.48,1.72-1.06,3.49-1.76,5.36-.36,1-.74,1.92-1.12,2.93a160.6,160.6,0,0,1-11.82,23.06c-.72,1.22-1.45,2.44-2.23,3.66-5.38,8.63-11.87,17.92-19.48,27.77-1.06,1.41-2.19,2.83-3.32,4.26-2.56,3.29-5.25,6.61-8.07,10-1.22,1.49-2.5,3-3.78,4.5q-11.67,13.9-25.86,28.86c-1.37,1.46-2.77,2.91-4.21,4.4q-13.14,13.76-28.27,28.09c-1.78,1.69-3.59,3.42-5.42,5.12q-15.09,14.17-32,28.77c-2,1.79-4.14,3.57-6.25,5.36-25.2,21.49-53.18,43.46-83.71,65.3-2.54,1.84-5.12,3.65-7.7,5.46-5.15,3.65-10.37,7.27-15.68,10.92-2.63,1.81-5.3,3.62-8,5.42-.78.55-1.59,1.06-2.36,1.6v0c.29-25.86-2-55.07-5.22-83.34-3-25.81-6.87-50.83-10.49-71.73a467.21,467.21,0,0,0-55-219l-10.34-19.36-22.63-42.47c202.6,29.69,348.76,96.91,373.11,139.65a31,31,0,0,1,2.18,4.58,21.32,21.32,0,0,1,1,3.18C2214.27,2700.87,2214,2705.91,2212.55,2711.8Z"/><path class="cls-2" d="M1939.12,2988.58v-3.27c.26-23.07-1.5-51-5.22-83.17-2.61-22.49-6.13-46.59-10.47-71.64A467.64,467.64,0,0,0,1868.58,2612L1834,2547.22l3.33.49c198.34,29.06,348.74,95.55,374.35,140.49A33.19,33.19,0,0,1,2214,2693a23.8,23.8,0,0,1,1.05,3.42c.94,4.31.67,9.61-.83,15.75-.18.79-.41,1.61-.65,2.45-.58,2-1.17,3.87-1.89,5.79-.23.64-.48,1.29-.74,1.95l-.38,1a163.67,163.67,0,0,1-12,23.33c-.73,1.22-1.46,2.46-2.26,3.7-5.46,8.77-12.05,18.16-19.56,27.89-1.06,1.4-2.2,2.84-3.33,4.28-2.57,3.29-5.27,6.62-8.09,10-.88,1.08-1.79,2.15-2.72,3.24l-1.08,1.28c-7.6,9-16.32,18.79-25.92,28.93-1.38,1.46-2.78,2.92-4.22,4.41-8.62,9-18.16,18.49-28.33,28.14-2,1.88-3.68,3.52-5.44,5.14-10,9.42-20.81,19.12-32.05,28.81q-3.07,2.68-6.26,5.37c-26.2,22.34-54.41,44.34-83.82,65.39-2.54,1.84-5.13,3.65-7.71,5.46-5.16,3.66-10.38,7.28-15.69,10.93-2.64,1.81-5.32,3.62-8,5.43Zm-98.92-437,31.39,58.85a470.58,470.58,0,0,1,55.22,219.79c4.33,24.83,7.86,49,10.48,71.53,3.56,30.8,5.33,57.81,5.25,80.35q3.87-2.61,7.65-5.2c5.3-3.65,10.51-7.26,15.66-10.91,2.58-1.81,5.15-3.61,7.69-5.45,29.33-21,57.46-42.93,83.59-65.22q3.18-2.67,6.25-5.34c11.2-9.67,21.95-19.33,31.95-28.73,1.75-1.62,3.46-3.25,5.14-4.86q15.62-14.82,28.49-28.29c1.44-1.49,2.84-2.94,4.21-4.39,9.55-10.09,18.23-19.78,25.79-28.79l1.09-1.28c.91-1.07,1.81-2.14,2.68-3.2,2.81-3.4,5.49-6.7,8-10,1.13-1.43,2.25-2.85,3.31-4.25,7.45-9.65,14-18.95,19.38-27.64.79-1.22,1.51-2.43,2.22-3.63a159.82,159.82,0,0,0,11.7-22.82l.38-1c.24-.64.49-1.26.71-1.9.7-1.84,1.26-3.57,1.73-5.24.31-1.09.52-1.85.69-2.59v0c1.38-5.64,1.65-10.43.81-14.22a19.32,19.32,0,0,0-.9-2.94,29.78,29.78,0,0,0-2.06-4.34C2183.67,2645.88,2035.87,2580.73,1840.2,2551.57Z"/><g class="cls-7"><path class="cls-8" d="M2210.22,2689c-31.81-12.15-121.33-45.24-208.31-66.91-56.2-14-106.77-24-142.17-30.27l-22.63-42.47C2039.71,2579.08,2185.87,2646.3,2210.22,2689Z"/></g><g class="cls-6"><path class="cls-2" d="M2212.55,2711.8c-.19.85-.45,1.74-.71,2.66-.48,1.72-1.06,3.49-1.76,5.36-.36,1-.74,1.92-1.12,2.93a160.6,160.6,0,0,1-11.82,23.06c-.72,1.22-1.45,2.44-2.23,3.66-5.38,8.63-11.87,17.92-19.48,27.77-1.06,1.41-2.19,2.83-3.32,4.26-2.56,3.29-5.25,6.61-8.07,10-1.22,1.49-2.5,3-3.78,4.5q-11.67,13.9-25.86,28.86c-1.37,1.46-2.77,2.91-4.21,4.4q-13.14,13.76-28.27,28.09c-1.78,1.69-3.59,3.42-5.42,5.12q-15.09,14.17-32,28.77c-2,1.79-4.14,3.57-6.25,5.36-25.2,21.49-53.18,43.46-83.71,65.3-2.54,1.84-5.12,3.65-7.7,5.46-5.15,3.65-10.37,7.27-15.68,10.92-2.63,1.81-5.3,3.62-8,5.42-.78.55-1.56,1.06-2.36,1.57.29-25.86-2-55.07-5.22-83.34,76.42-46,239.33-148.5,276.8-208.32a21.32,21.32,0,0,1,1,3.18C2214.27,2700.87,2214,2705.91,2212.55,2711.8Z"/></g><path class="cls-2" d="M1067.33,3245.81c-29.25,0-57.95-.85-85.41-2.55-32.69-2-64.3-5.29-93.95-9.71-68.92-10.33-127.55-26.78-174.31-48.89-68.19-32.24-108.65-74.95-120.23-126.95s6.91-107.85,55-166c32.94-39.87,79.05-79.65,137.05-118.26,25-16.59,52.23-33,80.95-48.67,26-14.21,53.72-28.15,82.39-41.44,27-12.49,55.1-24.54,83.5-35.82,95-37.75,197.68-69,305.14-93,201.83-45,384-33.86,501.36-16.62,217.07,31.81,374.78,106.51,385.87,156.34,7.54,33.83-40.91,93.63-70.47,126.26-54.1,59.73-129.64,123-212.71,178.23-99.1,65.86-259.49,153.8-460.82,198.66h0c-107.47,23.94-213.7,39.2-315.76,45.35-30.47,1.85-61,2.86-90.79,3Zm564-699.81c-86.8,0-185.18,8.05-288.82,31.13-106.27,23.68-207.75,54.6-301.63,91.9-28,11.12-55.7,23-82.32,35.31-28.2,13.07-55.46,26.78-81,40.74-28.15,15.39-54.81,31.42-79.25,47.64-56.1,37.35-100.52,75.61-132,113.74C623,2958.81,606.05,3008,616,3052.68s46.14,82,107.55,111.07c44.71,21.15,101.17,36.94,167.83,46.93,29,4.31,59.94,7.51,92,9.49,29.07,1.8,59.54,2.63,90.65,2.5,29.34-.15,59.46-1.15,89.51-3,100.83-6.08,205.84-21.16,312.12-44.84h0c197.86-44.09,355.58-130.56,453.05-195.35,189.27-125.78,279.9-251.07,273.41-280.19-6.63-29.74-142.05-105.57-366.66-138.48A1411.16,1411.16,0,0,0,1631.28,2546Z"/><path class="cls-9" d="M1593,3018.55a174.5,174.5,0,0,1-208.45-132.5,172.9,172.9,0,0,1-3.8-26A174.66,174.66,0,0,1,1517,2677.57a163,163,0,0,1,16.89-2.91A174.67,174.67,0,0,1,1593,3018.55Z"/><g class="cls-7"><path class="cls-8" d="M1381,2859.36A174.63,174.63,0,0,1,1517,2703.75a160.36,160.36,0,0,1,16.89-2.91,174.61,174.61,0,0,1,191.59,135.41,176.54,176.54,0,0,1,3.55,23.53,174.69,174.69,0,0,0-195.14-188.52,160.36,160.36,0,0,0-16.89,2.91,174.66,174.66,0,0,0-136.3,182.5C1380.79,2857.57,1380.89,2858.46,1381,2859.36Z"/></g><g class="cls-6"><path class="cls-2" d="M1593,3018.55a152.42,152.42,0,0,1-197.41-114.73c-.26-1.14-.49-2.28-.72-3.42a174.7,174.7,0,0,0,313.27-136.23c.21.31.45.62.63.93A174.71,174.71,0,0,1,1593,3018.55Z"/></g><path class="cls-2" d="M1555,3034.33c-85.31,0-162.45-59.11-181.75-145.76a186.24,186.24,0,1,1,363.56-81c22.33,100.23-41,199.95-141.28,222.28h0A186,186,0,0,1,1555,3034.33Zm.35-349.43a164.51,164.51,0,0,0-35.79,4,163.11,163.11,0,0,0-123.74,194.68c19.56,87.78,106.89,143.3,194.68,123.73h0c87.78-19.56,143.29-106.89,123.73-194.67a163.26,163.26,0,0,0-158.88-127.7Z"/><path class="cls-2" d="M1555,3034.68c-85.47,0-162.75-59.22-182.09-146a186.59,186.59,0,0,1,364.24-81.15c22.37,100.42-41.12,200.33-141.55,222.7h0A186.58,186.58,0,0,1,1555,3034.68Zm.35-349.43a164.55,164.55,0,0,0-35.72,3.95,162.76,162.76,0,0,0-123.47,194.26c19.52,87.6,106.66,143,194.26,123.47s143-106.66,123.47-194.26a162.9,162.9,0,0,0-158.54-127.42Z"/><path class="cls-10" d="M1646.26,2920.32a116.31,116.31,0,1,1,22.66-48.21A116.4,116.4,0,0,1,1646.26,2920.32Z"/><path class="cls-2" d="M1554.88,2970.19a122.18,122.18,0,1,1,95.91-46.28h0A122,122,0,0,1,1554.88,2970.19Zm.24-232.69a110.58,110.58,0,1,0,86.61,179.23h0a110.56,110.56,0,0,0-86.61-179.23Z"/><g class="cls-11"><path class="cls-2" d="M1641.18,2874c-5.26,15.32-16.15,28.56-29.64,38.32a100.6,100.6,0,0,1-96.24,11.22c-15.38-6.4-29-16.8-37.63-30.53,15.32,5.14,29.28,8.95,43.22,10.85a158.72,158.72,0,0,0,80.73-9.35C1614.76,2889.51,1627.48,2882.58,1641.18,2874Z"/></g><path class="cls-5" d="M608.08,3162l-50.74-207.05c-6.13-25,14.89-50.36,44.11-53.14l42.24-4,67.38,275-39.31,16C644.56,3199.72,614.21,3187,608.08,3162Z"/><g class="cls-7"><path class="cls-8" d="M603.16,2935.38l42.23-4,60.73,247.82,4.06-1.65-67.38-275-42.24,4c-29.22,2.78-50.24,28.11-44.11,53.14l2.67,10.91C563.6,2952.56,581,2937.49,603.16,2935.38Z"/></g><g class="cls-6"><path d="M711.08,3172.73l-39.3,15.94c-27.21,11-57.57-1.68-63.69-26.7l-18.38-75c12.73,11.86,33.49,15.93,52.66,8.14l39.33-15.95-44.32-180.83,6.31-.59Z"/><path class="cls-2" d="M651.39,3194.41a51.06,51.06,0,0,1-23.34-5.54c-11.16-5.7-18.83-15.12-21.61-26.5l-19.74-80.54,4.18,3.89c12.72,11.86,33.15,15,50.85,7.8l38-15.39-44.44-181.32,9.74-.91.35,1.42,67.73,276.43-40.66,16.5A56,56,0,0,1,651.39,3194.41Zm-58.8-102.88,17.15,70c2.55,10.4,9.6,19,19.86,24.27,12.36,6.33,27.89,6.79,41.54,1.26l37.93-15.39-66.68-272.15-2.89.27,44.21,180.35L643,3096.67C625.87,3103.64,606.28,3101.49,592.59,3091.53Z"/></g><path class="cls-2" d="M646.11,3207.13a52.74,52.74,0,0,1-24-5.71c-12-6.12-20.24-16.32-23.28-28.71l-54.65-223.05c-3-12.39-.43-25.26,7.36-36.22a54.53,54.53,0,0,1,39.51-22.3l61.52-5.86,72.15,294.4-57.27,23.24A56.66,56.66,0,0,1,646.11,3207.13Zm-24.84-39.93c1.41,5.77,5.44,10.61,11.34,13.62,7.69,3.93,17.45,4.18,26.11.67l38.74-15.72L634.83,2910.2l-41.62,4c-9.3.89-17.84,5.62-22.84,12.67-3.84,5.4-5.17,11.55-3.76,17.32Z"/><path class="cls-2" d="M1945.29,2989.49l-20.41-.71.21-6.29a885,885,0,0,0-97-433.73l18.17-9.34a905.68,905.68,0,0,1,99.24,443.78Z"/><path class="cls-2" d="M1143.69,3232.49l-8.42-129.64a1105.23,1105.23,0,0,0-75.41-335.75l-41.69-105.28,19-7.52,41.69,105.28a1125.55,1125.55,0,0,1,76.81,341.94l8.42,129.65Z"/><path class="cls-2" d="M1554.88,2974.62a126.58,126.58,0,1,1,99.39-48h0A126.49,126.49,0,0,1,1554.88,2974.62Zm.24-232.69A106.16,106.16,0,1,0,1638.25,2914h0a106.13,106.13,0,0,0-83.13-172.05Z"/><g class="cls-6"><path class="cls-12" d="M1810.66,2556c-68.61,44.53-256.34,6-305.23,36.58-17.76,11.09,22.43,48.8-6.3,151.33-19.77,70.59-111,132.63-170.28,117-100.9-26.52-28.17-150.44-193.74-159.79-92.32-5.23-125-15.71-136-23.93q4.82-2,9.71-4c90.64-37.32,192-70.08,300.37-95.66,177-41.77,349.67-41.92,493.88-22.58C1805.64,2555.29,1808.15,2555.62,1810.66,2556Z"/><path class="cls-2" d="M1348.61,2865.08a79.22,79.22,0,0,1-20.19-2.49c-44-11.57-55.46-40.9-67.58-72-15.83-40.56-32.19-82.49-125.83-87.78-74-4.19-121.38-12.59-136.89-24.27l-2.36-1.78,2.73-1.15q4.82-2,9.73-4c93.6-38.53,194.75-70.74,300.62-95.73,198.61-46.88,378.53-38.17,494.49-22.61,2.55.33,5.06.67,7.57,1l4.47.65-3.79,2.46c-37.94,24.62-112.45,24.14-178.17,23.7-54.18-.34-105.34-.69-127.08,12.89-5.61,3.51-4.42,10.25-1.19,25.17,5,23.13,13.38,61.85-4.37,125.18C1483,2808,1407.67,2865.08,1348.61,2865.08Zm-345.88-187.51c12.7,7.61,46.34,17,132.47,21.88,95.82,5.41,112.59,48.38,128.81,89.94,11.8,30.23,22.94,58.78,65.27,69.91,59.1,15.51,148.7-46.2,168.21-115.86,17.52-62.52,9.26-100.72,4.32-123.54-3.21-14.88-5.16-23.85,2.72-28.77,22.57-14.11,74.23-13.78,128.9-13.41,63,.41,134,.88,172.25-20.71l-2.79-.37c-115.69-15.52-295.16-24.2-493.27,22.55-105.7,24.95-206.67,57.11-300.11,95.57C1007.23,2675.7,1005,2676.63,1002.73,2677.57Z"/></g><path class="cls-13" d="M967.44,2132.43l-51.79,15.78-217.8-714.5a25.61,25.61,0,0,1,17-32l2.79-.85a25.62,25.62,0,0,1,32,17Z"/><path class="cls-8" d="M797,1727.64s-21.83-6.39-52.62-7.61h-.06c-36.08-1.44-84.4,4.31-124.09,36a.44.44,0,0,1-.18.11,157,157,0,0,0-28.79,30.28s0,.08-.06.11c-.81,1.1-1.59,2.2-2.37,3.33a425.8,425.8,0,0,1-30.24,39c-54,61.76-100.73,74.77-113.77,77.31l-.09,0c-2.31.44-3.53.55-3.53.55l-20.35-47.42-4.69-10.87-90.81-211.46c90.44-51.55,112.87-86,142.08-123.23,6.79-8.61,13.9-17.4,22.34-26.6,17.81-19.43,35.83-33.36,53.49-43.08,55.8-30.73,108.16-19.54,139.68-6.76a.92.92,0,0,1,.35.14c.43.18.81.35,1.21.49a.23.23,0,0,0,.12.06c18,7.49,28.74,15.3,28.74,15.3Z"/><path class="cls-2" d="M440.13,1908.5l-25.53-59.42-91.42-212.87,1.33-.75c83.19-47.43,108.32-79.88,134.93-114.25,2.2-2.84,4.4-5.68,6.65-8.55,6.57-8.34,13.83-17.34,22.43-26.7,16.89-18.42,35-33,53.92-43.42,55.39-30.5,107.33-20.56,141.14-6.85l1.9.79c17.87,7.45,28.43,15.08,28.88,15.4l.46.33,84.72,277.94-3-.88c-.22-.07-22-6.35-52.21-7.54-34.08-1.38-83,3.71-123,35.6l-.49.32a157,157,0,0,0-28,29.55l-.37.51c-.63.89-1.4,2-2.17,3.08a427,427,0,0,1-30.37,39.14c-53.95,61.69-101,75.12-114.48,77.81l-.65.1c-2.1.43-3.37.55-3.37.55ZM327.51,1637.66l114.75,267.18c.54-.09,1.26-.2,2.16-.37,13-2.55,59.32-15.54,112.88-76.79a424.57,424.57,0,0,0,30.13-38.82c.74-1.08,1.49-2.13,2.26-3.18l.36-.5a158.47,158.47,0,0,1,28.94-30.4c41-32.66,90.79-37.84,125.4-36.45a255.86,255.86,0,0,1,50.09,6.88l-82.58-270.9a158.13,158.13,0,0,0-27.63-14.65h-.36l-.31-.28-.52-.21-.81-.39c-33.1-13.37-84-23.12-138.19,6.74-18.57,10.22-36.41,24.59-53.05,42.74-8.52,9.28-15.74,18.22-22.27,26.5-2.24,2.86-4.44,5.7-6.63,8.54C435.45,1557.76,410.25,1590.31,327.51,1637.66Z"/><path class="cls-8" d="M1626.66,2303.14c-61,23.84-158,85.51-160.29,99.53-1.71,10.67,8.13,46.39,24.76,65.37,5.19,5.93,11.06,10.21,17.44,11.58,26.78,5.72,82.24,31.85,84.26,41.65,0,0-191.92,13.85-210.71,24,37.92,20.45,83.73,73.22,75.27,144.15-.4,3.46-.86,6.85-1.35,10.15-17.23,116.83-82.23,147.11-119.42,130.76-67.72-29.76-25.67-170.92-210.22-180.6-116.74-6.12-140-134-140.85-229.69-.09-8.86,0-17.42.27-25.61.74-25.67,2.81-47.37,4.49-61.42v0c.19-1.35.34-2.63.46-3.82,0-.1,0-.19.06-.28.92-4,1.93-8.07,3-12.13.12-.49.24-.95.34-1.41l-1.53.61s-58.55-43.24-118.45-133.36c-50.12-75.45-55.5-143.63-33-177.27,23-34.32,75-32.82,138.26,33.37q17.19,18,33.8,33.7c128.83,122.37,226.11,145.38,226.11,145.38l-3.58,1.43c52.29,13.51,138.28,25,228.56-8.52,43.33-16.08,72.73-30.81,95-43.24,52.62-29.37,66.13-46.09,131-38.14,20,2.44,31.26,10.88,35.9,22.82C1743.24,2195.3,1674.42,2284.47,1626.66,2303.14Z"/><path class="cls-2" d="M1356.75,2836.13a51.43,51.43,0,0,1-20.82-4.25c-24.78-10.89-34.94-35.61-46.71-64.24-20.17-49-45.26-110-162.91-116.22-116-6.08-141.52-129.18-142.46-231.37-.09-8.26,0-16.66.27-25.68.74-26,2.86-47.82,4.51-61.58.18-1.38.33-2.64.45-3.82l.15-.66c.78-3.44,1.68-7.13,2.64-10.82l-.24-.18c-.59-.43-59.48-44.45-118.86-133.79-52.62-79.21-54.46-147.06-32.94-179.16,9-13.47,22.19-21.32,38.09-22.7,29.43-2.55,66,17.28,102.81,55.84,10.79,11.31,22.14,22.63,33.74,33.65,127,120.57,224.36,144.72,225.33,144.95l5.22,1.24-3.7,1.48c55.08,13.52,136.82,22,222.47-9.75,46.72-17.33,76.48-32.91,94.81-43.13,8.36-4.67,15.87-9.09,22.49-13,36.24-21.37,54.43-32.11,109.58-25.34,19.5,2.38,32,10.42,37.29,23.9,17.76,45.45-53.47,134.77-100.68,153.22h0c-60,23.46-157.12,85.33-159.23,98.23-1.65,10.32,8.34,45.69,24.36,64,5.36,6.12,10.92,9.83,16.52,11,25.85,5.52,83.23,31.61,85.56,43l.39,1.9-1.93.14c-1.84.13-176.33,12.81-206.89,22.54,41.24,23.82,80.89,78.13,73,144.11-.4,3.46-.86,6.87-1.35,10.19-12.52,84.86-48.26,116.26-68.45,127.42A67.67,67.67,0,0,1,1356.75,2836.13ZM996.46,2312.59l-.63,3.08c-.08.41-.18.83-.29,1.26-1.13,4.29-2.13,8.37-3,12.32l-.09.41c-.06.87-.21,2.17-.4,3.54-1.63,13.68-3.74,35.42-4.48,61.27-.27,9-.35,17.33-.27,25.54.93,100.74,25.84,222.07,139.23,228,119.81,6.29,145.36,68.41,165.88,118.32,11.49,27.95,21.42,52.09,44.94,62.42,14.93,6.57,33.27,4.92,50.33-4.51,19.64-10.86,54.42-41.53,66.73-124.94.49-3.28.94-6.66,1.34-10.09,7.88-66.08-33-120.16-74.39-142.46l-2.77-1.5,2.77-1.49c17.94-9.69,185.22-22.27,208.88-24-7.62-9.85-56-32.94-82-38.48-6.34-1.36-12.52-5.44-18.37-12.12-17.21-19.64-26.88-56-25.16-66.76,2.53-15.46,102-77.66,161.35-100.84h0c45-17.59,115.56-105.8,98.75-148.83-4.75-12.22-16.37-19.54-34.53-21.75-54-6.61-71.86,3.92-107.44,24.89-6.64,3.92-14.17,8.35-22.57,13-18.42,10.27-48.34,25.94-95.27,43.35-89.15,33.08-174,22.93-229.58,8.58l-5-1.3,3.76-1.51c-21.34-6.51-110.43-38.42-222-144.41-11.63-11.06-23-22.42-33.86-33.77-36.11-37.79-71.64-57.27-100-54.79-14.83,1.28-27.13,8.61-35.55,21.19-20.89,31.17-18.8,97.48,33,175.39C931,2265,985.89,2308.61,992.9,2314Z"/><g class="cls-6"><path class="cls-2" d="M1559.43,2167.43c-44.18,67.75-135.82,114.7-236.88,114.7-145.13,0-276.77-94.66-309.25-209.75,128.83,122.37,226.11,145.38,226.11,145.38l-3.58,1.43c52.29,13.51,138.28,25,228.56-8.52C1507.72,2194.59,1537.12,2179.86,1559.43,2167.43Z"/></g><g class="cls-6"><path class="cls-2" d="M1626.66,2303.14c-61,23.84-158,85.51-160.29,99.53-1.71,10.67,8.13,46.39,24.76,65.37-22.4-13.35-43.16-35.45-43.16-71.36,0-78.14,79-68.93,184.53-137.44,62.6-40.64,86.66-88.18,93.87-107.13C1743.24,2195.3,1674.42,2284.47,1626.66,2303.14Z"/></g><g class="cls-6"><path class="cls-2" d="M1018.2,2296.61c-4.37,43.46-10.22,71.88-2.34,125.67,2.57,17.48-7.36,11.72-30.31-2.25-.09-8.86,0-17.42.27-25.61.74-25.67,2.81-47.37,4.49-61.42v0c.19-1.35.34-2.63.46-3.82,0-.1,0-.19.06-.28.92-4,1.93-8.07,3-12.13.12-.49.24-.95.34-1.41l-1.53.61s-58.55-43.24-118.45-133.36c-50.12-75.45-55.5-143.63-33-177.27-.42,22.64,3.52,63.93,30,112.85C918.22,2204.83,1022.6,2253.16,1018.2,2296.61Z"/></g><g class="cls-6"><path class="cls-2" d="M1420.05,2551.44s-55.1-4.68-109.77-6.76S1203.56,2551,1203.56,2510c0-8-.09-18.93-.24-31.68a4.51,4.51,0,0,0-5.26-4.39c-60.65,10.12-137.89,4-174.58,0a4.51,4.51,0,0,0-4.44,6.62c25.85,47.82,71,90.48,149.75,88,175.65-5.59,138.86,94.73,191,133.42,35.58,26.37,68.21,22.13,100.12-2.35-17.24,116.83-82.24,147.11-119.43,130.76-67.72-29.76-25.67-170.92-210.22-180.6-110.67-5.8-137.29-121-140.52-214.53l9.73-1.5,53-8.25,129.63-8.22s9.2,2.93,20.41,7.55c-.6-37.48-1.38-76.62-1.83-99.61a19.86,19.86,0,0,1,19.87-20.25H1310L1435.48,2491s141.43,43.43,123.8,50.21C1546.82,2546,1420.05,2551.44,1420.05,2551.44Z"/></g><g class="cls-6"><path class="cls-12" d="M995.6,2433.69l-9.72,1.5c-.49-14.24-.42-28-.06-40.77A344.92,344.92,0,0,0,995.6,2433.69Z"/><path class="cls-2" d="M984.25,2437.16l-.07-1.91c-.44-13-.46-26.75-.06-40.88l.45-15.73,2.92,15.47a342.63,342.63,0,0,0,9.74,39.07l.59,1.89Zm3-27.67c0,8.11,0,16.05.27,23.72l5.87-.9C991.12,2424.93,989.07,2417.3,987.25,2409.49Z"/></g><g class="cls-6"><path class="cls-12" d="M985.91,2436.38l-.39-1.13.36-.06C985.88,2435.59,985.91,2436,985.91,2436.38Z"/><polygon class="cls-2" points="987.62 2446.36 983.24 2433.89 987.22 2433.25 987.62 2436.38 987.62 2446.36"/></g><path class="cls-2" d="M1604.07,2546a11.56,11.56,0,0,1-9.92-5.61c-17.47-29.06-94.76-52.76-123.06-59.44a11.57,11.57,0,1,1,5.3-22.52c11.39,2.69,112,27.43,137.58,70a11.56,11.56,0,0,1-9.9,17.52Z"/><path class="cls-8" d="M990.77,2329.15c-.12,1.19-.27,2.47-.46,3.82A24.37,24.37,0,0,1,990.77,2329.15Z"/><path class="cls-2" d="M992,2333.2l-3.39-.31a25.26,25.26,0,0,1,.5-4.1l3.36.53C992.34,2330.53,992.19,2331.83,992,2333.2Z"/><path class="cls-8" d="M1262.64,2223.36c6.83,1.4,13.7,2.64,20.62,3.66a363.61,363.61,0,0,0,163.18-13.33c6.21-2,12.35-4.1,18.36-6.4a362.83,362.83,0,0,0,173.58-137.16c60.06-89.14,80.33-203.84,45.3-314.24A363.1,363.1,0,0,0,1551.55,1572q-10.07-7.37-20.61-14a366.5,366.5,0,0,0-146.55-53.31q-17-2.28-34.33-2.93c-4.3-.17-8.62-.27-12.92-.26a363.61,363.61,0,0,0-111.27,17.16c-191.93,60.91-298.17,265.85-237.26,457.81C1030,2106.74,1137.65,2197.52,1262.64,2223.36Z"/><path class="cls-2" d="M1335.94,2232.57a365.2,365.2,0,0,1-52.93-3.86c-6.7-1-13.67-2.23-20.71-3.68h0a366.35,366.35,0,0,1-36.93-708,363,363,0,0,1,111.79-17.24c4.28,0,8.65.09,13,.26,11.52.43,23.13,1.42,34.5,3a368.1,368.1,0,0,1,147.23,53.55c7.12,4.5,14.09,9.23,20.71,14.07a363.59,363.59,0,0,1,132.74,184.78c34,107.22,17.44,222.28-45.51,315.7a364.38,364.38,0,0,1-174.39,137.8c-5.66,2.17-11.7,4.27-18.44,6.43a366.41,366.41,0,0,1-105.81,17.22C1339.42,2232.56,1337.68,2232.57,1335.94,2232.57Zm-73-10.87c7,1.43,13.9,2.65,20.53,3.64a362,362,0,0,0,162.42-13.27c6.67-2.14,12.65-4.22,18.26-6.37a366,366,0,0,0,35.75-15.66,362.24,362.24,0,0,0,137-120.86c62.36-92.55,78.8-206.55,45.09-312.77a360.27,360.27,0,0,0-131.51-183.07c-6.55-4.79-13.46-9.48-20.52-13.93a364.71,364.71,0,0,0-145.86-53.06c-11.26-1.51-22.76-2.5-34.18-2.92-4.27-.17-8.51-.25-12.85-.26a365.79,365.79,0,0,0-110.75,17.09A363,363,0,0,0,1263,2221.7Z"/><g class="cls-6"><path class="cls-12" d="M1299,2229q10.41,1.07,20.88,1.57a362,362,0,0,0,58-2.05c34.69-4,74-11.24,107.72-25.81,6-2.6,11.87-5.32,17.62-8.21a366.91,366.91,0,0,0,34.13-19.27c53.64-34.21,91.29-82.83,120.07-136.54,50.78-94.74,59.39-210.9,13.41-317.2A363,363,0,0,0,1580,1595a364,364,0,0,1-199.42,372.29c-5.75,2.89-11.64,5.61-17.62,8.22a363.93,363.93,0,0,1-161,29.71q-10.48-.49-20.89-1.57a366.23,366.23,0,0,1-206.72-91.6,364.2,364.2,0,0,0,27.13,98.81C1055.75,2136.37,1172.05,2215.84,1299,2229Z"/><path class="cls-2" d="M1336.09,2232.58q-8.14,0-16.27-.36c-6.77-.32-13.83-.85-21-1.57h0a366.82,366.82,0,0,1-326.16-318.34l-.57-4.54,3.4,3.06A366.71,366.71,0,0,0,1181.25,2002c7.09.72,14.09,1.24,20.79,1.56A362.19,362.19,0,0,0,1362.29,1974c6.43-2.8,12.17-5.48,17.54-8.18A361,361,0,0,0,1538,1812.57a361.17,361.17,0,0,0,40.37-217.32l-.58-4.53,3.4,3a363,363,0,0,1,91.21,127c44.66,103.24,39.75,219.4-13.47,318.68-33,61.57-72.46,106.44-120.65,137.17A370.05,370.05,0,0,1,1504,2196c-5.48,2.75-11.27,5.45-17.7,8.25-28.54,12.35-63.93,20.83-108.2,25.94A364.43,364.43,0,0,1,1336.09,2232.58Zm-36.91-5.32c7.1.72,14.09,1.24,20.79,1.56a363,363,0,0,0,57.68-2c43.94-5.07,79-13.47,107.24-25.68,6.37-2.77,12.11-5.45,17.54-8.17a368,368,0,0,0,34-19.19c47.68-30.41,86.77-74.86,119.48-135.91,52.72-98.36,57.59-213.44,13.35-315.72a359.64,359.64,0,0,0-87-122.73,366.65,366.65,0,0,1-166.61,350.12,371.06,371.06,0,0,1-34.29,19.36c-5.42,2.72-11.22,5.42-17.7,8.25A365.22,365.22,0,0,1,1201.89,2007c-6.77-.32-13.83-.85-21-1.57a370.41,370.41,0,0,1-204.26-89,363.46,363.46,0,0,0,322.53,310.86Z"/></g><g class="cls-6"><path class="cls-12" d="M1604,2112.88c-87.64,86.66-102,77.4-126.15,82.35-19.86,4.1-88,12.17-141.7.95-60.17-12.56-152.59-65.09-188.1-147.17a369.89,369.89,0,0,1-14.39-39.24l34.35-6.66a264.39,264.39,0,0,0,18.76,38.47c66.81,112.89,179.48,129.21,270.09,117.23C1538.55,2148,1602,2114,1604,2112.88Z"/><path class="cls-2" d="M1399.32,2203.62c-20.76,0-43-1.49-63.51-5.77-66.72-13.93-155.75-70.59-189.31-148.17a372.51,372.51,0,0,1-14.46-39.42l-.55-1.8,37.6-7.29.51,1.32a264.43,264.43,0,0,0,18.65,38.22c68.9,116.44,184,127.56,268.39,116.41,80.77-10.69,143.92-44.32,146.57-45.74l10.41-5.61-8.41,8.32c-76.62,75.76-97.66,78.62-118,81.37-3,.42-5.92.81-9,1.44C1468.23,2199,1436.07,2203.62,1399.32,2203.62Zm-263.47-192.54a369.4,369.4,0,0,0,13.78,37.25c33.1,76.53,121,132.43,186.88,146.19,56.27,11.74,125.54,2.24,141-.95,3.2-.66,6.27-1.08,9.23-1.48,19.1-2.59,38.83-5.27,108.34-72.85-21.1,10.06-74.09,32.79-138,41.25-85.43,11.3-201.93,0-271.77-118a268.1,268.1,0,0,1-18.37-37.4Z"/></g><path class="cls-2" d="M1468.51,2262.89a465.05,465.05,0,0,1,7.23,46.07c.89,7.7,1.64,15.41,2.32,23.13s1.28,15.4,1.76,23.28a11.61,11.61,0,0,1-23.17,1.39,12,12,0,0,1,0-1.8v-.09c.75-7.42,1.38-15.07,1.94-22.62s1-15.17,1.39-22.76a449.94,449.94,0,0,0,.24-45.42V2264a4.18,4.18,0,0,1,8.25-1.12Z"/><path class="cls-2" d="M1492.48,2381.67a11.57,11.57,0,0,1-3-22.74c.6-.16,61.92-17.14,138.15-70.5,68.61-48,93-105.81,76.89-133.94-13.48-23.58-54.12-23.52-106,.17-117,53.37-187.23,47.78-190.16,47.51a11.57,11.57,0,0,1,2-23c.93.09,68,4.92,178.51-45.51,64.75-29.54,115.49-26,135.73,9.39,21.47,37.54-.4,106.06-83.7,164.37-79.82,55.87-142.77,73.18-145.41,73.89A11.64,11.64,0,0,1,1492.48,2381.67Z"/><path class="cls-13" d="M945,2136l-4.42,1.35a24.77,24.77,0,0,1-30.91-16.48l-49.81-163.43a27.07,27.07,0,0,0,51.82-15.66L961.44,2105A24.77,24.77,0,0,1,945,2136Z"/><path class="cls-2" d="M1336.09,2242.79q-8.37,0-16.73-.37c-7-.33-14.22-.87-21.55-1.61h0a376.64,376.64,0,0,1,1.45-749.44c4.09-.42,8.46-.78,13.29-1.08,11.83-.75,23.81-.94,35.59-.55a378.19,378.19,0,0,1,156.1,39.51c7.73,3.85,15.35,8,22.63,12.24a373.77,373.77,0,0,1,154.89,175.22c45.9,106.12,40.86,225.51-13.84,327.55a375.83,375.83,0,0,1-128.83,139.11,380.23,380.23,0,0,1-35.25,19.9c-5.54,2.78-11.5,5.56-18.16,8.46a375.35,375.35,0,0,1-149.56,31.06Zm-35.88-25.69c6.91.7,13.72,1.21,20.24,1.52a351.78,351.78,0,0,0,155.72-28.75c6.22-2.71,11.8-5.31,17-7.92A351.18,351.18,0,0,0,1646.89,2033c51.24-95.6,56-207.44,13-306.84A350,350,0,0,0,1514.78,1562c-6.81-4-13.94-7.85-21.2-11.46a354.35,354.35,0,0,0-146.24-37c-11-.36-22.24-.19-33.32.52-4.15.26-8.29.58-12.41,1a352.78,352.78,0,0,0-1.4,702Z"/><path class="cls-12" d="M1298.38,2180.76,1480,2201.2l.91-.39c6-2.61,11.87-5.33,17.62-8.22a362.92,362.92,0,0,0,158.87-154c50.78-94.74,59.39-210.9,13.41-317.2a362.91,362.91,0,0,0-112.6-144.53,330.31,330.31,0,0,0-51.6-5.74q-15.86-.51-31.84.5c-4,.25-7.94.56-11.89,1a335.64,335.64,0,0,0-100.66,26.12c-170.73,73.83-249.27,272.06-175.44,442.81A335.37,335.37,0,0,0,1298.38,2180.76Z"/><path class="cls-2" d="M1480.25,2202.94l-182.5-20.54-.36-.26A338.66,338.66,0,0,1,1462.71,1571c4-.43,8-.73,11.94-1,10.75-.67,21.52-.84,32-.5a332.16,332.16,0,0,1,51.87,5.77l.71.32a366.52,366.52,0,0,1,113.13,145.2c44.66,103.24,39.75,219.4-13.47,318.68a365.53,365.53,0,0,1-125.32,135.32,370.05,370.05,0,0,1-34.29,19.36c-5.42,2.72-11.22,5.42-17.7,8.25ZM1299,2179.12l180.71,20.34.49-.22c6.43-2.79,12.16-5.47,17.54-8.17a367.92,367.92,0,0,0,34-19.18,362.08,362.08,0,0,0,124.15-134.06c52.72-98.36,57.59-213.44,13.35-315.72a363,363,0,0,0-111.76-143.6,330.17,330.17,0,0,0-50.94-5.64c-10.37-.33-21-.17-31.67.5-3.93.25-7.89.55-11.81,1a335.2,335.2,0,0,0-164,604.77Z"/><g class="cls-7"><path class="cls-8" d="M1455.4,1612.24c-2.84-2.68,7.66-1.34,11.5-1.89,3.27-.5,6.57-.89,9.85-1.25q13.24-1.39,26.46-1.56a275.16,275.16,0,0,1,43.11,2.91,302,302,0,0,1,98.86,116.12c42.07,86.74,37.38,160.37,1.88,237.41,0,0-.52-50.17-38.36-142.15C1587.54,1770.38,1557.7,1708.77,1455.4,1612.24Z"/></g><g class="cls-6"><path class="cls-14" d="M1309.41,2186.52s0,0,0,0a365,365,0,0,0,96.12-1.7c6.45-1,12.84-2.1,19.14-3.42a364.81,364.81,0,0,0,278-259.22c-79.24,89.66-190.44,136.76-303,137.54a406,406,0,0,1-199.31-50.42c-10.61-5.88-21.08-12.24-31.28-19.16A336,336,0,0,0,1309.41,2186.52Z"/></g><path class="cls-2" d="M1462.77,2216.4c-10,0-18.62-2.92-26.56-5.62-9.57-3.25-17.83-6.05-29-4.44l-17.29,2.51,3.12-11.9-3.51,3.56-6.85-.08-1.66-.55c-79.67-26.88-162.06-54.68-204.9-153.7a348.58,348.58,0,0,1,285.59-485c3.48-.38,7.31-.7,12.27-1,11.09-.69,22.17-.86,33-.52a342.25,342.25,0,0,1,53.41,6l2.68.51,2.17,1.66a376.35,376.35,0,0,1,116.18,149.11c45.86,106,40.82,225.31-13.83,327.26A374.59,374.59,0,0,1,1503.65,2203c-5.53,2.78-11.48,5.55-18.14,8.45A56.43,56.43,0,0,1,1462.77,2216.4ZM1419.19,2183c9.37.79,17.24,3.47,24.47,5.92,11.59,3.95,20,6.8,32.65,1.31,6.23-2.71,11.81-5.31,17-7.93a351.6,351.6,0,0,0,153.87-149.09c51.29-95.69,56-207.64,13-307.14a353.23,353.23,0,0,0-106.85-138.26,320.08,320.08,0,0,0-47.11-5c-10.06-.32-20.4-.16-30.74.48-3.76.24-7.57.53-11.35.94A325.3,325.3,0,0,0,1197.39,2037c35.18,81.33,96,108.6,184.46,138.72,12-10.71,21.38-13.56,29.25-9.08C1417.42,2170.24,1419.2,2176.64,1419.19,2183Z"/><path class="cls-8" d="M993.83,2316.74c-1.07,4.06-2.08,8.16-3,12.13,1-8.25,1.81-12.93,1.81-12.93Z"/><path class="cls-2" d="M992.49,2329.25l-3.34-.59c1-8.29,1.81-13,1.81-13l.42-2.61,4.4,2.94-.3,1.17C994.41,2321.22,993.41,2325.3,992.49,2329.25Z"/><path class="cls-8" d="M1452.75,2495l-168.22,15c-3.51.31-6.58-2-6.58-4.89V2310.4c0-2.92,3.07-5.2,6.58-4.89l168.22,15c22.08,2,38.82,17.38,38.82,35.74v103.05C1491.57,2477.62,1474.83,2493,1452.75,2495Z"/><path class="cls-8" d="M1280.69,2306.26l-2.75,26.25v-22.1A4.74,4.74,0,0,1,1280.69,2306.26Z"/><path class="cls-2" d="M1279.63,2332.69l-3.39-.18v-22.1a6.4,6.4,0,0,1,3.67-5.66l2.8-1.46Z"/><g class="cls-6"><path class="cls-12" d="M1491.58,2359.62v103.05c0,18.36-16.74,33.77-38.84,35.72l-168.2,15c-3.51.3-6.6-2-6.6-4.89v-75.73l165.36,2.57c22.19.33,40.43-13.27,42.32-31.51l5.29-50.48A28.59,28.59,0,0,1,1491.58,2359.62Z"/><path class="cls-2" d="M1283.9,2515.1a8.28,8.28,0,0,1-5.58-2.09,6.14,6.14,0,0,1-2.08-4.53V2431l167.09,2.6h.78c21,0,38-12.78,39.82-30l6.37-60.83,2.27,10.15a30.85,30.85,0,0,1,.71,6.67v103.05c0,19.29-17.36,35.38-40.39,37.42l-168.2,15C1284.43,2515.08,1284.16,2515.1,1283.9,2515.1Zm-4.26-80.62v74a2.76,2.76,0,0,0,1,2,5.08,5.08,0,0,0,3.77,1.17l168.2-15c21.26-1.89,37.29-16.51,37.29-34v-83.16l-2.56,24.48c-2,19.18-20.79,33.34-44,33Z"/></g><path class="cls-8" d="M1277.94,2332.51v96.84l-3.48-.06c-3.55-.06-6.36-2.63-6-5.53Z"/><path class="cls-2" d="M1279.64,2431.08l-5.21-.09a8.33,8.33,0,0,1-6.13-2.69,6.15,6.15,0,0,1-1.59-4.72l9.54-91.25,3.39.18Zm-3.4-65.91-6.14,58.76a2.73,2.73,0,0,0,.75,2.11,5,5,0,0,0,3.64,1.55l1.75,0Z"/><path class="cls-2" d="M1283.88,2521.55a18.07,18.07,0,0,1-12.21-4.66,16.09,16.09,0,0,1-5.29-11.82V2310.4a16.13,16.13,0,0,1,5.29-11.83,18.18,18.18,0,0,1,13.89-4.58l168.22,15c28.14,2.5,49.36,22.82,49.36,47.26v103.05c0,24.44-21.22,44.75-49.36,47.26h0l-168.22,15C1285,2521.53,1284.44,2521.55,1283.88,2521.55Zm5.63-204V2497.9l162.22-14.42c15.86-1.41,28.28-12.05,28.28-24.22V2356.21c0-12.17-12.42-22.81-28.28-24.22ZM1452.75,2495h0Z"/><path class="cls-8" d="M1238.76,2304.93h35.55a3.64,3.64,0,0,1,3.64,3.64v198.34a3.64,3.64,0,0,1-3.64,3.64h-35.55a16.63,16.63,0,0,1-16.63-16.63V2321.56A16.63,16.63,0,0,1,1238.76,2304.93Z"/><path class="cls-2" d="M1274.31,2512.24h-35.55a18.35,18.35,0,0,1-18.33-18.33V2321.56a18.36,18.36,0,0,1,18.33-18.34h35.55a5.35,5.35,0,0,1,5.34,5.34v198.35A5.34,5.34,0,0,1,1274.31,2512.24Zm-35.55-205.61a15,15,0,0,0-14.93,14.93v172.35a15,15,0,0,0,14.93,14.93h35.55a1.94,1.94,0,0,0,1.94-1.93V2308.56a1.94,1.94,0,0,0-1.94-1.93Z"/><g class="cls-6"><path class="cls-12" d="M1277.94,2430v76.68a3.83,3.83,0,0,1-3.85,3.85h-34.38a17.57,17.57,0,0,1-17.57-17.57v-76.71a17.57,17.57,0,0,0,17.57,17.6h34.38A3.85,3.85,0,0,0,1277.94,2430Z"/><path class="cls-2" d="M1274.09,2512.25h-34.38a19.29,19.29,0,0,1-19.27-19.27v-76.71h3.4a15.9,15.9,0,0,0,15.87,15.9h34.38a2.15,2.15,0,0,0,2.15-2.15h3.4v76.68A5.56,5.56,0,0,1,1274.09,2512.25Zm-50.25-85V2493a15.89,15.89,0,0,0,15.87,15.87h34.38a2.13,2.13,0,0,0,2.15-2.15v-71.56a5.51,5.51,0,0,1-2.15.44h-34.38A19.27,19.27,0,0,1,1223.84,2427.21Z"/></g><path class="cls-2" d="M1274.31,2522.11h-35.55a28.23,28.23,0,0,1-28.2-28.2V2321.56a28.23,28.23,0,0,1,28.2-28.2h35.55a15.21,15.21,0,0,1,15.2,15.2v198.35A15.21,15.21,0,0,1,1274.31,2522.11Zm-35.55-205.62a5.08,5.08,0,0,0-5.07,5.07v172.35a5.08,5.08,0,0,0,5.07,5.07h27.62V2316.49Z"/><path class="cls-8" d="M1029.13,2597.31l-22.1-.58c-78.26-2.14-137.24-72-126.21-149.5L909.42,2231l8.07,24.66,0-.83s76,60.27,74.81,71.3c-1,9.11-8.68,93.39-4.52,144.79Z"/><path class="cls-2" d="M1031.49,2599.07l-24.51-.64A132.82,132.82,0,0,1,879.13,2447l29.59-223.67,9.86,30.14c12.82,10.16,76.7,61.43,75.44,72.82-.09.84-8.93,89.9-4.51,144.47ZM910.13,2238.6l-27.62,208.85A129.4,129.4,0,0,0,1007.08,2595l19.68.51-40.57-124.13c-4.51-55.25,4.36-144.66,4.45-145.51.71-6.4-35.85-39.21-71.55-67.68l-.26,7Z"/><g class="cls-6"><path class="cls-2" d="M1029.13,2597.31l-22.1-.58c-78.26-2.14-137.24-72-126.21-149.5l.09-.8L909.42,2231l8.07,24.66,0-.83s76,60.27,74.81,71.3c-1,9.11-8.68,93.39-4.52,144.79l10.57,32.33Z"/></g><path class="cls-8" d="M998.38,2503.21c-50.91-6.35-93.27-27.16-117.47-56.78L909.42,2231l8.07,24.66,0-.83s76,60.27,74.81,71.3c-1,9.11-8.68,93.39-4.52,144.79Z"/><path class="cls-2" d="M1029.13,2608.89h-.32l-22.09-.6A142.66,142.66,0,0,1,869.36,2445.6L898,2229.44a11.57,11.57,0,1,1,22.94,3l-28.62,216.27a119.52,119.52,0,0,0,115.07,136.41l22.09.6a11.57,11.57,0,0,1-.31,23.13Z"/><path class="cls-2" d="M1630.31,2310.85a10.17,10.17,0,0,1-6.28-2.17c-48.86-38.21-64.5-147.82-65.15-152.47a10.22,10.22,0,0,1,20.24-2.8c.14,1.06,15.14,106.06,57.49,139.18a10.21,10.21,0,0,1-6.3,18.26Z"/><path class="cls-8" d="M1243.2,2396.69l3.85,37.21s-53.6,5.26-54.3,3.51-5.61-37.84-4.56-37.84S1243.2,2396.69,1243.2,2396.69Z"/><path class="cls-2" d="M1197.41,2439.39c-5.7,0-6-.68-6.24-1.35-.12-.29-6.09-36.95-4.44-39.39l.51-.75,1,0c1.15,0,36.43-1.9,54.92-2.88l1.62-.09,4.19,40.53-1.7.17C1217.81,2438.48,1204,2439.39,1197.41,2439.39Zm-3.25-3.36c5.25.43,32.84-1.89,51-3.66l-3.51-33.9c-9,.49-44.05,2.35-51.92,2.73C1190,2407.11,1193.15,2431,1194.16,2436Z"/><path class="cls-8" d="M972.25,2395h31.53v44s-32.35-3.15-32.35-3.62S972.25,2395,972.25,2395Z"/><path class="cls-2" d="M1005.49,2440.92l-1.87-.18c-33.89-3.31-33.89-3.31-33.89-5.32,0-.47.74-36.35.82-40.44l0-1.67h34.91Zm-32.33-6.87c4.28.62,18.72,2.11,28.92,3.12v-40.45H973.92C973.78,2403.36,973.28,2427.92,973.16,2434.05Z"/><path class="cls-2" d="M893.18,2220a10.21,10.21,0,0,1-3.07-19.95h0c.91-.29,91.16-29.93,122.21-123.91a10.21,10.21,0,0,1,19.39,6.4c-34.41,104.18-131.36,135.7-135.47,137A10.16,10.16,0,0,1,893.18,2220Z"/><path class="cls-2" d="M938.31,2156.74a31.06,31.06,0,0,1-29.66-22l-214.14-702.5a31,31,0,0,1,20.61-38.69l2.08-.63a31,31,0,0,1,38.68,20.61L970,2116.07a31,31,0,0,1-20.61,38.68h0l-2.08.64A31,31,0,0,1,938.31,2156.74Zm7.63-13.38h0ZM726.23,1415.44a7.25,7.25,0,0,0-2.09.31l-2.08.64a7.16,7.16,0,0,0-4.76,8.94l214.14,702.5a7.18,7.18,0,0,0,8.95,4.76l2.08-.63a7.17,7.17,0,0,0,4.76-8.94l-214.14-702.5A7.18,7.18,0,0,0,726.23,1415.44Z"/><path class="cls-2" d="M640,1558.33c-.26-7-.4-14.12-2.8-20.93-.72-.67-1.39-1.36-2.11-2-2.11-.41-4.19-1.06-6.35-1.27a133.34,133.34,0,0,0-45.1,2.73c-19.39,4.66-36.5,13.43-50.11,28.25-4.94,5.35-9.29,11.21-13.78,16.93-1.2,1.55-2.2,2.27-4.31,1.67a40.37,40.37,0,0,0-15.21-1.09c-13.71,1.43-25.19,7.66-35.45,16.49-11.12,9.58-19.45,21.41-27,33.87-3.22,5.28-.91,10.28,5.23,11.37l11.6,1.92,27.74,4.57a2.59,2.59,0,0,1,.05.55,2.46,2.46,0,0,1-.19.58c-3,5.28-1.41,9.52,3.08,13a17.08,17.08,0,0,1,1.37,1.32c2.43,2.36,4.91,4.74,7.48,7.2-2.59,2.71-5.19,5.07-7.39,7.78a10.54,10.54,0,0,0-2.22,5,6.16,6.16,0,0,0,4.05,6.48,6.59,6.59,0,0,0,7.57-1.38c2.71-2.62,5.26-5.4,8-8.23,3.5,3.41,6.81,6.63,10.12,9.8,3.8,3.61,6.09,4,10.82,1.88.85-.42,1.71-.75,2.73-1.16.23,1,.44,1.87.6,2.66,2.55,12.64,5,25.31,7.66,37.91,1.23,6,6.42,8.1,11.47,4.7,4.56-3.06,9.1-6.25,13.52-9.59,10.19-7.71,19.17-16.62,25.75-27.67,8.22-13.89,11.72-28.55,6.64-44.48a2.59,2.59,0,0,1,.68-2.23c4.47-3.93,9.1-7.68,13.57-11.64a90.34,90.34,0,0,0,23-32.21C638,1594.27,640.7,1576.58,640,1558.33Zm-152.18,79.31-33.19-5.53c9.43-13.62,19.73-25.82,35.06-32.63,6.63-2.94,14.64-4,19.64-2.78C502.25,1610.27,495.12,1623.84,487.85,1637.64Zm93.66,39.48c-1.34,8.66-5.28,16.14-10.46,23.07-6.46,8.52-14.45,15.35-23.23,21.81q-3.51-17.43-6.92-34.13l40.17-23A28.2,28.2,0,0,1,581.51,1677.12Zm41.41-86.44c-3,11.65-7.58,22.53-15,32.1A113.51,113.51,0,0,1,588,1642.07c-19.84,15.51-41.82,27.46-64.51,38.18a2,2,0,0,1-2.76-.39c-2-2.11-4.21-4.1-6.32-6.16a3.5,3.5,0,0,1-.44-.72c.53-.58,1.11-1.16,1.69-1.76,12-12.46,24.06-24.89,36.05-37.37,3.48-3.57,2.88-8.71-1.2-11.12-2.85-1.69-6.18-1.16-8.78,1.48q-10.83,11.19-21.62,22.39c-5.38,5.56-10.7,11.1-16.28,16.89-2.6-2.51-5.07-4.77-7.37-7.21a2.71,2.71,0,0,1,.1-2.38c5.6-11.88,11.14-23.81,17.06-35.55a204.54,204.54,0,0,1,20.82-33c7.46-9.75,15.79-18.62,26.56-24.78a89.08,89.08,0,0,1,21.86-9,3.07,3.07,0,0,1,2.43.93q14.24,13.61,28.32,27.3c2.83,2.71,5.63,5.48,8.52,8.15A2.46,2.46,0,0,1,622.92,1590.68Zm2.54-15.07c-9.4-9.1-18.57-17.95-27.76-26.84,0-.23,0-.51,0-.76,9.1-.28,18.22-.54,27.44-.81A124,124,0,0,1,625.46,1575.61Z"/><path class="cls-8" d="M622.15,1587.93c-2.89-2.67-5.69-5.44-8.52-8.15q-14.13-13.69-28.32-27.3a3.07,3.07,0,0,0-2.43-.93,89.08,89.08,0,0,0-21.86,9c-10.77,6.16-19.1,15-26.56,24.78a204.54,204.54,0,0,0-20.82,33c-5.92,11.74-11.46,23.67-17.06,35.55a2.71,2.71,0,0,0-.1,2.38c2.3,2.44,4.77,4.7,7.37,7.21,5.58-5.79,10.9-11.33,16.28-16.89q10.8-11.2,21.62-22.39c2.6-2.64,5.93-3.17,8.78-1.48,4.08,2.41,4.68,7.55,1.2,11.12-12,12.48-24.05,24.91-36.05,37.37-.58.6-1.16,1.18-1.69,1.76a3.5,3.5,0,0,0,.44.72c2.11,2.06,4.31,4,6.32,6.16a2,2,0,0,0,2.76.39c22.69-10.72,44.67-22.67,64.51-38.18a113.51,113.51,0,0,0,19.89-19.29c7.43-9.57,12-20.45,15-32.1A2.46,2.46,0,0,0,622.15,1587.93Zm-21.44,19.29a23.64,23.64,0,1,1-.72-33.3C609.3,1582.9,609.65,1598.07,600.71,1607.22Z"/><path class="cls-15" d="M625.46,1575.6l-27.76-26.83c0-.24,0-.5,0-.76l27.46-.81A124.49,124.49,0,0,1,625.46,1575.6Z"/><path class="cls-15" d="M509.37,1596.71c-7.13,13.55-14.26,27.13-21.51,40.94-10.72-1.8-21.81-3.64-33.19-5.53,9.43-13.64,19.72-25.84,35.06-32.63C496.34,1596.53,504.35,1595.5,509.37,1596.71Z"/><path class="cls-15" d="M571,1700.19c-6.46,8.52-14.44,15.36-23.23,21.81q-3.51-17.43-6.91-34.13l40.18-23a28.59,28.59,0,0,1,.44,12.29C580.18,1685.79,576.24,1693.27,571,1700.19Z"/><path class="cls-2" d="M600,1573.92a23.58,23.58,0,1,0,.72,33.3C609.65,1598.07,609.3,1582.9,600,1573.92Zm-7.57,25.72a12.43,12.43,0,1,1-.09-17.73A12.51,12.51,0,0,1,592.42,1599.64Z"/><path class="cls-10" d="M592.41,1599.64a12.43,12.43,0,1,1-.09-17.74A12.51,12.51,0,0,1,592.41,1599.64Z"/><path class="cls-8" d="M842.9,2016.56s16.91-42.75,56.41-27.68,45.55,38.19,45.55,50.45-24.41,104.52-43,102.42S842.9,2016.56,842.9,2016.56Z"/><path class="cls-2" d="M907.32,1975.41a76.25,76.25,0,0,1,38.89,34.12c8.29,15.56,10.08,33.57,7.29,49.62a60.15,60.15,0,0,1-1,6l-1.63,5.82-1.65,5.8c-.53,1.94-1.44,3.7-2.15,5.56-1.54,3.64-2.93,7.35-4.61,10.9l-5.53,10.3a88.57,88.57,0,0,1-6,9.9l-6.36,9.63c-4.56,6.15-9.35,12.09-14,18.12a5.6,5.6,0,0,1-9.1-6.5l.26-.39c4.06-6.12,8.25-12.14,12.17-18.29l5.35-9.49a79.44,79.44,0,0,0,5-9.61l4.42-9.79c1.28-3.31,2.26-6.7,3.42-10a49.12,49.12,0,0,0,1.55-5l1.05-5.08,1.06-5.05a48.16,48.16,0,0,0,.48-5c1.34-13.45-1.25-26.52-7.8-37.06a54.19,54.19,0,0,0-28.77-21.94l-.17,0a11.93,11.93,0,1,1,7.11-22.77C906.76,1975.2,907.06,1975.31,907.32,1975.41Z"/><path class="cls-2" d="M433.89,1919,310.64,1632l9-5.12c81.51-46.44,106.06-78.14,132.05-111.7,8.87-11.45,18.05-23.29,29.59-35.89,113.56-123.89,237.64-36.3,238.88-35.4l-13.56,18.73c-4.4-3.16-108.86-76.15-208.27,32.3-10.89,11.89-19.77,23.35-28.35,34.43-25.3,32.66-51.43,66.4-129.93,112.45l108.06,251.62c19.86-5.53,74.12-27.48,131.21-110.17,74.68-108.16,219.5-67.13,221-66.7l-6.52,22.19c-5.28-1.54-130.3-36.64-195.4,57.65-78.28,113.38-152.93,121.53-156.07,121.82Z"/><g class="cls-6"><path class="cls-2" d="M792,1722c-3.47-3.07-22.47-4.14-47.65-2h-.06c-38.05,3.24-90.15,13.82-124.09,36a.44.44,0,0,1-.18.11c-12.77,8.39-22.95,18.39-28.79,30.28,0,0,0,.08-.06.11-7.29,14.78-19,29.06-32.61,42.3-44.85,43.57-111.11,76-113.77,77.31l-.09,0-23.88-46.87-5.5-10.75.81-.12c9.37-1.47,98.77-17.84,155-115.56h0A58.07,58.07,0,0,0,575.3,1670l-95.47-171.53c6.79-8.62,1.5-2.12,9.94-11.32,17.81-19.43,24.23-23.94,41.9-33.66l96.24,181.4a58,58,0,0,0,59.23,30.32c19.28-2.67,35.42-5.42,40.84-13.26,16.83-24.28-45-214.64-45-214.64a.92.92,0,0,1,.35.14c.43.18.81.35,1.21.49a.23.23,0,0,0,.12.06C718.07,1456.2,792,1722,792,1722Z"/></g><path class="cls-2" d="M992.62,2327.53a11.52,11.52,0,0,1-6.86-2.27c-2.46-1.81-60.88-45.5-121.2-136.28-62.75-94.46-57.51-174.33-19.89-204.42,35.16-28.12,88.69-10.87,143.18,46.14,140.66,147.17,253.13,175.54,254.25,175.81a11.57,11.57,0,0,1-5.34,22.51c-4.82-1.14-119.72-29.68-265.63-182.34-44.66-46.72-87.58-63.6-112-44-29.08,23.25-27.78,94.53,24.72,173.55,57.89,87.13,115.11,130.06,115.68,130.48a11.57,11.57,0,0,1-6.89,20.87Z"/><path class="cls-8" d="M1604,2112.88c-87.64,86.66-102,77.4-126.15,82.35-19.86,4.1-88,12.17-141.7.95-60.17-12.56-152.59-65.09-188.1-147.17a369.89,369.89,0,0,1-14.39-39.24c-53.17-175,32.45-365.86,204.32-440.18a364,364,0,0,1,109-28.3c4.31-.43,8.58-.73,12.89-1q17.28-1.1,34.47-.52,2.29,0,4.59.18c7.42,3.7,14.76,7.64,21.91,11.86,7.7,4.52,15.28,9.32,22.64,14.43a4.31,4.31,0,0,1-3,7.82,326.11,326.11,0,0,0-33.86-2.84c-10.54-.34-21.18-.19-31.81.49-4,.24-8,.55-11.92,1a337.38,337.38,0,0,0-100.67,26.13c-157.32,68.06-254.13,250.81-194.17,404.34a264.39,264.39,0,0,0,18.76,38.47c66.81,112.89,179.48,129.21,270.09,117.23C1538.55,2148,1602,2114,1604,2112.88Z"/><path class="cls-2" d="M1399.32,2203.62c-20.76,0-43-1.49-63.51-5.77-66.72-13.93-155.75-70.59-189.31-148.17a372.51,372.51,0,0,1-14.46-39.42c-54.1-178.11,34.14-368.23,205.27-442.23a365.09,365.09,0,0,1,109.46-28.43c4.32-.43,8.62-.74,12.94-1,11.31-.72,23-.89,34.65-.52,1.53,0,3.08.09,4.63.19l.66.17c7.73,3.85,15.14,7.86,22,11.92,8,4.7,15.66,9.57,22.75,14.49a6,6,0,0,1-4.18,10.91,325.09,325.09,0,0,0-33.7-2.83c-10.55-.34-21.2-.18-31.65.48-4.51.28-8.27.59-11.84,1a335.6,335.6,0,0,0-100.17,26c-162.45,70.28-250.95,254.44-193.27,402.16a264.43,264.43,0,0,0,18.65,38.22c68.9,116.43,184,127.57,268.39,116.41,80.77-10.69,143.92-44.32,146.57-45.74l10.41-5.61-8.41,8.32c-76.62,75.76-97.66,78.62-118,81.37-3,.42-5.92.81-9,1.44C1468.23,2199,1436.07,2203.62,1399.32,2203.62Zm83.14-662.38c-7.6,0-15.14.24-22.52.71-4.28.3-8.54.61-12.84,1a362.07,362.07,0,0,0-108.43,28.17c-169.55,73.32-257,261.67-203.37,438.12a370.15,370.15,0,0,0,14.33,39.06c33.1,76.53,121,132.43,186.88,146.19,56.27,11.74,125.54,2.24,141-.95,3.2-.66,6.27-1.08,9.23-1.48,19.1-2.59,38.83-5.27,108.34-72.85-21.1,10.06-74.09,32.79-138,41.25-85.44,11.29-201.93,0-271.77-118a267.3,267.3,0,0,1-18.89-38.73c-58.33-149.37,31-335.53,195.09-406.51A338.58,338.58,0,0,1,1462.69,1571c3.61-.39,7.42-.7,12-1,10.54-.67,21.3-.83,32-.49a334,334,0,0,1,34,2.85,2.61,2.61,0,0,0,1.8-4.73c-7-4.87-14.61-9.7-22.54-14.36-6.72-4-14-7.88-21.5-11.65-1.39-.08-2.78-.13-4.17-.16C1490.32,1541.31,1486.38,1541.24,1482.46,1541.24Z"/><g class="cls-6"><path class="cls-12" d="M1604,2112.88c-87.64,86.66-102,77.4-126.15,82.35-19.86,4.1-88,12.17-141.7.95-60.17-12.56-152.59-65.09-188.1-147.17a369.89,369.89,0,0,1-14.39-39.24,355.79,355.79,0,0,1-9.38-38.38,279.79,279.79,0,0,0,37.83,14.94q2.66,8.43,5.9,16.78a264.39,264.39,0,0,0,18.76,38.47c66.81,112.89,179.48,129.21,270.09,117.23C1538.55,2148,1602,2114,1604,2112.88Z"/><path class="cls-2" d="M1399.32,2203.62c-20.76,0-43-1.49-63.51-5.77-66.72-13.93-155.75-70.59-189.31-148.17a372.51,372.51,0,0,1-14.46-39.42,358.24,358.24,0,0,1-9.42-38.57l-.61-3.28,3,1.44a276,276,0,0,0,37.6,14.85l.86.26.26.86c1.79,5.67,3.76,11.28,5.86,16.67a264.43,264.43,0,0,0,18.65,38.22c68.9,116.43,184,127.57,268.39,116.41,80.77-10.69,143.92-44.32,146.57-45.74l10.41-5.61-8.41,8.32c-76.62,75.76-97.66,78.62-118,81.37-3,.42-5.92.81-9,1.44C1468.23,2199,1436.07,2203.62,1399.32,2203.62Zm-272.73-229.27a355.46,355.46,0,0,0,8.71,34.92,370.15,370.15,0,0,0,14.33,39.06c33.1,76.53,121,132.43,186.88,146.19,56.27,11.74,125.54,2.24,141-.95,3.2-.66,6.27-1.08,9.23-1.48,19.1-2.59,38.83-5.27,108.34-72.85-21.1,10.06-74.09,32.79-138,41.25-85.43,11.3-201.93,0-271.77-118a267.3,267.3,0,0,1-18.89-38.73c-2-5.18-3.92-10.57-5.66-16A277.45,277.45,0,0,1,1126.59,1974.35Z"/></g><path class="cls-2" d="M1399.29,2212.1c-21.31,0-44.13-1.52-65.23-5.93h0c-57.06-11.9-156.17-62.51-195.38-153.11A375.09,375.09,0,0,1,1446,1531.13c4.39-.43,8.76-.76,13.16-1.07,11.56-.74,23.48-.92,35.51-.54,1.55,0,3.15.11,4.76.19l2.14.1,1.92,1c7.71,3.84,15.29,7.93,22.54,12.18,7.88,4.64,15.71,9.63,23.27,14.84a14.52,14.52,0,0,1-10.18,26.34,320.19,320.19,0,0,0-32.8-2.75c-10.11-.32-20.5-.17-30.87.48-3.79.24-7.62.53-11.42,1a325.54,325.54,0,0,0-97.72,25.35c-90,38.89-161.52,117.09-191.43,209.17-24.9,76.61-17.53,154.41,20.73,219.06,66.54,112.41,178.09,123.11,260,112.29,74.1-9.8,132.54-39,143.51-44.71l7.59-4,5.55,6.64,5.28,6.85-5.9,6.33c-46.32,49.76-104.84,79.91-131.61,85.43C1469.74,2207.35,1436.89,2212.1,1399.29,2212.1Zm-61.06-25.92c49.46,10.32,115.19,3.67,137.59-.94,15.4-3.18,44.29-16.62,74.44-38.53a471.34,471.34,0,0,1-92.07,22.22c-72,9.52-204.18,6.31-280.21-122.14-41.29-69.77-49.31-153.5-22.58-235.77,31.7-97.58,107.5-180.42,202.75-221.61a346.3,346.3,0,0,1,103.73-26.92c3.48-.38,7.29-.69,12.23-1,11-.69,22.07-.86,32.81-.51,3.4.11,6.81.27,10.21.48l-1.49-.88c-6.24-3.66-12.76-7.21-19.39-10.56l-2.22-.08c-11.43-.36-22.71-.19-33.56.51-4.13.29-8.32.6-12.51,1A354.52,354.52,0,0,0,1157.43,2045c35.87,82.88,129.93,130.61,180.8,141.23Z"/><circle class="cls-8" cx="1080.98" cy="1972.79" r="106.6" transform="translate(-1078.36 1342.19) rotate(-45)"/><path class="cls-2" d="M1081,2091a118.46,118.46,0,0,1-108.48-71.32h0A117.94,117.94,0,1,1,1081,2091Zm-87.25-80.5a95,95,0,1,0-1.13-72.73,94.46,94.46,0,0,0,1.13,72.73Z"/><circle class="cls-8" cx="1064.61" cy="1985.75" r="85.72" transform="translate(-1092.32 1334.4) rotate(-45)"/><path class="cls-2" d="M1064.63,2073.22a87.67,87.67,0,0,1-80.26-52.77h0a87.24,87.24,0,1,1,80.26,52.77Zm-77.14-54.12a84,84,0,1,0-1-64.3A83.49,83.49,0,0,0,987.49,2019.1Z"/><g class="cls-6"><path class="cls-12" d="M1138.56,2022.54a85.26,85.26,0,0,0,11.42-51.07,85.7,85.7,0,0,1-154.75-42.61c-1.63,2.23-3.15,4.58-4.58,7a85.72,85.72,0,1,0,147.91,86.67Z"/><path class="cls-2" d="M1064.45,2066.61A87.41,87.41,0,0,1,989.18,1935a83,83,0,0,1,4.68-7.15l2.66-3.63.4,4.48a84,84,0,0,0,151.68,41.76l2.66-3.68.41,4.52A86.8,86.8,0,0,1,1140,2023.4h0A87.49,87.49,0,0,1,1064.45,2066.61Zm-70.38-133c-.65,1-1.29,2-2,3.17a84,84,0,1,0,145,84.94h0a83.39,83.39,0,0,0,11.49-45.56,87.42,87.42,0,0,1-154.51-42.55Z"/></g><path class="cls-2" d="M1064.63,2081.73a96.2,96.2,0,0,1-88.07-57.9h0a95.75,95.75,0,1,1,88.07,57.9Zm-69.33-66a75.51,75.51,0,1,0,39.33-99.28,75,75,0,0,0-39.33,99.28Z"/><path class="cls-10" d="M1475.78,2406.61c-.07,3.14-5,28.45-5,28.45l-17.92-.37c-12.34-.26-22.08-13.25-21.76-29s10.6-28.34,22.94-28.08l17.93.37S1475.88,2401.48,1475.78,2406.61Z"/><path class="cls-2" d="M1475.51,2440.94l-22.79-.47c-15.51-.32-27.81-16-27.42-34.91s13.5-34,28.84-33.74l22.72.47.79,4.73c.67,4,4,24.31,3.91,29.7h0c-.07,3.29-3.6,21.68-5.12,29.44Zm-21.86-57.56c-9,0-16.53,10-16.79,22.42s7,22.92,16.1,23.11l13,.27c2-10.49,3.88-20.9,4-22.72,0-2.85-1.58-14-3-22.81l-13.12-.27Zm22.13,23.22h0Z"/><ellipse class="cls-10" cx="1471.35" cy="2406.51" rx="28.55" ry="22.35" transform="translate(-965.1 3827.74) rotate(-88.81)"/><path class="cls-2" d="M1471.14,2440.84h-.49c-7.79-.16-14.94-4.07-20.14-11a38.54,38.54,0,0,1-7.28-23.91c.39-18.92,13.51-34,28.84-33.74,7.78.16,14.93,4.07,20.13,11a40.18,40.18,0,0,1-1,47.49C1485.85,2437.25,1478.74,2440.84,1471.14,2440.84Zm.43-57.09c-9,0-16.52,10-16.78,22.42a27,27,0,0,0,5,16.73c3,4,7,6.29,11.12,6.38s8.2-2,11.38-5.91a27,27,0,0,0,5.66-16.51h0a27,27,0,0,0-5-16.73c-3-4-7-6.29-11.12-6.38Z"/><g class="cls-7"><ellipse class="cls-8" cx="1286.17" cy="1856.41" rx="48.69" ry="56.74" transform="translate(-282.87 232.04) rotate(-9.29)"/></g><g class="cls-7"><ellipse class="cls-8" cx="1286.17" cy="1979.84" rx="20.39" ry="23.77" transform="translate(-521.41 461.07) rotate(-16.95)"/></g><path class="cls-2" d="M1384.76,2506.83A5.78,5.78,0,0,1,1379,2501v-74.62a8.65,8.65,0,0,0-8.64-8.64,20.22,20.22,0,0,1-20.2-20.2v-85.72a5.79,5.79,0,0,1,11.57,0v85.72a8.64,8.64,0,0,0,8.63,8.64,20.22,20.22,0,0,1,20.2,20.2V2501A5.78,5.78,0,0,1,1384.76,2506.83Z"/><path class="cls-8" d="M1458.37,2698.18c-4.37,44-20.72,105.62-73.62,129.45-83.86,37.81-105.56-87.4-110-96.2s-25.33-69.49-124.74-79.6-96.78-35.33-96.78-35.33l88.13-48.93,2.51-1.4,82.66-13.54s66.35-21,143.81-6.08,86.52,97,88.38,103.69C1459.43,2652.71,1461,2672.42,1458.37,2698.18Z"/><g class="cls-6"><path class="cls-2" d="M1458.37,2698.18c-4.37,44-20.72,105.62-73.62,129.45-83.86,37.81-105.56-87.4-110-96.2s-25.33-69.49-124.74-79.6-96.78-35.33-96.78-35.33l88.13-48.93c46.12,8,115.16,28.49,143,48.92,43,31.57,49,79.91,59.56,99.39C1360,2745.66,1400,2771.24,1458.37,2698.18Z"/></g><path class="cls-2" d="M1356.76,2846a61.42,61.42,0,0,1-24.81-5.1c-28.41-12.48-39.8-40.18-51.85-69.51-20.1-48.88-42.88-104.28-154.32-110.11-41.82-2.19-75.77-19.15-100.89-50.4-76.11-94.66-45-288.6-43.67-296.81a11.57,11.57,0,1,1,22.82,3.78c-.31,1.91-30.74,192,38.9,278.56,21.11,26.25,48.6,39.91,84,41.77,126.06,6.6,154.06,74.69,174.5,124.42,11.11,27,19.89,48.39,39.77,57.13,12.36,5.42,27.83,3.76,42.44-4.59,32.11-18.35,54.79-64.67,62.22-127.09,4.74-39.87-3.83-72.45-25.5-96.85-25.71-28.95-63.6-39.22-88.23-39.22a11.57,11.57,0,0,1,0-23.13c29.43,0,74.72,12.31,105.52,47,25.88,29.14,36.66,68.89,31.18,114.94-11.38,95.53-51.07,131.5-73.72,144.44C1382.66,2842.37,1369.44,2846,1356.76,2846Z"/><path class="cls-2" d="M1249.47,2706.07a10.21,10.21,0,0,1-7.61-17c2.91-3.27,72.29-80,146.45-82.71,28.65-1,54.07,9,75.66,29.84a10.21,10.21,0,0,1-14.19,14.69c-17.69-17.08-37.58-25-60.72-24.12-65.57,2.42-131.32,75.17-132,75.9A10.2,10.2,0,0,1,1249.47,2706.07Z"/><path class="cls-8" d="M984.06,2383.51c45.72,6.93,149.64,19.46,238.13,6.76a23.83,23.83,0,0,1,27.27,24.06l0,1.71a23.85,23.85,0,0,1-20,23.06c-91.7,15-204.39,7.92-252.32,3.75a23,23,0,0,1-20.83-25.37l1.5-13.76A23,23,0,0,1,984.06,2383.51Z"/><path class="cls-2" d="M1098.31,2449.89c-51.26,0-96.68-3.2-121.31-5.35a24.64,24.64,0,0,1-22.37-27.24l1.5-13.76a24.63,24.63,0,0,1,28.19-21.71c41.64,6.31,148.17,19.6,237.63,6.75a25.55,25.55,0,0,1,29.21,25.78l0,1.71a25.55,25.55,0,0,1-21.38,24.71C1187.66,2447.67,1141,2449.89,1098.31,2449.89ZM980.57,2385a21.26,21.26,0,0,0-21.06,19l-1.5,13.76a21.24,21.24,0,0,0,19.29,23.48c45,3.92,159.61,11.38,251.9-3.73a22.15,22.15,0,0,0,18.53-21.42l0-1.7a22.14,22.14,0,0,0-25.32-22.35c-89.92,12.91-196.83-.42-238.63-6.75h0A21,21,0,0,0,980.57,2385Z"/><g class="cls-6"><path class="cls-2" d="M1249.46,2414.32l0,1.71a23.87,23.87,0,0,1-20,23.07c-91.71,15-204.41,7.91-252.33,3.76a23,23,0,0,1-20.81-25.37l1.5-13.78c0-.36.09-.73.15-1.07a23.07,23.07,0,0,0,19.16,13.94c47.92,4.15,160.62,11.27,252.33-3.76a23.71,23.71,0,0,0,16.57-11.31A23.62,23.62,0,0,1,1249.46,2414.32Z"/></g><path class="cls-2" d="M1098.28,2458.39c-51.59,0-97.25-3.21-122-5.37a33.17,33.17,0,0,1-30.09-36.65l1.5-13.76a33.16,33.16,0,0,1,37.93-29.19h0c41.28,6.25,146.81,19.42,235.15,6.74a34,34,0,0,1,38.93,34.37l0,1.71a34,34,0,0,1-28.52,32.93C1188.53,2456.15,1141.34,2458.39,1098.28,2458.39Zm-117.69-64.93A12.74,12.74,0,0,0,968,2404.83l-1.5,13.76A12.75,12.75,0,0,0,978,2432.68c44.68,3.88,158.45,11.3,249.79-3.66a13.63,13.63,0,0,0,11.4-13.19l0-1.7a13.4,13.4,0,0,0-4.58-10.47,13.69,13.69,0,0,0-11-3.29c-91,13.08-199-.37-241.11-6.76h0A12.77,12.77,0,0,0,980.59,2393.46Z"/><path class="cls-16" d="M1112.73,26.18c-237,0-429.15,192.15-429.15,429.15,0,343.64,387.92,661.9,387.92,661.9,22.67,18.59,59.78,18.59,82.44,0,0,0,387.93-318.26,387.93-661.9C1541.87,218.33,1349.74,26.18,1112.73,26.18Zm0,239.43c104.61,0,189.72,85.11,189.72,189.73s-85.11,189.72-189.72,189.72S923,560,923,455.34,1008.11,265.61,1112.73,265.61Z"/><path class="cls-17" d="M1112.73,239.43c-119.06,0-215.91,96.86-215.91,215.91s96.85,215.9,215.91,215.9,215.9-96.85,215.9-215.9S1231.78,239.43,1112.73,239.43Zm0,405.63C1008.11,645.06,923,560,923,455.34s85.11-189.73,189.73-189.73,189.72,85.11,189.72,189.73S1217.34,645.06,1112.73,645.06Z"/><path class="cls-2" d="M1112.73,0C861.65,0,657.39,204.27,657.39,455.34c0,82.22,21.21,169.51,63.06,259.43,33,71,79,143.89,136.56,216.63,97.61,123.3,193.84,202.75,197.89,206.07,16.21,13.3,37,20,57.83,20s41.61-6.65,57.82-20c4-3.32,100.28-82.77,197.89-206.07C1426,858.66,1472,785.78,1505,714.77c41.85-89.92,63.06-177.21,63.06-259.43C1568.06,204.27,1363.8,0,1112.73,0Zm-24.61,1097c-.95-.78-96.56-79.8-190.7-198.92C811.81,789.73,709.76,625,709.76,455.34c0-222.2,180.76-403,403-403s403,180.77,403,403c0,169.66-102,334.39-187.66,442.72-94.15,119.12-189.75,198.14-190.7,198.92C1124.22,1107.74,1101.22,1107.74,1088.12,1097Z"/><path class="cls-2" d="M1112.73,213.25c-133.49,0-242.1,108.6-242.1,242.09s108.61,242.09,242.1,242.09,242.09-108.6,242.09-242.09S1246.21,213.25,1112.73,213.25Zm0,431.81C1008.11,645.06,923,560,923,455.34s85.11-189.73,189.73-189.73,189.72,85.11,189.72,189.73S1217.34,645.06,1112.73,645.06Z"/></g></g></svg>