<?xml version="1.0" encoding="utf-8"?>
<!-- Generator: Adobe Illustrator 24.2.3, SVG Export Plug-In . SVG Version: 6.00 Build 0)  -->
<svg version="1.1" id="Layer_1" xmlns="http://www.w3.org/2000/svg" xmlns:xlink="http://www.w3.org/1999/xlink" x="0px" y="0px"
	 viewBox="0 0 2225.4 3553.7" style="enable-background:new 0 0 2225.4 3553.7;" xml:space="preserve">
<style type="text/css">
	.st0{fill:#D73C2C;}
	.st1{fill:#371A45;}
	.st2{fill:#E5A900;}
	.st3{fill:#FFFF00;}
	.st4{fill:#F92323;}
	.st5{opacity:0.35;}
	.st6{opacity:0.7;}
	.st7{fill:#FFFFFF;}
	.st8{fill:#EE346A;}
	.st9{fill:#22A7F0;}
	.st10{opacity:0.42;}
	.st11{fill:#293856;}
	.st12{fill:#FF9D00;}
	.st13{fill:#111A28;}
	.st14{fill:#DB2C2C;}
	.st15{fill:#EB423F;}
	.st16{fill:#FFE1D6;}
</style>
<g id="Layer_2_1_">
	<g id="Layer_1-2">
		<path class="st0" d="M1822.7,2920.2c-107.2-26-213.2,31.7-236.8,128.9c-23.6,97.2,44.2,197.1,151.4,223.1
			c85.9,20.8,355-25.9,458.8-45.4c16.9-3.2,22.6-24.4,9.6-35.6C2124.3,3121.2,1908.8,2941.1,1822.7,2920.2z"/>
		<path class="st1" d="M1797.8,3279.2c114,0,308.5-33.8,398.6-50.6c12-2.2,20-13.8,17.7-25.9c-0.9-5-3.5-9.5-7.3-12.8
			c-86.8-74.7-298-250.6-383.7-271.4c-108-26.2-215.1,32.2-238.9,130.2s44.7,199,152.7,225.2
			C1752.1,3277.6,1773.1,3279.2,1797.8,3279.2z M1822.3,2921.8c85,20.6,295.7,196.2,382.3,270.7c7.9,6.8,8.7,18.6,2,26.5
			c-2.8,3.2-6.6,5.4-10.8,6.2c-109.5,20.5-373.2,66-458.1,45.4c-106.1-25.7-173.5-124.9-150.1-221.1S1716.2,2896.1,1822.3,2921.8
			L1822.3,2921.8z"/>
		<path class="st2" d="M1766.2,2960.4c-74.1-18-147.3,21.9-163.6,89s30.5,136.1,104.6,154.1c54.3,13.2,217.8-16.4,301.1-33.2
			c20.1-4,26.3-29.7,10.3-42.5C1952.3,3074.9,1820.5,2973.6,1766.2,2960.4z"/>
		<path class="st3" d="M1709.1,2998.8c-46-11.2-91.5,13.6-101.6,55.3s19,84.6,65,95.7c29.9,7.2,112.9-6.3,167.4-16.8
			c20.3-3.9,26.6-29.9,10.4-42.7C1806.5,3056.2,1739,3006.1,1709.1,2998.8z"/>
		<path class="st1" d="M1809.7,3283.6c117.4,0,299.9-27.4,387-41.6c18.7-3.1,31.3-20.7,28.3-39.3c-1.3-7.8-5.2-15-11.2-20.2
			c-85.4-75.1-293.4-252.4-379.3-277.1l0,0c-54.1-15.5-110.4-11-158.7,12.8c-48.7,23.9-83.3,64.5-97.6,114.2s-6.4,102.4,22.2,148.5
			c28.3,45.7,73.7,79.5,127.8,95C1747.5,3281.4,1775.9,3283.6,1809.7,3283.6z M1828.2,2927.6c83.6,24,304.6,214.4,370.3,272.2
			c4.6,4.1,5.1,11.1,1,15.7c-1.7,1.9-4,3.2-6.6,3.6c-86.4,14.1-374.7,58.4-458.4,34.4c-48.5-13.9-89.2-44.1-114.5-84.9
			c-25.1-40.5-32.1-86.6-19.6-130c12.4-43.4,42.9-78.7,85.6-99.7C1729.2,2917.8,1779.7,2913.8,1828.2,2927.6L1828.2,2927.6z"/>
		<path class="st4" d="M1080.3,3240.9c7.6,28.2,28.2,77,84.5,130.6c60.3,57.3,161.4,120.1,331.1,169c21.5,6.2,38.1-19.1,23.7-36.3
			c-39.3-46.8-91.1-117.9-117.1-193.7c-12-35-18.5-71-15.7-106.1c1.1-12.5-8.1-23.6-20.6-24.7c-1.6-0.1-3.2-0.1-4.7,0.1l-262,33
			c-12.4,1.5-21.2,12.8-19.7,25.2C1079.8,3239,1080,3240,1080.3,3240.9z"/>
		<g class="st5">
			<path class="st1" d="M1080.3,3240.9c7.6,28.2,10.4,26.3,49.3,88.4c61.4,14.9,183.7,7.9,272.8-18.8c-12-35-18.5-71-15.7-106.1
				c1.1-12.5-8.1-23.6-20.6-24.7c-1.6-0.1-3.2-0.1-4.7,0.1l-262,33c-12.4,1.5-21.2,12.8-19.7,25.2
				C1079.8,3239,1080,3240,1080.3,3240.9z"/>
		</g>
		<path class="st1" d="M1504.7,3553.7c18.6-0.3,33.4-15.5,33.1-34.1c-0.1-7.7-2.9-15.2-7.9-21.1c-59.2-70.1-154.6-204.8-127.5-319.7
			l3.8-16.2l-342,43l0.1,10.3c0,2.3,1.2,56.1,56.2,124.7c72,89.9,198,161.2,374.6,211.7C1498.2,3553.2,1501.4,3553.7,1504.7,3553.7z
			 M1376.8,3189.6c-17.9,120.7,76,253.6,135.4,323.8c3.7,4.4,3.1,11-1.3,14.6c-2.6,2.2-6.2,3-9.5,2
			c-212.4-60.8-313.7-143.4-361.3-202c-37.3-46-48.2-84.6-51.4-102.3L1376.8,3189.6z"/>
		<path class="st4" d="M1193.2,2681.1c1.4,6.1,5.3,11.3,10.7,14.3l228.6,132.1c10.9,6.2,24.8,2.4,31-8.5c0.8-1.4,1.4-2.8,1.9-4.4
			c28.3-85.6,115.3-153.3,189.7-197.5c17.4-10.4,34.1-19.5,49.2-27.2c19.9-10.2,14.5-40-7.8-42.6c-339.5-40.3-462.4,67-499.3,114.8
			C1193,2667.5,1191.5,2674.5,1193.2,2681.1z"/>
		<path class="st1" d="M1443.8,2832.3c2.9,0,5.9-0.5,8.6-1.6c7-2.7,12.4-8.3,14.7-15.4c28.7-86.6,118.5-154.7,188.9-196.6
			c15.7-9.3,32.2-18.5,49.1-27.1c12-6.2,16.7-20.8,10.5-32.8c-3.7-7.2-10.8-12.1-18.9-13c-340-40.4-463.6,67.2-500.9,115.4
			c-4.5,5.8-6.1,13.3-4.3,20.4c1.6,6.5,5.7,12.1,11.5,15.4l228.7,132.1C1435.4,2831.1,1439.6,2832.3,1443.8,2832.3z M1555.4,2540.2
			c42.2,0,89,2.7,140.9,8.9c11.5,1.3,19.7,11.7,18.4,23.2c-0.8,7-5,13.1-11.2,16.3c-17,8.7-33.6,17.9-49.3,27.2
			c-70.9,42.2-161.4,110.8-190.4,198.4c-2,6.1-6.6,11-12.7,13.3c-5.8,2.2-12.4,1.7-17.8-1.4L1204.8,2694c-5-2.9-8.6-7.7-9.9-13.3
			l0,0c-1.5-6.1-0.2-12.6,3.7-17.5C1229.9,2622.8,1322.5,2540.2,1555.4,2540.2z"/>
		<g class="st6">
			<path class="st7" d="M1193.2,2681.1c189.7-135.5,431.8-101.8,453.7-97.8c21.1,3.9,14.8,22.2,8.2,33.9
				c17.4-10.4,34.1-19.5,49.2-27.2c19.9-10.2,14.5-40-7.8-42.6c-339.5-40.3-462.4,67-499.3,114.8
				C1193,2667.5,1191.5,2674.5,1193.2,2681.1z"/>
		</g>
		<path class="st1" d="M1467.2,2860.9l2.8-16.4c19.7-116.4,159.8-203.6,241.6-245.1c16.5-8.4,23-28.6,14.6-45.1
			c-5.1-9.9-14.7-16.7-25.8-18c-182.3-22-326.1-5.3-427.4,49.7c-77.3,41.9-99.3,91.1-100.2,93.1l-4.1,9.5L1467.2,2860.9z
			 M1556.5,2550.2c42,0,88.9,2.7,141.1,9c5.7,0.7,9.7,5.9,9,11.6c-0.4,3.4-2.5,6.3-5.5,7.9c-82,41.7-220.1,127.7-250.5,245.9
			l-251.4-145.2c9.7-15,34.8-46.4,87-74.3C1337,2578,1422,2550.2,1556.5,2550.2z"/>
		<path class="st7" d="M299.5,2997.7c122.1,81,278.5,156.9,457.1,196.5c109.4,24.2,215.5,38.9,314,44.7c30.9,1.9,60.9,2.8,90.2,2.9
			c31.6,0.1,62.1-0.8,91.4-2.6c32.6-2.1,63.6-5.3,92.9-9.7c40.7-6.2,78-14.5,111.3-25c13.9-4.3,27-9.1,39.4-14.2
			c7-2.9,13.8-5.8,20.3-8.9c62.5-29.6,102.8-69.7,113.7-119.1c10.9-49.4-8.6-102.8-52.8-156c-14-16.7-29.1-32.4-45.3-46.9
			c-8.3-7.6-17-15.1-26.2-22.6c-19.2-15.7-40.3-31.1-63.2-46.4c-24.7-16.4-51.4-32.4-80.1-48c-25.8-14.1-53.1-27.7-81.8-41
			c-23.5-10.8-47.8-21.4-73.1-31.6c-3.3-1.3-6.5-2.6-9.8-3.9c-91.7-36.3-194.1-67.9-303.5-92.1c-178.6-39.6-352.3-37.4-497.2-15.9
			c-2.6,0.4-5.1,0.8-7.6,1.1c-211.3,32.4-359.4,105.3-368.5,146.7C12,2745.8,118,2877.3,299.5,2997.7z"/>
		<path class="st1" d="M1166.5,3243.5c29.4,0,58.3-0.9,85.9-2.6c32.4-2,63.7-5.3,93.1-9.7c40.9-6.2,78.4-14.6,111.6-25.1
			c13.8-4.3,27.1-9.1,39.6-14.2c6.8-2.8,13.7-5.8,20.3-9c65.3-31,103.8-71.4,114.7-120.3c10.8-48.9-7-101.9-53.1-157.5
			c-14-16.7-29.2-32.5-45.5-47.1c-8-7.3-16.8-14.9-26.2-22.6c-19.2-15.6-40.5-31.3-63.4-46.5c-24.8-16.4-51.8-32.6-80.3-48.1
			c-25.9-14.1-53.4-27.9-81.9-41.1c-23.9-11-48.5-21.6-73.2-31.6c-3.3-1.3-6.5-2.6-9.9-3.9c-94.7-37.5-196.9-68.5-303.8-92.2
			c-200.4-44.4-381.3-33.2-497.8-15.9c-2.6,0.4-5.1,0.8-7.6,1.1c-205.7,31.5-360,103.3-369.9,148c-8.8,39.6,93.3,170.5,279.3,293.8
			l0,0c98.5,65.3,257.8,152.4,457.7,196.8c107,23.7,212.8,38.8,314.2,44.8c30.4,1.8,60.8,2.8,90.3,2.9L1166.5,3243.5z M604.4,2544.4
			c87.1,0,185.6,8,289.5,31.1c106.7,23.6,208.7,54.6,303.2,92l9.8,3.9c24.6,9.9,49.2,20.6,73,31.5c28.4,13.1,55.8,26.9,81.7,41
			c28.4,15.5,55.3,31.6,80,48c22.8,15.1,44,30.7,63.1,46.3c9.4,7.6,18.2,15.2,26.1,22.5c16.1,14.5,31.2,30.2,45.1,46.8
			c45.4,54.8,63,106.8,52.4,154.6s-48.5,87.5-112.8,118c-6.6,3.1-13.4,6.1-20.2,8.9c-12.4,5.1-25.6,9.8-39.3,14.1
			c-33,10.4-70.3,18.8-111.1,25c-29.3,4.4-60.5,7.7-92.8,9.7c-29.3,1.9-60,2.7-91.3,2.6c-29.4-0.1-59.7-1.1-90.1-2.9
			c-101.3-6-206.9-21-313.7-44.7c-199.4-44.2-358.3-131.1-456.6-196.2l0,0C115.6,2873.7,14,2744.6,22.5,2706
			s152.3-112.4,367.1-145.4c2.5-0.4,5-0.8,7.6-1.1C465.8,2549.4,535.1,2544.3,604.4,2544.4L604.4,2544.4z"/>
		<g class="st5">
			<path d="M1455.4,3200.1c0.4,1.5,0.7,2.9,1.1,4.4c13.9-4.3,27-9.1,39.5-14.2c6.6-2.7,13-5.5,19.1-8.4l-6.5-2.6v-0.2
				C1491.3,3187.3,1473.6,3194.3,1455.4,3200.1z"/>
			<path class="st1" d="M1455.3,3206.6l1.7-0.5c13.8-4.3,27.1-9.1,39.6-14.2c6.8-2.8,13.2-5.6,19.2-8.4l3.5-1.7l-8.8-3.6l0.3-1.9
				l-3,1.3c-17.2,8.1-34.9,15-53,20.9l-1.5,0.5l0.4,1.5c0.4,1.5,0.7,2.9,1.1,4.4L1455.3,3206.6z M1510.8,3182
				c-4.9,2.2-10.1,4.5-15.5,6.7c-11.9,4.9-24.5,9.4-37.6,13.6l-0.3-1.1c17.4-5.7,34.5-12.4,51.1-20.1L1510.8,3182z"/>
		</g>
		<g class="st5">
			<path class="st1" d="M292.2,2994.1c122,81.1,278.3,157.2,456.9,197c109.3,24.4,215.5,39.2,313.9,45.1c30.8,1.9,60.9,2.9,90.1,3
				c31.6,0.2,62.1-0.7,91.5-2.5c32.6-2,63.6-5.2,92.9-9.6c43.4-6.5,82.9-15.5,117.8-27c18.2-5.9,35.9-12.9,53.2-21v0.2l6.5,2.6l0,0
				c44.8-21.1,78.2-47.4,97.8-78.7c8-12.6,13.8-26.5,17-41c11-49.4-8.6-102.8-52.8-156c-14-16.7-29.1-32.4-45.3-46.9
				c-30.9,37.9-57.9,95.6-73,163c-2.2,9.9-4.1,19.8-5.7,29.6c-4.6,28.2-26.5,50.4-54.7,54.6c-252,37-474.4,18.3-663.2-26.8
				c-12.4-3-13.4-20.2-1.4-24.6c61.3-22.6,107-74.9,121.1-138.7c23.2-103.8-42.2-206.6-146-229.8s-206.6,42.2-229.8,146
				c-11.6,51.9-1.2,106.3,28.8,150.2c7.1,10.4-3.9,23.8-15.6,19c-62.5-25.4-123.5-54.5-182.6-87.1c-192.3-106.3-296-212.9-296-212.9
				C5,2741.9,110.7,2873.5,292.2,2994.1z"/>
		</g>
		<g class="st5">
			<path d="M1515.1,3182l73.7,29.9l24.2-108.6c-19.4,31-52.5,57.2-96.7,78.2L1515.1,3182z"/>
			<path class="st1" d="M1590,3214.1l26.8-120.2l-5.3,8.4c-18.9,30.2-51.2,56.3-96,77.5l-4.7,2.2L1590,3214.1z M1609.3,3111.7
				l-21.8,97.8l-68.2-27.7C1559.8,3162.3,1590,3138.7,1609.3,3111.7z"/>
		</g>
		<path class="st4" d="M13,2711.8c0.2,0.9,0.4,1.7,0.7,2.7c0.5,1.7,1.1,3.5,1.8,5.4c0.4,1,0.7,1.9,1.1,2.9c3.3,8,7.3,15.7,11.8,23.1
			c0.7,1.2,1.4,2.4,2.2,3.7c5.4,8.6,11.9,17.9,19.5,27.8c1.1,1.4,2.2,2.8,3.3,4.3c2.6,3.3,5.2,6.6,8.1,10c1.2,1.5,2.5,3,3.8,4.5
			c7.8,9.3,16.4,18.9,25.9,28.9c1.4,1.5,2.8,2.9,4.2,4.4c8.8,9.2,18.2,18.5,28.3,28.1c1.8,1.7,3.6,3.4,5.4,5.1
			c10.1,9.4,20.7,19,32,28.8c2,1.8,4.1,3.6,6.2,5.4c25.2,21.5,53.2,43.5,83.7,65.3c2.5,1.8,5.1,3.6,7.7,5.5
			c5.2,3.6,10.4,7.3,15.7,10.9c2.6,1.8,5.3,3.6,8,5.4c0.8,0.6,1.6,1.1,2.4,1.6l0,0c-0.3-25.9,2-55.1,5.2-83.3
			c3-25.8,6.9-50.8,10.5-71.7c0.2-76.4,19-151.6,55-219l10.3-19.4l22.6-42.5c-202.6,29.7-348.8,96.9-373.1,139.6
			c-0.9,1.5-1.6,3-2.2,4.6c-0.4,1-0.8,2.1-1,3.2C11.3,2700.9,11.5,2705.9,13,2711.8z"/>
		<path class="st1" d="M286.4,2988.6v-3.3c-0.3-23.1,1.5-51,5.2-83.2c2.6-22.5,6.1-46.6,10.5-71.6c0.2-76.2,19-151.2,54.9-218.5
			l34.6-64.8l-3.3,0.5c-198.3,29.1-348.7,95.6-374.3,140.5c-0.9,1.5-1.7,3.1-2.3,4.8c-0.4,1.1-0.8,2.3-1.1,3.4
			c-0.9,4.3-0.7,9.6,0.8,15.8c0.2,0.8,0.4,1.6,0.6,2.4c0.6,2,1.2,3.9,1.9,5.8c0.2,0.6,0.5,1.3,0.7,1.9l0.4,1
			c3.4,8.1,7.4,15.9,12,23.3c0.7,1.2,1.5,2.5,2.3,3.7c5.5,8.8,12.1,18.2,19.6,27.9c1.1,1.4,2.2,2.8,3.3,4.3c2.6,3.3,5.3,6.6,8.1,10
			c0.9,1.1,1.8,2.1,2.7,3.2l1.1,1.3c7.6,9,16.3,18.8,25.9,28.9c1.4,1.5,2.8,2.9,4.2,4.4c8.6,9,18.2,18.5,28.3,28.1
			c2,1.9,3.7,3.5,5.4,5.1c10,9.4,20.8,19.1,32.1,28.8c2,1.8,4.1,3.6,6.3,5.4c26.2,22.3,54.4,44.3,83.8,65.4c2.5,1.8,5.1,3.6,7.7,5.5
			c5.2,3.7,10.4,7.3,15.7,10.9c2.6,1.8,5.3,3.6,8,5.4L286.4,2988.6z M385.3,2551.6l-31.4,58.9c-36,67.7-55,143.1-55.2,219.8
			c-4.3,24.8-7.9,49-10.5,71.5c-3.6,30.8-5.3,57.8-5.2,80.4c-2.6-1.7-5.1-3.5-7.7-5.2c-5.3-3.6-10.5-7.3-15.7-10.9
			c-2.6-1.8-5.2-3.6-7.7-5.4c-29.3-21-57.5-42.9-83.6-65.2c-2.1-1.8-4.2-3.6-6.2-5.3c-11.2-9.7-21.9-19.3-31.9-28.7
			c-1.8-1.6-3.5-3.2-5.1-4.9c-10.4-9.9-19.9-19.3-28.5-28.3c-1.4-1.5-2.8-2.9-4.2-4.4c-9.6-10.1-18.2-19.8-25.8-28.8l-1.1-1.3
			c-0.9-1.1-1.8-2.1-2.7-3.2c-2.8-3.4-5.5-6.7-8-10c-1.1-1.4-2.2-2.9-3.3-4.2c-7.4-9.6-14-18.9-19.4-27.6c-0.8-1.2-1.5-2.4-2.2-3.6
			c-4.5-7.3-8.4-14.9-11.7-22.8l-0.4-1c-0.2-0.6-0.5-1.3-0.7-1.9c-0.7-1.8-1.3-3.6-1.7-5.2c-0.3-1.1-0.5-1.9-0.7-2.6l0,0
			c-1.4-5.6-1.6-10.4-0.8-14.2c0.2-1,0.5-2,0.9-2.9c0.6-1.5,1.3-3,2.1-4.3C41.9,2645.9,189.7,2580.7,385.3,2551.6L385.3,2551.6z"/>
		<g class="st6">
			<path class="st7" d="M15.3,2689c31.8-12.1,121.3-45.2,208.3-66.9c56.2-14,106.8-24,142.2-30.3l22.6-42.5
				C185.8,2579.1,39.7,2646.3,15.3,2689z"/>
		</g>
		<g class="st5">
			<path class="st1" d="M13,2711.8c0.2,0.9,0.4,1.7,0.7,2.7c0.5,1.7,1.1,3.5,1.8,5.4c0.4,1,0.7,1.9,1.1,2.9
				c3.3,8,7.3,15.7,11.8,23.1c0.7,1.2,1.4,2.4,2.2,3.7c5.4,8.6,11.9,17.9,19.5,27.8c1.1,1.4,2.2,2.8,3.3,4.3c2.6,3.3,5.2,6.6,8.1,10
				c1.2,1.5,2.5,3,3.8,4.5c7.8,9.3,16.4,18.9,25.9,28.9c1.4,1.5,2.8,2.9,4.2,4.4c8.8,9.2,18.2,18.5,28.3,28.1
				c1.8,1.7,3.6,3.4,5.4,5.1c10.1,9.4,20.7,19,32,28.8c2,1.8,4.1,3.6,6.2,5.4c25.2,21.5,53.2,43.5,83.7,65.3
				c2.5,1.8,5.1,3.6,7.7,5.5c5.2,3.6,10.4,7.3,15.7,10.9c2.6,1.8,5.3,3.6,8,5.4c0.8,0.6,1.6,1.1,2.4,1.6c-0.3-25.9,2-55.1,5.2-83.3
				c-76.4-46-239.3-148.5-276.8-208.3c-0.4,1-0.8,2.1-1,3.2C11.3,2700.9,11.5,2705.9,13,2711.8z"/>
		</g>
		<path class="st1" d="M1158.2,3245.8c29.2,0,58-0.9,85.4-2.6c32.7-2,64.3-5.3,94-9.7c68.9-10.3,127.5-26.8,174.3-48.9
			c68.2-32.2,108.7-74.9,120.2-126.9s-6.9-107.9-55-166c-32.9-39.9-79-79.6-137-118.3c-25-16.6-52.2-33-81-48.7
			c-26-14.2-53.7-28.1-82.4-41.4c-27-12.5-55.1-24.5-83.5-35.8c-95-37.8-197.7-69-305.1-93c-201.8-45-384-33.9-501.4-16.6
			c-217.1,31.8-374.8,106.5-385.9,156.3c-7.5,33.8,40.9,93.6,70.5,126.3c54.1,59.7,129.6,123,212.7,178.2
			c99.1,65.9,259.5,153.8,460.8,198.7l0,0c107.5,23.9,213.7,39.2,315.8,45.4c30.5,1.9,61,2.9,90.8,3L1158.2,3245.8z M594.2,2546
			c86.8,0,185.2,8.1,288.8,31.1c106.3,23.7,207.8,54.6,301.6,91.9c28,11.1,55.7,23,82.3,35.3c28.2,13.1,55.5,26.8,81,40.7
			c28.2,15.4,54.8,31.4,79.2,47.6c56.1,37.4,100.5,75.6,132,113.7c43.3,52.4,60.3,101.5,50.3,146.2c-9.9,44.7-46.1,82-107.5,111.1
			c-44.7,21.1-101.2,36.9-167.8,46.9c-29,4.3-59.9,7.5-92,9.5c-29.1,1.8-59.5,2.6-90.7,2.5c-29.3-0.1-59.5-1.1-89.5-3
			c-100.8-6.1-205.8-21.2-312.1-44.8l0,0c-197.9-44.1-355.6-130.6-453-195.4c-189.3-125.8-279.9-251.1-273.4-280.2
			c6.6-29.7,142.1-105.6,366.7-138.5C457.7,2550.9,525.9,2546,594.2,2546L594.2,2546z"/>
		<path class="st8" d="M632.5,3018.6c94,21,187.3-38.2,208.4-132.2c0-0.1,0-0.2,0.1-0.3c1.9-8.6,3.2-17.2,3.8-26
			c5.9-86.1-52-163.7-136.2-182.5c-5.6-1.3-11.2-2.2-16.9-2.9c-95.8-11.7-182.9,56.4-194.6,152.1
			C486.1,2916.1,544.7,2999.1,632.5,3018.6z"/>
		<g class="st6">
			<path class="st7" d="M844.5,2859.4c-6.5-76-61.5-139-136-155.6c-5.6-1.3-11.2-2.2-16.9-2.9c-89.2-10.9-172.1,47.7-191.6,135.4
				c-1.7,7.8-2.9,15.6-3.6,23.5c-8.3-96.1,62.8-180.8,158.9-189.1c12.1-1,24.2-0.8,36.2,0.6c5.7,0.7,11.3,1.6,16.9,2.9
				c84.3,18.8,142.2,96.3,136.3,182.5C844.7,2857.6,844.6,2858.5,844.5,2859.4z"/>
		</g>
		<g class="st5">
			<path class="st1" d="M632.5,3018.6c79.9,26.5,166.2-16.8,192.6-96.7c2-5.9,3.5-11.9,4.8-18c0.3-1.1,0.5-2.3,0.7-3.4
				c-56.2,78.4-165.3,96.4-243.8,40.2c-55.9-40-83.1-109.1-69.5-176.5c-0.2,0.3-0.4,0.6-0.6,0.9c-45.8,84.9-14.1,190.9,70.9,236.7
				C601.7,3009.4,616.9,3015.1,632.5,3018.6z"/>
		</g>
		<path class="st1" d="M670.5,3034.3c85.3,0,162.4-59.1,181.8-145.8c22.9-100.3-39.8-200.1-140-223.1
			c-100.3-22.9-200.1,39.8-223.1,140c-0.2,0.7-0.3,1.4-0.5,2.1c-22.3,100.2,41,199.9,141.3,222.3l0,0
			C643.3,3032.8,656.9,3034.3,670.5,3034.3z M670.2,2684.9c12,0,24,1.4,35.8,4c87.9,19.6,143.3,106.7,123.7,194.7c0,0,0,0,0,0
			c-19.6,87.8-106.9,143.3-194.7,123.7l0,0c-87.8-19.6-143.3-106.9-123.7-194.7C527.9,2738.2,593.9,2685.2,670.2,2684.9
			L670.2,2684.9z"/>
		<path class="st1" d="M670.5,3034.7c85.5,0,162.8-59.2,182.1-146c21.7-100.7-42.4-200-143.2-221.7
			c-99.7-21.5-198.2,41.1-221.1,140.5c-22.4,100.4,41.1,200.3,141.6,222.7l0,0C643.3,3033.2,656.9,3034.7,670.5,3034.7z
			 M670.2,2685.2c12,0,24,1.3,35.7,3.9c87.7,19.5,143,106.5,123.5,194.3c0,0,0,0,0,0c-19.5,87.6-106.7,143-194.3,123.5
			s-143-106.7-123.5-194.3C528.2,2738.4,594.1,2685.5,670.2,2685.2z"/>
		<path class="st9" d="M579.3,2920.3c39.9,50.3,113.1,58.8,163.4,18.9c50.3-39.9,58.8-113.1,18.9-163.4
			c-39.9-50.3-113.1-58.8-163.4-18.9c-34.6,27.4-50.7,72-41.5,115.2C560.3,2889.7,568.1,2906.2,579.3,2920.3z"/>
		<path class="st1" d="M670.7,2970.2c67.5-0.1,122.1-54.9,122-122.3c-0.1-67.5-54.9-122.1-122.3-122c-67.5,0.1-122.1,54.9-122,122.3
			c0,27.5,9.4,54.2,26.4,75.7l0,0C597.9,2953.2,633.3,2970.3,670.7,2970.2z M670.4,2737.5c61.1,0,110.6,49.4,110.7,110.5
			c0,61.1-49.4,110.6-110.5,110.7c-33.8,0-65.8-15.4-86.8-41.9l0,0c-37.9-47.9-29.9-117.4,18-155.3
			C621.3,2745.9,645.5,2737.5,670.4,2737.5z"/>
		<g class="st10">
			<path class="st1" d="M584.4,2874c5.3,15.3,16.2,28.6,29.6,38.3c28,20,64.4,24.2,96.2,11.2c15.4-6.4,29-16.8,37.6-30.5
				c-15.3,5.1-29.3,8.9-43.2,10.9c-27.3,3.9-55.1,0.7-80.7-9.4C610.8,2889.5,598.1,2882.6,584.4,2874z"/>
		</g>
		<path class="st4" d="M1617.5,3162l50.7-207.1c6.1-25-14.9-50.4-44.1-53.1l-42.2-4l-67.4,275l39.3,16
			C1581,3199.7,1611.3,3187,1617.5,3162z"/>
		<g class="st6">
			<path class="st7" d="M1622.4,2935.4l-42.2-4l-60.7,247.8l-4.1-1.6l67.4-275l42.2,4c29.2,2.8,50.2,28.1,44.1,53.1l-2.7,10.9
				C1661.9,2952.6,1644.5,2937.5,1622.4,2935.4z"/>
		</g>
		<g class="st5">
			<path d="M1514.5,3172.7l39.3,15.9c27.2,11,57.6-1.7,63.7-26.7l18.4-75c-12.7,11.9-33.5,15.9-52.7,8.1l-39.3-15.9l44.3-180.8
				l-6.3-0.6L1514.5,3172.7z"/>
			<path class="st1" d="M1574.1,3194.4c8.1,0,16.1-1.9,23.3-5.5c11.2-5.7,18.8-15.1,21.6-26.5l19.7-80.5l-4.2,3.9
				c-12.7,11.9-33.2,15-50.8,7.8l-38-15.4l44.4-181.3l-9.7-0.9l-0.3,1.4l-67.7,276.4l40.7,16.5
				C1559.8,3193,1566.9,3194.4,1574.1,3194.4z M1632.9,3091.5l-17.2,70c-2.6,10.4-9.6,19-19.9,24.3c-12.4,6.3-27.9,6.8-41.5,1.3
				l-37.9-15.4l66.7-272.1l2.9,0.3l-44.2,180.4l40.7,16.5C1599.7,3103.6,1619.3,3101.5,1632.9,3091.5z"/>
		</g>
		<path class="st1" d="M1579.4,3207.1c8.3,0,16.6-1.9,24-5.7c12-6.1,20.2-16.3,23.3-28.7l54.7-223.1c3-12.4,0.4-25.3-7.4-36.2
			c-9.3-12.8-23.7-21-39.5-22.3l-61.5-5.9l-72.2,294.4l57.3,23.2C1564.9,3205.7,1572.1,3207.1,1579.4,3207.1z M1604.3,3167.2
			c-1.4,5.8-5.4,10.6-11.3,13.6c-7.7,3.9-17.4,4.2-26.1,0.7l-38.7-15.7l62.6-255.6l41.6,4c9.3,0.9,17.8,5.6,22.8,12.7
			c3.8,5.4,5.2,11.6,3.8,17.3L1604.3,3167.2z"/>
		<path class="st1" d="M280.2,2989.5l20.4-0.7l-0.2-6.3c-5.1-150.5,28.3-299.8,97-433.7l-18.2-9.3
			c-70.3,137.1-104.4,289.8-99.2,443.8L280.2,2989.5z"/>
		<path class="st1" d="M1081.8,3232.5l8.4-129.6c7.5-115.2,32.9-228.5,75.4-335.8l41.7-105.3l-19-7.5l-41.7,105.3
			c-43.3,109.3-69.2,224.6-76.8,341.9l-8.4,129.6L1081.8,3232.5z"/>
		<path class="st1" d="M670.7,2974.6c69.9-0.1,126.5-56.8,126.4-126.7s-56.8-126.5-126.7-126.4c-69.9,0.1-126.5,56.8-126.4,126.7
			c0,28.5,9.7,56.1,27.3,78.4l0,0C595.3,2957,631.9,2974.7,670.7,2974.6z M670.4,2741.9c58.6-0.1,106.2,47.4,106.3,106.1
			c0.1,58.6-47.4,106.2-106.1,106.3c-32.5,0-63.2-14.8-83.3-40.2l0,0c-36.4-45.9-28.7-112.7,17.3-149.1
			C623.3,2750,646.5,2742,670.4,2741.9L670.4,2741.9z"/>
		<g class="st5">
			<path class="st11" d="M414.9,2556c68.6,44.5,256.3,6,305.2,36.6c17.8,11.1-22.4,48.8,6.3,151.3c19.8,70.6,111,132.6,170.3,117
				c100.9-26.5,28.2-150.4,193.7-159.8c92.3-5.2,125-15.7,136-23.9c-3.2-1.3-6.4-2.7-9.7-4c-90.6-37.3-192-70.1-300.4-95.7
				c-177-41.8-349.7-41.9-493.9-22.6C419.9,2555.3,417.4,2555.6,414.9,2556z"/>
			<path class="st1" d="M876.9,2865.1c6.8,0,13.6-0.8,20.2-2.5c44-11.6,55.5-40.9,67.6-72c15.8-40.6,32.2-82.5,125.8-87.8
				c74-4.2,121.4-12.6,136.9-24.3l2.4-1.8l-2.7-1.1c-3.2-1.3-6.5-2.7-9.7-4c-93.6-38.5-194.8-70.7-300.6-95.7
				c-198.6-46.9-378.5-38.2-494.5-22.6c-2.6,0.3-5.1,0.7-7.6,1l-4.5,0.6l3.8,2.5c37.9,24.6,112.4,24.1,178.2,23.7
				c54.2-0.3,105.3-0.7,127.1,12.9c5.6,3.5,4.4,10.2,1.2,25.2c-5,23.1-13.4,61.9,4.4,125.2C742.5,2808,817.9,2865.1,876.9,2865.1z
				 M1222.8,2677.6c-12.7,7.6-46.3,17-132.5,21.9c-95.8,5.4-112.6,48.4-128.8,89.9c-11.8,30.2-22.9,58.8-65.3,69.9
				c-59.1,15.5-148.7-46.2-168.2-115.9c-17.5-62.5-9.3-100.7-4.3-123.5c3.2-14.9,5.2-23.9-2.7-28.8c-22.6-14.1-74.2-13.8-128.9-13.4
				c-63,0.4-134,0.9-172.2-20.7l2.8-0.4c115.7-15.5,295.2-24.2,493.3,22.6c105.7,24.9,206.7,57.1,300.1,95.6
				C1218.3,2675.7,1220.5,2676.6,1222.8,2677.6z"/>
		</g>
		<path class="st12" d="M1258.1,2132.4l51.8,15.8l217.8-714.5c4.1-13.5-3.5-27.8-17-32c0,0,0,0,0,0l-2.8-0.8
			c-13.5-4.1-27.9,3.5-32,17c0,0,0,0,0,0L1258.1,2132.4z"/>
		<path class="st7" d="M1428.5,1727.6c0,0,21.8-6.4,52.6-7.6h0.1c36.1-1.4,84.4,4.3,124.1,36c0.1,0.1,0.1,0.1,0.2,0.1
			c10.9,8.8,20.6,18.9,28.8,30.3c0,0,0,0.1,0.1,0.1c0.8,1.1,1.6,2.2,2.4,3.3c9.3,13.6,19.4,26.6,30.2,39
			c54,61.8,100.7,74.8,113.8,77.3h0.1c2.3,0.4,3.5,0.6,3.5,0.6l20.4-47.4l4.7-10.9l90.8-211.5c-90.4-51.6-112.9-86-142.1-123.2
			c-6.8-8.6-13.9-17.4-22.3-26.6c-17.8-19.4-35.8-33.4-53.5-43.1c-55.8-30.7-108.2-19.5-139.7-6.8c-0.1,0-0.2,0.1-0.3,0.1
			c-0.4,0.2-0.8,0.3-1.2,0.5c0,0-0.1,0.1-0.1,0.1c-18,7.5-28.7,15.3-28.7,15.3L1428.5,1727.6z"/>
		<path class="st1" d="M1785.4,1908.5l25.5-59.4l91.4-212.9l-1.3-0.8c-83.2-47.4-108.3-79.9-134.9-114.2c-2.2-2.8-4.4-5.7-6.7-8.6
			c-6.6-8.3-13.8-17.3-22.4-26.7c-16.9-18.4-35-33-53.9-43.4c-55.4-30.5-107.3-20.6-141.1-6.8l-1.9,0.8
			c-17.9,7.4-28.4,15.1-28.9,15.4l-0.5,0.3l-84.7,277.9l3-0.9c0.2-0.1,22-6.3,52.2-7.5c34.1-1.4,83,3.7,123,35.6l0.5,0.3
			c10.6,8.6,20,18.5,28,29.6l0.4,0.5c0.6,0.9,1.4,2,2.2,3.1c9.4,13.6,19.5,26.7,30.4,39.1c54,61.7,101,75.1,114.5,77.8l0.7,0.1
			c2.1,0.4,3.4,0.6,3.4,0.6L1785.4,1908.5z M1898,1637.7l-114.8,267.2c-0.5-0.1-1.3-0.2-2.2-0.4c-13-2.6-59.3-15.5-112.9-76.8
			c-10.8-12.3-20.8-25.3-30.1-38.8c-0.7-1.1-1.5-2.1-2.3-3.2l-0.4-0.5c-8.3-11.4-18-21.6-28.9-30.4c-41-32.7-90.8-37.8-125.4-36.4
			c-16.9,0.6-33.7,2.9-50.1,6.9l82.6-270.9c8.7-5.8,18-10.7,27.6-14.7h0.4l0.3-0.3l0.5-0.2l0.8-0.4c33.1-13.4,84-23.1,138.2,6.7
			c18.6,10.2,36.4,24.6,53,42.7c8.5,9.3,15.7,18.2,22.3,26.5c2.2,2.9,4.4,5.7,6.6,8.5C1790.1,1557.8,1815.3,1590.3,1898,1637.7z"/>
		<path class="st7" d="M598.9,2303.1c61,23.8,158,85.5,160.3,99.5c1.7,10.7-8.1,46.4-24.8,65.4c-5.2,5.9-11.1,10.2-17.4,11.6
			c-26.8,5.7-82.2,31.9-84.3,41.6c0,0,191.9,13.9,210.7,24c-37.9,20.4-83.7,73.2-75.3,144.1c0.4,3.5,0.9,6.9,1.3,10.1
			c17.2,116.8,82.2,147.1,119.4,130.8c67.7-29.8,25.7-170.9,210.2-180.6c116.7-6.1,140-134,140.8-229.7c0.1-8.9,0-17.4-0.3-25.6
			c-0.7-25.7-2.8-47.4-4.5-61.4l0,0c-0.2-1.4-0.3-2.6-0.5-3.8c0-0.1,0-0.2-0.1-0.3c-0.9-4-1.9-8.1-3-12.1c-0.1-0.5-0.2-0.9-0.3-1.4
			l1.5,0.6c0,0,58.5-43.2,118.4-133.4c50.1-75.4,55.5-143.6,33-177.3c-23-34.3-75-32.8-138.3,33.4c-11.5,12-22.7,23.2-33.8,33.7
			c-128.8,122.4-226.1,145.4-226.1,145.4l3.6,1.4c-52.3,13.5-138.3,25-228.6-8.5c-43.3-16.1-72.7-30.8-95-43.2
			c-52.6-29.4-66.1-46.1-131-38.1c-20,2.4-31.3,10.9-35.9,22.8C482.3,2195.3,551.1,2284.5,598.9,2303.1z"/>
		<path class="st1" d="M868.8,2836.1c7.2,0,14.3-1.4,20.8-4.2c24.8-10.9,34.9-35.6,46.7-64.2c20.2-49,45.3-110,162.9-116.2
			c116-6.1,141.5-129.2,142.5-231.4c0.1-8.3,0-16.7-0.3-25.7c-0.7-26-2.9-47.8-4.5-61.6c-0.2-1.4-0.3-2.6-0.5-3.8l-0.2-0.7
			c-0.8-3.4-1.7-7.1-2.6-10.8l0.2-0.2c0.6-0.4,59.5-44.4,118.9-133.8c52.6-79.2,54.5-147.1,32.9-179.2c-9-13.5-22.2-21.3-38.1-22.7
			c-29.4-2.6-66,17.3-102.8,55.8c-10.8,11.3-22.1,22.6-33.7,33.6c-127,120.6-224.4,144.7-225.3,144.9l-5.2,1.2l3.7,1.5
			c-55.1,13.5-136.8,22-222.5-9.8c-46.7-17.3-76.5-32.9-94.8-43.1c-8.4-4.7-15.9-9.1-22.5-13c-36.2-21.4-54.4-32.1-109.6-25.3
			c-19.5,2.4-32,10.4-37.3,23.9c-17.8,45.4,53.5,134.8,100.7,153.2l0,0c60,23.5,157.1,85.3,159.2,98.2c1.7,10.3-8.3,45.7-24.4,64
			c-5.4,6.1-10.9,9.8-16.5,11c-25.8,5.5-83.2,31.6-85.6,43l-0.4,1.9l1.9,0.1c1.8,0.1,176.3,12.8,206.9,22.5
			c-41.2,23.8-80.9,78.1-73,144.1c0.4,3.5,0.9,6.9,1.3,10.2c12.5,84.9,48.3,116.3,68.4,127.4C846.2,2832.9,857.4,2836,868.8,2836.1z
			 M1229.1,2312.6l0.6,3.1c0.1,0.4,0.2,0.8,0.3,1.3c1.1,4.3,2.1,8.4,3,12.3l0.1,0.4c0.1,0.9,0.2,2.2,0.4,3.5
			c1.6,13.7,3.7,35.4,4.5,61.3c0.3,9,0.3,17.3,0.3,25.5c-0.9,100.7-25.8,222.1-139.2,228c-119.8,6.3-145.4,68.4-165.9,118.3
			c-11.5,27.9-21.4,52.1-44.9,62.4c-14.9,6.6-33.3,4.9-50.3-4.5c-19.6-10.9-54.4-41.5-66.7-124.9c-0.5-3.3-0.9-6.7-1.3-10.1
			c-7.9-66.1,33-120.2,74.4-142.5l2.8-1.5l-2.8-1.5c-17.9-9.7-185.2-22.3-208.9-24c7.6-9.9,56-32.9,82-38.5
			c6.3-1.4,12.5-5.4,18.4-12.1c17.2-19.6,26.9-56,25.2-66.8c-2.5-15.5-102-77.7-161.3-100.8l0,0c-45-17.6-115.6-105.8-98.7-148.8
			c4.8-12.2,16.4-19.5,34.5-21.8c54-6.6,71.9,3.9,107.4,24.9c6.6,3.9,14.2,8.4,22.6,13c18.4,10.3,48.3,25.9,95.3,43.4
			c89.2,33.1,174,22.9,229.6,8.6l5-1.3l-3.8-1.5c21.3-6.5,110.4-38.4,222-144.4c11.6-11.1,23-22.4,33.9-33.8
			c36.1-37.8,71.6-57.3,100-54.8c14.8,1.3,27.1,8.6,35.6,21.2c20.9,31.2,18.8,97.5-33,175.4c-55.2,83.4-110.1,127-117.1,132.4
			L1229.1,2312.6z"/>
		<g class="st5">
			<path class="st1" d="M666.1,2167.4c44.2,67.8,135.8,114.7,236.9,114.7c145.1,0,276.8-94.7,309.2-209.8
				c-128.8,122.4-226.1,145.4-226.1,145.4l3.6,1.4c-52.3,13.5-138.3,25-228.6-8.5C717.8,2194.6,688.4,2179.9,666.1,2167.4z"/>
		</g>
		<g class="st5">
			<path class="st1" d="M598.9,2303.1c61,23.8,158,85.5,160.3,99.5c1.7,10.7-8.1,46.4-24.8,65.4c22.4-13.4,43.2-35.4,43.2-71.4
				c0-78.1-79-68.9-184.5-137.4c-62.6-40.6-86.7-88.2-93.9-107.1C482.3,2195.3,551.1,2284.5,598.9,2303.1z"/>
		</g>
		<g class="st5">
			<path class="st1" d="M1207.3,2296.6c4.4,43.5,10.2,71.9,2.3,125.7c-2.6,17.5,7.4,11.7,30.3-2.2c0.1-8.9,0-17.4-0.3-25.6
				c-0.7-25.7-2.8-47.4-4.5-61.4l0,0c-0.2-1.4-0.3-2.6-0.5-3.8c0-0.1,0-0.2-0.1-0.3c-0.9-4-1.9-8.1-3-12.1c-0.1-0.5-0.2-0.9-0.3-1.4
				l1.5,0.6c0,0,58.6-43.2,118.5-133.4c50.1-75.4,55.5-143.6,33-177.3c0.4,22.6-3.5,63.9-30,112.9
				C1307.3,2204.8,1202.9,2253.2,1207.3,2296.6z"/>
		</g>
		<g class="st5">
			<path class="st1" d="M805.5,2551.4c0,0,55.1-4.7,109.8-6.8S1022,2551,1022,2510c0-8,0.1-18.9,0.2-31.7c0-2.5,2.1-4.5,4.6-4.5
				c0.2,0,0.5,0,0.7,0.1c60.7,10.1,137.9,4,174.6,0c2.5-0.3,4.7,1.5,5,4c0.1,0.9-0.1,1.8-0.5,2.6c-25.8,47.8-71,90.5-149.8,88
				c-175.7-5.6-138.9,94.7-191,133.4c-35.6,26.4-68.2,22.1-100.1-2.4c17.2,116.8,82.2,147.1,119.4,130.8
				c67.7-29.8,25.7-170.9,210.2-180.6c110.7-5.8,137.3-121,140.5-214.5l-9.7-1.5l-53-8.2l-129.6-8.2c0,0-9.2,2.9-20.4,7.6
				c0.6-37.5,1.4-76.6,1.8-99.6c0.2-11-8.5-20-19.5-20.2c-0.1,0-0.3,0-0.4,0h-89.4l-125.5,186c0,0-141.4,43.4-123.8,50.2
				C678.7,2546,805.5,2551.4,805.5,2551.4z"/>
		</g>
		<g class="st5">
			<path class="st11" d="M1229.9,2433.7l9.7,1.5c0.5-14.2,0.4-28,0.1-40.8C1237.2,2407.7,1234,2420.8,1229.9,2433.7z"/>
			<path class="st1" d="M1241.3,2437.2l0.1-1.9c0.4-13,0.5-26.8,0.1-40.9l-0.4-15.7l-2.9,15.5c-2.5,13.2-5.7,26.2-9.7,39.1l-0.6,1.9
				L1241.3,2437.2z M1238.3,2409.5c0,8.1,0,16.1-0.3,23.7l-5.9-0.9C1234.4,2424.9,1236.5,2417.3,1238.3,2409.5z"/>
		</g>
		<g class="st5">
			<path class="st11" d="M1239.6,2436.4l0.4-1.1l-0.4-0.1C1239.7,2435.6,1239.6,2436,1239.6,2436.4z"/>
			<polygon class="st1" points="1237.9,2446.4 1242.3,2433.9 1238.3,2433.2 1237.9,2436.4 			"/>
		</g>
		<path class="st1" d="M621.5,2546c4.1,0,7.8-2.1,9.9-5.6c17.5-29.1,94.8-52.8,123.1-59.4c6.2-1.3,10.2-7.5,8.9-13.7
			s-7.5-10.2-13.7-8.9c-0.2,0-0.3,0.1-0.5,0.1c-11.4,2.7-112,27.4-137.6,70c-3.3,5.5-1.5,12.6,3.9,15.9
			C617.3,2545.4,619.4,2545.9,621.5,2546L621.5,2546z"/>
		<path class="st7" d="M1234.8,2329.1c0.1,1.2,0.3,2.5,0.5,3.8C1235.2,2331.7,1235,2330.4,1234.8,2329.1z"/>
		<path class="st1" d="M1233.5,2333.2l3.4-0.3c-0.1-1.4-0.2-2.7-0.5-4.1l-3.4,0.5C1233.2,2330.5,1233.3,2331.8,1233.5,2333.2z"/>
		<path class="st7" d="M962.9,2223.4c-6.8,1.4-13.7,2.6-20.6,3.7c-54.7,8-110.5,3.5-163.2-13.3c-6.2-2-12.3-4.1-18.4-6.4
			c-70.7-26.5-131.4-74.5-173.6-137.2c-60.1-89.1-80.3-203.8-45.3-314.2c23.3-73.8,69.6-138.2,132.1-183.9c6.7-4.9,13.6-9.6,20.6-14
			c44.5-28.1,94.4-46.3,146.6-53.3c11.3-1.5,22.8-2.5,34.3-2.9c4.3-0.2,8.6-0.3,12.9-0.3c37.8-0.1,75.3,5.7,111.3,17.2
			c191.9,60.9,298.2,265.8,237.3,457.8C1195.5,2106.7,1087.9,2197.5,962.9,2223.4z"/>
		<path class="st1" d="M889.6,2232.6c17.7,0,35.4-1.3,52.9-3.9c6.7-1,13.7-2.2,20.7-3.7l0,0c198.2-40.8,325.7-234.6,284.9-432.7
			c-26.8-129.9-121.6-235.2-248-275.3c-36.1-11.6-73.9-17.4-111.8-17.2c-4.3,0-8.7,0.1-13,0.3c-11.5,0.4-23.1,1.4-34.5,3
			c-52.4,7.1-102.6,25.3-147.2,53.6c-7.1,4.5-14.1,9.2-20.7,14.1c-62.9,45.8-109.4,110.6-132.7,184.8
			c-34,107.2-17.4,222.3,45.5,315.7c42.4,63,103.3,111.1,174.4,137.8c5.7,2.2,11.7,4.3,18.4,6.4c34.2,10.9,69.9,16.7,105.8,17.2
			C886.1,2232.6,887.9,2232.6,889.6,2232.6z M962.6,2221.7c-7,1.4-13.9,2.6-20.5,3.6c-54.4,8-110,3.4-162.4-13.3
			c-6.7-2.1-12.7-4.2-18.3-6.4c-12.2-4.6-24.1-9.8-35.8-15.7c-55.2-27.9-102.4-69.5-137-120.9c-62.4-92.6-78.8-206.6-45.1-312.8
			c23.1-73.5,69.2-137.7,131.5-183.1c6.6-4.8,13.5-9.5,20.5-13.9c44.2-27.9,94-46,145.9-53.1c11.3-1.5,22.8-2.5,34.2-2.9
			c4.3-0.2,8.5-0.2,12.8-0.3c37.6,0,74.9,5.7,110.8,17.1c191,60.8,296.7,264.9,235.9,455.9
			C1195.3,2101.3,1091.1,2195.2,962.6,2221.7L962.6,2221.7z"/>
		<g class="st5">
			<path class="st11" d="M926.5,2229c-6.9,0.7-13.9,1.2-20.9,1.6c-19.4,0.9-38.8,0.2-58-2.1c-34.7-4-74-11.2-107.7-25.8
				c-6-2.6-11.9-5.3-17.6-8.2c-11.7-5.8-23.1-12.2-34.1-19.3c-53.6-34.2-91.3-82.8-120.1-136.5c-50.8-94.7-59.4-210.9-13.4-317.2
				c20.8-48.2,51.8-91.4,90.8-126.5c-19.7,153.9,60.4,303.4,199.4,372.3c5.8,2.9,11.6,5.6,17.6,8.2c50.7,22,105.8,32.2,161,29.7
				c7-0.3,14-0.8,20.9-1.6c76.8-8,149.2-40,206.7-91.6c-4.3,34.1-13.5,67.3-27.1,98.8C1169.8,2136.4,1053.5,2215.8,926.5,2229z"/>
			<path class="st1" d="M889.4,2232.6c5.4,0,10.9-0.1,16.3-0.4c6.8-0.3,13.8-0.9,21-1.6l0,0c169.4-17.5,304.5-149.4,326.2-318.3
				l0.6-4.5l-3.4,3.1c-57.3,51.2-129.3,83.1-205.8,91.2c-7.1,0.7-14.1,1.2-20.8,1.6c-55,2.4-109.8-7.7-160.2-29.6
				c-6.4-2.8-12.2-5.5-17.5-8.2c-67.4-33.4-122.7-86.9-158.2-153.2c-35.8-66.4-50-142.4-40.4-217.3l0.6-4.5l-3.4,3
				c-39.3,35.2-70.4,78.5-91.2,127c-44.7,103.2-39.8,219.4,13.5,318.7c33,61.6,72.5,106.4,120.7,137.2c11.1,7.1,22.5,13.6,34.3,19.4
				c5.5,2.8,11.3,5.4,17.7,8.2c28.5,12.4,63.9,20.8,108.2,25.9C861.4,2231.8,875.4,2232.6,889.4,2232.6z M926.4,2227.3
				c-7.1,0.7-14.1,1.2-20.8,1.6c-19.2,0.9-38.5,0.2-57.7-2c-43.9-5.1-79-13.5-107.2-25.7c-6.4-2.8-12.1-5.4-17.5-8.2
				c-11.7-5.8-23-12.2-34-19.2c-47.7-30.4-86.8-74.9-119.5-135.9c-52.7-98.4-57.6-213.4-13.3-315.7c20-46.6,49.7-88.4,87-122.7
				c-15.8,138.9,48.9,274.7,166.6,350.1c11.1,7.1,22.5,13.5,34.3,19.4c5.4,2.7,11.2,5.4,17.7,8.2c51,22.1,106.3,32.3,161.8,29.8
				c6.8-0.3,13.8-0.8,21-1.6c75.6-8,146.9-39.1,204.3-89C1225.6,2081.9,1092.5,2210.1,926.4,2227.3L926.4,2227.3z"/>
		</g>
		<g class="st5">
			<path class="st11" d="M621.5,2112.9c87.6,86.7,102,77.4,126.2,82.4c19.9,4.1,88,12.2,141.7,0.9c60.2-12.6,152.6-65.1,188.1-147.2
				c5.5-12.8,10.3-25.9,14.4-39.2l-34.3-6.7c-5.2,13.3-11.5,26.2-18.8,38.5c-66.8,112.9-179.5,129.2-270.1,117.2
				C687,2148,623.5,2114,621.5,2112.9z"/>
			<path class="st1" d="M826.2,2203.6c20.8,0,43-1.5,63.5-5.8c66.7-13.9,155.8-70.6,189.3-148.2c5.6-12.9,10.4-26,14.5-39.4l0.6-1.8
				l-37.6-7.3l-0.5,1.3c-5.2,13.2-11.4,26-18.7,38.2c-68.9,116.4-184,127.6-268.4,116.4c-80.8-10.7-143.9-44.3-146.6-45.7l-10.4-5.6
				l8.4,8.3c76.6,75.8,97.7,78.6,118,81.4c3,0.4,5.9,0.8,9,1.4C757.3,2199,789.5,2203.6,826.2,2203.6z M1089.7,2011.1
				c-3.9,12.7-8.5,25.1-13.8,37.2c-33.1,76.5-121,132.4-186.9,146.2c-56.3,11.7-125.5,2.2-141-0.9c-3.2-0.7-6.3-1.1-9.2-1.5
				c-19.1-2.6-38.8-5.3-108.3-72.9c21.1,10.1,74.1,32.8,138,41.2c85.4,11.3,201.9,0,271.8-118c7.1-12,13.2-24.5,18.4-37.4
				L1089.7,2011.1z"/>
		</g>
		<path class="st1" d="M757,2262.9c-3.2,15.2-5.6,30.6-7.2,46.1c-0.9,7.7-1.6,15.4-2.3,23.1s-1.3,15.4-1.8,23.3
			c-0.2,6.4,4.8,11.8,11.2,12c6.2,0.2,11.4-4.5,12-10.6c0-0.6,0-1.2,0-1.8v-0.1c-0.8-7.4-1.4-15.1-1.9-22.6s-1-15.2-1.4-22.8
			c-0.8-15.1-0.9-30.3-0.2-45.4v-0.1c0.1-2.3-1.7-4.3-4-4.4C759.3,2259.5,757.5,2260.9,757,2262.9L757,2262.9z"/>
		<path class="st1" d="M733.1,2381.7c6.4,0,11.6-5.2,11.6-11.6c0-5.2-3.5-9.8-8.6-11.2c-0.6-0.2-61.9-17.1-138.2-70.5
			c-68.6-48-93-105.8-76.9-133.9c13.5-23.6,54.1-23.5,106,0.2c117,53.4,187.2,47.8,190.2,47.5c6.3-1,10.6-6.9,9.7-13.2
			c-0.9-5.7-5.9-9.9-11.7-9.8c-0.9,0.1-68,4.9-178.5-45.5c-64.8-29.5-115.5-26-135.7,9.4c-21.5,37.5,0.4,106.1,83.7,164.4
			c79.8,55.9,142.8,73.2,145.4,73.9C731,2381.6,732,2381.7,733.1,2381.7z"/>
		<path class="st12" d="M1280.5,2136l4.4,1.4c13.1,4,26.9-3.4,30.9-16.5l49.8-163.4c-4.5,14.2-19.7,22.1-34,17.6
			c-14-4.4-21.9-19.2-17.8-33.3l-49.8,163.2C1260.1,2118.1,1267.4,2131.9,1280.5,2136C1280.5,2136,1280.5,2136,1280.5,2136z"/>
		<path class="st1" d="M889.4,2242.8c5.6,0,11.2-0.1,16.7-0.4c7-0.3,14.2-0.9,21.6-1.6l0,0c206.9-21.4,357.3-206.4,335.9-413.3
			c-18.4-177.9-159.4-318.4-337.4-336.1c-4.1-0.4-8.5-0.8-13.3-1.1c-11.8-0.8-23.8-0.9-35.6-0.6c-54.3,1.8-107.5,15.3-156.1,39.5
			c-7.7,3.8-15.3,8-22.6,12.2c-69,40.3-123.3,101.7-154.9,175.2c-45.9,106.1-40.9,225.5,13.8,327.5
			c30.3,56.6,74.7,104.5,128.8,139.1c11.4,7.3,23.2,13.9,35.2,19.9c5.5,2.8,11.5,5.6,18.2,8.5C787,2232.2,838,2242.8,889.4,2242.8
			L889.4,2242.8z M925.3,2217.1c-6.9,0.7-13.7,1.2-20.2,1.5c-53.4,2.4-106.7-7.5-155.7-28.8c-6.2-2.7-11.8-5.3-17-7.9
			c-65.5-32.4-119.2-84.5-153.7-149c-51.2-95.6-56-207.4-13-306.8c29.6-68.8,80.4-126.4,145.1-164.2c6.8-4,13.9-7.8,21.2-11.5
			c45.5-22.7,95.4-35.3,146.2-37c11-0.4,22.2-0.2,33.3,0.5c4.2,0.3,8.3,0.6,12.4,1c193.9,19.2,335.5,191.9,316.4,385.8
			C1223.8,2067.7,1092.1,2199.9,925.3,2217.1L925.3,2217.1z"/>
		<path class="st11" d="M927.2,2180.8l-181.6,20.4l-0.9-0.4c-6-2.6-11.9-5.3-17.6-8.2c-67.7-33.5-123.2-87.4-158.9-154
			c-50.8-94.7-59.4-210.9-13.4-317.2c24.6-57,63.3-106.8,112.6-144.5c17-3.3,34.3-5.2,51.6-5.7c10.6-0.3,21.2-0.2,31.8,0.5
			c4,0.2,7.9,0.6,11.9,1c34.7,3.4,68.7,12.2,100.7,26.1c170.7,73.8,249.3,272.1,175.4,442.8
			C1014.8,2097.2,976.2,2145.3,927.2,2180.8z"/>
		<path class="st1" d="M745.3,2202.9l182.5-20.5l0.4-0.3c151.4-109.8,185.1-321.6,75.3-473c-56.8-78.3-144.4-128.6-240.6-138.2
			c-4-0.4-8-0.7-11.9-1c-10.8-0.7-21.5-0.8-32-0.5c-17.4,0.6-34.8,2.5-51.9,5.8l-0.7,0.3c-49.4,38-88.4,88-113.1,145.2
			c-44.7,103.2-39.8,219.4,13.5,318.7c29.5,55.1,72.7,101.7,125.3,135.3c11.1,7.1,22.5,13.5,34.3,19.4c5.4,2.7,11.2,5.4,17.7,8.2
			L745.3,2202.9z M926.5,2179.1l-180.7,20.3l-0.5-0.2c-6.4-2.8-12.2-5.5-17.5-8.2c-11.7-5.8-23-12.2-34-19.2
			c-52.2-33.3-94.9-79.5-124.2-134.1c-52.7-98.4-57.6-213.4-13.3-315.7c24.5-56.6,62.9-106,111.8-143.6c16.8-3.2,33.8-5.1,50.9-5.6
			c10.4-0.3,21-0.2,31.7,0.5c3.9,0.2,7.9,0.6,11.8,1c184.2,18.2,318.8,182.3,300.6,366.6C1053.6,2036.2,1003.9,2122.9,926.5,2179.1
			L926.5,2179.1z"/>
		<g class="st6">
			<path class="st7" d="M770.1,1612.2c2.8-2.7-7.7-1.3-11.5-1.9c-3.3-0.5-6.6-0.9-9.8-1.2c-8.8-0.9-17.6-1.4-26.5-1.6
				c-14.4-0.2-28.8,0.8-43.1,2.9c-42.3,29.6-76.4,69.6-98.9,116.1c-42.1,86.7-37.4,160.4-1.9,237.4c0,0,0.5-50.2,38.4-142.2
				C638,1770.4,667.8,1708.8,770.1,1612.2z"/>
		</g>
		<g class="st5">
			<path class="st13" d="M916.1,2186.5L916.1,2186.5c-32,3.7-64.3,3.1-96.1-1.7c-6.4-1-12.8-2.1-19.1-3.4
				c-133.9-27.5-241.2-127.5-278-259.2c79.2,89.7,190.4,136.8,303,137.5c69.7,0.6,138.3-16.8,199.3-50.4
				c10.6-5.9,21.1-12.2,31.3-19.2C1035.6,2070.7,985.6,2140.7,916.1,2186.5z"/>
		</g>
		<path class="st1" d="M762.8,2216.4c10,0,18.6-2.9,26.6-5.6c9.6-3.2,17.8-6.1,29-4.4l17.3,2.5l-3.1-11.9l3.5,3.6l6.8-0.1l1.7-0.6
			c79.7-26.9,162.1-54.7,204.9-153.7c76.3-176.8-5.2-381.9-181.9-458.2c-33-14.2-67.9-23.3-103.7-26.8c-3.5-0.4-7.3-0.7-12.3-1
			c-11.1-0.7-22.2-0.9-33-0.5c-17.9,0.6-35.8,2.6-53.4,6l-2.7,0.5l-2.2,1.7c-50.8,39-90.8,90.3-116.2,149.1
			c-45.9,106-40.8,225.3,13.8,327.3c36.8,68.7,94.1,124.2,163.9,158.8c5.5,2.8,11.5,5.6,18.1,8.4
			C747.2,2214.7,754.9,2216.3,762.8,2216.4z M806.3,2183c-9.4,0.8-17.2,3.5-24.5,5.9c-11.6,3.9-20,6.8-32.7,1.3
			c-6.2-2.7-11.8-5.3-17-7.9c-65.6-32.5-119.3-84.6-153.9-149.1c-51.3-95.7-56-207.6-13-307.1c23.5-54.3,60.2-101.8,106.8-138.3
			c15.6-2.8,31.3-4.5,47.1-5c10.1-0.3,20.4-0.2,30.7,0.5c3.8,0.2,7.6,0.5,11.3,0.9c178.8,17.6,309.5,176.8,291.9,355.6
			c-3.3,33.5-11.8,66.3-25.1,97.2c-35.2,81.3-96,108.6-184.5,138.7c-12-10.7-21.4-13.6-29.2-9.1
			C808.1,2170.2,806.3,2176.6,806.3,2183z"/>
		<path class="st7" d="M1231.7,2316.7c1.1,4.1,2.1,8.2,3,12.1c-1-8.2-1.8-12.9-1.8-12.9L1231.7,2316.7z"/>
		<path class="st1" d="M1233,2329.2l3.3-0.6c-1-8.3-1.8-13-1.8-13l-0.4-2.6l-4.4,2.9l0.3,1.2
			C1231.1,2321.2,1232.1,2325.3,1233,2329.2z"/>
		<path class="st7" d="M772.8,2495l168.2,15c3.5,0.3,6.6-2,6.6-4.9v-194.7c0-2.9-3.1-5.2-6.6-4.9l-168.2,15
			c-22.1,2-38.8,17.4-38.8,35.7v103.1C734,2477.6,750.7,2493,772.8,2495z"/>
		<path class="st7" d="M944.8,2306.3l2.8,26.2v-22.1C947.5,2308.6,946.5,2307,944.8,2306.3z"/>
		<path class="st1" d="M945.9,2332.7l3.4-0.2v-22.1c0-2.4-1.5-4.6-3.7-5.7l-2.8-1.5L945.9,2332.7z"/>
		<g class="st5">
			<path class="st11" d="M734,2359.6v103.1c0,18.4,16.7,33.8,38.8,35.7l168.2,15c3.5,0.3,6.6-2,6.6-4.9v-75.7l-165.4,2.6
				c-22.2,0.3-40.4-13.3-42.3-31.5l-5.3-50.5C734.2,2355.4,733.9,2357.5,734,2359.6z"/>
			<path class="st1" d="M941.6,2515.1c2.1,0,4-0.7,5.6-2.1c1.3-1.1,2.1-2.8,2.1-4.5V2431l-167.1,2.6h-0.8c-21,0-38-12.8-39.8-30
				l-6.4-60.8l-2.3,10.1c-0.5,2.2-0.7,4.4-0.7,6.7v103.1c0,19.3,17.4,35.4,40.4,37.4l168.2,15
				C941.1,2515.1,941.4,2515.1,941.6,2515.1z M945.9,2434.5v74c0,0.8-0.4,1.5-1,2c-1,0.9-2.4,1.3-3.8,1.2l-168.2-15
				c-21.3-1.9-37.3-16.5-37.3-34v-83.2l2.6,24.5c2,19.2,20.8,33.3,44,33L945.9,2434.5z"/>
		</g>
		<path class="st7" d="M947.6,2332.5v96.8l3.5-0.1c3.6-0.1,6.4-2.6,6-5.5L947.6,2332.5z"/>
		<path class="st1" d="M945.9,2431.1l5.2-0.1c2.3,0,4.6-1,6.1-2.7c1.2-1.3,1.7-3,1.6-4.7l-9.5-91.2l-3.4,0.2L945.9,2431.1z
			 M949.3,2365.2l6.1,58.8c0.1,0.8-0.2,1.5-0.8,2.1c-0.9,1-2.3,1.6-3.6,1.6h-1.8V2365.2z"/>
		<path class="st1" d="M941.7,2521.6c4.5,0,8.9-1.6,12.2-4.7c3.3-3,5.3-7.3,5.3-11.8v-194.7c0-4.5-2-8.8-5.3-11.8
			c-3.8-3.4-8.8-5.1-13.9-4.6l-168.2,15c-28.1,2.5-49.4,22.8-49.4,47.3v103.1c0,24.4,21.2,44.8,49.4,47.3l0,0l168.2,15
			C940.5,2521.5,941.1,2521.6,941.7,2521.6z M936,2317.6v180.3l-162.2-14.4c-15.9-1.4-28.3-12.1-28.3-24.2v-103.1
			c0-12.2,12.4-22.8,28.3-24.2L936,2317.6z M772.8,2495L772.8,2495z"/>
		<path class="st7" d="M986.8,2304.9h-35.6c-2,0-3.6,1.6-3.6,3.6v198.3c0,2,1.6,3.6,3.6,3.6h35.6c9.2,0,16.6-7.4,16.6-16.6v-172.4
			C1003.4,2312.4,996,2304.9,986.8,2304.9L986.8,2304.9z"/>
		<path class="st1" d="M951.2,2512.2h35.6c10.1,0,18.3-8.2,18.3-18.3v-172.3c0-10.1-8.2-18.3-18.3-18.3h-35.6
			c-2.9,0-5.3,2.4-5.3,5.3v198.4C945.9,2509.9,948.3,2512.2,951.2,2512.2z M986.8,2306.6c8.2,0,14.9,6.7,14.9,14.9v172.4
			c0,8.2-6.7,14.9-14.9,14.9h-35.6c-1.1,0-1.9-0.9-1.9-1.9v-198.3c0-1.1,0.9-1.9,1.9-1.9L986.8,2306.6z"/>
		<g class="st5">
			<path class="st11" d="M947.6,2430v76.7c0,2.1,1.7,3.8,3.8,3.9c0,0,0,0,0,0h34.4c9.7,0,17.6-7.9,17.6-17.6l0,0v-76.7
				c0,9.7-7.8,17.6-17.5,17.6c0,0,0,0,0,0h-34.4C949.3,2433.9,947.6,2432.1,947.6,2430L947.6,2430z"/>
			<path class="st1" d="M951.4,2512.2h34.4c10.6,0,19.3-8.6,19.3-19.3v-76.7h-3.4c0,8.8-7.1,15.9-15.9,15.9h-34.4
				c-1.2,0-2.2-1-2.2-2.1h-3.4v76.7C945.9,2509.8,948.4,2512.2,951.4,2512.2z M1001.7,2427.2v65.8c0,8.8-7.1,15.9-15.9,15.9h-34.4
				c-1.2,0-2.1-0.9-2.2-2.1c0,0,0,0,0,0v-71.6c0.7,0.3,1.4,0.4,2.2,0.4h34.4C992.2,2435.6,998.1,2432.5,1001.7,2427.2L1001.7,2427.2
				z"/>
		</g>
		<path class="st1" d="M951.2,2522.1h35.6c15.6,0,28.2-12.6,28.2-28.2v-172.4c0-15.6-12.6-28.2-28.2-28.2h-35.6
			c-8.4,0-15.2,6.8-15.2,15.2v198.4C936,2515.3,942.8,2522.1,951.2,2522.1z M986.8,2316.5c2.8,0,5.1,2.3,5.1,5.1v172.4
			c0,2.8-2.3,5.1-5.1,5.1h-27.6v-182.5L986.8,2316.5z"/>
		<path class="st7" d="M1196.4,2597.3l22.1-0.6c78.3-2.1,137.2-72,126.2-149.5l-28.6-216.2l-8.1,24.7v-0.8c0,0-76,60.3-74.8,71.3
			c1,9.1,8.7,93.4,4.5,144.8L1196.4,2597.3z"/>
		<path class="st1" d="M1194,2599.1l24.5-0.6c73.3-2,131.1-63.1,129.1-136.4c-0.1-5-0.6-10-1.3-15l-29.6-223.7l-9.9,30.1
			c-12.8,10.2-76.7,61.4-75.4,72.8c0.1,0.8,8.9,89.9,4.5,144.5L1194,2599.1z M1315.4,2238.6l27.6,208.9
			c10.1,70.8-39.2,136.3-109.9,146.3c-4.9,0.7-9.8,1.1-14.7,1.2l-19.7,0.5l40.6-124.1c4.5-55.2-4.4-144.7-4.5-145.5
			c-0.7-6.4,35.8-39.2,71.6-67.7l0.3,7L1315.4,2238.6z"/>
		<g class="st5">
			<path class="st1" d="M1196.4,2597.3l22.1-0.6c78.3-2.1,137.2-72,126.2-149.5l-0.1-0.8l-28.5-215.4l-8.1,24.7v-0.8
				c0,0-76,60.3-74.8,71.3c1,9.1,8.7,93.4,4.5,144.8l-10.6,32.3L1196.4,2597.3z"/>
		</g>
		<path class="st7" d="M1227.2,2503.2c50.9-6.4,93.3-27.2,117.5-56.8l-28.5-215.4l-8.1,24.7v-0.8c0,0-76,60.3-74.8,71.3
			c1,9.1,8.7,93.4,4.5,144.8L1227.2,2503.2z"/>
		<path class="st1" d="M1196.4,2608.9h0.3l22.1-0.6c78.8-2.1,140.9-67.7,138.7-146.5c-0.1-5.4-0.6-10.8-1.4-16.2l-28.6-216.2
			c-0.7-6.4-6.4-10.9-12.8-10.2s-10.9,6.4-10.2,12.8c0,0.2,0,0.3,0.1,0.5l28.6,216.3c9.4,65.3-36,125.9-101.4,135.2
			c-4.5,0.6-9.1,1-13.7,1.2l-22.1,0.6c-6.4,0.3-11.4,5.6-11.1,12C1185.2,2603.9,1190.2,2608.8,1196.4,2608.9L1196.4,2608.9z"/>
		<path class="st1" d="M595.2,2310.9c2.3,0,4.5-0.8,6.3-2.2c48.9-38.2,64.5-147.8,65.2-152.5c0.6-5.6-3.4-10.7-9-11.3
			c-5.4-0.6-10.3,3.1-11.2,8.5c-0.1,1.1-15.1,106.1-57.5,139.2c-4.4,3.5-5.2,9.9-1.8,14.3C589.1,2309.4,592.1,2310.9,595.2,2310.9
			L595.2,2310.9z"/>
		<path class="st7" d="M982.3,2396.7l-3.8,37.2c0,0,53.6,5.3,54.3,3.5s5.6-37.8,4.6-37.8S982.3,2396.7,982.3,2396.7z"/>
		<path class="st1" d="M1028.1,2439.4c5.7,0,6-0.7,6.2-1.4c0.1-0.3,6.1-36.9,4.4-39.4l-0.5-0.8h-1c-1.2,0-36.4-1.9-54.9-2.9
			l-1.6-0.1l-4.2,40.5l1.7,0.2C1007.7,2438.5,1021.5,2439.4,1028.1,2439.4z M1031.4,2436c-5.2,0.4-32.8-1.9-51-3.7l3.5-33.9
			c9,0.5,44.1,2.4,51.9,2.7C1035.5,2407.1,1032.4,2431,1031.4,2436L1031.4,2436z"/>
		<path class="st7" d="M1253.3,2395h-31.5v44c0,0,32.3-3.1,32.3-3.6S1253.3,2395,1253.3,2395z"/>
		<path class="st1" d="M1220,2440.9l1.9-0.2c33.9-3.3,33.9-3.3,33.9-5.3c0-0.5-0.7-36.4-0.8-40.4v-1.7h-34.9L1220,2440.9z
			 M1252.4,2434c-4.3,0.6-18.7,2.1-28.9,3.1v-40.4h28.2C1251.8,2403.4,1252.3,2427.9,1252.4,2434L1252.4,2434z"/>
		<path class="st1" d="M1332.4,2220c5.6,0,10.2-4.6,10.2-10.2c0-4.5-2.9-8.4-7.1-9.7l0,0c-0.9-0.3-91.2-29.9-122.2-123.9
			c-1.8-5.3-7.6-8.2-13-6.4c-5.3,1.8-8.1,7.5-6.4,12.8c34.4,104.2,131.4,135.7,135.5,137C1330.3,2219.8,1331.3,2220,1332.4,2220z"/>
		<path class="st1" d="M1287.2,2156.7c13.6,0,25.7-8.9,29.7-22l214.1-702.5c5-16.4-4.2-33.7-20.6-38.7l-2.1-0.6
			c-16.4-5-33.7,4.2-38.7,20.6l-214.1,702.5c-5,16.4,4.2,33.7,20.6,38.7l0,0l2.1,0.6C1281.1,2156.3,1284.2,2156.7,1287.2,2156.7z
			 M1279.6,2143.4L1279.6,2143.4z M1499.3,1415.4c0.7,0,1.4,0.1,2.1,0.3l2.1,0.6c3.8,1.2,5.9,5.2,4.8,8.9c0,0,0,0,0,0l-214.1,702.5
			c-1.2,3.8-5.2,5.9-8.9,4.8l-2.1-0.6c-3.8-1.2-5.9-5.2-4.8-8.9l214.1-702.5C1493.4,1417.5,1496.1,1415.4,1499.3,1415.4z"/>
		<path class="st1" d="M1585.5,1558.3c0.3-7,0.4-14.1,2.8-20.9c0.7-0.7,1.4-1.4,2.1-2c2.1-0.4,4.2-1.1,6.3-1.3
			c15.1-1.7,30.3-0.7,45.1,2.7c19.4,4.7,36.5,13.4,50.1,28.2c4.9,5.3,9.3,11.2,13.8,16.9c1.2,1.6,2.2,2.3,4.3,1.7
			c5-1.3,10.1-1.7,15.2-1.1c13.7,1.4,25.2,7.7,35.5,16.5c11.1,9.6,19.4,21.4,27,33.9c3.2,5.3,0.9,10.3-5.2,11.4l-11.6,1.9l-27.7,4.6
			c0,0.2-0.1,0.4,0,0.6c0,0.2,0.1,0.4,0.2,0.6c3,5.3,1.4,9.5-3.1,13c-0.5,0.4-0.9,0.9-1.4,1.3c-2.4,2.4-4.9,4.7-7.5,7.2
			c2.6,2.7,5.2,5.1,7.4,7.8c1.2,1.4,1.9,3.2,2.2,5c0.3,2.8-1.4,5.5-4,6.5c-2.6,1.2-5.6,0.7-7.6-1.4c-2.7-2.6-5.3-5.4-8-8.2
			c-3.5,3.4-6.8,6.6-10.1,9.8c-3.8,3.6-6.1,4-10.8,1.9c-0.8-0.4-1.7-0.8-2.7-1.2c-0.2,1-0.4,1.9-0.6,2.7c-2.6,12.6-5,25.3-7.7,37.9
			c-1.2,6-6.4,8.1-11.5,4.7c-4.6-3.1-9.1-6.2-13.5-9.6c-10.2-7.7-19.2-16.6-25.8-27.7c-8.2-13.9-11.7-28.6-6.6-44.5
			c0.1-0.8-0.1-1.6-0.7-2.2c-4.5-3.9-9.1-7.7-13.6-11.6c-10-8.9-17.8-19.9-23-32.2C1587.5,1594.3,1584.8,1576.6,1585.5,1558.3z
			 M1737.7,1637.6l33.2-5.5c-9.4-13.6-19.7-25.8-35.1-32.6c-6.6-2.9-14.6-4-19.6-2.8C1723.3,1610.3,1730.4,1623.8,1737.7,1637.6
			L1737.7,1637.6z M1644.1,1677.1c1.3,8.7,5.3,16.1,10.5,23.1c6.5,8.5,14.4,15.3,23.2,21.8c2.3-11.6,4.6-23,6.9-34.1l-40.2-23
			C1643.4,1668.9,1643.3,1673.1,1644.1,1677.1L1644.1,1677.1z M1602.6,1590.7c3,11.7,7.6,22.5,15,32.1c5.8,7.2,12.5,13.7,19.9,19.3
			c19.8,15.5,41.8,27.5,64.5,38.2c0.9,0.6,2.1,0.5,2.8-0.4c2-2.1,4.2-4.1,6.3-6.2c0.2-0.2,0.3-0.5,0.4-0.7c-0.5-0.6-1.1-1.2-1.7-1.8
			c-12-12.5-24.1-24.9-36.1-37.4c-3.5-3.6-2.9-8.7,1.2-11.1c2.8-1.7,6.2-1.2,8.8,1.5c7.2,7.5,14.4,14.9,21.6,22.4
			c5.4,5.6,10.7,11.1,16.3,16.9c2.6-2.5,5.1-4.8,7.4-7.2c0.3-0.8,0.3-1.6-0.1-2.4c-5.6-11.9-11.1-23.8-17.1-35.6
			c-5.9-11.6-12.8-22.7-20.8-33c-7.5-9.8-15.8-18.6-26.6-24.8c-6.9-4-14.2-7-21.9-9c-0.9-0.1-1.8,0.3-2.4,0.9
			c-9.5,9.1-18.9,18.2-28.3,27.3c-2.8,2.7-5.6,5.5-8.5,8.2C1602.6,1588.6,1602.3,1589.7,1602.6,1590.7L1602.6,1590.7z
			 M1600.1,1575.6c9.4-9.1,18.6-17.9,27.8-26.8c0-0.2,0-0.5,0-0.8c-9.1-0.3-18.2-0.5-27.4-0.8
			C1599.2,1556.6,1599.1,1566.2,1600.1,1575.6L1600.1,1575.6z"/>
		<path class="st7" d="M1603.4,1587.9c2.9-2.7,5.7-5.4,8.5-8.2c9.4-9.1,18.9-18.2,28.3-27.3c0.6-0.7,1.5-1,2.4-0.9
			c7.7,2,15,5,21.9,9c10.8,6.2,19.1,15,26.6,24.8c8,10.3,14.9,21.4,20.8,33c5.9,11.7,11.5,23.7,17.1,35.6c0.4,0.7,0.4,1.6,0.1,2.4
			c-2.3,2.4-4.8,4.7-7.4,7.2c-5.6-5.8-10.9-11.3-16.3-16.9c-7.2-7.5-14.4-14.9-21.6-22.4c-2.6-2.6-5.9-3.2-8.8-1.5
			c-4.1,2.4-4.7,7.6-1.2,11.1c12,12.5,24,24.9,36,37.4c0.6,0.6,1.2,1.2,1.7,1.8c-0.1,0.3-0.3,0.5-0.4,0.7c-2.1,2.1-4.3,4-6.3,6.2
			c-0.7,0.9-1.9,1-2.8,0.4c-22.7-10.7-44.7-22.7-64.5-38.2c-7.4-5.6-14.1-12.1-19.9-19.3c-7.4-9.6-12-20.4-15-32.1
			C1602.3,1589.7,1602.6,1588.6,1603.4,1587.9z M1624.8,1607.2c9,9.5,24,9.8,33.4,0.8s9.8-24,0.8-33.4s-24-9.8-33.4-0.8
			c0,0-0.1,0.1-0.1,0.1C1616.2,1582.9,1615.9,1598.1,1624.8,1607.2L1624.8,1607.2z"/>
		<path class="st14" d="M1600.1,1575.6l27.8-26.8c0-0.2,0-0.5,0-0.8l-27.5-0.8C1599.2,1556.6,1599.1,1566.2,1600.1,1575.6z"/>
		<path class="st14" d="M1716.2,1596.7c7.1,13.6,14.3,27.1,21.5,40.9c10.7-1.8,21.8-3.6,33.2-5.5c-9.4-13.6-19.7-25.8-35.1-32.6
			C1729.2,1596.5,1721.2,1595.5,1716.2,1596.7z"/>
		<path class="st14" d="M1654.5,1700.2c6.5,8.5,14.4,15.4,23.2,21.8c2.3-11.6,4.6-23,6.9-34.1l-40.2-23c-1,4-1.2,8.2-0.4,12.3
			C1645.4,1685.8,1649.3,1693.3,1654.5,1700.2z"/>
		<path class="st1" d="M1625.5,1573.9c9.4-9,24.3-8.7,33.3,0.7c9,9.4,8.7,24.3-0.7,33.3c-9.4,9-24.3,8.7-33.3-0.7c0,0,0,0,0,0
			C1615.9,1598.1,1616.2,1582.9,1625.5,1573.9z M1633.1,1599.6c4.9,4.8,12.7,4.8,17.6-0.1c4.8-4.9,4.8-12.7-0.1-17.6
			c-4.8-4.8-12.6-4.8-17.4-0.1C1628.3,1586.8,1628.2,1594.7,1633.1,1599.6C1633.1,1599.6,1633.1,1599.6,1633.1,1599.6L1633.1,1599.6
			z"/>
		<path class="st9" d="M1633.1,1599.6c4.9,4.8,12.7,4.8,17.6-0.1c4.8-4.9,4.8-12.7-0.1-17.6c-4.8-4.8-12.6-4.8-17.4-0.1
			C1628.3,1586.7,1628.2,1594.7,1633.1,1599.6C1633.1,1599.6,1633.1,1599.6,1633.1,1599.6z"/>
		<path class="st7" d="M1382.6,2016.6c0,0-16.9-42.8-56.4-27.7s-45.6,38.2-45.6,50.4c0,12.3,24.4,104.5,43,102.4
			C1342.3,2139.7,1382.6,2016.6,1382.6,2016.6z"/>
		<path class="st1" d="M1318.2,1975.4c-16.5,6.5-30.3,18.6-38.9,34.1c-8.3,15.6-10.1,33.6-7.3,49.6c0.2,2,0.6,4,1,6l1.6,5.8l1.7,5.8
			c0.5,1.9,1.4,3.7,2.2,5.6c1.5,3.6,2.9,7.4,4.6,10.9l5.5,10.3c1.8,3.4,3.8,6.7,6,9.9l6.4,9.6c4.6,6.1,9.3,12.1,14,18.1
			c1.9,2.4,5.5,2.8,7.9,0.9c2.2-1.8,2.8-5,1.2-7.4l-0.3-0.4c-4.1-6.1-8.2-12.1-12.2-18.3l-5.3-9.5c-1.9-3.1-3.6-6.3-5-9.6l-4.4-9.8
			c-1.3-3.3-2.3-6.7-3.4-10c-0.6-1.6-1.1-3.3-1.6-5l-1-5.1l-1.1-5.1c-0.2-1.7-0.4-3.3-0.5-5c-1.3-13.4,1.2-26.5,7.8-37.1
			c6.8-10.4,16.9-18.1,28.8-21.9h0.2c6.3-1.8,10-8.4,8.2-14.8s-8.4-10-14.8-8.2c-0.2,0-0.3,0.1-0.5,0.2
			C1318.8,1975.2,1318.5,1975.3,1318.2,1975.4z"/>
		<path class="st1" d="M1791.6,1919l123.2-287l-9-5.1c-81.5-46.4-106.1-78.1-132-111.7c-8.9-11.4-18.1-23.3-29.6-35.9
			c-113.6-123.9-237.6-36.3-238.9-35.4l13.6,18.7c4.4-3.2,108.9-76.2,208.3,32.3c10.9,11.9,19.8,23.3,28.3,34.4
			c25.3,32.7,51.4,66.4,129.9,112.4l-108.1,251.6c-19.9-5.5-74.1-27.5-131.2-110.2c-74.7-108.2-219.5-67.1-221-66.7l6.5,22.2
			c5.3-1.5,130.3-36.6,195.4,57.7c78.3,113.4,152.9,121.5,156.1,121.8L1791.6,1919z"/>
		<g class="st5">
			<path class="st1" d="M1433.5,1722c3.5-3.1,22.5-4.1,47.7-2h0.1c38,3.2,90.2,13.8,124.1,36c0.1,0.1,0.1,0.1,0.2,0.1
				c12.8,8.4,22.9,18.4,28.8,30.3c0,0,0,0.1,0.1,0.1c7.3,14.8,19,29.1,32.6,42.3c44.8,43.6,111.1,76,113.8,77.3h0.1l23.9-46.9
				l5.5-10.8l-0.8-0.1c-9.4-1.5-98.8-17.8-155-115.6l0,0c-13.6-18.3-15.2-42.9-4.2-62.8l95.5-171.5c-6.8-8.6-1.5-2.1-9.9-11.3
				c-17.8-19.4-24.2-23.9-41.9-33.7l-96.2,181.4c-11.4,21.6-35.1,33.7-59.2,30.3c-19.3-2.7-35.4-5.4-40.8-13.3
				c-16.8-24.3,45-214.6,45-214.6c-0.1,0-0.2,0.1-0.3,0.1c-0.4,0.2-0.8,0.3-1.2,0.5c0,0-0.1,0.1-0.1,0.1
				C1507.5,1456.2,1433.5,1722,1433.5,1722z"/>
		</g>
		<path class="st1" d="M1232.9,2327.5c2.5,0,4.9-0.8,6.9-2.3c2.5-1.8,60.9-45.5,121.2-136.3c62.8-94.5,57.5-174.3,19.9-204.4
			c-35.2-28.1-88.7-10.9-143.2,46.1c-140.7,147.2-253.1,175.5-254.2,175.8c-6.2,1.6-9.9,7.9-8.3,14.1c1.6,6,7.6,9.7,13.6,8.4
			c4.8-1.1,119.7-29.7,265.6-182.3c44.7-46.7,87.6-63.6,112-44c29.1,23.2,27.8,94.5-24.7,173.5c-57.9,87.1-115.1,130.1-115.7,130.5
			c-5.1,3.8-6.2,11-2.4,16.2C1225.8,2325.8,1229.2,2327.6,1232.9,2327.5L1232.9,2327.5z"/>
		<path class="st7" d="M621.5,2112.9c87.6,86.7,102,77.4,126.2,82.4c19.9,4.1,88,12.2,141.7,0.9c60.2-12.6,152.6-65.1,188.1-147.2
			c5.5-12.8,10.3-25.9,14.4-39.2c53.2-175-32.4-365.9-204.3-440.2c-34.6-15-71.4-24.6-109-28.3c-4.3-0.4-8.6-0.7-12.9-1
			c-11.5-0.7-23-0.9-34.5-0.5c-1.5,0-3.1,0.1-4.6,0.2c-7.4,3.7-14.8,7.6-21.9,11.9c-7.7,4.5-15.3,9.3-22.6,14.4c-2,1.4-2.4,4-1.1,6
			c0.9,1.3,2.5,2,4.1,1.8c11.2-1.5,22.5-2.5,33.9-2.8c10.5-0.3,21.2-0.2,31.8,0.5c4,0.2,8,0.6,11.9,1c34.7,3.5,68.7,12.3,100.7,26.1
			c157.3,68.1,254.1,250.8,194.2,404.3c-5.2,13.3-11.5,26.2-18.8,38.5c-66.8,112.9-179.5,129.2-270.1,117.2
			C687,2148,623.5,2114,621.5,2112.9z"/>
		<path class="st1" d="M826.2,2203.6c20.8,0,43-1.5,63.5-5.8c66.7-13.9,155.8-70.6,189.3-148.2c5.6-12.9,10.4-26,14.5-39.4
			c54.1-178.1-34.1-368.2-205.3-442.2c-34.8-15.1-71.7-24.7-109.5-28.4c-4.3-0.4-8.6-0.7-12.9-1c-11.3-0.7-23-0.9-34.7-0.5
			c-1.5,0-3.1,0.1-4.6,0.2l-0.7,0.2c-7.7,3.8-15.1,7.9-22,11.9c-8,4.7-15.7,9.6-22.8,14.5c-2.7,1.9-3.5,5.6-1.6,8.3
			c1.3,1.9,3.5,2.9,5.8,2.6c11.2-1.5,22.4-2.5,33.7-2.8c10.6-0.3,21.2-0.2,31.7,0.5c4.5,0.3,8.3,0.6,11.8,1
			c34.5,3.4,68.3,12.2,100.2,26c162.4,70.3,250.9,254.4,193.3,402.2c-5.2,13.2-11.4,26-18.7,38.2c-68.9,116.4-184,127.6-268.4,116.4
			c-80.8-10.7-143.9-44.3-146.6-45.7l-10.4-5.6l8.4,8.3c76.6,75.8,97.7,78.6,118,81.4c3,0.4,5.9,0.8,9,1.4
			C757.3,2199,789.5,2203.6,826.2,2203.6z M743.1,1541.2c7.6,0,15.1,0.2,22.5,0.7c4.3,0.3,8.5,0.6,12.8,1
			c37.4,3.7,74,13.2,108.4,28.2c169.6,73.3,257,261.7,203.4,438.1c-4,13.3-8.8,26.3-14.3,39.1c-33.1,76.5-121,132.4-186.9,146.2
			c-56.3,11.7-125.5,2.2-141-0.9c-3.2-0.7-6.3-1.1-9.2-1.5c-19.1-2.6-38.8-5.3-108.3-72.9c21.1,10.1,74.1,32.8,138,41.2
			c85.4,11.3,201.9,0,271.8-118c7.3-12.4,13.6-25.3,18.9-38.7c58.3-149.4-31-335.5-195.1-406.5c-32.2-13.9-66.3-22.8-101.2-26.2
			c-3.6-0.4-7.4-0.7-12-1c-10.5-0.7-21.3-0.8-32-0.5c-11.4,0.4-22.7,1.3-34,2.8c-1.4,0.2-2.7-0.9-2.9-2.3c-0.1-1,0.3-1.9,1.1-2.4
			c7-4.9,14.6-9.7,22.5-14.4c6.7-4,14-7.9,21.5-11.7c1.4-0.1,2.8-0.1,4.2-0.2C735.2,1541.3,739.2,1541.2,743.1,1541.2L743.1,1541.2z
			"/>
		<g class="st5">
			<path class="st11" d="M621.5,2112.9c87.6,86.7,102,77.4,126.2,82.4c19.9,4.1,88,12.2,141.7,0.9c60.2-12.6,152.6-65.1,188.1-147.2
				c5.5-12.8,10.3-25.9,14.4-39.2c3.8-12.6,7-25.4,9.4-38.4c-12.2,5.9-24.9,10.9-37.8,14.9c-1.8,5.6-3.7,11.2-5.9,16.8
				c-5.2,13.3-11.5,26.2-18.8,38.5c-66.8,112.9-179.5,129.2-270.1,117.2C687,2148,623.5,2114,621.5,2112.9z"/>
			<path class="st1" d="M826.2,2203.6c20.8,0,43-1.5,63.5-5.8c66.7-13.9,155.8-70.6,189.3-148.2c5.6-12.9,10.4-26,14.5-39.4
				c3.9-12.7,7-25.5,9.4-38.6l0.6-3.3l-3,1.4c-12.2,5.9-24.7,10.8-37.6,14.8l-0.9,0.3l-0.3,0.9c-1.8,5.7-3.8,11.3-5.9,16.7
				c-5.2,13.2-11.4,26-18.7,38.2c-68.9,116.4-184,127.6-268.4,116.4c-80.8-10.7-143.9-44.3-146.6-45.7l-10.4-5.6l8.4,8.3
				c76.6,75.8,97.7,78.6,118,81.4c3,0.4,5.9,0.8,9,1.4C757.3,2199,789.5,2203.6,826.2,2203.6z M1098.9,1974.4
				c-2.3,11.8-5.2,23.4-8.7,34.9c-4,13.3-8.8,26.3-14.3,39.1c-33.1,76.5-121,132.4-186.9,146.2c-56.3,11.7-125.5,2.2-141-0.9
				c-3.2-0.7-6.3-1.1-9.2-1.5c-19.1-2.6-38.8-5.3-108.3-72.9c21.1,10.1,74.1,32.8,138,41.2c85.4,11.3,201.9,0,271.8-118
				c7.3-12.4,13.6-25.3,18.9-38.7c2-5.2,3.9-10.6,5.7-16C1076.4,1984,1087.9,1979.6,1098.9,1974.4L1098.9,1974.4z"/>
		</g>
		<path class="st1" d="M826.2,2212.1c21.3,0,44.1-1.5,65.2-5.9l0,0c57.1-11.9,156.2-62.5,195.4-153.1
			c82.1-190.2-5.5-410.9-195.7-493c-35.5-15.3-73.2-25.1-111.6-28.9c-4.4-0.4-8.8-0.8-13.2-1.1c-11.6-0.7-23.5-0.9-35.5-0.5
			c-1.6,0-3.2,0.1-4.8,0.2l-2.1,0.1l-1.9,1c-7.7,3.8-15.3,7.9-22.5,12.2c-7.9,4.6-15.7,9.6-23.3,14.8c-6.6,4.6-8.3,13.6-3.7,20.2
			c3.1,4.5,8.5,6.9,13.9,6.1c10.9-1.5,21.8-2.4,32.8-2.8c10.1-0.3,20.5-0.2,30.9,0.5c3.8,0.2,7.6,0.5,11.4,1
			c33.7,3.3,66.7,11.9,97.7,25.3c90,38.9,161.5,117.1,191.4,209.2c24.9,76.6,17.5,154.4-20.7,219.1
			c-66.5,112.4-178.1,123.1-260,112.3c-74.1-9.8-132.5-39-143.5-44.7l-7.6-4l-5.6,6.6l-5.3,6.9l5.9,6.3
			c46.3,49.8,104.8,79.9,131.6,85.4C755.8,2207.4,788.6,2212.1,826.2,2212.1z M887.3,2186.2c-49.5,10.3-115.2,3.7-137.6-0.9
			c-15.4-3.2-44.3-16.6-74.4-38.5c29.9,10.5,60.7,17.9,92.1,22.2c72,9.5,204.2,6.3,280.2-122.1c41.3-69.8,49.3-153.5,22.6-235.8
			c-31.7-97.6-107.5-180.4-202.8-221.6c-33-14.3-68-23.4-103.7-26.9c-3.5-0.4-7.3-0.7-12.2-1c-11-0.7-22.1-0.9-32.8-0.5
			c-3.4,0.1-6.8,0.3-10.2,0.5l1.5-0.9c6.2-3.7,12.8-7.2,19.4-10.6l2.2-0.1c11.4-0.4,22.7-0.2,33.6,0.5c4.1,0.3,8.3,0.6,12.5,1
			c194.8,19.2,337.2,192.8,317.9,387.7c-3.6,36.5-12.9,72.2-27.4,105.9C1032.2,2127.9,938.2,2175.6,887.3,2186.2L887.3,2186.2z"/>
		
			<ellipse transform="matrix(0.7071 -0.7071 0.7071 0.7071 -1059.7457 1387.1372)" class="st7" cx="1144.5" cy="1972.8" rx="106.6" ry="106.6"/>
		<path class="st1" d="M1144.5,2091c47.1-0.1,89.7-28.1,108.5-71.3l0,0c25.7-59.8-1.9-129.2-61.7-155c-59.8-25.7-129.2,1.9-155,61.7
			c-25.7,59.8,1.9,129.2,61.7,155C1112.7,2087.7,1128.5,2091,1144.5,2091z M1231.8,2010.5c-20.8,48.2-76.8,70.3-124.9,49.5
			c-48.2-20.8-70.3-76.8-49.5-124.9c20.8-48.2,76.8-70.3,124.9-49.5c23.1,10,41.3,28.8,50.6,52.2
			C1242.3,1961.2,1241.9,1987.4,1231.8,2010.5z"/>
		<circle class="st7" cx="1160.9" cy="1985.7" r="85.7"/>
		<path class="st1" d="M1160.9,2073.2c34.9-0.1,66.4-20.8,80.3-52.8l0,0c19-44.3-1.4-95.6-45.7-114.6c-44.3-19-95.6,1.4-114.6,45.7
			c-19,44.3,1.4,95.6,45.7,114.6C1137.4,2070.8,1149.1,2073.2,1160.9,2073.2z M1238,2019.1c-18.4,42.6-67.9,62.2-110.4,43.7
			s-62.2-67.9-43.7-110.4c18.4-42.6,67.9-62.2,110.4-43.7c20.4,8.8,36.5,25.4,44.7,46.1C1247.3,1975.5,1246.9,1998.7,1238,2019.1z"
			/>
		<g class="st5">
			<path class="st11" d="M1087,2022.5c-9.1-15.4-13.1-33.3-11.4-51.1c27.8,38.3,81.4,46.9,119.7,19.1c20.1-14.5,32.8-37,35.1-61.7
				c1.6,2.2,3.2,4.6,4.6,7c24.3,40.6,11.1,93.3-29.5,117.6c-40.6,24.3-93.3,11.1-117.6-29.5C1087.5,2023.5,1087.2,2023,1087,2022.5
				L1087,2022.5z"/>
			<path class="st1" d="M1161.1,2066.6c48.3-0.1,87.3-39.3,87.3-87.6c0-15.5-4.2-30.7-12-44.1c-1.4-2.5-3-4.8-4.7-7.2l-2.7-3.6
				l-0.4,4.5c-4.2,46.2-45,80.3-91.2,76.1c-24.2-2.2-46.2-14.7-60.5-34.4l-2.7-3.7l-0.4,4.5c-1.7,18.2,2.4,36.4,11.7,52.1l0,0
				C1101.3,2050.2,1130,2066.6,1161.1,2066.6z M1231.5,1933.6c0.7,1,1.3,2,2,3.2c23.5,40,10,91.5-30,115s-91.5,10-115-30l0,0
				c-8.1-13.8-12.1-29.6-11.5-45.6c30.4,37.5,85.4,43.4,122.9,13C1217.1,1975.3,1228.3,1955.4,1231.5,1933.6L1231.5,1933.6z"/>
		</g>
		<path class="st1" d="M1160.9,2081.7c38.3-0.1,72.8-22.8,88.1-57.9l0,0c20.9-48.6-1.5-104.9-50.1-125.8s-104.9,1.5-125.8,50.1
			s1.5,104.9,50.1,125.8C1135.1,2079.1,1147.9,2081.7,1160.9,2081.7z M1230.2,2015.7c-16.6,38.3-61,55.9-99.3,39.3
			c-38.3-16.6-55.9-61-39.3-99.3c16.6-38.3,61-55.9,99.3-39.3c0,0,0,0,0,0c38.1,16.2,55.9,60.2,39.7,98.3
			C1230.5,2015.1,1230.4,2015.4,1230.2,2015.7z"/>
		<path class="st9" d="M749.8,2406.6c0.1,3.1,5,28.4,5,28.4l17.9-0.4c12.3-0.3,22.1-13.2,21.8-29s-10.6-28.3-22.9-28.1l-17.9,0.4
			C753.6,2378,749.7,2401.5,749.8,2406.6z"/>
		<path class="st1" d="M750,2440.9l22.8-0.5c15.5-0.3,27.8-16,27.4-34.9s-13.5-34-28.8-33.7l-22.7,0.5l-0.8,4.7
			c-0.7,4-4,24.3-3.9,29.7l0,0c0.1,3.3,3.6,21.7,5.1,29.4L750,2440.9z M771.9,2383.4c9,0,16.5,10,16.8,22.4s-7,22.9-16.1,23.1
			l-13,0.3c-2-10.5-3.9-20.9-4-22.7c0-2.9,1.6-14,3-22.8l13.1-0.3H771.9z M749.8,2406.6L749.8,2406.6z"/>
		
			<ellipse transform="matrix(0.9998 -2.076797e-02 2.076797e-02 0.9998 -49.8193 16.1798)" class="st9" cx="754.1" cy="2406.7" rx="22.4" ry="28.6"/>
		<path class="st1" d="M754.4,2440.8h0.5c7.8-0.2,14.9-4.1,20.1-11c5-6.9,7.6-15.4,7.3-23.9c-0.4-18.9-13.5-34-28.8-33.7
			c-7.8,0.2-14.9,4.1-20.1,11c-10.1,14.4-9.7,33.6,1,47.5C739.7,2437.2,746.8,2440.8,754.4,2440.8z M754,2383.8
			c9,0,16.5,10,16.8,22.4c0.2,6-1.5,11.9-5,16.7c-3,4-7,6.3-11.1,6.4s-8.2-2-11.4-5.9c-3.7-4.7-5.7-10.5-5.7-16.5l0,0
			c-0.2-6,1.5-11.9,5-16.7c3-4,7-6.3,11.1-6.4H754z"/>
		<g class="st6">
			
				<ellipse transform="matrix(0.1614 -0.9869 0.9869 0.1614 -1044.3571 2483.8755)" class="st7" cx="939.4" cy="1856.5" rx="56.7" ry="48.7"/>
		</g>
		<g class="st6">
			
				<ellipse transform="matrix(0.2915 -0.9566 0.9566 0.2915 -1228.3662 2301.3494)" class="st7" cx="939.4" cy="1979.9" rx="23.8" ry="20.4"/>
		</g>
		<path class="st1" d="M840.8,2506.8c3.2,0,5.8-2.6,5.8-5.8c0,0,0,0,0,0v-74.6c0-4.8,3.9-8.6,8.6-8.6c11.2,0,20.2-9,20.2-20.2v-85.7
			c-0.1-3.2-2.8-5.7-6-5.5c-3,0.1-5.4,2.5-5.5,5.5v85.7c0,4.8-3.9,8.6-8.6,8.6c-11.2,0-20.2,9-20.2,20.2v74.6
			C834.9,2504.2,837.5,2506.8,840.8,2506.8C840.7,2506.8,840.7,2506.8,840.8,2506.8z"/>
		<path class="st7" d="M767.2,2698.2c4.4,44,20.7,105.6,73.6,129.4c83.9,37.8,105.6-87.4,110-96.2s25.3-69.5,124.7-79.6
			s96.8-35.3,96.8-35.3l-88.1-48.9l-2.5-1.4l-82.7-13.5c0,0-66.3-21-143.8-6.1s-86.5,97-88.4,103.7
			C766.1,2652.7,764.5,2672.4,767.2,2698.2z"/>
		<g class="st5">
			<path class="st1" d="M767.2,2698.2c4.4,44,20.7,105.6,73.6,129.4c83.9,37.8,105.6-87.4,110-96.2s25.3-69.5,124.7-79.6
				s96.8-35.3,96.8-35.3l-88.1-48.9c-46.1,8-115.2,28.5-143,48.9c-43,31.6-49,79.9-59.6,99.4
				C865.5,2745.7,825.5,2771.2,767.2,2698.2z"/>
		</g>
		<path class="st1" d="M868.8,2846c8.5,0,17-1.7,24.8-5.1c28.4-12.5,39.8-40.2,51.8-69.5c20.1-48.9,42.9-104.3,154.3-110.1
			c41.8-2.2,75.8-19.1,100.9-50.4c76.1-94.7,45-288.6,43.7-296.8c-0.9-6.3-6.7-10.8-13-9.9c-6.3,0.9-10.8,6.7-9.9,13
			c0,0.2,0.1,0.4,0.1,0.6c0.3,1.9,30.7,192-38.9,278.6c-21.1,26.2-48.6,39.9-84,41.8c-126.1,6.6-154.1,74.7-174.5,124.4
			c-11.1,27-19.9,48.4-39.8,57.1c-12.4,5.4-27.8,3.8-42.4-4.6c-32.1-18.4-54.8-64.7-62.2-127.1c-4.7-39.9,3.8-72.4,25.5-96.9
			c25.7-28.9,63.6-39.2,88.2-39.2c6.4-0.2,11.4-5.5,11.2-11.9c-0.2-6.1-5.1-11-11.2-11.2c-29.4,0-74.7,12.3-105.5,47
			c-25.9,29.1-36.7,68.9-31.2,114.9c11.4,95.5,51.1,131.5,73.7,144.4C842.9,2842.4,856.1,2846,868.8,2846z"/>
		<path class="st1" d="M976.1,2706.1c5.6,0,10.2-4.6,10.2-10.2c0-2.5-0.9-4.9-2.6-6.8c-2.9-3.3-72.3-80-146.4-82.7
			c-28.7-1-54.1,9-75.7,29.8c-4.1,3.9-4.2,10.4-0.2,14.4s10.4,4.2,14.4,0.2c17.7-17.1,37.6-25,60.7-24.1
			c65.6,2.4,131.3,75.2,132,75.9C970.4,2704.8,973.2,2706.1,976.1,2706.1z"/>
		<path class="st7" d="M1241.5,2383.5c-45.7,6.9-149.6,19.5-238.1,6.8c-13-1.9-25.1,7.1-27,20.1c-0.2,1.3-0.3,2.6-0.2,3.9v1.7
			c0.2,11.5,8.6,21.2,20,23.1c91.7,15,204.4,7.9,252.3,3.8c12.7-1.1,22-12.3,20.9-24.9c0-0.1,0-0.3,0-0.4l-1.5-13.8
			c-1.4-12.6-12.8-21.7-25.4-20.3C1242,2383.4,1241.8,2383.5,1241.5,2383.5z"/>
		<path class="st1" d="M1127.2,2449.9c51.3,0,96.7-3.2,121.3-5.4c13.6-1.2,23.6-13.1,22.4-26.7c0-0.2,0-0.4-0.1-0.6l-1.5-13.8
			c-1.5-13.5-13.6-23.3-27.1-21.8c-0.4,0-0.7,0.1-1.1,0.1c-41.6,6.3-148.2,19.6-237.6,6.8c-14-2-26.9,7.7-29,21.6
			c-0.2,1.4-0.3,2.8-0.3,4.2v1.7c0.2,12.3,9.2,22.7,21.4,24.7C1037.9,2447.7,1084.5,2449.9,1127.2,2449.9z M1245,2385
			c10.8,0,19.9,8.2,21.1,19l1.5,13.8c1.3,11.7-7.1,22.2-18.8,23.4c-0.2,0-0.3,0-0.5,0c-45,3.9-159.6,11.4-251.9-3.7
			c-10.5-1.7-18.3-10.7-18.5-21.4v-1.7c-0.2-12.2,9.5-22.3,21.7-22.6c1.2,0,2.4,0.1,3.6,0.2c89.9,12.9,196.8-0.4,238.6-6.8l0,0
			C1242.8,2385.1,1243.9,2385,1245,2385z"/>
		<g class="st5">
			<path class="st1" d="M976.1,2414.3v1.7c0.2,11.5,8.6,21.2,20,23.1c91.7,15,204.4,7.9,252.3,3.8c12.7-1.1,22-12.3,20.8-25
				c0-0.1,0-0.3,0-0.4l-1.5-13.8c0-0.4-0.1-0.7-0.2-1.1c-3.3,7.8-10.7,13.2-19.2,13.9c-47.9,4.1-160.6,11.3-252.3-3.8
				c-6.9-1.1-13-5.3-16.6-11.3C977.2,2405.4,976,2409.8,976.1,2414.3z"/>
		</g>
		<path class="st1" d="M1127.3,2458.4c51.6,0,97.2-3.2,122-5.4c18.2-1.6,31.8-17.7,30.2-35.9c0-0.2,0-0.5-0.1-0.7l-1.5-13.8
			c-2-18.2-18.4-31.4-36.6-29.4c-0.5,0-0.9,0.1-1.4,0.2l0,0c-41.3,6.2-146.8,19.4-235.2,6.7c-18.6-2.7-35.9,10.1-38.6,28.7
			c-0.3,1.9-0.4,3.8-0.4,5.7v1.7c0.3,16.4,12.3,30.3,28.5,32.9C1037,2456.1,1084.2,2458.4,1127.3,2458.4z M1244.9,2393.5
			c6.5,0,11.9,4.9,12.6,11.4l1.5,13.8c0.8,7-4.3,13.3-11.3,14.1c-0.1,0-0.1,0-0.2,0c-44.7,3.9-158.4,11.3-249.8-3.7
			c-6.5-1.1-11.3-6.6-11.4-13.2v-1.7c-0.1-4,1.6-7.8,4.6-10.5c3-2.7,7-3.9,11-3.3c91,13.1,199-0.4,241.1-6.8l0,0
			C1243.7,2393.5,1244.3,2393.5,1244.9,2393.5z"/>
		<path class="st15" d="M1112.8,26.2c237,0,429.2,192.1,429.2,429.1c0,343.6-387.9,661.9-387.9,661.9c-22.7,18.6-59.8,18.6-82.4,0
			c0,0-387.9-318.3-387.9-661.9C683.7,218.3,875.8,26.2,1112.8,26.2z M1112.8,265.6c-104.6,0-189.7,85.1-189.7,189.7
			s85.1,189.7,189.7,189.7s189.7-85.1,189.7-189.7S1217.4,265.6,1112.8,265.6z"/>
		<path class="st16" d="M1112.8,239.4c119.1,0,215.9,96.9,215.9,215.9s-96.8,215.9-215.9,215.9s-215.9-96.8-215.9-215.9
			S993.8,239.4,1112.8,239.4z M1112.8,645.1c104.6,0,189.7-85.1,189.7-189.7s-85.1-189.7-189.7-189.7s-189.7,85.1-189.7,189.7
			S1008.2,645.1,1112.8,645.1z"/>
		<path class="st1" d="M1112.8,0c251.1,0,455.3,204.3,455.3,455.3c0,82.2-21.2,169.5-63.1,259.4c-33,71-79,143.9-136.6,216.6
			c-97.6,123.3-193.8,202.8-197.9,206.1c-16.2,13.3-37,20-57.8,20s-41.6-6.7-57.8-20c-4-3.3-100.3-82.8-197.9-206.1
			c-57.6-72.7-103.6-145.6-136.6-216.6c-41.8-89.9-63.1-177.2-63.1-259.4C657.5,204.3,861.7,0,1112.8,0z M1137.4,1097
			c0.9-0.8,96.6-79.8,190.7-198.9c85.6-108.4,187.7-273.1,187.7-442.7c0-222.2-180.8-403-403-403s-403,180.8-403,403
			c0,169.7,102,334.4,187.7,442.7c94.2,119.1,189.8,198.1,190.7,198.9C1101.3,1107.7,1124.3,1107.7,1137.4,1097z"/>
		<path class="st1" d="M1112.8,213.2c133.5,0,242.1,108.6,242.1,242.1s-108.6,242.1-242.1,242.1S870.7,588.8,870.7,455.3
			S979.3,213.2,1112.8,213.2z M1112.8,645.1c104.6,0,189.7-85.1,189.7-189.7s-85.1-189.7-189.7-189.7s-189.7,85.1-189.7,189.7
			S1008.2,645.1,1112.8,645.1z"/>
	</g>
</g>
</svg>
